<?xml version="1.0" encoding="utf-8" standalone="no"?>
<!DOCTYPE svg PUBLIC "-//W3C//DTD SVG 1.1//EN"
  "http://www.w3.org/Graphics/SVG/1.1/DTD/svg11.dtd">
<svg xmlns:xlink="http://www.w3.org/1999/xlink" width="354.461538pt" height="265.846154pt" viewBox="0 0 354.461538 265.846154" xmlns="http://www.w3.org/2000/svg" version="1.1">
 <metadata>
  <rdf:RDF xmlns:dc="http://purl.org/dc/elements/1.1/" xmlns:cc="http://creativecommons.org/ns#" xmlns:rdf="http://www.w3.org/1999/02/22-rdf-syntax-ns#">
   <cc:Work>
    <dc:type rdf:resource="http://purl.org/dc/dcmitype/StillImage"/>
    <dc:date>2024-08-07T11:08:45.137526</dc:date>
    <dc:format>image/svg+xml</dc:format>
    <dc:creator>
     <cc:Agent>
      <dc:title>Matplotlib v3.7.1, https://matplotlib.org/</dc:title>
     </cc:Agent>
    </dc:creator>
   </cc:Work>
  </rdf:RDF>
 </metadata>
 <defs>
  <style type="text/css">*{stroke-linejoin: round; stroke-linecap: butt}</style>
 </defs>
 <g id="figure_1">
  <g id="patch_1">
   <path d="M 0 265.846154 
L 354.461538 265.846154 
L 354.461538 0 
L 0 0 
z
" style="fill: #ffffff"/>
  </g>
  <g id="axes_1">
   <g id="patch_2">
    <path d="M 62.57 223.886154 
L 343.661538 223.886154 
L 343.661538 26.64 
L 62.57 26.64 
z
" style="fill: #ffffff"/>
   </g>
   <g id="PolyCollection_1">
    <defs>
     <path id="mb5b8eb6eec" d="M 62.57 -230.24042 
L 62.57 -226.594456 
L 62.57 -226.594456 
L 68.306562 -226.594456 
L 68.306562 -222.751709 
L 74.043124 -222.751709 
L 74.043124 -218.949145 
L 79.779686 -218.949145 
L 79.779686 -214.912365 
L 85.516248 -214.912365 
L 85.516248 -211.067161 
L 91.25281 -211.067161 
L 91.25281 -207.224794 
L 96.989372 -207.224794 
L 96.989372 -203.465481 
L 102.725934 -203.465481 
L 102.725934 -199.660575 
L 108.462496 -199.660575 
L 108.462496 -195.742955 
L 114.199058 -195.742955 
L 114.199058 -191.960347 
L 119.93562 -191.960347 
L 119.93562 -188.238284 
L 125.672182 -188.238284 
L 125.672182 -184.332549 
L 131.408744 -184.332549 
L 131.408744 -180.615445 
L 137.145306 -180.615445 
L 137.145306 -176.859353 
L 142.881868 -176.859353 
L 142.881868 -173.129018 
L 148.61843 -173.129018 
L 148.61843 -169.420122 
L 154.354992 -169.420122 
L 154.354992 -165.591704 
L 160.091554 -165.591704 
L 160.091554 -161.860666 
L 165.828116 -161.860666 
L 165.828116 -158.149701 
L 171.564678 -158.149701 
L 171.564678 -154.418468 
L 177.30124 -154.418468 
L 177.30124 -150.763808 
L 183.037802 -150.763808 
L 183.037802 -147.053191 
L 188.774364 -147.053191 
L 188.774364 -143.347912 
L 194.510926 -143.347912 
L 194.510926 -139.706795 
L 200.247488 -139.706795 
L 200.247488 -136.090892 
L 205.98405 -136.090892 
L 205.98405 -132.493356 
L 211.720612 -132.493356 
L 211.720612 -128.904135 
L 217.457174 -128.904135 
L 217.457174 -125.312887 
L 223.193736 -125.312887 
L 223.193736 -121.687401 
L 228.930298 -121.687401 
L 228.930298 -118.036606 
L 234.66686 -118.036606 
L 234.66686 -114.444157 
L 240.403422 -114.444157 
L 240.403422 -110.857228 
L 246.139984 -110.857228 
L 246.139984 -107.244428 
L 251.876546 -107.244428 
L 251.876546 -103.671153 
L 257.613108 -103.671153 
L 257.613108 -100.081179 
L 263.34967 -100.081179 
L 263.34967 -96.50576 
L 269.086232 -96.50576 
L 269.086232 -92.928164 
L 274.822794 -92.928164 
L 274.822794 -89.397519 
L 280.559356 -89.397519 
L 280.559356 -85.928503 
L 286.295918 -85.928503 
L 286.295918 -82.429738 
L 292.03248 -82.429738 
L 292.03248 -78.821299 
L 297.769042 -78.821299 
L 297.769042 -75.296423 
L 303.505604 -75.296423 
L 303.505604 -71.892133 
L 309.242166 -71.892133 
L 309.242166 -68.316377 
L 314.978728 -68.316377 
L 314.978728 -64.992573 
L 320.71529 -64.992573 
L 320.71529 -61.36292 
L 326.451852 -61.36292 
L 326.451852 -57.847308 
L 332.188414 -57.847308 
L 332.188414 -54.502749 
L 337.924976 -54.502749 
L 337.924976 -50.925734 
L 343.661538 -50.925734 
L 343.661538 -54.571698 
L 343.661538 -54.571698 
L 337.924976 -54.571698 
L 337.924976 -58.148712 
L 332.188414 -58.148712 
L 332.188414 -61.493271 
L 326.451852 -61.493271 
L 326.451852 -65.008883 
L 320.71529 -65.008883 
L 320.71529 -68.638537 
L 314.978728 -68.638537 
L 314.978728 -71.962341 
L 309.242166 -71.962341 
L 309.242166 -75.538096 
L 303.505604 -75.538096 
L 303.505604 -78.942386 
L 297.769042 -78.942386 
L 297.769042 -82.467262 
L 292.03248 -82.467262 
L 292.03248 -86.075701 
L 286.295918 -86.075701 
L 286.295918 -89.574466 
L 280.559356 -89.574466 
L 280.559356 -93.043482 
L 274.822794 -93.043482 
L 274.822794 -96.574128 
L 269.086232 -96.574128 
L 269.086232 -100.151723 
L 263.34967 -100.151723 
L 263.34967 -103.727143 
L 257.613108 -103.727143 
L 257.613108 -107.317116 
L 251.876546 -107.317116 
L 251.876546 -110.890392 
L 246.139984 -110.890392 
L 246.139984 -114.503192 
L 240.403422 -114.503192 
L 240.403422 -118.090121 
L 234.66686 -118.090121 
L 234.66686 -121.682569 
L 228.930298 -121.682569 
L 228.930298 -125.333365 
L 223.193736 -125.333365 
L 223.193736 -128.95885 
L 217.457174 -128.95885 
L 217.457174 -132.550099 
L 211.720612 -132.550099 
L 211.720612 -136.139319 
L 205.98405 -136.139319 
L 205.98405 -139.736855 
L 200.247488 -139.736855 
L 200.247488 -143.352759 
L 194.510926 -143.352759 
L 194.510926 -146.993876 
L 188.774364 -146.993876 
L 188.774364 -150.699154 
L 183.037802 -150.699154 
L 183.037802 -154.409772 
L 177.30124 -154.409772 
L 177.30124 -158.064432 
L 171.564678 -158.064432 
L 171.564678 -161.795664 
L 165.828116 -161.795664 
L 165.828116 -165.506629 
L 160.091554 -165.506629 
L 160.091554 -169.237667 
L 154.354992 -169.237667 
L 154.354992 -173.066085 
L 148.61843 -173.066085 
L 148.61843 -176.774982 
L 142.881868 -176.774982 
L 142.881868 -180.505317 
L 137.145306 -180.505317 
L 137.145306 -184.261409 
L 131.408744 -184.261409 
L 131.408744 -187.978513 
L 125.672182 -187.978513 
L 125.672182 -191.884248 
L 119.93562 -191.884248 
L 119.93562 -195.60631 
L 114.199058 -195.60631 
L 114.199058 -199.388919 
L 108.462496 -199.388919 
L 108.462496 -203.306538 
L 102.725934 -203.306538 
L 102.725934 -207.111444 
L 96.989372 -207.111444 
L 96.989372 -210.870757 
L 91.25281 -210.870757 
L 91.25281 -214.713124 
L 85.516248 -214.713124 
L 85.516248 -218.558328 
L 79.779686 -218.558328 
L 79.779686 -222.595109 
L 74.043124 -222.595109 
L 74.043124 -226.397672 
L 68.306562 -226.397672 
L 68.306562 -230.24042 
L 62.57 -230.24042 
L 62.57 -230.24042 
z
" style="stroke: #1f77b4; stroke-opacity: 0.5"/>
    </defs>
    <g clip-path="url(#pb065da5242)">
     <use xlink:href="#mb5b8eb6eec" x="0" y="265.846154" style="fill: #1f77b4; fill-opacity: 0.5; stroke: #1f77b4; stroke-opacity: 0.5"/>
    </g>
   </g>
   <g id="PolyCollection_2">
    <defs>
     <path id="m67b189d8fe" d="M 62.57 -229.842145 
L 62.57 -227.358912 
L 62.57 -227.358912 
L 68.306562 -227.358912 
L 68.306562 -223.424437 
L 74.043124 -223.424437 
L 74.043124 -219.515489 
L 79.779686 -219.515489 
L 79.779686 -215.653438 
L 85.516248 -215.653438 
L 85.516248 -211.803449 
L 91.25281 -211.803449 
L 91.25281 -208.008636 
L 96.989372 -208.008636 
L 96.989372 -204.194582 
L 102.725934 -204.194582 
L 102.725934 -200.325245 
L 108.462496 -200.325245 
L 108.462496 -196.472539 
L 114.199058 -196.472539 
L 114.199058 -192.660249 
L 119.93562 -192.660249 
L 119.93562 -188.91838 
L 125.672182 -188.91838 
L 125.672182 -185.045345 
L 131.408744 -185.045345 
L 131.408744 -181.316597 
L 137.145306 -181.316597 
L 137.145306 -177.546642 
L 142.881868 -177.546642 
L 142.881868 -173.799268 
L 148.61843 -173.799268 
L 148.61843 -170.076618 
L 154.354992 -170.076618 
L 154.354992 -166.257912 
L 160.091554 -166.257912 
L 160.091554 -162.536744 
L 165.828116 -162.536744 
L 165.828116 -158.813403 
L 171.564678 -158.813403 
L 171.564678 -155.100389 
L 177.30124 -155.100389 
L 177.30124 -151.399013 
L 183.037802 -151.399013 
L 183.037802 -147.706424 
L 188.774364 -147.706424 
L 188.774364 -144.021297 
L 194.510926 -144.021297 
L 194.510926 -140.362681 
L 200.247488 -140.362681 
L 200.247488 -136.749332 
L 205.98405 -136.749332 
L 205.98405 -133.156672 
L 211.720612 -133.156672 
L 211.720612 -129.553418 
L 217.457174 -129.553418 
L 217.457174 -125.951924 
L 223.193736 -125.951924 
L 223.193736 -122.318809 
L 228.930298 -122.318809 
L 228.930298 -118.683881 
L 234.66686 -118.683881 
L 234.66686 -115.067772 
L 240.403422 -115.067772 
L 240.403422 -111.468756 
L 246.139984 -111.468756 
L 246.139984 -107.886204 
L 251.876546 -107.886204 
L 251.876546 -104.272004 
L 257.613108 -104.272004 
L 257.613108 -100.701901 
L 263.34967 -100.701901 
L 263.34967 -97.115919 
L 269.086232 -97.115919 
L 269.086232 -93.548759 
L 274.822794 -93.548759 
L 274.822794 -90.025466 
L 280.559356 -90.025466 
L 280.559356 -86.454764 
L 286.295918 -86.454764 
L 286.295918 -82.928555 
L 292.03248 -82.928555 
L 292.03248 -79.428599 
L 297.769042 -79.428599 
L 297.769042 -75.911215 
L 303.505604 -75.911215 
L 303.505604 -72.453342 
L 309.242166 -72.453342 
L 309.242166 -68.928455 
L 314.978728 -68.928455 
L 314.978728 -65.477492 
L 320.71529 -65.477492 
L 320.71529 -61.963909 
L 326.451852 -61.963909 
L 326.451852 -58.526219 
L 332.188414 -58.526219 
L 332.188414 -55.027647 
L 337.924976 -55.027647 
L 337.924976 -51.571124 
L 343.661538 -51.571124 
L 343.661538 -54.054357 
L 343.661538 -54.054357 
L 337.924976 -54.054357 
L 337.924976 -57.510879 
L 332.188414 -57.510879 
L 332.188414 -61.009452 
L 326.451852 -61.009452 
L 326.451852 -64.447142 
L 320.71529 -64.447142 
L 320.71529 -67.960725 
L 314.978728 -67.960725 
L 314.978728 -71.411688 
L 309.242166 -71.411688 
L 309.242166 -74.936575 
L 303.505604 -74.936575 
L 303.505604 -78.394447 
L 297.769042 -78.394447 
L 297.769042 -81.911832 
L 292.03248 -81.911832 
L 292.03248 -85.411788 
L 286.295918 -85.411788 
L 286.295918 -88.937997 
L 280.559356 -88.937997 
L 280.559356 -92.508699 
L 274.822794 -92.508699 
L 274.822794 -96.031992 
L 269.086232 -96.031992 
L 269.086232 -99.599152 
L 263.34967 -99.599152 
L 263.34967 -103.185134 
L 257.613108 -103.185134 
L 257.613108 -106.755237 
L 251.876546 -106.755237 
L 251.876546 -110.369437 
L 246.139984 -110.369437 
L 246.139984 -113.951988 
L 240.403422 -113.951988 
L 240.403422 -117.551005 
L 234.66686 -117.551005 
L 234.66686 -121.167114 
L 228.930298 -121.167114 
L 228.930298 -124.802041 
L 223.193736 -124.802041 
L 223.193736 -128.435157 
L 217.457174 -128.435157 
L 217.457174 -132.036651 
L 211.720612 -132.036651 
L 211.720612 -135.639905 
L 205.98405 -135.639905 
L 205.98405 -139.232565 
L 200.247488 -139.232565 
L 200.247488 -142.845914 
L 194.510926 -142.845914 
L 194.510926 -146.50453 
L 188.774364 -146.50453 
L 188.774364 -150.189657 
L 183.037802 -150.189657 
L 183.037802 -153.882246 
L 177.30124 -153.882246 
L 177.30124 -157.583622 
L 171.564678 -157.583622 
L 171.564678 -161.296636 
L 165.828116 -161.296636 
L 165.828116 -165.019977 
L 160.091554 -165.019977 
L 160.091554 -168.741145 
L 154.354992 -168.741145 
L 154.354992 -172.559851 
L 148.61843 -172.559851 
L 148.61843 -176.282501 
L 142.881868 -176.282501 
L 142.881868 -180.029875 
L 137.145306 -180.029875 
L 137.145306 -183.79983 
L 131.408744 -183.79983 
L 131.408744 -187.528577 
L 125.672182 -187.528577 
L 125.672182 -191.401612 
L 119.93562 -191.401612 
L 119.93562 -195.143481 
L 114.199058 -195.143481 
L 114.199058 -198.955772 
L 108.462496 -198.955772 
L 108.462496 -202.808478 
L 102.725934 -202.808478 
L 102.725934 -206.677815 
L 96.989372 -206.677815 
L 96.989372 -210.491868 
L 91.25281 -210.491868 
L 91.25281 -214.286682 
L 85.516248 -214.286682 
L 85.516248 -218.136671 
L 79.779686 -218.136671 
L 79.779686 -221.998722 
L 74.043124 -221.998722 
L 74.043124 -225.90767 
L 68.306562 -225.90767 
L 68.306562 -229.842145 
L 62.57 -229.842145 
L 62.57 -229.842145 
z
" style="stroke: #ff7f0e; stroke-opacity: 0.5"/>
    </defs>
    <g clip-path="url(#pb065da5242)">
     <use xlink:href="#m67b189d8fe" x="0" y="265.846154" style="fill: #ff7f0e; fill-opacity: 0.5; stroke: #ff7f0e; stroke-opacity: 0.5"/>
    </g>
   </g>
   <g id="matplotlib.axis_1">
    <g id="xtick_1">
     <g id="line2d_1">
      <path d="M 87.770541 223.886154 
L 87.770541 26.64 
" clip-path="url(#pb065da5242)" style="fill: none; stroke: #b0b0b0; stroke-width: 0.8; stroke-linecap: square"/>
     </g>
     <g id="line2d_2">
      <defs>
       <path id="ma41cf0903e" d="M 0 0 
L 0 3.5 
" style="stroke: #000000; stroke-width: 0.8"/>
      </defs>
      <g>
       <use xlink:href="#ma41cf0903e" x="87.770541" y="223.886154" style="stroke: #000000; stroke-width: 0.8"/>
      </g>
     </g>
     <g id="text_1">
      <!-- 168 -->
      <g transform="translate(78.226791 238.484591) scale(0.1 -0.1)">
       <defs>
        <path id="DejaVuSans-31" d="M 794 531 
L 1825 531 
L 1825 4091 
L 703 3866 
L 703 4441 
L 1819 4666 
L 2450 4666 
L 2450 531 
L 3481 531 
L 3481 0 
L 794 0 
L 794 531 
z
" transform="scale(0.015625)"/>
        <path id="DejaVuSans-36" d="M 2113 2584 
Q 1688 2584 1439 2293 
Q 1191 2003 1191 1497 
Q 1191 994 1439 701 
Q 1688 409 2113 409 
Q 2538 409 2786 701 
Q 3034 994 3034 1497 
Q 3034 2003 2786 2293 
Q 2538 2584 2113 2584 
z
M 3366 4563 
L 3366 3988 
Q 3128 4100 2886 4159 
Q 2644 4219 2406 4219 
Q 1781 4219 1451 3797 
Q 1122 3375 1075 2522 
Q 1259 2794 1537 2939 
Q 1816 3084 2150 3084 
Q 2853 3084 3261 2657 
Q 3669 2231 3669 1497 
Q 3669 778 3244 343 
Q 2819 -91 2113 -91 
Q 1303 -91 875 529 
Q 447 1150 447 2328 
Q 447 3434 972 4092 
Q 1497 4750 2381 4750 
Q 2619 4750 2861 4703 
Q 3103 4656 3366 4563 
z
" transform="scale(0.015625)"/>
        <path id="DejaVuSans-38" d="M 2034 2216 
Q 1584 2216 1326 1975 
Q 1069 1734 1069 1313 
Q 1069 891 1326 650 
Q 1584 409 2034 409 
Q 2484 409 2743 651 
Q 3003 894 3003 1313 
Q 3003 1734 2745 1975 
Q 2488 2216 2034 2216 
z
M 1403 2484 
Q 997 2584 770 2862 
Q 544 3141 544 3541 
Q 544 4100 942 4425 
Q 1341 4750 2034 4750 
Q 2731 4750 3128 4425 
Q 3525 4100 3525 3541 
Q 3525 3141 3298 2862 
Q 3072 2584 2669 2484 
Q 3125 2378 3379 2068 
Q 3634 1759 3634 1313 
Q 3634 634 3220 271 
Q 2806 -91 2034 -91 
Q 1263 -91 848 271 
Q 434 634 434 1313 
Q 434 1759 690 2068 
Q 947 2378 1403 2484 
z
M 1172 3481 
Q 1172 3119 1398 2916 
Q 1625 2713 2034 2713 
Q 2441 2713 2670 2916 
Q 2900 3119 2900 3481 
Q 2900 3844 2670 4047 
Q 2441 4250 2034 4250 
Q 1625 4250 1398 4047 
Q 1172 3844 1172 3481 
z
" transform="scale(0.015625)"/>
       </defs>
       <use xlink:href="#DejaVuSans-31"/>
       <use xlink:href="#DejaVuSans-36" x="63.623047"/>
       <use xlink:href="#DejaVuSans-38" x="127.246094"/>
      </g>
     </g>
    </g>
    <g id="xtick_2">
     <g id="line2d_3">
      <path d="M 140.356255 223.886154 
L 140.356255 26.64 
" clip-path="url(#pb065da5242)" style="fill: none; stroke: #b0b0b0; stroke-width: 0.8; stroke-linecap: square"/>
     </g>
     <g id="line2d_4">
      <g>
       <use xlink:href="#ma41cf0903e" x="140.356255" y="223.886154" style="stroke: #000000; stroke-width: 0.8"/>
      </g>
     </g>
     <g id="text_2">
      <!-- 170 -->
      <g transform="translate(130.812505 238.484591) scale(0.1 -0.1)">
       <defs>
        <path id="DejaVuSans-37" d="M 525 4666 
L 3525 4666 
L 3525 4397 
L 1831 0 
L 1172 0 
L 2766 4134 
L 525 4134 
L 525 4666 
z
" transform="scale(0.015625)"/>
        <path id="DejaVuSans-30" d="M 2034 4250 
Q 1547 4250 1301 3770 
Q 1056 3291 1056 2328 
Q 1056 1369 1301 889 
Q 1547 409 2034 409 
Q 2525 409 2770 889 
Q 3016 1369 3016 2328 
Q 3016 3291 2770 3770 
Q 2525 4250 2034 4250 
z
M 2034 4750 
Q 2819 4750 3233 4129 
Q 3647 3509 3647 2328 
Q 3647 1150 3233 529 
Q 2819 -91 2034 -91 
Q 1250 -91 836 529 
Q 422 1150 422 2328 
Q 422 3509 836 4129 
Q 1250 4750 2034 4750 
z
" transform="scale(0.015625)"/>
       </defs>
       <use xlink:href="#DejaVuSans-31"/>
       <use xlink:href="#DejaVuSans-37" x="63.623047"/>
       <use xlink:href="#DejaVuSans-30" x="127.246094"/>
      </g>
     </g>
    </g>
    <g id="xtick_3">
     <g id="line2d_5">
      <path d="M 192.94197 223.886154 
L 192.94197 26.64 
" clip-path="url(#pb065da5242)" style="fill: none; stroke: #b0b0b0; stroke-width: 0.8; stroke-linecap: square"/>
     </g>
     <g id="line2d_6">
      <g>
       <use xlink:href="#ma41cf0903e" x="192.94197" y="223.886154" style="stroke: #000000; stroke-width: 0.8"/>
      </g>
     </g>
     <g id="text_3">
      <!-- 172 -->
      <g transform="translate(183.39822 238.484591) scale(0.1 -0.1)">
       <defs>
        <path id="DejaVuSans-32" d="M 1228 531 
L 3431 531 
L 3431 0 
L 469 0 
L 469 531 
Q 828 903 1448 1529 
Q 2069 2156 2228 2338 
Q 2531 2678 2651 2914 
Q 2772 3150 2772 3378 
Q 2772 3750 2511 3984 
Q 2250 4219 1831 4219 
Q 1534 4219 1204 4116 
Q 875 4013 500 3803 
L 500 4441 
Q 881 4594 1212 4672 
Q 1544 4750 1819 4750 
Q 2544 4750 2975 4387 
Q 3406 4025 3406 3419 
Q 3406 3131 3298 2873 
Q 3191 2616 2906 2266 
Q 2828 2175 2409 1742 
Q 1991 1309 1228 531 
z
" transform="scale(0.015625)"/>
       </defs>
       <use xlink:href="#DejaVuSans-31"/>
       <use xlink:href="#DejaVuSans-37" x="63.623047"/>
       <use xlink:href="#DejaVuSans-32" x="127.246094"/>
      </g>
     </g>
    </g>
    <g id="xtick_4">
     <g id="line2d_7">
      <path d="M 245.527684 223.886154 
L 245.527684 26.64 
" clip-path="url(#pb065da5242)" style="fill: none; stroke: #b0b0b0; stroke-width: 0.8; stroke-linecap: square"/>
     </g>
     <g id="line2d_8">
      <g>
       <use xlink:href="#ma41cf0903e" x="245.527684" y="223.886154" style="stroke: #000000; stroke-width: 0.8"/>
      </g>
     </g>
     <g id="text_4">
      <!-- 174 -->
      <g transform="translate(235.983934 238.484591) scale(0.1 -0.1)">
       <defs>
        <path id="DejaVuSans-34" d="M 2419 4116 
L 825 1625 
L 2419 1625 
L 2419 4116 
z
M 2253 4666 
L 3047 4666 
L 3047 1625 
L 3713 1625 
L 3713 1100 
L 3047 1100 
L 3047 0 
L 2419 0 
L 2419 1100 
L 313 1100 
L 313 1709 
L 2253 4666 
z
" transform="scale(0.015625)"/>
       </defs>
       <use xlink:href="#DejaVuSans-31"/>
       <use xlink:href="#DejaVuSans-37" x="63.623047"/>
       <use xlink:href="#DejaVuSans-34" x="127.246094"/>
      </g>
     </g>
    </g>
    <g id="xtick_5">
     <g id="line2d_9">
      <path d="M 298.113399 223.886154 
L 298.113399 26.64 
" clip-path="url(#pb065da5242)" style="fill: none; stroke: #b0b0b0; stroke-width: 0.8; stroke-linecap: square"/>
     </g>
     <g id="line2d_10">
      <g>
       <use xlink:href="#ma41cf0903e" x="298.113399" y="223.886154" style="stroke: #000000; stroke-width: 0.8"/>
      </g>
     </g>
     <g id="text_5">
      <!-- 176 -->
      <g transform="translate(288.569649 238.484591) scale(0.1 -0.1)">
       <use xlink:href="#DejaVuSans-31"/>
       <use xlink:href="#DejaVuSans-37" x="63.623047"/>
       <use xlink:href="#DejaVuSans-36" x="127.246094"/>
      </g>
     </g>
    </g>
    <g id="text_6">
     <!-- True Top quark mass (GeV) -->
     <g transform="translate(135.930613 252.162716) scale(0.1 -0.1)">
      <defs>
       <path id="DejaVuSans-54" d="M -19 4666 
L 3928 4666 
L 3928 4134 
L 2272 4134 
L 2272 0 
L 1638 0 
L 1638 4134 
L -19 4134 
L -19 4666 
z
" transform="scale(0.015625)"/>
       <path id="DejaVuSans-72" d="M 2631 2963 
Q 2534 3019 2420 3045 
Q 2306 3072 2169 3072 
Q 1681 3072 1420 2755 
Q 1159 2438 1159 1844 
L 1159 0 
L 581 0 
L 581 3500 
L 1159 3500 
L 1159 2956 
Q 1341 3275 1631 3429 
Q 1922 3584 2338 3584 
Q 2397 3584 2469 3576 
Q 2541 3569 2628 3553 
L 2631 2963 
z
" transform="scale(0.015625)"/>
       <path id="DejaVuSans-75" d="M 544 1381 
L 544 3500 
L 1119 3500 
L 1119 1403 
Q 1119 906 1312 657 
Q 1506 409 1894 409 
Q 2359 409 2629 706 
Q 2900 1003 2900 1516 
L 2900 3500 
L 3475 3500 
L 3475 0 
L 2900 0 
L 2900 538 
Q 2691 219 2414 64 
Q 2138 -91 1772 -91 
Q 1169 -91 856 284 
Q 544 659 544 1381 
z
M 1991 3584 
L 1991 3584 
z
" transform="scale(0.015625)"/>
       <path id="DejaVuSans-65" d="M 3597 1894 
L 3597 1613 
L 953 1613 
Q 991 1019 1311 708 
Q 1631 397 2203 397 
Q 2534 397 2845 478 
Q 3156 559 3463 722 
L 3463 178 
Q 3153 47 2828 -22 
Q 2503 -91 2169 -91 
Q 1331 -91 842 396 
Q 353 884 353 1716 
Q 353 2575 817 3079 
Q 1281 3584 2069 3584 
Q 2775 3584 3186 3129 
Q 3597 2675 3597 1894 
z
M 3022 2063 
Q 3016 2534 2758 2815 
Q 2500 3097 2075 3097 
Q 1594 3097 1305 2825 
Q 1016 2553 972 2059 
L 3022 2063 
z
" transform="scale(0.015625)"/>
       <path id="DejaVuSans-20" transform="scale(0.015625)"/>
       <path id="DejaVuSans-6f" d="M 1959 3097 
Q 1497 3097 1228 2736 
Q 959 2375 959 1747 
Q 959 1119 1226 758 
Q 1494 397 1959 397 
Q 2419 397 2687 759 
Q 2956 1122 2956 1747 
Q 2956 2369 2687 2733 
Q 2419 3097 1959 3097 
z
M 1959 3584 
Q 2709 3584 3137 3096 
Q 3566 2609 3566 1747 
Q 3566 888 3137 398 
Q 2709 -91 1959 -91 
Q 1206 -91 779 398 
Q 353 888 353 1747 
Q 353 2609 779 3096 
Q 1206 3584 1959 3584 
z
" transform="scale(0.015625)"/>
       <path id="DejaVuSans-70" d="M 1159 525 
L 1159 -1331 
L 581 -1331 
L 581 3500 
L 1159 3500 
L 1159 2969 
Q 1341 3281 1617 3432 
Q 1894 3584 2278 3584 
Q 2916 3584 3314 3078 
Q 3713 2572 3713 1747 
Q 3713 922 3314 415 
Q 2916 -91 2278 -91 
Q 1894 -91 1617 61 
Q 1341 213 1159 525 
z
M 3116 1747 
Q 3116 2381 2855 2742 
Q 2594 3103 2138 3103 
Q 1681 3103 1420 2742 
Q 1159 2381 1159 1747 
Q 1159 1113 1420 752 
Q 1681 391 2138 391 
Q 2594 391 2855 752 
Q 3116 1113 3116 1747 
z
" transform="scale(0.015625)"/>
       <path id="DejaVuSans-71" d="M 947 1747 
Q 947 1113 1208 752 
Q 1469 391 1925 391 
Q 2381 391 2643 752 
Q 2906 1113 2906 1747 
Q 2906 2381 2643 2742 
Q 2381 3103 1925 3103 
Q 1469 3103 1208 2742 
Q 947 2381 947 1747 
z
M 2906 525 
Q 2725 213 2448 61 
Q 2172 -91 1784 -91 
Q 1150 -91 751 415 
Q 353 922 353 1747 
Q 353 2572 751 3078 
Q 1150 3584 1784 3584 
Q 2172 3584 2448 3432 
Q 2725 3281 2906 2969 
L 2906 3500 
L 3481 3500 
L 3481 -1331 
L 2906 -1331 
L 2906 525 
z
" transform="scale(0.015625)"/>
       <path id="DejaVuSans-61" d="M 2194 1759 
Q 1497 1759 1228 1600 
Q 959 1441 959 1056 
Q 959 750 1161 570 
Q 1363 391 1709 391 
Q 2188 391 2477 730 
Q 2766 1069 2766 1631 
L 2766 1759 
L 2194 1759 
z
M 3341 1997 
L 3341 0 
L 2766 0 
L 2766 531 
Q 2569 213 2275 61 
Q 1981 -91 1556 -91 
Q 1019 -91 701 211 
Q 384 513 384 1019 
Q 384 1609 779 1909 
Q 1175 2209 1959 2209 
L 2766 2209 
L 2766 2266 
Q 2766 2663 2505 2880 
Q 2244 3097 1772 3097 
Q 1472 3097 1187 3025 
Q 903 2953 641 2809 
L 641 3341 
Q 956 3463 1253 3523 
Q 1550 3584 1831 3584 
Q 2591 3584 2966 3190 
Q 3341 2797 3341 1997 
z
" transform="scale(0.015625)"/>
       <path id="DejaVuSans-6b" d="M 581 4863 
L 1159 4863 
L 1159 1991 
L 2875 3500 
L 3609 3500 
L 1753 1863 
L 3688 0 
L 2938 0 
L 1159 1709 
L 1159 0 
L 581 0 
L 581 4863 
z
" transform="scale(0.015625)"/>
       <path id="DejaVuSans-6d" d="M 3328 2828 
Q 3544 3216 3844 3400 
Q 4144 3584 4550 3584 
Q 5097 3584 5394 3201 
Q 5691 2819 5691 2113 
L 5691 0 
L 5113 0 
L 5113 2094 
Q 5113 2597 4934 2840 
Q 4756 3084 4391 3084 
Q 3944 3084 3684 2787 
Q 3425 2491 3425 1978 
L 3425 0 
L 2847 0 
L 2847 2094 
Q 2847 2600 2669 2842 
Q 2491 3084 2119 3084 
Q 1678 3084 1418 2786 
Q 1159 2488 1159 1978 
L 1159 0 
L 581 0 
L 581 3500 
L 1159 3500 
L 1159 2956 
Q 1356 3278 1631 3431 
Q 1906 3584 2284 3584 
Q 2666 3584 2933 3390 
Q 3200 3197 3328 2828 
z
" transform="scale(0.015625)"/>
       <path id="DejaVuSans-73" d="M 2834 3397 
L 2834 2853 
Q 2591 2978 2328 3040 
Q 2066 3103 1784 3103 
Q 1356 3103 1142 2972 
Q 928 2841 928 2578 
Q 928 2378 1081 2264 
Q 1234 2150 1697 2047 
L 1894 2003 
Q 2506 1872 2764 1633 
Q 3022 1394 3022 966 
Q 3022 478 2636 193 
Q 2250 -91 1575 -91 
Q 1294 -91 989 -36 
Q 684 19 347 128 
L 347 722 
Q 666 556 975 473 
Q 1284 391 1588 391 
Q 1994 391 2212 530 
Q 2431 669 2431 922 
Q 2431 1156 2273 1281 
Q 2116 1406 1581 1522 
L 1381 1569 
Q 847 1681 609 1914 
Q 372 2147 372 2553 
Q 372 3047 722 3315 
Q 1072 3584 1716 3584 
Q 2034 3584 2315 3537 
Q 2597 3491 2834 3397 
z
" transform="scale(0.015625)"/>
       <path id="DejaVuSans-28" d="M 1984 4856 
Q 1566 4138 1362 3434 
Q 1159 2731 1159 2009 
Q 1159 1288 1364 580 
Q 1569 -128 1984 -844 
L 1484 -844 
Q 1016 -109 783 600 
Q 550 1309 550 2009 
Q 550 2706 781 3412 
Q 1013 4119 1484 4856 
L 1984 4856 
z
" transform="scale(0.015625)"/>
       <path id="DejaVuSans-47" d="M 3809 666 
L 3809 1919 
L 2778 1919 
L 2778 2438 
L 4434 2438 
L 4434 434 
Q 4069 175 3628 42 
Q 3188 -91 2688 -91 
Q 1594 -91 976 548 
Q 359 1188 359 2328 
Q 359 3472 976 4111 
Q 1594 4750 2688 4750 
Q 3144 4750 3555 4637 
Q 3966 4525 4313 4306 
L 4313 3634 
Q 3963 3931 3569 4081 
Q 3175 4231 2741 4231 
Q 1884 4231 1454 3753 
Q 1025 3275 1025 2328 
Q 1025 1384 1454 906 
Q 1884 428 2741 428 
Q 3075 428 3337 486 
Q 3600 544 3809 666 
z
" transform="scale(0.015625)"/>
       <path id="DejaVuSans-56" d="M 1831 0 
L 50 4666 
L 709 4666 
L 2188 738 
L 3669 4666 
L 4325 4666 
L 2547 0 
L 1831 0 
z
" transform="scale(0.015625)"/>
       <path id="DejaVuSans-29" d="M 513 4856 
L 1013 4856 
Q 1481 4119 1714 3412 
Q 1947 2706 1947 2009 
Q 1947 1309 1714 600 
Q 1481 -109 1013 -844 
L 513 -844 
Q 928 -128 1133 580 
Q 1338 1288 1338 2009 
Q 1338 2731 1133 3434 
Q 928 4138 513 4856 
z
" transform="scale(0.015625)"/>
      </defs>
      <use xlink:href="#DejaVuSans-54"/>
      <use xlink:href="#DejaVuSans-72" x="46.333984"/>
      <use xlink:href="#DejaVuSans-75" x="87.447266"/>
      <use xlink:href="#DejaVuSans-65" x="150.826172"/>
      <use xlink:href="#DejaVuSans-20" x="212.349609"/>
      <use xlink:href="#DejaVuSans-54" x="244.136719"/>
      <use xlink:href="#DejaVuSans-6f" x="288.220703"/>
      <use xlink:href="#DejaVuSans-70" x="349.402344"/>
      <use xlink:href="#DejaVuSans-20" x="412.878906"/>
      <use xlink:href="#DejaVuSans-71" x="444.666016"/>
      <use xlink:href="#DejaVuSans-75" x="508.142578"/>
      <use xlink:href="#DejaVuSans-61" x="571.521484"/>
      <use xlink:href="#DejaVuSans-72" x="632.800781"/>
      <use xlink:href="#DejaVuSans-6b" x="673.914062"/>
      <use xlink:href="#DejaVuSans-20" x="731.824219"/>
      <use xlink:href="#DejaVuSans-6d" x="763.611328"/>
      <use xlink:href="#DejaVuSans-61" x="861.023438"/>
      <use xlink:href="#DejaVuSans-73" x="922.302734"/>
      <use xlink:href="#DejaVuSans-73" x="974.402344"/>
      <use xlink:href="#DejaVuSans-20" x="1026.501953"/>
      <use xlink:href="#DejaVuSans-28" x="1058.289062"/>
      <use xlink:href="#DejaVuSans-47" x="1097.302734"/>
      <use xlink:href="#DejaVuSans-65" x="1174.792969"/>
      <use xlink:href="#DejaVuSans-56" x="1236.316406"/>
      <use xlink:href="#DejaVuSans-29" x="1304.724609"/>
     </g>
    </g>
   </g>
   <g id="matplotlib.axis_2">
    <g id="ytick_1">
     <g id="line2d_11">
      <path d="M 62.57 216.394867 
L 343.661538 216.394867 
" clip-path="url(#pb065da5242)" style="fill: none; stroke: #b0b0b0; stroke-width: 0.8; stroke-linecap: square"/>
     </g>
     <g id="line2d_12">
      <defs>
       <path id="mced166cdd0" d="M 0 0 
L -3.5 0 
" style="stroke: #000000; stroke-width: 0.8"/>
      </defs>
      <g>
       <use xlink:href="#mced166cdd0" x="62.57" y="216.394867" style="stroke: #000000; stroke-width: 0.8"/>
      </g>
     </g>
     <g id="text_7">
      <!-- −0.03 -->
      <g transform="translate(24.924687 220.194086) scale(0.1 -0.1)">
       <defs>
        <path id="DejaVuSans-2212" d="M 678 2272 
L 4684 2272 
L 4684 1741 
L 678 1741 
L 678 2272 
z
" transform="scale(0.015625)"/>
        <path id="DejaVuSans-2e" d="M 684 794 
L 1344 794 
L 1344 0 
L 684 0 
L 684 794 
z
" transform="scale(0.015625)"/>
        <path id="DejaVuSans-33" d="M 2597 2516 
Q 3050 2419 3304 2112 
Q 3559 1806 3559 1356 
Q 3559 666 3084 287 
Q 2609 -91 1734 -91 
Q 1441 -91 1130 -33 
Q 819 25 488 141 
L 488 750 
Q 750 597 1062 519 
Q 1375 441 1716 441 
Q 2309 441 2620 675 
Q 2931 909 2931 1356 
Q 2931 1769 2642 2001 
Q 2353 2234 1838 2234 
L 1294 2234 
L 1294 2753 
L 1863 2753 
Q 2328 2753 2575 2939 
Q 2822 3125 2822 3475 
Q 2822 3834 2567 4026 
Q 2313 4219 1838 4219 
Q 1578 4219 1281 4162 
Q 984 4106 628 3988 
L 628 4550 
Q 988 4650 1302 4700 
Q 1616 4750 1894 4750 
Q 2613 4750 3031 4423 
Q 3450 4097 3450 3541 
Q 3450 3153 3228 2886 
Q 3006 2619 2597 2516 
z
" transform="scale(0.015625)"/>
       </defs>
       <use xlink:href="#DejaVuSans-2212"/>
       <use xlink:href="#DejaVuSans-30" x="83.789062"/>
       <use xlink:href="#DejaVuSans-2e" x="147.412109"/>
       <use xlink:href="#DejaVuSans-30" x="179.199219"/>
       <use xlink:href="#DejaVuSans-33" x="242.822266"/>
      </g>
     </g>
    </g>
    <g id="ytick_2">
     <g id="line2d_13">
      <path d="M 62.57 187.504071 
L 343.661538 187.504071 
" clip-path="url(#pb065da5242)" style="fill: none; stroke: #b0b0b0; stroke-width: 0.8; stroke-linecap: square"/>
     </g>
     <g id="line2d_14">
      <g>
       <use xlink:href="#mced166cdd0" x="62.57" y="187.504071" style="stroke: #000000; stroke-width: 0.8"/>
      </g>
     </g>
     <g id="text_8">
      <!-- −0.02 -->
      <g transform="translate(24.924687 191.30329) scale(0.1 -0.1)">
       <use xlink:href="#DejaVuSans-2212"/>
       <use xlink:href="#DejaVuSans-30" x="83.789062"/>
       <use xlink:href="#DejaVuSans-2e" x="147.412109"/>
       <use xlink:href="#DejaVuSans-30" x="179.199219"/>
       <use xlink:href="#DejaVuSans-32" x="242.822266"/>
      </g>
     </g>
    </g>
    <g id="ytick_3">
     <g id="line2d_15">
      <path d="M 62.57 158.613275 
L 343.661538 158.613275 
" clip-path="url(#pb065da5242)" style="fill: none; stroke: #b0b0b0; stroke-width: 0.8; stroke-linecap: square"/>
     </g>
     <g id="line2d_16">
      <g>
       <use xlink:href="#mced166cdd0" x="62.57" y="158.613275" style="stroke: #000000; stroke-width: 0.8"/>
      </g>
     </g>
     <g id="text_9">
      <!-- −0.01 -->
      <g transform="translate(24.924687 162.412493) scale(0.1 -0.1)">
       <use xlink:href="#DejaVuSans-2212"/>
       <use xlink:href="#DejaVuSans-30" x="83.789062"/>
       <use xlink:href="#DejaVuSans-2e" x="147.412109"/>
       <use xlink:href="#DejaVuSans-30" x="179.199219"/>
       <use xlink:href="#DejaVuSans-31" x="242.822266"/>
      </g>
     </g>
    </g>
    <g id="ytick_4">
     <g id="line2d_17">
      <path d="M 62.57 129.722478 
L 343.661538 129.722478 
" clip-path="url(#pb065da5242)" style="fill: none; stroke: #b0b0b0; stroke-width: 0.8; stroke-linecap: square"/>
     </g>
     <g id="line2d_18">
      <g>
       <use xlink:href="#mced166cdd0" x="62.57" y="129.722478" style="stroke: #000000; stroke-width: 0.8"/>
      </g>
     </g>
     <g id="text_10">
      <!-- 0.00 -->
      <g transform="translate(33.304375 133.521697) scale(0.1 -0.1)">
       <use xlink:href="#DejaVuSans-30"/>
       <use xlink:href="#DejaVuSans-2e" x="63.623047"/>
       <use xlink:href="#DejaVuSans-30" x="95.410156"/>
       <use xlink:href="#DejaVuSans-30" x="159.033203"/>
      </g>
     </g>
    </g>
    <g id="ytick_5">
     <g id="line2d_19">
      <path d="M 62.57 100.831682 
L 343.661538 100.831682 
" clip-path="url(#pb065da5242)" style="fill: none; stroke: #b0b0b0; stroke-width: 0.8; stroke-linecap: square"/>
     </g>
     <g id="line2d_20">
      <g>
       <use xlink:href="#mced166cdd0" x="62.57" y="100.831682" style="stroke: #000000; stroke-width: 0.8"/>
      </g>
     </g>
     <g id="text_11">
      <!-- 0.01 -->
      <g transform="translate(33.304375 104.630901) scale(0.1 -0.1)">
       <use xlink:href="#DejaVuSans-30"/>
       <use xlink:href="#DejaVuSans-2e" x="63.623047"/>
       <use xlink:href="#DejaVuSans-30" x="95.410156"/>
       <use xlink:href="#DejaVuSans-31" x="159.033203"/>
      </g>
     </g>
    </g>
    <g id="ytick_6">
     <g id="line2d_21">
      <path d="M 62.57 71.940886 
L 343.661538 71.940886 
" clip-path="url(#pb065da5242)" style="fill: none; stroke: #b0b0b0; stroke-width: 0.8; stroke-linecap: square"/>
     </g>
     <g id="line2d_22">
      <g>
       <use xlink:href="#mced166cdd0" x="62.57" y="71.940886" style="stroke: #000000; stroke-width: 0.8"/>
      </g>
     </g>
     <g id="text_12">
      <!-- 0.02 -->
      <g transform="translate(33.304375 75.740105) scale(0.1 -0.1)">
       <use xlink:href="#DejaVuSans-30"/>
       <use xlink:href="#DejaVuSans-2e" x="63.623047"/>
       <use xlink:href="#DejaVuSans-30" x="95.410156"/>
       <use xlink:href="#DejaVuSans-32" x="159.033203"/>
      </g>
     </g>
    </g>
    <g id="ytick_7">
     <g id="line2d_23">
      <path d="M 62.57 43.050089 
L 343.661538 43.050089 
" clip-path="url(#pb065da5242)" style="fill: none; stroke: #b0b0b0; stroke-width: 0.8; stroke-linecap: square"/>
     </g>
     <g id="line2d_24">
      <g>
       <use xlink:href="#mced166cdd0" x="62.57" y="43.050089" style="stroke: #000000; stroke-width: 0.8"/>
      </g>
     </g>
     <g id="text_13">
      <!-- 0.03 -->
      <g transform="translate(33.304375 46.849308) scale(0.1 -0.1)">
       <use xlink:href="#DejaVuSans-30"/>
       <use xlink:href="#DejaVuSans-2e" x="63.623047"/>
       <use xlink:href="#DejaVuSans-30" x="95.410156"/>
       <use xlink:href="#DejaVuSans-33" x="159.033203"/>
      </g>
     </g>
    </g>
    <g id="text_14">
     <!-- Relative bias -->
     <g transform="translate(18.845 157.248233) rotate(-90) scale(0.1 -0.1)">
      <defs>
       <path id="DejaVuSans-52" d="M 2841 2188 
Q 3044 2119 3236 1894 
Q 3428 1669 3622 1275 
L 4263 0 
L 3584 0 
L 2988 1197 
Q 2756 1666 2539 1819 
Q 2322 1972 1947 1972 
L 1259 1972 
L 1259 0 
L 628 0 
L 628 4666 
L 2053 4666 
Q 2853 4666 3247 4331 
Q 3641 3997 3641 3322 
Q 3641 2881 3436 2590 
Q 3231 2300 2841 2188 
z
M 1259 4147 
L 1259 2491 
L 2053 2491 
Q 2509 2491 2742 2702 
Q 2975 2913 2975 3322 
Q 2975 3731 2742 3939 
Q 2509 4147 2053 4147 
L 1259 4147 
z
" transform="scale(0.015625)"/>
       <path id="DejaVuSans-6c" d="M 603 4863 
L 1178 4863 
L 1178 0 
L 603 0 
L 603 4863 
z
" transform="scale(0.015625)"/>
       <path id="DejaVuSans-74" d="M 1172 4494 
L 1172 3500 
L 2356 3500 
L 2356 3053 
L 1172 3053 
L 1172 1153 
Q 1172 725 1289 603 
Q 1406 481 1766 481 
L 2356 481 
L 2356 0 
L 1766 0 
Q 1100 0 847 248 
Q 594 497 594 1153 
L 594 3053 
L 172 3053 
L 172 3500 
L 594 3500 
L 594 4494 
L 1172 4494 
z
" transform="scale(0.015625)"/>
       <path id="DejaVuSans-69" d="M 603 3500 
L 1178 3500 
L 1178 0 
L 603 0 
L 603 3500 
z
M 603 4863 
L 1178 4863 
L 1178 4134 
L 603 4134 
L 603 4863 
z
" transform="scale(0.015625)"/>
       <path id="DejaVuSans-76" d="M 191 3500 
L 800 3500 
L 1894 563 
L 2988 3500 
L 3597 3500 
L 2284 0 
L 1503 0 
L 191 3500 
z
" transform="scale(0.015625)"/>
       <path id="DejaVuSans-62" d="M 3116 1747 
Q 3116 2381 2855 2742 
Q 2594 3103 2138 3103 
Q 1681 3103 1420 2742 
Q 1159 2381 1159 1747 
Q 1159 1113 1420 752 
Q 1681 391 2138 391 
Q 2594 391 2855 752 
Q 3116 1113 3116 1747 
z
M 1159 2969 
Q 1341 3281 1617 3432 
Q 1894 3584 2278 3584 
Q 2916 3584 3314 3078 
Q 3713 2572 3713 1747 
Q 3713 922 3314 415 
Q 2916 -91 2278 -91 
Q 1894 -91 1617 61 
Q 1341 213 1159 525 
L 1159 0 
L 581 0 
L 581 4863 
L 1159 4863 
L 1159 2969 
z
" transform="scale(0.015625)"/>
      </defs>
      <use xlink:href="#DejaVuSans-52"/>
      <use xlink:href="#DejaVuSans-65" x="64.982422"/>
      <use xlink:href="#DejaVuSans-6c" x="126.505859"/>
      <use xlink:href="#DejaVuSans-61" x="154.289062"/>
      <use xlink:href="#DejaVuSans-74" x="215.568359"/>
      <use xlink:href="#DejaVuSans-69" x="254.777344"/>
      <use xlink:href="#DejaVuSans-76" x="282.560547"/>
      <use xlink:href="#DejaVuSans-65" x="341.740234"/>
      <use xlink:href="#DejaVuSans-20" x="403.263672"/>
      <use xlink:href="#DejaVuSans-62" x="435.050781"/>
      <use xlink:href="#DejaVuSans-69" x="498.527344"/>
      <use xlink:href="#DejaVuSans-61" x="526.310547"/>
      <use xlink:href="#DejaVuSans-73" x="587.589844"/>
     </g>
    </g>
   </g>
   <g id="line2d_25">
    <path d="M 62.57 37.460063 
L 62.57 37.460063 
L 68.306562 37.460063 
L 68.306562 41.30281 
L 74.043124 41.30281 
L 74.043124 45.105373 
L 79.779686 45.105373 
L 79.779686 49.142154 
L 85.516248 49.142154 
L 85.516248 52.987358 
L 91.25281 52.987358 
L 91.25281 56.829725 
L 96.989372 56.829725 
L 96.989372 60.589038 
L 102.725934 60.589038 
L 102.725934 64.393944 
L 108.462496 64.393944 
L 108.462496 68.311564 
L 114.199058 68.311564 
L 114.199058 72.094172 
L 119.93562 72.094172 
L 119.93562 75.816234 
L 125.672182 75.816234 
L 125.672182 79.721969 
L 131.408744 79.721969 
L 131.408744 83.439073 
L 137.145306 83.439073 
L 137.145306 87.195165 
L 142.881868 87.195165 
L 142.881868 90.9255 
L 148.61843 90.9255 
L 148.61843 94.634397 
L 154.354992 94.634397 
L 154.354992 98.462815 
L 160.091554 98.462815 
L 160.091554 102.193853 
L 165.828116 102.193853 
L 165.828116 105.904818 
L 171.564678 105.904818 
L 171.564678 109.636051 
L 177.30124 109.636051 
L 177.30124 113.29071 
L 183.037802 113.29071 
L 183.037802 117.001328 
L 188.774364 117.001328 
L 188.774364 120.706607 
L 194.510926 120.706607 
L 194.510926 124.347723 
L 200.247488 124.347723 
L 200.247488 127.963627 
L 205.98405 127.963627 
L 205.98405 131.561163 
L 211.720612 131.561163 
L 211.720612 135.150383 
L 217.457174 135.150383 
L 217.457174 138.741632 
L 223.193736 138.741632 
L 223.193736 142.367117 
L 228.930298 142.367117 
L 228.930298 146.017913 
L 234.66686 146.017913 
L 234.66686 149.610361 
L 240.403422 149.610361 
L 240.403422 153.197291 
L 246.139984 153.197291 
L 246.139984 156.81009 
L 251.876546 156.81009 
L 251.876546 160.383366 
L 257.613108 160.383366 
L 257.613108 163.97334 
L 263.34967 163.97334 
L 263.34967 167.548759 
L 269.086232 167.548759 
L 269.086232 171.126354 
L 274.822794 171.126354 
L 274.822794 174.657 
L 280.559356 174.657 
L 280.559356 178.126016 
L 286.295918 178.126016 
L 286.295918 181.624781 
L 292.03248 181.624781 
L 292.03248 185.23322 
L 297.769042 185.23322 
L 297.769042 188.758096 
L 303.505604 188.758096 
L 303.505604 192.162386 
L 309.242166 192.162386 
L 309.242166 195.738142 
L 314.978728 195.738142 
L 314.978728 199.061946 
L 320.71529 199.061946 
L 320.71529 202.691599 
L 326.451852 202.691599 
L 326.451852 206.207211 
L 332.188414 206.207211 
L 332.188414 209.55177 
L 337.924976 209.55177 
L 337.924976 213.128784 
L 343.661538 213.128784 
" clip-path="url(#pb065da5242)" style="fill: none; stroke: #1f77b4; stroke-width: 1.5; stroke-linecap: square"/>
   </g>
   <g id="line2d_26">
    <path d="M 62.57 37.244479 
L 62.57 37.244479 
L 68.306562 37.244479 
L 68.306562 41.178955 
L 74.043124 41.178955 
L 74.043124 45.087903 
L 79.779686 45.087903 
L 79.779686 48.949954 
L 85.516248 48.949954 
L 85.516248 52.799942 
L 91.25281 52.799942 
L 91.25281 56.594756 
L 96.989372 56.594756 
L 96.989372 60.408809 
L 102.725934 60.408809 
L 102.725934 64.278147 
L 108.462496 64.278147 
L 108.462496 68.130852 
L 114.199058 68.130852 
L 114.199058 71.943143 
L 119.93562 71.943143 
L 119.93562 75.685012 
L 125.672182 75.685012 
L 125.672182 79.558047 
L 131.408744 79.558047 
L 131.408744 83.286795 
L 137.145306 83.286795 
L 137.145306 87.05675 
L 142.881868 87.05675 
L 142.881868 90.804124 
L 148.61843 90.804124 
L 148.61843 94.526774 
L 154.354992 94.526774 
L 154.354992 98.34548 
L 160.091554 98.34548 
L 160.091554 102.066648 
L 165.828116 102.066648 
L 165.828116 105.789989 
L 171.564678 105.789989 
L 171.564678 109.503003 
L 177.30124 109.503003 
L 177.30124 113.204378 
L 183.037802 113.204378 
L 183.037802 116.896968 
L 188.774364 116.896968 
L 188.774364 120.582095 
L 194.510926 120.582095 
L 194.510926 124.240711 
L 200.247488 124.240711 
L 200.247488 127.854059 
L 205.98405 127.854059 
L 205.98405 131.44672 
L 211.720612 131.44672 
L 211.720612 135.049974 
L 217.457174 135.049974 
L 217.457174 138.651468 
L 223.193736 138.651468 
L 223.193736 142.284583 
L 228.930298 142.284583 
L 228.930298 145.919511 
L 234.66686 145.919511 
L 234.66686 149.53562 
L 240.403422 149.53562 
L 240.403422 153.134636 
L 246.139984 153.134636 
L 246.139984 156.717187 
L 251.876546 156.717187 
L 251.876546 160.331388 
L 257.613108 160.331388 
L 257.613108 163.90149 
L 263.34967 163.90149 
L 263.34967 167.487473 
L 269.086232 167.487473 
L 269.086232 171.054633 
L 274.822794 171.054633 
L 274.822794 174.577926 
L 280.559356 174.577926 
L 280.559356 178.148628 
L 286.295918 178.148628 
L 286.295918 181.674836 
L 292.03248 181.674836 
L 292.03248 185.174792 
L 297.769042 185.174792 
L 297.769042 188.692177 
L 303.505604 188.692177 
L 303.505604 192.15005 
L 309.242166 192.15005 
L 309.242166 195.674936 
L 314.978728 195.674936 
L 314.978728 199.125899 
L 320.71529 199.125899 
L 320.71529 202.639482 
L 326.451852 202.639482 
L 326.451852 206.077173 
L 332.188414 206.077173 
L 332.188414 209.575745 
L 337.924976 209.575745 
L 337.924976 213.032268 
L 343.661538 213.032268 
" clip-path="url(#pb065da5242)" style="fill: none; stroke: #ff7f0e; stroke-width: 1.5; stroke-linecap: square"/>
   </g>
   <g id="patch_3">
    <path d="M 62.57 223.886154 
L 62.57 26.64 
" style="fill: none; stroke: #000000; stroke-width: 0.8; stroke-linejoin: miter; stroke-linecap: square"/>
   </g>
   <g id="patch_4">
    <path d="M 343.661538 223.886154 
L 343.661538 26.64 
" style="fill: none; stroke: #000000; stroke-width: 0.8; stroke-linejoin: miter; stroke-linecap: square"/>
   </g>
   <g id="patch_5">
    <path d="M 62.57 223.886154 
L 343.661538 223.886154 
" style="fill: none; stroke: #000000; stroke-width: 0.8; stroke-linejoin: miter; stroke-linecap: square"/>
   </g>
   <g id="patch_6">
    <path d="M 62.57 26.64 
L 343.661538 26.64 
" style="fill: none; stroke: #000000; stroke-width: 0.8; stroke-linejoin: miter; stroke-linecap: square"/>
   </g>
   <g id="text_15">
    <!-- CMS -->
    <g transform="translate(62.57 22.956328) scale(0.169 -0.169)">
     <defs>
      <path id="TeXGyreHeros-Bold-43" d="M 4384 1594 
L 3450 1594 
C 3392 998 3014 730 2419 730 
C 1677 730 1242 1299 1242 2317 
C 1242 3347 1696 3923 2451 3923 
C 2970 3923 3309 3686 3450 3085 
L 4365 3085 
C 4282 4160 3469 4742 2419 4742 
C 1101 4742 282 3840 282 2330 
C 282 832 1094 -77 2394 -77 
C 3552 -77 4326 525 4384 1594 
z
" transform="scale(0.015625)"/>
      <path id="TeXGyreHeros-Bold-4d" d="M 4966 0 
L 4966 4666 
L 3520 4666 
L 2701 954 
L 1856 4666 
L 422 4666 
L 422 0 
L 1382 0 
L 1382 3635 
L 2221 0 
L 3181 0 
L 4006 3635 
L 4006 0 
L 4966 0 
z
" transform="scale(0.015625)"/>
      <path id="TeXGyreHeros-Bold-53" d="M 4051 1402 
C 4051 2138 3680 2483 2816 2650 
L 2086 2790 
C 1402 2925 1203 3059 1203 3398 
C 1203 3750 1517 3974 2010 3974 
C 2618 3974 2989 3718 2989 3245 
L 3885 3245 
C 3885 4230 3194 4742 2054 4742 
C 934 4742 288 4218 288 3309 
C 288 2579 653 2240 1600 2054 
L 2253 1926 
C 2893 1798 3130 1664 3130 1286 
C 3130 896 2771 691 2189 691 
C 1536 691 1139 966 1139 1466 
L 205 1466 
C 205 467 947 -77 2138 -77 
C 3341 -77 4051 454 4051 1402 
z
" transform="scale(0.015625)"/>
     </defs>
     <use xlink:href="#TeXGyreHeros-Bold-43"/>
     <use xlink:href="#TeXGyreHeros-Bold-4d" x="72.199982"/>
     <use xlink:href="#TeXGyreHeros-Bold-53" x="155.499969"/>
    </g>
   </g>
   <g id="text_16">
    <!-- Private work (CMS simulation) -->
    <g transform="translate(101.882 22.885175) scale(0.13 -0.13)">
     <defs>
      <path id="TeXGyreHeros-Italic-50" d="M 4371 3635 
C 4371 4314 3968 4666 3187 4666 
L 1254 4666 
L 262 0 
L 864 0 
L 1286 1978 
L 2746 1978 
C 3712 1978 4371 2771 4371 3635 
z
M 3757 3520 
C 3757 2957 3302 2502 2637 2502 
L 1395 2502 
L 1747 4141 
L 2989 4141 
C 3488 4141 3757 3923 3757 3520 
z
" transform="scale(0.015625)"/>
      <path id="TeXGyreHeros-Italic-72" d="M 2355 2886 
L 2470 3430 
C 2387 3443 2336 3450 2266 3450 
C 1894 3450 1606 3283 1210 2829 
L 1318 3354 
L 832 3354 
L 122 0 
L 659 0 
L 1030 1741 
C 1190 2496 1626 2886 2291 2886 
L 2355 2886 
z
" transform="scale(0.015625)"/>
      <path id="TeXGyreHeros-Italic-69" d="M 659 0 
L 1370 3354 
L 832 3354 
L 122 0 
L 659 0 
z
M 1677 4525 
L 1011 4525 
L 870 3866 
L 1536 3866 
L 1677 4525 
z
" transform="scale(0.015625)"/>
      <path id="TeXGyreHeros-Italic-76" d="M 3507 3354 
L 2925 3354 
L 1363 653 
L 1050 3354 
L 461 3354 
L 934 0 
L 1517 0 
L 3507 3354 
z
" transform="scale(0.015625)"/>
      <path id="TeXGyreHeros-Italic-61" d="M 3149 0 
L 3232 416 
C 3174 403 3149 403 3123 403 
C 2957 403 2880 461 2880 589 
C 2880 614 2880 634 2886 653 
L 3277 2490 
C 3315 2662 3315 2662 3315 2726 
C 3315 3162 2874 3450 2202 3450 
C 1312 3450 768 3072 646 2362 
L 1184 2362 
C 1312 2771 1587 2957 2061 2957 
C 2445 2957 2739 2784 2739 2547 
C 2739 2522 2733 2477 2726 2426 
L 2707 2310 
C 2662 2048 2515 1971 2061 1933 
C 1203 1850 934 1792 621 1594 
C 288 1382 102 1069 102 698 
C 102 186 454 -96 1030 -96 
C 1446 -96 1818 -38 2310 371 
L 2304 275 
C 2304 13 2502 -58 2810 -58 
C 2899 -58 2893 -45 3149 0 
z
M 2566 1651 
L 2451 1101 
C 2368 704 1805 365 1242 365 
C 877 365 666 493 666 762 
C 666 1165 954 1370 1632 1466 
C 2234 1549 2285 1555 2566 1651 
z
" transform="scale(0.015625)"/>
      <path id="TeXGyreHeros-Italic-74" d="M 1408 467 
C 1210 422 1178 416 1101 416 
C 960 416 870 486 870 589 
C 870 608 877 640 883 678 
L 1363 2925 
L 1933 2925 
L 2022 3354 
L 1453 3354 
L 1651 4275 
L 1114 4275 
L 915 3354 
L 461 3354 
L 371 2925 
L 826 2925 
L 339 659 
C 326 595 320 525 320 461 
C 320 147 538 -45 890 -45 
C 1018 -45 1216 -26 1306 0 
L 1408 467 
z
" transform="scale(0.015625)"/>
      <path id="TeXGyreHeros-Italic-65" d="M 3290 1523 
L 3302 1606 
C 3360 1914 3392 2182 3392 2355 
C 3392 2970 2861 3450 2170 3450 
C 1613 3450 1075 3187 755 2758 
C 454 2355 224 1651 224 1133 
C 224 467 717 -96 1498 -96 
C 2266 -96 2912 326 3110 1018 
L 2573 1018 
C 2355 627 2016 397 1587 397 
C 1082 397 787 685 787 1229 
C 781 1338 787 1402 819 1523 
L 3290 1523 
z
M 2816 1984 
L 934 1984 
C 1094 2547 1568 2957 2086 2957 
C 2541 2957 2829 2650 2829 2170 
C 2829 2106 2822 2061 2816 1984 
z
" transform="scale(0.015625)"/>
      <path id="TeXGyreHeros-Italic-20" transform="scale(0.015625)"/>
      <path id="TeXGyreHeros-Italic-77" d="M 4928 3354 
L 4346 3354 
L 3091 742 
L 3091 3354 
L 2349 3354 
L 1139 742 
L 1139 3354 
L 435 3354 
L 691 0 
L 1306 0 
L 2554 2675 
L 2554 0 
L 3238 0 
L 4928 3354 
z
" transform="scale(0.015625)"/>
      <path id="TeXGyreHeros-Italic-6f" d="M 3366 2253 
C 3366 2931 2906 3450 2138 3450 
C 934 3450 198 2342 198 1075 
C 198 365 698 -96 1414 -96 
C 2579 -96 3366 922 3366 2253 
z
M 2803 2131 
C 2803 1178 2266 397 1504 397 
C 1050 397 762 691 762 1203 
C 762 2131 1299 2957 2054 2957 
C 2528 2957 2803 2650 2803 2131 
z
" transform="scale(0.015625)"/>
      <path id="TeXGyreHeros-Italic-6b" d="M 2893 0 
L 1997 2195 
L 3418 3354 
L 2726 3354 
L 1005 1958 
L 1581 4666 
L 1043 4666 
L 51 0 
L 589 0 
L 864 1299 
L 1549 1862 
L 2278 0 
L 2893 0 
z
" transform="scale(0.015625)"/>
      <path id="TeXGyreHeros-Italic-28" d="M 1254 -1363 
C 1018 -749 902 -147 902 506 
C 902 1926 1459 3347 2534 4666 
L 2182 4666 
C 1069 3501 403 2042 403 742 
C 403 -19 589 -813 902 -1363 
L 1254 -1363 
z
" transform="scale(0.015625)"/>
      <path id="TeXGyreHeros-Italic-43" d="M 4384 1702 
L 3757 1702 
C 3354 787 2950 403 2125 403 
C 1459 403 1018 922 1018 1696 
C 1018 2278 1210 2925 1536 3411 
C 1926 3987 2394 4262 2982 4262 
C 3629 4262 3942 3910 3994 3219 
L 4608 3219 
C 4557 4262 3974 4781 3091 4781 
C 2342 4781 1722 4480 1222 3878 
C 717 3270 403 2381 403 1581 
C 403 563 1011 -115 2035 -115 
C 3162 -115 3840 410 4384 1702 
z
" transform="scale(0.015625)"/>
      <path id="TeXGyreHeros-Italic-4d" d="M 5542 4666 
L 4704 4666 
L 2490 653 
L 1978 4666 
L 1152 4666 
L 160 0 
L 730 0 
L 1555 3872 
L 2048 0 
L 2669 0 
L 4806 3872 
L 3981 0 
L 4550 0 
L 5542 4666 
z
" transform="scale(0.015625)"/>
      <path id="TeXGyreHeros-Italic-53" d="M 3968 1549 
C 3968 1978 3667 2349 3187 2490 
L 2086 2803 
C 1594 2944 1440 3072 1440 3354 
C 1440 3866 1952 4262 2694 4262 
C 3398 4262 3667 3994 3667 3565 
C 3667 3507 3661 3462 3642 3334 
L 4205 3334 
C 4243 3514 4256 3597 4256 3693 
C 4256 4339 3712 4781 2810 4781 
C 2150 4781 1632 4595 1286 4237 
C 1024 3968 826 3514 826 3187 
C 826 2784 1107 2445 1536 2323 
L 2630 2010 
C 3142 1862 3354 1670 3354 1370 
C 3354 838 2771 403 1901 403 
C 1178 403 845 672 845 1254 
C 845 1338 851 1395 870 1517 
L 314 1517 
C 269 1350 256 1248 256 1114 
C 256 346 832 -115 1798 -115 
C 2470 -115 3034 70 3411 422 
C 3738 723 3968 1190 3968 1549 
z
" transform="scale(0.015625)"/>
      <path id="TeXGyreHeros-Italic-73" d="M 2848 1158 
C 2848 1549 2637 1754 2074 1894 
L 1587 2016 
C 1229 2106 1043 2234 1043 2400 
C 1043 2726 1363 2957 1850 2957 
C 2227 2957 2438 2810 2438 2560 
C 2438 2515 2438 2470 2432 2419 
L 2970 2419 
C 3002 2554 3008 2611 3008 2694 
C 3008 3142 2579 3450 1958 3450 
C 1069 3450 480 2938 480 2259 
C 480 1869 704 1677 1363 1510 
L 1837 1389 
C 2240 1286 2285 1146 2285 1011 
C 2285 646 1862 397 1370 397 
C 928 397 678 570 678 890 
C 678 928 685 986 691 1050 
L 122 1050 
C 90 902 83 826 83 723 
C 83 211 531 -96 1274 -96 
C 2227 -96 2848 397 2848 1158 
z
" transform="scale(0.015625)"/>
      <path id="TeXGyreHeros-Italic-6d" d="M 4589 0 
L 5094 2387 
C 5114 2458 5133 2669 5133 2739 
C 5133 3072 4883 3450 4320 3450 
C 3904 3450 3539 3283 3162 2918 
C 3059 3277 2810 3450 2387 3450 
C 1952 3450 1658 3322 1248 2938 
L 1331 3354 
L 845 3354 
L 134 0 
L 672 0 
L 1120 2106 
C 1222 2592 1658 2989 2086 2989 
C 2400 2989 2611 2810 2611 2547 
C 2611 2477 2605 2394 2586 2310 
L 2093 0 
L 2630 0 
L 3078 2106 
C 3181 2605 3616 2989 4083 2989 
C 4384 2989 4570 2803 4570 2496 
C 4570 2400 4570 2400 4512 2182 
L 4051 0 
L 4589 0 
z
" transform="scale(0.015625)"/>
      <path id="TeXGyreHeros-Italic-75" d="M 2771 0 
L 3482 3354 
L 2944 3354 
L 2554 1504 
C 2406 813 1952 365 1408 365 
C 1062 365 838 557 838 858 
C 838 909 845 966 858 1030 
L 1350 3354 
L 813 3354 
L 275 819 
C 262 755 256 685 256 602 
C 256 166 589 -96 1139 -96 
C 1638 -96 2003 58 2368 390 
L 2285 0 
L 2771 0 
z
" transform="scale(0.015625)"/>
      <path id="TeXGyreHeros-Italic-6c" d="M 1645 4666 
L 1107 4666 
L 115 0 
L 653 0 
L 1645 4666 
z
" transform="scale(0.015625)"/>
      <path id="TeXGyreHeros-Italic-6e" d="M 3328 2406 
C 3347 2490 3354 2566 3354 2650 
C 3354 3136 3014 3450 2483 3450 
C 1997 3450 1574 3277 1242 2938 
L 1325 3354 
L 838 3354 
L 128 0 
L 666 0 
L 1056 1850 
C 1203 2554 1658 2989 2234 2989 
C 2554 2989 2790 2765 2790 2470 
C 2790 2432 2771 2336 2752 2234 
L 2278 0 
L 2816 0 
L 3328 2406 
z
" transform="scale(0.015625)"/>
      <path id="TeXGyreHeros-Italic-29" d="M 1760 2605 
C 1760 3328 1568 4134 1267 4666 
L 915 4666 
C 1158 4045 1267 3443 1267 2758 
C 1267 1376 698 -64 -365 -1363 
L -13 -1363 
C 1094 -205 1760 1274 1760 2605 
z
" transform="scale(0.015625)"/>
     </defs>
     <use xlink:href="#TeXGyreHeros-Italic-50"/>
     <use xlink:href="#TeXGyreHeros-Italic-72" x="66.699997"/>
     <use xlink:href="#TeXGyreHeros-Italic-69" x="99.999985"/>
     <use xlink:href="#TeXGyreHeros-Italic-76" x="122.199982"/>
     <use xlink:href="#TeXGyreHeros-Italic-61" x="172.199966"/>
     <use xlink:href="#TeXGyreHeros-Italic-74" x="227.799957"/>
     <use xlink:href="#TeXGyreHeros-Italic-65" x="255.599945"/>
     <use xlink:href="#TeXGyreHeros-Italic-20" x="311.199936"/>
     <use xlink:href="#TeXGyreHeros-Italic-77" x="338.999924"/>
     <use xlink:href="#TeXGyreHeros-Italic-6f" x="411.199905"/>
     <use xlink:href="#TeXGyreHeros-Italic-72" x="466.799896"/>
     <use xlink:href="#TeXGyreHeros-Italic-6b" x="500.099884"/>
     <use xlink:href="#TeXGyreHeros-Italic-20" x="550.099869"/>
     <use xlink:href="#TeXGyreHeros-Italic-28" x="577.899857"/>
     <use xlink:href="#TeXGyreHeros-Italic-43" x="611.199844"/>
     <use xlink:href="#TeXGyreHeros-Italic-4d" x="683.399826"/>
     <use xlink:href="#TeXGyreHeros-Italic-53" x="766.699814"/>
     <use xlink:href="#TeXGyreHeros-Italic-20" x="833.399811"/>
     <use xlink:href="#TeXGyreHeros-Italic-73" x="861.199799"/>
     <use xlink:href="#TeXGyreHeros-Italic-69" x="911.199783"/>
     <use xlink:href="#TeXGyreHeros-Italic-6d" x="933.39978"/>
     <use xlink:href="#TeXGyreHeros-Italic-75" x="1016.699768"/>
     <use xlink:href="#TeXGyreHeros-Italic-6c" x="1072.299759"/>
     <use xlink:href="#TeXGyreHeros-Italic-61" x="1094.499756"/>
     <use xlink:href="#TeXGyreHeros-Italic-74" x="1150.099747"/>
     <use xlink:href="#TeXGyreHeros-Italic-69" x="1177.899734"/>
     <use xlink:href="#TeXGyreHeros-Italic-6f" x="1200.099731"/>
     <use xlink:href="#TeXGyreHeros-Italic-6e" x="1255.699722"/>
     <use xlink:href="#TeXGyreHeros-Italic-29" x="1311.299713"/>
    </g>
   </g>
   <g id="legend_1">
    <g id="patch_7">
     <path d="M 86.600601 63.99625 
L 336.661538 63.99625 
Q 338.661538 63.99625 338.661538 61.99625 
L 338.661538 33.64 
Q 338.661538 31.64 336.661538 31.64 
L 86.600601 31.64 
Q 84.600601 31.64 84.600601 33.64 
L 84.600601 61.99625 
Q 84.600601 63.99625 86.600601 63.99625 
z
" style="fill: #ffffff; opacity: 0.8; stroke: #cccccc; stroke-linejoin: miter"/>
    </g>
    <g id="line2d_27">
     <path d="M 88.600601 39.738437 
L 88.600601 39.738437 
L 98.600601 39.738437 
L 98.600601 39.738437 
L 108.600601 39.738437 
" style="fill: none; stroke: #1f77b4; stroke-width: 1.5; stroke-linecap: square"/>
    </g>
    <g id="text_17">
     <!-- Network (mean abs 0.00569) -->
     <g transform="translate(116.600601 43.238437) scale(0.1 -0.1)">
      <defs>
       <path id="DejaVuSans-4e" d="M 628 4666 
L 1478 4666 
L 3547 763 
L 3547 4666 
L 4159 4666 
L 4159 0 
L 3309 0 
L 1241 3903 
L 1241 0 
L 628 0 
L 628 4666 
z
" transform="scale(0.015625)"/>
       <path id="DejaVuSans-77" d="M 269 3500 
L 844 3500 
L 1563 769 
L 2278 3500 
L 2956 3500 
L 3675 769 
L 4391 3500 
L 4966 3500 
L 4050 0 
L 3372 0 
L 2619 2869 
L 1863 0 
L 1184 0 
L 269 3500 
z
" transform="scale(0.015625)"/>
       <path id="DejaVuSans-6e" d="M 3513 2113 
L 3513 0 
L 2938 0 
L 2938 2094 
Q 2938 2591 2744 2837 
Q 2550 3084 2163 3084 
Q 1697 3084 1428 2787 
Q 1159 2491 1159 1978 
L 1159 0 
L 581 0 
L 581 3500 
L 1159 3500 
L 1159 2956 
Q 1366 3272 1645 3428 
Q 1925 3584 2291 3584 
Q 2894 3584 3203 3211 
Q 3513 2838 3513 2113 
z
" transform="scale(0.015625)"/>
       <path id="DejaVuSans-35" d="M 691 4666 
L 3169 4666 
L 3169 4134 
L 1269 4134 
L 1269 2991 
Q 1406 3038 1543 3061 
Q 1681 3084 1819 3084 
Q 2600 3084 3056 2656 
Q 3513 2228 3513 1497 
Q 3513 744 3044 326 
Q 2575 -91 1722 -91 
Q 1428 -91 1123 -41 
Q 819 9 494 109 
L 494 744 
Q 775 591 1075 516 
Q 1375 441 1709 441 
Q 2250 441 2565 725 
Q 2881 1009 2881 1497 
Q 2881 1984 2565 2268 
Q 2250 2553 1709 2553 
Q 1456 2553 1204 2497 
Q 953 2441 691 2322 
L 691 4666 
z
" transform="scale(0.015625)"/>
       <path id="DejaVuSans-39" d="M 703 97 
L 703 672 
Q 941 559 1184 500 
Q 1428 441 1663 441 
Q 2288 441 2617 861 
Q 2947 1281 2994 2138 
Q 2813 1869 2534 1725 
Q 2256 1581 1919 1581 
Q 1219 1581 811 2004 
Q 403 2428 403 3163 
Q 403 3881 828 4315 
Q 1253 4750 1959 4750 
Q 2769 4750 3195 4129 
Q 3622 3509 3622 2328 
Q 3622 1225 3098 567 
Q 2575 -91 1691 -91 
Q 1453 -91 1209 -44 
Q 966 3 703 97 
z
M 1959 2075 
Q 2384 2075 2632 2365 
Q 2881 2656 2881 3163 
Q 2881 3666 2632 3958 
Q 2384 4250 1959 4250 
Q 1534 4250 1286 3958 
Q 1038 3666 1038 3163 
Q 1038 2656 1286 2365 
Q 1534 2075 1959 2075 
z
" transform="scale(0.015625)"/>
      </defs>
      <use xlink:href="#DejaVuSans-4e"/>
      <use xlink:href="#DejaVuSans-65" x="74.804688"/>
      <use xlink:href="#DejaVuSans-74" x="136.328125"/>
      <use xlink:href="#DejaVuSans-77" x="175.537109"/>
      <use xlink:href="#DejaVuSans-6f" x="257.324219"/>
      <use xlink:href="#DejaVuSans-72" x="318.505859"/>
      <use xlink:href="#DejaVuSans-6b" x="359.619141"/>
      <use xlink:href="#DejaVuSans-20" x="417.529297"/>
      <use xlink:href="#DejaVuSans-28" x="449.316406"/>
      <use xlink:href="#DejaVuSans-6d" x="488.330078"/>
      <use xlink:href="#DejaVuSans-65" x="585.742188"/>
      <use xlink:href="#DejaVuSans-61" x="647.265625"/>
      <use xlink:href="#DejaVuSans-6e" x="708.544922"/>
      <use xlink:href="#DejaVuSans-20" x="771.923828"/>
      <use xlink:href="#DejaVuSans-61" x="803.710938"/>
      <use xlink:href="#DejaVuSans-62" x="864.990234"/>
      <use xlink:href="#DejaVuSans-73" x="928.466797"/>
      <use xlink:href="#DejaVuSans-20" x="980.566406"/>
      <use xlink:href="#DejaVuSans-30" x="1012.353516"/>
      <use xlink:href="#DejaVuSans-2e" x="1075.976562"/>
      <use xlink:href="#DejaVuSans-30" x="1107.763672"/>
      <use xlink:href="#DejaVuSans-30" x="1171.386719"/>
      <use xlink:href="#DejaVuSans-35" x="1235.009766"/>
      <use xlink:href="#DejaVuSans-36" x="1298.632812"/>
      <use xlink:href="#DejaVuSans-39" x="1362.255859"/>
      <use xlink:href="#DejaVuSans-29" x="1425.878906"/>
     </g>
    </g>
    <g id="line2d_28">
     <path d="M 88.600601 54.416562 
L 88.600601 54.416562 
L 98.600601 54.416562 
L 98.600601 54.416562 
L 108.600601 54.416562 
" style="fill: none; stroke: #ff7f0e; stroke-width: 1.5; stroke-linecap: square"/>
    </g>
    <g id="text_18">
     <!-- Analytic Sonnenschein (mean abs 0.00568) -->
     <g transform="translate(116.600601 57.916562) scale(0.1 -0.1)">
      <defs>
       <path id="DejaVuSans-41" d="M 2188 4044 
L 1331 1722 
L 3047 1722 
L 2188 4044 
z
M 1831 4666 
L 2547 4666 
L 4325 0 
L 3669 0 
L 3244 1197 
L 1141 1197 
L 716 0 
L 50 0 
L 1831 4666 
z
" transform="scale(0.015625)"/>
       <path id="DejaVuSans-79" d="M 2059 -325 
Q 1816 -950 1584 -1140 
Q 1353 -1331 966 -1331 
L 506 -1331 
L 506 -850 
L 844 -850 
Q 1081 -850 1212 -737 
Q 1344 -625 1503 -206 
L 1606 56 
L 191 3500 
L 800 3500 
L 1894 763 
L 2988 3500 
L 3597 3500 
L 2059 -325 
z
" transform="scale(0.015625)"/>
       <path id="DejaVuSans-63" d="M 3122 3366 
L 3122 2828 
Q 2878 2963 2633 3030 
Q 2388 3097 2138 3097 
Q 1578 3097 1268 2742 
Q 959 2388 959 1747 
Q 959 1106 1268 751 
Q 1578 397 2138 397 
Q 2388 397 2633 464 
Q 2878 531 3122 666 
L 3122 134 
Q 2881 22 2623 -34 
Q 2366 -91 2075 -91 
Q 1284 -91 818 406 
Q 353 903 353 1747 
Q 353 2603 823 3093 
Q 1294 3584 2113 3584 
Q 2378 3584 2631 3529 
Q 2884 3475 3122 3366 
z
" transform="scale(0.015625)"/>
       <path id="DejaVuSans-53" d="M 3425 4513 
L 3425 3897 
Q 3066 4069 2747 4153 
Q 2428 4238 2131 4238 
Q 1616 4238 1336 4038 
Q 1056 3838 1056 3469 
Q 1056 3159 1242 3001 
Q 1428 2844 1947 2747 
L 2328 2669 
Q 3034 2534 3370 2195 
Q 3706 1856 3706 1288 
Q 3706 609 3251 259 
Q 2797 -91 1919 -91 
Q 1588 -91 1214 -16 
Q 841 59 441 206 
L 441 856 
Q 825 641 1194 531 
Q 1563 422 1919 422 
Q 2459 422 2753 634 
Q 3047 847 3047 1241 
Q 3047 1584 2836 1778 
Q 2625 1972 2144 2069 
L 1759 2144 
Q 1053 2284 737 2584 
Q 422 2884 422 3419 
Q 422 4038 858 4394 
Q 1294 4750 2059 4750 
Q 2388 4750 2728 4690 
Q 3069 4631 3425 4513 
z
" transform="scale(0.015625)"/>
       <path id="DejaVuSans-68" d="M 3513 2113 
L 3513 0 
L 2938 0 
L 2938 2094 
Q 2938 2591 2744 2837 
Q 2550 3084 2163 3084 
Q 1697 3084 1428 2787 
Q 1159 2491 1159 1978 
L 1159 0 
L 581 0 
L 581 4863 
L 1159 4863 
L 1159 2956 
Q 1366 3272 1645 3428 
Q 1925 3584 2291 3584 
Q 2894 3584 3203 3211 
Q 3513 2838 3513 2113 
z
" transform="scale(0.015625)"/>
      </defs>
      <use xlink:href="#DejaVuSans-41"/>
      <use xlink:href="#DejaVuSans-6e" x="68.408203"/>
      <use xlink:href="#DejaVuSans-61" x="131.787109"/>
      <use xlink:href="#DejaVuSans-6c" x="193.066406"/>
      <use xlink:href="#DejaVuSans-79" x="220.849609"/>
      <use xlink:href="#DejaVuSans-74" x="280.029297"/>
      <use xlink:href="#DejaVuSans-69" x="319.238281"/>
      <use xlink:href="#DejaVuSans-63" x="347.021484"/>
      <use xlink:href="#DejaVuSans-20" x="402.001953"/>
      <use xlink:href="#DejaVuSans-53" x="433.789062"/>
      <use xlink:href="#DejaVuSans-6f" x="497.265625"/>
      <use xlink:href="#DejaVuSans-6e" x="558.447266"/>
      <use xlink:href="#DejaVuSans-6e" x="621.826172"/>
      <use xlink:href="#DejaVuSans-65" x="685.205078"/>
      <use xlink:href="#DejaVuSans-6e" x="746.728516"/>
      <use xlink:href="#DejaVuSans-73" x="810.107422"/>
      <use xlink:href="#DejaVuSans-63" x="862.207031"/>
      <use xlink:href="#DejaVuSans-68" x="917.1875"/>
      <use xlink:href="#DejaVuSans-65" x="980.566406"/>
      <use xlink:href="#DejaVuSans-69" x="1042.089844"/>
      <use xlink:href="#DejaVuSans-6e" x="1069.873047"/>
      <use xlink:href="#DejaVuSans-20" x="1133.251953"/>
      <use xlink:href="#DejaVuSans-28" x="1165.039062"/>
      <use xlink:href="#DejaVuSans-6d" x="1204.052734"/>
      <use xlink:href="#DejaVuSans-65" x="1301.464844"/>
      <use xlink:href="#DejaVuSans-61" x="1362.988281"/>
      <use xlink:href="#DejaVuSans-6e" x="1424.267578"/>
      <use xlink:href="#DejaVuSans-20" x="1487.646484"/>
      <use xlink:href="#DejaVuSans-61" x="1519.433594"/>
      <use xlink:href="#DejaVuSans-62" x="1580.712891"/>
      <use xlink:href="#DejaVuSans-73" x="1644.189453"/>
      <use xlink:href="#DejaVuSans-20" x="1696.289062"/>
      <use xlink:href="#DejaVuSans-30" x="1728.076172"/>
      <use xlink:href="#DejaVuSans-2e" x="1791.699219"/>
      <use xlink:href="#DejaVuSans-30" x="1823.486328"/>
      <use xlink:href="#DejaVuSans-30" x="1887.109375"/>
      <use xlink:href="#DejaVuSans-35" x="1950.732422"/>
      <use xlink:href="#DejaVuSans-36" x="2014.355469"/>
      <use xlink:href="#DejaVuSans-38" x="2077.978516"/>
      <use xlink:href="#DejaVuSans-29" x="2141.601562"/>
     </g>
    </g>
   </g>
  </g>
 </g>
 <defs>
  <clipPath id="pb065da5242">
   <rect x="62.57" y="26.64" width="281.091538" height="197.246154"/>
  </clipPath>
 </defs>
</svg>
