<?xml version="1.0" encoding="utf-8" standalone="no"?>
<!DOCTYPE svg PUBLIC "-//W3C//DTD SVG 1.1//EN"
  "http://www.w3.org/Graphics/SVG/1.1/DTD/svg11.dtd">
<svg xmlns:xlink="http://www.w3.org/1999/xlink" width="354.461538pt" height="265.846154pt" viewBox="0 0 354.461538 265.846154" xmlns="http://www.w3.org/2000/svg" version="1.1">
 <metadata>
  <rdf:RDF xmlns:dc="http://purl.org/dc/elements/1.1/" xmlns:cc="http://creativecommons.org/ns#" xmlns:rdf="http://www.w3.org/1999/02/22-rdf-syntax-ns#">
   <cc:Work>
    <dc:type rdf:resource="http://purl.org/dc/dcmitype/StillImage"/>
    <dc:date>2024-08-07T11:09:06.848534</dc:date>
    <dc:format>image/svg+xml</dc:format>
    <dc:creator>
     <cc:Agent>
      <dc:title>Matplotlib v3.7.1, https://matplotlib.org/</dc:title>
     </cc:Agent>
    </dc:creator>
   </cc:Work>
  </rdf:RDF>
 </metadata>
 <defs>
  <style type="text/css">*{stroke-linejoin: round; stroke-linecap: butt}</style>
 </defs>
 <g id="figure_1">
  <g id="patch_1">
   <path d="M 0 265.846154 
L 354.461538 265.846154 
L 354.461538 0 
L 0 0 
z
" style="fill: #ffffff"/>
  </g>
  <g id="axes_1">
   <g id="patch_2">
    <path d="M 46.64 219.688654 
L 343.661538 219.688654 
L 343.661538 26.64 
L 46.64 26.64 
z
" style="fill: #ffffff"/>
   </g>
   <g id="PolyCollection_1">
    <defs>
     <path id="m393df013cc" d="M 46.64 -148.386123 
L 46.64 -54.932439 
L 46.64 -54.932439 
L 52.701664 -54.932439 
L 52.701664 -55.845302 
L 58.763328 -55.845302 
L 58.763328 -57.605784 
L 64.824992 -57.605784 
L 64.824992 -58.272688 
L 70.886656 -58.272688 
L 70.886656 -58.761971 
L 76.94832 -58.761971 
L 76.94832 -59.104531 
L 83.009984 -59.104531 
L 83.009984 -61.718149 
L 89.071648 -61.718149 
L 89.071648 -63.601574 
L 95.133312 -63.601574 
L 95.133312 -65.060475 
L 101.194976 -65.060475 
L 101.194976 -66.035889 
L 107.256641 -66.035889 
L 107.256641 -69.810011 
L 113.318305 -69.810011 
L 113.318305 -71.677987 
L 119.379969 -71.677987 
L 119.379969 -71.423332 
L 125.441633 -71.423332 
L 125.441633 -73.995924 
L 131.503297 -73.995924 
L 131.503297 -76.600419 
L 137.564961 -76.600419 
L 137.564961 -78.811127 
L 143.626625 -78.811127 
L 143.626625 -79.168052 
L 149.688289 -79.168052 
L 149.688289 -81.948601 
L 155.749953 -81.948601 
L 155.749953 -83.607958 
L 161.811617 -83.607958 
L 161.811617 -84.719381 
L 167.873281 -84.719381 
L 167.873281 -86.29555 
L 173.934945 -86.29555 
L 173.934945 -89.010298 
L 179.996609 -89.010298 
L 179.996609 -92.098651 
L 186.058273 -92.098651 
L 186.058273 -92.12798 
L 192.119937 -92.12798 
L 192.119937 -96.770021 
L 198.181601 -96.770021 
L 198.181601 -97.06891 
L 204.243265 -97.06891 
L 204.243265 -99.116823 
L 210.304929 -99.116823 
L 210.304929 -101.211697 
L 216.366593 -101.211697 
L 216.366593 -104.852017 
L 222.428257 -104.852017 
L 222.428257 -106.297847 
L 228.489922 -106.297847 
L 228.489922 -106.962961 
L 234.551586 -106.962961 
L 234.551586 -110.14502 
L 240.61325 -110.14502 
L 240.61325 -111.665362 
L 246.674914 -111.665362 
L 246.674914 -113.395623 
L 252.736578 -113.395623 
L 252.736578 -115.040055 
L 258.798242 -115.040055 
L 258.798242 -117.302606 
L 264.859906 -117.302606 
L 264.859906 -119.827992 
L 270.92157 -119.827992 
L 270.92157 -121.737028 
L 276.983234 -121.737028 
L 276.983234 -123.289954 
L 283.044898 -123.289954 
L 283.044898 -125.046691 
L 289.106562 -125.046691 
L 289.106562 -125.390653 
L 295.168226 -125.390653 
L 295.168226 -127.7174 
L 301.22989 -127.7174 
L 301.22989 -130.275102 
L 307.291554 -130.275102 
L 307.291554 -131.213574 
L 313.353218 -131.213574 
L 313.353218 -133.329302 
L 319.414882 -133.329302 
L 319.414882 -134.219083 
L 325.476546 -134.219083 
L 325.476546 -134.998718 
L 331.53821 -134.998718 
L 331.53821 -136.517819 
L 337.599874 -136.517819 
L 337.599874 -136.97753 
L 343.661538 -136.97753 
L 343.661538 -230.431215 
L 343.661538 -230.431215 
L 337.599874 -230.431215 
L 337.599874 -229.971504 
L 331.53821 -229.971504 
L 331.53821 -228.452403 
L 325.476546 -228.452403 
L 325.476546 -227.672768 
L 319.414882 -227.672768 
L 319.414882 -226.782986 
L 313.353218 -226.782986 
L 313.353218 -224.667259 
L 307.291554 -224.667259 
L 307.291554 -223.728787 
L 301.22989 -223.728787 
L 301.22989 -221.171085 
L 295.168226 -221.171085 
L 295.168226 -218.844338 
L 289.106562 -218.844338 
L 289.106562 -218.500376 
L 283.044898 -218.500376 
L 283.044898 -216.743639 
L 276.983234 -216.743639 
L 276.983234 -215.190713 
L 270.92157 -215.190713 
L 270.92157 -213.281677 
L 264.859906 -213.281677 
L 264.859906 -210.756291 
L 258.798242 -210.756291 
L 258.798242 -208.49374 
L 252.736578 -208.49374 
L 252.736578 -206.849307 
L 246.674914 -206.849307 
L 246.674914 -205.119047 
L 240.61325 -205.119047 
L 240.61325 -203.598704 
L 234.551586 -203.598704 
L 234.551586 -200.416646 
L 228.489922 -200.416646 
L 228.489922 -199.751532 
L 222.428257 -199.751532 
L 222.428257 -198.305702 
L 216.366593 -198.305702 
L 216.366593 -194.665382 
L 210.304929 -194.665382 
L 210.304929 -192.570508 
L 204.243265 -192.570508 
L 204.243265 -190.522595 
L 198.181601 -190.522595 
L 198.181601 -190.223706 
L 192.119937 -190.223706 
L 192.119937 -185.581665 
L 186.058273 -185.581665 
L 186.058273 -185.552336 
L 179.996609 -185.552336 
L 179.996609 -182.463982 
L 173.934945 -182.463982 
L 173.934945 -179.749235 
L 167.873281 -179.749235 
L 167.873281 -178.173066 
L 161.811617 -178.173066 
L 161.811617 -177.061643 
L 155.749953 -177.061643 
L 155.749953 -175.402286 
L 149.688289 -175.402286 
L 149.688289 -172.621737 
L 143.626625 -172.621737 
L 143.626625 -172.264812 
L 137.564961 -172.264812 
L 137.564961 -170.054103 
L 131.503297 -170.054103 
L 131.503297 -167.449609 
L 125.441633 -167.449609 
L 125.441633 -164.877016 
L 119.379969 -164.877016 
L 119.379969 -165.131672 
L 113.318305 -165.131672 
L 113.318305 -163.263696 
L 107.256641 -163.263696 
L 107.256641 -159.489573 
L 101.194976 -159.489573 
L 101.194976 -158.514159 
L 95.133312 -158.514159 
L 95.133312 -157.055259 
L 89.071648 -157.055259 
L 89.071648 -155.171834 
L 83.009984 -155.171834 
L 83.009984 -152.558216 
L 76.94832 -152.558216 
L 76.94832 -152.215656 
L 70.886656 -152.215656 
L 70.886656 -151.726372 
L 64.824992 -151.726372 
L 64.824992 -151.059468 
L 58.763328 -151.059468 
L 58.763328 -149.298987 
L 52.701664 -149.298987 
L 52.701664 -148.386123 
L 46.64 -148.386123 
L 46.64 -148.386123 
z
" style="stroke: #1f77b4; stroke-opacity: 0.5"/>
    </defs>
    <g clip-path="url(#pb4d8cddf16)">
     <use xlink:href="#m393df013cc" x="0" y="265.846154" style="fill: #1f77b4; fill-opacity: 0.5; stroke: #1f77b4; stroke-opacity: 0.5"/>
    </g>
   </g>
   <g id="PolyCollection_2">
    <defs>
     <path id="m4aeb03ddb0" d="M 46.64 -141.145052 
L 46.64 -68.301589 
L 46.64 -68.301589 
L 52.701664 -68.301589 
L 52.701664 -68.811033 
L 58.763328 -68.811033 
L 58.763328 -69.901438 
L 64.824992 -69.901438 
L 64.824992 -72.869906 
L 70.886656 -72.869906 
L 70.886656 -73.889813 
L 76.94832 -73.889813 
L 76.94832 -76.424489 
L 83.009984 -76.424489 
L 83.009984 -75.596775 
L 89.071648 -75.596775 
L 89.071648 -78.273153 
L 95.133312 -78.273153 
L 95.133312 -81.151179 
L 101.194976 -81.151179 
L 101.194976 -81.728096 
L 107.256641 -81.728096 
L 107.256641 -82.773867 
L 113.318305 -82.773867 
L 113.318305 -85.794866 
L 119.379969 -85.794866 
L 119.379969 -87.676508 
L 125.441633 -87.676508 
L 125.441633 -90.270718 
L 131.503297 -90.270718 
L 131.503297 -90.954934 
L 137.564961 -90.954934 
L 137.564961 -93.211271 
L 143.626625 -93.211271 
L 143.626625 -94.637061 
L 149.688289 -94.637061 
L 149.688289 -96.351968 
L 155.749953 -96.351968 
L 155.749953 -99.346977 
L 161.811617 -99.346977 
L 161.811617 -99.455572 
L 167.873281 -99.455572 
L 167.873281 -102.241724 
L 173.934945 -102.241724 
L 173.934945 -104.738067 
L 179.996609 -104.738067 
L 179.996609 -106.550156 
L 186.058273 -106.550156 
L 186.058273 -107.501444 
L 192.119937 -107.501444 
L 192.119937 -109.801914 
L 198.181601 -109.801914 
L 198.181601 -111.555737 
L 204.243265 -111.555737 
L 204.243265 -113.270941 
L 210.304929 -113.270941 
L 210.304929 -115.572284 
L 216.366593 -115.572284 
L 216.366593 -117.091971 
L 222.428257 -117.091971 
L 222.428257 -119.061583 
L 228.489922 -119.061583 
L 228.489922 -121.502234 
L 234.551586 -121.502234 
L 234.551586 -123.60682 
L 240.61325 -123.60682 
L 240.61325 -125.392986 
L 246.674914 -125.392986 
L 246.674914 -127.528721 
L 252.736578 -127.528721 
L 252.736578 -128.482154 
L 258.798242 -128.482154 
L 258.798242 -130.924255 
L 264.859906 -130.924255 
L 264.859906 -132.447028 
L 270.92157 -132.447028 
L 270.92157 -133.816726 
L 276.983234 -133.816726 
L 276.983234 -135.112126 
L 283.044898 -135.112126 
L 283.044898 -136.580818 
L 289.106562 -136.580818 
L 289.106562 -138.241852 
L 295.168226 -138.241852 
L 295.168226 -139.983985 
L 301.22989 -139.983985 
L 301.22989 -142.699645 
L 307.291554 -142.699645 
L 307.291554 -143.43263 
L 313.353218 -143.43263 
L 313.353218 -146.780173 
L 319.414882 -146.780173 
L 319.414882 -146.915205 
L 325.476546 -146.915205 
L 325.476546 -149.568946 
L 331.53821 -149.568946 
L 331.53821 -151.290134 
L 337.599874 -151.290134 
L 337.599874 -151.069761 
L 343.661538 -151.069761 
L 343.661538 -223.913225 
L 343.661538 -223.913225 
L 337.599874 -223.913225 
L 337.599874 -224.133597 
L 331.53821 -224.133597 
L 331.53821 -222.41241 
L 325.476546 -222.41241 
L 325.476546 -219.758668 
L 319.414882 -219.758668 
L 319.414882 -219.623637 
L 313.353218 -219.623637 
L 313.353218 -216.276094 
L 307.291554 -216.276094 
L 307.291554 -215.543109 
L 301.22989 -215.543109 
L 301.22989 -212.827449 
L 295.168226 -212.827449 
L 295.168226 -211.085316 
L 289.106562 -211.085316 
L 289.106562 -209.424281 
L 283.044898 -209.424281 
L 283.044898 -207.95559 
L 276.983234 -207.95559 
L 276.983234 -206.660189 
L 270.92157 -206.660189 
L 270.92157 -205.290492 
L 264.859906 -205.290492 
L 264.859906 -203.767719 
L 258.798242 -203.767719 
L 258.798242 -201.325618 
L 252.736578 -201.325618 
L 252.736578 -200.372184 
L 246.674914 -200.372184 
L 246.674914 -198.23645 
L 240.61325 -198.23645 
L 240.61325 -196.450284 
L 234.551586 -196.450284 
L 234.551586 -194.345697 
L 228.489922 -194.345697 
L 228.489922 -191.905047 
L 222.428257 -191.905047 
L 222.428257 -189.935435 
L 216.366593 -189.935435 
L 216.366593 -188.415747 
L 210.304929 -188.415747 
L 210.304929 -186.114405 
L 204.243265 -186.114405 
L 204.243265 -184.3992 
L 198.181601 -184.3992 
L 198.181601 -182.645378 
L 192.119937 -182.645378 
L 192.119937 -180.344908 
L 186.058273 -180.344908 
L 186.058273 -179.39362 
L 179.996609 -179.39362 
L 179.996609 -177.58153 
L 173.934945 -177.58153 
L 173.934945 -175.085187 
L 167.873281 -175.085187 
L 167.873281 -172.299035 
L 161.811617 -172.299035 
L 161.811617 -172.190441 
L 155.749953 -172.190441 
L 155.749953 -169.195431 
L 149.688289 -169.195431 
L 149.688289 -167.480525 
L 143.626625 -167.480525 
L 143.626625 -166.054735 
L 137.564961 -166.054735 
L 137.564961 -163.798398 
L 131.503297 -163.798398 
L 131.503297 -163.114182 
L 125.441633 -163.114182 
L 125.441633 -160.519972 
L 119.379969 -160.519972 
L 119.379969 -158.63833 
L 113.318305 -158.63833 
L 113.318305 -155.617331 
L 107.256641 -155.617331 
L 107.256641 -154.571559 
L 101.194976 -154.571559 
L 101.194976 -153.994642 
L 95.133312 -153.994642 
L 95.133312 -151.116616 
L 89.071648 -151.116616 
L 89.071648 -148.440239 
L 83.009984 -148.440239 
L 83.009984 -149.267953 
L 76.94832 -149.267953 
L 76.94832 -146.733277 
L 70.886656 -146.733277 
L 70.886656 -145.71337 
L 64.824992 -145.71337 
L 64.824992 -142.744901 
L 58.763328 -142.744901 
L 58.763328 -141.654497 
L 52.701664 -141.654497 
L 52.701664 -141.145052 
L 46.64 -141.145052 
L 46.64 -141.145052 
z
" style="stroke: #ff7f0e; stroke-opacity: 0.5"/>
    </defs>
    <g clip-path="url(#pb4d8cddf16)">
     <use xlink:href="#m4aeb03ddb0" x="0" y="265.846154" style="fill: #ff7f0e; fill-opacity: 0.5; stroke: #ff7f0e; stroke-opacity: 0.5"/>
    </g>
   </g>
   <g id="matplotlib.axis_1">
    <g id="xtick_1">
     <g id="line2d_1">
      <path d="M 72.870988 219.688654 
L 72.870988 26.64 
" clip-path="url(#pb4d8cddf16)" style="fill: none; stroke: #b0b0b0; stroke-width: 0.8; stroke-linecap: square"/>
     </g>
     <g id="line2d_2">
      <defs>
       <path id="m19b2778baf" d="M 0 0 
L 0 3.5 
" style="stroke: #000000; stroke-width: 0.8"/>
      </defs>
      <g>
       <use xlink:href="#m19b2778baf" x="72.870988" y="219.688654" style="stroke: #000000; stroke-width: 0.8"/>
      </g>
     </g>
     <g id="text_1">
      <!-- −1.5 -->
      <g transform="translate(60.729582 234.287091) scale(0.1 -0.1)">
       <defs>
        <path id="DejaVuSans-2212" d="M 678 2272 
L 4684 2272 
L 4684 1741 
L 678 1741 
L 678 2272 
z
" transform="scale(0.015625)"/>
        <path id="DejaVuSans-31" d="M 794 531 
L 1825 531 
L 1825 4091 
L 703 3866 
L 703 4441 
L 1819 4666 
L 2450 4666 
L 2450 531 
L 3481 531 
L 3481 0 
L 794 0 
L 794 531 
z
" transform="scale(0.015625)"/>
        <path id="DejaVuSans-2e" d="M 684 794 
L 1344 794 
L 1344 0 
L 684 0 
L 684 794 
z
" transform="scale(0.015625)"/>
        <path id="DejaVuSans-35" d="M 691 4666 
L 3169 4666 
L 3169 4134 
L 1269 4134 
L 1269 2991 
Q 1406 3038 1543 3061 
Q 1681 3084 1819 3084 
Q 2600 3084 3056 2656 
Q 3513 2228 3513 1497 
Q 3513 744 3044 326 
Q 2575 -91 1722 -91 
Q 1428 -91 1123 -41 
Q 819 9 494 109 
L 494 744 
Q 775 591 1075 516 
Q 1375 441 1709 441 
Q 2250 441 2565 725 
Q 2881 1009 2881 1497 
Q 2881 1984 2565 2268 
Q 2250 2553 1709 2553 
Q 1456 2553 1204 2497 
Q 953 2441 691 2322 
L 691 4666 
z
" transform="scale(0.015625)"/>
       </defs>
       <use xlink:href="#DejaVuSans-2212"/>
       <use xlink:href="#DejaVuSans-31" x="83.789062"/>
       <use xlink:href="#DejaVuSans-2e" x="147.412109"/>
       <use xlink:href="#DejaVuSans-35" x="179.199219"/>
      </g>
     </g>
    </g>
    <g id="xtick_2">
     <g id="line2d_3">
      <path d="M 113.704645 219.688654 
L 113.704645 26.64 
" clip-path="url(#pb4d8cddf16)" style="fill: none; stroke: #b0b0b0; stroke-width: 0.8; stroke-linecap: square"/>
     </g>
     <g id="line2d_4">
      <g>
       <use xlink:href="#m19b2778baf" x="113.704645" y="219.688654" style="stroke: #000000; stroke-width: 0.8"/>
      </g>
     </g>
     <g id="text_2">
      <!-- −1.0 -->
      <g transform="translate(101.563239 234.287091) scale(0.1 -0.1)">
       <defs>
        <path id="DejaVuSans-30" d="M 2034 4250 
Q 1547 4250 1301 3770 
Q 1056 3291 1056 2328 
Q 1056 1369 1301 889 
Q 1547 409 2034 409 
Q 2525 409 2770 889 
Q 3016 1369 3016 2328 
Q 3016 3291 2770 3770 
Q 2525 4250 2034 4250 
z
M 2034 4750 
Q 2819 4750 3233 4129 
Q 3647 3509 3647 2328 
Q 3647 1150 3233 529 
Q 2819 -91 2034 -91 
Q 1250 -91 836 529 
Q 422 1150 422 2328 
Q 422 3509 836 4129 
Q 1250 4750 2034 4750 
z
" transform="scale(0.015625)"/>
       </defs>
       <use xlink:href="#DejaVuSans-2212"/>
       <use xlink:href="#DejaVuSans-31" x="83.789062"/>
       <use xlink:href="#DejaVuSans-2e" x="147.412109"/>
       <use xlink:href="#DejaVuSans-30" x="179.199219"/>
      </g>
     </g>
    </g>
    <g id="xtick_3">
     <g id="line2d_5">
      <path d="M 154.538302 219.688654 
L 154.538302 26.64 
" clip-path="url(#pb4d8cddf16)" style="fill: none; stroke: #b0b0b0; stroke-width: 0.8; stroke-linecap: square"/>
     </g>
     <g id="line2d_6">
      <g>
       <use xlink:href="#m19b2778baf" x="154.538302" y="219.688654" style="stroke: #000000; stroke-width: 0.8"/>
      </g>
     </g>
     <g id="text_3">
      <!-- −0.5 -->
      <g transform="translate(142.396896 234.287091) scale(0.1 -0.1)">
       <use xlink:href="#DejaVuSans-2212"/>
       <use xlink:href="#DejaVuSans-30" x="83.789062"/>
       <use xlink:href="#DejaVuSans-2e" x="147.412109"/>
       <use xlink:href="#DejaVuSans-35" x="179.199219"/>
      </g>
     </g>
    </g>
    <g id="xtick_4">
     <g id="line2d_7">
      <path d="M 195.371959 219.688654 
L 195.371959 26.64 
" clip-path="url(#pb4d8cddf16)" style="fill: none; stroke: #b0b0b0; stroke-width: 0.8; stroke-linecap: square"/>
     </g>
     <g id="line2d_8">
      <g>
       <use xlink:href="#m19b2778baf" x="195.371959" y="219.688654" style="stroke: #000000; stroke-width: 0.8"/>
      </g>
     </g>
     <g id="text_4">
      <!-- 0.0 -->
      <g transform="translate(187.420396 234.287091) scale(0.1 -0.1)">
       <use xlink:href="#DejaVuSans-30"/>
       <use xlink:href="#DejaVuSans-2e" x="63.623047"/>
       <use xlink:href="#DejaVuSans-30" x="95.410156"/>
      </g>
     </g>
    </g>
    <g id="xtick_5">
     <g id="line2d_9">
      <path d="M 236.205616 219.688654 
L 236.205616 26.64 
" clip-path="url(#pb4d8cddf16)" style="fill: none; stroke: #b0b0b0; stroke-width: 0.8; stroke-linecap: square"/>
     </g>
     <g id="line2d_10">
      <g>
       <use xlink:href="#m19b2778baf" x="236.205616" y="219.688654" style="stroke: #000000; stroke-width: 0.8"/>
      </g>
     </g>
     <g id="text_5">
      <!-- 0.5 -->
      <g transform="translate(228.254053 234.287091) scale(0.1 -0.1)">
       <use xlink:href="#DejaVuSans-30"/>
       <use xlink:href="#DejaVuSans-2e" x="63.623047"/>
       <use xlink:href="#DejaVuSans-35" x="95.410156"/>
      </g>
     </g>
    </g>
    <g id="xtick_6">
     <g id="line2d_11">
      <path d="M 277.039273 219.688654 
L 277.039273 26.64 
" clip-path="url(#pb4d8cddf16)" style="fill: none; stroke: #b0b0b0; stroke-width: 0.8; stroke-linecap: square"/>
     </g>
     <g id="line2d_12">
      <g>
       <use xlink:href="#m19b2778baf" x="277.039273" y="219.688654" style="stroke: #000000; stroke-width: 0.8"/>
      </g>
     </g>
     <g id="text_6">
      <!-- 1.0 -->
      <g transform="translate(269.08771 234.287091) scale(0.1 -0.1)">
       <use xlink:href="#DejaVuSans-31"/>
       <use xlink:href="#DejaVuSans-2e" x="63.623047"/>
       <use xlink:href="#DejaVuSans-30" x="95.410156"/>
      </g>
     </g>
    </g>
    <g id="xtick_7">
     <g id="line2d_13">
      <path d="M 317.87293 219.688654 
L 317.87293 26.64 
" clip-path="url(#pb4d8cddf16)" style="fill: none; stroke: #b0b0b0; stroke-width: 0.8; stroke-linecap: square"/>
     </g>
     <g id="line2d_14">
      <g>
       <use xlink:href="#m19b2778baf" x="317.87293" y="219.688654" style="stroke: #000000; stroke-width: 0.8"/>
      </g>
     </g>
     <g id="text_7">
      <!-- 1.5 -->
      <g transform="translate(309.921367 234.287091) scale(0.1 -0.1)">
       <use xlink:href="#DejaVuSans-31"/>
       <use xlink:href="#DejaVuSans-2e" x="63.623047"/>
       <use xlink:href="#DejaVuSans-35" x="95.410156"/>
      </g>
     </g>
    </g>
    <g id="text_8">
     <!-- True $\mathrm{t}\bar{\mathrm{t}}$ $\varphi$ -->
     <g transform="translate(173.350769 249.366779) scale(0.1 -0.1)">
      <defs>
       <path id="DejaVuSans-54" d="M -19 4666 
L 3928 4666 
L 3928 4134 
L 2272 4134 
L 2272 0 
L 1638 0 
L 1638 4134 
L -19 4134 
L -19 4666 
z
" transform="scale(0.015625)"/>
       <path id="DejaVuSans-72" d="M 2631 2963 
Q 2534 3019 2420 3045 
Q 2306 3072 2169 3072 
Q 1681 3072 1420 2755 
Q 1159 2438 1159 1844 
L 1159 0 
L 581 0 
L 581 3500 
L 1159 3500 
L 1159 2956 
Q 1341 3275 1631 3429 
Q 1922 3584 2338 3584 
Q 2397 3584 2469 3576 
Q 2541 3569 2628 3553 
L 2631 2963 
z
" transform="scale(0.015625)"/>
       <path id="DejaVuSans-75" d="M 544 1381 
L 544 3500 
L 1119 3500 
L 1119 1403 
Q 1119 906 1312 657 
Q 1506 409 1894 409 
Q 2359 409 2629 706 
Q 2900 1003 2900 1516 
L 2900 3500 
L 3475 3500 
L 3475 0 
L 2900 0 
L 2900 538 
Q 2691 219 2414 64 
Q 2138 -91 1772 -91 
Q 1169 -91 856 284 
Q 544 659 544 1381 
z
M 1991 3584 
L 1991 3584 
z
" transform="scale(0.015625)"/>
       <path id="DejaVuSans-65" d="M 3597 1894 
L 3597 1613 
L 953 1613 
Q 991 1019 1311 708 
Q 1631 397 2203 397 
Q 2534 397 2845 478 
Q 3156 559 3463 722 
L 3463 178 
Q 3153 47 2828 -22 
Q 2503 -91 2169 -91 
Q 1331 -91 842 396 
Q 353 884 353 1716 
Q 353 2575 817 3079 
Q 1281 3584 2069 3584 
Q 2775 3584 3186 3129 
Q 3597 2675 3597 1894 
z
M 3022 2063 
Q 3016 2534 2758 2815 
Q 2500 3097 2075 3097 
Q 1594 3097 1305 2825 
Q 1016 2553 972 2059 
L 3022 2063 
z
" transform="scale(0.015625)"/>
       <path id="DejaVuSans-20" transform="scale(0.015625)"/>
       <path id="DejaVuSans-74" d="M 1172 4494 
L 1172 3500 
L 2356 3500 
L 2356 3053 
L 1172 3053 
L 1172 1153 
Q 1172 725 1289 603 
Q 1406 481 1766 481 
L 2356 481 
L 2356 0 
L 1766 0 
Q 1100 0 847 248 
Q 594 497 594 1153 
L 594 3053 
L 172 3053 
L 172 3500 
L 594 3500 
L 594 4494 
L 1172 4494 
z
" transform="scale(0.015625)"/>
       <path id="DejaVuSans-304" d="M -2522 4769 
L -653 4769 
L -653 4306 
L -2522 4306 
L -2522 4769 
z
" transform="scale(0.015625)"/>
       <path id="DejaVuSans-Oblique-3c6" d="M 2969 3034 
Q 2766 3034 2675 2581 
L 2259 438 
Q 2553 438 2916 763 
Q 3244 1053 3375 1750 
Q 3497 2400 3300 2750 
Q 3138 3034 2969 3034 
z
M 3063 3525 
Q 3513 3525 3819 3113 
Q 4147 2672 3981 1750 
Q 3828 903 3291 400 
Q 2784 -75 2159 -75 
L 1916 -1331 
L 1344 -1331 
L 1588 -78 
Q 963 -78 641 400 
Q 309 888 475 1747 
Q 647 2641 1166 3097 
Q 1556 3438 2084 3525 
L 1984 3016 
Q 1766 2944 1538 2700 
Q 1194 2341 1081 1747 
Q 963 1116 1156 756 
Q 1334 434 1688 434 
L 2103 2581 
Q 2288 3525 3063 3525 
z
" transform="scale(0.015625)"/>
      </defs>
      <use xlink:href="#DejaVuSans-54" transform="translate(0 0.046875)"/>
      <use xlink:href="#DejaVuSans-72" transform="translate(61.083984 0.046875)"/>
      <use xlink:href="#DejaVuSans-75" transform="translate(102.197266 0.046875)"/>
      <use xlink:href="#DejaVuSans-65" transform="translate(165.576172 0.046875)"/>
      <use xlink:href="#DejaVuSans-20" transform="translate(227.099609 0.046875)"/>
      <use xlink:href="#DejaVuSans-74" transform="translate(258.886719 0.046875)"/>
      <use xlink:href="#DejaVuSans-304" transform="translate(347.304199 15.484375)"/>
      <use xlink:href="#DejaVuSans-74" transform="translate(298.095703 0.046875)"/>
      <use xlink:href="#DejaVuSans-20" transform="translate(337.304688 0.046875)"/>
      <use xlink:href="#DejaVuSans-Oblique-3c6" transform="translate(369.091797 0.046875)"/>
     </g>
    </g>
   </g>
   <g id="matplotlib.axis_2">
    <g id="ytick_1">
     <g id="line2d_15">
      <path d="M 46.64 205.590292 
L 343.661538 205.590292 
" clip-path="url(#pb4d8cddf16)" style="fill: none; stroke: #b0b0b0; stroke-width: 0.8; stroke-linecap: square"/>
     </g>
     <g id="line2d_16">
      <defs>
       <path id="m6a39cea5bd" d="M 0 0 
L -3.5 0 
" style="stroke: #000000; stroke-width: 0.8"/>
      </defs>
      <g>
       <use xlink:href="#m6a39cea5bd" x="46.64" y="205.590292" style="stroke: #000000; stroke-width: 0.8"/>
      </g>
     </g>
     <g id="text_9">
      <!-- −2 -->
      <g transform="translate(24.897813 209.389511) scale(0.1 -0.1)">
       <defs>
        <path id="DejaVuSans-32" d="M 1228 531 
L 3431 531 
L 3431 0 
L 469 0 
L 469 531 
Q 828 903 1448 1529 
Q 2069 2156 2228 2338 
Q 2531 2678 2651 2914 
Q 2772 3150 2772 3378 
Q 2772 3750 2511 3984 
Q 2250 4219 1831 4219 
Q 1534 4219 1204 4116 
Q 875 4013 500 3803 
L 500 4441 
Q 881 4594 1212 4672 
Q 1544 4750 1819 4750 
Q 2544 4750 2975 4387 
Q 3406 4025 3406 3419 
Q 3406 3131 3298 2873 
Q 3191 2616 2906 2266 
Q 2828 2175 2409 1742 
Q 1991 1309 1228 531 
z
" transform="scale(0.015625)"/>
       </defs>
       <use xlink:href="#DejaVuSans-2212"/>
       <use xlink:href="#DejaVuSans-32" x="83.789062"/>
      </g>
     </g>
    </g>
    <g id="ytick_2">
     <g id="line2d_17">
      <path d="M 46.64 164.29799 
L 343.661538 164.29799 
" clip-path="url(#pb4d8cddf16)" style="fill: none; stroke: #b0b0b0; stroke-width: 0.8; stroke-linecap: square"/>
     </g>
     <g id="line2d_18">
      <g>
       <use xlink:href="#m6a39cea5bd" x="46.64" y="164.29799" style="stroke: #000000; stroke-width: 0.8"/>
      </g>
     </g>
     <g id="text_10">
      <!-- −1 -->
      <g transform="translate(24.897813 168.097209) scale(0.1 -0.1)">
       <use xlink:href="#DejaVuSans-2212"/>
       <use xlink:href="#DejaVuSans-31" x="83.789062"/>
      </g>
     </g>
    </g>
    <g id="ytick_3">
     <g id="line2d_19">
      <path d="M 46.64 123.005688 
L 343.661538 123.005688 
" clip-path="url(#pb4d8cddf16)" style="fill: none; stroke: #b0b0b0; stroke-width: 0.8; stroke-linecap: square"/>
     </g>
     <g id="line2d_20">
      <g>
       <use xlink:href="#m6a39cea5bd" x="46.64" y="123.005688" style="stroke: #000000; stroke-width: 0.8"/>
      </g>
     </g>
     <g id="text_11">
      <!-- 0 -->
      <g transform="translate(33.2775 126.804906) scale(0.1 -0.1)">
       <use xlink:href="#DejaVuSans-30"/>
      </g>
     </g>
    </g>
    <g id="ytick_4">
     <g id="line2d_21">
      <path d="M 46.64 81.713385 
L 343.661538 81.713385 
" clip-path="url(#pb4d8cddf16)" style="fill: none; stroke: #b0b0b0; stroke-width: 0.8; stroke-linecap: square"/>
     </g>
     <g id="line2d_22">
      <g>
       <use xlink:href="#m6a39cea5bd" x="46.64" y="81.713385" style="stroke: #000000; stroke-width: 0.8"/>
      </g>
     </g>
     <g id="text_12">
      <!-- 1 -->
      <g transform="translate(33.2775 85.512604) scale(0.1 -0.1)">
       <use xlink:href="#DejaVuSans-31"/>
      </g>
     </g>
    </g>
    <g id="ytick_5">
     <g id="line2d_23">
      <path d="M 46.64 40.421083 
L 343.661538 40.421083 
" clip-path="url(#pb4d8cddf16)" style="fill: none; stroke: #b0b0b0; stroke-width: 0.8; stroke-linecap: square"/>
     </g>
     <g id="line2d_24">
      <g>
       <use xlink:href="#m6a39cea5bd" x="46.64" y="40.421083" style="stroke: #000000; stroke-width: 0.8"/>
      </g>
     </g>
     <g id="text_13">
      <!-- 2 -->
      <g transform="translate(33.2775 44.220301) scale(0.1 -0.1)">
       <use xlink:href="#DejaVuSans-32"/>
      </g>
     </g>
    </g>
    <g id="text_14">
     <!-- Response -->
     <g transform="translate(18.818125 147.178389) rotate(-90) scale(0.1 -0.1)">
      <defs>
       <path id="DejaVuSans-52" d="M 2841 2188 
Q 3044 2119 3236 1894 
Q 3428 1669 3622 1275 
L 4263 0 
L 3584 0 
L 2988 1197 
Q 2756 1666 2539 1819 
Q 2322 1972 1947 1972 
L 1259 1972 
L 1259 0 
L 628 0 
L 628 4666 
L 2053 4666 
Q 2853 4666 3247 4331 
Q 3641 3997 3641 3322 
Q 3641 2881 3436 2590 
Q 3231 2300 2841 2188 
z
M 1259 4147 
L 1259 2491 
L 2053 2491 
Q 2509 2491 2742 2702 
Q 2975 2913 2975 3322 
Q 2975 3731 2742 3939 
Q 2509 4147 2053 4147 
L 1259 4147 
z
" transform="scale(0.015625)"/>
       <path id="DejaVuSans-73" d="M 2834 3397 
L 2834 2853 
Q 2591 2978 2328 3040 
Q 2066 3103 1784 3103 
Q 1356 3103 1142 2972 
Q 928 2841 928 2578 
Q 928 2378 1081 2264 
Q 1234 2150 1697 2047 
L 1894 2003 
Q 2506 1872 2764 1633 
Q 3022 1394 3022 966 
Q 3022 478 2636 193 
Q 2250 -91 1575 -91 
Q 1294 -91 989 -36 
Q 684 19 347 128 
L 347 722 
Q 666 556 975 473 
Q 1284 391 1588 391 
Q 1994 391 2212 530 
Q 2431 669 2431 922 
Q 2431 1156 2273 1281 
Q 2116 1406 1581 1522 
L 1381 1569 
Q 847 1681 609 1914 
Q 372 2147 372 2553 
Q 372 3047 722 3315 
Q 1072 3584 1716 3584 
Q 2034 3584 2315 3537 
Q 2597 3491 2834 3397 
z
" transform="scale(0.015625)"/>
       <path id="DejaVuSans-70" d="M 1159 525 
L 1159 -1331 
L 581 -1331 
L 581 3500 
L 1159 3500 
L 1159 2969 
Q 1341 3281 1617 3432 
Q 1894 3584 2278 3584 
Q 2916 3584 3314 3078 
Q 3713 2572 3713 1747 
Q 3713 922 3314 415 
Q 2916 -91 2278 -91 
Q 1894 -91 1617 61 
Q 1341 213 1159 525 
z
M 3116 1747 
Q 3116 2381 2855 2742 
Q 2594 3103 2138 3103 
Q 1681 3103 1420 2742 
Q 1159 2381 1159 1747 
Q 1159 1113 1420 752 
Q 1681 391 2138 391 
Q 2594 391 2855 752 
Q 3116 1113 3116 1747 
z
" transform="scale(0.015625)"/>
       <path id="DejaVuSans-6f" d="M 1959 3097 
Q 1497 3097 1228 2736 
Q 959 2375 959 1747 
Q 959 1119 1226 758 
Q 1494 397 1959 397 
Q 2419 397 2687 759 
Q 2956 1122 2956 1747 
Q 2956 2369 2687 2733 
Q 2419 3097 1959 3097 
z
M 1959 3584 
Q 2709 3584 3137 3096 
Q 3566 2609 3566 1747 
Q 3566 888 3137 398 
Q 2709 -91 1959 -91 
Q 1206 -91 779 398 
Q 353 888 353 1747 
Q 353 2609 779 3096 
Q 1206 3584 1959 3584 
z
" transform="scale(0.015625)"/>
       <path id="DejaVuSans-6e" d="M 3513 2113 
L 3513 0 
L 2938 0 
L 2938 2094 
Q 2938 2591 2744 2837 
Q 2550 3084 2163 3084 
Q 1697 3084 1428 2787 
Q 1159 2491 1159 1978 
L 1159 0 
L 581 0 
L 581 3500 
L 1159 3500 
L 1159 2956 
Q 1366 3272 1645 3428 
Q 1925 3584 2291 3584 
Q 2894 3584 3203 3211 
Q 3513 2838 3513 2113 
z
" transform="scale(0.015625)"/>
      </defs>
      <use xlink:href="#DejaVuSans-52"/>
      <use xlink:href="#DejaVuSans-65" x="64.982422"/>
      <use xlink:href="#DejaVuSans-73" x="126.505859"/>
      <use xlink:href="#DejaVuSans-70" x="178.605469"/>
      <use xlink:href="#DejaVuSans-6f" x="242.082031"/>
      <use xlink:href="#DejaVuSans-6e" x="303.263672"/>
      <use xlink:href="#DejaVuSans-73" x="366.642578"/>
      <use xlink:href="#DejaVuSans-65" x="418.742188"/>
     </g>
    </g>
   </g>
   <g id="line2d_25">
    <path d="M 46.64 164.177522 
L 46.64 164.177522 
L 52.701664 164.177522 
L 52.701664 163.264659 
L 58.763328 163.264659 
L 58.763328 161.504178 
L 64.824992 161.504178 
L 64.824992 160.837273 
L 70.886656 160.837273 
L 70.886656 160.34799 
L 76.94832 160.34799 
L 76.94832 160.00543 
L 83.009984 160.00543 
L 83.009984 157.391812 
L 89.071648 157.391812 
L 89.071648 155.508387 
L 95.133312 155.508387 
L 95.133312 154.049487 
L 101.194976 154.049487 
L 101.194976 153.074072 
L 107.256641 153.074072 
L 107.256641 149.29995 
L 113.318305 149.29995 
L 113.318305 147.431974 
L 119.379969 147.431974 
L 119.379969 147.686629 
L 125.441633 147.686629 
L 125.441633 145.114037 
L 131.503297 145.114037 
L 131.503297 142.509542 
L 137.564961 142.509542 
L 137.564961 140.298834 
L 143.626625 140.298834 
L 143.626625 139.941909 
L 149.688289 139.941909 
L 149.688289 137.16136 
L 155.749953 137.16136 
L 155.749953 135.502003 
L 161.811617 135.502003 
L 161.811617 134.39058 
L 167.873281 134.39058 
L 167.873281 132.814411 
L 173.934945 132.814411 
L 173.934945 130.099663 
L 179.996609 130.099663 
L 179.996609 127.01131 
L 186.058273 127.01131 
L 186.058273 126.981981 
L 192.119937 126.981981 
L 192.119937 122.33994 
L 198.181601 122.33994 
L 198.181601 122.041051 
L 204.243265 122.041051 
L 204.243265 119.993138 
L 210.304929 119.993138 
L 210.304929 117.898264 
L 216.366593 117.898264 
L 216.366593 114.257944 
L 222.428257 114.257944 
L 222.428257 112.812114 
L 228.489922 112.812114 
L 228.489922 112.147 
L 234.551586 112.147 
L 234.551586 108.964941 
L 240.61325 108.964941 
L 240.61325 107.444599 
L 246.674914 107.444599 
L 246.674914 105.714338 
L 252.736578 105.714338 
L 252.736578 104.069906 
L 258.798242 104.069906 
L 258.798242 101.807355 
L 264.859906 101.807355 
L 264.859906 99.281969 
L 270.92157 99.281969 
L 270.92157 97.372933 
L 276.983234 97.372933 
L 276.983234 95.820007 
L 283.044898 95.820007 
L 283.044898 94.06327 
L 289.106562 94.06327 
L 289.106562 93.719308 
L 295.168226 93.719308 
L 295.168226 91.392561 
L 301.22989 91.392561 
L 301.22989 88.834859 
L 307.291554 88.834859 
L 307.291554 87.896387 
L 313.353218 87.896387 
L 313.353218 85.78066 
L 319.414882 85.78066 
L 319.414882 84.890878 
L 325.476546 84.890878 
L 325.476546 84.111243 
L 331.53821 84.111243 
L 331.53821 82.592142 
L 337.599874 82.592142 
L 337.599874 82.132431 
L 343.661538 82.132431 
" clip-path="url(#pb4d8cddf16)" style="fill: none; stroke: #1f77b4; stroke-width: 1.5; stroke-linecap: square"/>
   </g>
   <g id="line2d_26">
    <path d="M 46.64 161.452235 
L 46.64 161.452235 
L 52.701664 161.452235 
L 52.701664 160.94279 
L 58.763328 160.94279 
L 58.763328 159.852386 
L 64.824992 159.852386 
L 64.824992 156.883917 
L 70.886656 156.883917 
L 70.886656 155.864011 
L 76.94832 155.864011 
L 76.94832 153.329334 
L 83.009984 153.329334 
L 83.009984 154.157049 
L 89.071648 154.157049 
L 89.071648 151.480671 
L 95.133312 151.480671 
L 95.133312 148.602645 
L 101.194976 148.602645 
L 101.194976 148.025728 
L 107.256641 148.025728 
L 107.256641 146.979957 
L 113.318305 146.979957 
L 113.318305 143.958957 
L 119.379969 143.958957 
L 119.379969 142.077316 
L 125.441633 142.077316 
L 125.441633 139.483106 
L 131.503297 139.483106 
L 131.503297 138.79889 
L 137.564961 138.79889 
L 137.564961 136.542552 
L 143.626625 136.542552 
L 143.626625 135.116763 
L 149.688289 135.116763 
L 149.688289 133.401856 
L 155.749953 133.401856 
L 155.749953 130.406846 
L 161.811617 130.406846 
L 161.811617 130.298252 
L 167.873281 130.298252 
L 167.873281 127.5121 
L 173.934945 127.5121 
L 173.934945 125.015757 
L 179.996609 125.015757 
L 179.996609 123.203668 
L 186.058273 123.203668 
L 186.058273 122.252379 
L 192.119937 122.252379 
L 192.119937 119.951909 
L 198.181601 119.951909 
L 198.181601 118.198087 
L 204.243265 118.198087 
L 204.243265 116.482882 
L 210.304929 116.482882 
L 210.304929 114.18154 
L 216.366593 114.18154 
L 216.366593 112.661852 
L 222.428257 112.661852 
L 222.428257 110.69224 
L 228.489922 110.69224 
L 228.489922 108.25159 
L 234.551586 108.25159 
L 234.551586 106.147003 
L 240.61325 106.147003 
L 240.61325 104.360837 
L 246.674914 104.360837 
L 246.674914 102.225103 
L 252.736578 102.225103 
L 252.736578 101.271669 
L 258.798242 101.271669 
L 258.798242 98.829568 
L 264.859906 98.829568 
L 264.859906 97.306795 
L 270.92157 97.306795 
L 270.92157 95.937098 
L 276.983234 95.937098 
L 276.983234 94.641698 
L 283.044898 94.641698 
L 283.044898 93.173006 
L 289.106562 93.173006 
L 289.106562 91.511971 
L 295.168226 91.511971 
L 295.168226 89.769838 
L 301.22989 89.769838 
L 301.22989 87.054179 
L 307.291554 87.054179 
L 307.291554 86.321194 
L 313.353218 86.321194 
L 313.353218 82.97365 
L 319.414882 82.97365 
L 319.414882 82.838619 
L 325.476546 82.838619 
L 325.476546 80.184877 
L 331.53821 80.184877 
L 331.53821 78.46369 
L 337.599874 78.46369 
L 337.599874 78.684062 
L 343.661538 78.684062 
" clip-path="url(#pb4d8cddf16)" style="fill: none; stroke: #ff7f0e; stroke-width: 1.5; stroke-linecap: square"/>
   </g>
   <g id="patch_3">
    <path d="M 46.64 219.688654 
L 46.64 26.64 
" style="fill: none; stroke: #000000; stroke-width: 0.8; stroke-linejoin: miter; stroke-linecap: square"/>
   </g>
   <g id="patch_4">
    <path d="M 343.661538 219.688654 
L 343.661538 26.64 
" style="fill: none; stroke: #000000; stroke-width: 0.8; stroke-linejoin: miter; stroke-linecap: square"/>
   </g>
   <g id="patch_5">
    <path d="M 46.64 219.688654 
L 343.661538 219.688654 
" style="fill: none; stroke: #000000; stroke-width: 0.8; stroke-linejoin: miter; stroke-linecap: square"/>
   </g>
   <g id="patch_6">
    <path d="M 46.64 26.64 
L 343.661538 26.64 
" style="fill: none; stroke: #000000; stroke-width: 0.8; stroke-linejoin: miter; stroke-linecap: square"/>
   </g>
   <g id="text_15">
    <!-- CMS -->
    <g transform="translate(46.64 22.956328) scale(0.169 -0.169)">
     <defs>
      <path id="TeXGyreHeros-Bold-43" d="M 4384 1594 
L 3450 1594 
C 3392 998 3014 730 2419 730 
C 1677 730 1242 1299 1242 2317 
C 1242 3347 1696 3923 2451 3923 
C 2970 3923 3309 3686 3450 3085 
L 4365 3085 
C 4282 4160 3469 4742 2419 4742 
C 1101 4742 282 3840 282 2330 
C 282 832 1094 -77 2394 -77 
C 3552 -77 4326 525 4384 1594 
z
" transform="scale(0.015625)"/>
      <path id="TeXGyreHeros-Bold-4d" d="M 4966 0 
L 4966 4666 
L 3520 4666 
L 2701 954 
L 1856 4666 
L 422 4666 
L 422 0 
L 1382 0 
L 1382 3635 
L 2221 0 
L 3181 0 
L 4006 3635 
L 4006 0 
L 4966 0 
z
" transform="scale(0.015625)"/>
      <path id="TeXGyreHeros-Bold-53" d="M 4051 1402 
C 4051 2138 3680 2483 2816 2650 
L 2086 2790 
C 1402 2925 1203 3059 1203 3398 
C 1203 3750 1517 3974 2010 3974 
C 2618 3974 2989 3718 2989 3245 
L 3885 3245 
C 3885 4230 3194 4742 2054 4742 
C 934 4742 288 4218 288 3309 
C 288 2579 653 2240 1600 2054 
L 2253 1926 
C 2893 1798 3130 1664 3130 1286 
C 3130 896 2771 691 2189 691 
C 1536 691 1139 966 1139 1466 
L 205 1466 
C 205 467 947 -77 2138 -77 
C 3341 -77 4051 454 4051 1402 
z
" transform="scale(0.015625)"/>
     </defs>
     <use xlink:href="#TeXGyreHeros-Bold-43"/>
     <use xlink:href="#TeXGyreHeros-Bold-4d" x="72.199982"/>
     <use xlink:href="#TeXGyreHeros-Bold-53" x="155.499969"/>
    </g>
   </g>
   <g id="text_16">
    <!-- Private work (CMS simulation) -->
    <g transform="translate(85.952 22.906163) scale(0.13 -0.13)">
     <defs>
      <path id="TeXGyreHeros-Italic-50" d="M 4371 3635 
C 4371 4314 3968 4666 3187 4666 
L 1254 4666 
L 262 0 
L 864 0 
L 1286 1978 
L 2746 1978 
C 3712 1978 4371 2771 4371 3635 
z
M 3757 3520 
C 3757 2957 3302 2502 2637 2502 
L 1395 2502 
L 1747 4141 
L 2989 4141 
C 3488 4141 3757 3923 3757 3520 
z
" transform="scale(0.015625)"/>
      <path id="TeXGyreHeros-Italic-72" d="M 2355 2886 
L 2470 3430 
C 2387 3443 2336 3450 2266 3450 
C 1894 3450 1606 3283 1210 2829 
L 1318 3354 
L 832 3354 
L 122 0 
L 659 0 
L 1030 1741 
C 1190 2496 1626 2886 2291 2886 
L 2355 2886 
z
" transform="scale(0.015625)"/>
      <path id="TeXGyreHeros-Italic-69" d="M 659 0 
L 1370 3354 
L 832 3354 
L 122 0 
L 659 0 
z
M 1677 4525 
L 1011 4525 
L 870 3866 
L 1536 3866 
L 1677 4525 
z
" transform="scale(0.015625)"/>
      <path id="TeXGyreHeros-Italic-76" d="M 3507 3354 
L 2925 3354 
L 1363 653 
L 1050 3354 
L 461 3354 
L 934 0 
L 1517 0 
L 3507 3354 
z
" transform="scale(0.015625)"/>
      <path id="TeXGyreHeros-Italic-61" d="M 3149 0 
L 3232 416 
C 3174 403 3149 403 3123 403 
C 2957 403 2880 461 2880 589 
C 2880 614 2880 634 2886 653 
L 3277 2490 
C 3315 2662 3315 2662 3315 2726 
C 3315 3162 2874 3450 2202 3450 
C 1312 3450 768 3072 646 2362 
L 1184 2362 
C 1312 2771 1587 2957 2061 2957 
C 2445 2957 2739 2784 2739 2547 
C 2739 2522 2733 2477 2726 2426 
L 2707 2310 
C 2662 2048 2515 1971 2061 1933 
C 1203 1850 934 1792 621 1594 
C 288 1382 102 1069 102 698 
C 102 186 454 -96 1030 -96 
C 1446 -96 1818 -38 2310 371 
L 2304 275 
C 2304 13 2502 -58 2810 -58 
C 2899 -58 2893 -45 3149 0 
z
M 2566 1651 
L 2451 1101 
C 2368 704 1805 365 1242 365 
C 877 365 666 493 666 762 
C 666 1165 954 1370 1632 1466 
C 2234 1549 2285 1555 2566 1651 
z
" transform="scale(0.015625)"/>
      <path id="TeXGyreHeros-Italic-74" d="M 1408 467 
C 1210 422 1178 416 1101 416 
C 960 416 870 486 870 589 
C 870 608 877 640 883 678 
L 1363 2925 
L 1933 2925 
L 2022 3354 
L 1453 3354 
L 1651 4275 
L 1114 4275 
L 915 3354 
L 461 3354 
L 371 2925 
L 826 2925 
L 339 659 
C 326 595 320 525 320 461 
C 320 147 538 -45 890 -45 
C 1018 -45 1216 -26 1306 0 
L 1408 467 
z
" transform="scale(0.015625)"/>
      <path id="TeXGyreHeros-Italic-65" d="M 3290 1523 
L 3302 1606 
C 3360 1914 3392 2182 3392 2355 
C 3392 2970 2861 3450 2170 3450 
C 1613 3450 1075 3187 755 2758 
C 454 2355 224 1651 224 1133 
C 224 467 717 -96 1498 -96 
C 2266 -96 2912 326 3110 1018 
L 2573 1018 
C 2355 627 2016 397 1587 397 
C 1082 397 787 685 787 1229 
C 781 1338 787 1402 819 1523 
L 3290 1523 
z
M 2816 1984 
L 934 1984 
C 1094 2547 1568 2957 2086 2957 
C 2541 2957 2829 2650 2829 2170 
C 2829 2106 2822 2061 2816 1984 
z
" transform="scale(0.015625)"/>
      <path id="TeXGyreHeros-Italic-20" transform="scale(0.015625)"/>
      <path id="TeXGyreHeros-Italic-77" d="M 4928 3354 
L 4346 3354 
L 3091 742 
L 3091 3354 
L 2349 3354 
L 1139 742 
L 1139 3354 
L 435 3354 
L 691 0 
L 1306 0 
L 2554 2675 
L 2554 0 
L 3238 0 
L 4928 3354 
z
" transform="scale(0.015625)"/>
      <path id="TeXGyreHeros-Italic-6f" d="M 3366 2253 
C 3366 2931 2906 3450 2138 3450 
C 934 3450 198 2342 198 1075 
C 198 365 698 -96 1414 -96 
C 2579 -96 3366 922 3366 2253 
z
M 2803 2131 
C 2803 1178 2266 397 1504 397 
C 1050 397 762 691 762 1203 
C 762 2131 1299 2957 2054 2957 
C 2528 2957 2803 2650 2803 2131 
z
" transform="scale(0.015625)"/>
      <path id="TeXGyreHeros-Italic-6b" d="M 2893 0 
L 1997 2195 
L 3418 3354 
L 2726 3354 
L 1005 1958 
L 1581 4666 
L 1043 4666 
L 51 0 
L 589 0 
L 864 1299 
L 1549 1862 
L 2278 0 
L 2893 0 
z
" transform="scale(0.015625)"/>
      <path id="TeXGyreHeros-Italic-28" d="M 1254 -1363 
C 1018 -749 902 -147 902 506 
C 902 1926 1459 3347 2534 4666 
L 2182 4666 
C 1069 3501 403 2042 403 742 
C 403 -19 589 -813 902 -1363 
L 1254 -1363 
z
" transform="scale(0.015625)"/>
      <path id="TeXGyreHeros-Italic-43" d="M 4384 1702 
L 3757 1702 
C 3354 787 2950 403 2125 403 
C 1459 403 1018 922 1018 1696 
C 1018 2278 1210 2925 1536 3411 
C 1926 3987 2394 4262 2982 4262 
C 3629 4262 3942 3910 3994 3219 
L 4608 3219 
C 4557 4262 3974 4781 3091 4781 
C 2342 4781 1722 4480 1222 3878 
C 717 3270 403 2381 403 1581 
C 403 563 1011 -115 2035 -115 
C 3162 -115 3840 410 4384 1702 
z
" transform="scale(0.015625)"/>
      <path id="TeXGyreHeros-Italic-4d" d="M 5542 4666 
L 4704 4666 
L 2490 653 
L 1978 4666 
L 1152 4666 
L 160 0 
L 730 0 
L 1555 3872 
L 2048 0 
L 2669 0 
L 4806 3872 
L 3981 0 
L 4550 0 
L 5542 4666 
z
" transform="scale(0.015625)"/>
      <path id="TeXGyreHeros-Italic-53" d="M 3968 1549 
C 3968 1978 3667 2349 3187 2490 
L 2086 2803 
C 1594 2944 1440 3072 1440 3354 
C 1440 3866 1952 4262 2694 4262 
C 3398 4262 3667 3994 3667 3565 
C 3667 3507 3661 3462 3642 3334 
L 4205 3334 
C 4243 3514 4256 3597 4256 3693 
C 4256 4339 3712 4781 2810 4781 
C 2150 4781 1632 4595 1286 4237 
C 1024 3968 826 3514 826 3187 
C 826 2784 1107 2445 1536 2323 
L 2630 2010 
C 3142 1862 3354 1670 3354 1370 
C 3354 838 2771 403 1901 403 
C 1178 403 845 672 845 1254 
C 845 1338 851 1395 870 1517 
L 314 1517 
C 269 1350 256 1248 256 1114 
C 256 346 832 -115 1798 -115 
C 2470 -115 3034 70 3411 422 
C 3738 723 3968 1190 3968 1549 
z
" transform="scale(0.015625)"/>
      <path id="TeXGyreHeros-Italic-73" d="M 2848 1158 
C 2848 1549 2637 1754 2074 1894 
L 1587 2016 
C 1229 2106 1043 2234 1043 2400 
C 1043 2726 1363 2957 1850 2957 
C 2227 2957 2438 2810 2438 2560 
C 2438 2515 2438 2470 2432 2419 
L 2970 2419 
C 3002 2554 3008 2611 3008 2694 
C 3008 3142 2579 3450 1958 3450 
C 1069 3450 480 2938 480 2259 
C 480 1869 704 1677 1363 1510 
L 1837 1389 
C 2240 1286 2285 1146 2285 1011 
C 2285 646 1862 397 1370 397 
C 928 397 678 570 678 890 
C 678 928 685 986 691 1050 
L 122 1050 
C 90 902 83 826 83 723 
C 83 211 531 -96 1274 -96 
C 2227 -96 2848 397 2848 1158 
z
" transform="scale(0.015625)"/>
      <path id="TeXGyreHeros-Italic-6d" d="M 4589 0 
L 5094 2387 
C 5114 2458 5133 2669 5133 2739 
C 5133 3072 4883 3450 4320 3450 
C 3904 3450 3539 3283 3162 2918 
C 3059 3277 2810 3450 2387 3450 
C 1952 3450 1658 3322 1248 2938 
L 1331 3354 
L 845 3354 
L 134 0 
L 672 0 
L 1120 2106 
C 1222 2592 1658 2989 2086 2989 
C 2400 2989 2611 2810 2611 2547 
C 2611 2477 2605 2394 2586 2310 
L 2093 0 
L 2630 0 
L 3078 2106 
C 3181 2605 3616 2989 4083 2989 
C 4384 2989 4570 2803 4570 2496 
C 4570 2400 4570 2400 4512 2182 
L 4051 0 
L 4589 0 
z
" transform="scale(0.015625)"/>
      <path id="TeXGyreHeros-Italic-75" d="M 2771 0 
L 3482 3354 
L 2944 3354 
L 2554 1504 
C 2406 813 1952 365 1408 365 
C 1062 365 838 557 838 858 
C 838 909 845 966 858 1030 
L 1350 3354 
L 813 3354 
L 275 819 
C 262 755 256 685 256 602 
C 256 166 589 -96 1139 -96 
C 1638 -96 2003 58 2368 390 
L 2285 0 
L 2771 0 
z
" transform="scale(0.015625)"/>
      <path id="TeXGyreHeros-Italic-6c" d="M 1645 4666 
L 1107 4666 
L 115 0 
L 653 0 
L 1645 4666 
z
" transform="scale(0.015625)"/>
      <path id="TeXGyreHeros-Italic-6e" d="M 3328 2406 
C 3347 2490 3354 2566 3354 2650 
C 3354 3136 3014 3450 2483 3450 
C 1997 3450 1574 3277 1242 2938 
L 1325 3354 
L 838 3354 
L 128 0 
L 666 0 
L 1056 1850 
C 1203 2554 1658 2989 2234 2989 
C 2554 2989 2790 2765 2790 2470 
C 2790 2432 2771 2336 2752 2234 
L 2278 0 
L 2816 0 
L 3328 2406 
z
" transform="scale(0.015625)"/>
      <path id="TeXGyreHeros-Italic-29" d="M 1760 2605 
C 1760 3328 1568 4134 1267 4666 
L 915 4666 
C 1158 4045 1267 3443 1267 2758 
C 1267 1376 698 -64 -365 -1363 
L -13 -1363 
C 1094 -205 1760 1274 1760 2605 
z
" transform="scale(0.015625)"/>
     </defs>
     <use xlink:href="#TeXGyreHeros-Italic-50"/>
     <use xlink:href="#TeXGyreHeros-Italic-72" x="66.699997"/>
     <use xlink:href="#TeXGyreHeros-Italic-69" x="99.999985"/>
     <use xlink:href="#TeXGyreHeros-Italic-76" x="122.199982"/>
     <use xlink:href="#TeXGyreHeros-Italic-61" x="172.199966"/>
     <use xlink:href="#TeXGyreHeros-Italic-74" x="227.799957"/>
     <use xlink:href="#TeXGyreHeros-Italic-65" x="255.599945"/>
     <use xlink:href="#TeXGyreHeros-Italic-20" x="311.199936"/>
     <use xlink:href="#TeXGyreHeros-Italic-77" x="338.999924"/>
     <use xlink:href="#TeXGyreHeros-Italic-6f" x="411.199905"/>
     <use xlink:href="#TeXGyreHeros-Italic-72" x="466.799896"/>
     <use xlink:href="#TeXGyreHeros-Italic-6b" x="500.099884"/>
     <use xlink:href="#TeXGyreHeros-Italic-20" x="550.099869"/>
     <use xlink:href="#TeXGyreHeros-Italic-28" x="577.899857"/>
     <use xlink:href="#TeXGyreHeros-Italic-43" x="611.199844"/>
     <use xlink:href="#TeXGyreHeros-Italic-4d" x="683.399826"/>
     <use xlink:href="#TeXGyreHeros-Italic-53" x="766.699814"/>
     <use xlink:href="#TeXGyreHeros-Italic-20" x="833.399811"/>
     <use xlink:href="#TeXGyreHeros-Italic-73" x="861.199799"/>
     <use xlink:href="#TeXGyreHeros-Italic-69" x="911.199783"/>
     <use xlink:href="#TeXGyreHeros-Italic-6d" x="933.39978"/>
     <use xlink:href="#TeXGyreHeros-Italic-75" x="1016.699768"/>
     <use xlink:href="#TeXGyreHeros-Italic-6c" x="1072.299759"/>
     <use xlink:href="#TeXGyreHeros-Italic-61" x="1094.499756"/>
     <use xlink:href="#TeXGyreHeros-Italic-74" x="1150.099747"/>
     <use xlink:href="#TeXGyreHeros-Italic-69" x="1177.899734"/>
     <use xlink:href="#TeXGyreHeros-Italic-6f" x="1200.099731"/>
     <use xlink:href="#TeXGyreHeros-Italic-6e" x="1255.699722"/>
     <use xlink:href="#TeXGyreHeros-Italic-29" x="1311.299713"/>
    </g>
   </g>
   <g id="legend_1">
    <g id="patch_7">
     <path d="M 191.336538 63.99625 
L 336.661538 63.99625 
Q 338.661538 63.99625 338.661538 61.99625 
L 338.661538 33.64 
Q 338.661538 31.64 336.661538 31.64 
L 191.336538 31.64 
Q 189.336538 31.64 189.336538 33.64 
L 189.336538 61.99625 
Q 189.336538 63.99625 191.336538 63.99625 
z
" style="fill: #ffffff; opacity: 0.8; stroke: #cccccc; stroke-linejoin: miter"/>
    </g>
    <g id="line2d_27">
     <path d="M 193.336538 39.738438 
L 193.336538 39.738438 
L 203.336538 39.738438 
L 203.336538 39.738438 
L 213.336538 39.738438 
" style="fill: none; stroke: #1f77b4; stroke-width: 1.5; stroke-linecap: square"/>
    </g>
    <g id="text_17">
     <!-- Network -->
     <g transform="translate(221.336538 43.238438) scale(0.1 -0.1)">
      <defs>
       <path id="DejaVuSans-4e" d="M 628 4666 
L 1478 4666 
L 3547 763 
L 3547 4666 
L 4159 4666 
L 4159 0 
L 3309 0 
L 1241 3903 
L 1241 0 
L 628 0 
L 628 4666 
z
" transform="scale(0.015625)"/>
       <path id="DejaVuSans-77" d="M 269 3500 
L 844 3500 
L 1563 769 
L 2278 3500 
L 2956 3500 
L 3675 769 
L 4391 3500 
L 4966 3500 
L 4050 0 
L 3372 0 
L 2619 2869 
L 1863 0 
L 1184 0 
L 269 3500 
z
" transform="scale(0.015625)"/>
       <path id="DejaVuSans-6b" d="M 581 4863 
L 1159 4863 
L 1159 1991 
L 2875 3500 
L 3609 3500 
L 1753 1863 
L 3688 0 
L 2938 0 
L 1159 1709 
L 1159 0 
L 581 0 
L 581 4863 
z
" transform="scale(0.015625)"/>
      </defs>
      <use xlink:href="#DejaVuSans-4e"/>
      <use xlink:href="#DejaVuSans-65" x="74.804688"/>
      <use xlink:href="#DejaVuSans-74" x="136.328125"/>
      <use xlink:href="#DejaVuSans-77" x="175.537109"/>
      <use xlink:href="#DejaVuSans-6f" x="257.324219"/>
      <use xlink:href="#DejaVuSans-72" x="318.505859"/>
      <use xlink:href="#DejaVuSans-6b" x="359.619141"/>
     </g>
    </g>
    <g id="line2d_28">
     <path d="M 193.336538 54.416562 
L 193.336538 54.416562 
L 203.336538 54.416562 
L 203.336538 54.416562 
L 213.336538 54.416562 
" style="fill: none; stroke: #ff7f0e; stroke-width: 1.5; stroke-linecap: square"/>
    </g>
    <g id="text_18">
     <!-- Analytic Sonnenschein -->
     <g transform="translate(221.336538 57.916562) scale(0.1 -0.1)">
      <defs>
       <path id="DejaVuSans-41" d="M 2188 4044 
L 1331 1722 
L 3047 1722 
L 2188 4044 
z
M 1831 4666 
L 2547 4666 
L 4325 0 
L 3669 0 
L 3244 1197 
L 1141 1197 
L 716 0 
L 50 0 
L 1831 4666 
z
" transform="scale(0.015625)"/>
       <path id="DejaVuSans-61" d="M 2194 1759 
Q 1497 1759 1228 1600 
Q 959 1441 959 1056 
Q 959 750 1161 570 
Q 1363 391 1709 391 
Q 2188 391 2477 730 
Q 2766 1069 2766 1631 
L 2766 1759 
L 2194 1759 
z
M 3341 1997 
L 3341 0 
L 2766 0 
L 2766 531 
Q 2569 213 2275 61 
Q 1981 -91 1556 -91 
Q 1019 -91 701 211 
Q 384 513 384 1019 
Q 384 1609 779 1909 
Q 1175 2209 1959 2209 
L 2766 2209 
L 2766 2266 
Q 2766 2663 2505 2880 
Q 2244 3097 1772 3097 
Q 1472 3097 1187 3025 
Q 903 2953 641 2809 
L 641 3341 
Q 956 3463 1253 3523 
Q 1550 3584 1831 3584 
Q 2591 3584 2966 3190 
Q 3341 2797 3341 1997 
z
" transform="scale(0.015625)"/>
       <path id="DejaVuSans-6c" d="M 603 4863 
L 1178 4863 
L 1178 0 
L 603 0 
L 603 4863 
z
" transform="scale(0.015625)"/>
       <path id="DejaVuSans-79" d="M 2059 -325 
Q 1816 -950 1584 -1140 
Q 1353 -1331 966 -1331 
L 506 -1331 
L 506 -850 
L 844 -850 
Q 1081 -850 1212 -737 
Q 1344 -625 1503 -206 
L 1606 56 
L 191 3500 
L 800 3500 
L 1894 763 
L 2988 3500 
L 3597 3500 
L 2059 -325 
z
" transform="scale(0.015625)"/>
       <path id="DejaVuSans-69" d="M 603 3500 
L 1178 3500 
L 1178 0 
L 603 0 
L 603 3500 
z
M 603 4863 
L 1178 4863 
L 1178 4134 
L 603 4134 
L 603 4863 
z
" transform="scale(0.015625)"/>
       <path id="DejaVuSans-63" d="M 3122 3366 
L 3122 2828 
Q 2878 2963 2633 3030 
Q 2388 3097 2138 3097 
Q 1578 3097 1268 2742 
Q 959 2388 959 1747 
Q 959 1106 1268 751 
Q 1578 397 2138 397 
Q 2388 397 2633 464 
Q 2878 531 3122 666 
L 3122 134 
Q 2881 22 2623 -34 
Q 2366 -91 2075 -91 
Q 1284 -91 818 406 
Q 353 903 353 1747 
Q 353 2603 823 3093 
Q 1294 3584 2113 3584 
Q 2378 3584 2631 3529 
Q 2884 3475 3122 3366 
z
" transform="scale(0.015625)"/>
       <path id="DejaVuSans-53" d="M 3425 4513 
L 3425 3897 
Q 3066 4069 2747 4153 
Q 2428 4238 2131 4238 
Q 1616 4238 1336 4038 
Q 1056 3838 1056 3469 
Q 1056 3159 1242 3001 
Q 1428 2844 1947 2747 
L 2328 2669 
Q 3034 2534 3370 2195 
Q 3706 1856 3706 1288 
Q 3706 609 3251 259 
Q 2797 -91 1919 -91 
Q 1588 -91 1214 -16 
Q 841 59 441 206 
L 441 856 
Q 825 641 1194 531 
Q 1563 422 1919 422 
Q 2459 422 2753 634 
Q 3047 847 3047 1241 
Q 3047 1584 2836 1778 
Q 2625 1972 2144 2069 
L 1759 2144 
Q 1053 2284 737 2584 
Q 422 2884 422 3419 
Q 422 4038 858 4394 
Q 1294 4750 2059 4750 
Q 2388 4750 2728 4690 
Q 3069 4631 3425 4513 
z
" transform="scale(0.015625)"/>
       <path id="DejaVuSans-68" d="M 3513 2113 
L 3513 0 
L 2938 0 
L 2938 2094 
Q 2938 2591 2744 2837 
Q 2550 3084 2163 3084 
Q 1697 3084 1428 2787 
Q 1159 2491 1159 1978 
L 1159 0 
L 581 0 
L 581 4863 
L 1159 4863 
L 1159 2956 
Q 1366 3272 1645 3428 
Q 1925 3584 2291 3584 
Q 2894 3584 3203 3211 
Q 3513 2838 3513 2113 
z
" transform="scale(0.015625)"/>
      </defs>
      <use xlink:href="#DejaVuSans-41"/>
      <use xlink:href="#DejaVuSans-6e" x="68.408203"/>
      <use xlink:href="#DejaVuSans-61" x="131.787109"/>
      <use xlink:href="#DejaVuSans-6c" x="193.066406"/>
      <use xlink:href="#DejaVuSans-79" x="220.849609"/>
      <use xlink:href="#DejaVuSans-74" x="280.029297"/>
      <use xlink:href="#DejaVuSans-69" x="319.238281"/>
      <use xlink:href="#DejaVuSans-63" x="347.021484"/>
      <use xlink:href="#DejaVuSans-20" x="402.001953"/>
      <use xlink:href="#DejaVuSans-53" x="433.789062"/>
      <use xlink:href="#DejaVuSans-6f" x="497.265625"/>
      <use xlink:href="#DejaVuSans-6e" x="558.447266"/>
      <use xlink:href="#DejaVuSans-6e" x="621.826172"/>
      <use xlink:href="#DejaVuSans-65" x="685.205078"/>
      <use xlink:href="#DejaVuSans-6e" x="746.728516"/>
      <use xlink:href="#DejaVuSans-73" x="810.107422"/>
      <use xlink:href="#DejaVuSans-63" x="862.207031"/>
      <use xlink:href="#DejaVuSans-68" x="917.1875"/>
      <use xlink:href="#DejaVuSans-65" x="980.566406"/>
      <use xlink:href="#DejaVuSans-69" x="1042.089844"/>
      <use xlink:href="#DejaVuSans-6e" x="1069.873047"/>
     </g>
    </g>
   </g>
  </g>
 </g>
 <defs>
  <clipPath id="pb4d8cddf16">
   <rect x="46.64" y="26.64" width="297.021538" height="193.048654"/>
  </clipPath>
 </defs>
</svg>
