<?xml version="1.0" encoding="utf-8" standalone="no"?>
<!DOCTYPE svg PUBLIC "-//W3C//DTD SVG 1.1//EN"
  "http://www.w3.org/Graphics/SVG/1.1/DTD/svg11.dtd">
<svg xmlns:xlink="http://www.w3.org/1999/xlink" width="354.461538pt" height="265.846154pt" viewBox="0 0 354.461538 265.846154" xmlns="http://www.w3.org/2000/svg" version="1.1">
 <metadata>
  <rdf:RDF xmlns:dc="http://purl.org/dc/elements/1.1/" xmlns:cc="http://creativecommons.org/ns#" xmlns:rdf="http://www.w3.org/1999/02/22-rdf-syntax-ns#">
   <cc:Work>
    <dc:type rdf:resource="http://purl.org/dc/dcmitype/StillImage"/>
    <dc:date>2024-08-07T11:08:38.443766</dc:date>
    <dc:format>image/svg+xml</dc:format>
    <dc:creator>
     <cc:Agent>
      <dc:title>Matplotlib v3.7.1, https://matplotlib.org/</dc:title>
     </cc:Agent>
    </dc:creator>
   </cc:Work>
  </rdf:RDF>
 </metadata>
 <defs>
  <style type="text/css">*{stroke-linejoin: round; stroke-linecap: butt}</style>
 </defs>
 <g id="figure_1">
  <g id="patch_1">
   <path d="M 0 265.846154 
L 354.461538 265.846154 
L 354.461538 0 
L 0 0 
z
" style="fill: #ffffff"/>
  </g>
  <g id="axes_1">
   <g id="patch_2">
    <path d="M 51.05 223.886154 
L 343.661538 223.886154 
L 343.661538 26.64 
L 51.05 26.64 
z
" style="fill: #ffffff"/>
   </g>
   <g id="PolyCollection_1">
    <defs>
     <path id="mccba024707" d="M 51.05 -92.992284 
L 51.05 -50.925734 
L 51.05 -50.925734 
L 57.021664 -50.925734 
L 57.021664 -51.656879 
L 62.993328 -51.656879 
L 62.993328 -52.769804 
L 68.964992 -52.769804 
L 68.964992 -54.632317 
L 74.936656 -54.632317 
L 74.936656 -56.274784 
L 80.90832 -56.274784 
L 80.90832 -58.26251 
L 86.879984 -58.26251 
L 86.879984 -60.341587 
L 92.851648 -60.341587 
L 92.851648 -62.871098 
L 98.823312 -62.871098 
L 98.823312 -65.146505 
L 104.794976 -65.146505 
L 104.794976 -67.494021 
L 110.766641 -67.494021 
L 110.766641 -69.940722 
L 116.738305 -69.940722 
L 116.738305 -72.327153 
L 122.709969 -72.327153 
L 122.709969 -74.629414 
L 128.681633 -74.629414 
L 128.681633 -77.309516 
L 134.653297 -77.309516 
L 134.653297 -79.152043 
L 140.624961 -79.152043 
L 140.624961 -82.039627 
L 146.596625 -82.039627 
L 146.596625 -84.445078 
L 152.568289 -84.445078 
L 152.568289 -86.927732 
L 158.539953 -86.927732 
L 158.539953 -89.094454 
L 164.511617 -89.094454 
L 164.511617 -91.998204 
L 170.483281 -91.998204 
L 170.483281 -93.876895 
L 176.454945 -93.876895 
L 176.454945 -95.996161 
L 182.426609 -95.996161 
L 182.426609 -98.255321 
L 188.398273 -98.255321 
L 188.398273 -101.157207 
L 194.369937 -101.157207 
L 194.369937 -103.143887 
L 200.341601 -103.143887 
L 200.341601 -105.807157 
L 206.313265 -105.807157 
L 206.313265 -107.887147 
L 212.284929 -107.887147 
L 212.284929 -110.526038 
L 218.256593 -110.526038 
L 218.256593 -112.201005 
L 224.228257 -112.201005 
L 224.228257 -114.606122 
L 230.199922 -114.606122 
L 230.199922 -115.905027 
L 236.171586 -115.905027 
L 236.171586 -118.47255 
L 242.14325 -118.47255 
L 242.14325 -121.386654 
L 248.114914 -121.386654 
L 248.114914 -123.319231 
L 254.086578 -123.319231 
L 254.086578 -124.863648 
L 260.058242 -124.863648 
L 260.058242 -126.634188 
L 266.029906 -126.634188 
L 266.029906 -129.756942 
L 272.00157 -129.756942 
L 272.00157 -131.089014 
L 277.973234 -131.089014 
L 277.973234 -133.557354 
L 283.944898 -133.557354 
L 283.944898 -134.35606 
L 289.916562 -134.35606 
L 289.916562 -138.657398 
L 295.888226 -138.657398 
L 295.888226 -140.750168 
L 301.85989 -140.750168 
L 301.85989 -142.280059 
L 307.831554 -142.280059 
L 307.831554 -145.923164 
L 313.803218 -145.923164 
L 313.803218 -146.925696 
L 319.774882 -146.925696 
L 319.774882 -147.766854 
L 325.746546 -147.766854 
L 325.746546 -150.007212 
L 331.71821 -150.007212 
L 331.71821 -152.323158 
L 337.689874 -152.323158 
L 337.689874 -155.077362 
L 343.661538 -155.077362 
L 343.661538 -197.143912 
L 343.661538 -197.143912 
L 337.689874 -197.143912 
L 337.689874 -194.389708 
L 331.71821 -194.389708 
L 331.71821 -192.073762 
L 325.746546 -192.073762 
L 325.746546 -189.833404 
L 319.774882 -189.833404 
L 319.774882 -188.992246 
L 313.803218 -188.992246 
L 313.803218 -187.989714 
L 307.831554 -187.989714 
L 307.831554 -184.346609 
L 301.85989 -184.346609 
L 301.85989 -182.816718 
L 295.888226 -182.816718 
L 295.888226 -180.723948 
L 289.916562 -180.723948 
L 289.916562 -176.42261 
L 283.944898 -176.42261 
L 283.944898 -175.623904 
L 277.973234 -175.623904 
L 277.973234 -173.155564 
L 272.00157 -173.155564 
L 272.00157 -171.823492 
L 266.029906 -171.823492 
L 266.029906 -168.700738 
L 260.058242 -168.700738 
L 260.058242 -166.930198 
L 254.086578 -166.930198 
L 254.086578 -165.385781 
L 248.114914 -165.385781 
L 248.114914 -163.453204 
L 242.14325 -163.453204 
L 242.14325 -160.5391 
L 236.171586 -160.5391 
L 236.171586 -157.971577 
L 230.199922 -157.971577 
L 230.199922 -156.672672 
L 224.228257 -156.672672 
L 224.228257 -154.267555 
L 218.256593 -154.267555 
L 218.256593 -152.592588 
L 212.284929 -152.592588 
L 212.284929 -149.953697 
L 206.313265 -149.953697 
L 206.313265 -147.873707 
L 200.341601 -147.873707 
L 200.341601 -145.210437 
L 194.369937 -145.210437 
L 194.369937 -143.223757 
L 188.398273 -143.223757 
L 188.398273 -140.321871 
L 182.426609 -140.321871 
L 182.426609 -138.062711 
L 176.454945 -138.062711 
L 176.454945 -135.943445 
L 170.483281 -135.943445 
L 170.483281 -134.064754 
L 164.511617 -134.064754 
L 164.511617 -131.161004 
L 158.539953 -131.161004 
L 158.539953 -128.994282 
L 152.568289 -128.994282 
L 152.568289 -126.511628 
L 146.596625 -126.511628 
L 146.596625 -124.106177 
L 140.624961 -124.106177 
L 140.624961 -121.218593 
L 134.653297 -121.218593 
L 134.653297 -119.376066 
L 128.681633 -119.376066 
L 128.681633 -116.695964 
L 122.709969 -116.695964 
L 122.709969 -114.393703 
L 116.738305 -114.393703 
L 116.738305 -112.007272 
L 110.766641 -112.007272 
L 110.766641 -109.560571 
L 104.794976 -109.560571 
L 104.794976 -107.213055 
L 98.823312 -107.213055 
L 98.823312 -104.937648 
L 92.851648 -104.937648 
L 92.851648 -102.408137 
L 86.879984 -102.408137 
L 86.879984 -100.32906 
L 80.90832 -100.32906 
L 80.90832 -98.341334 
L 74.936656 -98.341334 
L 74.936656 -96.698867 
L 68.964992 -96.698867 
L 68.964992 -94.836354 
L 62.993328 -94.836354 
L 62.993328 -93.72343 
L 57.021664 -93.72343 
L 57.021664 -92.992284 
L 51.05 -92.992284 
L 51.05 -92.992284 
z
" style="stroke: #1f77b4; stroke-opacity: 0.5"/>
    </defs>
    <g clip-path="url(#p55666135fa)">
     <use xlink:href="#mccba024707" x="0" y="265.846154" style="fill: #1f77b4; fill-opacity: 0.5; stroke: #1f77b4; stroke-opacity: 0.5"/>
    </g>
   </g>
   <g id="PolyCollection_2">
    <defs>
     <path id="m51d8a106f1" d="M 51.05 -105.391084 
L 51.05 -52.968625 
L 51.05 -52.968625 
L 57.021664 -52.968625 
L 57.021664 -52.423141 
L 62.993328 -52.423141 
L 62.993328 -54.201215 
L 68.964992 -54.201215 
L 68.964992 -56.414327 
L 74.936656 -56.414327 
L 74.936656 -58.815845 
L 80.90832 -58.815845 
L 80.90832 -60.80422 
L 86.879984 -60.80422 
L 86.879984 -63.618561 
L 92.851648 -63.618561 
L 92.851648 -66.465396 
L 98.823312 -66.465396 
L 98.823312 -69.328871 
L 104.794976 -69.328871 
L 104.794976 -71.704905 
L 110.766641 -71.704905 
L 110.766641 -74.766937 
L 116.738305 -74.766937 
L 116.738305 -77.951597 
L 122.709969 -77.951597 
L 122.709969 -80.04746 
L 128.681633 -80.04746 
L 128.681633 -83.379535 
L 134.653297 -83.379535 
L 134.653297 -85.778766 
L 140.624961 -85.778766 
L 140.624961 -89.151004 
L 146.596625 -89.151004 
L 146.596625 -91.243285 
L 152.568289 -91.243285 
L 152.568289 -95.386208 
L 158.539953 -95.386208 
L 158.539953 -97.6399 
L 164.511617 -97.6399 
L 164.511617 -101.225966 
L 170.483281 -101.225966 
L 170.483281 -102.66059 
L 176.454945 -102.66059 
L 176.454945 -105.423186 
L 182.426609 -105.423186 
L 182.426609 -108.440655 
L 188.398273 -108.440655 
L 188.398273 -110.635622 
L 194.369937 -110.635622 
L 194.369937 -114.640388 
L 200.341601 -114.640388 
L 200.341601 -117.20784 
L 206.313265 -117.20784 
L 206.313265 -119.315823 
L 212.284929 -119.315823 
L 212.284929 -123.474278 
L 218.256593 -123.474278 
L 218.256593 -124.915028 
L 224.228257 -124.915028 
L 224.228257 -128.560579 
L 230.199922 -128.560579 
L 230.199922 -129.386092 
L 236.171586 -129.386092 
L 236.171586 -132.064863 
L 242.14325 -132.064863 
L 242.14325 -135.194923 
L 248.114914 -135.194923 
L 248.114914 -138.780309 
L 254.086578 -138.780309 
L 254.086578 -140.977215 
L 260.058242 -140.977215 
L 260.058242 -142.749914 
L 266.029906 -142.749914 
L 266.029906 -148.336393 
L 272.00157 -148.336393 
L 272.00157 -148.586576 
L 277.973234 -148.586576 
L 277.973234 -152.884307 
L 283.944898 -152.884307 
L 283.944898 -154.651976 
L 289.916562 -154.651976 
L 289.916562 -156.622225 
L 295.888226 -156.622225 
L 295.888226 -160.041138 
L 301.85989 -160.041138 
L 301.85989 -162.652588 
L 307.831554 -162.652588 
L 307.831554 -169.907961 
L 313.803218 -169.907961 
L 313.803218 -168.202741 
L 319.774882 -168.202741 
L 319.774882 -169.068305 
L 325.746546 -169.068305 
L 325.746546 -171.752192 
L 331.71821 -171.752192 
L 331.71821 -176.529465 
L 337.689874 -176.529465 
L 337.689874 -177.817961 
L 343.661538 -177.817961 
L 343.661538 -230.24042 
L 343.661538 -230.24042 
L 337.689874 -230.24042 
L 337.689874 -228.951924 
L 331.71821 -228.951924 
L 331.71821 -224.174651 
L 325.746546 -224.174651 
L 325.746546 -221.490764 
L 319.774882 -221.490764 
L 319.774882 -220.6252 
L 313.803218 -220.6252 
L 313.803218 -222.33042 
L 307.831554 -222.33042 
L 307.831554 -215.075047 
L 301.85989 -215.075047 
L 301.85989 -212.463597 
L 295.888226 -212.463597 
L 295.888226 -209.044684 
L 289.916562 -209.044684 
L 289.916562 -207.074435 
L 283.944898 -207.074435 
L 283.944898 -205.306766 
L 277.973234 -205.306766 
L 277.973234 -201.009035 
L 272.00157 -201.009035 
L 272.00157 -200.758852 
L 266.029906 -200.758852 
L 266.029906 -195.172373 
L 260.058242 -195.172373 
L 260.058242 -193.399674 
L 254.086578 -193.399674 
L 254.086578 -191.202768 
L 248.114914 -191.202768 
L 248.114914 -187.617382 
L 242.14325 -187.617382 
L 242.14325 -184.487322 
L 236.171586 -184.487322 
L 236.171586 -181.808551 
L 230.199922 -181.808551 
L 230.199922 -180.983038 
L 224.228257 -180.983038 
L 224.228257 -177.337487 
L 218.256593 -177.337487 
L 218.256593 -175.896737 
L 212.284929 -175.896737 
L 212.284929 -171.738282 
L 206.313265 -171.738282 
L 206.313265 -169.630299 
L 200.341601 -169.630299 
L 200.341601 -167.062847 
L 194.369937 -167.062847 
L 194.369937 -163.058081 
L 188.398273 -163.058081 
L 188.398273 -160.863114 
L 182.426609 -160.863114 
L 182.426609 -157.845645 
L 176.454945 -157.845645 
L 176.454945 -155.083049 
L 170.483281 -155.083049 
L 170.483281 -153.648425 
L 164.511617 -153.648425 
L 164.511617 -150.062359 
L 158.539953 -150.062359 
L 158.539953 -147.808666 
L 152.568289 -147.808666 
L 152.568289 -143.665744 
L 146.596625 -143.665744 
L 146.596625 -141.573463 
L 140.624961 -141.573463 
L 140.624961 -138.201225 
L 134.653297 -138.201225 
L 134.653297 -135.801994 
L 128.681633 -135.801994 
L 128.681633 -132.469919 
L 122.709969 -132.469919 
L 122.709969 -130.374056 
L 116.738305 -130.374056 
L 116.738305 -127.189396 
L 110.766641 -127.189396 
L 110.766641 -124.127364 
L 104.794976 -124.127364 
L 104.794976 -121.75133 
L 98.823312 -121.75133 
L 98.823312 -118.887855 
L 92.851648 -118.887855 
L 92.851648 -116.04102 
L 86.879984 -116.04102 
L 86.879984 -113.226679 
L 80.90832 -113.226679 
L 80.90832 -111.238303 
L 74.936656 -111.238303 
L 74.936656 -108.836786 
L 68.964992 -108.836786 
L 68.964992 -106.623674 
L 62.993328 -106.623674 
L 62.993328 -104.8456 
L 57.021664 -104.8456 
L 57.021664 -105.391084 
L 51.05 -105.391084 
L 51.05 -105.391084 
z
" style="stroke: #ff7f0e; stroke-opacity: 0.5"/>
    </defs>
    <g clip-path="url(#p55666135fa)">
     <use xlink:href="#m51d8a106f1" x="0" y="265.846154" style="fill: #ff7f0e; fill-opacity: 0.5; stroke: #ff7f0e; stroke-opacity: 0.5"/>
    </g>
   </g>
   <g id="matplotlib.axis_1">
    <g id="xtick_1">
     <g id="line2d_1">
      <path d="M 75.45171 223.886154 
L 75.45171 26.64 
" clip-path="url(#p55666135fa)" style="fill: none; stroke: #b0b0b0; stroke-width: 0.8; stroke-linecap: square"/>
     </g>
     <g id="line2d_2">
      <defs>
       <path id="m81ce039d94" d="M 0 0 
L 0 3.5 
" style="stroke: #000000; stroke-width: 0.8"/>
      </defs>
      <g>
       <use xlink:href="#m81ce039d94" x="75.45171" y="223.886154" style="stroke: #000000; stroke-width: 0.8"/>
      </g>
     </g>
     <g id="text_1">
      <!-- 200 -->
      <g transform="translate(65.90796 238.484591) scale(0.1 -0.1)">
       <defs>
        <path id="DejaVuSans-32" d="M 1228 531 
L 3431 531 
L 3431 0 
L 469 0 
L 469 531 
Q 828 903 1448 1529 
Q 2069 2156 2228 2338 
Q 2531 2678 2651 2914 
Q 2772 3150 2772 3378 
Q 2772 3750 2511 3984 
Q 2250 4219 1831 4219 
Q 1534 4219 1204 4116 
Q 875 4013 500 3803 
L 500 4441 
Q 881 4594 1212 4672 
Q 1544 4750 1819 4750 
Q 2544 4750 2975 4387 
Q 3406 4025 3406 3419 
Q 3406 3131 3298 2873 
Q 3191 2616 2906 2266 
Q 2828 2175 2409 1742 
Q 1991 1309 1228 531 
z
" transform="scale(0.015625)"/>
        <path id="DejaVuSans-30" d="M 2034 4250 
Q 1547 4250 1301 3770 
Q 1056 3291 1056 2328 
Q 1056 1369 1301 889 
Q 1547 409 2034 409 
Q 2525 409 2770 889 
Q 3016 1369 3016 2328 
Q 3016 3291 2770 3770 
Q 2525 4250 2034 4250 
z
M 2034 4750 
Q 2819 4750 3233 4129 
Q 3647 3509 3647 2328 
Q 3647 1150 3233 529 
Q 2819 -91 2034 -91 
Q 1250 -91 836 529 
Q 422 1150 422 2328 
Q 422 3509 836 4129 
Q 1250 4750 2034 4750 
z
" transform="scale(0.015625)"/>
       </defs>
       <use xlink:href="#DejaVuSans-32"/>
       <use xlink:href="#DejaVuSans-30" x="63.623047"/>
       <use xlink:href="#DejaVuSans-30" x="127.246094"/>
      </g>
     </g>
    </g>
    <g id="xtick_2">
     <g id="line2d_3">
      <path d="M 110.018751 223.886154 
L 110.018751 26.64 
" clip-path="url(#p55666135fa)" style="fill: none; stroke: #b0b0b0; stroke-width: 0.8; stroke-linecap: square"/>
     </g>
     <g id="line2d_4">
      <g>
       <use xlink:href="#m81ce039d94" x="110.018751" y="223.886154" style="stroke: #000000; stroke-width: 0.8"/>
      </g>
     </g>
     <g id="text_2">
      <!-- 250 -->
      <g transform="translate(100.475001 238.484591) scale(0.1 -0.1)">
       <defs>
        <path id="DejaVuSans-35" d="M 691 4666 
L 3169 4666 
L 3169 4134 
L 1269 4134 
L 1269 2991 
Q 1406 3038 1543 3061 
Q 1681 3084 1819 3084 
Q 2600 3084 3056 2656 
Q 3513 2228 3513 1497 
Q 3513 744 3044 326 
Q 2575 -91 1722 -91 
Q 1428 -91 1123 -41 
Q 819 9 494 109 
L 494 744 
Q 775 591 1075 516 
Q 1375 441 1709 441 
Q 2250 441 2565 725 
Q 2881 1009 2881 1497 
Q 2881 1984 2565 2268 
Q 2250 2553 1709 2553 
Q 1456 2553 1204 2497 
Q 953 2441 691 2322 
L 691 4666 
z
" transform="scale(0.015625)"/>
       </defs>
       <use xlink:href="#DejaVuSans-32"/>
       <use xlink:href="#DejaVuSans-35" x="63.623047"/>
       <use xlink:href="#DejaVuSans-30" x="127.246094"/>
      </g>
     </g>
    </g>
    <g id="xtick_3">
     <g id="line2d_5">
      <path d="M 144.585792 223.886154 
L 144.585792 26.64 
" clip-path="url(#p55666135fa)" style="fill: none; stroke: #b0b0b0; stroke-width: 0.8; stroke-linecap: square"/>
     </g>
     <g id="line2d_6">
      <g>
       <use xlink:href="#m81ce039d94" x="144.585792" y="223.886154" style="stroke: #000000; stroke-width: 0.8"/>
      </g>
     </g>
     <g id="text_3">
      <!-- 300 -->
      <g transform="translate(135.042042 238.484591) scale(0.1 -0.1)">
       <defs>
        <path id="DejaVuSans-33" d="M 2597 2516 
Q 3050 2419 3304 2112 
Q 3559 1806 3559 1356 
Q 3559 666 3084 287 
Q 2609 -91 1734 -91 
Q 1441 -91 1130 -33 
Q 819 25 488 141 
L 488 750 
Q 750 597 1062 519 
Q 1375 441 1716 441 
Q 2309 441 2620 675 
Q 2931 909 2931 1356 
Q 2931 1769 2642 2001 
Q 2353 2234 1838 2234 
L 1294 2234 
L 1294 2753 
L 1863 2753 
Q 2328 2753 2575 2939 
Q 2822 3125 2822 3475 
Q 2822 3834 2567 4026 
Q 2313 4219 1838 4219 
Q 1578 4219 1281 4162 
Q 984 4106 628 3988 
L 628 4550 
Q 988 4650 1302 4700 
Q 1616 4750 1894 4750 
Q 2613 4750 3031 4423 
Q 3450 4097 3450 3541 
Q 3450 3153 3228 2886 
Q 3006 2619 2597 2516 
z
" transform="scale(0.015625)"/>
       </defs>
       <use xlink:href="#DejaVuSans-33"/>
       <use xlink:href="#DejaVuSans-30" x="63.623047"/>
       <use xlink:href="#DejaVuSans-30" x="127.246094"/>
      </g>
     </g>
    </g>
    <g id="xtick_4">
     <g id="line2d_7">
      <path d="M 179.152832 223.886154 
L 179.152832 26.64 
" clip-path="url(#p55666135fa)" style="fill: none; stroke: #b0b0b0; stroke-width: 0.8; stroke-linecap: square"/>
     </g>
     <g id="line2d_8">
      <g>
       <use xlink:href="#m81ce039d94" x="179.152832" y="223.886154" style="stroke: #000000; stroke-width: 0.8"/>
      </g>
     </g>
     <g id="text_4">
      <!-- 350 -->
      <g transform="translate(169.609082 238.484591) scale(0.1 -0.1)">
       <use xlink:href="#DejaVuSans-33"/>
       <use xlink:href="#DejaVuSans-35" x="63.623047"/>
       <use xlink:href="#DejaVuSans-30" x="127.246094"/>
      </g>
     </g>
    </g>
    <g id="xtick_5">
     <g id="line2d_9">
      <path d="M 213.719873 223.886154 
L 213.719873 26.64 
" clip-path="url(#p55666135fa)" style="fill: none; stroke: #b0b0b0; stroke-width: 0.8; stroke-linecap: square"/>
     </g>
     <g id="line2d_10">
      <g>
       <use xlink:href="#m81ce039d94" x="213.719873" y="223.886154" style="stroke: #000000; stroke-width: 0.8"/>
      </g>
     </g>
     <g id="text_5">
      <!-- 400 -->
      <g transform="translate(204.176123 238.484591) scale(0.1 -0.1)">
       <defs>
        <path id="DejaVuSans-34" d="M 2419 4116 
L 825 1625 
L 2419 1625 
L 2419 4116 
z
M 2253 4666 
L 3047 4666 
L 3047 1625 
L 3713 1625 
L 3713 1100 
L 3047 1100 
L 3047 0 
L 2419 0 
L 2419 1100 
L 313 1100 
L 313 1709 
L 2253 4666 
z
" transform="scale(0.015625)"/>
       </defs>
       <use xlink:href="#DejaVuSans-34"/>
       <use xlink:href="#DejaVuSans-30" x="63.623047"/>
       <use xlink:href="#DejaVuSans-30" x="127.246094"/>
      </g>
     </g>
    </g>
    <g id="xtick_6">
     <g id="line2d_11">
      <path d="M 248.286913 223.886154 
L 248.286913 26.64 
" clip-path="url(#p55666135fa)" style="fill: none; stroke: #b0b0b0; stroke-width: 0.8; stroke-linecap: square"/>
     </g>
     <g id="line2d_12">
      <g>
       <use xlink:href="#m81ce039d94" x="248.286913" y="223.886154" style="stroke: #000000; stroke-width: 0.8"/>
      </g>
     </g>
     <g id="text_6">
      <!-- 450 -->
      <g transform="translate(238.743163 238.484591) scale(0.1 -0.1)">
       <use xlink:href="#DejaVuSans-34"/>
       <use xlink:href="#DejaVuSans-35" x="63.623047"/>
       <use xlink:href="#DejaVuSans-30" x="127.246094"/>
      </g>
     </g>
    </g>
    <g id="xtick_7">
     <g id="line2d_13">
      <path d="M 282.853954 223.886154 
L 282.853954 26.64 
" clip-path="url(#p55666135fa)" style="fill: none; stroke: #b0b0b0; stroke-width: 0.8; stroke-linecap: square"/>
     </g>
     <g id="line2d_14">
      <g>
       <use xlink:href="#m81ce039d94" x="282.853954" y="223.886154" style="stroke: #000000; stroke-width: 0.8"/>
      </g>
     </g>
     <g id="text_7">
      <!-- 500 -->
      <g transform="translate(273.310204 238.484591) scale(0.1 -0.1)">
       <use xlink:href="#DejaVuSans-35"/>
       <use xlink:href="#DejaVuSans-30" x="63.623047"/>
       <use xlink:href="#DejaVuSans-30" x="127.246094"/>
      </g>
     </g>
    </g>
    <g id="xtick_8">
     <g id="line2d_15">
      <path d="M 317.420994 223.886154 
L 317.420994 26.64 
" clip-path="url(#p55666135fa)" style="fill: none; stroke: #b0b0b0; stroke-width: 0.8; stroke-linecap: square"/>
     </g>
     <g id="line2d_16">
      <g>
       <use xlink:href="#m81ce039d94" x="317.420994" y="223.886154" style="stroke: #000000; stroke-width: 0.8"/>
      </g>
     </g>
     <g id="text_8">
      <!-- 550 -->
      <g transform="translate(307.877244 238.484591) scale(0.1 -0.1)">
       <use xlink:href="#DejaVuSans-35"/>
       <use xlink:href="#DejaVuSans-35" x="63.623047"/>
       <use xlink:href="#DejaVuSans-30" x="127.246094"/>
      </g>
     </g>
    </g>
    <g id="text_9">
     <!-- True Top quark Energy (GeV) -->
     <g transform="translate(125.808113 252.162716) scale(0.1 -0.1)">
      <defs>
       <path id="DejaVuSans-54" d="M -19 4666 
L 3928 4666 
L 3928 4134 
L 2272 4134 
L 2272 0 
L 1638 0 
L 1638 4134 
L -19 4134 
L -19 4666 
z
" transform="scale(0.015625)"/>
       <path id="DejaVuSans-72" d="M 2631 2963 
Q 2534 3019 2420 3045 
Q 2306 3072 2169 3072 
Q 1681 3072 1420 2755 
Q 1159 2438 1159 1844 
L 1159 0 
L 581 0 
L 581 3500 
L 1159 3500 
L 1159 2956 
Q 1341 3275 1631 3429 
Q 1922 3584 2338 3584 
Q 2397 3584 2469 3576 
Q 2541 3569 2628 3553 
L 2631 2963 
z
" transform="scale(0.015625)"/>
       <path id="DejaVuSans-75" d="M 544 1381 
L 544 3500 
L 1119 3500 
L 1119 1403 
Q 1119 906 1312 657 
Q 1506 409 1894 409 
Q 2359 409 2629 706 
Q 2900 1003 2900 1516 
L 2900 3500 
L 3475 3500 
L 3475 0 
L 2900 0 
L 2900 538 
Q 2691 219 2414 64 
Q 2138 -91 1772 -91 
Q 1169 -91 856 284 
Q 544 659 544 1381 
z
M 1991 3584 
L 1991 3584 
z
" transform="scale(0.015625)"/>
       <path id="DejaVuSans-65" d="M 3597 1894 
L 3597 1613 
L 953 1613 
Q 991 1019 1311 708 
Q 1631 397 2203 397 
Q 2534 397 2845 478 
Q 3156 559 3463 722 
L 3463 178 
Q 3153 47 2828 -22 
Q 2503 -91 2169 -91 
Q 1331 -91 842 396 
Q 353 884 353 1716 
Q 353 2575 817 3079 
Q 1281 3584 2069 3584 
Q 2775 3584 3186 3129 
Q 3597 2675 3597 1894 
z
M 3022 2063 
Q 3016 2534 2758 2815 
Q 2500 3097 2075 3097 
Q 1594 3097 1305 2825 
Q 1016 2553 972 2059 
L 3022 2063 
z
" transform="scale(0.015625)"/>
       <path id="DejaVuSans-20" transform="scale(0.015625)"/>
       <path id="DejaVuSans-6f" d="M 1959 3097 
Q 1497 3097 1228 2736 
Q 959 2375 959 1747 
Q 959 1119 1226 758 
Q 1494 397 1959 397 
Q 2419 397 2687 759 
Q 2956 1122 2956 1747 
Q 2956 2369 2687 2733 
Q 2419 3097 1959 3097 
z
M 1959 3584 
Q 2709 3584 3137 3096 
Q 3566 2609 3566 1747 
Q 3566 888 3137 398 
Q 2709 -91 1959 -91 
Q 1206 -91 779 398 
Q 353 888 353 1747 
Q 353 2609 779 3096 
Q 1206 3584 1959 3584 
z
" transform="scale(0.015625)"/>
       <path id="DejaVuSans-70" d="M 1159 525 
L 1159 -1331 
L 581 -1331 
L 581 3500 
L 1159 3500 
L 1159 2969 
Q 1341 3281 1617 3432 
Q 1894 3584 2278 3584 
Q 2916 3584 3314 3078 
Q 3713 2572 3713 1747 
Q 3713 922 3314 415 
Q 2916 -91 2278 -91 
Q 1894 -91 1617 61 
Q 1341 213 1159 525 
z
M 3116 1747 
Q 3116 2381 2855 2742 
Q 2594 3103 2138 3103 
Q 1681 3103 1420 2742 
Q 1159 2381 1159 1747 
Q 1159 1113 1420 752 
Q 1681 391 2138 391 
Q 2594 391 2855 752 
Q 3116 1113 3116 1747 
z
" transform="scale(0.015625)"/>
       <path id="DejaVuSans-71" d="M 947 1747 
Q 947 1113 1208 752 
Q 1469 391 1925 391 
Q 2381 391 2643 752 
Q 2906 1113 2906 1747 
Q 2906 2381 2643 2742 
Q 2381 3103 1925 3103 
Q 1469 3103 1208 2742 
Q 947 2381 947 1747 
z
M 2906 525 
Q 2725 213 2448 61 
Q 2172 -91 1784 -91 
Q 1150 -91 751 415 
Q 353 922 353 1747 
Q 353 2572 751 3078 
Q 1150 3584 1784 3584 
Q 2172 3584 2448 3432 
Q 2725 3281 2906 2969 
L 2906 3500 
L 3481 3500 
L 3481 -1331 
L 2906 -1331 
L 2906 525 
z
" transform="scale(0.015625)"/>
       <path id="DejaVuSans-61" d="M 2194 1759 
Q 1497 1759 1228 1600 
Q 959 1441 959 1056 
Q 959 750 1161 570 
Q 1363 391 1709 391 
Q 2188 391 2477 730 
Q 2766 1069 2766 1631 
L 2766 1759 
L 2194 1759 
z
M 3341 1997 
L 3341 0 
L 2766 0 
L 2766 531 
Q 2569 213 2275 61 
Q 1981 -91 1556 -91 
Q 1019 -91 701 211 
Q 384 513 384 1019 
Q 384 1609 779 1909 
Q 1175 2209 1959 2209 
L 2766 2209 
L 2766 2266 
Q 2766 2663 2505 2880 
Q 2244 3097 1772 3097 
Q 1472 3097 1187 3025 
Q 903 2953 641 2809 
L 641 3341 
Q 956 3463 1253 3523 
Q 1550 3584 1831 3584 
Q 2591 3584 2966 3190 
Q 3341 2797 3341 1997 
z
" transform="scale(0.015625)"/>
       <path id="DejaVuSans-6b" d="M 581 4863 
L 1159 4863 
L 1159 1991 
L 2875 3500 
L 3609 3500 
L 1753 1863 
L 3688 0 
L 2938 0 
L 1159 1709 
L 1159 0 
L 581 0 
L 581 4863 
z
" transform="scale(0.015625)"/>
       <path id="DejaVuSans-45" d="M 628 4666 
L 3578 4666 
L 3578 4134 
L 1259 4134 
L 1259 2753 
L 3481 2753 
L 3481 2222 
L 1259 2222 
L 1259 531 
L 3634 531 
L 3634 0 
L 628 0 
L 628 4666 
z
" transform="scale(0.015625)"/>
       <path id="DejaVuSans-6e" d="M 3513 2113 
L 3513 0 
L 2938 0 
L 2938 2094 
Q 2938 2591 2744 2837 
Q 2550 3084 2163 3084 
Q 1697 3084 1428 2787 
Q 1159 2491 1159 1978 
L 1159 0 
L 581 0 
L 581 3500 
L 1159 3500 
L 1159 2956 
Q 1366 3272 1645 3428 
Q 1925 3584 2291 3584 
Q 2894 3584 3203 3211 
Q 3513 2838 3513 2113 
z
" transform="scale(0.015625)"/>
       <path id="DejaVuSans-67" d="M 2906 1791 
Q 2906 2416 2648 2759 
Q 2391 3103 1925 3103 
Q 1463 3103 1205 2759 
Q 947 2416 947 1791 
Q 947 1169 1205 825 
Q 1463 481 1925 481 
Q 2391 481 2648 825 
Q 2906 1169 2906 1791 
z
M 3481 434 
Q 3481 -459 3084 -895 
Q 2688 -1331 1869 -1331 
Q 1566 -1331 1297 -1286 
Q 1028 -1241 775 -1147 
L 775 -588 
Q 1028 -725 1275 -790 
Q 1522 -856 1778 -856 
Q 2344 -856 2625 -561 
Q 2906 -266 2906 331 
L 2906 616 
Q 2728 306 2450 153 
Q 2172 0 1784 0 
Q 1141 0 747 490 
Q 353 981 353 1791 
Q 353 2603 747 3093 
Q 1141 3584 1784 3584 
Q 2172 3584 2450 3431 
Q 2728 3278 2906 2969 
L 2906 3500 
L 3481 3500 
L 3481 434 
z
" transform="scale(0.015625)"/>
       <path id="DejaVuSans-79" d="M 2059 -325 
Q 1816 -950 1584 -1140 
Q 1353 -1331 966 -1331 
L 506 -1331 
L 506 -850 
L 844 -850 
Q 1081 -850 1212 -737 
Q 1344 -625 1503 -206 
L 1606 56 
L 191 3500 
L 800 3500 
L 1894 763 
L 2988 3500 
L 3597 3500 
L 2059 -325 
z
" transform="scale(0.015625)"/>
       <path id="DejaVuSans-28" d="M 1984 4856 
Q 1566 4138 1362 3434 
Q 1159 2731 1159 2009 
Q 1159 1288 1364 580 
Q 1569 -128 1984 -844 
L 1484 -844 
Q 1016 -109 783 600 
Q 550 1309 550 2009 
Q 550 2706 781 3412 
Q 1013 4119 1484 4856 
L 1984 4856 
z
" transform="scale(0.015625)"/>
       <path id="DejaVuSans-47" d="M 3809 666 
L 3809 1919 
L 2778 1919 
L 2778 2438 
L 4434 2438 
L 4434 434 
Q 4069 175 3628 42 
Q 3188 -91 2688 -91 
Q 1594 -91 976 548 
Q 359 1188 359 2328 
Q 359 3472 976 4111 
Q 1594 4750 2688 4750 
Q 3144 4750 3555 4637 
Q 3966 4525 4313 4306 
L 4313 3634 
Q 3963 3931 3569 4081 
Q 3175 4231 2741 4231 
Q 1884 4231 1454 3753 
Q 1025 3275 1025 2328 
Q 1025 1384 1454 906 
Q 1884 428 2741 428 
Q 3075 428 3337 486 
Q 3600 544 3809 666 
z
" transform="scale(0.015625)"/>
       <path id="DejaVuSans-56" d="M 1831 0 
L 50 4666 
L 709 4666 
L 2188 738 
L 3669 4666 
L 4325 4666 
L 2547 0 
L 1831 0 
z
" transform="scale(0.015625)"/>
       <path id="DejaVuSans-29" d="M 513 4856 
L 1013 4856 
Q 1481 4119 1714 3412 
Q 1947 2706 1947 2009 
Q 1947 1309 1714 600 
Q 1481 -109 1013 -844 
L 513 -844 
Q 928 -128 1133 580 
Q 1338 1288 1338 2009 
Q 1338 2731 1133 3434 
Q 928 4138 513 4856 
z
" transform="scale(0.015625)"/>
      </defs>
      <use xlink:href="#DejaVuSans-54"/>
      <use xlink:href="#DejaVuSans-72" x="46.333984"/>
      <use xlink:href="#DejaVuSans-75" x="87.447266"/>
      <use xlink:href="#DejaVuSans-65" x="150.826172"/>
      <use xlink:href="#DejaVuSans-20" x="212.349609"/>
      <use xlink:href="#DejaVuSans-54" x="244.136719"/>
      <use xlink:href="#DejaVuSans-6f" x="288.220703"/>
      <use xlink:href="#DejaVuSans-70" x="349.402344"/>
      <use xlink:href="#DejaVuSans-20" x="412.878906"/>
      <use xlink:href="#DejaVuSans-71" x="444.666016"/>
      <use xlink:href="#DejaVuSans-75" x="508.142578"/>
      <use xlink:href="#DejaVuSans-61" x="571.521484"/>
      <use xlink:href="#DejaVuSans-72" x="632.800781"/>
      <use xlink:href="#DejaVuSans-6b" x="673.914062"/>
      <use xlink:href="#DejaVuSans-20" x="731.824219"/>
      <use xlink:href="#DejaVuSans-45" x="763.611328"/>
      <use xlink:href="#DejaVuSans-6e" x="826.794922"/>
      <use xlink:href="#DejaVuSans-65" x="890.173828"/>
      <use xlink:href="#DejaVuSans-72" x="951.697266"/>
      <use xlink:href="#DejaVuSans-67" x="991.060547"/>
      <use xlink:href="#DejaVuSans-79" x="1054.537109"/>
      <use xlink:href="#DejaVuSans-20" x="1113.716797"/>
      <use xlink:href="#DejaVuSans-28" x="1145.503906"/>
      <use xlink:href="#DejaVuSans-47" x="1184.517578"/>
      <use xlink:href="#DejaVuSans-65" x="1262.007812"/>
      <use xlink:href="#DejaVuSans-56" x="1323.53125"/>
      <use xlink:href="#DejaVuSans-29" x="1391.939453"/>
     </g>
    </g>
   </g>
   <g id="matplotlib.axis_2">
    <g id="ytick_1">
     <g id="line2d_17">
      <path d="M 51.05 197.307637 
L 343.661538 197.307637 
" clip-path="url(#p55666135fa)" style="fill: none; stroke: #b0b0b0; stroke-width: 0.8; stroke-linecap: square"/>
     </g>
     <g id="line2d_18">
      <defs>
       <path id="m30145d335b" d="M 0 0 
L -3.5 0 
" style="stroke: #000000; stroke-width: 0.8"/>
      </defs>
      <g>
       <use xlink:href="#m30145d335b" x="51.05" y="197.307637" style="stroke: #000000; stroke-width: 0.8"/>
      </g>
     </g>
     <g id="text_10">
      <!-- 200 -->
      <g transform="translate(24.9625 201.106856) scale(0.1 -0.1)">
       <use xlink:href="#DejaVuSans-32"/>
       <use xlink:href="#DejaVuSans-30" x="63.623047"/>
       <use xlink:href="#DejaVuSans-30" x="127.246094"/>
      </g>
     </g>
    </g>
    <g id="ytick_2">
     <g id="line2d_19">
      <path d="M 51.05 163.00358 
L 343.661538 163.00358 
" clip-path="url(#p55666135fa)" style="fill: none; stroke: #b0b0b0; stroke-width: 0.8; stroke-linecap: square"/>
     </g>
     <g id="line2d_20">
      <g>
       <use xlink:href="#m30145d335b" x="51.05" y="163.00358" style="stroke: #000000; stroke-width: 0.8"/>
      </g>
     </g>
     <g id="text_11">
      <!-- 300 -->
      <g transform="translate(24.9625 166.802799) scale(0.1 -0.1)">
       <use xlink:href="#DejaVuSans-33"/>
       <use xlink:href="#DejaVuSans-30" x="63.623047"/>
       <use xlink:href="#DejaVuSans-30" x="127.246094"/>
      </g>
     </g>
    </g>
    <g id="ytick_3">
     <g id="line2d_21">
      <path d="M 51.05 128.699522 
L 343.661538 128.699522 
" clip-path="url(#p55666135fa)" style="fill: none; stroke: #b0b0b0; stroke-width: 0.8; stroke-linecap: square"/>
     </g>
     <g id="line2d_22">
      <g>
       <use xlink:href="#m30145d335b" x="51.05" y="128.699522" style="stroke: #000000; stroke-width: 0.8"/>
      </g>
     </g>
     <g id="text_12">
      <!-- 400 -->
      <g transform="translate(24.9625 132.498741) scale(0.1 -0.1)">
       <use xlink:href="#DejaVuSans-34"/>
       <use xlink:href="#DejaVuSans-30" x="63.623047"/>
       <use xlink:href="#DejaVuSans-30" x="127.246094"/>
      </g>
     </g>
    </g>
    <g id="ytick_4">
     <g id="line2d_23">
      <path d="M 51.05 94.395465 
L 343.661538 94.395465 
" clip-path="url(#p55666135fa)" style="fill: none; stroke: #b0b0b0; stroke-width: 0.8; stroke-linecap: square"/>
     </g>
     <g id="line2d_24">
      <g>
       <use xlink:href="#m30145d335b" x="51.05" y="94.395465" style="stroke: #000000; stroke-width: 0.8"/>
      </g>
     </g>
     <g id="text_13">
      <!-- 500 -->
      <g transform="translate(24.9625 98.194684) scale(0.1 -0.1)">
       <use xlink:href="#DejaVuSans-35"/>
       <use xlink:href="#DejaVuSans-30" x="63.623047"/>
       <use xlink:href="#DejaVuSans-30" x="127.246094"/>
      </g>
     </g>
    </g>
    <g id="ytick_5">
     <g id="line2d_25">
      <path d="M 51.05 60.091408 
L 343.661538 60.091408 
" clip-path="url(#p55666135fa)" style="fill: none; stroke: #b0b0b0; stroke-width: 0.8; stroke-linecap: square"/>
     </g>
     <g id="line2d_26">
      <g>
       <use xlink:href="#m30145d335b" x="51.05" y="60.091408" style="stroke: #000000; stroke-width: 0.8"/>
      </g>
     </g>
     <g id="text_14">
      <!-- 600 -->
      <g transform="translate(24.9625 63.890626) scale(0.1 -0.1)">
       <defs>
        <path id="DejaVuSans-36" d="M 2113 2584 
Q 1688 2584 1439 2293 
Q 1191 2003 1191 1497 
Q 1191 994 1439 701 
Q 1688 409 2113 409 
Q 2538 409 2786 701 
Q 3034 994 3034 1497 
Q 3034 2003 2786 2293 
Q 2538 2584 2113 2584 
z
M 3366 4563 
L 3366 3988 
Q 3128 4100 2886 4159 
Q 2644 4219 2406 4219 
Q 1781 4219 1451 3797 
Q 1122 3375 1075 2522 
Q 1259 2794 1537 2939 
Q 1816 3084 2150 3084 
Q 2853 3084 3261 2657 
Q 3669 2231 3669 1497 
Q 3669 778 3244 343 
Q 2819 -91 2113 -91 
Q 1303 -91 875 529 
Q 447 1150 447 2328 
Q 447 3434 972 4092 
Q 1497 4750 2381 4750 
Q 2619 4750 2861 4703 
Q 3103 4656 3366 4563 
z
" transform="scale(0.015625)"/>
       </defs>
       <use xlink:href="#DejaVuSans-36"/>
       <use xlink:href="#DejaVuSans-30" x="63.623047"/>
       <use xlink:href="#DejaVuSans-30" x="127.246094"/>
      </g>
     </g>
    </g>
    <g id="text_15">
     <!-- Response -->
     <g transform="translate(18.882812 149.277139) rotate(-90) scale(0.1 -0.1)">
      <defs>
       <path id="DejaVuSans-52" d="M 2841 2188 
Q 3044 2119 3236 1894 
Q 3428 1669 3622 1275 
L 4263 0 
L 3584 0 
L 2988 1197 
Q 2756 1666 2539 1819 
Q 2322 1972 1947 1972 
L 1259 1972 
L 1259 0 
L 628 0 
L 628 4666 
L 2053 4666 
Q 2853 4666 3247 4331 
Q 3641 3997 3641 3322 
Q 3641 2881 3436 2590 
Q 3231 2300 2841 2188 
z
M 1259 4147 
L 1259 2491 
L 2053 2491 
Q 2509 2491 2742 2702 
Q 2975 2913 2975 3322 
Q 2975 3731 2742 3939 
Q 2509 4147 2053 4147 
L 1259 4147 
z
" transform="scale(0.015625)"/>
       <path id="DejaVuSans-73" d="M 2834 3397 
L 2834 2853 
Q 2591 2978 2328 3040 
Q 2066 3103 1784 3103 
Q 1356 3103 1142 2972 
Q 928 2841 928 2578 
Q 928 2378 1081 2264 
Q 1234 2150 1697 2047 
L 1894 2003 
Q 2506 1872 2764 1633 
Q 3022 1394 3022 966 
Q 3022 478 2636 193 
Q 2250 -91 1575 -91 
Q 1294 -91 989 -36 
Q 684 19 347 128 
L 347 722 
Q 666 556 975 473 
Q 1284 391 1588 391 
Q 1994 391 2212 530 
Q 2431 669 2431 922 
Q 2431 1156 2273 1281 
Q 2116 1406 1581 1522 
L 1381 1569 
Q 847 1681 609 1914 
Q 372 2147 372 2553 
Q 372 3047 722 3315 
Q 1072 3584 1716 3584 
Q 2034 3584 2315 3537 
Q 2597 3491 2834 3397 
z
" transform="scale(0.015625)"/>
      </defs>
      <use xlink:href="#DejaVuSans-52"/>
      <use xlink:href="#DejaVuSans-65" x="64.982422"/>
      <use xlink:href="#DejaVuSans-73" x="126.505859"/>
      <use xlink:href="#DejaVuSans-70" x="178.605469"/>
      <use xlink:href="#DejaVuSans-6f" x="242.082031"/>
      <use xlink:href="#DejaVuSans-6e" x="303.263672"/>
      <use xlink:href="#DejaVuSans-73" x="366.642578"/>
      <use xlink:href="#DejaVuSans-65" x="418.742188"/>
     </g>
    </g>
   </g>
   <g id="line2d_27">
    <path d="M 51.05 196.170238 
L 51.05 196.170238 
L 57.021664 196.170238 
L 57.021664 195.439093 
L 62.993328 195.439093 
L 62.993328 194.326168 
L 68.964992 194.326168 
L 68.964992 192.463655 
L 74.936656 192.463655 
L 74.936656 190.821188 
L 80.90832 190.821188 
L 80.90832 188.833462 
L 86.879984 188.833462 
L 86.879984 186.754385 
L 92.851648 186.754385 
L 92.851648 184.224874 
L 98.823312 184.224874 
L 98.823312 181.949467 
L 104.794976 181.949467 
L 104.794976 179.601951 
L 110.766641 179.601951 
L 110.766641 177.15525 
L 116.738305 177.15525 
L 116.738305 174.768819 
L 122.709969 174.768819 
L 122.709969 172.466558 
L 128.681633 172.466558 
L 128.681633 169.786456 
L 134.653297 169.786456 
L 134.653297 167.943929 
L 140.624961 167.943929 
L 140.624961 165.056345 
L 146.596625 165.056345 
L 146.596625 162.650894 
L 152.568289 162.650894 
L 152.568289 160.16824 
L 158.539953 160.16824 
L 158.539953 158.001518 
L 164.511617 158.001518 
L 164.511617 155.097768 
L 170.483281 155.097768 
L 170.483281 153.219077 
L 176.454945 153.219077 
L 176.454945 151.099811 
L 182.426609 151.099811 
L 182.426609 148.840651 
L 188.398273 148.840651 
L 188.398273 145.938765 
L 194.369937 145.938765 
L 194.369937 143.952085 
L 200.341601 143.952085 
L 200.341601 141.288815 
L 206.313265 141.288815 
L 206.313265 139.208825 
L 212.284929 139.208825 
L 212.284929 136.569934 
L 218.256593 136.569934 
L 218.256593 134.894967 
L 224.228257 134.894967 
L 224.228257 132.48985 
L 230.199922 132.48985 
L 230.199922 131.190945 
L 236.171586 131.190945 
L 236.171586 128.623422 
L 242.14325 128.623422 
L 242.14325 125.709318 
L 248.114914 125.709318 
L 248.114914 123.776741 
L 254.086578 123.776741 
L 254.086578 122.232324 
L 260.058242 122.232324 
L 260.058242 120.461784 
L 266.029906 120.461784 
L 266.029906 117.33903 
L 272.00157 117.33903 
L 272.00157 116.006958 
L 277.973234 116.006958 
L 277.973234 113.538618 
L 283.944898 113.538618 
L 283.944898 112.739912 
L 289.916562 112.739912 
L 289.916562 108.438574 
L 295.888226 108.438574 
L 295.888226 106.345804 
L 301.85989 106.345804 
L 301.85989 104.815913 
L 307.831554 104.815913 
L 307.831554 101.172808 
L 313.803218 101.172808 
L 313.803218 100.170276 
L 319.774882 100.170276 
L 319.774882 99.329118 
L 325.746546 99.329118 
L 325.746546 97.08876 
L 331.71821 97.08876 
L 331.71821 94.772814 
L 337.689874 94.772814 
L 337.689874 92.01861 
L 343.661538 92.01861 
" clip-path="url(#p55666135fa)" style="fill: none; stroke: #1f77b4; stroke-width: 1.5; stroke-linecap: square"/>
   </g>
   <g id="line2d_28">
    <path d="M 51.05 191.35108 
L 51.05 191.35108 
L 57.021664 191.35108 
L 57.021664 191.896564 
L 62.993328 191.896564 
L 62.993328 190.118489 
L 68.964992 190.118489 
L 68.964992 187.905378 
L 74.936656 187.905378 
L 74.936656 185.50386 
L 80.90832 185.50386 
L 80.90832 183.515485 
L 86.879984 183.515485 
L 86.879984 180.701143 
L 92.851648 180.701143 
L 92.851648 177.854309 
L 98.823312 177.854309 
L 98.823312 174.990834 
L 104.794976 174.990834 
L 104.794976 172.6148 
L 110.766641 172.6148 
L 110.766641 169.552767 
L 116.738305 169.552767 
L 116.738305 166.368107 
L 122.709969 166.368107 
L 122.709969 164.272245 
L 128.681633 164.272245 
L 128.681633 160.94017 
L 134.653297 160.94017 
L 134.653297 158.540939 
L 140.624961 158.540939 
L 140.624961 155.1687 
L 146.596625 155.1687 
L 146.596625 153.07642 
L 152.568289 153.07642 
L 152.568289 148.933497 
L 158.539953 148.933497 
L 158.539953 146.679804 
L 164.511617 146.679804 
L 164.511617 143.093739 
L 170.483281 143.093739 
L 170.483281 141.659114 
L 176.454945 141.659114 
L 176.454945 138.896518 
L 182.426609 138.896518 
L 182.426609 135.879049 
L 188.398273 135.879049 
L 188.398273 133.684083 
L 194.369937 133.684083 
L 194.369937 129.679317 
L 200.341601 129.679317 
L 200.341601 127.111864 
L 206.313265 127.111864 
L 206.313265 125.003882 
L 212.284929 125.003882 
L 212.284929 120.845426 
L 218.256593 120.845426 
L 218.256593 119.404677 
L 224.228257 119.404677 
L 224.228257 115.759126 
L 230.199922 115.759126 
L 230.199922 114.933613 
L 236.171586 114.933613 
L 236.171586 112.254841 
L 242.14325 112.254841 
L 242.14325 109.124782 
L 248.114914 109.124782 
L 248.114914 105.539396 
L 254.086578 105.539396 
L 254.086578 103.342489 
L 260.058242 103.342489 
L 260.058242 101.569791 
L 266.029906 101.569791 
L 266.029906 95.983312 
L 272.00157 95.983312 
L 272.00157 95.733129 
L 277.973234 95.733129 
L 277.973234 91.435398 
L 283.944898 91.435398 
L 283.944898 89.667729 
L 289.916562 89.667729 
L 289.916562 87.697479 
L 295.888226 87.697479 
L 295.888226 84.278567 
L 301.85989 84.278567 
L 301.85989 81.667117 
L 307.831554 81.667117 
L 307.831554 74.411743 
L 313.803218 74.411743 
L 313.803218 76.116964 
L 319.774882 76.116964 
L 319.774882 75.251399 
L 325.746546 75.251399 
L 325.746546 72.567513 
L 331.71821 72.567513 
L 331.71821 67.790239 
L 337.689874 67.790239 
L 337.689874 66.501744 
L 343.661538 66.501744 
" clip-path="url(#p55666135fa)" style="fill: none; stroke: #ff7f0e; stroke-width: 1.5; stroke-linecap: square"/>
   </g>
   <g id="patch_3">
    <path d="M 51.05 223.886154 
L 51.05 26.64 
" style="fill: none; stroke: #000000; stroke-width: 0.8; stroke-linejoin: miter; stroke-linecap: square"/>
   </g>
   <g id="patch_4">
    <path d="M 343.661538 223.886154 
L 343.661538 26.64 
" style="fill: none; stroke: #000000; stroke-width: 0.8; stroke-linejoin: miter; stroke-linecap: square"/>
   </g>
   <g id="patch_5">
    <path d="M 51.05 223.886154 
L 343.661538 223.886154 
" style="fill: none; stroke: #000000; stroke-width: 0.8; stroke-linejoin: miter; stroke-linecap: square"/>
   </g>
   <g id="patch_6">
    <path d="M 51.05 26.64 
L 343.661538 26.64 
" style="fill: none; stroke: #000000; stroke-width: 0.8; stroke-linejoin: miter; stroke-linecap: square"/>
   </g>
   <g id="text_16">
    <!-- CMS -->
    <g transform="translate(51.05 22.956328) scale(0.169 -0.169)">
     <defs>
      <path id="TeXGyreHeros-Bold-43" d="M 4384 1594 
L 3450 1594 
C 3392 998 3014 730 2419 730 
C 1677 730 1242 1299 1242 2317 
C 1242 3347 1696 3923 2451 3923 
C 2970 3923 3309 3686 3450 3085 
L 4365 3085 
C 4282 4160 3469 4742 2419 4742 
C 1101 4742 282 3840 282 2330 
C 282 832 1094 -77 2394 -77 
C 3552 -77 4326 525 4384 1594 
z
" transform="scale(0.015625)"/>
      <path id="TeXGyreHeros-Bold-4d" d="M 4966 0 
L 4966 4666 
L 3520 4666 
L 2701 954 
L 1856 4666 
L 422 4666 
L 422 0 
L 1382 0 
L 1382 3635 
L 2221 0 
L 3181 0 
L 4006 3635 
L 4006 0 
L 4966 0 
z
" transform="scale(0.015625)"/>
      <path id="TeXGyreHeros-Bold-53" d="M 4051 1402 
C 4051 2138 3680 2483 2816 2650 
L 2086 2790 
C 1402 2925 1203 3059 1203 3398 
C 1203 3750 1517 3974 2010 3974 
C 2618 3974 2989 3718 2989 3245 
L 3885 3245 
C 3885 4230 3194 4742 2054 4742 
C 934 4742 288 4218 288 3309 
C 288 2579 653 2240 1600 2054 
L 2253 1926 
C 2893 1798 3130 1664 3130 1286 
C 3130 896 2771 691 2189 691 
C 1536 691 1139 966 1139 1466 
L 205 1466 
C 205 467 947 -77 2138 -77 
C 3341 -77 4051 454 4051 1402 
z
" transform="scale(0.015625)"/>
     </defs>
     <use xlink:href="#TeXGyreHeros-Bold-43"/>
     <use xlink:href="#TeXGyreHeros-Bold-4d" x="72.199982"/>
     <use xlink:href="#TeXGyreHeros-Bold-53" x="155.499969"/>
    </g>
   </g>
   <g id="text_17">
    <!-- Private work (CMS simulation) -->
    <g transform="translate(90.362 22.885175) scale(0.13 -0.13)">
     <defs>
      <path id="TeXGyreHeros-Italic-50" d="M 4371 3635 
C 4371 4314 3968 4666 3187 4666 
L 1254 4666 
L 262 0 
L 864 0 
L 1286 1978 
L 2746 1978 
C 3712 1978 4371 2771 4371 3635 
z
M 3757 3520 
C 3757 2957 3302 2502 2637 2502 
L 1395 2502 
L 1747 4141 
L 2989 4141 
C 3488 4141 3757 3923 3757 3520 
z
" transform="scale(0.015625)"/>
      <path id="TeXGyreHeros-Italic-72" d="M 2355 2886 
L 2470 3430 
C 2387 3443 2336 3450 2266 3450 
C 1894 3450 1606 3283 1210 2829 
L 1318 3354 
L 832 3354 
L 122 0 
L 659 0 
L 1030 1741 
C 1190 2496 1626 2886 2291 2886 
L 2355 2886 
z
" transform="scale(0.015625)"/>
      <path id="TeXGyreHeros-Italic-69" d="M 659 0 
L 1370 3354 
L 832 3354 
L 122 0 
L 659 0 
z
M 1677 4525 
L 1011 4525 
L 870 3866 
L 1536 3866 
L 1677 4525 
z
" transform="scale(0.015625)"/>
      <path id="TeXGyreHeros-Italic-76" d="M 3507 3354 
L 2925 3354 
L 1363 653 
L 1050 3354 
L 461 3354 
L 934 0 
L 1517 0 
L 3507 3354 
z
" transform="scale(0.015625)"/>
      <path id="TeXGyreHeros-Italic-61" d="M 3149 0 
L 3232 416 
C 3174 403 3149 403 3123 403 
C 2957 403 2880 461 2880 589 
C 2880 614 2880 634 2886 653 
L 3277 2490 
C 3315 2662 3315 2662 3315 2726 
C 3315 3162 2874 3450 2202 3450 
C 1312 3450 768 3072 646 2362 
L 1184 2362 
C 1312 2771 1587 2957 2061 2957 
C 2445 2957 2739 2784 2739 2547 
C 2739 2522 2733 2477 2726 2426 
L 2707 2310 
C 2662 2048 2515 1971 2061 1933 
C 1203 1850 934 1792 621 1594 
C 288 1382 102 1069 102 698 
C 102 186 454 -96 1030 -96 
C 1446 -96 1818 -38 2310 371 
L 2304 275 
C 2304 13 2502 -58 2810 -58 
C 2899 -58 2893 -45 3149 0 
z
M 2566 1651 
L 2451 1101 
C 2368 704 1805 365 1242 365 
C 877 365 666 493 666 762 
C 666 1165 954 1370 1632 1466 
C 2234 1549 2285 1555 2566 1651 
z
" transform="scale(0.015625)"/>
      <path id="TeXGyreHeros-Italic-74" d="M 1408 467 
C 1210 422 1178 416 1101 416 
C 960 416 870 486 870 589 
C 870 608 877 640 883 678 
L 1363 2925 
L 1933 2925 
L 2022 3354 
L 1453 3354 
L 1651 4275 
L 1114 4275 
L 915 3354 
L 461 3354 
L 371 2925 
L 826 2925 
L 339 659 
C 326 595 320 525 320 461 
C 320 147 538 -45 890 -45 
C 1018 -45 1216 -26 1306 0 
L 1408 467 
z
" transform="scale(0.015625)"/>
      <path id="TeXGyreHeros-Italic-65" d="M 3290 1523 
L 3302 1606 
C 3360 1914 3392 2182 3392 2355 
C 3392 2970 2861 3450 2170 3450 
C 1613 3450 1075 3187 755 2758 
C 454 2355 224 1651 224 1133 
C 224 467 717 -96 1498 -96 
C 2266 -96 2912 326 3110 1018 
L 2573 1018 
C 2355 627 2016 397 1587 397 
C 1082 397 787 685 787 1229 
C 781 1338 787 1402 819 1523 
L 3290 1523 
z
M 2816 1984 
L 934 1984 
C 1094 2547 1568 2957 2086 2957 
C 2541 2957 2829 2650 2829 2170 
C 2829 2106 2822 2061 2816 1984 
z
" transform="scale(0.015625)"/>
      <path id="TeXGyreHeros-Italic-20" transform="scale(0.015625)"/>
      <path id="TeXGyreHeros-Italic-77" d="M 4928 3354 
L 4346 3354 
L 3091 742 
L 3091 3354 
L 2349 3354 
L 1139 742 
L 1139 3354 
L 435 3354 
L 691 0 
L 1306 0 
L 2554 2675 
L 2554 0 
L 3238 0 
L 4928 3354 
z
" transform="scale(0.015625)"/>
      <path id="TeXGyreHeros-Italic-6f" d="M 3366 2253 
C 3366 2931 2906 3450 2138 3450 
C 934 3450 198 2342 198 1075 
C 198 365 698 -96 1414 -96 
C 2579 -96 3366 922 3366 2253 
z
M 2803 2131 
C 2803 1178 2266 397 1504 397 
C 1050 397 762 691 762 1203 
C 762 2131 1299 2957 2054 2957 
C 2528 2957 2803 2650 2803 2131 
z
" transform="scale(0.015625)"/>
      <path id="TeXGyreHeros-Italic-6b" d="M 2893 0 
L 1997 2195 
L 3418 3354 
L 2726 3354 
L 1005 1958 
L 1581 4666 
L 1043 4666 
L 51 0 
L 589 0 
L 864 1299 
L 1549 1862 
L 2278 0 
L 2893 0 
z
" transform="scale(0.015625)"/>
      <path id="TeXGyreHeros-Italic-28" d="M 1254 -1363 
C 1018 -749 902 -147 902 506 
C 902 1926 1459 3347 2534 4666 
L 2182 4666 
C 1069 3501 403 2042 403 742 
C 403 -19 589 -813 902 -1363 
L 1254 -1363 
z
" transform="scale(0.015625)"/>
      <path id="TeXGyreHeros-Italic-43" d="M 4384 1702 
L 3757 1702 
C 3354 787 2950 403 2125 403 
C 1459 403 1018 922 1018 1696 
C 1018 2278 1210 2925 1536 3411 
C 1926 3987 2394 4262 2982 4262 
C 3629 4262 3942 3910 3994 3219 
L 4608 3219 
C 4557 4262 3974 4781 3091 4781 
C 2342 4781 1722 4480 1222 3878 
C 717 3270 403 2381 403 1581 
C 403 563 1011 -115 2035 -115 
C 3162 -115 3840 410 4384 1702 
z
" transform="scale(0.015625)"/>
      <path id="TeXGyreHeros-Italic-4d" d="M 5542 4666 
L 4704 4666 
L 2490 653 
L 1978 4666 
L 1152 4666 
L 160 0 
L 730 0 
L 1555 3872 
L 2048 0 
L 2669 0 
L 4806 3872 
L 3981 0 
L 4550 0 
L 5542 4666 
z
" transform="scale(0.015625)"/>
      <path id="TeXGyreHeros-Italic-53" d="M 3968 1549 
C 3968 1978 3667 2349 3187 2490 
L 2086 2803 
C 1594 2944 1440 3072 1440 3354 
C 1440 3866 1952 4262 2694 4262 
C 3398 4262 3667 3994 3667 3565 
C 3667 3507 3661 3462 3642 3334 
L 4205 3334 
C 4243 3514 4256 3597 4256 3693 
C 4256 4339 3712 4781 2810 4781 
C 2150 4781 1632 4595 1286 4237 
C 1024 3968 826 3514 826 3187 
C 826 2784 1107 2445 1536 2323 
L 2630 2010 
C 3142 1862 3354 1670 3354 1370 
C 3354 838 2771 403 1901 403 
C 1178 403 845 672 845 1254 
C 845 1338 851 1395 870 1517 
L 314 1517 
C 269 1350 256 1248 256 1114 
C 256 346 832 -115 1798 -115 
C 2470 -115 3034 70 3411 422 
C 3738 723 3968 1190 3968 1549 
z
" transform="scale(0.015625)"/>
      <path id="TeXGyreHeros-Italic-73" d="M 2848 1158 
C 2848 1549 2637 1754 2074 1894 
L 1587 2016 
C 1229 2106 1043 2234 1043 2400 
C 1043 2726 1363 2957 1850 2957 
C 2227 2957 2438 2810 2438 2560 
C 2438 2515 2438 2470 2432 2419 
L 2970 2419 
C 3002 2554 3008 2611 3008 2694 
C 3008 3142 2579 3450 1958 3450 
C 1069 3450 480 2938 480 2259 
C 480 1869 704 1677 1363 1510 
L 1837 1389 
C 2240 1286 2285 1146 2285 1011 
C 2285 646 1862 397 1370 397 
C 928 397 678 570 678 890 
C 678 928 685 986 691 1050 
L 122 1050 
C 90 902 83 826 83 723 
C 83 211 531 -96 1274 -96 
C 2227 -96 2848 397 2848 1158 
z
" transform="scale(0.015625)"/>
      <path id="TeXGyreHeros-Italic-6d" d="M 4589 0 
L 5094 2387 
C 5114 2458 5133 2669 5133 2739 
C 5133 3072 4883 3450 4320 3450 
C 3904 3450 3539 3283 3162 2918 
C 3059 3277 2810 3450 2387 3450 
C 1952 3450 1658 3322 1248 2938 
L 1331 3354 
L 845 3354 
L 134 0 
L 672 0 
L 1120 2106 
C 1222 2592 1658 2989 2086 2989 
C 2400 2989 2611 2810 2611 2547 
C 2611 2477 2605 2394 2586 2310 
L 2093 0 
L 2630 0 
L 3078 2106 
C 3181 2605 3616 2989 4083 2989 
C 4384 2989 4570 2803 4570 2496 
C 4570 2400 4570 2400 4512 2182 
L 4051 0 
L 4589 0 
z
" transform="scale(0.015625)"/>
      <path id="TeXGyreHeros-Italic-75" d="M 2771 0 
L 3482 3354 
L 2944 3354 
L 2554 1504 
C 2406 813 1952 365 1408 365 
C 1062 365 838 557 838 858 
C 838 909 845 966 858 1030 
L 1350 3354 
L 813 3354 
L 275 819 
C 262 755 256 685 256 602 
C 256 166 589 -96 1139 -96 
C 1638 -96 2003 58 2368 390 
L 2285 0 
L 2771 0 
z
" transform="scale(0.015625)"/>
      <path id="TeXGyreHeros-Italic-6c" d="M 1645 4666 
L 1107 4666 
L 115 0 
L 653 0 
L 1645 4666 
z
" transform="scale(0.015625)"/>
      <path id="TeXGyreHeros-Italic-6e" d="M 3328 2406 
C 3347 2490 3354 2566 3354 2650 
C 3354 3136 3014 3450 2483 3450 
C 1997 3450 1574 3277 1242 2938 
L 1325 3354 
L 838 3354 
L 128 0 
L 666 0 
L 1056 1850 
C 1203 2554 1658 2989 2234 2989 
C 2554 2989 2790 2765 2790 2470 
C 2790 2432 2771 2336 2752 2234 
L 2278 0 
L 2816 0 
L 3328 2406 
z
" transform="scale(0.015625)"/>
      <path id="TeXGyreHeros-Italic-29" d="M 1760 2605 
C 1760 3328 1568 4134 1267 4666 
L 915 4666 
C 1158 4045 1267 3443 1267 2758 
C 1267 1376 698 -64 -365 -1363 
L -13 -1363 
C 1094 -205 1760 1274 1760 2605 
z
" transform="scale(0.015625)"/>
     </defs>
     <use xlink:href="#TeXGyreHeros-Italic-50"/>
     <use xlink:href="#TeXGyreHeros-Italic-72" x="66.699997"/>
     <use xlink:href="#TeXGyreHeros-Italic-69" x="99.999985"/>
     <use xlink:href="#TeXGyreHeros-Italic-76" x="122.199982"/>
     <use xlink:href="#TeXGyreHeros-Italic-61" x="172.199966"/>
     <use xlink:href="#TeXGyreHeros-Italic-74" x="227.799957"/>
     <use xlink:href="#TeXGyreHeros-Italic-65" x="255.599945"/>
     <use xlink:href="#TeXGyreHeros-Italic-20" x="311.199936"/>
     <use xlink:href="#TeXGyreHeros-Italic-77" x="338.999924"/>
     <use xlink:href="#TeXGyreHeros-Italic-6f" x="411.199905"/>
     <use xlink:href="#TeXGyreHeros-Italic-72" x="466.799896"/>
     <use xlink:href="#TeXGyreHeros-Italic-6b" x="500.099884"/>
     <use xlink:href="#TeXGyreHeros-Italic-20" x="550.099869"/>
     <use xlink:href="#TeXGyreHeros-Italic-28" x="577.899857"/>
     <use xlink:href="#TeXGyreHeros-Italic-43" x="611.199844"/>
     <use xlink:href="#TeXGyreHeros-Italic-4d" x="683.399826"/>
     <use xlink:href="#TeXGyreHeros-Italic-53" x="766.699814"/>
     <use xlink:href="#TeXGyreHeros-Italic-20" x="833.399811"/>
     <use xlink:href="#TeXGyreHeros-Italic-73" x="861.199799"/>
     <use xlink:href="#TeXGyreHeros-Italic-69" x="911.199783"/>
     <use xlink:href="#TeXGyreHeros-Italic-6d" x="933.39978"/>
     <use xlink:href="#TeXGyreHeros-Italic-75" x="1016.699768"/>
     <use xlink:href="#TeXGyreHeros-Italic-6c" x="1072.299759"/>
     <use xlink:href="#TeXGyreHeros-Italic-61" x="1094.499756"/>
     <use xlink:href="#TeXGyreHeros-Italic-74" x="1150.099747"/>
     <use xlink:href="#TeXGyreHeros-Italic-69" x="1177.899734"/>
     <use xlink:href="#TeXGyreHeros-Italic-6f" x="1200.099731"/>
     <use xlink:href="#TeXGyreHeros-Italic-6e" x="1255.699722"/>
     <use xlink:href="#TeXGyreHeros-Italic-29" x="1311.299713"/>
    </g>
   </g>
   <g id="legend_1">
    <g id="patch_7">
     <path d="M 191.336538 63.99625 
L 336.661538 63.99625 
Q 338.661538 63.99625 338.661538 61.99625 
L 338.661538 33.64 
Q 338.661538 31.64 336.661538 31.64 
L 191.336538 31.64 
Q 189.336538 31.64 189.336538 33.64 
L 189.336538 61.99625 
Q 189.336538 63.99625 191.336538 63.99625 
z
" style="fill: #ffffff; opacity: 0.8; stroke: #cccccc; stroke-linejoin: miter"/>
    </g>
    <g id="line2d_29">
     <path d="M 193.336538 39.738437 
L 193.336538 39.738437 
L 203.336538 39.738437 
L 203.336538 39.738437 
L 213.336538 39.738437 
" style="fill: none; stroke: #1f77b4; stroke-width: 1.5; stroke-linecap: square"/>
    </g>
    <g id="text_18">
     <!-- Network -->
     <g transform="translate(221.336538 43.238437) scale(0.1 -0.1)">
      <defs>
       <path id="DejaVuSans-4e" d="M 628 4666 
L 1478 4666 
L 3547 763 
L 3547 4666 
L 4159 4666 
L 4159 0 
L 3309 0 
L 1241 3903 
L 1241 0 
L 628 0 
L 628 4666 
z
" transform="scale(0.015625)"/>
       <path id="DejaVuSans-74" d="M 1172 4494 
L 1172 3500 
L 2356 3500 
L 2356 3053 
L 1172 3053 
L 1172 1153 
Q 1172 725 1289 603 
Q 1406 481 1766 481 
L 2356 481 
L 2356 0 
L 1766 0 
Q 1100 0 847 248 
Q 594 497 594 1153 
L 594 3053 
L 172 3053 
L 172 3500 
L 594 3500 
L 594 4494 
L 1172 4494 
z
" transform="scale(0.015625)"/>
       <path id="DejaVuSans-77" d="M 269 3500 
L 844 3500 
L 1563 769 
L 2278 3500 
L 2956 3500 
L 3675 769 
L 4391 3500 
L 4966 3500 
L 4050 0 
L 3372 0 
L 2619 2869 
L 1863 0 
L 1184 0 
L 269 3500 
z
" transform="scale(0.015625)"/>
      </defs>
      <use xlink:href="#DejaVuSans-4e"/>
      <use xlink:href="#DejaVuSans-65" x="74.804688"/>
      <use xlink:href="#DejaVuSans-74" x="136.328125"/>
      <use xlink:href="#DejaVuSans-77" x="175.537109"/>
      <use xlink:href="#DejaVuSans-6f" x="257.324219"/>
      <use xlink:href="#DejaVuSans-72" x="318.505859"/>
      <use xlink:href="#DejaVuSans-6b" x="359.619141"/>
     </g>
    </g>
    <g id="line2d_30">
     <path d="M 193.336538 54.416562 
L 193.336538 54.416562 
L 203.336538 54.416562 
L 203.336538 54.416562 
L 213.336538 54.416562 
" style="fill: none; stroke: #ff7f0e; stroke-width: 1.5; stroke-linecap: square"/>
    </g>
    <g id="text_19">
     <!-- Analytic Sonnenschein -->
     <g transform="translate(221.336538 57.916562) scale(0.1 -0.1)">
      <defs>
       <path id="DejaVuSans-41" d="M 2188 4044 
L 1331 1722 
L 3047 1722 
L 2188 4044 
z
M 1831 4666 
L 2547 4666 
L 4325 0 
L 3669 0 
L 3244 1197 
L 1141 1197 
L 716 0 
L 50 0 
L 1831 4666 
z
" transform="scale(0.015625)"/>
       <path id="DejaVuSans-6c" d="M 603 4863 
L 1178 4863 
L 1178 0 
L 603 0 
L 603 4863 
z
" transform="scale(0.015625)"/>
       <path id="DejaVuSans-69" d="M 603 3500 
L 1178 3500 
L 1178 0 
L 603 0 
L 603 3500 
z
M 603 4863 
L 1178 4863 
L 1178 4134 
L 603 4134 
L 603 4863 
z
" transform="scale(0.015625)"/>
       <path id="DejaVuSans-63" d="M 3122 3366 
L 3122 2828 
Q 2878 2963 2633 3030 
Q 2388 3097 2138 3097 
Q 1578 3097 1268 2742 
Q 959 2388 959 1747 
Q 959 1106 1268 751 
Q 1578 397 2138 397 
Q 2388 397 2633 464 
Q 2878 531 3122 666 
L 3122 134 
Q 2881 22 2623 -34 
Q 2366 -91 2075 -91 
Q 1284 -91 818 406 
Q 353 903 353 1747 
Q 353 2603 823 3093 
Q 1294 3584 2113 3584 
Q 2378 3584 2631 3529 
Q 2884 3475 3122 3366 
z
" transform="scale(0.015625)"/>
       <path id="DejaVuSans-53" d="M 3425 4513 
L 3425 3897 
Q 3066 4069 2747 4153 
Q 2428 4238 2131 4238 
Q 1616 4238 1336 4038 
Q 1056 3838 1056 3469 
Q 1056 3159 1242 3001 
Q 1428 2844 1947 2747 
L 2328 2669 
Q 3034 2534 3370 2195 
Q 3706 1856 3706 1288 
Q 3706 609 3251 259 
Q 2797 -91 1919 -91 
Q 1588 -91 1214 -16 
Q 841 59 441 206 
L 441 856 
Q 825 641 1194 531 
Q 1563 422 1919 422 
Q 2459 422 2753 634 
Q 3047 847 3047 1241 
Q 3047 1584 2836 1778 
Q 2625 1972 2144 2069 
L 1759 2144 
Q 1053 2284 737 2584 
Q 422 2884 422 3419 
Q 422 4038 858 4394 
Q 1294 4750 2059 4750 
Q 2388 4750 2728 4690 
Q 3069 4631 3425 4513 
z
" transform="scale(0.015625)"/>
       <path id="DejaVuSans-68" d="M 3513 2113 
L 3513 0 
L 2938 0 
L 2938 2094 
Q 2938 2591 2744 2837 
Q 2550 3084 2163 3084 
Q 1697 3084 1428 2787 
Q 1159 2491 1159 1978 
L 1159 0 
L 581 0 
L 581 4863 
L 1159 4863 
L 1159 2956 
Q 1366 3272 1645 3428 
Q 1925 3584 2291 3584 
Q 2894 3584 3203 3211 
Q 3513 2838 3513 2113 
z
" transform="scale(0.015625)"/>
      </defs>
      <use xlink:href="#DejaVuSans-41"/>
      <use xlink:href="#DejaVuSans-6e" x="68.408203"/>
      <use xlink:href="#DejaVuSans-61" x="131.787109"/>
      <use xlink:href="#DejaVuSans-6c" x="193.066406"/>
      <use xlink:href="#DejaVuSans-79" x="220.849609"/>
      <use xlink:href="#DejaVuSans-74" x="280.029297"/>
      <use xlink:href="#DejaVuSans-69" x="319.238281"/>
      <use xlink:href="#DejaVuSans-63" x="347.021484"/>
      <use xlink:href="#DejaVuSans-20" x="402.001953"/>
      <use xlink:href="#DejaVuSans-53" x="433.789062"/>
      <use xlink:href="#DejaVuSans-6f" x="497.265625"/>
      <use xlink:href="#DejaVuSans-6e" x="558.447266"/>
      <use xlink:href="#DejaVuSans-6e" x="621.826172"/>
      <use xlink:href="#DejaVuSans-65" x="685.205078"/>
      <use xlink:href="#DejaVuSans-6e" x="746.728516"/>
      <use xlink:href="#DejaVuSans-73" x="810.107422"/>
      <use xlink:href="#DejaVuSans-63" x="862.207031"/>
      <use xlink:href="#DejaVuSans-68" x="917.1875"/>
      <use xlink:href="#DejaVuSans-65" x="980.566406"/>
      <use xlink:href="#DejaVuSans-69" x="1042.089844"/>
      <use xlink:href="#DejaVuSans-6e" x="1069.873047"/>
     </g>
    </g>
   </g>
  </g>
 </g>
 <defs>
  <clipPath id="p55666135fa">
   <rect x="51.05" y="26.64" width="292.611538" height="197.246154"/>
  </clipPath>
 </defs>
</svg>
