<?xml version="1.0" encoding="utf-8" standalone="no"?>
<!DOCTYPE svg PUBLIC "-//W3C//DTD SVG 1.1//EN"
  "http://www.w3.org/Graphics/SVG/1.1/DTD/svg11.dtd">
<svg xmlns:xlink="http://www.w3.org/1999/xlink" width="354.461538pt" height="265.846154pt" viewBox="0 0 354.461538 265.846154" xmlns="http://www.w3.org/2000/svg" version="1.1">
 <metadata>
  <rdf:RDF xmlns:dc="http://purl.org/dc/elements/1.1/" xmlns:cc="http://creativecommons.org/ns#" xmlns:rdf="http://www.w3.org/1999/02/22-rdf-syntax-ns#">
   <cc:Work>
    <dc:type rdf:resource="http://purl.org/dc/dcmitype/StillImage"/>
    <dc:date>2024-08-09T17:21:57.657585</dc:date>
    <dc:format>image/svg+xml</dc:format>
    <dc:creator>
     <cc:Agent>
      <dc:title>Matplotlib v3.7.1, https://matplotlib.org/</dc:title>
     </cc:Agent>
    </dc:creator>
   </cc:Work>
  </rdf:RDF>
 </metadata>
 <defs>
  <style type="text/css">*{stroke-linejoin: round; stroke-linecap: butt}</style>
 </defs>
 <g id="figure_1">
  <g id="patch_1">
   <path d="M 0 265.846154 
L 354.461538 265.846154 
L 354.461538 0 
L 0 0 
z
" style="fill: #ffffff"/>
  </g>
  <g id="axes_1">
   <g id="patch_2">
    <path d="M 56.18 223.886154 
L 332.501538 223.886154 
L 332.501538 26.64 
L 56.18 26.64 
z
" style="fill: #ffffff"/>
   </g>
   <g id="PolyCollection_1">
    <defs>
     <path id="m664a812e8f" d="M 56.18 -224.41534 
L 56.18 -106.206919 
L 56.18 -106.206919 
L 61.819215 -106.206919 
L 61.819215 -109.474175 
L 67.45843 -109.474175 
L 67.45843 -111.580064 
L 73.097645 -111.580064 
L 73.097645 -111.379605 
L 78.73686 -111.379605 
L 78.73686 -112.031999 
L 84.376075 -112.031999 
L 84.376075 -110.597502 
L 90.01529 -110.597502 
L 90.01529 -111.009373 
L 95.654505 -111.009373 
L 95.654505 -110.077296 
L 101.293721 -110.077296 
L 101.293721 -109.483061 
L 106.932936 -109.483061 
L 106.932936 -107.590275 
L 112.572151 -107.590275 
L 112.572151 -107.435432 
L 118.211366 -107.435432 
L 118.211366 -105.543249 
L 123.850581 -105.543249 
L 123.850581 -104.669585 
L 129.489796 -104.669585 
L 129.489796 -104.014438 
L 135.129011 -104.014438 
L 135.129011 -103.230496 
L 140.768226 -103.230496 
L 140.768226 -100.725587 
L 146.407441 -100.725587 
L 146.407441 -101.326852 
L 152.046656 -101.326852 
L 152.046656 -98.421017 
L 157.685871 -98.421017 
L 157.685871 -98.522863 
L 163.325086 -98.522863 
L 163.325086 -95.886896 
L 168.964301 -95.886896 
L 168.964301 -95.869226 
L 174.603516 -95.869226 
L 174.603516 -93.647872 
L 180.242732 -93.647872 
L 180.242732 -93.153474 
L 185.881947 -93.153474 
L 185.881947 -91.865584 
L 191.521162 -91.865584 
L 191.521162 -88.066459 
L 197.160377 -88.066459 
L 197.160377 -89.683163 
L 202.799592 -89.683163 
L 202.799592 -87.748671 
L 208.438807 -87.748671 
L 208.438807 -87.029498 
L 214.078022 -87.029498 
L 214.078022 -83.8795 
L 219.717237 -83.8795 
L 219.717237 -85.20245 
L 225.356452 -85.20245 
L 225.356452 -83.451547 
L 230.995667 -83.451547 
L 230.995667 -82.961914 
L 236.634882 -82.961914 
L 236.634882 -80.448757 
L 242.274097 -80.448757 
L 242.274097 -79.856177 
L 247.913312 -79.856177 
L 247.913312 -78.86209 
L 253.552527 -78.86209 
L 253.552527 -76.590327 
L 259.191743 -76.590327 
L 259.191743 -75.661199 
L 264.830958 -75.661199 
L 264.830958 -74.578515 
L 270.470173 -74.578515 
L 270.470173 -72.234157 
L 276.109388 -72.234157 
L 276.109388 -71.70593 
L 281.748603 -71.70593 
L 281.748603 -71.698675 
L 287.387818 -71.698675 
L 287.387818 -69.511448 
L 293.027033 -69.511448 
L 293.027033 -66.660277 
L 298.666248 -66.660277 
L 298.666248 -66.564252 
L 304.305463 -66.564252 
L 304.305463 -64.410366 
L 309.944678 -64.410366 
L 309.944678 -62.566892 
L 315.583893 -62.566892 
L 315.583893 -58.512463 
L 321.223108 -58.512463 
L 321.223108 -56.131341 
L 326.862323 -56.131341 
L 326.862323 -50.925734 
L 332.501538 -50.925734 
L 332.501538 -169.134155 
L 332.501538 -169.134155 
L 326.862323 -169.134155 
L 326.862323 -174.339761 
L 321.223108 -174.339761 
L 321.223108 -176.720883 
L 315.583893 -176.720883 
L 315.583893 -180.775313 
L 309.944678 -180.775313 
L 309.944678 -182.618786 
L 304.305463 -182.618786 
L 304.305463 -184.772673 
L 298.666248 -184.772673 
L 298.666248 -184.868698 
L 293.027033 -184.868698 
L 293.027033 -187.719868 
L 287.387818 -187.719868 
L 287.387818 -189.907096 
L 281.748603 -189.907096 
L 281.748603 -189.91435 
L 276.109388 -189.91435 
L 276.109388 -190.442577 
L 270.470173 -190.442577 
L 270.470173 -192.786936 
L 264.830958 -192.786936 
L 264.830958 -193.86962 
L 259.191743 -193.86962 
L 259.191743 -194.798747 
L 253.552527 -194.798747 
L 253.552527 -197.070511 
L 247.913312 -197.070511 
L 247.913312 -198.064597 
L 242.274097 -198.064597 
L 242.274097 -198.657177 
L 236.634882 -198.657177 
L 236.634882 -201.170334 
L 230.995667 -201.170334 
L 230.995667 -201.659967 
L 225.356452 -201.659967 
L 225.356452 -203.41087 
L 219.717237 -203.41087 
L 219.717237 -202.08792 
L 214.078022 -202.08792 
L 214.078022 -205.237918 
L 208.438807 -205.237918 
L 208.438807 -205.957092 
L 202.799592 -205.957092 
L 202.799592 -207.891583 
L 197.160377 -207.891583 
L 197.160377 -206.274879 
L 191.521162 -206.274879 
L 191.521162 -210.074004 
L 185.881947 -210.074004 
L 185.881947 -211.361894 
L 180.242732 -211.361894 
L 180.242732 -211.856292 
L 174.603516 -211.856292 
L 174.603516 -214.077646 
L 168.964301 -214.077646 
L 168.964301 -214.095316 
L 163.325086 -214.095316 
L 163.325086 -216.731284 
L 157.685871 -216.731284 
L 157.685871 -216.629437 
L 152.046656 -216.629437 
L 152.046656 -219.535273 
L 146.407441 -219.535273 
L 146.407441 -218.934007 
L 140.768226 -218.934007 
L 140.768226 -221.438916 
L 135.129011 -221.438916 
L 135.129011 -222.222858 
L 129.489796 -222.222858 
L 129.489796 -222.878005 
L 123.850581 -222.878005 
L 123.850581 -223.751669 
L 118.211366 -223.751669 
L 118.211366 -225.643852 
L 112.572151 -225.643852 
L 112.572151 -225.798696 
L 106.932936 -225.798696 
L 106.932936 -227.691481 
L 101.293721 -227.691481 
L 101.293721 -228.285716 
L 95.654505 -228.285716 
L 95.654505 -229.217794 
L 90.01529 -229.217794 
L 90.01529 -228.805923 
L 84.376075 -228.805923 
L 84.376075 -230.24042 
L 78.73686 -230.24042 
L 78.73686 -229.588025 
L 73.097645 -229.588025 
L 73.097645 -229.788484 
L 67.45843 -229.788484 
L 67.45843 -227.682595 
L 61.819215 -227.682595 
L 61.819215 -224.41534 
L 56.18 -224.41534 
L 56.18 -224.41534 
z
" style="stroke: #1f77b4; stroke-opacity: 0.5"/>
    </defs>
    <g clip-path="url(#paaf60fd028)">
     <use xlink:href="#m664a812e8f" x="0" y="265.846154" style="fill: #1f77b4; fill-opacity: 0.5; stroke: #1f77b4; stroke-opacity: 0.5"/>
    </g>
   </g>
   <g id="PolyCollection_2">
    <defs>
     <path id="m5f9a65705d" d="M 56.18 -215.439306 
L 56.18 -112.353872 
L 56.18 -112.353872 
L 61.819215 -112.353872 
L 61.819215 -114.206956 
L 67.45843 -114.206956 
L 67.45843 -115.334178 
L 73.097645 -115.334178 
L 73.097645 -115.013529 
L 78.73686 -115.013529 
L 78.73686 -114.513643 
L 84.376075 -114.513643 
L 84.376075 -112.763016 
L 90.01529 -112.763016 
L 90.01529 -112.468059 
L 95.654505 -112.468059 
L 95.654505 -111.055598 
L 101.293721 -111.055598 
L 101.293721 -110.641949 
L 106.932936 -110.641949 
L 106.932936 -108.037522 
L 112.572151 -108.037522 
L 112.572151 -106.557148 
L 118.211366 -106.557148 
L 118.211366 -104.33705 
L 123.850581 -104.33705 
L 123.850581 -105.698702 
L 129.489796 -105.698702 
L 129.489796 -103.209357 
L 135.129011 -103.209357 
L 135.129011 -102.429943 
L 140.768226 -102.429943 
L 140.768226 -99.861648 
L 146.407441 -99.861648 
L 146.407441 -96.664034 
L 152.046656 -96.664034 
L 152.046656 -94.486374 
L 157.685871 -94.486374 
L 157.685871 -95.210492 
L 163.325086 -95.210492 
L 163.325086 -91.974738 
L 168.964301 -91.974738 
L 168.964301 -91.666216 
L 174.603516 -91.666216 
L 174.603516 -89.186329 
L 180.242732 -89.186329 
L 180.242732 -87.554229 
L 185.881947 -87.554229 
L 185.881947 -86.014115 
L 191.521162 -86.014115 
L 191.521162 -84.988548 
L 197.160377 -84.988548 
L 197.160377 -84.671566 
L 202.799592 -84.671566 
L 202.799592 -83.564249 
L 208.438807 -83.564249 
L 208.438807 -81.542237 
L 214.078022 -81.542237 
L 214.078022 -81.292281 
L 219.717237 -81.292281 
L 219.717237 -78.353777 
L 225.356452 -78.353777 
L 225.356452 -77.431443 
L 230.995667 -77.431443 
L 230.995667 -75.102436 
L 236.634882 -75.102436 
L 236.634882 -71.783755 
L 242.274097 -71.783755 
L 242.274097 -73.632417 
L 247.913312 -73.632417 
L 247.913312 -73.241372 
L 253.552527 -73.241372 
L 253.552527 -70.569348 
L 259.191743 -70.569348 
L 259.191743 -69.414064 
L 264.830958 -69.414064 
L 264.830958 -68.426517 
L 270.470173 -68.426517 
L 270.470173 -68.274709 
L 276.109388 -68.274709 
L 276.109388 -66.993182 
L 281.748603 -66.993182 
L 281.748603 -66.941 
L 287.387818 -66.941 
L 287.387818 -64.536243 
L 293.027033 -64.536243 
L 293.027033 -63.819647 
L 298.666248 -63.819647 
L 298.666248 -64.587383 
L 304.305463 -64.587383 
L 304.305463 -62.617436 
L 309.944678 -62.617436 
L 309.944678 -61.58542 
L 315.583893 -61.58542 
L 315.583893 -60.209956 
L 321.223108 -60.209956 
L 321.223108 -58.820704 
L 326.862323 -58.820704 
L 326.862323 -56.591686 
L 332.501538 -56.591686 
L 332.501538 -159.67712 
L 332.501538 -159.67712 
L 326.862323 -159.67712 
L 326.862323 -161.906137 
L 321.223108 -161.906137 
L 321.223108 -163.295389 
L 315.583893 -163.295389 
L 315.583893 -164.670853 
L 309.944678 -164.670853 
L 309.944678 -165.702869 
L 304.305463 -165.702869 
L 304.305463 -167.672816 
L 298.666248 -167.672816 
L 298.666248 -166.905081 
L 293.027033 -166.905081 
L 293.027033 -167.621676 
L 287.387818 -167.621676 
L 287.387818 -170.026434 
L 281.748603 -170.026434 
L 281.748603 -170.078616 
L 276.109388 -170.078616 
L 276.109388 -171.360142 
L 270.470173 -171.360142 
L 270.470173 -171.51195 
L 264.830958 -171.51195 
L 264.830958 -172.499498 
L 259.191743 -172.499498 
L 259.191743 -173.654781 
L 253.552527 -173.654781 
L 253.552527 -176.326805 
L 247.913312 -176.326805 
L 247.913312 -176.71785 
L 242.274097 -176.71785 
L 242.274097 -174.869188 
L 236.634882 -174.869188 
L 236.634882 -178.18787 
L 230.995667 -178.18787 
L 230.995667 -180.516876 
L 225.356452 -180.516876 
L 225.356452 -181.43921 
L 219.717237 -181.43921 
L 219.717237 -184.377714 
L 214.078022 -184.377714 
L 214.078022 -184.62767 
L 208.438807 -184.62767 
L 208.438807 -186.649683 
L 202.799592 -186.649683 
L 202.799592 -187.756999 
L 197.160377 -187.756999 
L 197.160377 -188.073981 
L 191.521162 -188.073981 
L 191.521162 -189.099548 
L 185.881947 -189.099548 
L 185.881947 -190.639663 
L 180.242732 -190.639663 
L 180.242732 -192.271762 
L 174.603516 -192.271762 
L 174.603516 -194.751649 
L 168.964301 -194.751649 
L 168.964301 -195.060172 
L 163.325086 -195.060172 
L 163.325086 -198.295925 
L 157.685871 -198.295925 
L 157.685871 -197.571807 
L 152.046656 -197.571807 
L 152.046656 -199.749467 
L 146.407441 -199.749467 
L 146.407441 -202.947081 
L 140.768226 -202.947081 
L 140.768226 -205.515376 
L 135.129011 -205.515376 
L 135.129011 -206.294791 
L 129.489796 -206.294791 
L 129.489796 -208.784135 
L 123.850581 -208.784135 
L 123.850581 -207.422484 
L 118.211366 -207.422484 
L 118.211366 -209.642582 
L 112.572151 -209.642582 
L 112.572151 -211.122955 
L 106.932936 -211.122955 
L 106.932936 -213.727383 
L 101.293721 -213.727383 
L 101.293721 -214.141032 
L 95.654505 -214.141032 
L 95.654505 -215.553493 
L 90.01529 -215.553493 
L 90.01529 -215.848449 
L 84.376075 -215.848449 
L 84.376075 -217.599076 
L 78.73686 -217.599076 
L 78.73686 -218.098962 
L 73.097645 -218.098962 
L 73.097645 -218.419612 
L 67.45843 -218.419612 
L 67.45843 -217.292389 
L 61.819215 -217.292389 
L 61.819215 -215.439306 
L 56.18 -215.439306 
L 56.18 -215.439306 
z
" style="stroke: #ff7f0e; stroke-opacity: 0.5"/>
    </defs>
    <g clip-path="url(#paaf60fd028)">
     <use xlink:href="#m5f9a65705d" x="0" y="265.846154" style="fill: #ff7f0e; fill-opacity: 0.5; stroke: #ff7f0e; stroke-opacity: 0.5"/>
    </g>
   </g>
   <g id="matplotlib.axis_1">
    <g id="xtick_1">
     <g id="line2d_1">
      <path d="M 56.18 223.886154 
L 56.18 26.64 
" clip-path="url(#paaf60fd028)" style="fill: none; stroke: #b0b0b0; stroke-width: 0.8; stroke-linecap: square"/>
     </g>
     <g id="line2d_2">
      <defs>
       <path id="m39019b1b2e" d="M 0 0 
L 0 3.5 
" style="stroke: #000000; stroke-width: 0.8"/>
      </defs>
      <g>
       <use xlink:href="#m39019b1b2e" x="56.18" y="223.886154" style="stroke: #000000; stroke-width: 0.8"/>
      </g>
     </g>
     <g id="text_1">
      <!-- −1.00 -->
      <g transform="translate(40.857344 238.484591) scale(0.1 -0.1)">
       <defs>
        <path id="DejaVuSans-2212" d="M 678 2272 
L 4684 2272 
L 4684 1741 
L 678 1741 
L 678 2272 
z
" transform="scale(0.015625)"/>
        <path id="DejaVuSans-31" d="M 794 531 
L 1825 531 
L 1825 4091 
L 703 3866 
L 703 4441 
L 1819 4666 
L 2450 4666 
L 2450 531 
L 3481 531 
L 3481 0 
L 794 0 
L 794 531 
z
" transform="scale(0.015625)"/>
        <path id="DejaVuSans-2e" d="M 684 794 
L 1344 794 
L 1344 0 
L 684 0 
L 684 794 
z
" transform="scale(0.015625)"/>
        <path id="DejaVuSans-30" d="M 2034 4250 
Q 1547 4250 1301 3770 
Q 1056 3291 1056 2328 
Q 1056 1369 1301 889 
Q 1547 409 2034 409 
Q 2525 409 2770 889 
Q 3016 1369 3016 2328 
Q 3016 3291 2770 3770 
Q 2525 4250 2034 4250 
z
M 2034 4750 
Q 2819 4750 3233 4129 
Q 3647 3509 3647 2328 
Q 3647 1150 3233 529 
Q 2819 -91 2034 -91 
Q 1250 -91 836 529 
Q 422 1150 422 2328 
Q 422 3509 836 4129 
Q 1250 4750 2034 4750 
z
" transform="scale(0.015625)"/>
       </defs>
       <use xlink:href="#DejaVuSans-2212"/>
       <use xlink:href="#DejaVuSans-31" x="83.789062"/>
       <use xlink:href="#DejaVuSans-2e" x="147.412109"/>
       <use xlink:href="#DejaVuSans-30" x="179.199219"/>
       <use xlink:href="#DejaVuSans-30" x="242.822266"/>
      </g>
     </g>
    </g>
    <g id="xtick_2">
     <g id="line2d_3">
      <path d="M 90.720192 223.886154 
L 90.720192 26.64 
" clip-path="url(#paaf60fd028)" style="fill: none; stroke: #b0b0b0; stroke-width: 0.8; stroke-linecap: square"/>
     </g>
     <g id="line2d_4">
      <g>
       <use xlink:href="#m39019b1b2e" x="90.720192" y="223.886154" style="stroke: #000000; stroke-width: 0.8"/>
      </g>
     </g>
     <g id="text_2">
      <!-- −0.75 -->
      <g transform="translate(75.397536 238.484591) scale(0.1 -0.1)">
       <defs>
        <path id="DejaVuSans-37" d="M 525 4666 
L 3525 4666 
L 3525 4397 
L 1831 0 
L 1172 0 
L 2766 4134 
L 525 4134 
L 525 4666 
z
" transform="scale(0.015625)"/>
        <path id="DejaVuSans-35" d="M 691 4666 
L 3169 4666 
L 3169 4134 
L 1269 4134 
L 1269 2991 
Q 1406 3038 1543 3061 
Q 1681 3084 1819 3084 
Q 2600 3084 3056 2656 
Q 3513 2228 3513 1497 
Q 3513 744 3044 326 
Q 2575 -91 1722 -91 
Q 1428 -91 1123 -41 
Q 819 9 494 109 
L 494 744 
Q 775 591 1075 516 
Q 1375 441 1709 441 
Q 2250 441 2565 725 
Q 2881 1009 2881 1497 
Q 2881 1984 2565 2268 
Q 2250 2553 1709 2553 
Q 1456 2553 1204 2497 
Q 953 2441 691 2322 
L 691 4666 
z
" transform="scale(0.015625)"/>
       </defs>
       <use xlink:href="#DejaVuSans-2212"/>
       <use xlink:href="#DejaVuSans-30" x="83.789062"/>
       <use xlink:href="#DejaVuSans-2e" x="147.412109"/>
       <use xlink:href="#DejaVuSans-37" x="179.199219"/>
       <use xlink:href="#DejaVuSans-35" x="242.822266"/>
      </g>
     </g>
    </g>
    <g id="xtick_3">
     <g id="line2d_5">
      <path d="M 125.260385 223.886154 
L 125.260385 26.64 
" clip-path="url(#paaf60fd028)" style="fill: none; stroke: #b0b0b0; stroke-width: 0.8; stroke-linecap: square"/>
     </g>
     <g id="line2d_6">
      <g>
       <use xlink:href="#m39019b1b2e" x="125.260385" y="223.886154" style="stroke: #000000; stroke-width: 0.8"/>
      </g>
     </g>
     <g id="text_3">
      <!-- −0.50 -->
      <g transform="translate(109.937728 238.484591) scale(0.1 -0.1)">
       <use xlink:href="#DejaVuSans-2212"/>
       <use xlink:href="#DejaVuSans-30" x="83.789062"/>
       <use xlink:href="#DejaVuSans-2e" x="147.412109"/>
       <use xlink:href="#DejaVuSans-35" x="179.199219"/>
       <use xlink:href="#DejaVuSans-30" x="242.822266"/>
      </g>
     </g>
    </g>
    <g id="xtick_4">
     <g id="line2d_7">
      <path d="M 159.800577 223.886154 
L 159.800577 26.64 
" clip-path="url(#paaf60fd028)" style="fill: none; stroke: #b0b0b0; stroke-width: 0.8; stroke-linecap: square"/>
     </g>
     <g id="line2d_8">
      <g>
       <use xlink:href="#m39019b1b2e" x="159.800577" y="223.886154" style="stroke: #000000; stroke-width: 0.8"/>
      </g>
     </g>
     <g id="text_4">
      <!-- −0.25 -->
      <g transform="translate(144.477921 238.484591) scale(0.1 -0.1)">
       <defs>
        <path id="DejaVuSans-32" d="M 1228 531 
L 3431 531 
L 3431 0 
L 469 0 
L 469 531 
Q 828 903 1448 1529 
Q 2069 2156 2228 2338 
Q 2531 2678 2651 2914 
Q 2772 3150 2772 3378 
Q 2772 3750 2511 3984 
Q 2250 4219 1831 4219 
Q 1534 4219 1204 4116 
Q 875 4013 500 3803 
L 500 4441 
Q 881 4594 1212 4672 
Q 1544 4750 1819 4750 
Q 2544 4750 2975 4387 
Q 3406 4025 3406 3419 
Q 3406 3131 3298 2873 
Q 3191 2616 2906 2266 
Q 2828 2175 2409 1742 
Q 1991 1309 1228 531 
z
" transform="scale(0.015625)"/>
       </defs>
       <use xlink:href="#DejaVuSans-2212"/>
       <use xlink:href="#DejaVuSans-30" x="83.789062"/>
       <use xlink:href="#DejaVuSans-2e" x="147.412109"/>
       <use xlink:href="#DejaVuSans-32" x="179.199219"/>
       <use xlink:href="#DejaVuSans-35" x="242.822266"/>
      </g>
     </g>
    </g>
    <g id="xtick_5">
     <g id="line2d_9">
      <path d="M 194.340769 223.886154 
L 194.340769 26.64 
" clip-path="url(#paaf60fd028)" style="fill: none; stroke: #b0b0b0; stroke-width: 0.8; stroke-linecap: square"/>
     </g>
     <g id="line2d_10">
      <g>
       <use xlink:href="#m39019b1b2e" x="194.340769" y="223.886154" style="stroke: #000000; stroke-width: 0.8"/>
      </g>
     </g>
     <g id="text_5">
      <!-- 0.00 -->
      <g transform="translate(183.207957 238.484591) scale(0.1 -0.1)">
       <use xlink:href="#DejaVuSans-30"/>
       <use xlink:href="#DejaVuSans-2e" x="63.623047"/>
       <use xlink:href="#DejaVuSans-30" x="95.410156"/>
       <use xlink:href="#DejaVuSans-30" x="159.033203"/>
      </g>
     </g>
    </g>
    <g id="xtick_6">
     <g id="line2d_11">
      <path d="M 228.880962 223.886154 
L 228.880962 26.64 
" clip-path="url(#paaf60fd028)" style="fill: none; stroke: #b0b0b0; stroke-width: 0.8; stroke-linecap: square"/>
     </g>
     <g id="line2d_12">
      <g>
       <use xlink:href="#m39019b1b2e" x="228.880962" y="223.886154" style="stroke: #000000; stroke-width: 0.8"/>
      </g>
     </g>
     <g id="text_6">
      <!-- 0.25 -->
      <g transform="translate(217.748149 238.484591) scale(0.1 -0.1)">
       <use xlink:href="#DejaVuSans-30"/>
       <use xlink:href="#DejaVuSans-2e" x="63.623047"/>
       <use xlink:href="#DejaVuSans-32" x="95.410156"/>
       <use xlink:href="#DejaVuSans-35" x="159.033203"/>
      </g>
     </g>
    </g>
    <g id="xtick_7">
     <g id="line2d_13">
      <path d="M 263.421154 223.886154 
L 263.421154 26.64 
" clip-path="url(#paaf60fd028)" style="fill: none; stroke: #b0b0b0; stroke-width: 0.8; stroke-linecap: square"/>
     </g>
     <g id="line2d_14">
      <g>
       <use xlink:href="#m39019b1b2e" x="263.421154" y="223.886154" style="stroke: #000000; stroke-width: 0.8"/>
      </g>
     </g>
     <g id="text_7">
      <!-- 0.50 -->
      <g transform="translate(252.288341 238.484591) scale(0.1 -0.1)">
       <use xlink:href="#DejaVuSans-30"/>
       <use xlink:href="#DejaVuSans-2e" x="63.623047"/>
       <use xlink:href="#DejaVuSans-35" x="95.410156"/>
       <use xlink:href="#DejaVuSans-30" x="159.033203"/>
      </g>
     </g>
    </g>
    <g id="xtick_8">
     <g id="line2d_15">
      <path d="M 297.961346 223.886154 
L 297.961346 26.64 
" clip-path="url(#paaf60fd028)" style="fill: none; stroke: #b0b0b0; stroke-width: 0.8; stroke-linecap: square"/>
     </g>
     <g id="line2d_16">
      <g>
       <use xlink:href="#m39019b1b2e" x="297.961346" y="223.886154" style="stroke: #000000; stroke-width: 0.8"/>
      </g>
     </g>
     <g id="text_8">
      <!-- 0.75 -->
      <g transform="translate(286.828534 238.484591) scale(0.1 -0.1)">
       <use xlink:href="#DejaVuSans-30"/>
       <use xlink:href="#DejaVuSans-2e" x="63.623047"/>
       <use xlink:href="#DejaVuSans-37" x="95.410156"/>
       <use xlink:href="#DejaVuSans-35" x="159.033203"/>
      </g>
     </g>
    </g>
    <g id="xtick_9">
     <g id="line2d_17">
      <path d="M 332.501538 223.886154 
L 332.501538 26.64 
" clip-path="url(#paaf60fd028)" style="fill: none; stroke: #b0b0b0; stroke-width: 0.8; stroke-linecap: square"/>
     </g>
     <g id="line2d_18">
      <g>
       <use xlink:href="#m39019b1b2e" x="332.501538" y="223.886154" style="stroke: #000000; stroke-width: 0.8"/>
      </g>
     </g>
     <g id="text_9">
      <!-- 1.00 -->
      <g transform="translate(321.368726 238.484591) scale(0.1 -0.1)">
       <use xlink:href="#DejaVuSans-31"/>
       <use xlink:href="#DejaVuSans-2e" x="63.623047"/>
       <use xlink:href="#DejaVuSans-30" x="95.410156"/>
       <use xlink:href="#DejaVuSans-30" x="159.033203"/>
      </g>
     </g>
    </g>
    <g id="text_10">
     <!-- True dalpha -->
     <g transform="translate(165.100144 252.162716) scale(0.1 -0.1)">
      <defs>
       <path id="DejaVuSans-54" d="M -19 4666 
L 3928 4666 
L 3928 4134 
L 2272 4134 
L 2272 0 
L 1638 0 
L 1638 4134 
L -19 4134 
L -19 4666 
z
" transform="scale(0.015625)"/>
       <path id="DejaVuSans-72" d="M 2631 2963 
Q 2534 3019 2420 3045 
Q 2306 3072 2169 3072 
Q 1681 3072 1420 2755 
Q 1159 2438 1159 1844 
L 1159 0 
L 581 0 
L 581 3500 
L 1159 3500 
L 1159 2956 
Q 1341 3275 1631 3429 
Q 1922 3584 2338 3584 
Q 2397 3584 2469 3576 
Q 2541 3569 2628 3553 
L 2631 2963 
z
" transform="scale(0.015625)"/>
       <path id="DejaVuSans-75" d="M 544 1381 
L 544 3500 
L 1119 3500 
L 1119 1403 
Q 1119 906 1312 657 
Q 1506 409 1894 409 
Q 2359 409 2629 706 
Q 2900 1003 2900 1516 
L 2900 3500 
L 3475 3500 
L 3475 0 
L 2900 0 
L 2900 538 
Q 2691 219 2414 64 
Q 2138 -91 1772 -91 
Q 1169 -91 856 284 
Q 544 659 544 1381 
z
M 1991 3584 
L 1991 3584 
z
" transform="scale(0.015625)"/>
       <path id="DejaVuSans-65" d="M 3597 1894 
L 3597 1613 
L 953 1613 
Q 991 1019 1311 708 
Q 1631 397 2203 397 
Q 2534 397 2845 478 
Q 3156 559 3463 722 
L 3463 178 
Q 3153 47 2828 -22 
Q 2503 -91 2169 -91 
Q 1331 -91 842 396 
Q 353 884 353 1716 
Q 353 2575 817 3079 
Q 1281 3584 2069 3584 
Q 2775 3584 3186 3129 
Q 3597 2675 3597 1894 
z
M 3022 2063 
Q 3016 2534 2758 2815 
Q 2500 3097 2075 3097 
Q 1594 3097 1305 2825 
Q 1016 2553 972 2059 
L 3022 2063 
z
" transform="scale(0.015625)"/>
       <path id="DejaVuSans-20" transform="scale(0.015625)"/>
       <path id="DejaVuSans-64" d="M 2906 2969 
L 2906 4863 
L 3481 4863 
L 3481 0 
L 2906 0 
L 2906 525 
Q 2725 213 2448 61 
Q 2172 -91 1784 -91 
Q 1150 -91 751 415 
Q 353 922 353 1747 
Q 353 2572 751 3078 
Q 1150 3584 1784 3584 
Q 2172 3584 2448 3432 
Q 2725 3281 2906 2969 
z
M 947 1747 
Q 947 1113 1208 752 
Q 1469 391 1925 391 
Q 2381 391 2643 752 
Q 2906 1113 2906 1747 
Q 2906 2381 2643 2742 
Q 2381 3103 1925 3103 
Q 1469 3103 1208 2742 
Q 947 2381 947 1747 
z
" transform="scale(0.015625)"/>
       <path id="DejaVuSans-61" d="M 2194 1759 
Q 1497 1759 1228 1600 
Q 959 1441 959 1056 
Q 959 750 1161 570 
Q 1363 391 1709 391 
Q 2188 391 2477 730 
Q 2766 1069 2766 1631 
L 2766 1759 
L 2194 1759 
z
M 3341 1997 
L 3341 0 
L 2766 0 
L 2766 531 
Q 2569 213 2275 61 
Q 1981 -91 1556 -91 
Q 1019 -91 701 211 
Q 384 513 384 1019 
Q 384 1609 779 1909 
Q 1175 2209 1959 2209 
L 2766 2209 
L 2766 2266 
Q 2766 2663 2505 2880 
Q 2244 3097 1772 3097 
Q 1472 3097 1187 3025 
Q 903 2953 641 2809 
L 641 3341 
Q 956 3463 1253 3523 
Q 1550 3584 1831 3584 
Q 2591 3584 2966 3190 
Q 3341 2797 3341 1997 
z
" transform="scale(0.015625)"/>
       <path id="DejaVuSans-6c" d="M 603 4863 
L 1178 4863 
L 1178 0 
L 603 0 
L 603 4863 
z
" transform="scale(0.015625)"/>
       <path id="DejaVuSans-70" d="M 1159 525 
L 1159 -1331 
L 581 -1331 
L 581 3500 
L 1159 3500 
L 1159 2969 
Q 1341 3281 1617 3432 
Q 1894 3584 2278 3584 
Q 2916 3584 3314 3078 
Q 3713 2572 3713 1747 
Q 3713 922 3314 415 
Q 2916 -91 2278 -91 
Q 1894 -91 1617 61 
Q 1341 213 1159 525 
z
M 3116 1747 
Q 3116 2381 2855 2742 
Q 2594 3103 2138 3103 
Q 1681 3103 1420 2742 
Q 1159 2381 1159 1747 
Q 1159 1113 1420 752 
Q 1681 391 2138 391 
Q 2594 391 2855 752 
Q 3116 1113 3116 1747 
z
" transform="scale(0.015625)"/>
       <path id="DejaVuSans-68" d="M 3513 2113 
L 3513 0 
L 2938 0 
L 2938 2094 
Q 2938 2591 2744 2837 
Q 2550 3084 2163 3084 
Q 1697 3084 1428 2787 
Q 1159 2491 1159 1978 
L 1159 0 
L 581 0 
L 581 4863 
L 1159 4863 
L 1159 2956 
Q 1366 3272 1645 3428 
Q 1925 3584 2291 3584 
Q 2894 3584 3203 3211 
Q 3513 2838 3513 2113 
z
" transform="scale(0.015625)"/>
      </defs>
      <use xlink:href="#DejaVuSans-54"/>
      <use xlink:href="#DejaVuSans-72" x="46.333984"/>
      <use xlink:href="#DejaVuSans-75" x="87.447266"/>
      <use xlink:href="#DejaVuSans-65" x="150.826172"/>
      <use xlink:href="#DejaVuSans-20" x="212.349609"/>
      <use xlink:href="#DejaVuSans-64" x="244.136719"/>
      <use xlink:href="#DejaVuSans-61" x="307.613281"/>
      <use xlink:href="#DejaVuSans-6c" x="368.892578"/>
      <use xlink:href="#DejaVuSans-70" x="396.675781"/>
      <use xlink:href="#DejaVuSans-68" x="460.152344"/>
      <use xlink:href="#DejaVuSans-61" x="523.53125"/>
     </g>
    </g>
   </g>
   <g id="matplotlib.axis_2">
    <g id="ytick_1">
     <g id="line2d_19">
      <path d="M 56.18 204.399213 
L 332.501538 204.399213 
" clip-path="url(#paaf60fd028)" style="fill: none; stroke: #b0b0b0; stroke-width: 0.8; stroke-linecap: square"/>
     </g>
     <g id="line2d_20">
      <defs>
       <path id="m4a5b09255d" d="M 0 0 
L -3.5 0 
" style="stroke: #000000; stroke-width: 0.8"/>
      </defs>
      <g>
       <use xlink:href="#m4a5b09255d" x="56.18" y="204.399213" style="stroke: #000000; stroke-width: 0.8"/>
      </g>
     </g>
     <g id="text_11">
      <!-- −0.4 -->
      <g transform="translate(24.897187 208.198432) scale(0.1 -0.1)">
       <defs>
        <path id="DejaVuSans-34" d="M 2419 4116 
L 825 1625 
L 2419 1625 
L 2419 4116 
z
M 2253 4666 
L 3047 4666 
L 3047 1625 
L 3713 1625 
L 3713 1100 
L 3047 1100 
L 3047 0 
L 2419 0 
L 2419 1100 
L 313 1100 
L 313 1709 
L 2253 4666 
z
" transform="scale(0.015625)"/>
       </defs>
       <use xlink:href="#DejaVuSans-2212"/>
       <use xlink:href="#DejaVuSans-30" x="83.789062"/>
       <use xlink:href="#DejaVuSans-2e" x="147.412109"/>
       <use xlink:href="#DejaVuSans-34" x="179.199219"/>
      </g>
     </g>
    </g>
    <g id="ytick_2">
     <g id="line2d_21">
      <path d="M 56.18 170.335019 
L 332.501538 170.335019 
" clip-path="url(#paaf60fd028)" style="fill: none; stroke: #b0b0b0; stroke-width: 0.8; stroke-linecap: square"/>
     </g>
     <g id="line2d_22">
      <g>
       <use xlink:href="#m4a5b09255d" x="56.18" y="170.335019" style="stroke: #000000; stroke-width: 0.8"/>
      </g>
     </g>
     <g id="text_12">
      <!-- −0.2 -->
      <g transform="translate(24.897187 174.134237) scale(0.1 -0.1)">
       <use xlink:href="#DejaVuSans-2212"/>
       <use xlink:href="#DejaVuSans-30" x="83.789062"/>
       <use xlink:href="#DejaVuSans-2e" x="147.412109"/>
       <use xlink:href="#DejaVuSans-32" x="179.199219"/>
      </g>
     </g>
    </g>
    <g id="ytick_3">
     <g id="line2d_23">
      <path d="M 56.18 136.270824 
L 332.501538 136.270824 
" clip-path="url(#paaf60fd028)" style="fill: none; stroke: #b0b0b0; stroke-width: 0.8; stroke-linecap: square"/>
     </g>
     <g id="line2d_24">
      <g>
       <use xlink:href="#m4a5b09255d" x="56.18" y="136.270824" style="stroke: #000000; stroke-width: 0.8"/>
      </g>
     </g>
     <g id="text_13">
      <!-- 0.0 -->
      <g transform="translate(33.276875 140.070043) scale(0.1 -0.1)">
       <use xlink:href="#DejaVuSans-30"/>
       <use xlink:href="#DejaVuSans-2e" x="63.623047"/>
       <use xlink:href="#DejaVuSans-30" x="95.410156"/>
      </g>
     </g>
    </g>
    <g id="ytick_4">
     <g id="line2d_25">
      <path d="M 56.18 102.20663 
L 332.501538 102.20663 
" clip-path="url(#paaf60fd028)" style="fill: none; stroke: #b0b0b0; stroke-width: 0.8; stroke-linecap: square"/>
     </g>
     <g id="line2d_26">
      <g>
       <use xlink:href="#m4a5b09255d" x="56.18" y="102.20663" style="stroke: #000000; stroke-width: 0.8"/>
      </g>
     </g>
     <g id="text_14">
      <!-- 0.2 -->
      <g transform="translate(33.276875 106.005849) scale(0.1 -0.1)">
       <use xlink:href="#DejaVuSans-30"/>
       <use xlink:href="#DejaVuSans-2e" x="63.623047"/>
       <use xlink:href="#DejaVuSans-32" x="95.410156"/>
      </g>
     </g>
    </g>
    <g id="ytick_5">
     <g id="line2d_27">
      <path d="M 56.18 68.142436 
L 332.501538 68.142436 
" clip-path="url(#paaf60fd028)" style="fill: none; stroke: #b0b0b0; stroke-width: 0.8; stroke-linecap: square"/>
     </g>
     <g id="line2d_28">
      <g>
       <use xlink:href="#m4a5b09255d" x="56.18" y="68.142436" style="stroke: #000000; stroke-width: 0.8"/>
      </g>
     </g>
     <g id="text_15">
      <!-- 0.4 -->
      <g transform="translate(33.276875 71.941654) scale(0.1 -0.1)">
       <use xlink:href="#DejaVuSans-30"/>
       <use xlink:href="#DejaVuSans-2e" x="63.623047"/>
       <use xlink:href="#DejaVuSans-34" x="95.410156"/>
      </g>
     </g>
    </g>
    <g id="ytick_6">
     <g id="line2d_29">
      <path d="M 56.18 34.078241 
L 332.501538 34.078241 
" clip-path="url(#paaf60fd028)" style="fill: none; stroke: #b0b0b0; stroke-width: 0.8; stroke-linecap: square"/>
     </g>
     <g id="line2d_30">
      <g>
       <use xlink:href="#m4a5b09255d" x="56.18" y="34.078241" style="stroke: #000000; stroke-width: 0.8"/>
      </g>
     </g>
     <g id="text_16">
      <!-- 0.6 -->
      <g transform="translate(33.276875 37.87746) scale(0.1 -0.1)">
       <defs>
        <path id="DejaVuSans-36" d="M 2113 2584 
Q 1688 2584 1439 2293 
Q 1191 2003 1191 1497 
Q 1191 994 1439 701 
Q 1688 409 2113 409 
Q 2538 409 2786 701 
Q 3034 994 3034 1497 
Q 3034 2003 2786 2293 
Q 2538 2584 2113 2584 
z
M 3366 4563 
L 3366 3988 
Q 3128 4100 2886 4159 
Q 2644 4219 2406 4219 
Q 1781 4219 1451 3797 
Q 1122 3375 1075 2522 
Q 1259 2794 1537 2939 
Q 1816 3084 2150 3084 
Q 2853 3084 3261 2657 
Q 3669 2231 3669 1497 
Q 3669 778 3244 343 
Q 2819 -91 2113 -91 
Q 1303 -91 875 529 
Q 447 1150 447 2328 
Q 447 3434 972 4092 
Q 1497 4750 2381 4750 
Q 2619 4750 2861 4703 
Q 3103 4656 3366 4563 
z
" transform="scale(0.015625)"/>
       </defs>
       <use xlink:href="#DejaVuSans-30"/>
       <use xlink:href="#DejaVuSans-2e" x="63.623047"/>
       <use xlink:href="#DejaVuSans-36" x="95.410156"/>
      </g>
     </g>
    </g>
    <g id="text_17">
     <!-- Bias -->
     <g transform="translate(18.8175 135.751358) rotate(-90) scale(0.1 -0.1)">
      <defs>
       <path id="DejaVuSans-42" d="M 1259 2228 
L 1259 519 
L 2272 519 
Q 2781 519 3026 730 
Q 3272 941 3272 1375 
Q 3272 1813 3026 2020 
Q 2781 2228 2272 2228 
L 1259 2228 
z
M 1259 4147 
L 1259 2741 
L 2194 2741 
Q 2656 2741 2882 2914 
Q 3109 3088 3109 3444 
Q 3109 3797 2882 3972 
Q 2656 4147 2194 4147 
L 1259 4147 
z
M 628 4666 
L 2241 4666 
Q 2963 4666 3353 4366 
Q 3744 4066 3744 3513 
Q 3744 3084 3544 2831 
Q 3344 2578 2956 2516 
Q 3422 2416 3680 2098 
Q 3938 1781 3938 1306 
Q 3938 681 3513 340 
Q 3088 0 2303 0 
L 628 0 
L 628 4666 
z
" transform="scale(0.015625)"/>
       <path id="DejaVuSans-69" d="M 603 3500 
L 1178 3500 
L 1178 0 
L 603 0 
L 603 3500 
z
M 603 4863 
L 1178 4863 
L 1178 4134 
L 603 4134 
L 603 4863 
z
" transform="scale(0.015625)"/>
       <path id="DejaVuSans-73" d="M 2834 3397 
L 2834 2853 
Q 2591 2978 2328 3040 
Q 2066 3103 1784 3103 
Q 1356 3103 1142 2972 
Q 928 2841 928 2578 
Q 928 2378 1081 2264 
Q 1234 2150 1697 2047 
L 1894 2003 
Q 2506 1872 2764 1633 
Q 3022 1394 3022 966 
Q 3022 478 2636 193 
Q 2250 -91 1575 -91 
Q 1294 -91 989 -36 
Q 684 19 347 128 
L 347 722 
Q 666 556 975 473 
Q 1284 391 1588 391 
Q 1994 391 2212 530 
Q 2431 669 2431 922 
Q 2431 1156 2273 1281 
Q 2116 1406 1581 1522 
L 1381 1569 
Q 847 1681 609 1914 
Q 372 2147 372 2553 
Q 372 3047 722 3315 
Q 1072 3584 1716 3584 
Q 2034 3584 2315 3537 
Q 2597 3491 2834 3397 
z
" transform="scale(0.015625)"/>
      </defs>
      <use xlink:href="#DejaVuSans-42"/>
      <use xlink:href="#DejaVuSans-69" x="68.603516"/>
      <use xlink:href="#DejaVuSans-61" x="96.386719"/>
      <use xlink:href="#DejaVuSans-73" x="157.666016"/>
     </g>
    </g>
   </g>
   <g id="line2d_31">
    <path d="M 56.18 104.357245 
L 56.18 104.357245 
L 61.819215 104.357245 
L 61.819215 101.08999 
L 67.45843 101.08999 
L 67.45843 98.984101 
L 73.097645 98.984101 
L 73.097645 99.184559 
L 78.73686 99.184559 
L 78.73686 98.532165 
L 84.376075 98.532165 
L 84.376075 99.966662 
L 90.01529 99.966662 
L 90.01529 99.554791 
L 95.654505 99.554791 
L 95.654505 100.486869 
L 101.293721 100.486869 
L 101.293721 101.081104 
L 106.932936 101.081104 
L 106.932936 102.973889 
L 112.572151 102.973889 
L 112.572151 103.128733 
L 118.211366 103.128733 
L 118.211366 105.020916 
L 123.850581 105.020916 
L 123.850581 105.89458 
L 129.489796 105.89458 
L 129.489796 106.549727 
L 135.129011 106.549727 
L 135.129011 107.333669 
L 140.768226 107.333669 
L 140.768226 109.838577 
L 146.407441 109.838577 
L 146.407441 109.237312 
L 152.046656 109.237312 
L 152.046656 112.143148 
L 157.685871 112.143148 
L 157.685871 112.041301 
L 163.325086 112.041301 
L 163.325086 114.677268 
L 168.964301 114.677268 
L 168.964301 114.694938 
L 174.603516 114.694938 
L 174.603516 116.916292 
L 180.242732 116.916292 
L 180.242732 117.410691 
L 185.881947 117.410691 
L 185.881947 118.69858 
L 191.521162 118.69858 
L 191.521162 122.497706 
L 197.160377 122.497706 
L 197.160377 120.881002 
L 202.799592 120.881002 
L 202.799592 122.815493 
L 208.438807 122.815493 
L 208.438807 123.534667 
L 214.078022 123.534667 
L 214.078022 126.684665 
L 219.717237 126.684665 
L 219.717237 125.361714 
L 225.356452 125.361714 
L 225.356452 127.112618 
L 230.995667 127.112618 
L 230.995667 127.602251 
L 236.634882 127.602251 
L 236.634882 130.115408 
L 242.274097 130.115408 
L 242.274097 130.707988 
L 247.913312 130.707988 
L 247.913312 131.702074 
L 253.552527 131.702074 
L 253.552527 133.973838 
L 259.191743 133.973838 
L 259.191743 134.902965 
L 264.830958 134.902965 
L 264.830958 135.985649 
L 270.470173 135.985649 
L 270.470173 138.330008 
L 276.109388 138.330008 
L 276.109388 138.858234 
L 281.748603 138.858234 
L 281.748603 138.865489 
L 287.387818 138.865489 
L 287.387818 141.052717 
L 293.027033 141.052717 
L 293.027033 143.903887 
L 298.666248 143.903887 
L 298.666248 143.999912 
L 304.305463 143.999912 
L 304.305463 146.153799 
L 309.944678 146.153799 
L 309.944678 147.997272 
L 315.583893 147.997272 
L 315.583893 152.051702 
L 321.223108 152.051702 
L 321.223108 154.432823 
L 326.862323 154.432823 
L 326.862323 159.63843 
L 332.501538 159.63843 
" clip-path="url(#paaf60fd028)" style="fill: none; stroke: #1f77b4; stroke-width: 1.5; stroke-linecap: square"/>
   </g>
   <g id="line2d_32">
    <path d="M 56.18 106.133785 
L 56.18 106.133785 
L 61.819215 106.133785 
L 61.819215 104.280701 
L 67.45843 104.280701 
L 67.45843 103.153479 
L 73.097645 103.153479 
L 73.097645 103.474128 
L 78.73686 103.474128 
L 78.73686 103.974014 
L 84.376075 103.974014 
L 84.376075 105.724641 
L 90.01529 105.724641 
L 90.01529 106.019598 
L 95.654505 106.019598 
L 95.654505 107.432059 
L 101.293721 107.432059 
L 101.293721 107.845708 
L 106.932936 107.845708 
L 106.932936 110.450135 
L 112.572151 110.450135 
L 112.572151 111.930509 
L 118.211366 111.930509 
L 118.211366 114.150607 
L 123.850581 114.150607 
L 123.850581 112.788955 
L 129.489796 112.788955 
L 129.489796 115.2783 
L 135.129011 115.2783 
L 135.129011 116.057714 
L 140.768226 116.057714 
L 140.768226 118.626009 
L 146.407441 118.626009 
L 146.407441 121.823623 
L 152.046656 121.823623 
L 152.046656 124.001283 
L 157.685871 124.001283 
L 157.685871 123.277165 
L 163.325086 123.277165 
L 163.325086 126.512919 
L 168.964301 126.512919 
L 168.964301 126.821441 
L 174.603516 126.821441 
L 174.603516 129.301328 
L 180.242732 129.301328 
L 180.242732 130.933428 
L 185.881947 130.933428 
L 185.881947 132.473542 
L 191.521162 132.473542 
L 191.521162 133.499109 
L 197.160377 133.499109 
L 197.160377 133.816091 
L 202.799592 133.816091 
L 202.799592 134.923408 
L 208.438807 134.923408 
L 208.438807 136.94542 
L 214.078022 136.94542 
L 214.078022 137.195376 
L 219.717237 137.195376 
L 219.717237 140.13388 
L 225.356452 140.13388 
L 225.356452 141.056214 
L 230.995667 141.056214 
L 230.995667 143.385221 
L 236.634882 143.385221 
L 236.634882 146.703902 
L 242.274097 146.703902 
L 242.274097 144.85524 
L 247.913312 144.85524 
L 247.913312 145.246285 
L 253.552527 145.246285 
L 253.552527 147.918309 
L 259.191743 147.918309 
L 259.191743 149.073593 
L 264.830958 149.073593 
L 264.830958 150.06114 
L 270.470173 150.06114 
L 270.470173 150.212948 
L 276.109388 150.212948 
L 276.109388 151.494475 
L 281.748603 151.494475 
L 281.748603 151.546657 
L 287.387818 151.546657 
L 287.387818 153.951414 
L 293.027033 153.951414 
L 293.027033 154.66801 
L 298.666248 154.66801 
L 298.666248 153.900274 
L 304.305463 153.900274 
L 304.305463 155.870221 
L 309.944678 155.870221 
L 309.944678 156.902237 
L 315.583893 156.902237 
L 315.583893 158.277702 
L 321.223108 158.277702 
L 321.223108 159.666953 
L 326.862323 159.666953 
L 326.862323 161.895971 
L 332.501538 161.895971 
" clip-path="url(#paaf60fd028)" style="fill: none; stroke: #ff7f0e; stroke-width: 1.5; stroke-linecap: square"/>
   </g>
   <g id="patch_3">
    <path d="M 56.18 223.886154 
L 56.18 26.64 
" style="fill: none; stroke: #000000; stroke-width: 0.8; stroke-linejoin: miter; stroke-linecap: square"/>
   </g>
   <g id="patch_4">
    <path d="M 332.501538 223.886154 
L 332.501538 26.64 
" style="fill: none; stroke: #000000; stroke-width: 0.8; stroke-linejoin: miter; stroke-linecap: square"/>
   </g>
   <g id="patch_5">
    <path d="M 56.18 223.886154 
L 332.501538 223.886154 
" style="fill: none; stroke: #000000; stroke-width: 0.8; stroke-linejoin: miter; stroke-linecap: square"/>
   </g>
   <g id="patch_6">
    <path d="M 56.18 26.64 
L 332.501538 26.64 
" style="fill: none; stroke: #000000; stroke-width: 0.8; stroke-linejoin: miter; stroke-linecap: square"/>
   </g>
   <g id="text_18">
    <!-- CMS -->
    <g transform="translate(56.18 22.956328) scale(0.169 -0.169)">
     <defs>
      <path id="TeXGyreHeros-Bold-43" d="M 4384 1594 
L 3450 1594 
C 3392 998 3014 730 2419 730 
C 1677 730 1242 1299 1242 2317 
C 1242 3347 1696 3923 2451 3923 
C 2970 3923 3309 3686 3450 3085 
L 4365 3085 
C 4282 4160 3469 4742 2419 4742 
C 1101 4742 282 3840 282 2330 
C 282 832 1094 -77 2394 -77 
C 3552 -77 4326 525 4384 1594 
z
" transform="scale(0.015625)"/>
      <path id="TeXGyreHeros-Bold-4d" d="M 4966 0 
L 4966 4666 
L 3520 4666 
L 2701 954 
L 1856 4666 
L 422 4666 
L 422 0 
L 1382 0 
L 1382 3635 
L 2221 0 
L 3181 0 
L 4006 3635 
L 4006 0 
L 4966 0 
z
" transform="scale(0.015625)"/>
      <path id="TeXGyreHeros-Bold-53" d="M 4051 1402 
C 4051 2138 3680 2483 2816 2650 
L 2086 2790 
C 1402 2925 1203 3059 1203 3398 
C 1203 3750 1517 3974 2010 3974 
C 2618 3974 2989 3718 2989 3245 
L 3885 3245 
C 3885 4230 3194 4742 2054 4742 
C 934 4742 288 4218 288 3309 
C 288 2579 653 2240 1600 2054 
L 2253 1926 
C 2893 1798 3130 1664 3130 1286 
C 3130 896 2771 691 2189 691 
C 1536 691 1139 966 1139 1466 
L 205 1466 
C 205 467 947 -77 2138 -77 
C 3341 -77 4051 454 4051 1402 
z
" transform="scale(0.015625)"/>
     </defs>
     <use xlink:href="#TeXGyreHeros-Bold-43"/>
     <use xlink:href="#TeXGyreHeros-Bold-4d" x="72.199982"/>
     <use xlink:href="#TeXGyreHeros-Bold-53" x="155.499969"/>
    </g>
   </g>
   <g id="text_19">
    <!-- Private work (CMS simulation) -->
    <g transform="translate(95.492 22.885175) scale(0.13 -0.13)">
     <defs>
      <path id="TeXGyreHeros-Italic-50" d="M 4371 3635 
C 4371 4314 3968 4666 3187 4666 
L 1254 4666 
L 262 0 
L 864 0 
L 1286 1978 
L 2746 1978 
C 3712 1978 4371 2771 4371 3635 
z
M 3757 3520 
C 3757 2957 3302 2502 2637 2502 
L 1395 2502 
L 1747 4141 
L 2989 4141 
C 3488 4141 3757 3923 3757 3520 
z
" transform="scale(0.015625)"/>
      <path id="TeXGyreHeros-Italic-72" d="M 2355 2886 
L 2470 3430 
C 2387 3443 2336 3450 2266 3450 
C 1894 3450 1606 3283 1210 2829 
L 1318 3354 
L 832 3354 
L 122 0 
L 659 0 
L 1030 1741 
C 1190 2496 1626 2886 2291 2886 
L 2355 2886 
z
" transform="scale(0.015625)"/>
      <path id="TeXGyreHeros-Italic-69" d="M 659 0 
L 1370 3354 
L 832 3354 
L 122 0 
L 659 0 
z
M 1677 4525 
L 1011 4525 
L 870 3866 
L 1536 3866 
L 1677 4525 
z
" transform="scale(0.015625)"/>
      <path id="TeXGyreHeros-Italic-76" d="M 3507 3354 
L 2925 3354 
L 1363 653 
L 1050 3354 
L 461 3354 
L 934 0 
L 1517 0 
L 3507 3354 
z
" transform="scale(0.015625)"/>
      <path id="TeXGyreHeros-Italic-61" d="M 3149 0 
L 3232 416 
C 3174 403 3149 403 3123 403 
C 2957 403 2880 461 2880 589 
C 2880 614 2880 634 2886 653 
L 3277 2490 
C 3315 2662 3315 2662 3315 2726 
C 3315 3162 2874 3450 2202 3450 
C 1312 3450 768 3072 646 2362 
L 1184 2362 
C 1312 2771 1587 2957 2061 2957 
C 2445 2957 2739 2784 2739 2547 
C 2739 2522 2733 2477 2726 2426 
L 2707 2310 
C 2662 2048 2515 1971 2061 1933 
C 1203 1850 934 1792 621 1594 
C 288 1382 102 1069 102 698 
C 102 186 454 -96 1030 -96 
C 1446 -96 1818 -38 2310 371 
L 2304 275 
C 2304 13 2502 -58 2810 -58 
C 2899 -58 2893 -45 3149 0 
z
M 2566 1651 
L 2451 1101 
C 2368 704 1805 365 1242 365 
C 877 365 666 493 666 762 
C 666 1165 954 1370 1632 1466 
C 2234 1549 2285 1555 2566 1651 
z
" transform="scale(0.015625)"/>
      <path id="TeXGyreHeros-Italic-74" d="M 1408 467 
C 1210 422 1178 416 1101 416 
C 960 416 870 486 870 589 
C 870 608 877 640 883 678 
L 1363 2925 
L 1933 2925 
L 2022 3354 
L 1453 3354 
L 1651 4275 
L 1114 4275 
L 915 3354 
L 461 3354 
L 371 2925 
L 826 2925 
L 339 659 
C 326 595 320 525 320 461 
C 320 147 538 -45 890 -45 
C 1018 -45 1216 -26 1306 0 
L 1408 467 
z
" transform="scale(0.015625)"/>
      <path id="TeXGyreHeros-Italic-65" d="M 3290 1523 
L 3302 1606 
C 3360 1914 3392 2182 3392 2355 
C 3392 2970 2861 3450 2170 3450 
C 1613 3450 1075 3187 755 2758 
C 454 2355 224 1651 224 1133 
C 224 467 717 -96 1498 -96 
C 2266 -96 2912 326 3110 1018 
L 2573 1018 
C 2355 627 2016 397 1587 397 
C 1082 397 787 685 787 1229 
C 781 1338 787 1402 819 1523 
L 3290 1523 
z
M 2816 1984 
L 934 1984 
C 1094 2547 1568 2957 2086 2957 
C 2541 2957 2829 2650 2829 2170 
C 2829 2106 2822 2061 2816 1984 
z
" transform="scale(0.015625)"/>
      <path id="TeXGyreHeros-Italic-20" transform="scale(0.015625)"/>
      <path id="TeXGyreHeros-Italic-77" d="M 4928 3354 
L 4346 3354 
L 3091 742 
L 3091 3354 
L 2349 3354 
L 1139 742 
L 1139 3354 
L 435 3354 
L 691 0 
L 1306 0 
L 2554 2675 
L 2554 0 
L 3238 0 
L 4928 3354 
z
" transform="scale(0.015625)"/>
      <path id="TeXGyreHeros-Italic-6f" d="M 3366 2253 
C 3366 2931 2906 3450 2138 3450 
C 934 3450 198 2342 198 1075 
C 198 365 698 -96 1414 -96 
C 2579 -96 3366 922 3366 2253 
z
M 2803 2131 
C 2803 1178 2266 397 1504 397 
C 1050 397 762 691 762 1203 
C 762 2131 1299 2957 2054 2957 
C 2528 2957 2803 2650 2803 2131 
z
" transform="scale(0.015625)"/>
      <path id="TeXGyreHeros-Italic-6b" d="M 2893 0 
L 1997 2195 
L 3418 3354 
L 2726 3354 
L 1005 1958 
L 1581 4666 
L 1043 4666 
L 51 0 
L 589 0 
L 864 1299 
L 1549 1862 
L 2278 0 
L 2893 0 
z
" transform="scale(0.015625)"/>
      <path id="TeXGyreHeros-Italic-28" d="M 1254 -1363 
C 1018 -749 902 -147 902 506 
C 902 1926 1459 3347 2534 4666 
L 2182 4666 
C 1069 3501 403 2042 403 742 
C 403 -19 589 -813 902 -1363 
L 1254 -1363 
z
" transform="scale(0.015625)"/>
      <path id="TeXGyreHeros-Italic-43" d="M 4384 1702 
L 3757 1702 
C 3354 787 2950 403 2125 403 
C 1459 403 1018 922 1018 1696 
C 1018 2278 1210 2925 1536 3411 
C 1926 3987 2394 4262 2982 4262 
C 3629 4262 3942 3910 3994 3219 
L 4608 3219 
C 4557 4262 3974 4781 3091 4781 
C 2342 4781 1722 4480 1222 3878 
C 717 3270 403 2381 403 1581 
C 403 563 1011 -115 2035 -115 
C 3162 -115 3840 410 4384 1702 
z
" transform="scale(0.015625)"/>
      <path id="TeXGyreHeros-Italic-4d" d="M 5542 4666 
L 4704 4666 
L 2490 653 
L 1978 4666 
L 1152 4666 
L 160 0 
L 730 0 
L 1555 3872 
L 2048 0 
L 2669 0 
L 4806 3872 
L 3981 0 
L 4550 0 
L 5542 4666 
z
" transform="scale(0.015625)"/>
      <path id="TeXGyreHeros-Italic-53" d="M 3968 1549 
C 3968 1978 3667 2349 3187 2490 
L 2086 2803 
C 1594 2944 1440 3072 1440 3354 
C 1440 3866 1952 4262 2694 4262 
C 3398 4262 3667 3994 3667 3565 
C 3667 3507 3661 3462 3642 3334 
L 4205 3334 
C 4243 3514 4256 3597 4256 3693 
C 4256 4339 3712 4781 2810 4781 
C 2150 4781 1632 4595 1286 4237 
C 1024 3968 826 3514 826 3187 
C 826 2784 1107 2445 1536 2323 
L 2630 2010 
C 3142 1862 3354 1670 3354 1370 
C 3354 838 2771 403 1901 403 
C 1178 403 845 672 845 1254 
C 845 1338 851 1395 870 1517 
L 314 1517 
C 269 1350 256 1248 256 1114 
C 256 346 832 -115 1798 -115 
C 2470 -115 3034 70 3411 422 
C 3738 723 3968 1190 3968 1549 
z
" transform="scale(0.015625)"/>
      <path id="TeXGyreHeros-Italic-73" d="M 2848 1158 
C 2848 1549 2637 1754 2074 1894 
L 1587 2016 
C 1229 2106 1043 2234 1043 2400 
C 1043 2726 1363 2957 1850 2957 
C 2227 2957 2438 2810 2438 2560 
C 2438 2515 2438 2470 2432 2419 
L 2970 2419 
C 3002 2554 3008 2611 3008 2694 
C 3008 3142 2579 3450 1958 3450 
C 1069 3450 480 2938 480 2259 
C 480 1869 704 1677 1363 1510 
L 1837 1389 
C 2240 1286 2285 1146 2285 1011 
C 2285 646 1862 397 1370 397 
C 928 397 678 570 678 890 
C 678 928 685 986 691 1050 
L 122 1050 
C 90 902 83 826 83 723 
C 83 211 531 -96 1274 -96 
C 2227 -96 2848 397 2848 1158 
z
" transform="scale(0.015625)"/>
      <path id="TeXGyreHeros-Italic-6d" d="M 4589 0 
L 5094 2387 
C 5114 2458 5133 2669 5133 2739 
C 5133 3072 4883 3450 4320 3450 
C 3904 3450 3539 3283 3162 2918 
C 3059 3277 2810 3450 2387 3450 
C 1952 3450 1658 3322 1248 2938 
L 1331 3354 
L 845 3354 
L 134 0 
L 672 0 
L 1120 2106 
C 1222 2592 1658 2989 2086 2989 
C 2400 2989 2611 2810 2611 2547 
C 2611 2477 2605 2394 2586 2310 
L 2093 0 
L 2630 0 
L 3078 2106 
C 3181 2605 3616 2989 4083 2989 
C 4384 2989 4570 2803 4570 2496 
C 4570 2400 4570 2400 4512 2182 
L 4051 0 
L 4589 0 
z
" transform="scale(0.015625)"/>
      <path id="TeXGyreHeros-Italic-75" d="M 2771 0 
L 3482 3354 
L 2944 3354 
L 2554 1504 
C 2406 813 1952 365 1408 365 
C 1062 365 838 557 838 858 
C 838 909 845 966 858 1030 
L 1350 3354 
L 813 3354 
L 275 819 
C 262 755 256 685 256 602 
C 256 166 589 -96 1139 -96 
C 1638 -96 2003 58 2368 390 
L 2285 0 
L 2771 0 
z
" transform="scale(0.015625)"/>
      <path id="TeXGyreHeros-Italic-6c" d="M 1645 4666 
L 1107 4666 
L 115 0 
L 653 0 
L 1645 4666 
z
" transform="scale(0.015625)"/>
      <path id="TeXGyreHeros-Italic-6e" d="M 3328 2406 
C 3347 2490 3354 2566 3354 2650 
C 3354 3136 3014 3450 2483 3450 
C 1997 3450 1574 3277 1242 2938 
L 1325 3354 
L 838 3354 
L 128 0 
L 666 0 
L 1056 1850 
C 1203 2554 1658 2989 2234 2989 
C 2554 2989 2790 2765 2790 2470 
C 2790 2432 2771 2336 2752 2234 
L 2278 0 
L 2816 0 
L 3328 2406 
z
" transform="scale(0.015625)"/>
      <path id="TeXGyreHeros-Italic-29" d="M 1760 2605 
C 1760 3328 1568 4134 1267 4666 
L 915 4666 
C 1158 4045 1267 3443 1267 2758 
C 1267 1376 698 -64 -365 -1363 
L -13 -1363 
C 1094 -205 1760 1274 1760 2605 
z
" transform="scale(0.015625)"/>
     </defs>
     <use xlink:href="#TeXGyreHeros-Italic-50"/>
     <use xlink:href="#TeXGyreHeros-Italic-72" x="66.699997"/>
     <use xlink:href="#TeXGyreHeros-Italic-69" x="99.999985"/>
     <use xlink:href="#TeXGyreHeros-Italic-76" x="122.199982"/>
     <use xlink:href="#TeXGyreHeros-Italic-61" x="172.199966"/>
     <use xlink:href="#TeXGyreHeros-Italic-74" x="227.799957"/>
     <use xlink:href="#TeXGyreHeros-Italic-65" x="255.599945"/>
     <use xlink:href="#TeXGyreHeros-Italic-20" x="311.199936"/>
     <use xlink:href="#TeXGyreHeros-Italic-77" x="338.999924"/>
     <use xlink:href="#TeXGyreHeros-Italic-6f" x="411.199905"/>
     <use xlink:href="#TeXGyreHeros-Italic-72" x="466.799896"/>
     <use xlink:href="#TeXGyreHeros-Italic-6b" x="500.099884"/>
     <use xlink:href="#TeXGyreHeros-Italic-20" x="550.099869"/>
     <use xlink:href="#TeXGyreHeros-Italic-28" x="577.899857"/>
     <use xlink:href="#TeXGyreHeros-Italic-43" x="611.199844"/>
     <use xlink:href="#TeXGyreHeros-Italic-4d" x="683.399826"/>
     <use xlink:href="#TeXGyreHeros-Italic-53" x="766.699814"/>
     <use xlink:href="#TeXGyreHeros-Italic-20" x="833.399811"/>
     <use xlink:href="#TeXGyreHeros-Italic-73" x="861.199799"/>
     <use xlink:href="#TeXGyreHeros-Italic-69" x="911.199783"/>
     <use xlink:href="#TeXGyreHeros-Italic-6d" x="933.39978"/>
     <use xlink:href="#TeXGyreHeros-Italic-75" x="1016.699768"/>
     <use xlink:href="#TeXGyreHeros-Italic-6c" x="1072.299759"/>
     <use xlink:href="#TeXGyreHeros-Italic-61" x="1094.499756"/>
     <use xlink:href="#TeXGyreHeros-Italic-74" x="1150.099747"/>
     <use xlink:href="#TeXGyreHeros-Italic-69" x="1177.899734"/>
     <use xlink:href="#TeXGyreHeros-Italic-6f" x="1200.099731"/>
     <use xlink:href="#TeXGyreHeros-Italic-6e" x="1255.699722"/>
     <use xlink:href="#TeXGyreHeros-Italic-29" x="1311.299713"/>
    </g>
   </g>
   <g id="legend_1">
    <g id="patch_7">
     <path d="M 88.165601 63.99625 
L 325.501538 63.99625 
Q 327.501538 63.99625 327.501538 61.99625 
L 327.501538 33.64 
Q 327.501538 31.64 325.501538 31.64 
L 88.165601 31.64 
Q 86.165601 31.64 86.165601 33.64 
L 86.165601 61.99625 
Q 86.165601 63.99625 88.165601 63.99625 
z
" style="fill: #ffffff; opacity: 0.8; stroke: #cccccc; stroke-linejoin: miter"/>
    </g>
    <g id="line2d_33">
     <path d="M 90.165601 39.738437 
L 90.165601 39.738437 
L 100.165601 39.738437 
L 100.165601 39.738437 
L 110.165601 39.738437 
" style="fill: none; stroke: #1f77b4; stroke-width: 1.5; stroke-linecap: square"/>
    </g>
    <g id="text_20">
     <!-- Network (mean abs 0.299) -->
     <g transform="translate(118.165601 43.238437) scale(0.1 -0.1)">
      <defs>
       <path id="DejaVuSans-4e" d="M 628 4666 
L 1478 4666 
L 3547 763 
L 3547 4666 
L 4159 4666 
L 4159 0 
L 3309 0 
L 1241 3903 
L 1241 0 
L 628 0 
L 628 4666 
z
" transform="scale(0.015625)"/>
       <path id="DejaVuSans-74" d="M 1172 4494 
L 1172 3500 
L 2356 3500 
L 2356 3053 
L 1172 3053 
L 1172 1153 
Q 1172 725 1289 603 
Q 1406 481 1766 481 
L 2356 481 
L 2356 0 
L 1766 0 
Q 1100 0 847 248 
Q 594 497 594 1153 
L 594 3053 
L 172 3053 
L 172 3500 
L 594 3500 
L 594 4494 
L 1172 4494 
z
" transform="scale(0.015625)"/>
       <path id="DejaVuSans-77" d="M 269 3500 
L 844 3500 
L 1563 769 
L 2278 3500 
L 2956 3500 
L 3675 769 
L 4391 3500 
L 4966 3500 
L 4050 0 
L 3372 0 
L 2619 2869 
L 1863 0 
L 1184 0 
L 269 3500 
z
" transform="scale(0.015625)"/>
       <path id="DejaVuSans-6f" d="M 1959 3097 
Q 1497 3097 1228 2736 
Q 959 2375 959 1747 
Q 959 1119 1226 758 
Q 1494 397 1959 397 
Q 2419 397 2687 759 
Q 2956 1122 2956 1747 
Q 2956 2369 2687 2733 
Q 2419 3097 1959 3097 
z
M 1959 3584 
Q 2709 3584 3137 3096 
Q 3566 2609 3566 1747 
Q 3566 888 3137 398 
Q 2709 -91 1959 -91 
Q 1206 -91 779 398 
Q 353 888 353 1747 
Q 353 2609 779 3096 
Q 1206 3584 1959 3584 
z
" transform="scale(0.015625)"/>
       <path id="DejaVuSans-6b" d="M 581 4863 
L 1159 4863 
L 1159 1991 
L 2875 3500 
L 3609 3500 
L 1753 1863 
L 3688 0 
L 2938 0 
L 1159 1709 
L 1159 0 
L 581 0 
L 581 4863 
z
" transform="scale(0.015625)"/>
       <path id="DejaVuSans-28" d="M 1984 4856 
Q 1566 4138 1362 3434 
Q 1159 2731 1159 2009 
Q 1159 1288 1364 580 
Q 1569 -128 1984 -844 
L 1484 -844 
Q 1016 -109 783 600 
Q 550 1309 550 2009 
Q 550 2706 781 3412 
Q 1013 4119 1484 4856 
L 1984 4856 
z
" transform="scale(0.015625)"/>
       <path id="DejaVuSans-6d" d="M 3328 2828 
Q 3544 3216 3844 3400 
Q 4144 3584 4550 3584 
Q 5097 3584 5394 3201 
Q 5691 2819 5691 2113 
L 5691 0 
L 5113 0 
L 5113 2094 
Q 5113 2597 4934 2840 
Q 4756 3084 4391 3084 
Q 3944 3084 3684 2787 
Q 3425 2491 3425 1978 
L 3425 0 
L 2847 0 
L 2847 2094 
Q 2847 2600 2669 2842 
Q 2491 3084 2119 3084 
Q 1678 3084 1418 2786 
Q 1159 2488 1159 1978 
L 1159 0 
L 581 0 
L 581 3500 
L 1159 3500 
L 1159 2956 
Q 1356 3278 1631 3431 
Q 1906 3584 2284 3584 
Q 2666 3584 2933 3390 
Q 3200 3197 3328 2828 
z
" transform="scale(0.015625)"/>
       <path id="DejaVuSans-6e" d="M 3513 2113 
L 3513 0 
L 2938 0 
L 2938 2094 
Q 2938 2591 2744 2837 
Q 2550 3084 2163 3084 
Q 1697 3084 1428 2787 
Q 1159 2491 1159 1978 
L 1159 0 
L 581 0 
L 581 3500 
L 1159 3500 
L 1159 2956 
Q 1366 3272 1645 3428 
Q 1925 3584 2291 3584 
Q 2894 3584 3203 3211 
Q 3513 2838 3513 2113 
z
" transform="scale(0.015625)"/>
       <path id="DejaVuSans-62" d="M 3116 1747 
Q 3116 2381 2855 2742 
Q 2594 3103 2138 3103 
Q 1681 3103 1420 2742 
Q 1159 2381 1159 1747 
Q 1159 1113 1420 752 
Q 1681 391 2138 391 
Q 2594 391 2855 752 
Q 3116 1113 3116 1747 
z
M 1159 2969 
Q 1341 3281 1617 3432 
Q 1894 3584 2278 3584 
Q 2916 3584 3314 3078 
Q 3713 2572 3713 1747 
Q 3713 922 3314 415 
Q 2916 -91 2278 -91 
Q 1894 -91 1617 61 
Q 1341 213 1159 525 
L 1159 0 
L 581 0 
L 581 4863 
L 1159 4863 
L 1159 2969 
z
" transform="scale(0.015625)"/>
       <path id="DejaVuSans-39" d="M 703 97 
L 703 672 
Q 941 559 1184 500 
Q 1428 441 1663 441 
Q 2288 441 2617 861 
Q 2947 1281 2994 2138 
Q 2813 1869 2534 1725 
Q 2256 1581 1919 1581 
Q 1219 1581 811 2004 
Q 403 2428 403 3163 
Q 403 3881 828 4315 
Q 1253 4750 1959 4750 
Q 2769 4750 3195 4129 
Q 3622 3509 3622 2328 
Q 3622 1225 3098 567 
Q 2575 -91 1691 -91 
Q 1453 -91 1209 -44 
Q 966 3 703 97 
z
M 1959 2075 
Q 2384 2075 2632 2365 
Q 2881 2656 2881 3163 
Q 2881 3666 2632 3958 
Q 2384 4250 1959 4250 
Q 1534 4250 1286 3958 
Q 1038 3666 1038 3163 
Q 1038 2656 1286 2365 
Q 1534 2075 1959 2075 
z
" transform="scale(0.015625)"/>
       <path id="DejaVuSans-29" d="M 513 4856 
L 1013 4856 
Q 1481 4119 1714 3412 
Q 1947 2706 1947 2009 
Q 1947 1309 1714 600 
Q 1481 -109 1013 -844 
L 513 -844 
Q 928 -128 1133 580 
Q 1338 1288 1338 2009 
Q 1338 2731 1133 3434 
Q 928 4138 513 4856 
z
" transform="scale(0.015625)"/>
      </defs>
      <use xlink:href="#DejaVuSans-4e"/>
      <use xlink:href="#DejaVuSans-65" x="74.804688"/>
      <use xlink:href="#DejaVuSans-74" x="136.328125"/>
      <use xlink:href="#DejaVuSans-77" x="175.537109"/>
      <use xlink:href="#DejaVuSans-6f" x="257.324219"/>
      <use xlink:href="#DejaVuSans-72" x="318.505859"/>
      <use xlink:href="#DejaVuSans-6b" x="359.619141"/>
      <use xlink:href="#DejaVuSans-20" x="417.529297"/>
      <use xlink:href="#DejaVuSans-28" x="449.316406"/>
      <use xlink:href="#DejaVuSans-6d" x="488.330078"/>
      <use xlink:href="#DejaVuSans-65" x="585.742188"/>
      <use xlink:href="#DejaVuSans-61" x="647.265625"/>
      <use xlink:href="#DejaVuSans-6e" x="708.544922"/>
      <use xlink:href="#DejaVuSans-20" x="771.923828"/>
      <use xlink:href="#DejaVuSans-61" x="803.710938"/>
      <use xlink:href="#DejaVuSans-62" x="864.990234"/>
      <use xlink:href="#DejaVuSans-73" x="928.466797"/>
      <use xlink:href="#DejaVuSans-20" x="980.566406"/>
      <use xlink:href="#DejaVuSans-30" x="1012.353516"/>
      <use xlink:href="#DejaVuSans-2e" x="1075.976562"/>
      <use xlink:href="#DejaVuSans-32" x="1107.763672"/>
      <use xlink:href="#DejaVuSans-39" x="1171.386719"/>
      <use xlink:href="#DejaVuSans-39" x="1235.009766"/>
      <use xlink:href="#DejaVuSans-29" x="1298.632812"/>
     </g>
    </g>
    <g id="line2d_34">
     <path d="M 90.165601 54.416562 
L 90.165601 54.416562 
L 100.165601 54.416562 
L 100.165601 54.416562 
L 110.165601 54.416562 
" style="fill: none; stroke: #ff7f0e; stroke-width: 1.5; stroke-linecap: square"/>
    </g>
    <g id="text_21">
     <!-- Analytic Sonnenschein (mean abs 0.269) -->
     <g transform="translate(118.165601 57.916562) scale(0.1 -0.1)">
      <defs>
       <path id="DejaVuSans-41" d="M 2188 4044 
L 1331 1722 
L 3047 1722 
L 2188 4044 
z
M 1831 4666 
L 2547 4666 
L 4325 0 
L 3669 0 
L 3244 1197 
L 1141 1197 
L 716 0 
L 50 0 
L 1831 4666 
z
" transform="scale(0.015625)"/>
       <path id="DejaVuSans-79" d="M 2059 -325 
Q 1816 -950 1584 -1140 
Q 1353 -1331 966 -1331 
L 506 -1331 
L 506 -850 
L 844 -850 
Q 1081 -850 1212 -737 
Q 1344 -625 1503 -206 
L 1606 56 
L 191 3500 
L 800 3500 
L 1894 763 
L 2988 3500 
L 3597 3500 
L 2059 -325 
z
" transform="scale(0.015625)"/>
       <path id="DejaVuSans-63" d="M 3122 3366 
L 3122 2828 
Q 2878 2963 2633 3030 
Q 2388 3097 2138 3097 
Q 1578 3097 1268 2742 
Q 959 2388 959 1747 
Q 959 1106 1268 751 
Q 1578 397 2138 397 
Q 2388 397 2633 464 
Q 2878 531 3122 666 
L 3122 134 
Q 2881 22 2623 -34 
Q 2366 -91 2075 -91 
Q 1284 -91 818 406 
Q 353 903 353 1747 
Q 353 2603 823 3093 
Q 1294 3584 2113 3584 
Q 2378 3584 2631 3529 
Q 2884 3475 3122 3366 
z
" transform="scale(0.015625)"/>
       <path id="DejaVuSans-53" d="M 3425 4513 
L 3425 3897 
Q 3066 4069 2747 4153 
Q 2428 4238 2131 4238 
Q 1616 4238 1336 4038 
Q 1056 3838 1056 3469 
Q 1056 3159 1242 3001 
Q 1428 2844 1947 2747 
L 2328 2669 
Q 3034 2534 3370 2195 
Q 3706 1856 3706 1288 
Q 3706 609 3251 259 
Q 2797 -91 1919 -91 
Q 1588 -91 1214 -16 
Q 841 59 441 206 
L 441 856 
Q 825 641 1194 531 
Q 1563 422 1919 422 
Q 2459 422 2753 634 
Q 3047 847 3047 1241 
Q 3047 1584 2836 1778 
Q 2625 1972 2144 2069 
L 1759 2144 
Q 1053 2284 737 2584 
Q 422 2884 422 3419 
Q 422 4038 858 4394 
Q 1294 4750 2059 4750 
Q 2388 4750 2728 4690 
Q 3069 4631 3425 4513 
z
" transform="scale(0.015625)"/>
      </defs>
      <use xlink:href="#DejaVuSans-41"/>
      <use xlink:href="#DejaVuSans-6e" x="68.408203"/>
      <use xlink:href="#DejaVuSans-61" x="131.787109"/>
      <use xlink:href="#DejaVuSans-6c" x="193.066406"/>
      <use xlink:href="#DejaVuSans-79" x="220.849609"/>
      <use xlink:href="#DejaVuSans-74" x="280.029297"/>
      <use xlink:href="#DejaVuSans-69" x="319.238281"/>
      <use xlink:href="#DejaVuSans-63" x="347.021484"/>
      <use xlink:href="#DejaVuSans-20" x="402.001953"/>
      <use xlink:href="#DejaVuSans-53" x="433.789062"/>
      <use xlink:href="#DejaVuSans-6f" x="497.265625"/>
      <use xlink:href="#DejaVuSans-6e" x="558.447266"/>
      <use xlink:href="#DejaVuSans-6e" x="621.826172"/>
      <use xlink:href="#DejaVuSans-65" x="685.205078"/>
      <use xlink:href="#DejaVuSans-6e" x="746.728516"/>
      <use xlink:href="#DejaVuSans-73" x="810.107422"/>
      <use xlink:href="#DejaVuSans-63" x="862.207031"/>
      <use xlink:href="#DejaVuSans-68" x="917.1875"/>
      <use xlink:href="#DejaVuSans-65" x="980.566406"/>
      <use xlink:href="#DejaVuSans-69" x="1042.089844"/>
      <use xlink:href="#DejaVuSans-6e" x="1069.873047"/>
      <use xlink:href="#DejaVuSans-20" x="1133.251953"/>
      <use xlink:href="#DejaVuSans-28" x="1165.039062"/>
      <use xlink:href="#DejaVuSans-6d" x="1204.052734"/>
      <use xlink:href="#DejaVuSans-65" x="1301.464844"/>
      <use xlink:href="#DejaVuSans-61" x="1362.988281"/>
      <use xlink:href="#DejaVuSans-6e" x="1424.267578"/>
      <use xlink:href="#DejaVuSans-20" x="1487.646484"/>
      <use xlink:href="#DejaVuSans-61" x="1519.433594"/>
      <use xlink:href="#DejaVuSans-62" x="1580.712891"/>
      <use xlink:href="#DejaVuSans-73" x="1644.189453"/>
      <use xlink:href="#DejaVuSans-20" x="1696.289062"/>
      <use xlink:href="#DejaVuSans-30" x="1728.076172"/>
      <use xlink:href="#DejaVuSans-2e" x="1791.699219"/>
      <use xlink:href="#DejaVuSans-32" x="1823.486328"/>
      <use xlink:href="#DejaVuSans-36" x="1887.109375"/>
      <use xlink:href="#DejaVuSans-39" x="1950.732422"/>
      <use xlink:href="#DejaVuSans-29" x="2014.355469"/>
     </g>
    </g>
   </g>
  </g>
 </g>
 <defs>
  <clipPath id="paaf60fd028">
   <rect x="56.18" y="26.64" width="276.321538" height="197.246154"/>
  </clipPath>
 </defs>
</svg>
