<?xml version="1.0" encoding="utf-8" standalone="no"?>
<!DOCTYPE svg PUBLIC "-//W3C//DTD SVG 1.1//EN"
  "http://www.w3.org/Graphics/SVG/1.1/DTD/svg11.dtd">
<svg xmlns:xlink="http://www.w3.org/1999/xlink" width="354.461538pt" height="265.846154pt" viewBox="0 0 354.461538 265.846154" xmlns="http://www.w3.org/2000/svg" version="1.1">
 <metadata>
  <rdf:RDF xmlns:dc="http://purl.org/dc/elements/1.1/" xmlns:cc="http://creativecommons.org/ns#" xmlns:rdf="http://www.w3.org/1999/02/22-rdf-syntax-ns#">
   <cc:Work>
    <dc:type rdf:resource="http://purl.org/dc/dcmitype/StillImage"/>
    <dc:date>2024-08-09T17:21:39.546700</dc:date>
    <dc:format>image/svg+xml</dc:format>
    <dc:creator>
     <cc:Agent>
      <dc:title>Matplotlib v3.7.1, https://matplotlib.org/</dc:title>
     </cc:Agent>
    </dc:creator>
   </cc:Work>
  </rdf:RDF>
 </metadata>
 <defs>
  <style type="text/css">*{stroke-linejoin: round; stroke-linecap: butt}</style>
 </defs>
 <g id="figure_1">
  <g id="patch_1">
   <path d="M 0 265.846154 
L 354.461538 265.846154 
L 354.461538 0 
L 0 0 
z
" style="fill: #ffffff"/>
  </g>
  <g id="axes_1">
   <g id="patch_2">
    <path d="M 56.18 219.688654 
L 343.661538 219.688654 
L 343.661538 26.64 
L 56.18 26.64 
z
" style="fill: #ffffff"/>
   </g>
   <g id="PolyCollection_1">
    <path d="M 56.18 -4203.894915 
L 56.18 -487.70156 
L 56.18 -487.70156 
L 62.04697 -487.70156 
L 62.04697 -450.524158 
L 67.91394 -450.524158 
L 67.91394 -251.464405 
L 73.780911 -251.464405 
L 73.780911 -188.223175 
L 79.647881 -188.223175 
L 79.647881 -54.97925 
L 85.514851 -54.97925 
L 85.514851 2.068845 
L 91.381821 2.068845 
L 91.381821 111.28686 
L 97.248791 111.28686 
L 97.248791 192.096102 
L 103.115761 192.096102 
L 103.115761 403.729862 
L 108.982732 403.729862 
L 108.982732 437.219452 
L 114.849702 437.219452 
L 114.849702 577.122102 
L 120.716672 577.122102 
L 120.716672 649.066534 
L 126.583642 649.066534 
L 126.583642 782.772269 
L 132.450612 782.772269 
L 132.450612 840.750858 
L 138.317582 840.750858 
L 138.317582 973.621333 
L 144.184553 973.621333 
L 144.184553 1067.812334 
L 150.051523 1067.812334 
L 150.051523 1154.569155 
L 155.918493 1154.569155 
L 155.918493 1265.103933 
L 161.785463 1265.103933 
L 161.785463 1360.752302 
L 167.652433 1360.752302 
L 167.652433 1447.194497 
L 173.519403 1447.194497 
L 173.519403 1533.594618 
L 179.386374 1533.594618 
L 179.386374 1616.351658 
L 185.253344 1616.351658 
L 185.253344 1738.844593 
L 191.120314 1738.844593 
L 191.120314 1850.398057 
L 196.987284 1850.398057 
L 196.987284 1959.799797 
L 202.854254 1959.799797 
L 202.854254 2054.829182 
L 208.721224 2054.829182 
L 208.721224 2116.707872 
L 214.588195 2116.707872 
L 214.588195 2208.830809 
L 220.455165 2208.830809 
L 220.455165 2328.239691 
L 226.322135 2328.239691 
L 226.322135 2423.748523 
L 232.189105 2423.748523 
L 232.189105 2525.282007 
L 238.056075 2525.282007 
L 238.056075 2647.795618 
L 243.923046 2647.795618 
L 243.923046 2741.330714 
L 249.790016 2741.330714 
L 249.790016 2863.579982 
L 255.656986 2863.579982 
L 255.656986 2940.671326 
L 261.523956 2940.671326 
L 261.523956 3037.707991 
L 267.390926 3037.707991 
L 267.390926 3131.490582 
L 273.257896 3131.490582 
L 273.257896 3249.071397 
L 279.124867 3249.071397 
L 279.124867 3294.846546 
L 284.991837 3294.846546 
L 284.991837 3435.830212 
L 290.858807 3435.830212 
L 290.858807 3570.512484 
L 296.725777 3570.512484 
L 296.725777 3662.221018 
L 302.592747 3662.221018 
L 302.592747 3766.434831 
L 308.459717 3766.434831 
L 308.459717 3812.680717 
L 314.326688 3812.680717 
L 314.326688 4054.021272 
L 320.193658 4054.021272 
L 320.193658 4058.003905 
L 326.060628 4058.003905 
L 326.060628 4073.051892 
L 331.927598 4073.051892 
L 331.927598 4347.277724 
L 337.794568 4347.277724 
L 337.794568 4348.456569 
L 343.661538 4348.456569 
L 343.661538 632.263214 
L 343.661538 632.263214 
L 337.794568 632.263214 
L 337.794568 631.084369 
L 331.927598 631.084369 
L 331.927598 356.858537 
L 326.060628 356.858537 
L 326.060628 341.81055 
L 320.193658 341.81055 
L 320.193658 337.827916 
L 314.326688 337.827916 
L 314.326688 96.487362 
L 308.459717 96.487362 
L 308.459717 50.241476 
L 302.592747 50.241476 
L 302.592747 -53.972337 
L 296.725777 -53.972337 
L 296.725777 -145.680872 
L 290.858807 -145.680872 
L 290.858807 -280.363143 
L 284.991837 -280.363143 
L 284.991837 -421.346809 
L 279.124867 -421.346809 
L 279.124867 -467.121959 
L 273.257896 -467.121959 
L 273.257896 -584.702774 
L 267.390926 -584.702774 
L 267.390926 -678.485364 
L 261.523956 -678.485364 
L 261.523956 -775.52203 
L 255.656986 -775.52203 
L 255.656986 -852.613373 
L 249.790016 -852.613373 
L 249.790016 -974.862642 
L 243.923046 -974.862642 
L 243.923046 -1068.397738 
L 238.056075 -1068.397738 
L 238.056075 -1190.911348 
L 232.189105 -1190.911348 
L 232.189105 -1292.444833 
L 226.322135 -1292.444833 
L 226.322135 -1387.953665 
L 220.455165 -1387.953665 
L 220.455165 -1507.362547 
L 214.588195 -1507.362547 
L 214.588195 -1599.485484 
L 208.721224 -1599.485484 
L 208.721224 -1661.364174 
L 202.854254 -1661.364174 
L 202.854254 -1756.393559 
L 196.987284 -1756.393559 
L 196.987284 -1865.795299 
L 191.120314 -1865.795299 
L 191.120314 -1977.348762 
L 185.253344 -1977.348762 
L 185.253344 -2099.841698 
L 179.386374 -2099.841698 
L 179.386374 -2182.598737 
L 173.519403 -2182.598737 
L 173.519403 -2268.998858 
L 167.652433 -2268.998858 
L 167.652433 -2355.441053 
L 161.785463 -2355.441053 
L 161.785463 -2451.089423 
L 155.918493 -2451.089423 
L 155.918493 -2561.624201 
L 150.051523 -2561.624201 
L 150.051523 -2648.381022 
L 144.184553 -2648.381022 
L 144.184553 -2742.572022 
L 138.317582 -2742.572022 
L 138.317582 -2875.442497 
L 132.450612 -2875.442497 
L 132.450612 -2933.421087 
L 126.583642 -2933.421087 
L 126.583642 -3067.126821 
L 120.716672 -3067.126821 
L 120.716672 -3139.071254 
L 114.849702 -3139.071254 
L 114.849702 -3278.973904 
L 108.982732 -3278.973904 
L 108.982732 -3312.463493 
L 103.115761 -3312.463493 
L 103.115761 -3524.097253 
L 97.248791 -3524.097253 
L 97.248791 -3604.906495 
L 91.381821 -3604.906495 
L 91.381821 -3714.12451 
L 85.514851 -3714.12451 
L 85.514851 -3771.172606 
L 79.647881 -3771.172606 
L 79.647881 -3904.41653 
L 73.780911 -3904.41653 
L 73.780911 -3967.657761 
L 67.91394 -3967.657761 
L 67.91394 -4166.717514 
L 62.04697 -4166.717514 
L 62.04697 -4203.894915 
L 56.18 -4203.894915 
L 56.18 -4203.894915 
z
" clip-path="url(#p33cc1db1fa)" style="fill: #1f77b4; fill-opacity: 0.5; stroke: #1f77b4; stroke-opacity: 0.5"/>
   </g>
   <g id="PolyCollection_2">
    <path d="M 56.18 -3870.715881 
L 56.18 -679.39908 
L 56.18 -679.39908 
L 62.04697 -679.39908 
L 62.04697 -613.646876 
L 67.91394 -613.646876 
L 67.91394 -460.799675 
L 73.780911 -460.799675 
L 73.780911 -428.388232 
L 79.647881 -428.388232 
L 79.647881 -155.176539 
L 85.514851 -155.176539 
L 85.514851 -223.708134 
L 91.381821 -223.708134 
L 91.381821 54.94229 
L 97.248791 54.94229 
L 97.248791 69.612399 
L 103.115761 69.612399 
L 103.115761 182.483221 
L 108.982732 182.483221 
L 108.982732 176.614676 
L 114.849702 176.614676 
L 114.849702 287.235905 
L 120.716672 287.235905 
L 120.716672 409.844158 
L 126.583642 409.844158 
L 126.583642 543.93054 
L 132.450612 543.93054 
L 132.450612 552.228899 
L 138.317582 552.228899 
L 138.317582 658.942342 
L 144.184553 658.942342 
L 144.184553 734.394024 
L 150.051523 734.394024 
L 150.051523 827.402835 
L 155.918493 827.402835 
L 155.918493 839.717545 
L 161.785463 839.717545 
L 161.785463 955.851902 
L 167.652433 955.851902 
L 167.652433 996.877434 
L 173.519403 996.877434 
L 173.519403 1073.578822 
L 179.386374 1073.578822 
L 179.386374 1102.323665 
L 185.253344 1102.323665 
L 185.253344 1161.106191 
L 191.120314 1161.106191 
L 191.120314 1217.174444 
L 196.987284 1217.174444 
L 196.987284 1289.120842 
L 202.854254 1289.120842 
L 202.854254 1354.908489 
L 208.721224 1354.908489 
L 208.721224 1380.809247 
L 214.588195 1380.809247 
L 214.588195 1424.643432 
L 220.455165 1424.643432 
L 220.455165 1527.790239 
L 226.322135 1527.790239 
L 226.322135 1567.491311 
L 232.189105 1567.491311 
L 232.189105 1578.960764 
L 238.056075 1578.960764 
L 238.056075 1676.955165 
L 243.923046 1676.955165 
L 243.923046 1767.201338 
L 249.790016 1767.201338 
L 249.790016 1819.121092 
L 255.656986 1819.121092 
L 255.656986 1877.034859 
L 261.523956 1877.034859 
L 261.523956 1933.364823 
L 267.390926 1933.364823 
L 267.390926 2107.485995 
L 273.257896 2107.485995 
L 273.257896 2158.523814 
L 279.124867 2158.523814 
L 279.124867 2271.317197 
L 284.991837 2271.317197 
L 284.991837 2303.706202 
L 290.858807 2303.706202 
L 290.858807 2499.487806 
L 296.725777 2499.487806 
L 296.725777 2558.89867 
L 302.592747 2558.89867 
L 302.592747 2581.825765 
L 308.459717 2581.825765 
L 308.459717 2742.124925 
L 314.326688 2742.124925 
L 314.326688 2807.324967 
L 320.193658 2807.324967 
L 320.193658 2846.711379 
L 326.060628 2846.711379 
L 326.060628 3029.457215 
L 331.927598 3029.457215 
L 331.927598 3213.865596 
L 337.794568 3213.865596 
L 337.794568 3217.135768 
L 343.661538 3217.135768 
L 343.661538 25.818966 
L 343.661538 25.818966 
L 337.794568 25.818966 
L 337.794568 22.548794 
L 331.927598 22.548794 
L 331.927598 -161.859586 
L 326.060628 -161.859586 
L 326.060628 -344.605422 
L 320.193658 -344.605422 
L 320.193658 -383.991835 
L 314.326688 -383.991835 
L 314.326688 -449.191877 
L 308.459717 -449.191877 
L 308.459717 -609.491036 
L 302.592747 -609.491036 
L 302.592747 -632.418131 
L 296.725777 -632.418131 
L 296.725777 -691.828995 
L 290.858807 -691.828995 
L 290.858807 -887.610599 
L 284.991837 -887.610599 
L 284.991837 -919.999604 
L 279.124867 -919.999604 
L 279.124867 -1032.792988 
L 273.257896 -1032.792988 
L 273.257896 -1083.830806 
L 267.390926 -1083.830806 
L 267.390926 -1257.951978 
L 261.523956 -1257.951978 
L 261.523956 -1314.281943 
L 255.656986 -1314.281943 
L 255.656986 -1372.195709 
L 249.790016 -1372.195709 
L 249.790016 -1424.115464 
L 243.923046 -1424.115464 
L 243.923046 -1514.361636 
L 238.056075 -1514.361636 
L 238.056075 -1612.356037 
L 232.189105 -1612.356037 
L 232.189105 -1623.82549 
L 226.322135 -1623.82549 
L 226.322135 -1663.526562 
L 220.455165 -1663.526562 
L 220.455165 -1766.673369 
L 214.588195 -1766.673369 
L 214.588195 -1810.507554 
L 208.721224 -1810.507554 
L 208.721224 -1836.408312 
L 202.854254 -1836.408312 
L 202.854254 -1902.195959 
L 196.987284 -1902.195959 
L 196.987284 -1974.142357 
L 191.120314 -1974.142357 
L 191.120314 -2030.21061 
L 185.253344 -2030.21061 
L 185.253344 -2088.993136 
L 179.386374 -2088.993136 
L 179.386374 -2117.737979 
L 173.519403 -2117.737979 
L 173.519403 -2194.439368 
L 167.652433 -2194.439368 
L 167.652433 -2235.464899 
L 161.785463 -2235.464899 
L 161.785463 -2351.599257 
L 155.918493 -2351.599257 
L 155.918493 -2363.913967 
L 150.051523 -2363.913967 
L 150.051523 -2456.922777 
L 144.184553 -2456.922777 
L 144.184553 -2532.37446 
L 138.317582 -2532.37446 
L 138.317582 -2639.087902 
L 132.450612 -2639.087902 
L 132.450612 -2647.386261 
L 126.583642 -2647.386261 
L 126.583642 -2781.472644 
L 120.716672 -2781.472644 
L 120.716672 -2904.080896 
L 114.849702 -2904.080896 
L 114.849702 -3014.702126 
L 108.982732 -3014.702126 
L 108.982732 -3008.83358 
L 103.115761 -3008.83358 
L 103.115761 -3121.704402 
L 97.248791 -3121.704402 
L 97.248791 -3136.374511 
L 91.381821 -3136.374511 
L 91.381821 -3415.024935 
L 85.514851 -3415.024935 
L 85.514851 -3346.49334 
L 79.647881 -3346.49334 
L 79.647881 -3619.705033 
L 73.780911 -3619.705033 
L 73.780911 -3652.116476 
L 67.91394 -3652.116476 
L 67.91394 -3804.963677 
L 62.04697 -3804.963677 
L 62.04697 -3870.715881 
L 56.18 -3870.715881 
L 56.18 -3870.715881 
z
" clip-path="url(#p33cc1db1fa)" style="fill: #ff7f0e; fill-opacity: 0.5; stroke: #ff7f0e; stroke-opacity: 0.5"/>
   </g>
   <g id="matplotlib.axis_1">
    <g id="xtick_1">
     <g id="line2d_1">
      <path d="M 74.718664 219.688654 
L 74.718664 26.64 
" clip-path="url(#p33cc1db1fa)" style="fill: none; stroke: #b0b0b0; stroke-width: 0.8; stroke-linecap: square"/>
     </g>
     <g id="line2d_2">
      <defs>
       <path id="m90948bea46" d="M 0 0 
L 0 3.5 
" style="stroke: #000000; stroke-width: 0.8"/>
      </defs>
      <g>
       <use xlink:href="#m90948bea46" x="74.718664" y="219.688654" style="stroke: #000000; stroke-width: 0.8"/>
      </g>
     </g>
     <g id="text_1">
      <!-- −100 -->
      <g transform="translate(60.985071 234.287091) scale(0.1 -0.1)">
       <defs>
        <path id="DejaVuSans-2212" d="M 678 2272 
L 4684 2272 
L 4684 1741 
L 678 1741 
L 678 2272 
z
" transform="scale(0.015625)"/>
        <path id="DejaVuSans-31" d="M 794 531 
L 1825 531 
L 1825 4091 
L 703 3866 
L 703 4441 
L 1819 4666 
L 2450 4666 
L 2450 531 
L 3481 531 
L 3481 0 
L 794 0 
L 794 531 
z
" transform="scale(0.015625)"/>
        <path id="DejaVuSans-30" d="M 2034 4250 
Q 1547 4250 1301 3770 
Q 1056 3291 1056 2328 
Q 1056 1369 1301 889 
Q 1547 409 2034 409 
Q 2525 409 2770 889 
Q 3016 1369 3016 2328 
Q 3016 3291 2770 3770 
Q 2525 4250 2034 4250 
z
M 2034 4750 
Q 2819 4750 3233 4129 
Q 3647 3509 3647 2328 
Q 3647 1150 3233 529 
Q 2819 -91 2034 -91 
Q 1250 -91 836 529 
Q 422 1150 422 2328 
Q 422 3509 836 4129 
Q 1250 4750 2034 4750 
z
" transform="scale(0.015625)"/>
       </defs>
       <use xlink:href="#DejaVuSans-2212"/>
       <use xlink:href="#DejaVuSans-31" x="83.789062"/>
       <use xlink:href="#DejaVuSans-30" x="147.412109"/>
       <use xlink:href="#DejaVuSans-30" x="211.035156"/>
      </g>
     </g>
    </g>
    <g id="xtick_2">
     <g id="line2d_3">
      <path d="M 137.815633 219.688654 
L 137.815633 26.64 
" clip-path="url(#p33cc1db1fa)" style="fill: none; stroke: #b0b0b0; stroke-width: 0.8; stroke-linecap: square"/>
     </g>
     <g id="line2d_4">
      <g>
       <use xlink:href="#m90948bea46" x="137.815633" y="219.688654" style="stroke: #000000; stroke-width: 0.8"/>
      </g>
     </g>
     <g id="text_2">
      <!-- −50 -->
      <g transform="translate(127.263289 234.287091) scale(0.1 -0.1)">
       <defs>
        <path id="DejaVuSans-35" d="M 691 4666 
L 3169 4666 
L 3169 4134 
L 1269 4134 
L 1269 2991 
Q 1406 3038 1543 3061 
Q 1681 3084 1819 3084 
Q 2600 3084 3056 2656 
Q 3513 2228 3513 1497 
Q 3513 744 3044 326 
Q 2575 -91 1722 -91 
Q 1428 -91 1123 -41 
Q 819 9 494 109 
L 494 744 
Q 775 591 1075 516 
Q 1375 441 1709 441 
Q 2250 441 2565 725 
Q 2881 1009 2881 1497 
Q 2881 1984 2565 2268 
Q 2250 2553 1709 2553 
Q 1456 2553 1204 2497 
Q 953 2441 691 2322 
L 691 4666 
z
" transform="scale(0.015625)"/>
       </defs>
       <use xlink:href="#DejaVuSans-2212"/>
       <use xlink:href="#DejaVuSans-35" x="83.789062"/>
       <use xlink:href="#DejaVuSans-30" x="147.412109"/>
      </g>
     </g>
    </g>
    <g id="xtick_3">
     <g id="line2d_5">
      <path d="M 200.912601 219.688654 
L 200.912601 26.64 
" clip-path="url(#p33cc1db1fa)" style="fill: none; stroke: #b0b0b0; stroke-width: 0.8; stroke-linecap: square"/>
     </g>
     <g id="line2d_6">
      <g>
       <use xlink:href="#m90948bea46" x="200.912601" y="219.688654" style="stroke: #000000; stroke-width: 0.8"/>
      </g>
     </g>
     <g id="text_3">
      <!-- 0 -->
      <g transform="translate(197.731351 234.287091) scale(0.1 -0.1)">
       <use xlink:href="#DejaVuSans-30"/>
      </g>
     </g>
    </g>
    <g id="xtick_4">
     <g id="line2d_7">
      <path d="M 264.009569 219.688654 
L 264.009569 26.64 
" clip-path="url(#p33cc1db1fa)" style="fill: none; stroke: #b0b0b0; stroke-width: 0.8; stroke-linecap: square"/>
     </g>
     <g id="line2d_8">
      <g>
       <use xlink:href="#m90948bea46" x="264.009569" y="219.688654" style="stroke: #000000; stroke-width: 0.8"/>
      </g>
     </g>
     <g id="text_4">
      <!-- 50 -->
      <g transform="translate(257.647069 234.287091) scale(0.1 -0.1)">
       <use xlink:href="#DejaVuSans-35"/>
       <use xlink:href="#DejaVuSans-30" x="63.623047"/>
      </g>
     </g>
    </g>
    <g id="xtick_5">
     <g id="line2d_9">
      <path d="M 327.106538 219.688654 
L 327.106538 26.64 
" clip-path="url(#p33cc1db1fa)" style="fill: none; stroke: #b0b0b0; stroke-width: 0.8; stroke-linecap: square"/>
     </g>
     <g id="line2d_10">
      <g>
       <use xlink:href="#m90948bea46" x="327.106538" y="219.688654" style="stroke: #000000; stroke-width: 0.8"/>
      </g>
     </g>
     <g id="text_5">
      <!-- 100 -->
      <g transform="translate(317.562788 234.287091) scale(0.1 -0.1)">
       <use xlink:href="#DejaVuSans-31"/>
       <use xlink:href="#DejaVuSans-30" x="63.623047"/>
       <use xlink:href="#DejaVuSans-30" x="127.246094"/>
      </g>
     </g>
    </g>
    <g id="text_6">
     <!-- True $\mathrm{t}\bar{\mathrm{t}}$ $p_{x}$ (GeV) -->
     <g transform="translate(160.220769 249.366779) scale(0.1 -0.1)">
      <defs>
       <path id="DejaVuSans-54" d="M -19 4666 
L 3928 4666 
L 3928 4134 
L 2272 4134 
L 2272 0 
L 1638 0 
L 1638 4134 
L -19 4134 
L -19 4666 
z
" transform="scale(0.015625)"/>
       <path id="DejaVuSans-72" d="M 2631 2963 
Q 2534 3019 2420 3045 
Q 2306 3072 2169 3072 
Q 1681 3072 1420 2755 
Q 1159 2438 1159 1844 
L 1159 0 
L 581 0 
L 581 3500 
L 1159 3500 
L 1159 2956 
Q 1341 3275 1631 3429 
Q 1922 3584 2338 3584 
Q 2397 3584 2469 3576 
Q 2541 3569 2628 3553 
L 2631 2963 
z
" transform="scale(0.015625)"/>
       <path id="DejaVuSans-75" d="M 544 1381 
L 544 3500 
L 1119 3500 
L 1119 1403 
Q 1119 906 1312 657 
Q 1506 409 1894 409 
Q 2359 409 2629 706 
Q 2900 1003 2900 1516 
L 2900 3500 
L 3475 3500 
L 3475 0 
L 2900 0 
L 2900 538 
Q 2691 219 2414 64 
Q 2138 -91 1772 -91 
Q 1169 -91 856 284 
Q 544 659 544 1381 
z
M 1991 3584 
L 1991 3584 
z
" transform="scale(0.015625)"/>
       <path id="DejaVuSans-65" d="M 3597 1894 
L 3597 1613 
L 953 1613 
Q 991 1019 1311 708 
Q 1631 397 2203 397 
Q 2534 397 2845 478 
Q 3156 559 3463 722 
L 3463 178 
Q 3153 47 2828 -22 
Q 2503 -91 2169 -91 
Q 1331 -91 842 396 
Q 353 884 353 1716 
Q 353 2575 817 3079 
Q 1281 3584 2069 3584 
Q 2775 3584 3186 3129 
Q 3597 2675 3597 1894 
z
M 3022 2063 
Q 3016 2534 2758 2815 
Q 2500 3097 2075 3097 
Q 1594 3097 1305 2825 
Q 1016 2553 972 2059 
L 3022 2063 
z
" transform="scale(0.015625)"/>
       <path id="DejaVuSans-20" transform="scale(0.015625)"/>
       <path id="DejaVuSans-74" d="M 1172 4494 
L 1172 3500 
L 2356 3500 
L 2356 3053 
L 1172 3053 
L 1172 1153 
Q 1172 725 1289 603 
Q 1406 481 1766 481 
L 2356 481 
L 2356 0 
L 1766 0 
Q 1100 0 847 248 
Q 594 497 594 1153 
L 594 3053 
L 172 3053 
L 172 3500 
L 594 3500 
L 594 4494 
L 1172 4494 
z
" transform="scale(0.015625)"/>
       <path id="DejaVuSans-304" d="M -2522 4769 
L -653 4769 
L -653 4306 
L -2522 4306 
L -2522 4769 
z
" transform="scale(0.015625)"/>
       <path id="DejaVuSans-Oblique-70" d="M 3175 2156 
Q 3175 2616 2975 2859 
Q 2775 3103 2400 3103 
Q 2144 3103 1911 2972 
Q 1678 2841 1497 2591 
Q 1319 2344 1212 1994 
Q 1106 1644 1106 1300 
Q 1106 863 1306 627 
Q 1506 391 1875 391 
Q 2147 391 2380 519 
Q 2613 647 2778 891 
Q 2956 1147 3065 1494 
Q 3175 1841 3175 2156 
z
M 1394 2969 
Q 1625 3272 1939 3428 
Q 2253 3584 2638 3584 
Q 3175 3584 3472 3232 
Q 3769 2881 3769 2247 
Q 3769 1728 3584 1258 
Q 3400 788 3053 416 
Q 2822 169 2531 39 
Q 2241 -91 1919 -91 
Q 1547 -91 1294 64 
Q 1041 219 916 525 
L 556 -1331 
L -19 -1331 
L 922 3500 
L 1497 3500 
L 1394 2969 
z
" transform="scale(0.015625)"/>
       <path id="DejaVuSans-Oblique-78" d="M 3841 3500 
L 2234 1784 
L 3219 0 
L 2559 0 
L 1819 1388 
L 531 0 
L -166 0 
L 1556 1844 
L 641 3500 
L 1300 3500 
L 1972 2234 
L 3144 3500 
L 3841 3500 
z
" transform="scale(0.015625)"/>
       <path id="DejaVuSans-28" d="M 1984 4856 
Q 1566 4138 1362 3434 
Q 1159 2731 1159 2009 
Q 1159 1288 1364 580 
Q 1569 -128 1984 -844 
L 1484 -844 
Q 1016 -109 783 600 
Q 550 1309 550 2009 
Q 550 2706 781 3412 
Q 1013 4119 1484 4856 
L 1984 4856 
z
" transform="scale(0.015625)"/>
       <path id="DejaVuSans-47" d="M 3809 666 
L 3809 1919 
L 2778 1919 
L 2778 2438 
L 4434 2438 
L 4434 434 
Q 4069 175 3628 42 
Q 3188 -91 2688 -91 
Q 1594 -91 976 548 
Q 359 1188 359 2328 
Q 359 3472 976 4111 
Q 1594 4750 2688 4750 
Q 3144 4750 3555 4637 
Q 3966 4525 4313 4306 
L 4313 3634 
Q 3963 3931 3569 4081 
Q 3175 4231 2741 4231 
Q 1884 4231 1454 3753 
Q 1025 3275 1025 2328 
Q 1025 1384 1454 906 
Q 1884 428 2741 428 
Q 3075 428 3337 486 
Q 3600 544 3809 666 
z
" transform="scale(0.015625)"/>
       <path id="DejaVuSans-56" d="M 1831 0 
L 50 4666 
L 709 4666 
L 2188 738 
L 3669 4666 
L 4325 4666 
L 2547 0 
L 1831 0 
z
" transform="scale(0.015625)"/>
       <path id="DejaVuSans-29" d="M 513 4856 
L 1013 4856 
Q 1481 4119 1714 3412 
Q 1947 2706 1947 2009 
Q 1947 1309 1714 600 
Q 1481 -109 1013 -844 
L 513 -844 
Q 928 -128 1133 580 
Q 1338 1288 1338 2009 
Q 1338 2731 1133 3434 
Q 928 4138 513 4856 
z
" transform="scale(0.015625)"/>
      </defs>
      <use xlink:href="#DejaVuSans-54" transform="translate(0 0.046875)"/>
      <use xlink:href="#DejaVuSans-72" transform="translate(61.083984 0.046875)"/>
      <use xlink:href="#DejaVuSans-75" transform="translate(102.197266 0.046875)"/>
      <use xlink:href="#DejaVuSans-65" transform="translate(165.576172 0.046875)"/>
      <use xlink:href="#DejaVuSans-20" transform="translate(227.099609 0.046875)"/>
      <use xlink:href="#DejaVuSans-74" transform="translate(258.886719 0.046875)"/>
      <use xlink:href="#DejaVuSans-304" transform="translate(347.304199 15.484375)"/>
      <use xlink:href="#DejaVuSans-74" transform="translate(298.095703 0.046875)"/>
      <use xlink:href="#DejaVuSans-20" transform="translate(337.304688 0.046875)"/>
      <use xlink:href="#DejaVuSans-Oblique-70" transform="translate(369.091797 0.046875)"/>
      <use xlink:href="#DejaVuSans-Oblique-78" transform="translate(432.568359 -16.359375) scale(0.7)"/>
      <use xlink:href="#DejaVuSans-20" transform="translate(476.728516 0.046875)"/>
      <use xlink:href="#DejaVuSans-28" transform="translate(508.515625 0.046875)"/>
      <use xlink:href="#DejaVuSans-47" transform="translate(547.529297 0.046875)"/>
      <use xlink:href="#DejaVuSans-65" transform="translate(625.019531 0.046875)"/>
      <use xlink:href="#DejaVuSans-56" transform="translate(686.542969 0.046875)"/>
      <use xlink:href="#DejaVuSans-29" transform="translate(754.951172 0.046875)"/>
     </g>
    </g>
   </g>
   <g id="matplotlib.axis_2">
    <g id="ytick_1">
     <g id="line2d_11">
      <path d="M 56.18 219.688654 
L 343.661538 219.688654 
" clip-path="url(#p33cc1db1fa)" style="fill: none; stroke: #b0b0b0; stroke-width: 0.8; stroke-linecap: square"/>
     </g>
     <g id="line2d_12">
      <defs>
       <path id="m7c04254a14" d="M 0 0 
L -3.5 0 
" style="stroke: #000000; stroke-width: 0.8"/>
      </defs>
      <g>
       <use xlink:href="#m7c04254a14" x="56.18" y="219.688654" style="stroke: #000000; stroke-width: 0.8"/>
      </g>
     </g>
     <g id="text_7">
      <!-- −2.0 -->
      <g transform="translate(24.897187 223.487873) scale(0.1 -0.1)">
       <defs>
        <path id="DejaVuSans-32" d="M 1228 531 
L 3431 531 
L 3431 0 
L 469 0 
L 469 531 
Q 828 903 1448 1529 
Q 2069 2156 2228 2338 
Q 2531 2678 2651 2914 
Q 2772 3150 2772 3378 
Q 2772 3750 2511 3984 
Q 2250 4219 1831 4219 
Q 1534 4219 1204 4116 
Q 875 4013 500 3803 
L 500 4441 
Q 881 4594 1212 4672 
Q 1544 4750 1819 4750 
Q 2544 4750 2975 4387 
Q 3406 4025 3406 3419 
Q 3406 3131 3298 2873 
Q 3191 2616 2906 2266 
Q 2828 2175 2409 1742 
Q 1991 1309 1228 531 
z
" transform="scale(0.015625)"/>
        <path id="DejaVuSans-2e" d="M 684 794 
L 1344 794 
L 1344 0 
L 684 0 
L 684 794 
z
" transform="scale(0.015625)"/>
       </defs>
       <use xlink:href="#DejaVuSans-2212"/>
       <use xlink:href="#DejaVuSans-32" x="83.789062"/>
       <use xlink:href="#DejaVuSans-2e" x="147.412109"/>
       <use xlink:href="#DejaVuSans-30" x="179.199219"/>
      </g>
     </g>
    </g>
    <g id="ytick_2">
     <g id="line2d_13">
      <path d="M 56.18 195.557572 
L 343.661538 195.557572 
" clip-path="url(#p33cc1db1fa)" style="fill: none; stroke: #b0b0b0; stroke-width: 0.8; stroke-linecap: square"/>
     </g>
     <g id="line2d_14">
      <g>
       <use xlink:href="#m7c04254a14" x="56.18" y="195.557572" style="stroke: #000000; stroke-width: 0.8"/>
      </g>
     </g>
     <g id="text_8">
      <!-- −1.5 -->
      <g transform="translate(24.897187 199.356791) scale(0.1 -0.1)">
       <use xlink:href="#DejaVuSans-2212"/>
       <use xlink:href="#DejaVuSans-31" x="83.789062"/>
       <use xlink:href="#DejaVuSans-2e" x="147.412109"/>
       <use xlink:href="#DejaVuSans-35" x="179.199219"/>
      </g>
     </g>
    </g>
    <g id="ytick_3">
     <g id="line2d_15">
      <path d="M 56.18 171.42649 
L 343.661538 171.42649 
" clip-path="url(#p33cc1db1fa)" style="fill: none; stroke: #b0b0b0; stroke-width: 0.8; stroke-linecap: square"/>
     </g>
     <g id="line2d_16">
      <g>
       <use xlink:href="#m7c04254a14" x="56.18" y="171.42649" style="stroke: #000000; stroke-width: 0.8"/>
      </g>
     </g>
     <g id="text_9">
      <!-- −1.0 -->
      <g transform="translate(24.897187 175.225709) scale(0.1 -0.1)">
       <use xlink:href="#DejaVuSans-2212"/>
       <use xlink:href="#DejaVuSans-31" x="83.789062"/>
       <use xlink:href="#DejaVuSans-2e" x="147.412109"/>
       <use xlink:href="#DejaVuSans-30" x="179.199219"/>
      </g>
     </g>
    </g>
    <g id="ytick_4">
     <g id="line2d_17">
      <path d="M 56.18 147.295409 
L 343.661538 147.295409 
" clip-path="url(#p33cc1db1fa)" style="fill: none; stroke: #b0b0b0; stroke-width: 0.8; stroke-linecap: square"/>
     </g>
     <g id="line2d_18">
      <g>
       <use xlink:href="#m7c04254a14" x="56.18" y="147.295409" style="stroke: #000000; stroke-width: 0.8"/>
      </g>
     </g>
     <g id="text_10">
      <!-- −0.5 -->
      <g transform="translate(24.897187 151.094627) scale(0.1 -0.1)">
       <use xlink:href="#DejaVuSans-2212"/>
       <use xlink:href="#DejaVuSans-30" x="83.789062"/>
       <use xlink:href="#DejaVuSans-2e" x="147.412109"/>
       <use xlink:href="#DejaVuSans-35" x="179.199219"/>
      </g>
     </g>
    </g>
    <g id="ytick_5">
     <g id="line2d_19">
      <path d="M 56.18 123.164327 
L 343.661538 123.164327 
" clip-path="url(#p33cc1db1fa)" style="fill: none; stroke: #b0b0b0; stroke-width: 0.8; stroke-linecap: square"/>
     </g>
     <g id="line2d_20">
      <g>
       <use xlink:href="#m7c04254a14" x="56.18" y="123.164327" style="stroke: #000000; stroke-width: 0.8"/>
      </g>
     </g>
     <g id="text_11">
      <!-- 0.0 -->
      <g transform="translate(33.276875 126.963546) scale(0.1 -0.1)">
       <use xlink:href="#DejaVuSans-30"/>
       <use xlink:href="#DejaVuSans-2e" x="63.623047"/>
       <use xlink:href="#DejaVuSans-30" x="95.410156"/>
      </g>
     </g>
    </g>
    <g id="ytick_6">
     <g id="line2d_21">
      <path d="M 56.18 99.033245 
L 343.661538 99.033245 
" clip-path="url(#p33cc1db1fa)" style="fill: none; stroke: #b0b0b0; stroke-width: 0.8; stroke-linecap: square"/>
     </g>
     <g id="line2d_22">
      <g>
       <use xlink:href="#m7c04254a14" x="56.18" y="99.033245" style="stroke: #000000; stroke-width: 0.8"/>
      </g>
     </g>
     <g id="text_12">
      <!-- 0.5 -->
      <g transform="translate(33.276875 102.832464) scale(0.1 -0.1)">
       <use xlink:href="#DejaVuSans-30"/>
       <use xlink:href="#DejaVuSans-2e" x="63.623047"/>
       <use xlink:href="#DejaVuSans-35" x="95.410156"/>
      </g>
     </g>
    </g>
    <g id="ytick_7">
     <g id="line2d_23">
      <path d="M 56.18 74.902163 
L 343.661538 74.902163 
" clip-path="url(#p33cc1db1fa)" style="fill: none; stroke: #b0b0b0; stroke-width: 0.8; stroke-linecap: square"/>
     </g>
     <g id="line2d_24">
      <g>
       <use xlink:href="#m7c04254a14" x="56.18" y="74.902163" style="stroke: #000000; stroke-width: 0.8"/>
      </g>
     </g>
     <g id="text_13">
      <!-- 1.0 -->
      <g transform="translate(33.276875 78.701382) scale(0.1 -0.1)">
       <use xlink:href="#DejaVuSans-31"/>
       <use xlink:href="#DejaVuSans-2e" x="63.623047"/>
       <use xlink:href="#DejaVuSans-30" x="95.410156"/>
      </g>
     </g>
    </g>
    <g id="ytick_8">
     <g id="line2d_25">
      <path d="M 56.18 50.771082 
L 343.661538 50.771082 
" clip-path="url(#p33cc1db1fa)" style="fill: none; stroke: #b0b0b0; stroke-width: 0.8; stroke-linecap: square"/>
     </g>
     <g id="line2d_26">
      <g>
       <use xlink:href="#m7c04254a14" x="56.18" y="50.771082" style="stroke: #000000; stroke-width: 0.8"/>
      </g>
     </g>
     <g id="text_14">
      <!-- 1.5 -->
      <g transform="translate(33.276875 54.5703) scale(0.1 -0.1)">
       <use xlink:href="#DejaVuSans-31"/>
       <use xlink:href="#DejaVuSans-2e" x="63.623047"/>
       <use xlink:href="#DejaVuSans-35" x="95.410156"/>
      </g>
     </g>
    </g>
    <g id="ytick_9">
     <g id="line2d_27">
      <path d="M 56.18 26.64 
L 343.661538 26.64 
" clip-path="url(#p33cc1db1fa)" style="fill: none; stroke: #b0b0b0; stroke-width: 0.8; stroke-linecap: square"/>
     </g>
     <g id="line2d_28">
      <g>
       <use xlink:href="#m7c04254a14" x="56.18" y="26.64" style="stroke: #000000; stroke-width: 0.8"/>
      </g>
     </g>
     <g id="text_15">
      <!-- 2.0 -->
      <g transform="translate(33.276875 30.439219) scale(0.1 -0.1)">
       <use xlink:href="#DejaVuSans-32"/>
       <use xlink:href="#DejaVuSans-2e" x="63.623047"/>
       <use xlink:href="#DejaVuSans-30" x="95.410156"/>
      </g>
     </g>
    </g>
    <g id="text_16">
     <!-- Bias -->
     <g transform="translate(18.8175 133.652608) rotate(-90) scale(0.1 -0.1)">
      <defs>
       <path id="DejaVuSans-42" d="M 1259 2228 
L 1259 519 
L 2272 519 
Q 2781 519 3026 730 
Q 3272 941 3272 1375 
Q 3272 1813 3026 2020 
Q 2781 2228 2272 2228 
L 1259 2228 
z
M 1259 4147 
L 1259 2741 
L 2194 2741 
Q 2656 2741 2882 2914 
Q 3109 3088 3109 3444 
Q 3109 3797 2882 3972 
Q 2656 4147 2194 4147 
L 1259 4147 
z
M 628 4666 
L 2241 4666 
Q 2963 4666 3353 4366 
Q 3744 4066 3744 3513 
Q 3744 3084 3544 2831 
Q 3344 2578 2956 2516 
Q 3422 2416 3680 2098 
Q 3938 1781 3938 1306 
Q 3938 681 3513 340 
Q 3088 0 2303 0 
L 628 0 
L 628 4666 
z
" transform="scale(0.015625)"/>
       <path id="DejaVuSans-69" d="M 603 3500 
L 1178 3500 
L 1178 0 
L 603 0 
L 603 3500 
z
M 603 4863 
L 1178 4863 
L 1178 4134 
L 603 4134 
L 603 4863 
z
" transform="scale(0.015625)"/>
       <path id="DejaVuSans-61" d="M 2194 1759 
Q 1497 1759 1228 1600 
Q 959 1441 959 1056 
Q 959 750 1161 570 
Q 1363 391 1709 391 
Q 2188 391 2477 730 
Q 2766 1069 2766 1631 
L 2766 1759 
L 2194 1759 
z
M 3341 1997 
L 3341 0 
L 2766 0 
L 2766 531 
Q 2569 213 2275 61 
Q 1981 -91 1556 -91 
Q 1019 -91 701 211 
Q 384 513 384 1019 
Q 384 1609 779 1909 
Q 1175 2209 1959 2209 
L 2766 2209 
L 2766 2266 
Q 2766 2663 2505 2880 
Q 2244 3097 1772 3097 
Q 1472 3097 1187 3025 
Q 903 2953 641 2809 
L 641 3341 
Q 956 3463 1253 3523 
Q 1550 3584 1831 3584 
Q 2591 3584 2966 3190 
Q 3341 2797 3341 1997 
z
" transform="scale(0.015625)"/>
       <path id="DejaVuSans-73" d="M 2834 3397 
L 2834 2853 
Q 2591 2978 2328 3040 
Q 2066 3103 1784 3103 
Q 1356 3103 1142 2972 
Q 928 2841 928 2578 
Q 928 2378 1081 2264 
Q 1234 2150 1697 2047 
L 1894 2003 
Q 2506 1872 2764 1633 
Q 3022 1394 3022 966 
Q 3022 478 2636 193 
Q 2250 -91 1575 -91 
Q 1294 -91 989 -36 
Q 684 19 347 128 
L 347 722 
Q 666 556 975 473 
Q 1284 391 1588 391 
Q 1994 391 2212 530 
Q 2431 669 2431 922 
Q 2431 1156 2273 1281 
Q 2116 1406 1581 1522 
L 1381 1569 
Q 847 1681 609 1914 
Q 372 2147 372 2553 
Q 372 3047 722 3315 
Q 1072 3584 1716 3584 
Q 2034 3584 2315 3537 
Q 2597 3491 2834 3397 
z
" transform="scale(0.015625)"/>
      </defs>
      <use xlink:href="#DejaVuSans-42"/>
      <use xlink:href="#DejaVuSans-69" x="68.603516"/>
      <use xlink:href="#DejaVuSans-61" x="96.386719"/>
      <use xlink:href="#DejaVuSans-73" x="157.666016"/>
     </g>
    </g>
   </g>
   <g id="line2d_29">
    <path d="M 196.987284 -1 
L 196.987284 91.586339 
L 202.854254 91.586339 
L 202.854254 186.615724 
L 208.721224 186.615724 
L 208.721224 248.494414 
L 214.588195 248.494414 
L 214.588195 266.846154 
" clip-path="url(#p33cc1db1fa)" style="fill: none; stroke: #1f77b4; stroke-width: 1.5; stroke-linecap: square"/>
   </g>
   <g id="line2d_30">
    <path d="M 232.189105 -1 
L 232.189105 3.280655 
L 238.056075 3.280655 
L 238.056075 101.275056 
L 243.923046 101.275056 
L 243.923046 191.521229 
L 249.790016 191.521229 
L 249.790016 243.440983 
L 255.656986 243.440983 
L 255.656986 266.846154 
" clip-path="url(#p33cc1db1fa)" style="fill: none; stroke: #ff7f0e; stroke-width: 1.5; stroke-linecap: square"/>
   </g>
   <g id="patch_3">
    <path d="M 56.18 219.688654 
L 56.18 26.64 
" style="fill: none; stroke: #000000; stroke-width: 0.8; stroke-linejoin: miter; stroke-linecap: square"/>
   </g>
   <g id="patch_4">
    <path d="M 343.661538 219.688654 
L 343.661538 26.64 
" style="fill: none; stroke: #000000; stroke-width: 0.8; stroke-linejoin: miter; stroke-linecap: square"/>
   </g>
   <g id="patch_5">
    <path d="M 56.18 219.688654 
L 343.661538 219.688654 
" style="fill: none; stroke: #000000; stroke-width: 0.8; stroke-linejoin: miter; stroke-linecap: square"/>
   </g>
   <g id="patch_6">
    <path d="M 56.18 26.64 
L 343.661538 26.64 
" style="fill: none; stroke: #000000; stroke-width: 0.8; stroke-linejoin: miter; stroke-linecap: square"/>
   </g>
   <g id="text_17">
    <!-- CMS -->
    <g transform="translate(56.18 22.956328) scale(0.169 -0.169)">
     <defs>
      <path id="TeXGyreHeros-Bold-43" d="M 4384 1594 
L 3450 1594 
C 3392 998 3014 730 2419 730 
C 1677 730 1242 1299 1242 2317 
C 1242 3347 1696 3923 2451 3923 
C 2970 3923 3309 3686 3450 3085 
L 4365 3085 
C 4282 4160 3469 4742 2419 4742 
C 1101 4742 282 3840 282 2330 
C 282 832 1094 -77 2394 -77 
C 3552 -77 4326 525 4384 1594 
z
" transform="scale(0.015625)"/>
      <path id="TeXGyreHeros-Bold-4d" d="M 4966 0 
L 4966 4666 
L 3520 4666 
L 2701 954 
L 1856 4666 
L 422 4666 
L 422 0 
L 1382 0 
L 1382 3635 
L 2221 0 
L 3181 0 
L 4006 3635 
L 4006 0 
L 4966 0 
z
" transform="scale(0.015625)"/>
      <path id="TeXGyreHeros-Bold-53" d="M 4051 1402 
C 4051 2138 3680 2483 2816 2650 
L 2086 2790 
C 1402 2925 1203 3059 1203 3398 
C 1203 3750 1517 3974 2010 3974 
C 2618 3974 2989 3718 2989 3245 
L 3885 3245 
C 3885 4230 3194 4742 2054 4742 
C 934 4742 288 4218 288 3309 
C 288 2579 653 2240 1600 2054 
L 2253 1926 
C 2893 1798 3130 1664 3130 1286 
C 3130 896 2771 691 2189 691 
C 1536 691 1139 966 1139 1466 
L 205 1466 
C 205 467 947 -77 2138 -77 
C 3341 -77 4051 454 4051 1402 
z
" transform="scale(0.015625)"/>
     </defs>
     <use xlink:href="#TeXGyreHeros-Bold-43"/>
     <use xlink:href="#TeXGyreHeros-Bold-4d" x="72.199982"/>
     <use xlink:href="#TeXGyreHeros-Bold-53" x="155.499969"/>
    </g>
   </g>
   <g id="text_18">
    <!-- Private work (CMS simulation) -->
    <g transform="translate(95.492 22.906163) scale(0.13 -0.13)">
     <defs>
      <path id="TeXGyreHeros-Italic-50" d="M 4371 3635 
C 4371 4314 3968 4666 3187 4666 
L 1254 4666 
L 262 0 
L 864 0 
L 1286 1978 
L 2746 1978 
C 3712 1978 4371 2771 4371 3635 
z
M 3757 3520 
C 3757 2957 3302 2502 2637 2502 
L 1395 2502 
L 1747 4141 
L 2989 4141 
C 3488 4141 3757 3923 3757 3520 
z
" transform="scale(0.015625)"/>
      <path id="TeXGyreHeros-Italic-72" d="M 2355 2886 
L 2470 3430 
C 2387 3443 2336 3450 2266 3450 
C 1894 3450 1606 3283 1210 2829 
L 1318 3354 
L 832 3354 
L 122 0 
L 659 0 
L 1030 1741 
C 1190 2496 1626 2886 2291 2886 
L 2355 2886 
z
" transform="scale(0.015625)"/>
      <path id="TeXGyreHeros-Italic-69" d="M 659 0 
L 1370 3354 
L 832 3354 
L 122 0 
L 659 0 
z
M 1677 4525 
L 1011 4525 
L 870 3866 
L 1536 3866 
L 1677 4525 
z
" transform="scale(0.015625)"/>
      <path id="TeXGyreHeros-Italic-76" d="M 3507 3354 
L 2925 3354 
L 1363 653 
L 1050 3354 
L 461 3354 
L 934 0 
L 1517 0 
L 3507 3354 
z
" transform="scale(0.015625)"/>
      <path id="TeXGyreHeros-Italic-61" d="M 3149 0 
L 3232 416 
C 3174 403 3149 403 3123 403 
C 2957 403 2880 461 2880 589 
C 2880 614 2880 634 2886 653 
L 3277 2490 
C 3315 2662 3315 2662 3315 2726 
C 3315 3162 2874 3450 2202 3450 
C 1312 3450 768 3072 646 2362 
L 1184 2362 
C 1312 2771 1587 2957 2061 2957 
C 2445 2957 2739 2784 2739 2547 
C 2739 2522 2733 2477 2726 2426 
L 2707 2310 
C 2662 2048 2515 1971 2061 1933 
C 1203 1850 934 1792 621 1594 
C 288 1382 102 1069 102 698 
C 102 186 454 -96 1030 -96 
C 1446 -96 1818 -38 2310 371 
L 2304 275 
C 2304 13 2502 -58 2810 -58 
C 2899 -58 2893 -45 3149 0 
z
M 2566 1651 
L 2451 1101 
C 2368 704 1805 365 1242 365 
C 877 365 666 493 666 762 
C 666 1165 954 1370 1632 1466 
C 2234 1549 2285 1555 2566 1651 
z
" transform="scale(0.015625)"/>
      <path id="TeXGyreHeros-Italic-74" d="M 1408 467 
C 1210 422 1178 416 1101 416 
C 960 416 870 486 870 589 
C 870 608 877 640 883 678 
L 1363 2925 
L 1933 2925 
L 2022 3354 
L 1453 3354 
L 1651 4275 
L 1114 4275 
L 915 3354 
L 461 3354 
L 371 2925 
L 826 2925 
L 339 659 
C 326 595 320 525 320 461 
C 320 147 538 -45 890 -45 
C 1018 -45 1216 -26 1306 0 
L 1408 467 
z
" transform="scale(0.015625)"/>
      <path id="TeXGyreHeros-Italic-65" d="M 3290 1523 
L 3302 1606 
C 3360 1914 3392 2182 3392 2355 
C 3392 2970 2861 3450 2170 3450 
C 1613 3450 1075 3187 755 2758 
C 454 2355 224 1651 224 1133 
C 224 467 717 -96 1498 -96 
C 2266 -96 2912 326 3110 1018 
L 2573 1018 
C 2355 627 2016 397 1587 397 
C 1082 397 787 685 787 1229 
C 781 1338 787 1402 819 1523 
L 3290 1523 
z
M 2816 1984 
L 934 1984 
C 1094 2547 1568 2957 2086 2957 
C 2541 2957 2829 2650 2829 2170 
C 2829 2106 2822 2061 2816 1984 
z
" transform="scale(0.015625)"/>
      <path id="TeXGyreHeros-Italic-20" transform="scale(0.015625)"/>
      <path id="TeXGyreHeros-Italic-77" d="M 4928 3354 
L 4346 3354 
L 3091 742 
L 3091 3354 
L 2349 3354 
L 1139 742 
L 1139 3354 
L 435 3354 
L 691 0 
L 1306 0 
L 2554 2675 
L 2554 0 
L 3238 0 
L 4928 3354 
z
" transform="scale(0.015625)"/>
      <path id="TeXGyreHeros-Italic-6f" d="M 3366 2253 
C 3366 2931 2906 3450 2138 3450 
C 934 3450 198 2342 198 1075 
C 198 365 698 -96 1414 -96 
C 2579 -96 3366 922 3366 2253 
z
M 2803 2131 
C 2803 1178 2266 397 1504 397 
C 1050 397 762 691 762 1203 
C 762 2131 1299 2957 2054 2957 
C 2528 2957 2803 2650 2803 2131 
z
" transform="scale(0.015625)"/>
      <path id="TeXGyreHeros-Italic-6b" d="M 2893 0 
L 1997 2195 
L 3418 3354 
L 2726 3354 
L 1005 1958 
L 1581 4666 
L 1043 4666 
L 51 0 
L 589 0 
L 864 1299 
L 1549 1862 
L 2278 0 
L 2893 0 
z
" transform="scale(0.015625)"/>
      <path id="TeXGyreHeros-Italic-28" d="M 1254 -1363 
C 1018 -749 902 -147 902 506 
C 902 1926 1459 3347 2534 4666 
L 2182 4666 
C 1069 3501 403 2042 403 742 
C 403 -19 589 -813 902 -1363 
L 1254 -1363 
z
" transform="scale(0.015625)"/>
      <path id="TeXGyreHeros-Italic-43" d="M 4384 1702 
L 3757 1702 
C 3354 787 2950 403 2125 403 
C 1459 403 1018 922 1018 1696 
C 1018 2278 1210 2925 1536 3411 
C 1926 3987 2394 4262 2982 4262 
C 3629 4262 3942 3910 3994 3219 
L 4608 3219 
C 4557 4262 3974 4781 3091 4781 
C 2342 4781 1722 4480 1222 3878 
C 717 3270 403 2381 403 1581 
C 403 563 1011 -115 2035 -115 
C 3162 -115 3840 410 4384 1702 
z
" transform="scale(0.015625)"/>
      <path id="TeXGyreHeros-Italic-4d" d="M 5542 4666 
L 4704 4666 
L 2490 653 
L 1978 4666 
L 1152 4666 
L 160 0 
L 730 0 
L 1555 3872 
L 2048 0 
L 2669 0 
L 4806 3872 
L 3981 0 
L 4550 0 
L 5542 4666 
z
" transform="scale(0.015625)"/>
      <path id="TeXGyreHeros-Italic-53" d="M 3968 1549 
C 3968 1978 3667 2349 3187 2490 
L 2086 2803 
C 1594 2944 1440 3072 1440 3354 
C 1440 3866 1952 4262 2694 4262 
C 3398 4262 3667 3994 3667 3565 
C 3667 3507 3661 3462 3642 3334 
L 4205 3334 
C 4243 3514 4256 3597 4256 3693 
C 4256 4339 3712 4781 2810 4781 
C 2150 4781 1632 4595 1286 4237 
C 1024 3968 826 3514 826 3187 
C 826 2784 1107 2445 1536 2323 
L 2630 2010 
C 3142 1862 3354 1670 3354 1370 
C 3354 838 2771 403 1901 403 
C 1178 403 845 672 845 1254 
C 845 1338 851 1395 870 1517 
L 314 1517 
C 269 1350 256 1248 256 1114 
C 256 346 832 -115 1798 -115 
C 2470 -115 3034 70 3411 422 
C 3738 723 3968 1190 3968 1549 
z
" transform="scale(0.015625)"/>
      <path id="TeXGyreHeros-Italic-73" d="M 2848 1158 
C 2848 1549 2637 1754 2074 1894 
L 1587 2016 
C 1229 2106 1043 2234 1043 2400 
C 1043 2726 1363 2957 1850 2957 
C 2227 2957 2438 2810 2438 2560 
C 2438 2515 2438 2470 2432 2419 
L 2970 2419 
C 3002 2554 3008 2611 3008 2694 
C 3008 3142 2579 3450 1958 3450 
C 1069 3450 480 2938 480 2259 
C 480 1869 704 1677 1363 1510 
L 1837 1389 
C 2240 1286 2285 1146 2285 1011 
C 2285 646 1862 397 1370 397 
C 928 397 678 570 678 890 
C 678 928 685 986 691 1050 
L 122 1050 
C 90 902 83 826 83 723 
C 83 211 531 -96 1274 -96 
C 2227 -96 2848 397 2848 1158 
z
" transform="scale(0.015625)"/>
      <path id="TeXGyreHeros-Italic-6d" d="M 4589 0 
L 5094 2387 
C 5114 2458 5133 2669 5133 2739 
C 5133 3072 4883 3450 4320 3450 
C 3904 3450 3539 3283 3162 2918 
C 3059 3277 2810 3450 2387 3450 
C 1952 3450 1658 3322 1248 2938 
L 1331 3354 
L 845 3354 
L 134 0 
L 672 0 
L 1120 2106 
C 1222 2592 1658 2989 2086 2989 
C 2400 2989 2611 2810 2611 2547 
C 2611 2477 2605 2394 2586 2310 
L 2093 0 
L 2630 0 
L 3078 2106 
C 3181 2605 3616 2989 4083 2989 
C 4384 2989 4570 2803 4570 2496 
C 4570 2400 4570 2400 4512 2182 
L 4051 0 
L 4589 0 
z
" transform="scale(0.015625)"/>
      <path id="TeXGyreHeros-Italic-75" d="M 2771 0 
L 3482 3354 
L 2944 3354 
L 2554 1504 
C 2406 813 1952 365 1408 365 
C 1062 365 838 557 838 858 
C 838 909 845 966 858 1030 
L 1350 3354 
L 813 3354 
L 275 819 
C 262 755 256 685 256 602 
C 256 166 589 -96 1139 -96 
C 1638 -96 2003 58 2368 390 
L 2285 0 
L 2771 0 
z
" transform="scale(0.015625)"/>
      <path id="TeXGyreHeros-Italic-6c" d="M 1645 4666 
L 1107 4666 
L 115 0 
L 653 0 
L 1645 4666 
z
" transform="scale(0.015625)"/>
      <path id="TeXGyreHeros-Italic-6e" d="M 3328 2406 
C 3347 2490 3354 2566 3354 2650 
C 3354 3136 3014 3450 2483 3450 
C 1997 3450 1574 3277 1242 2938 
L 1325 3354 
L 838 3354 
L 128 0 
L 666 0 
L 1056 1850 
C 1203 2554 1658 2989 2234 2989 
C 2554 2989 2790 2765 2790 2470 
C 2790 2432 2771 2336 2752 2234 
L 2278 0 
L 2816 0 
L 3328 2406 
z
" transform="scale(0.015625)"/>
      <path id="TeXGyreHeros-Italic-29" d="M 1760 2605 
C 1760 3328 1568 4134 1267 4666 
L 915 4666 
C 1158 4045 1267 3443 1267 2758 
C 1267 1376 698 -64 -365 -1363 
L -13 -1363 
C 1094 -205 1760 1274 1760 2605 
z
" transform="scale(0.015625)"/>
     </defs>
     <use xlink:href="#TeXGyreHeros-Italic-50"/>
     <use xlink:href="#TeXGyreHeros-Italic-72" x="66.699997"/>
     <use xlink:href="#TeXGyreHeros-Italic-69" x="99.999985"/>
     <use xlink:href="#TeXGyreHeros-Italic-76" x="122.199982"/>
     <use xlink:href="#TeXGyreHeros-Italic-61" x="172.199966"/>
     <use xlink:href="#TeXGyreHeros-Italic-74" x="227.799957"/>
     <use xlink:href="#TeXGyreHeros-Italic-65" x="255.599945"/>
     <use xlink:href="#TeXGyreHeros-Italic-20" x="311.199936"/>
     <use xlink:href="#TeXGyreHeros-Italic-77" x="338.999924"/>
     <use xlink:href="#TeXGyreHeros-Italic-6f" x="411.199905"/>
     <use xlink:href="#TeXGyreHeros-Italic-72" x="466.799896"/>
     <use xlink:href="#TeXGyreHeros-Italic-6b" x="500.099884"/>
     <use xlink:href="#TeXGyreHeros-Italic-20" x="550.099869"/>
     <use xlink:href="#TeXGyreHeros-Italic-28" x="577.899857"/>
     <use xlink:href="#TeXGyreHeros-Italic-43" x="611.199844"/>
     <use xlink:href="#TeXGyreHeros-Italic-4d" x="683.399826"/>
     <use xlink:href="#TeXGyreHeros-Italic-53" x="766.699814"/>
     <use xlink:href="#TeXGyreHeros-Italic-20" x="833.399811"/>
     <use xlink:href="#TeXGyreHeros-Italic-73" x="861.199799"/>
     <use xlink:href="#TeXGyreHeros-Italic-69" x="911.199783"/>
     <use xlink:href="#TeXGyreHeros-Italic-6d" x="933.39978"/>
     <use xlink:href="#TeXGyreHeros-Italic-75" x="1016.699768"/>
     <use xlink:href="#TeXGyreHeros-Italic-6c" x="1072.299759"/>
     <use xlink:href="#TeXGyreHeros-Italic-61" x="1094.499756"/>
     <use xlink:href="#TeXGyreHeros-Italic-74" x="1150.099747"/>
     <use xlink:href="#TeXGyreHeros-Italic-69" x="1177.899734"/>
     <use xlink:href="#TeXGyreHeros-Italic-6f" x="1200.099731"/>
     <use xlink:href="#TeXGyreHeros-Italic-6e" x="1255.699722"/>
     <use xlink:href="#TeXGyreHeros-Italic-29" x="1311.299713"/>
    </g>
   </g>
   <g id="legend_1">
    <g id="patch_7">
     <path d="M 105.688101 63.99625 
L 336.661538 63.99625 
Q 338.661538 63.99625 338.661538 61.99625 
L 338.661538 33.64 
Q 338.661538 31.64 336.661538 31.64 
L 105.688101 31.64 
Q 103.688101 31.64 103.688101 33.64 
L 103.688101 61.99625 
Q 103.688101 63.99625 105.688101 63.99625 
z
" style="fill: #ffffff; opacity: 0.8; stroke: #cccccc; stroke-linejoin: miter"/>
    </g>
    <g id="line2d_31">
     <path d="M 107.688101 39.738438 
L 107.688101 39.738438 
L 117.688101 39.738438 
L 117.688101 39.738438 
L 127.688101 39.738438 
" style="fill: none; stroke: #1f77b4; stroke-width: 1.5; stroke-linecap: square"/>
    </g>
    <g id="text_19">
     <!-- Network (mean abs 35.5) -->
     <g transform="translate(135.688101 43.238438) scale(0.1 -0.1)">
      <defs>
       <path id="DejaVuSans-4e" d="M 628 4666 
L 1478 4666 
L 3547 763 
L 3547 4666 
L 4159 4666 
L 4159 0 
L 3309 0 
L 1241 3903 
L 1241 0 
L 628 0 
L 628 4666 
z
" transform="scale(0.015625)"/>
       <path id="DejaVuSans-77" d="M 269 3500 
L 844 3500 
L 1563 769 
L 2278 3500 
L 2956 3500 
L 3675 769 
L 4391 3500 
L 4966 3500 
L 4050 0 
L 3372 0 
L 2619 2869 
L 1863 0 
L 1184 0 
L 269 3500 
z
" transform="scale(0.015625)"/>
       <path id="DejaVuSans-6f" d="M 1959 3097 
Q 1497 3097 1228 2736 
Q 959 2375 959 1747 
Q 959 1119 1226 758 
Q 1494 397 1959 397 
Q 2419 397 2687 759 
Q 2956 1122 2956 1747 
Q 2956 2369 2687 2733 
Q 2419 3097 1959 3097 
z
M 1959 3584 
Q 2709 3584 3137 3096 
Q 3566 2609 3566 1747 
Q 3566 888 3137 398 
Q 2709 -91 1959 -91 
Q 1206 -91 779 398 
Q 353 888 353 1747 
Q 353 2609 779 3096 
Q 1206 3584 1959 3584 
z
" transform="scale(0.015625)"/>
       <path id="DejaVuSans-6b" d="M 581 4863 
L 1159 4863 
L 1159 1991 
L 2875 3500 
L 3609 3500 
L 1753 1863 
L 3688 0 
L 2938 0 
L 1159 1709 
L 1159 0 
L 581 0 
L 581 4863 
z
" transform="scale(0.015625)"/>
       <path id="DejaVuSans-6d" d="M 3328 2828 
Q 3544 3216 3844 3400 
Q 4144 3584 4550 3584 
Q 5097 3584 5394 3201 
Q 5691 2819 5691 2113 
L 5691 0 
L 5113 0 
L 5113 2094 
Q 5113 2597 4934 2840 
Q 4756 3084 4391 3084 
Q 3944 3084 3684 2787 
Q 3425 2491 3425 1978 
L 3425 0 
L 2847 0 
L 2847 2094 
Q 2847 2600 2669 2842 
Q 2491 3084 2119 3084 
Q 1678 3084 1418 2786 
Q 1159 2488 1159 1978 
L 1159 0 
L 581 0 
L 581 3500 
L 1159 3500 
L 1159 2956 
Q 1356 3278 1631 3431 
Q 1906 3584 2284 3584 
Q 2666 3584 2933 3390 
Q 3200 3197 3328 2828 
z
" transform="scale(0.015625)"/>
       <path id="DejaVuSans-6e" d="M 3513 2113 
L 3513 0 
L 2938 0 
L 2938 2094 
Q 2938 2591 2744 2837 
Q 2550 3084 2163 3084 
Q 1697 3084 1428 2787 
Q 1159 2491 1159 1978 
L 1159 0 
L 581 0 
L 581 3500 
L 1159 3500 
L 1159 2956 
Q 1366 3272 1645 3428 
Q 1925 3584 2291 3584 
Q 2894 3584 3203 3211 
Q 3513 2838 3513 2113 
z
" transform="scale(0.015625)"/>
       <path id="DejaVuSans-62" d="M 3116 1747 
Q 3116 2381 2855 2742 
Q 2594 3103 2138 3103 
Q 1681 3103 1420 2742 
Q 1159 2381 1159 1747 
Q 1159 1113 1420 752 
Q 1681 391 2138 391 
Q 2594 391 2855 752 
Q 3116 1113 3116 1747 
z
M 1159 2969 
Q 1341 3281 1617 3432 
Q 1894 3584 2278 3584 
Q 2916 3584 3314 3078 
Q 3713 2572 3713 1747 
Q 3713 922 3314 415 
Q 2916 -91 2278 -91 
Q 1894 -91 1617 61 
Q 1341 213 1159 525 
L 1159 0 
L 581 0 
L 581 4863 
L 1159 4863 
L 1159 2969 
z
" transform="scale(0.015625)"/>
       <path id="DejaVuSans-33" d="M 2597 2516 
Q 3050 2419 3304 2112 
Q 3559 1806 3559 1356 
Q 3559 666 3084 287 
Q 2609 -91 1734 -91 
Q 1441 -91 1130 -33 
Q 819 25 488 141 
L 488 750 
Q 750 597 1062 519 
Q 1375 441 1716 441 
Q 2309 441 2620 675 
Q 2931 909 2931 1356 
Q 2931 1769 2642 2001 
Q 2353 2234 1838 2234 
L 1294 2234 
L 1294 2753 
L 1863 2753 
Q 2328 2753 2575 2939 
Q 2822 3125 2822 3475 
Q 2822 3834 2567 4026 
Q 2313 4219 1838 4219 
Q 1578 4219 1281 4162 
Q 984 4106 628 3988 
L 628 4550 
Q 988 4650 1302 4700 
Q 1616 4750 1894 4750 
Q 2613 4750 3031 4423 
Q 3450 4097 3450 3541 
Q 3450 3153 3228 2886 
Q 3006 2619 2597 2516 
z
" transform="scale(0.015625)"/>
      </defs>
      <use xlink:href="#DejaVuSans-4e"/>
      <use xlink:href="#DejaVuSans-65" x="74.804688"/>
      <use xlink:href="#DejaVuSans-74" x="136.328125"/>
      <use xlink:href="#DejaVuSans-77" x="175.537109"/>
      <use xlink:href="#DejaVuSans-6f" x="257.324219"/>
      <use xlink:href="#DejaVuSans-72" x="318.505859"/>
      <use xlink:href="#DejaVuSans-6b" x="359.619141"/>
      <use xlink:href="#DejaVuSans-20" x="417.529297"/>
      <use xlink:href="#DejaVuSans-28" x="449.316406"/>
      <use xlink:href="#DejaVuSans-6d" x="488.330078"/>
      <use xlink:href="#DejaVuSans-65" x="585.742188"/>
      <use xlink:href="#DejaVuSans-61" x="647.265625"/>
      <use xlink:href="#DejaVuSans-6e" x="708.544922"/>
      <use xlink:href="#DejaVuSans-20" x="771.923828"/>
      <use xlink:href="#DejaVuSans-61" x="803.710938"/>
      <use xlink:href="#DejaVuSans-62" x="864.990234"/>
      <use xlink:href="#DejaVuSans-73" x="928.466797"/>
      <use xlink:href="#DejaVuSans-20" x="980.566406"/>
      <use xlink:href="#DejaVuSans-33" x="1012.353516"/>
      <use xlink:href="#DejaVuSans-35" x="1075.976562"/>
      <use xlink:href="#DejaVuSans-2e" x="1139.599609"/>
      <use xlink:href="#DejaVuSans-35" x="1171.386719"/>
      <use xlink:href="#DejaVuSans-29" x="1235.009766"/>
     </g>
    </g>
    <g id="line2d_32">
     <path d="M 107.688101 54.416562 
L 107.688101 54.416562 
L 117.688101 54.416562 
L 117.688101 54.416562 
L 127.688101 54.416562 
" style="fill: none; stroke: #ff7f0e; stroke-width: 1.5; stroke-linecap: square"/>
    </g>
    <g id="text_20">
     <!-- Analytic Sonnenschein (mean abs 31.2) -->
     <g transform="translate(135.688101 57.916562) scale(0.1 -0.1)">
      <defs>
       <path id="DejaVuSans-41" d="M 2188 4044 
L 1331 1722 
L 3047 1722 
L 2188 4044 
z
M 1831 4666 
L 2547 4666 
L 4325 0 
L 3669 0 
L 3244 1197 
L 1141 1197 
L 716 0 
L 50 0 
L 1831 4666 
z
" transform="scale(0.015625)"/>
       <path id="DejaVuSans-6c" d="M 603 4863 
L 1178 4863 
L 1178 0 
L 603 0 
L 603 4863 
z
" transform="scale(0.015625)"/>
       <path id="DejaVuSans-79" d="M 2059 -325 
Q 1816 -950 1584 -1140 
Q 1353 -1331 966 -1331 
L 506 -1331 
L 506 -850 
L 844 -850 
Q 1081 -850 1212 -737 
Q 1344 -625 1503 -206 
L 1606 56 
L 191 3500 
L 800 3500 
L 1894 763 
L 2988 3500 
L 3597 3500 
L 2059 -325 
z
" transform="scale(0.015625)"/>
       <path id="DejaVuSans-63" d="M 3122 3366 
L 3122 2828 
Q 2878 2963 2633 3030 
Q 2388 3097 2138 3097 
Q 1578 3097 1268 2742 
Q 959 2388 959 1747 
Q 959 1106 1268 751 
Q 1578 397 2138 397 
Q 2388 397 2633 464 
Q 2878 531 3122 666 
L 3122 134 
Q 2881 22 2623 -34 
Q 2366 -91 2075 -91 
Q 1284 -91 818 406 
Q 353 903 353 1747 
Q 353 2603 823 3093 
Q 1294 3584 2113 3584 
Q 2378 3584 2631 3529 
Q 2884 3475 3122 3366 
z
" transform="scale(0.015625)"/>
       <path id="DejaVuSans-53" d="M 3425 4513 
L 3425 3897 
Q 3066 4069 2747 4153 
Q 2428 4238 2131 4238 
Q 1616 4238 1336 4038 
Q 1056 3838 1056 3469 
Q 1056 3159 1242 3001 
Q 1428 2844 1947 2747 
L 2328 2669 
Q 3034 2534 3370 2195 
Q 3706 1856 3706 1288 
Q 3706 609 3251 259 
Q 2797 -91 1919 -91 
Q 1588 -91 1214 -16 
Q 841 59 441 206 
L 441 856 
Q 825 641 1194 531 
Q 1563 422 1919 422 
Q 2459 422 2753 634 
Q 3047 847 3047 1241 
Q 3047 1584 2836 1778 
Q 2625 1972 2144 2069 
L 1759 2144 
Q 1053 2284 737 2584 
Q 422 2884 422 3419 
Q 422 4038 858 4394 
Q 1294 4750 2059 4750 
Q 2388 4750 2728 4690 
Q 3069 4631 3425 4513 
z
" transform="scale(0.015625)"/>
       <path id="DejaVuSans-68" d="M 3513 2113 
L 3513 0 
L 2938 0 
L 2938 2094 
Q 2938 2591 2744 2837 
Q 2550 3084 2163 3084 
Q 1697 3084 1428 2787 
Q 1159 2491 1159 1978 
L 1159 0 
L 581 0 
L 581 4863 
L 1159 4863 
L 1159 2956 
Q 1366 3272 1645 3428 
Q 1925 3584 2291 3584 
Q 2894 3584 3203 3211 
Q 3513 2838 3513 2113 
z
" transform="scale(0.015625)"/>
      </defs>
      <use xlink:href="#DejaVuSans-41"/>
      <use xlink:href="#DejaVuSans-6e" x="68.408203"/>
      <use xlink:href="#DejaVuSans-61" x="131.787109"/>
      <use xlink:href="#DejaVuSans-6c" x="193.066406"/>
      <use xlink:href="#DejaVuSans-79" x="220.849609"/>
      <use xlink:href="#DejaVuSans-74" x="280.029297"/>
      <use xlink:href="#DejaVuSans-69" x="319.238281"/>
      <use xlink:href="#DejaVuSans-63" x="347.021484"/>
      <use xlink:href="#DejaVuSans-20" x="402.001953"/>
      <use xlink:href="#DejaVuSans-53" x="433.789062"/>
      <use xlink:href="#DejaVuSans-6f" x="497.265625"/>
      <use xlink:href="#DejaVuSans-6e" x="558.447266"/>
      <use xlink:href="#DejaVuSans-6e" x="621.826172"/>
      <use xlink:href="#DejaVuSans-65" x="685.205078"/>
      <use xlink:href="#DejaVuSans-6e" x="746.728516"/>
      <use xlink:href="#DejaVuSans-73" x="810.107422"/>
      <use xlink:href="#DejaVuSans-63" x="862.207031"/>
      <use xlink:href="#DejaVuSans-68" x="917.1875"/>
      <use xlink:href="#DejaVuSans-65" x="980.566406"/>
      <use xlink:href="#DejaVuSans-69" x="1042.089844"/>
      <use xlink:href="#DejaVuSans-6e" x="1069.873047"/>
      <use xlink:href="#DejaVuSans-20" x="1133.251953"/>
      <use xlink:href="#DejaVuSans-28" x="1165.039062"/>
      <use xlink:href="#DejaVuSans-6d" x="1204.052734"/>
      <use xlink:href="#DejaVuSans-65" x="1301.464844"/>
      <use xlink:href="#DejaVuSans-61" x="1362.988281"/>
      <use xlink:href="#DejaVuSans-6e" x="1424.267578"/>
      <use xlink:href="#DejaVuSans-20" x="1487.646484"/>
      <use xlink:href="#DejaVuSans-61" x="1519.433594"/>
      <use xlink:href="#DejaVuSans-62" x="1580.712891"/>
      <use xlink:href="#DejaVuSans-73" x="1644.189453"/>
      <use xlink:href="#DejaVuSans-20" x="1696.289062"/>
      <use xlink:href="#DejaVuSans-33" x="1728.076172"/>
      <use xlink:href="#DejaVuSans-31" x="1791.699219"/>
      <use xlink:href="#DejaVuSans-2e" x="1855.322266"/>
      <use xlink:href="#DejaVuSans-32" x="1887.109375"/>
      <use xlink:href="#DejaVuSans-29" x="1950.732422"/>
     </g>
    </g>
   </g>
  </g>
 </g>
 <defs>
  <clipPath id="p33cc1db1fa">
   <rect x="56.18" y="26.64" width="287.481538" height="193.048654"/>
  </clipPath>
 </defs>
</svg>
