<?xml version="1.0" encoding="utf-8" standalone="no"?>
<!DOCTYPE svg PUBLIC "-//W3C//DTD SVG 1.1//EN"
  "http://www.w3.org/Graphics/SVG/1.1/DTD/svg11.dtd">
<svg xmlns:xlink="http://www.w3.org/1999/xlink" width="354.461538pt" height="265.846154pt" viewBox="0 0 354.461538 265.846154" xmlns="http://www.w3.org/2000/svg" version="1.1">
 <metadata>
  <rdf:RDF xmlns:dc="http://purl.org/dc/elements/1.1/" xmlns:cc="http://creativecommons.org/ns#" xmlns:rdf="http://www.w3.org/1999/02/22-rdf-syntax-ns#">
   <cc:Work>
    <dc:type rdf:resource="http://purl.org/dc/dcmitype/StillImage"/>
    <dc:date>2024-08-06T16:36:06.915872</dc:date>
    <dc:format>image/svg+xml</dc:format>
    <dc:creator>
     <cc:Agent>
      <dc:title>Matplotlib v3.7.1, https://matplotlib.org/</dc:title>
     </cc:Agent>
    </dc:creator>
   </cc:Work>
  </rdf:RDF>
 </metadata>
 <defs>
  <style type="text/css">*{stroke-linejoin: round; stroke-linecap: butt}</style>
 </defs>
 <g id="figure_1">
  <g id="patch_1">
   <path d="M 0 265.846154 
L 354.461538 265.846154 
L 354.461538 0 
L 0 0 
z
" style="fill: #ffffff"/>
  </g>
  <g id="axes_1">
   <g id="patch_2">
    <path d="M 57.44 221.438154 
L 330.881538 221.438154 
L 330.881538 26.64 
L 57.44 26.64 
z
" style="fill: #ffffff"/>
   </g>
   <g id="PolyCollection_1">
    <defs>
     <path id="mf43c455a98" d="M 57.44 -77.694408 
L 57.44 -53.747679 
L 57.44 -53.747679 
L 63.02044 -53.747679 
L 63.02044 -54.707777 
L 68.600879 -54.707777 
L 68.600879 -54.898674 
L 74.181319 -54.898674 
L 74.181319 -55.654653 
L 79.761758 -55.654653 
L 79.761758 -56.823269 
L 85.342198 -56.823269 
L 85.342198 -58.587041 
L 90.922637 -58.587041 
L 90.922637 -60.446147 
L 96.503077 -60.446147 
L 96.503077 -62.573853 
L 102.083516 -62.573853 
L 102.083516 -64.823673 
L 107.663956 -64.823673 
L 107.663956 -67.441722 
L 113.244396 -67.441722 
L 113.244396 -69.962093 
L 118.824835 -69.962093 
L 118.824835 -72.729441 
L 124.405275 -72.729441 
L 124.405275 -75.309306 
L 129.985714 -75.309306 
L 129.985714 -77.954603 
L 135.566154 -77.954603 
L 135.566154 -80.595804 
L 141.146593 -80.595804 
L 141.146593 -83.318823 
L 146.727033 -83.318823 
L 146.727033 -86.134654 
L 152.307473 -86.134654 
L 152.307473 -89.081379 
L 157.887912 -89.081379 
L 157.887912 -91.354981 
L 163.468352 -91.354981 
L 163.468352 -94.278693 
L 169.048791 -94.278693 
L 169.048791 -96.799397 
L 174.629231 -96.799397 
L 174.629231 -99.462227 
L 180.20967 -99.462227 
L 180.20967 -102.295471 
L 185.79011 -102.295471 
L 185.79011 -104.710484 
L 191.370549 -104.710484 
L 191.370549 -107.594357 
L 196.950989 -107.594357 
L 196.950989 -110.481455 
L 202.531429 -110.481455 
L 202.531429 -112.128247 
L 208.111868 -112.128247 
L 208.111868 -114.362057 
L 213.692308 -114.362057 
L 213.692308 -117.542998 
L 219.272747 -117.542998 
L 219.272747 -119.340749 
L 224.853187 -119.340749 
L 224.853187 -121.380486 
L 230.433626 -121.380486 
L 230.433626 -123.98231 
L 236.014066 -123.98231 
L 236.014066 -126.9509 
L 241.594505 -126.9509 
L 241.594505 -129.569195 
L 247.174945 -129.569195 
L 247.174945 -132.644889 
L 252.755385 -132.644889 
L 252.755385 -132.715464 
L 258.335824 -132.715464 
L 258.335824 -135.83642 
L 263.916264 -135.83642 
L 263.916264 -138.268204 
L 269.496703 -138.268204 
L 269.496703 -139.831625 
L 275.077143 -139.831625 
L 275.077143 -140.55526 
L 280.657582 -140.55526 
L 280.657582 -144.949912 
L 286.238022 -144.949912 
L 286.238022 -145.412503 
L 291.818462 -145.412503 
L 291.818462 -148.701859 
L 297.398901 -148.701859 
L 297.398901 -151.457678 
L 302.979341 -151.457678 
L 302.979341 -153.494791 
L 308.55978 -153.494791 
L 308.55978 -155.039107 
L 314.14022 -155.039107 
L 314.14022 -159.556782 
L 319.720659 -159.556782 
L 319.720659 -157.410377 
L 325.301099 -157.410377 
L 325.301099 -160.987499 
L 330.881538 -160.987499 
L 330.881538 -184.934228 
L 330.881538 -184.934228 
L 325.301099 -184.934228 
L 325.301099 -181.357106 
L 319.720659 -181.357106 
L 319.720659 -183.503511 
L 314.14022 -183.503511 
L 314.14022 -178.985836 
L 308.55978 -178.985836 
L 308.55978 -177.44152 
L 302.979341 -177.44152 
L 302.979341 -175.404407 
L 297.398901 -175.404407 
L 297.398901 -172.648587 
L 291.818462 -172.648587 
L 291.818462 -169.359232 
L 286.238022 -169.359232 
L 286.238022 -168.896641 
L 280.657582 -168.896641 
L 280.657582 -164.501989 
L 275.077143 -164.501989 
L 275.077143 -163.778354 
L 269.496703 -163.778354 
L 269.496703 -162.214933 
L 263.916264 -162.214933 
L 263.916264 -159.783149 
L 258.335824 -159.783149 
L 258.335824 -156.662193 
L 252.755385 -156.662193 
L 252.755385 -156.591618 
L 247.174945 -156.591618 
L 247.174945 -153.515924 
L 241.594505 -153.515924 
L 241.594505 -150.897629 
L 236.014066 -150.897629 
L 236.014066 -147.929039 
L 230.433626 -147.929039 
L 230.433626 -145.327215 
L 224.853187 -145.327215 
L 224.853187 -143.287478 
L 219.272747 -143.287478 
L 219.272747 -141.489727 
L 213.692308 -141.489727 
L 213.692308 -138.308786 
L 208.111868 -138.308786 
L 208.111868 -136.074976 
L 202.531429 -136.074976 
L 202.531429 -134.428183 
L 196.950989 -134.428183 
L 196.950989 -131.541086 
L 191.370549 -131.541086 
L 191.370549 -128.657213 
L 185.79011 -128.657213 
L 185.79011 -126.2422 
L 180.20967 -126.2422 
L 180.20967 -123.408956 
L 174.629231 -123.408956 
L 174.629231 -120.746126 
L 169.048791 -120.746126 
L 169.048791 -118.225422 
L 163.468352 -118.225422 
L 163.468352 -115.30171 
L 157.887912 -115.30171 
L 157.887912 -113.028108 
L 152.307473 -113.028108 
L 152.307473 -110.081383 
L 146.727033 -110.081383 
L 146.727033 -107.265552 
L 141.146593 -107.265552 
L 141.146593 -104.542533 
L 135.566154 -104.542533 
L 135.566154 -101.901332 
L 129.985714 -101.901332 
L 129.985714 -99.256035 
L 124.405275 -99.256035 
L 124.405275 -96.67617 
L 118.824835 -96.67617 
L 118.824835 -93.908822 
L 113.244396 -93.908822 
L 113.244396 -91.388451 
L 107.663956 -91.388451 
L 107.663956 -88.770402 
L 102.083516 -88.770402 
L 102.083516 -86.520582 
L 96.503077 -86.520582 
L 96.503077 -84.392876 
L 90.922637 -84.392876 
L 90.922637 -82.53377 
L 85.342198 -82.53377 
L 85.342198 -80.769998 
L 79.761758 -80.769998 
L 79.761758 -79.601382 
L 74.181319 -79.601382 
L 74.181319 -78.845403 
L 68.600879 -78.845403 
L 68.600879 -78.654506 
L 63.02044 -78.654506 
L 63.02044 -77.694408 
L 57.44 -77.694408 
L 57.44 -77.694408 
z
" style="stroke: #1f77b4; stroke-opacity: 0.5"/>
    </defs>
    <g clip-path="url(#p8e6e879864)">
     <use xlink:href="#mf43c455a98" x="0" y="265.846154" style="fill: #1f77b4; fill-opacity: 0.5; stroke: #1f77b4; stroke-opacity: 0.5"/>
    </g>
   </g>
   <g id="PolyCollection_2">
    <defs>
     <path id="m23e03dc01e" d="M 57.44 -88.158964 
L 57.44 -56.351228 
L 57.44 -56.351228 
L 63.02044 -56.351228 
L 63.02044 -56.080002 
L 68.600879 -56.080002 
L 68.600879 -53.262462 
L 74.181319 -53.262462 
L 74.181319 -54.600608 
L 79.761758 -54.600608 
L 79.761758 -56.762396 
L 85.342198 -56.762396 
L 85.342198 -59.367712 
L 90.922637 -59.367712 
L 90.922637 -62.127662 
L 96.503077 -62.127662 
L 96.503077 -65.153309 
L 102.083516 -65.153309 
L 102.083516 -68.41538 
L 107.663956 -68.41538 
L 107.663956 -71.728968 
L 113.244396 -71.728968 
L 113.244396 -75.11149 
L 118.824835 -75.11149 
L 118.824835 -78.709796 
L 124.405275 -78.709796 
L 124.405275 -81.85117 
L 129.985714 -81.85117 
L 129.985714 -85.209873 
L 135.566154 -85.209873 
L 135.566154 -88.920539 
L 141.146593 -88.920539 
L 141.146593 -92.351497 
L 146.727033 -92.351497 
L 146.727033 -95.927351 
L 152.307473 -95.927351 
L 152.307473 -99.503182 
L 157.887912 -99.503182 
L 157.887912 -102.932916 
L 163.468352 -102.932916 
L 163.468352 -106.497598 
L 169.048791 -106.497598 
L 169.048791 -109.591803 
L 174.629231 -109.591803 
L 174.629231 -113.364565 
L 180.20967 -113.364565 
L 180.20967 -116.954543 
L 185.79011 -116.954543 
L 185.79011 -120.68883 
L 191.370549 -120.68883 
L 191.370549 -123.692482 
L 196.950989 -123.692482 
L 196.950989 -127.316963 
L 202.531429 -127.316963 
L 202.531429 -129.287563 
L 208.111868 -129.287563 
L 208.111868 -133.822584 
L 213.692308 -133.822584 
L 213.692308 -136.162956 
L 219.272747 -136.162956 
L 219.272747 -140.319061 
L 224.853187 -140.319061 
L 224.853187 -140.787842 
L 230.433626 -140.787842 
L 230.433626 -145.354791 
L 236.014066 -145.354791 
L 236.014066 -150.144798 
L 241.594505 -150.144798 
L 241.594505 -154.428856 
L 247.174945 -154.428856 
L 247.174945 -155.614992 
L 252.755385 -155.614992 
L 252.755385 -158.577138 
L 258.335824 -158.577138 
L 258.335824 -163.508073 
L 263.916264 -163.508073 
L 263.916264 -168.07676 
L 269.496703 -168.07676 
L 269.496703 -170.81427 
L 275.077143 -170.81427 
L 275.077143 -168.912659 
L 280.657582 -168.912659 
L 280.657582 -174.673397 
L 286.238022 -174.673397 
L 286.238022 -175.997889 
L 291.818462 -175.997889 
L 291.818462 -179.93187 
L 297.398901 -179.93187 
L 297.398901 -186.502242 
L 302.979341 -186.502242 
L 302.979341 -189.136944 
L 308.55978 -189.136944 
L 308.55978 -191.800165 
L 314.14022 -191.800165 
L 314.14022 -198.543957 
L 319.720659 -198.543957 
L 319.720659 -196.738189 
L 325.301099 -196.738189 
L 325.301099 -196.048597 
L 330.881538 -196.048597 
L 330.881538 -227.856333 
L 330.881538 -227.856333 
L 325.301099 -227.856333 
L 325.301099 -228.545925 
L 319.720659 -228.545925 
L 319.720659 -230.351692 
L 314.14022 -230.351692 
L 314.14022 -223.6079 
L 308.55978 -223.6079 
L 308.55978 -220.94468 
L 302.979341 -220.94468 
L 302.979341 -218.309978 
L 297.398901 -218.309978 
L 297.398901 -211.739606 
L 291.818462 -211.739606 
L 291.818462 -207.805625 
L 286.238022 -207.805625 
L 286.238022 -206.481133 
L 280.657582 -206.481133 
L 280.657582 -200.720395 
L 275.077143 -200.720395 
L 275.077143 -202.622005 
L 269.496703 -202.622005 
L 269.496703 -199.884496 
L 263.916264 -199.884496 
L 263.916264 -195.315809 
L 258.335824 -195.315809 
L 258.335824 -190.384874 
L 252.755385 -190.384874 
L 252.755385 -187.422728 
L 247.174945 -187.422728 
L 247.174945 -186.236592 
L 241.594505 -186.236592 
L 241.594505 -181.952534 
L 236.014066 -181.952534 
L 236.014066 -177.162527 
L 230.433626 -177.162527 
L 230.433626 -172.595578 
L 224.853187 -172.595578 
L 224.853187 -172.126797 
L 219.272747 -172.126797 
L 219.272747 -167.970692 
L 213.692308 -167.970692 
L 213.692308 -165.63032 
L 208.111868 -165.63032 
L 208.111868 -161.095299 
L 202.531429 -161.095299 
L 202.531429 -159.124699 
L 196.950989 -159.124699 
L 196.950989 -155.500218 
L 191.370549 -155.500218 
L 191.370549 -152.496566 
L 185.79011 -152.496566 
L 185.79011 -148.762278 
L 180.20967 -148.762278 
L 180.20967 -145.172301 
L 174.629231 -145.172301 
L 174.629231 -141.399539 
L 169.048791 -141.399539 
L 169.048791 -138.305334 
L 163.468352 -138.305334 
L 163.468352 -134.740651 
L 157.887912 -134.740651 
L 157.887912 -131.310918 
L 152.307473 -131.310918 
L 152.307473 -127.735087 
L 146.727033 -127.735087 
L 146.727033 -124.159233 
L 141.146593 -124.159233 
L 141.146593 -120.728275 
L 135.566154 -120.728275 
L 135.566154 -117.017608 
L 129.985714 -117.017608 
L 129.985714 -113.658906 
L 124.405275 -113.658906 
L 124.405275 -110.517532 
L 118.824835 -110.517532 
L 118.824835 -106.919226 
L 113.244396 -106.919226 
L 113.244396 -103.536704 
L 107.663956 -103.536704 
L 107.663956 -100.223116 
L 102.083516 -100.223116 
L 102.083516 -96.961045 
L 96.503077 -96.961045 
L 96.503077 -93.935397 
L 90.922637 -93.935397 
L 90.922637 -91.175448 
L 85.342198 -91.175448 
L 85.342198 -88.570132 
L 79.761758 -88.570132 
L 79.761758 -86.408344 
L 74.181319 -86.408344 
L 74.181319 -85.070197 
L 68.600879 -85.070197 
L 68.600879 -87.887738 
L 63.02044 -87.887738 
L 63.02044 -88.158964 
L 57.44 -88.158964 
L 57.44 -88.158964 
z
" style="stroke: #ff7f0e; stroke-opacity: 0.5"/>
    </defs>
    <g clip-path="url(#p8e6e879864)">
     <use xlink:href="#m23e03dc01e" x="0" y="265.846154" style="fill: #ff7f0e; fill-opacity: 0.5; stroke: #ff7f0e; stroke-opacity: 0.5"/>
    </g>
   </g>
   <g id="matplotlib.axis_1">
    <g id="xtick_1">
     <g id="line2d_1">
      <path d="M 57.44 221.438154 
L 57.44 26.64 
" clip-path="url(#p8e6e879864)" style="fill: none; stroke: #b0b0b0; stroke-width: 0.8; stroke-linecap: square"/>
     </g>
     <g id="line2d_2">
      <defs>
       <path id="m38c413f2e6" d="M 0 0 
L 0 3.5 
" style="stroke: #000000; stroke-width: 0.8"/>
      </defs>
      <g>
       <use xlink:href="#m38c413f2e6" x="57.44" y="221.438154" style="stroke: #000000; stroke-width: 0.8"/>
      </g>
     </g>
     <g id="text_1">
      <!-- 300 -->
      <g transform="translate(47.89625 236.036591) scale(0.1 -0.1)">
       <defs>
        <path id="DejaVuSans-33" d="M 2597 2516 
Q 3050 2419 3304 2112 
Q 3559 1806 3559 1356 
Q 3559 666 3084 287 
Q 2609 -91 1734 -91 
Q 1441 -91 1130 -33 
Q 819 25 488 141 
L 488 750 
Q 750 597 1062 519 
Q 1375 441 1716 441 
Q 2309 441 2620 675 
Q 2931 909 2931 1356 
Q 2931 1769 2642 2001 
Q 2353 2234 1838 2234 
L 1294 2234 
L 1294 2753 
L 1863 2753 
Q 2328 2753 2575 2939 
Q 2822 3125 2822 3475 
Q 2822 3834 2567 4026 
Q 2313 4219 1838 4219 
Q 1578 4219 1281 4162 
Q 984 4106 628 3988 
L 628 4550 
Q 988 4650 1302 4700 
Q 1616 4750 1894 4750 
Q 2613 4750 3031 4423 
Q 3450 4097 3450 3541 
Q 3450 3153 3228 2886 
Q 3006 2619 2597 2516 
z
" transform="scale(0.015625)"/>
        <path id="DejaVuSans-30" d="M 2034 4250 
Q 1547 4250 1301 3770 
Q 1056 3291 1056 2328 
Q 1056 1369 1301 889 
Q 1547 409 2034 409 
Q 2525 409 2770 889 
Q 3016 1369 3016 2328 
Q 3016 3291 2770 3770 
Q 2525 4250 2034 4250 
z
M 2034 4750 
Q 2819 4750 3233 4129 
Q 3647 3509 3647 2328 
Q 3647 1150 3233 529 
Q 2819 -91 2034 -91 
Q 1250 -91 836 529 
Q 422 1150 422 2328 
Q 422 3509 836 4129 
Q 1250 4750 2034 4750 
z
" transform="scale(0.015625)"/>
       </defs>
       <use xlink:href="#DejaVuSans-33"/>
       <use xlink:href="#DejaVuSans-30" x="63.623047"/>
       <use xlink:href="#DejaVuSans-30" x="127.246094"/>
      </g>
     </g>
    </g>
    <g id="xtick_2">
     <g id="line2d_3">
      <path d="M 87.822393 221.438154 
L 87.822393 26.64 
" clip-path="url(#p8e6e879864)" style="fill: none; stroke: #b0b0b0; stroke-width: 0.8; stroke-linecap: square"/>
     </g>
     <g id="line2d_4">
      <g>
       <use xlink:href="#m38c413f2e6" x="87.822393" y="221.438154" style="stroke: #000000; stroke-width: 0.8"/>
      </g>
     </g>
     <g id="text_2">
      <!-- 400 -->
      <g transform="translate(78.278643 236.036591) scale(0.1 -0.1)">
       <defs>
        <path id="DejaVuSans-34" d="M 2419 4116 
L 825 1625 
L 2419 1625 
L 2419 4116 
z
M 2253 4666 
L 3047 4666 
L 3047 1625 
L 3713 1625 
L 3713 1100 
L 3047 1100 
L 3047 0 
L 2419 0 
L 2419 1100 
L 313 1100 
L 313 1709 
L 2253 4666 
z
" transform="scale(0.015625)"/>
       </defs>
       <use xlink:href="#DejaVuSans-34"/>
       <use xlink:href="#DejaVuSans-30" x="63.623047"/>
       <use xlink:href="#DejaVuSans-30" x="127.246094"/>
      </g>
     </g>
    </g>
    <g id="xtick_3">
     <g id="line2d_5">
      <path d="M 118.204786 221.438154 
L 118.204786 26.64 
" clip-path="url(#p8e6e879864)" style="fill: none; stroke: #b0b0b0; stroke-width: 0.8; stroke-linecap: square"/>
     </g>
     <g id="line2d_6">
      <g>
       <use xlink:href="#m38c413f2e6" x="118.204786" y="221.438154" style="stroke: #000000; stroke-width: 0.8"/>
      </g>
     </g>
     <g id="text_3">
      <!-- 500 -->
      <g transform="translate(108.661036 236.036591) scale(0.1 -0.1)">
       <defs>
        <path id="DejaVuSans-35" d="M 691 4666 
L 3169 4666 
L 3169 4134 
L 1269 4134 
L 1269 2991 
Q 1406 3038 1543 3061 
Q 1681 3084 1819 3084 
Q 2600 3084 3056 2656 
Q 3513 2228 3513 1497 
Q 3513 744 3044 326 
Q 2575 -91 1722 -91 
Q 1428 -91 1123 -41 
Q 819 9 494 109 
L 494 744 
Q 775 591 1075 516 
Q 1375 441 1709 441 
Q 2250 441 2565 725 
Q 2881 1009 2881 1497 
Q 2881 1984 2565 2268 
Q 2250 2553 1709 2553 
Q 1456 2553 1204 2497 
Q 953 2441 691 2322 
L 691 4666 
z
" transform="scale(0.015625)"/>
       </defs>
       <use xlink:href="#DejaVuSans-35"/>
       <use xlink:href="#DejaVuSans-30" x="63.623047"/>
       <use xlink:href="#DejaVuSans-30" x="127.246094"/>
      </g>
     </g>
    </g>
    <g id="xtick_4">
     <g id="line2d_7">
      <path d="M 148.587179 221.438154 
L 148.587179 26.64 
" clip-path="url(#p8e6e879864)" style="fill: none; stroke: #b0b0b0; stroke-width: 0.8; stroke-linecap: square"/>
     </g>
     <g id="line2d_8">
      <g>
       <use xlink:href="#m38c413f2e6" x="148.587179" y="221.438154" style="stroke: #000000; stroke-width: 0.8"/>
      </g>
     </g>
     <g id="text_4">
      <!-- 600 -->
      <g transform="translate(139.043429 236.036591) scale(0.1 -0.1)">
       <defs>
        <path id="DejaVuSans-36" d="M 2113 2584 
Q 1688 2584 1439 2293 
Q 1191 2003 1191 1497 
Q 1191 994 1439 701 
Q 1688 409 2113 409 
Q 2538 409 2786 701 
Q 3034 994 3034 1497 
Q 3034 2003 2786 2293 
Q 2538 2584 2113 2584 
z
M 3366 4563 
L 3366 3988 
Q 3128 4100 2886 4159 
Q 2644 4219 2406 4219 
Q 1781 4219 1451 3797 
Q 1122 3375 1075 2522 
Q 1259 2794 1537 2939 
Q 1816 3084 2150 3084 
Q 2853 3084 3261 2657 
Q 3669 2231 3669 1497 
Q 3669 778 3244 343 
Q 2819 -91 2113 -91 
Q 1303 -91 875 529 
Q 447 1150 447 2328 
Q 447 3434 972 4092 
Q 1497 4750 2381 4750 
Q 2619 4750 2861 4703 
Q 3103 4656 3366 4563 
z
" transform="scale(0.015625)"/>
       </defs>
       <use xlink:href="#DejaVuSans-36"/>
       <use xlink:href="#DejaVuSans-30" x="63.623047"/>
       <use xlink:href="#DejaVuSans-30" x="127.246094"/>
      </g>
     </g>
    </g>
    <g id="xtick_5">
     <g id="line2d_9">
      <path d="M 178.969573 221.438154 
L 178.969573 26.64 
" clip-path="url(#p8e6e879864)" style="fill: none; stroke: #b0b0b0; stroke-width: 0.8; stroke-linecap: square"/>
     </g>
     <g id="line2d_10">
      <g>
       <use xlink:href="#m38c413f2e6" x="178.969573" y="221.438154" style="stroke: #000000; stroke-width: 0.8"/>
      </g>
     </g>
     <g id="text_5">
      <!-- 700 -->
      <g transform="translate(169.425823 236.036591) scale(0.1 -0.1)">
       <defs>
        <path id="DejaVuSans-37" d="M 525 4666 
L 3525 4666 
L 3525 4397 
L 1831 0 
L 1172 0 
L 2766 4134 
L 525 4134 
L 525 4666 
z
" transform="scale(0.015625)"/>
       </defs>
       <use xlink:href="#DejaVuSans-37"/>
       <use xlink:href="#DejaVuSans-30" x="63.623047"/>
       <use xlink:href="#DejaVuSans-30" x="127.246094"/>
      </g>
     </g>
    </g>
    <g id="xtick_6">
     <g id="line2d_11">
      <path d="M 209.351966 221.438154 
L 209.351966 26.64 
" clip-path="url(#p8e6e879864)" style="fill: none; stroke: #b0b0b0; stroke-width: 0.8; stroke-linecap: square"/>
     </g>
     <g id="line2d_12">
      <g>
       <use xlink:href="#m38c413f2e6" x="209.351966" y="221.438154" style="stroke: #000000; stroke-width: 0.8"/>
      </g>
     </g>
     <g id="text_6">
      <!-- 800 -->
      <g transform="translate(199.808216 236.036591) scale(0.1 -0.1)">
       <defs>
        <path id="DejaVuSans-38" d="M 2034 2216 
Q 1584 2216 1326 1975 
Q 1069 1734 1069 1313 
Q 1069 891 1326 650 
Q 1584 409 2034 409 
Q 2484 409 2743 651 
Q 3003 894 3003 1313 
Q 3003 1734 2745 1975 
Q 2488 2216 2034 2216 
z
M 1403 2484 
Q 997 2584 770 2862 
Q 544 3141 544 3541 
Q 544 4100 942 4425 
Q 1341 4750 2034 4750 
Q 2731 4750 3128 4425 
Q 3525 4100 3525 3541 
Q 3525 3141 3298 2862 
Q 3072 2584 2669 2484 
Q 3125 2378 3379 2068 
Q 3634 1759 3634 1313 
Q 3634 634 3220 271 
Q 2806 -91 2034 -91 
Q 1263 -91 848 271 
Q 434 634 434 1313 
Q 434 1759 690 2068 
Q 947 2378 1403 2484 
z
M 1172 3481 
Q 1172 3119 1398 2916 
Q 1625 2713 2034 2713 
Q 2441 2713 2670 2916 
Q 2900 3119 2900 3481 
Q 2900 3844 2670 4047 
Q 2441 4250 2034 4250 
Q 1625 4250 1398 4047 
Q 1172 3844 1172 3481 
z
" transform="scale(0.015625)"/>
       </defs>
       <use xlink:href="#DejaVuSans-38"/>
       <use xlink:href="#DejaVuSans-30" x="63.623047"/>
       <use xlink:href="#DejaVuSans-30" x="127.246094"/>
      </g>
     </g>
    </g>
    <g id="xtick_7">
     <g id="line2d_13">
      <path d="M 239.734359 221.438154 
L 239.734359 26.64 
" clip-path="url(#p8e6e879864)" style="fill: none; stroke: #b0b0b0; stroke-width: 0.8; stroke-linecap: square"/>
     </g>
     <g id="line2d_14">
      <g>
       <use xlink:href="#m38c413f2e6" x="239.734359" y="221.438154" style="stroke: #000000; stroke-width: 0.8"/>
      </g>
     </g>
     <g id="text_7">
      <!-- 900 -->
      <g transform="translate(230.190609 236.036591) scale(0.1 -0.1)">
       <defs>
        <path id="DejaVuSans-39" d="M 703 97 
L 703 672 
Q 941 559 1184 500 
Q 1428 441 1663 441 
Q 2288 441 2617 861 
Q 2947 1281 2994 2138 
Q 2813 1869 2534 1725 
Q 2256 1581 1919 1581 
Q 1219 1581 811 2004 
Q 403 2428 403 3163 
Q 403 3881 828 4315 
Q 1253 4750 1959 4750 
Q 2769 4750 3195 4129 
Q 3622 3509 3622 2328 
Q 3622 1225 3098 567 
Q 2575 -91 1691 -91 
Q 1453 -91 1209 -44 
Q 966 3 703 97 
z
M 1959 2075 
Q 2384 2075 2632 2365 
Q 2881 2656 2881 3163 
Q 2881 3666 2632 3958 
Q 2384 4250 1959 4250 
Q 1534 4250 1286 3958 
Q 1038 3666 1038 3163 
Q 1038 2656 1286 2365 
Q 1534 2075 1959 2075 
z
" transform="scale(0.015625)"/>
       </defs>
       <use xlink:href="#DejaVuSans-39"/>
       <use xlink:href="#DejaVuSans-30" x="63.623047"/>
       <use xlink:href="#DejaVuSans-30" x="127.246094"/>
      </g>
     </g>
    </g>
    <g id="xtick_8">
     <g id="line2d_15">
      <path d="M 270.116752 221.438154 
L 270.116752 26.64 
" clip-path="url(#p8e6e879864)" style="fill: none; stroke: #b0b0b0; stroke-width: 0.8; stroke-linecap: square"/>
     </g>
     <g id="line2d_16">
      <g>
       <use xlink:href="#m38c413f2e6" x="270.116752" y="221.438154" style="stroke: #000000; stroke-width: 0.8"/>
      </g>
     </g>
     <g id="text_8">
      <!-- 1000 -->
      <g transform="translate(257.391752 236.036591) scale(0.1 -0.1)">
       <defs>
        <path id="DejaVuSans-31" d="M 794 531 
L 1825 531 
L 1825 4091 
L 703 3866 
L 703 4441 
L 1819 4666 
L 2450 4666 
L 2450 531 
L 3481 531 
L 3481 0 
L 794 0 
L 794 531 
z
" transform="scale(0.015625)"/>
       </defs>
       <use xlink:href="#DejaVuSans-31"/>
       <use xlink:href="#DejaVuSans-30" x="63.623047"/>
       <use xlink:href="#DejaVuSans-30" x="127.246094"/>
       <use xlink:href="#DejaVuSans-30" x="190.869141"/>
      </g>
     </g>
    </g>
    <g id="xtick_9">
     <g id="line2d_17">
      <path d="M 300.499145 221.438154 
L 300.499145 26.64 
" clip-path="url(#p8e6e879864)" style="fill: none; stroke: #b0b0b0; stroke-width: 0.8; stroke-linecap: square"/>
     </g>
     <g id="line2d_18">
      <g>
       <use xlink:href="#m38c413f2e6" x="300.499145" y="221.438154" style="stroke: #000000; stroke-width: 0.8"/>
      </g>
     </g>
     <g id="text_9">
      <!-- 1100 -->
      <g transform="translate(287.774145 236.036591) scale(0.1 -0.1)">
       <use xlink:href="#DejaVuSans-31"/>
       <use xlink:href="#DejaVuSans-31" x="63.623047"/>
       <use xlink:href="#DejaVuSans-30" x="127.246094"/>
       <use xlink:href="#DejaVuSans-30" x="190.869141"/>
      </g>
     </g>
    </g>
    <g id="xtick_10">
     <g id="line2d_19">
      <path d="M 330.881538 221.438154 
L 330.881538 26.64 
" clip-path="url(#p8e6e879864)" style="fill: none; stroke: #b0b0b0; stroke-width: 0.8; stroke-linecap: square"/>
     </g>
     <g id="line2d_20">
      <g>
       <use xlink:href="#m38c413f2e6" x="330.881538" y="221.438154" style="stroke: #000000; stroke-width: 0.8"/>
      </g>
     </g>
     <g id="text_10">
      <!-- 1200 -->
      <g transform="translate(318.156538 236.036591) scale(0.1 -0.1)">
       <defs>
        <path id="DejaVuSans-32" d="M 1228 531 
L 3431 531 
L 3431 0 
L 469 0 
L 469 531 
Q 828 903 1448 1529 
Q 2069 2156 2228 2338 
Q 2531 2678 2651 2914 
Q 2772 3150 2772 3378 
Q 2772 3750 2511 3984 
Q 2250 4219 1831 4219 
Q 1534 4219 1204 4116 
Q 875 4013 500 3803 
L 500 4441 
Q 881 4594 1212 4672 
Q 1544 4750 1819 4750 
Q 2544 4750 2975 4387 
Q 3406 4025 3406 3419 
Q 3406 3131 3298 2873 
Q 3191 2616 2906 2266 
Q 2828 2175 2409 1742 
Q 1991 1309 1228 531 
z
" transform="scale(0.015625)"/>
       </defs>
       <use xlink:href="#DejaVuSans-31"/>
       <use xlink:href="#DejaVuSans-32" x="63.623047"/>
       <use xlink:href="#DejaVuSans-30" x="127.246094"/>
       <use xlink:href="#DejaVuSans-30" x="190.869141"/>
      </g>
     </g>
    </g>
    <g id="text_11">
     <!-- True $m_{\mathrm{t}\bar{\mathrm{t}}}$ (GeV) -->
     <g transform="translate(157.560769 249.714716) scale(0.1 -0.1)">
      <defs>
       <path id="DejaVuSans-54" d="M -19 4666 
L 3928 4666 
L 3928 4134 
L 2272 4134 
L 2272 0 
L 1638 0 
L 1638 4134 
L -19 4134 
L -19 4666 
z
" transform="scale(0.015625)"/>
       <path id="DejaVuSans-72" d="M 2631 2963 
Q 2534 3019 2420 3045 
Q 2306 3072 2169 3072 
Q 1681 3072 1420 2755 
Q 1159 2438 1159 1844 
L 1159 0 
L 581 0 
L 581 3500 
L 1159 3500 
L 1159 2956 
Q 1341 3275 1631 3429 
Q 1922 3584 2338 3584 
Q 2397 3584 2469 3576 
Q 2541 3569 2628 3553 
L 2631 2963 
z
" transform="scale(0.015625)"/>
       <path id="DejaVuSans-75" d="M 544 1381 
L 544 3500 
L 1119 3500 
L 1119 1403 
Q 1119 906 1312 657 
Q 1506 409 1894 409 
Q 2359 409 2629 706 
Q 2900 1003 2900 1516 
L 2900 3500 
L 3475 3500 
L 3475 0 
L 2900 0 
L 2900 538 
Q 2691 219 2414 64 
Q 2138 -91 1772 -91 
Q 1169 -91 856 284 
Q 544 659 544 1381 
z
M 1991 3584 
L 1991 3584 
z
" transform="scale(0.015625)"/>
       <path id="DejaVuSans-65" d="M 3597 1894 
L 3597 1613 
L 953 1613 
Q 991 1019 1311 708 
Q 1631 397 2203 397 
Q 2534 397 2845 478 
Q 3156 559 3463 722 
L 3463 178 
Q 3153 47 2828 -22 
Q 2503 -91 2169 -91 
Q 1331 -91 842 396 
Q 353 884 353 1716 
Q 353 2575 817 3079 
Q 1281 3584 2069 3584 
Q 2775 3584 3186 3129 
Q 3597 2675 3597 1894 
z
M 3022 2063 
Q 3016 2534 2758 2815 
Q 2500 3097 2075 3097 
Q 1594 3097 1305 2825 
Q 1016 2553 972 2059 
L 3022 2063 
z
" transform="scale(0.015625)"/>
       <path id="DejaVuSans-20" transform="scale(0.015625)"/>
       <path id="DejaVuSans-Oblique-6d" d="M 5747 2113 
L 5338 0 
L 4763 0 
L 5166 2094 
Q 5191 2228 5203 2325 
Q 5216 2422 5216 2491 
Q 5216 2772 5059 2928 
Q 4903 3084 4622 3084 
Q 4203 3084 3875 2770 
Q 3547 2456 3450 1953 
L 3066 0 
L 2491 0 
L 2900 2094 
Q 2925 2209 2937 2307 
Q 2950 2406 2950 2484 
Q 2950 2769 2794 2926 
Q 2638 3084 2363 3084 
Q 1938 3084 1609 2770 
Q 1281 2456 1184 1953 
L 800 0 
L 225 0 
L 909 3500 
L 1484 3500 
L 1375 2956 
Q 1609 3263 1923 3423 
Q 2238 3584 2597 3584 
Q 2978 3584 3223 3384 
Q 3469 3184 3519 2828 
Q 3781 3197 4126 3390 
Q 4472 3584 4856 3584 
Q 5306 3584 5551 3325 
Q 5797 3066 5797 2591 
Q 5797 2488 5784 2364 
Q 5772 2241 5747 2113 
z
" transform="scale(0.015625)"/>
       <path id="DejaVuSans-74" d="M 1172 4494 
L 1172 3500 
L 2356 3500 
L 2356 3053 
L 1172 3053 
L 1172 1153 
Q 1172 725 1289 603 
Q 1406 481 1766 481 
L 2356 481 
L 2356 0 
L 1766 0 
Q 1100 0 847 248 
Q 594 497 594 1153 
L 594 3053 
L 172 3053 
L 172 3500 
L 594 3500 
L 594 4494 
L 1172 4494 
z
" transform="scale(0.015625)"/>
       <path id="DejaVuSans-304" d="M -2522 4769 
L -653 4769 
L -653 4306 
L -2522 4306 
L -2522 4769 
z
" transform="scale(0.015625)"/>
       <path id="DejaVuSans-28" d="M 1984 4856 
Q 1566 4138 1362 3434 
Q 1159 2731 1159 2009 
Q 1159 1288 1364 580 
Q 1569 -128 1984 -844 
L 1484 -844 
Q 1016 -109 783 600 
Q 550 1309 550 2009 
Q 550 2706 781 3412 
Q 1013 4119 1484 4856 
L 1984 4856 
z
" transform="scale(0.015625)"/>
       <path id="DejaVuSans-47" d="M 3809 666 
L 3809 1919 
L 2778 1919 
L 2778 2438 
L 4434 2438 
L 4434 434 
Q 4069 175 3628 42 
Q 3188 -91 2688 -91 
Q 1594 -91 976 548 
Q 359 1188 359 2328 
Q 359 3472 976 4111 
Q 1594 4750 2688 4750 
Q 3144 4750 3555 4637 
Q 3966 4525 4313 4306 
L 4313 3634 
Q 3963 3931 3569 4081 
Q 3175 4231 2741 4231 
Q 1884 4231 1454 3753 
Q 1025 3275 1025 2328 
Q 1025 1384 1454 906 
Q 1884 428 2741 428 
Q 3075 428 3337 486 
Q 3600 544 3809 666 
z
" transform="scale(0.015625)"/>
       <path id="DejaVuSans-56" d="M 1831 0 
L 50 4666 
L 709 4666 
L 2188 738 
L 3669 4666 
L 4325 4666 
L 2547 0 
L 1831 0 
z
" transform="scale(0.015625)"/>
       <path id="DejaVuSans-29" d="M 513 4856 
L 1013 4856 
Q 1481 4119 1714 3412 
Q 1947 2706 1947 2009 
Q 1947 1309 1714 600 
Q 1481 -109 1013 -844 
L 513 -844 
Q 928 -128 1133 580 
Q 1338 1288 1338 2009 
Q 1338 2731 1133 3434 
Q 928 4138 513 4856 
z
" transform="scale(0.015625)"/>
      </defs>
      <use xlink:href="#DejaVuSans-54" transform="translate(0 0.125)"/>
      <use xlink:href="#DejaVuSans-72" transform="translate(61.083984 0.125)"/>
      <use xlink:href="#DejaVuSans-75" transform="translate(102.197266 0.125)"/>
      <use xlink:href="#DejaVuSans-65" transform="translate(165.576172 0.125)"/>
      <use xlink:href="#DejaVuSans-20" transform="translate(227.099609 0.125)"/>
      <use xlink:href="#DejaVuSans-Oblique-6d" transform="translate(258.886719 0.125)"/>
      <use xlink:href="#DejaVuSans-74" transform="translate(356.298828 -16.28125) scale(0.7)"/>
      <use xlink:href="#DejaVuSans-304" transform="translate(418.184814 -5.471875) scale(0.7)"/>
      <use xlink:href="#DejaVuSans-74" transform="translate(383.745117 -16.28125) scale(0.7)"/>
      <use xlink:href="#DejaVuSans-20" transform="translate(413.925781 0.125)"/>
      <use xlink:href="#DejaVuSans-28" transform="translate(445.712891 0.125)"/>
      <use xlink:href="#DejaVuSans-47" transform="translate(484.726562 0.125)"/>
      <use xlink:href="#DejaVuSans-65" transform="translate(562.216797 0.125)"/>
      <use xlink:href="#DejaVuSans-56" transform="translate(623.740234 0.125)"/>
      <use xlink:href="#DejaVuSans-29" transform="translate(692.148438 0.125)"/>
     </g>
    </g>
   </g>
   <g id="matplotlib.axis_2">
    <g id="ytick_1">
     <g id="line2d_21">
      <path d="M 57.44 195.548206 
L 330.881538 195.548206 
" clip-path="url(#p8e6e879864)" style="fill: none; stroke: #b0b0b0; stroke-width: 0.8; stroke-linecap: square"/>
     </g>
     <g id="line2d_22">
      <defs>
       <path id="me751063ef4" d="M 0 0 
L -3.5 0 
" style="stroke: #000000; stroke-width: 0.8"/>
      </defs>
      <g>
       <use xlink:href="#me751063ef4" x="57.44" y="195.548206" style="stroke: #000000; stroke-width: 0.8"/>
      </g>
     </g>
     <g id="text_12">
      <!-- 400 -->
      <g transform="translate(31.3525 199.347425) scale(0.1 -0.1)">
       <use xlink:href="#DejaVuSans-34"/>
       <use xlink:href="#DejaVuSans-30" x="63.623047"/>
       <use xlink:href="#DejaVuSans-30" x="127.246094"/>
      </g>
     </g>
    </g>
    <g id="ytick_2">
     <g id="line2d_23">
      <path d="M 57.44 159.695913 
L 330.881538 159.695913 
" clip-path="url(#p8e6e879864)" style="fill: none; stroke: #b0b0b0; stroke-width: 0.8; stroke-linecap: square"/>
     </g>
     <g id="line2d_24">
      <g>
       <use xlink:href="#me751063ef4" x="57.44" y="159.695913" style="stroke: #000000; stroke-width: 0.8"/>
      </g>
     </g>
     <g id="text_13">
      <!-- 600 -->
      <g transform="translate(31.3525 163.495132) scale(0.1 -0.1)">
       <use xlink:href="#DejaVuSans-36"/>
       <use xlink:href="#DejaVuSans-30" x="63.623047"/>
       <use xlink:href="#DejaVuSans-30" x="127.246094"/>
      </g>
     </g>
    </g>
    <g id="ytick_3">
     <g id="line2d_25">
      <path d="M 57.44 123.84362 
L 330.881538 123.84362 
" clip-path="url(#p8e6e879864)" style="fill: none; stroke: #b0b0b0; stroke-width: 0.8; stroke-linecap: square"/>
     </g>
     <g id="line2d_26">
      <g>
       <use xlink:href="#me751063ef4" x="57.44" y="123.84362" style="stroke: #000000; stroke-width: 0.8"/>
      </g>
     </g>
     <g id="text_14">
      <!-- 800 -->
      <g transform="translate(31.3525 127.642839) scale(0.1 -0.1)">
       <use xlink:href="#DejaVuSans-38"/>
       <use xlink:href="#DejaVuSans-30" x="63.623047"/>
       <use xlink:href="#DejaVuSans-30" x="127.246094"/>
      </g>
     </g>
    </g>
    <g id="ytick_4">
     <g id="line2d_27">
      <path d="M 57.44 87.991328 
L 330.881538 87.991328 
" clip-path="url(#p8e6e879864)" style="fill: none; stroke: #b0b0b0; stroke-width: 0.8; stroke-linecap: square"/>
     </g>
     <g id="line2d_28">
      <g>
       <use xlink:href="#me751063ef4" x="57.44" y="87.991328" style="stroke: #000000; stroke-width: 0.8"/>
      </g>
     </g>
     <g id="text_15">
      <!-- 1000 -->
      <g transform="translate(24.99 91.790546) scale(0.1 -0.1)">
       <use xlink:href="#DejaVuSans-31"/>
       <use xlink:href="#DejaVuSans-30" x="63.623047"/>
       <use xlink:href="#DejaVuSans-30" x="127.246094"/>
       <use xlink:href="#DejaVuSans-30" x="190.869141"/>
      </g>
     </g>
    </g>
    <g id="ytick_5">
     <g id="line2d_29">
      <path d="M 57.44 52.139035 
L 330.881538 52.139035 
" clip-path="url(#p8e6e879864)" style="fill: none; stroke: #b0b0b0; stroke-width: 0.8; stroke-linecap: square"/>
     </g>
     <g id="line2d_30">
      <g>
       <use xlink:href="#me751063ef4" x="57.44" y="52.139035" style="stroke: #000000; stroke-width: 0.8"/>
      </g>
     </g>
     <g id="text_16">
      <!-- 1200 -->
      <g transform="translate(24.99 55.938253) scale(0.1 -0.1)">
       <use xlink:href="#DejaVuSans-31"/>
       <use xlink:href="#DejaVuSans-32" x="63.623047"/>
       <use xlink:href="#DejaVuSans-30" x="127.246094"/>
       <use xlink:href="#DejaVuSans-30" x="190.869141"/>
      </g>
     </g>
    </g>
    <g id="text_17">
     <!-- Response (GeV) -->
     <g transform="translate(18.910312 163.914858) rotate(-90) scale(0.1 -0.1)">
      <defs>
       <path id="DejaVuSans-52" d="M 2841 2188 
Q 3044 2119 3236 1894 
Q 3428 1669 3622 1275 
L 4263 0 
L 3584 0 
L 2988 1197 
Q 2756 1666 2539 1819 
Q 2322 1972 1947 1972 
L 1259 1972 
L 1259 0 
L 628 0 
L 628 4666 
L 2053 4666 
Q 2853 4666 3247 4331 
Q 3641 3997 3641 3322 
Q 3641 2881 3436 2590 
Q 3231 2300 2841 2188 
z
M 1259 4147 
L 1259 2491 
L 2053 2491 
Q 2509 2491 2742 2702 
Q 2975 2913 2975 3322 
Q 2975 3731 2742 3939 
Q 2509 4147 2053 4147 
L 1259 4147 
z
" transform="scale(0.015625)"/>
       <path id="DejaVuSans-73" d="M 2834 3397 
L 2834 2853 
Q 2591 2978 2328 3040 
Q 2066 3103 1784 3103 
Q 1356 3103 1142 2972 
Q 928 2841 928 2578 
Q 928 2378 1081 2264 
Q 1234 2150 1697 2047 
L 1894 2003 
Q 2506 1872 2764 1633 
Q 3022 1394 3022 966 
Q 3022 478 2636 193 
Q 2250 -91 1575 -91 
Q 1294 -91 989 -36 
Q 684 19 347 128 
L 347 722 
Q 666 556 975 473 
Q 1284 391 1588 391 
Q 1994 391 2212 530 
Q 2431 669 2431 922 
Q 2431 1156 2273 1281 
Q 2116 1406 1581 1522 
L 1381 1569 
Q 847 1681 609 1914 
Q 372 2147 372 2553 
Q 372 3047 722 3315 
Q 1072 3584 1716 3584 
Q 2034 3584 2315 3537 
Q 2597 3491 2834 3397 
z
" transform="scale(0.015625)"/>
       <path id="DejaVuSans-70" d="M 1159 525 
L 1159 -1331 
L 581 -1331 
L 581 3500 
L 1159 3500 
L 1159 2969 
Q 1341 3281 1617 3432 
Q 1894 3584 2278 3584 
Q 2916 3584 3314 3078 
Q 3713 2572 3713 1747 
Q 3713 922 3314 415 
Q 2916 -91 2278 -91 
Q 1894 -91 1617 61 
Q 1341 213 1159 525 
z
M 3116 1747 
Q 3116 2381 2855 2742 
Q 2594 3103 2138 3103 
Q 1681 3103 1420 2742 
Q 1159 2381 1159 1747 
Q 1159 1113 1420 752 
Q 1681 391 2138 391 
Q 2594 391 2855 752 
Q 3116 1113 3116 1747 
z
" transform="scale(0.015625)"/>
       <path id="DejaVuSans-6f" d="M 1959 3097 
Q 1497 3097 1228 2736 
Q 959 2375 959 1747 
Q 959 1119 1226 758 
Q 1494 397 1959 397 
Q 2419 397 2687 759 
Q 2956 1122 2956 1747 
Q 2956 2369 2687 2733 
Q 2419 3097 1959 3097 
z
M 1959 3584 
Q 2709 3584 3137 3096 
Q 3566 2609 3566 1747 
Q 3566 888 3137 398 
Q 2709 -91 1959 -91 
Q 1206 -91 779 398 
Q 353 888 353 1747 
Q 353 2609 779 3096 
Q 1206 3584 1959 3584 
z
" transform="scale(0.015625)"/>
       <path id="DejaVuSans-6e" d="M 3513 2113 
L 3513 0 
L 2938 0 
L 2938 2094 
Q 2938 2591 2744 2837 
Q 2550 3084 2163 3084 
Q 1697 3084 1428 2787 
Q 1159 2491 1159 1978 
L 1159 0 
L 581 0 
L 581 3500 
L 1159 3500 
L 1159 2956 
Q 1366 3272 1645 3428 
Q 1925 3584 2291 3584 
Q 2894 3584 3203 3211 
Q 3513 2838 3513 2113 
z
" transform="scale(0.015625)"/>
      </defs>
      <use xlink:href="#DejaVuSans-52"/>
      <use xlink:href="#DejaVuSans-65" x="64.982422"/>
      <use xlink:href="#DejaVuSans-73" x="126.505859"/>
      <use xlink:href="#DejaVuSans-70" x="178.605469"/>
      <use xlink:href="#DejaVuSans-6f" x="242.082031"/>
      <use xlink:href="#DejaVuSans-6e" x="303.263672"/>
      <use xlink:href="#DejaVuSans-73" x="366.642578"/>
      <use xlink:href="#DejaVuSans-65" x="418.742188"/>
      <use xlink:href="#DejaVuSans-20" x="480.265625"/>
      <use xlink:href="#DejaVuSans-28" x="512.052734"/>
      <use xlink:href="#DejaVuSans-47" x="551.066406"/>
      <use xlink:href="#DejaVuSans-65" x="628.556641"/>
      <use xlink:href="#DejaVuSans-56" x="690.080078"/>
      <use xlink:href="#DejaVuSans-29" x="758.488281"/>
     </g>
    </g>
   </g>
   <g id="line2d_31">
    <path d="M 57.44 201.641299 
L 57.44 201.641299 
L 63.02044 201.641299 
L 63.02044 200.6812 
L 68.600879 200.6812 
L 68.600879 200.490304 
L 74.181319 200.490304 
L 74.181319 199.734325 
L 79.761758 199.734325 
L 79.761758 198.565708 
L 85.342198 198.565708 
L 85.342198 196.801936 
L 90.922637 196.801936 
L 90.922637 194.94283 
L 96.503077 194.94283 
L 96.503077 192.815124 
L 102.083516 192.815124 
L 102.083516 190.565304 
L 107.663956 190.565304 
L 107.663956 187.947256 
L 113.244396 187.947256 
L 113.244396 185.426884 
L 118.824835 185.426884 
L 118.824835 182.659536 
L 124.405275 182.659536 
L 124.405275 180.079672 
L 129.985714 180.079672 
L 129.985714 177.434375 
L 135.566154 177.434375 
L 135.566154 174.793173 
L 141.146593 174.793173 
L 141.146593 172.070154 
L 146.727033 172.070154 
L 146.727033 169.254323 
L 152.307473 169.254323 
L 152.307473 166.307599 
L 157.887912 166.307599 
L 157.887912 164.033996 
L 163.468352 164.033996 
L 163.468352 161.110285 
L 169.048791 161.110285 
L 169.048791 158.589581 
L 174.629231 158.589581 
L 174.629231 155.92675 
L 180.20967 155.92675 
L 180.20967 153.093506 
L 185.79011 153.093506 
L 185.79011 150.678494 
L 191.370549 150.678494 
L 191.370549 147.794621 
L 196.950989 147.794621 
L 196.950989 144.907523 
L 202.531429 144.907523 
L 202.531429 143.26073 
L 208.111868 143.26073 
L 208.111868 141.02692 
L 213.692308 141.02692 
L 213.692308 137.845979 
L 219.272747 137.845979 
L 219.272747 136.048228 
L 224.853187 136.048228 
L 224.853187 134.008492 
L 230.433626 134.008492 
L 230.433626 131.406667 
L 236.014066 131.406667 
L 236.014066 128.438077 
L 241.594505 128.438077 
L 241.594505 125.819782 
L 247.174945 125.819782 
L 247.174945 122.744089 
L 252.755385 122.744089 
L 252.755385 122.673513 
L 258.335824 122.673513 
L 258.335824 119.552557 
L 263.916264 119.552557 
L 263.916264 117.120773 
L 269.496703 117.120773 
L 269.496703 115.557353 
L 275.077143 115.557353 
L 275.077143 114.833717 
L 280.657582 114.833717 
L 280.657582 110.439065 
L 286.238022 110.439065 
L 286.238022 109.976475 
L 291.818462 109.976475 
L 291.818462 106.687119 
L 297.398901 106.687119 
L 297.398901 103.931299 
L 302.979341 103.931299 
L 302.979341 101.894186 
L 308.55978 101.894186 
L 308.55978 100.349871 
L 314.14022 100.349871 
L 314.14022 95.832195 
L 319.720659 95.832195 
L 319.720659 97.9786 
L 325.301099 97.9786 
L 325.301099 94.401478 
L 330.881538 94.401478 
" clip-path="url(#p8e6e879864)" style="fill: none; stroke: #1f77b4; stroke-width: 1.5; stroke-linecap: square"/>
   </g>
   <g id="line2d_32">
    <path d="M 57.44 195.530513 
L 57.44 195.530513 
L 63.02044 195.530513 
L 63.02044 195.801738 
L 68.600879 195.801738 
L 68.600879 198.619279 
L 74.181319 198.619279 
L 74.181319 197.281132 
L 79.761758 197.281132 
L 79.761758 195.119344 
L 85.342198 195.119344 
L 85.342198 192.514029 
L 90.922637 192.514029 
L 90.922637 189.754079 
L 96.503077 189.754079 
L 96.503077 186.728431 
L 102.083516 186.728431 
L 102.083516 183.46636 
L 107.663956 183.46636 
L 107.663956 180.152772 
L 113.244396 180.152772 
L 113.244396 176.770251 
L 118.824835 176.770251 
L 118.824835 173.171945 
L 124.405275 173.171945 
L 124.405275 170.03057 
L 129.985714 170.03057 
L 129.985714 166.671868 
L 135.566154 166.671868 
L 135.566154 162.961201 
L 141.146593 162.961201 
L 141.146593 159.530243 
L 146.727033 159.530243 
L 146.727033 155.954389 
L 152.307473 155.954389 
L 152.307473 152.378558 
L 157.887912 152.378558 
L 157.887912 148.948825 
L 163.468352 148.948825 
L 163.468352 145.384142 
L 169.048791 145.384142 
L 169.048791 142.289937 
L 174.629231 142.289937 
L 174.629231 138.517175 
L 180.20967 138.517175 
L 180.20967 134.927198 
L 185.79011 134.927198 
L 185.79011 131.192911 
L 191.370549 131.192911 
L 191.370549 128.189258 
L 196.950989 128.189258 
L 196.950989 124.564778 
L 202.531429 124.564778 
L 202.531429 122.594177 
L 208.111868 122.594177 
L 208.111868 118.059156 
L 213.692308 118.059156 
L 213.692308 115.718784 
L 219.272747 115.718784 
L 219.272747 111.56268 
L 224.853187 111.56268 
L 224.853187 111.093898 
L 230.433626 111.093898 
L 230.433626 106.52695 
L 236.014066 106.52695 
L 236.014066 101.736942 
L 241.594505 101.736942 
L 241.594505 97.452884 
L 247.174945 97.452884 
L 247.174945 96.266748 
L 252.755385 96.266748 
L 252.755385 93.304603 
L 258.335824 93.304603 
L 258.335824 88.373668 
L 263.916264 88.373668 
L 263.916264 83.804981 
L 269.496703 83.804981 
L 269.496703 81.067471 
L 275.077143 81.067471 
L 275.077143 82.969081 
L 280.657582 82.969081 
L 280.657582 77.208344 
L 286.238022 77.208344 
L 286.238022 75.883851 
L 291.818462 75.883851 
L 291.818462 71.94987 
L 297.398901 71.94987 
L 297.398901 65.379498 
L 302.979341 65.379498 
L 302.979341 62.744797 
L 308.55978 62.744797 
L 308.55978 60.081576 
L 314.14022 60.081576 
L 314.14022 53.337784 
L 319.720659 53.337784 
L 319.720659 55.143551 
L 325.301099 55.143551 
L 325.301099 55.833144 
L 330.881538 55.833144 
" clip-path="url(#p8e6e879864)" style="fill: none; stroke: #ff7f0e; stroke-width: 1.5; stroke-linecap: square"/>
   </g>
   <g id="patch_3">
    <path d="M 57.44 221.438154 
L 57.44 26.64 
" style="fill: none; stroke: #000000; stroke-width: 0.8; stroke-linejoin: miter; stroke-linecap: square"/>
   </g>
   <g id="patch_4">
    <path d="M 330.881538 221.438154 
L 330.881538 26.64 
" style="fill: none; stroke: #000000; stroke-width: 0.8; stroke-linejoin: miter; stroke-linecap: square"/>
   </g>
   <g id="patch_5">
    <path d="M 57.44 221.438154 
L 330.881538 221.438154 
" style="fill: none; stroke: #000000; stroke-width: 0.8; stroke-linejoin: miter; stroke-linecap: square"/>
   </g>
   <g id="patch_6">
    <path d="M 57.44 26.64 
L 330.881538 26.64 
" style="fill: none; stroke: #000000; stroke-width: 0.8; stroke-linejoin: miter; stroke-linecap: square"/>
   </g>
   <g id="text_18">
    <!-- CMS -->
    <g transform="translate(57.44 22.956328) scale(0.169 -0.169)">
     <defs>
      <path id="TeXGyreHeros-Bold-43" d="M 4384 1594 
L 3450 1594 
C 3392 998 3014 730 2419 730 
C 1677 730 1242 1299 1242 2317 
C 1242 3347 1696 3923 2451 3923 
C 2970 3923 3309 3686 3450 3085 
L 4365 3085 
C 4282 4160 3469 4742 2419 4742 
C 1101 4742 282 3840 282 2330 
C 282 832 1094 -77 2394 -77 
C 3552 -77 4326 525 4384 1594 
z
" transform="scale(0.015625)"/>
      <path id="TeXGyreHeros-Bold-4d" d="M 4966 0 
L 4966 4666 
L 3520 4666 
L 2701 954 
L 1856 4666 
L 422 4666 
L 422 0 
L 1382 0 
L 1382 3635 
L 2221 0 
L 3181 0 
L 4006 3635 
L 4006 0 
L 4966 0 
z
" transform="scale(0.015625)"/>
      <path id="TeXGyreHeros-Bold-53" d="M 4051 1402 
C 4051 2138 3680 2483 2816 2650 
L 2086 2790 
C 1402 2925 1203 3059 1203 3398 
C 1203 3750 1517 3974 2010 3974 
C 2618 3974 2989 3718 2989 3245 
L 3885 3245 
C 3885 4230 3194 4742 2054 4742 
C 934 4742 288 4218 288 3309 
C 288 2579 653 2240 1600 2054 
L 2253 1926 
C 2893 1798 3130 1664 3130 1286 
C 3130 896 2771 691 2189 691 
C 1536 691 1139 966 1139 1466 
L 205 1466 
C 205 467 947 -77 2138 -77 
C 3341 -77 4051 454 4051 1402 
z
" transform="scale(0.015625)"/>
     </defs>
     <use xlink:href="#TeXGyreHeros-Bold-43"/>
     <use xlink:href="#TeXGyreHeros-Bold-4d" x="72.199982"/>
     <use xlink:href="#TeXGyreHeros-Bold-53" x="155.499969"/>
    </g>
   </g>
   <g id="text_19">
    <!-- Private work (CMS simulation) -->
    <g transform="translate(96.752 22.897415) scale(0.13 -0.13)">
     <defs>
      <path id="TeXGyreHeros-Italic-50" d="M 4371 3635 
C 4371 4314 3968 4666 3187 4666 
L 1254 4666 
L 262 0 
L 864 0 
L 1286 1978 
L 2746 1978 
C 3712 1978 4371 2771 4371 3635 
z
M 3757 3520 
C 3757 2957 3302 2502 2637 2502 
L 1395 2502 
L 1747 4141 
L 2989 4141 
C 3488 4141 3757 3923 3757 3520 
z
" transform="scale(0.015625)"/>
      <path id="TeXGyreHeros-Italic-72" d="M 2355 2886 
L 2470 3430 
C 2387 3443 2336 3450 2266 3450 
C 1894 3450 1606 3283 1210 2829 
L 1318 3354 
L 832 3354 
L 122 0 
L 659 0 
L 1030 1741 
C 1190 2496 1626 2886 2291 2886 
L 2355 2886 
z
" transform="scale(0.015625)"/>
      <path id="TeXGyreHeros-Italic-69" d="M 659 0 
L 1370 3354 
L 832 3354 
L 122 0 
L 659 0 
z
M 1677 4525 
L 1011 4525 
L 870 3866 
L 1536 3866 
L 1677 4525 
z
" transform="scale(0.015625)"/>
      <path id="TeXGyreHeros-Italic-76" d="M 3507 3354 
L 2925 3354 
L 1363 653 
L 1050 3354 
L 461 3354 
L 934 0 
L 1517 0 
L 3507 3354 
z
" transform="scale(0.015625)"/>
      <path id="TeXGyreHeros-Italic-61" d="M 3149 0 
L 3232 416 
C 3174 403 3149 403 3123 403 
C 2957 403 2880 461 2880 589 
C 2880 614 2880 634 2886 653 
L 3277 2490 
C 3315 2662 3315 2662 3315 2726 
C 3315 3162 2874 3450 2202 3450 
C 1312 3450 768 3072 646 2362 
L 1184 2362 
C 1312 2771 1587 2957 2061 2957 
C 2445 2957 2739 2784 2739 2547 
C 2739 2522 2733 2477 2726 2426 
L 2707 2310 
C 2662 2048 2515 1971 2061 1933 
C 1203 1850 934 1792 621 1594 
C 288 1382 102 1069 102 698 
C 102 186 454 -96 1030 -96 
C 1446 -96 1818 -38 2310 371 
L 2304 275 
C 2304 13 2502 -58 2810 -58 
C 2899 -58 2893 -45 3149 0 
z
M 2566 1651 
L 2451 1101 
C 2368 704 1805 365 1242 365 
C 877 365 666 493 666 762 
C 666 1165 954 1370 1632 1466 
C 2234 1549 2285 1555 2566 1651 
z
" transform="scale(0.015625)"/>
      <path id="TeXGyreHeros-Italic-74" d="M 1408 467 
C 1210 422 1178 416 1101 416 
C 960 416 870 486 870 589 
C 870 608 877 640 883 678 
L 1363 2925 
L 1933 2925 
L 2022 3354 
L 1453 3354 
L 1651 4275 
L 1114 4275 
L 915 3354 
L 461 3354 
L 371 2925 
L 826 2925 
L 339 659 
C 326 595 320 525 320 461 
C 320 147 538 -45 890 -45 
C 1018 -45 1216 -26 1306 0 
L 1408 467 
z
" transform="scale(0.015625)"/>
      <path id="TeXGyreHeros-Italic-65" d="M 3290 1523 
L 3302 1606 
C 3360 1914 3392 2182 3392 2355 
C 3392 2970 2861 3450 2170 3450 
C 1613 3450 1075 3187 755 2758 
C 454 2355 224 1651 224 1133 
C 224 467 717 -96 1498 -96 
C 2266 -96 2912 326 3110 1018 
L 2573 1018 
C 2355 627 2016 397 1587 397 
C 1082 397 787 685 787 1229 
C 781 1338 787 1402 819 1523 
L 3290 1523 
z
M 2816 1984 
L 934 1984 
C 1094 2547 1568 2957 2086 2957 
C 2541 2957 2829 2650 2829 2170 
C 2829 2106 2822 2061 2816 1984 
z
" transform="scale(0.015625)"/>
      <path id="TeXGyreHeros-Italic-20" transform="scale(0.015625)"/>
      <path id="TeXGyreHeros-Italic-77" d="M 4928 3354 
L 4346 3354 
L 3091 742 
L 3091 3354 
L 2349 3354 
L 1139 742 
L 1139 3354 
L 435 3354 
L 691 0 
L 1306 0 
L 2554 2675 
L 2554 0 
L 3238 0 
L 4928 3354 
z
" transform="scale(0.015625)"/>
      <path id="TeXGyreHeros-Italic-6f" d="M 3366 2253 
C 3366 2931 2906 3450 2138 3450 
C 934 3450 198 2342 198 1075 
C 198 365 698 -96 1414 -96 
C 2579 -96 3366 922 3366 2253 
z
M 2803 2131 
C 2803 1178 2266 397 1504 397 
C 1050 397 762 691 762 1203 
C 762 2131 1299 2957 2054 2957 
C 2528 2957 2803 2650 2803 2131 
z
" transform="scale(0.015625)"/>
      <path id="TeXGyreHeros-Italic-6b" d="M 2893 0 
L 1997 2195 
L 3418 3354 
L 2726 3354 
L 1005 1958 
L 1581 4666 
L 1043 4666 
L 51 0 
L 589 0 
L 864 1299 
L 1549 1862 
L 2278 0 
L 2893 0 
z
" transform="scale(0.015625)"/>
      <path id="TeXGyreHeros-Italic-28" d="M 1254 -1363 
C 1018 -749 902 -147 902 506 
C 902 1926 1459 3347 2534 4666 
L 2182 4666 
C 1069 3501 403 2042 403 742 
C 403 -19 589 -813 902 -1363 
L 1254 -1363 
z
" transform="scale(0.015625)"/>
      <path id="TeXGyreHeros-Italic-43" d="M 4384 1702 
L 3757 1702 
C 3354 787 2950 403 2125 403 
C 1459 403 1018 922 1018 1696 
C 1018 2278 1210 2925 1536 3411 
C 1926 3987 2394 4262 2982 4262 
C 3629 4262 3942 3910 3994 3219 
L 4608 3219 
C 4557 4262 3974 4781 3091 4781 
C 2342 4781 1722 4480 1222 3878 
C 717 3270 403 2381 403 1581 
C 403 563 1011 -115 2035 -115 
C 3162 -115 3840 410 4384 1702 
z
" transform="scale(0.015625)"/>
      <path id="TeXGyreHeros-Italic-4d" d="M 5542 4666 
L 4704 4666 
L 2490 653 
L 1978 4666 
L 1152 4666 
L 160 0 
L 730 0 
L 1555 3872 
L 2048 0 
L 2669 0 
L 4806 3872 
L 3981 0 
L 4550 0 
L 5542 4666 
z
" transform="scale(0.015625)"/>
      <path id="TeXGyreHeros-Italic-53" d="M 3968 1549 
C 3968 1978 3667 2349 3187 2490 
L 2086 2803 
C 1594 2944 1440 3072 1440 3354 
C 1440 3866 1952 4262 2694 4262 
C 3398 4262 3667 3994 3667 3565 
C 3667 3507 3661 3462 3642 3334 
L 4205 3334 
C 4243 3514 4256 3597 4256 3693 
C 4256 4339 3712 4781 2810 4781 
C 2150 4781 1632 4595 1286 4237 
C 1024 3968 826 3514 826 3187 
C 826 2784 1107 2445 1536 2323 
L 2630 2010 
C 3142 1862 3354 1670 3354 1370 
C 3354 838 2771 403 1901 403 
C 1178 403 845 672 845 1254 
C 845 1338 851 1395 870 1517 
L 314 1517 
C 269 1350 256 1248 256 1114 
C 256 346 832 -115 1798 -115 
C 2470 -115 3034 70 3411 422 
C 3738 723 3968 1190 3968 1549 
z
" transform="scale(0.015625)"/>
      <path id="TeXGyreHeros-Italic-73" d="M 2848 1158 
C 2848 1549 2637 1754 2074 1894 
L 1587 2016 
C 1229 2106 1043 2234 1043 2400 
C 1043 2726 1363 2957 1850 2957 
C 2227 2957 2438 2810 2438 2560 
C 2438 2515 2438 2470 2432 2419 
L 2970 2419 
C 3002 2554 3008 2611 3008 2694 
C 3008 3142 2579 3450 1958 3450 
C 1069 3450 480 2938 480 2259 
C 480 1869 704 1677 1363 1510 
L 1837 1389 
C 2240 1286 2285 1146 2285 1011 
C 2285 646 1862 397 1370 397 
C 928 397 678 570 678 890 
C 678 928 685 986 691 1050 
L 122 1050 
C 90 902 83 826 83 723 
C 83 211 531 -96 1274 -96 
C 2227 -96 2848 397 2848 1158 
z
" transform="scale(0.015625)"/>
      <path id="TeXGyreHeros-Italic-6d" d="M 4589 0 
L 5094 2387 
C 5114 2458 5133 2669 5133 2739 
C 5133 3072 4883 3450 4320 3450 
C 3904 3450 3539 3283 3162 2918 
C 3059 3277 2810 3450 2387 3450 
C 1952 3450 1658 3322 1248 2938 
L 1331 3354 
L 845 3354 
L 134 0 
L 672 0 
L 1120 2106 
C 1222 2592 1658 2989 2086 2989 
C 2400 2989 2611 2810 2611 2547 
C 2611 2477 2605 2394 2586 2310 
L 2093 0 
L 2630 0 
L 3078 2106 
C 3181 2605 3616 2989 4083 2989 
C 4384 2989 4570 2803 4570 2496 
C 4570 2400 4570 2400 4512 2182 
L 4051 0 
L 4589 0 
z
" transform="scale(0.015625)"/>
      <path id="TeXGyreHeros-Italic-75" d="M 2771 0 
L 3482 3354 
L 2944 3354 
L 2554 1504 
C 2406 813 1952 365 1408 365 
C 1062 365 838 557 838 858 
C 838 909 845 966 858 1030 
L 1350 3354 
L 813 3354 
L 275 819 
C 262 755 256 685 256 602 
C 256 166 589 -96 1139 -96 
C 1638 -96 2003 58 2368 390 
L 2285 0 
L 2771 0 
z
" transform="scale(0.015625)"/>
      <path id="TeXGyreHeros-Italic-6c" d="M 1645 4666 
L 1107 4666 
L 115 0 
L 653 0 
L 1645 4666 
z
" transform="scale(0.015625)"/>
      <path id="TeXGyreHeros-Italic-6e" d="M 3328 2406 
C 3347 2490 3354 2566 3354 2650 
C 3354 3136 3014 3450 2483 3450 
C 1997 3450 1574 3277 1242 2938 
L 1325 3354 
L 838 3354 
L 128 0 
L 666 0 
L 1056 1850 
C 1203 2554 1658 2989 2234 2989 
C 2554 2989 2790 2765 2790 2470 
C 2790 2432 2771 2336 2752 2234 
L 2278 0 
L 2816 0 
L 3328 2406 
z
" transform="scale(0.015625)"/>
      <path id="TeXGyreHeros-Italic-29" d="M 1760 2605 
C 1760 3328 1568 4134 1267 4666 
L 915 4666 
C 1158 4045 1267 3443 1267 2758 
C 1267 1376 698 -64 -365 -1363 
L -13 -1363 
C 1094 -205 1760 1274 1760 2605 
z
" transform="scale(0.015625)"/>
     </defs>
     <use xlink:href="#TeXGyreHeros-Italic-50"/>
     <use xlink:href="#TeXGyreHeros-Italic-72" x="66.699997"/>
     <use xlink:href="#TeXGyreHeros-Italic-69" x="99.999985"/>
     <use xlink:href="#TeXGyreHeros-Italic-76" x="122.199982"/>
     <use xlink:href="#TeXGyreHeros-Italic-61" x="172.199966"/>
     <use xlink:href="#TeXGyreHeros-Italic-74" x="227.799957"/>
     <use xlink:href="#TeXGyreHeros-Italic-65" x="255.599945"/>
     <use xlink:href="#TeXGyreHeros-Italic-20" x="311.199936"/>
     <use xlink:href="#TeXGyreHeros-Italic-77" x="338.999924"/>
     <use xlink:href="#TeXGyreHeros-Italic-6f" x="411.199905"/>
     <use xlink:href="#TeXGyreHeros-Italic-72" x="466.799896"/>
     <use xlink:href="#TeXGyreHeros-Italic-6b" x="500.099884"/>
     <use xlink:href="#TeXGyreHeros-Italic-20" x="550.099869"/>
     <use xlink:href="#TeXGyreHeros-Italic-28" x="577.899857"/>
     <use xlink:href="#TeXGyreHeros-Italic-43" x="611.199844"/>
     <use xlink:href="#TeXGyreHeros-Italic-4d" x="683.399826"/>
     <use xlink:href="#TeXGyreHeros-Italic-53" x="766.699814"/>
     <use xlink:href="#TeXGyreHeros-Italic-20" x="833.399811"/>
     <use xlink:href="#TeXGyreHeros-Italic-73" x="861.199799"/>
     <use xlink:href="#TeXGyreHeros-Italic-69" x="911.199783"/>
     <use xlink:href="#TeXGyreHeros-Italic-6d" x="933.39978"/>
     <use xlink:href="#TeXGyreHeros-Italic-75" x="1016.699768"/>
     <use xlink:href="#TeXGyreHeros-Italic-6c" x="1072.299759"/>
     <use xlink:href="#TeXGyreHeros-Italic-61" x="1094.499756"/>
     <use xlink:href="#TeXGyreHeros-Italic-74" x="1150.099747"/>
     <use xlink:href="#TeXGyreHeros-Italic-69" x="1177.899734"/>
     <use xlink:href="#TeXGyreHeros-Italic-6f" x="1200.099731"/>
     <use xlink:href="#TeXGyreHeros-Italic-6e" x="1255.699722"/>
     <use xlink:href="#TeXGyreHeros-Italic-29" x="1311.299713"/>
    </g>
   </g>
   <g id="legend_1">
    <g id="patch_7">
     <path d="M 64.44 63.99625 
L 209.765 63.99625 
Q 211.765 63.99625 211.765 61.99625 
L 211.765 33.64 
Q 211.765 31.64 209.765 31.64 
L 64.44 31.64 
Q 62.44 31.64 62.44 33.64 
L 62.44 61.99625 
Q 62.44 63.99625 64.44 63.99625 
z
" style="fill: #ffffff; opacity: 0.8; stroke: #cccccc; stroke-linejoin: miter"/>
    </g>
    <g id="line2d_33">
     <path d="M 66.44 39.738438 
L 66.44 39.738438 
L 76.44 39.738438 
L 76.44 39.738438 
L 86.44 39.738438 
" style="fill: none; stroke: #1f77b4; stroke-width: 1.5; stroke-linecap: square"/>
    </g>
    <g id="text_20">
     <!-- Network -->
     <g transform="translate(94.44 43.238438) scale(0.1 -0.1)">
      <defs>
       <path id="DejaVuSans-4e" d="M 628 4666 
L 1478 4666 
L 3547 763 
L 3547 4666 
L 4159 4666 
L 4159 0 
L 3309 0 
L 1241 3903 
L 1241 0 
L 628 0 
L 628 4666 
z
" transform="scale(0.015625)"/>
       <path id="DejaVuSans-77" d="M 269 3500 
L 844 3500 
L 1563 769 
L 2278 3500 
L 2956 3500 
L 3675 769 
L 4391 3500 
L 4966 3500 
L 4050 0 
L 3372 0 
L 2619 2869 
L 1863 0 
L 1184 0 
L 269 3500 
z
" transform="scale(0.015625)"/>
       <path id="DejaVuSans-6b" d="M 581 4863 
L 1159 4863 
L 1159 1991 
L 2875 3500 
L 3609 3500 
L 1753 1863 
L 3688 0 
L 2938 0 
L 1159 1709 
L 1159 0 
L 581 0 
L 581 4863 
z
" transform="scale(0.015625)"/>
      </defs>
      <use xlink:href="#DejaVuSans-4e"/>
      <use xlink:href="#DejaVuSans-65" x="74.804688"/>
      <use xlink:href="#DejaVuSans-74" x="136.328125"/>
      <use xlink:href="#DejaVuSans-77" x="175.537109"/>
      <use xlink:href="#DejaVuSans-6f" x="257.324219"/>
      <use xlink:href="#DejaVuSans-72" x="318.505859"/>
      <use xlink:href="#DejaVuSans-6b" x="359.619141"/>
     </g>
    </g>
    <g id="line2d_34">
     <path d="M 66.44 54.416562 
L 66.44 54.416562 
L 76.44 54.416562 
L 76.44 54.416562 
L 86.44 54.416562 
" style="fill: none; stroke: #ff7f0e; stroke-width: 1.5; stroke-linecap: square"/>
    </g>
    <g id="text_21">
     <!-- Analytic Sonnenschein -->
     <g transform="translate(94.44 57.916562) scale(0.1 -0.1)">
      <defs>
       <path id="DejaVuSans-41" d="M 2188 4044 
L 1331 1722 
L 3047 1722 
L 2188 4044 
z
M 1831 4666 
L 2547 4666 
L 4325 0 
L 3669 0 
L 3244 1197 
L 1141 1197 
L 716 0 
L 50 0 
L 1831 4666 
z
" transform="scale(0.015625)"/>
       <path id="DejaVuSans-61" d="M 2194 1759 
Q 1497 1759 1228 1600 
Q 959 1441 959 1056 
Q 959 750 1161 570 
Q 1363 391 1709 391 
Q 2188 391 2477 730 
Q 2766 1069 2766 1631 
L 2766 1759 
L 2194 1759 
z
M 3341 1997 
L 3341 0 
L 2766 0 
L 2766 531 
Q 2569 213 2275 61 
Q 1981 -91 1556 -91 
Q 1019 -91 701 211 
Q 384 513 384 1019 
Q 384 1609 779 1909 
Q 1175 2209 1959 2209 
L 2766 2209 
L 2766 2266 
Q 2766 2663 2505 2880 
Q 2244 3097 1772 3097 
Q 1472 3097 1187 3025 
Q 903 2953 641 2809 
L 641 3341 
Q 956 3463 1253 3523 
Q 1550 3584 1831 3584 
Q 2591 3584 2966 3190 
Q 3341 2797 3341 1997 
z
" transform="scale(0.015625)"/>
       <path id="DejaVuSans-6c" d="M 603 4863 
L 1178 4863 
L 1178 0 
L 603 0 
L 603 4863 
z
" transform="scale(0.015625)"/>
       <path id="DejaVuSans-79" d="M 2059 -325 
Q 1816 -950 1584 -1140 
Q 1353 -1331 966 -1331 
L 506 -1331 
L 506 -850 
L 844 -850 
Q 1081 -850 1212 -737 
Q 1344 -625 1503 -206 
L 1606 56 
L 191 3500 
L 800 3500 
L 1894 763 
L 2988 3500 
L 3597 3500 
L 2059 -325 
z
" transform="scale(0.015625)"/>
       <path id="DejaVuSans-69" d="M 603 3500 
L 1178 3500 
L 1178 0 
L 603 0 
L 603 3500 
z
M 603 4863 
L 1178 4863 
L 1178 4134 
L 603 4134 
L 603 4863 
z
" transform="scale(0.015625)"/>
       <path id="DejaVuSans-63" d="M 3122 3366 
L 3122 2828 
Q 2878 2963 2633 3030 
Q 2388 3097 2138 3097 
Q 1578 3097 1268 2742 
Q 959 2388 959 1747 
Q 959 1106 1268 751 
Q 1578 397 2138 397 
Q 2388 397 2633 464 
Q 2878 531 3122 666 
L 3122 134 
Q 2881 22 2623 -34 
Q 2366 -91 2075 -91 
Q 1284 -91 818 406 
Q 353 903 353 1747 
Q 353 2603 823 3093 
Q 1294 3584 2113 3584 
Q 2378 3584 2631 3529 
Q 2884 3475 3122 3366 
z
" transform="scale(0.015625)"/>
       <path id="DejaVuSans-53" d="M 3425 4513 
L 3425 3897 
Q 3066 4069 2747 4153 
Q 2428 4238 2131 4238 
Q 1616 4238 1336 4038 
Q 1056 3838 1056 3469 
Q 1056 3159 1242 3001 
Q 1428 2844 1947 2747 
L 2328 2669 
Q 3034 2534 3370 2195 
Q 3706 1856 3706 1288 
Q 3706 609 3251 259 
Q 2797 -91 1919 -91 
Q 1588 -91 1214 -16 
Q 841 59 441 206 
L 441 856 
Q 825 641 1194 531 
Q 1563 422 1919 422 
Q 2459 422 2753 634 
Q 3047 847 3047 1241 
Q 3047 1584 2836 1778 
Q 2625 1972 2144 2069 
L 1759 2144 
Q 1053 2284 737 2584 
Q 422 2884 422 3419 
Q 422 4038 858 4394 
Q 1294 4750 2059 4750 
Q 2388 4750 2728 4690 
Q 3069 4631 3425 4513 
z
" transform="scale(0.015625)"/>
       <path id="DejaVuSans-68" d="M 3513 2113 
L 3513 0 
L 2938 0 
L 2938 2094 
Q 2938 2591 2744 2837 
Q 2550 3084 2163 3084 
Q 1697 3084 1428 2787 
Q 1159 2491 1159 1978 
L 1159 0 
L 581 0 
L 581 4863 
L 1159 4863 
L 1159 2956 
Q 1366 3272 1645 3428 
Q 1925 3584 2291 3584 
Q 2894 3584 3203 3211 
Q 3513 2838 3513 2113 
z
" transform="scale(0.015625)"/>
      </defs>
      <use xlink:href="#DejaVuSans-41"/>
      <use xlink:href="#DejaVuSans-6e" x="68.408203"/>
      <use xlink:href="#DejaVuSans-61" x="131.787109"/>
      <use xlink:href="#DejaVuSans-6c" x="193.066406"/>
      <use xlink:href="#DejaVuSans-79" x="220.849609"/>
      <use xlink:href="#DejaVuSans-74" x="280.029297"/>
      <use xlink:href="#DejaVuSans-69" x="319.238281"/>
      <use xlink:href="#DejaVuSans-63" x="347.021484"/>
      <use xlink:href="#DejaVuSans-20" x="402.001953"/>
      <use xlink:href="#DejaVuSans-53" x="433.789062"/>
      <use xlink:href="#DejaVuSans-6f" x="497.265625"/>
      <use xlink:href="#DejaVuSans-6e" x="558.447266"/>
      <use xlink:href="#DejaVuSans-6e" x="621.826172"/>
      <use xlink:href="#DejaVuSans-65" x="685.205078"/>
      <use xlink:href="#DejaVuSans-6e" x="746.728516"/>
      <use xlink:href="#DejaVuSans-73" x="810.107422"/>
      <use xlink:href="#DejaVuSans-63" x="862.207031"/>
      <use xlink:href="#DejaVuSans-68" x="917.1875"/>
      <use xlink:href="#DejaVuSans-65" x="980.566406"/>
      <use xlink:href="#DejaVuSans-69" x="1042.089844"/>
      <use xlink:href="#DejaVuSans-6e" x="1069.873047"/>
     </g>
    </g>
   </g>
  </g>
 </g>
 <defs>
  <clipPath id="p8e6e879864">
   <rect x="57.44" y="26.64" width="273.441538" height="194.798154"/>
  </clipPath>
 </defs>
</svg>
