<?xml version="1.0" encoding="utf-8" standalone="no"?>
<!DOCTYPE svg PUBLIC "-//W3C//DTD SVG 1.1//EN"
  "http://www.w3.org/Graphics/SVG/1.1/DTD/svg11.dtd">
<svg xmlns:xlink="http://www.w3.org/1999/xlink" width="354.461538pt" height="265.846154pt" viewBox="0 0 354.461538 265.846154" xmlns="http://www.w3.org/2000/svg" version="1.1">
 <metadata>
  <rdf:RDF xmlns:dc="http://purl.org/dc/elements/1.1/" xmlns:cc="http://creativecommons.org/ns#" xmlns:rdf="http://www.w3.org/1999/02/22-rdf-syntax-ns#">
   <cc:Work>
    <dc:type rdf:resource="http://purl.org/dc/dcmitype/StillImage"/>
    <dc:date>2024-08-09T17:20:06.683483</dc:date>
    <dc:format>image/svg+xml</dc:format>
    <dc:creator>
     <cc:Agent>
      <dc:title>Matplotlib v3.7.1, https://matplotlib.org/</dc:title>
     </cc:Agent>
    </dc:creator>
   </cc:Work>
  </rdf:RDF>
 </metadata>
 <defs>
  <style type="text/css">*{stroke-linejoin: round; stroke-linecap: butt}</style>
 </defs>
 <g id="figure_1">
  <g id="patch_1">
   <path d="M 0 265.846154 
L 354.461538 265.846154 
L 354.461538 0 
L 0 0 
z
" style="fill: #ffffff"/>
  </g>
  <g id="axes_1">
   <g id="patch_2">
    <path d="M 60.59 221.006154 
L 343.661538 221.006154 
L 343.661538 26.64 
L 60.59 26.64 
z
" style="fill: #ffffff"/>
   </g>
   <g id="patch_3">
    <path d="M 60.59 221.006154 
L 66.251425 221.006154 
L 66.251425 103.929681 
L 60.59 103.929681 
z
" clip-path="url(#p468c22f2b2)" style="fill: #1f77b4; fill-opacity: 0.5; stroke: #1f77b4; stroke-linejoin: miter"/>
   </g>
   <g id="patch_4">
    <path d="M 66.251425 221.006154 
L 71.912865 221.006154 
L 71.912865 97.794993 
L 66.251425 97.794993 
z
" clip-path="url(#p468c22f2b2)" style="fill: #1f77b4; fill-opacity: 0.5; stroke: #1f77b4; stroke-linejoin: miter"/>
   </g>
   <g id="patch_5">
    <path d="M 71.912865 221.006154 
L 77.57429 221.006154 
L 77.57429 92.350904 
L 71.912865 92.350904 
z
" clip-path="url(#p468c22f2b2)" style="fill: #1f77b4; fill-opacity: 0.5; stroke: #1f77b4; stroke-linejoin: miter"/>
   </g>
   <g id="patch_6">
    <path d="M 77.57429 221.006154 
L 83.235723 221.006154 
L 83.235723 87.036889 
L 77.57429 87.036889 
z
" clip-path="url(#p468c22f2b2)" style="fill: #1f77b4; fill-opacity: 0.5; stroke: #1f77b4; stroke-linejoin: miter"/>
   </g>
   <g id="patch_7">
    <path d="M 83.235723 221.006154 
L 88.897155 221.006154 
L 88.897155 78.909728 
L 83.235723 78.909728 
z
" clip-path="url(#p468c22f2b2)" style="fill: #1f77b4; fill-opacity: 0.5; stroke: #1f77b4; stroke-linejoin: miter"/>
   </g>
   <g id="patch_8">
    <path d="M 88.897155 221.006154 
L 94.558588 221.006154 
L 94.558588 74.892515 
L 88.897155 74.892515 
z
" clip-path="url(#p468c22f2b2)" style="fill: #1f77b4; fill-opacity: 0.5; stroke: #1f77b4; stroke-linejoin: miter"/>
   </g>
   <g id="patch_9">
    <path d="M 94.558588 221.006154 
L 100.220013 221.006154 
L 100.220013 72.704049 
L 94.558588 72.704049 
z
" clip-path="url(#p468c22f2b2)" style="fill: #1f77b4; fill-opacity: 0.5; stroke: #1f77b4; stroke-linejoin: miter"/>
   </g>
   <g id="patch_10">
    <path d="M 100.220013 221.006154 
L 105.881445 221.006154 
L 105.881445 67.708656 
L 100.220013 67.708656 
z
" clip-path="url(#p468c22f2b2)" style="fill: #1f77b4; fill-opacity: 0.5; stroke: #1f77b4; stroke-linejoin: miter"/>
   </g>
   <g id="patch_11">
    <path d="M 105.881445 221.006154 
L 111.542878 221.006154 
L 111.542878 64.405792 
L 105.881445 64.405792 
z
" clip-path="url(#p468c22f2b2)" style="fill: #1f77b4; fill-opacity: 0.5; stroke: #1f77b4; stroke-linejoin: miter"/>
   </g>
   <g id="patch_12">
    <path d="M 111.542878 221.006154 
L 117.20431 221.006154 
L 117.20431 60.909795 
L 111.542878 60.909795 
z
" clip-path="url(#p468c22f2b2)" style="fill: #1f77b4; fill-opacity: 0.5; stroke: #1f77b4; stroke-linejoin: miter"/>
   </g>
   <g id="patch_13">
    <path d="M 117.20431 221.006154 
L 122.865735 221.006154 
L 122.865735 60.592729 
L 117.20431 60.592729 
z
" clip-path="url(#p468c22f2b2)" style="fill: #1f77b4; fill-opacity: 0.5; stroke: #1f77b4; stroke-linejoin: miter"/>
   </g>
   <g id="patch_14">
    <path d="M 122.865735 221.006154 
L 128.527168 221.006154 
L 128.527168 62.377854 
L 122.865735 62.377854 
z
" clip-path="url(#p468c22f2b2)" style="fill: #1f77b4; fill-opacity: 0.5; stroke: #1f77b4; stroke-linejoin: miter"/>
   </g>
   <g id="patch_15">
    <path d="M 128.527168 221.006154 
L 134.1886 221.006154 
L 134.1886 63.666837 
L 128.527168 63.666837 
z
" clip-path="url(#p468c22f2b2)" style="fill: #1f77b4; fill-opacity: 0.5; stroke: #1f77b4; stroke-linejoin: miter"/>
   </g>
   <g id="patch_16">
    <path d="M 134.1886 221.006154 
L 139.850029 221.006154 
L 139.850029 61.077602 
L 134.1886 61.077602 
z
" clip-path="url(#p468c22f2b2)" style="fill: #1f77b4; fill-opacity: 0.5; stroke: #1f77b4; stroke-linejoin: miter"/>
   </g>
   <g id="patch_17">
    <path d="M 139.850029 221.006154 
L 145.511462 221.006154 
L 145.511462 62.416128 
L 139.850029 62.416128 
z
" clip-path="url(#p468c22f2b2)" style="fill: #1f77b4; fill-opacity: 0.5; stroke: #1f77b4; stroke-linejoin: miter"/>
   </g>
   <g id="patch_18">
    <path d="M 145.511462 221.006154 
L 151.172894 221.006154 
L 151.172894 63.234641 
L 145.511462 63.234641 
z
" clip-path="url(#p468c22f2b2)" style="fill: #1f77b4; fill-opacity: 0.5; stroke: #1f77b4; stroke-linejoin: miter"/>
   </g>
   <g id="patch_19">
    <path d="M 151.172894 221.006154 
L 156.834323 221.006154 
L 156.834323 62.376451 
L 151.172894 62.376451 
z
" clip-path="url(#p468c22f2b2)" style="fill: #1f77b4; fill-opacity: 0.5; stroke: #1f77b4; stroke-linejoin: miter"/>
   </g>
   <g id="patch_20">
    <path d="M 156.834323 221.006154 
L 162.495755 221.006154 
L 162.495755 67.33274 
L 156.834323 67.33274 
z
" clip-path="url(#p468c22f2b2)" style="fill: #1f77b4; fill-opacity: 0.5; stroke: #1f77b4; stroke-linejoin: miter"/>
   </g>
   <g id="patch_21">
    <path d="M 162.495755 221.006154 
L 168.157184 221.006154 
L 168.157184 64.229233 
L 162.495755 64.229233 
z
" clip-path="url(#p468c22f2b2)" style="fill: #1f77b4; fill-opacity: 0.5; stroke: #1f77b4; stroke-linejoin: miter"/>
   </g>
   <g id="patch_22">
    <path d="M 168.157184 221.006154 
L 173.818615 221.006154 
L 173.818615 62.392833 
L 168.157184 62.392833 
z
" clip-path="url(#p468c22f2b2)" style="fill: #1f77b4; fill-opacity: 0.5; stroke: #1f77b4; stroke-linejoin: miter"/>
   </g>
   <g id="patch_23">
    <path d="M 173.818615 221.006154 
L 179.480045 221.006154 
L 179.480045 72.710321 
L 173.818615 72.710321 
z
" clip-path="url(#p468c22f2b2)" style="fill: #1f77b4; fill-opacity: 0.5; stroke: #1f77b4; stroke-linejoin: miter"/>
   </g>
   <g id="patch_24">
    <path d="M 179.480045 221.006154 
L 185.141478 221.006154 
L 185.141478 68.32121 
L 179.480045 68.32121 
z
" clip-path="url(#p468c22f2b2)" style="fill: #1f77b4; fill-opacity: 0.5; stroke: #1f77b4; stroke-linejoin: miter"/>
   </g>
   <g id="patch_25">
    <path d="M 185.141478 221.006154 
L 190.802908 221.006154 
L 190.802908 71.2579 
L 185.141478 71.2579 
z
" clip-path="url(#p468c22f2b2)" style="fill: #1f77b4; fill-opacity: 0.5; stroke: #1f77b4; stroke-linejoin: miter"/>
   </g>
   <g id="patch_26">
    <path d="M 190.802908 221.006154 
L 196.464339 221.006154 
L 196.464339 64.636137 
L 190.802908 64.636137 
z
" clip-path="url(#p468c22f2b2)" style="fill: #1f77b4; fill-opacity: 0.5; stroke: #1f77b4; stroke-linejoin: miter"/>
   </g>
   <g id="patch_27">
    <path d="M 196.464339 221.006154 
L 202.125769 221.006154 
L 202.125769 73.076613 
L 196.464339 73.076613 
z
" clip-path="url(#p468c22f2b2)" style="fill: #1f77b4; fill-opacity: 0.5; stroke: #1f77b4; stroke-linejoin: miter"/>
   </g>
   <g id="patch_28">
    <path d="M 202.125769 221.006154 
L 207.7872 221.006154 
L 207.7872 70.775883 
L 202.125769 70.775883 
z
" clip-path="url(#p468c22f2b2)" style="fill: #1f77b4; fill-opacity: 0.5; stroke: #1f77b4; stroke-linejoin: miter"/>
   </g>
   <g id="patch_29">
    <path d="M 207.7872 221.006154 
L 213.448631 221.006154 
L 213.448631 70.12048 
L 207.7872 70.12048 
z
" clip-path="url(#p468c22f2b2)" style="fill: #1f77b4; fill-opacity: 0.5; stroke: #1f77b4; stroke-linejoin: miter"/>
   </g>
   <g id="patch_30">
    <path d="M 213.448631 221.006154 
L 219.110062 221.006154 
L 219.110062 69.670008 
L 213.448631 69.670008 
z
" clip-path="url(#p468c22f2b2)" style="fill: #1f77b4; fill-opacity: 0.5; stroke: #1f77b4; stroke-linejoin: miter"/>
   </g>
   <g id="patch_31">
    <path d="M 219.110062 221.006154 
L 224.771492 221.006154 
L 224.771492 69.6639 
L 219.110062 69.6639 
z
" clip-path="url(#p468c22f2b2)" style="fill: #1f77b4; fill-opacity: 0.5; stroke: #1f77b4; stroke-linejoin: miter"/>
   </g>
   <g id="patch_32">
    <path d="M 224.771492 221.006154 
L 230.432923 221.006154 
L 230.432923 65.210423 
L 224.771492 65.210423 
z
" clip-path="url(#p468c22f2b2)" style="fill: #1f77b4; fill-opacity: 0.5; stroke: #1f77b4; stroke-linejoin: miter"/>
   </g>
   <g id="patch_33">
    <path d="M 230.432923 221.006154 
L 236.094356 221.006154 
L 236.094356 65.021489 
L 230.432923 65.021489 
z
" clip-path="url(#p468c22f2b2)" style="fill: #1f77b4; fill-opacity: 0.5; stroke: #1f77b4; stroke-linejoin: miter"/>
   </g>
   <g id="patch_34">
    <path d="M 236.094356 221.006154 
L 241.755784 221.006154 
L 241.755784 60.281852 
L 236.094356 60.281852 
z
" clip-path="url(#p468c22f2b2)" style="fill: #1f77b4; fill-opacity: 0.5; stroke: #1f77b4; stroke-linejoin: miter"/>
   </g>
   <g id="patch_35">
    <path d="M 241.755784 221.006154 
L 247.417217 221.006154 
L 247.417217 63.077803 
L 241.755784 63.077803 
z
" clip-path="url(#p468c22f2b2)" style="fill: #1f77b4; fill-opacity: 0.5; stroke: #1f77b4; stroke-linejoin: miter"/>
   </g>
   <g id="patch_36">
    <path d="M 247.417217 221.006154 
L 253.078646 221.006154 
L 253.078646 62.466415 
L 247.417217 62.466415 
z
" clip-path="url(#p468c22f2b2)" style="fill: #1f77b4; fill-opacity: 0.5; stroke: #1f77b4; stroke-linejoin: miter"/>
   </g>
   <g id="patch_37">
    <path d="M 253.078646 221.006154 
L 258.740078 221.006154 
L 258.740078 61.837413 
L 253.078646 61.837413 
z
" clip-path="url(#p468c22f2b2)" style="fill: #1f77b4; fill-opacity: 0.5; stroke: #1f77b4; stroke-linejoin: miter"/>
   </g>
   <g id="patch_38">
    <path d="M 258.740078 221.006154 
L 264.401507 221.006154 
L 264.401507 63.19643 
L 258.740078 63.19643 
z
" clip-path="url(#p468c22f2b2)" style="fill: #1f77b4; fill-opacity: 0.5; stroke: #1f77b4; stroke-linejoin: miter"/>
   </g>
   <g id="patch_39">
    <path d="M 264.401507 221.006154 
L 270.062936 221.006154 
L 270.062936 64.636801 
L 264.401507 64.636801 
z
" clip-path="url(#p468c22f2b2)" style="fill: #1f77b4; fill-opacity: 0.5; stroke: #1f77b4; stroke-linejoin: miter"/>
   </g>
   <g id="patch_40">
    <path d="M 270.062936 221.006154 
L 275.724368 221.006154 
L 275.724368 62.8974 
L 270.062936 62.8974 
z
" clip-path="url(#p468c22f2b2)" style="fill: #1f77b4; fill-opacity: 0.5; stroke: #1f77b4; stroke-linejoin: miter"/>
   </g>
   <g id="patch_41">
    <path d="M 275.724368 221.006154 
L 281.385801 221.006154 
L 281.385801 62.850814 
L 275.724368 62.850814 
z
" clip-path="url(#p468c22f2b2)" style="fill: #1f77b4; fill-opacity: 0.5; stroke: #1f77b4; stroke-linejoin: miter"/>
   </g>
   <g id="patch_42">
    <path d="M 281.385801 221.006154 
L 287.047233 221.006154 
L 287.047233 64.393824 
L 281.385801 64.393824 
z
" clip-path="url(#p468c22f2b2)" style="fill: #1f77b4; fill-opacity: 0.5; stroke: #1f77b4; stroke-linejoin: miter"/>
   </g>
   <g id="patch_43">
    <path d="M 287.047233 221.006154 
L 292.708658 221.006154 
L 292.708658 65.580617 
L 287.047233 65.580617 
z
" clip-path="url(#p468c22f2b2)" style="fill: #1f77b4; fill-opacity: 0.5; stroke: #1f77b4; stroke-linejoin: miter"/>
   </g>
   <g id="patch_44">
    <path d="M 292.708658 221.006154 
L 298.370091 221.006154 
L 298.370091 67.882751 
L 292.708658 67.882751 
z
" clip-path="url(#p468c22f2b2)" style="fill: #1f77b4; fill-opacity: 0.5; stroke: #1f77b4; stroke-linejoin: miter"/>
   </g>
   <g id="patch_45">
    <path d="M 298.370091 221.006154 
L 304.031523 221.006154 
L 304.031523 72.829278 
L 298.370091 72.829278 
z
" clip-path="url(#p468c22f2b2)" style="fill: #1f77b4; fill-opacity: 0.5; stroke: #1f77b4; stroke-linejoin: miter"/>
   </g>
   <g id="patch_46">
    <path d="M 304.031523 221.006154 
L 309.692956 221.006154 
L 309.692956 74.997783 
L 304.031523 74.997783 
z
" clip-path="url(#p468c22f2b2)" style="fill: #1f77b4; fill-opacity: 0.5; stroke: #1f77b4; stroke-linejoin: miter"/>
   </g>
   <g id="patch_47">
    <path d="M 309.692956 221.006154 
L 315.354381 221.006154 
L 315.354381 75.364962 
L 309.692956 75.364962 
z
" clip-path="url(#p468c22f2b2)" style="fill: #1f77b4; fill-opacity: 0.5; stroke: #1f77b4; stroke-linejoin: miter"/>
   </g>
   <g id="patch_48">
    <path d="M 315.354381 221.006154 
L 321.015813 221.006154 
L 321.015813 79.285006 
L 315.354381 79.285006 
z
" clip-path="url(#p468c22f2b2)" style="fill: #1f77b4; fill-opacity: 0.5; stroke: #1f77b4; stroke-linejoin: miter"/>
   </g>
   <g id="patch_49">
    <path d="M 321.015813 221.006154 
L 326.677246 221.006154 
L 326.677246 87.783257 
L 321.015813 87.783257 
z
" clip-path="url(#p468c22f2b2)" style="fill: #1f77b4; fill-opacity: 0.5; stroke: #1f77b4; stroke-linejoin: miter"/>
   </g>
   <g id="patch_50">
    <path d="M 326.677246 221.006154 
L 332.338671 221.006154 
L 332.338671 91.846744 
L 326.677246 91.846744 
z
" clip-path="url(#p468c22f2b2)" style="fill: #1f77b4; fill-opacity: 0.5; stroke: #1f77b4; stroke-linejoin: miter"/>
   </g>
   <g id="patch_51">
    <path d="M 332.338671 221.006154 
L 338.000111 221.006154 
L 338.000111 100.978072 
L 332.338671 100.978072 
z
" clip-path="url(#p468c22f2b2)" style="fill: #1f77b4; fill-opacity: 0.5; stroke: #1f77b4; stroke-linejoin: miter"/>
   </g>
   <g id="patch_52">
    <path d="M 338.000111 221.006154 
L 343.661536 221.006154 
L 343.661536 105.886869 
L 338.000111 105.886869 
z
" clip-path="url(#p468c22f2b2)" style="fill: #1f77b4; fill-opacity: 0.5; stroke: #1f77b4; stroke-linejoin: miter"/>
   </g>
   <g id="patch_53">
    <path d="M 60.59 221.006154 
L 66.251431 221.006154 
L 66.251431 134.236061 
L 60.59 134.236061 
z
" clip-path="url(#p468c22f2b2)" style="fill: #ff7f0e; fill-opacity: 0.5; stroke: #ff7f0e; stroke-linejoin: miter"/>
   </g>
   <g id="patch_54">
    <path d="M 66.251431 221.006154 
L 71.912862 221.006154 
L 71.912862 117.502555 
L 66.251431 117.502555 
z
" clip-path="url(#p468c22f2b2)" style="fill: #ff7f0e; fill-opacity: 0.5; stroke: #ff7f0e; stroke-linejoin: miter"/>
   </g>
   <g id="patch_55">
    <path d="M 71.912862 221.006154 
L 77.574292 221.006154 
L 77.574292 117.690118 
L 71.912862 117.690118 
z
" clip-path="url(#p468c22f2b2)" style="fill: #ff7f0e; fill-opacity: 0.5; stroke: #ff7f0e; stroke-linejoin: miter"/>
   </g>
   <g id="patch_56">
    <path d="M 77.574292 221.006154 
L 83.235723 221.006154 
L 83.235723 99.752591 
L 77.574292 99.752591 
z
" clip-path="url(#p468c22f2b2)" style="fill: #ff7f0e; fill-opacity: 0.5; stroke: #ff7f0e; stroke-linejoin: miter"/>
   </g>
   <g id="patch_57">
    <path d="M 83.235723 221.006154 
L 88.897154 221.006154 
L 88.897154 95.457594 
L 83.235723 95.457594 
z
" clip-path="url(#p468c22f2b2)" style="fill: #ff7f0e; fill-opacity: 0.5; stroke: #ff7f0e; stroke-linejoin: miter"/>
   </g>
   <g id="patch_58">
    <path d="M 88.897154 221.006154 
L 94.558585 221.006154 
L 94.558585 83.528654 
L 88.897154 83.528654 
z
" clip-path="url(#p468c22f2b2)" style="fill: #ff7f0e; fill-opacity: 0.5; stroke: #ff7f0e; stroke-linejoin: miter"/>
   </g>
   <g id="patch_59">
    <path d="M 94.558585 221.006154 
L 100.220016 221.006154 
L 100.220016 83.753071 
L 94.558585 83.753071 
z
" clip-path="url(#p468c22f2b2)" style="fill: #ff7f0e; fill-opacity: 0.5; stroke: #ff7f0e; stroke-linejoin: miter"/>
   </g>
   <g id="patch_60">
    <path d="M 100.220016 221.006154 
L 105.881446 221.006154 
L 105.881446 71.056583 
L 100.220016 71.056583 
z
" clip-path="url(#p468c22f2b2)" style="fill: #ff7f0e; fill-opacity: 0.5; stroke: #ff7f0e; stroke-linejoin: miter"/>
   </g>
   <g id="patch_61">
    <path d="M 105.881446 221.006154 
L 111.542877 221.006154 
L 111.542877 61.819389 
L 105.881446 61.819389 
z
" clip-path="url(#p468c22f2b2)" style="fill: #ff7f0e; fill-opacity: 0.5; stroke: #ff7f0e; stroke-linejoin: miter"/>
   </g>
   <g id="patch_62">
    <path d="M 111.542877 221.006154 
L 117.204308 221.006154 
L 117.204308 59.933207 
L 111.542877 59.933207 
z
" clip-path="url(#p468c22f2b2)" style="fill: #ff7f0e; fill-opacity: 0.5; stroke: #ff7f0e; stroke-linejoin: miter"/>
   </g>
   <g id="patch_63">
    <path d="M 117.204308 221.006154 
L 122.865739 221.006154 
L 122.865739 58.89138 
L 117.204308 58.89138 
z
" clip-path="url(#p468c22f2b2)" style="fill: #ff7f0e; fill-opacity: 0.5; stroke: #ff7f0e; stroke-linejoin: miter"/>
   </g>
   <g id="patch_64">
    <path d="M 122.865739 221.006154 
L 128.527169 221.006154 
L 128.527169 47.636152 
L 122.865739 47.636152 
z
" clip-path="url(#p468c22f2b2)" style="fill: #ff7f0e; fill-opacity: 0.5; stroke: #ff7f0e; stroke-linejoin: miter"/>
   </g>
   <g id="patch_65">
    <path d="M 128.527169 221.006154 
L 134.1886 221.006154 
L 134.1886 43.710447 
L 128.527169 43.710447 
z
" clip-path="url(#p468c22f2b2)" style="fill: #ff7f0e; fill-opacity: 0.5; stroke: #ff7f0e; stroke-linejoin: miter"/>
   </g>
   <g id="patch_66">
    <path d="M 134.1886 221.006154 
L 139.850031 221.006154 
L 139.850031 43.30828 
L 134.1886 43.30828 
z
" clip-path="url(#p468c22f2b2)" style="fill: #ff7f0e; fill-opacity: 0.5; stroke: #ff7f0e; stroke-linejoin: miter"/>
   </g>
   <g id="patch_67">
    <path d="M 139.850031 221.006154 
L 145.511462 221.006154 
L 145.511462 43.40204 
L 139.850031 43.40204 
z
" clip-path="url(#p468c22f2b2)" style="fill: #ff7f0e; fill-opacity: 0.5; stroke: #ff7f0e; stroke-linejoin: miter"/>
   </g>
   <g id="patch_68">
    <path d="M 145.511462 221.006154 
L 151.172892 221.006154 
L 151.172892 40.438772 
L 145.511462 40.438772 
z
" clip-path="url(#p468c22f2b2)" style="fill: #ff7f0e; fill-opacity: 0.5; stroke: #ff7f0e; stroke-linejoin: miter"/>
   </g>
   <g id="patch_69">
    <path d="M 151.172892 221.006154 
L 156.834323 221.006154 
L 156.834323 44.544965 
L 151.172892 44.544965 
z
" clip-path="url(#p468c22f2b2)" style="fill: #ff7f0e; fill-opacity: 0.5; stroke: #ff7f0e; stroke-linejoin: miter"/>
   </g>
   <g id="patch_70">
    <path d="M 156.834323 221.006154 
L 162.495754 221.006154 
L 162.495754 40.344993 
L 156.834323 40.344993 
z
" clip-path="url(#p468c22f2b2)" style="fill: #ff7f0e; fill-opacity: 0.5; stroke: #ff7f0e; stroke-linejoin: miter"/>
   </g>
   <g id="patch_71">
    <path d="M 162.495754 221.006154 
L 168.157185 221.006154 
L 168.157185 42.894965 
L 162.495754 42.894965 
z
" clip-path="url(#p468c22f2b2)" style="fill: #ff7f0e; fill-opacity: 0.5; stroke: #ff7f0e; stroke-linejoin: miter"/>
   </g>
   <g id="patch_72">
    <path d="M 168.157185 221.006154 
L 173.818615 221.006154 
L 173.818615 39.175569 
L 168.157185 39.175569 
z
" clip-path="url(#p468c22f2b2)" style="fill: #ff7f0e; fill-opacity: 0.5; stroke: #ff7f0e; stroke-linejoin: miter"/>
   </g>
   <g id="patch_73">
    <path d="M 173.818615 221.006154 
L 179.480046 221.006154 
L 179.480046 42.165282 
L 173.818615 42.165282 
z
" clip-path="url(#p468c22f2b2)" style="fill: #ff7f0e; fill-opacity: 0.5; stroke: #ff7f0e; stroke-linejoin: miter"/>
   </g>
   <g id="patch_74">
    <path d="M 179.480046 221.006154 
L 185.141477 221.006154 
L 185.141477 41.320618 
L 179.480046 41.320618 
z
" clip-path="url(#p468c22f2b2)" style="fill: #ff7f0e; fill-opacity: 0.5; stroke: #ff7f0e; stroke-linejoin: miter"/>
   </g>
   <g id="patch_75">
    <path d="M 185.141477 221.006154 
L 190.802908 221.006154 
L 190.802908 41.357358 
L 185.141477 41.357358 
z
" clip-path="url(#p468c22f2b2)" style="fill: #ff7f0e; fill-opacity: 0.5; stroke: #ff7f0e; stroke-linejoin: miter"/>
   </g>
   <g id="patch_76">
    <path d="M 190.802908 221.006154 
L 196.464339 221.006154 
L 196.464339 46.102867 
L 190.802908 46.102867 
z
" clip-path="url(#p468c22f2b2)" style="fill: #ff7f0e; fill-opacity: 0.5; stroke: #ff7f0e; stroke-linejoin: miter"/>
   </g>
   <g id="patch_77">
    <path d="M 196.464339 221.006154 
L 202.125769 221.006154 
L 202.125769 44.005135 
L 196.464339 44.005135 
z
" clip-path="url(#p468c22f2b2)" style="fill: #ff7f0e; fill-opacity: 0.5; stroke: #ff7f0e; stroke-linejoin: miter"/>
   </g>
   <g id="patch_78">
    <path d="M 202.125769 221.006154 
L 207.7872 221.006154 
L 207.7872 42.730023 
L 202.125769 42.730023 
z
" clip-path="url(#p468c22f2b2)" style="fill: #ff7f0e; fill-opacity: 0.5; stroke: #ff7f0e; stroke-linejoin: miter"/>
   </g>
   <g id="patch_79">
    <path d="M 207.7872 221.006154 
L 213.448631 221.006154 
L 213.448631 40.276235 
L 207.7872 40.276235 
z
" clip-path="url(#p468c22f2b2)" style="fill: #ff7f0e; fill-opacity: 0.5; stroke: #ff7f0e; stroke-linejoin: miter"/>
   </g>
   <g id="patch_80">
    <path d="M 213.448631 221.006154 
L 219.110062 221.006154 
L 219.110062 41.552549 
L 213.448631 41.552549 
z
" clip-path="url(#p468c22f2b2)" style="fill: #ff7f0e; fill-opacity: 0.5; stroke: #ff7f0e; stroke-linejoin: miter"/>
   </g>
   <g id="patch_81">
    <path d="M 219.110062 221.006154 
L 224.771492 221.006154 
L 224.771492 43.270404 
L 219.110062 43.270404 
z
" clip-path="url(#p468c22f2b2)" style="fill: #ff7f0e; fill-opacity: 0.5; stroke: #ff7f0e; stroke-linejoin: miter"/>
   </g>
   <g id="patch_82">
    <path d="M 224.771492 221.006154 
L 230.432923 221.006154 
L 230.432923 37.290902 
L 224.771492 37.290902 
z
" clip-path="url(#p468c22f2b2)" style="fill: #ff7f0e; fill-opacity: 0.5; stroke: #ff7f0e; stroke-linejoin: miter"/>
   </g>
   <g id="patch_83">
    <path d="M 230.432923 221.006154 
L 236.094354 221.006154 
L 236.094354 46.977531 
L 230.432923 46.977531 
z
" clip-path="url(#p468c22f2b2)" style="fill: #ff7f0e; fill-opacity: 0.5; stroke: #ff7f0e; stroke-linejoin: miter"/>
   </g>
   <g id="patch_84">
    <path d="M 236.094354 221.006154 
L 241.755785 221.006154 
L 241.755785 46.08081 
L 236.094354 46.08081 
z
" clip-path="url(#p468c22f2b2)" style="fill: #ff7f0e; fill-opacity: 0.5; stroke: #ff7f0e; stroke-linejoin: miter"/>
   </g>
   <g id="patch_85">
    <path d="M 241.755785 221.006154 
L 247.417215 221.006154 
L 247.417215 41.117937 
L 241.755785 41.117937 
z
" clip-path="url(#p468c22f2b2)" style="fill: #ff7f0e; fill-opacity: 0.5; stroke: #ff7f0e; stroke-linejoin: miter"/>
   </g>
   <g id="patch_86">
    <path d="M 247.417215 221.006154 
L 253.078646 221.006154 
L 253.078646 40.413538 
L 247.417215 40.413538 
z
" clip-path="url(#p468c22f2b2)" style="fill: #ff7f0e; fill-opacity: 0.5; stroke: #ff7f0e; stroke-linejoin: miter"/>
   </g>
   <g id="patch_87">
    <path d="M 253.078646 221.006154 
L 258.740077 221.006154 
L 258.740077 46.385199 
L 253.078646 46.385199 
z
" clip-path="url(#p468c22f2b2)" style="fill: #ff7f0e; fill-opacity: 0.5; stroke: #ff7f0e; stroke-linejoin: miter"/>
   </g>
   <g id="patch_88">
    <path d="M 258.740077 221.006154 
L 264.401508 221.006154 
L 264.401508 43.519682 
L 258.740077 43.519682 
z
" clip-path="url(#p468c22f2b2)" style="fill: #ff7f0e; fill-opacity: 0.5; stroke: #ff7f0e; stroke-linejoin: miter"/>
   </g>
   <g id="patch_89">
    <path d="M 264.401508 221.006154 
L 270.062939 221.006154 
L 270.062939 45.92178 
L 264.401508 45.92178 
z
" clip-path="url(#p468c22f2b2)" style="fill: #ff7f0e; fill-opacity: 0.5; stroke: #ff7f0e; stroke-linejoin: miter"/>
   </g>
   <g id="patch_90">
    <path d="M 270.062939 221.006154 
L 275.724369 221.006154 
L 275.724369 50.58645 
L 270.062939 50.58645 
z
" clip-path="url(#p468c22f2b2)" style="fill: #ff7f0e; fill-opacity: 0.5; stroke: #ff7f0e; stroke-linejoin: miter"/>
   </g>
   <g id="patch_91">
    <path d="M 275.724369 221.006154 
L 281.3858 221.006154 
L 281.3858 59.142948 
L 275.724369 59.142948 
z
" clip-path="url(#p468c22f2b2)" style="fill: #ff7f0e; fill-opacity: 0.5; stroke: #ff7f0e; stroke-linejoin: miter"/>
   </g>
   <g id="patch_92">
    <path d="M 281.3858 221.006154 
L 287.047231 221.006154 
L 287.047231 50.647042 
L 281.3858 50.647042 
z
" clip-path="url(#p468c22f2b2)" style="fill: #ff7f0e; fill-opacity: 0.5; stroke: #ff7f0e; stroke-linejoin: miter"/>
   </g>
   <g id="patch_93">
    <path d="M 287.047231 221.006154 
L 292.708662 221.006154 
L 292.708662 56.769342 
L 287.047231 56.769342 
z
" clip-path="url(#p468c22f2b2)" style="fill: #ff7f0e; fill-opacity: 0.5; stroke: #ff7f0e; stroke-linejoin: miter"/>
   </g>
   <g id="patch_94">
    <path d="M 292.708662 221.006154 
L 298.370092 221.006154 
L 298.370092 64.072954 
L 292.708662 64.072954 
z
" clip-path="url(#p468c22f2b2)" style="fill: #ff7f0e; fill-opacity: 0.5; stroke: #ff7f0e; stroke-linejoin: miter"/>
   </g>
   <g id="patch_95">
    <path d="M 298.370092 221.006154 
L 304.031523 221.006154 
L 304.031523 75.065741 
L 298.370092 75.065741 
z
" clip-path="url(#p468c22f2b2)" style="fill: #ff7f0e; fill-opacity: 0.5; stroke: #ff7f0e; stroke-linejoin: miter"/>
   </g>
   <g id="patch_96">
    <path d="M 304.031523 221.006154 
L 309.692954 221.006154 
L 309.692954 75.213199 
L 304.031523 75.213199 
z
" clip-path="url(#p468c22f2b2)" style="fill: #ff7f0e; fill-opacity: 0.5; stroke: #ff7f0e; stroke-linejoin: miter"/>
   </g>
   <g id="patch_97">
    <path d="M 309.692954 221.006154 
L 315.354385 221.006154 
L 315.354385 85.129949 
L 309.692954 85.129949 
z
" clip-path="url(#p468c22f2b2)" style="fill: #ff7f0e; fill-opacity: 0.5; stroke: #ff7f0e; stroke-linejoin: miter"/>
   </g>
   <g id="patch_98">
    <path d="M 315.354385 221.006154 
L 321.015815 221.006154 
L 321.015815 91.718462 
L 315.354385 91.718462 
z
" clip-path="url(#p468c22f2b2)" style="fill: #ff7f0e; fill-opacity: 0.5; stroke: #ff7f0e; stroke-linejoin: miter"/>
   </g>
   <g id="patch_99">
    <path d="M 321.015815 221.006154 
L 326.677246 221.006154 
L 326.677246 109.706385 
L 321.015815 109.706385 
z
" clip-path="url(#p468c22f2b2)" style="fill: #ff7f0e; fill-opacity: 0.5; stroke: #ff7f0e; stroke-linejoin: miter"/>
   </g>
   <g id="patch_100">
    <path d="M 326.677246 221.006154 
L 332.338677 221.006154 
L 332.338677 108.07672 
L 326.677246 108.07672 
z
" clip-path="url(#p468c22f2b2)" style="fill: #ff7f0e; fill-opacity: 0.5; stroke: #ff7f0e; stroke-linejoin: miter"/>
   </g>
   <g id="patch_101">
    <path d="M 332.338677 221.006154 
L 338.000108 221.006154 
L 338.000108 122.987104 
L 332.338677 122.987104 
z
" clip-path="url(#p468c22f2b2)" style="fill: #ff7f0e; fill-opacity: 0.5; stroke: #ff7f0e; stroke-linejoin: miter"/>
   </g>
   <g id="patch_102">
    <path d="M 338.000108 221.006154 
L 343.661538 221.006154 
L 343.661538 126.470086 
L 338.000108 126.470086 
z
" clip-path="url(#p468c22f2b2)" style="fill: #ff7f0e; fill-opacity: 0.5; stroke: #ff7f0e; stroke-linejoin: miter"/>
   </g>
   <g id="patch_103">
    <path d="M 60.59 221.006154 
L 66.251431 221.006154 
L 66.251431 132.596507 
L 60.59 132.596507 
z
" clip-path="url(#p468c22f2b2)" style="fill: #2ca02c; fill-opacity: 0.5; stroke: #2ca02c; stroke-linejoin: miter"/>
   </g>
   <g id="patch_104">
    <path d="M 66.251431 221.006154 
L 71.912862 221.006154 
L 71.912862 119.617753 
L 66.251431 119.617753 
z
" clip-path="url(#p468c22f2b2)" style="fill: #2ca02c; fill-opacity: 0.5; stroke: #2ca02c; stroke-linejoin: miter"/>
   </g>
   <g id="patch_105">
    <path d="M 71.912862 221.006154 
L 77.574292 221.006154 
L 77.574292 110.294326 
L 71.912862 110.294326 
z
" clip-path="url(#p468c22f2b2)" style="fill: #2ca02c; fill-opacity: 0.5; stroke: #2ca02c; stroke-linejoin: miter"/>
   </g>
   <g id="patch_106">
    <path d="M 77.574292 221.006154 
L 83.235723 221.006154 
L 83.235723 100.392835 
L 77.574292 100.392835 
z
" clip-path="url(#p468c22f2b2)" style="fill: #2ca02c; fill-opacity: 0.5; stroke: #2ca02c; stroke-linejoin: miter"/>
   </g>
   <g id="patch_107">
    <path d="M 83.235723 221.006154 
L 88.897154 221.006154 
L 88.897154 93.243863 
L 83.235723 93.243863 
z
" clip-path="url(#p468c22f2b2)" style="fill: #2ca02c; fill-opacity: 0.5; stroke: #2ca02c; stroke-linejoin: miter"/>
   </g>
   <g id="patch_108">
    <path d="M 88.897154 221.006154 
L 94.558585 221.006154 
L 94.558585 86.131702 
L 88.897154 86.131702 
z
" clip-path="url(#p468c22f2b2)" style="fill: #2ca02c; fill-opacity: 0.5; stroke: #2ca02c; stroke-linejoin: miter"/>
   </g>
   <g id="patch_109">
    <path d="M 94.558585 221.006154 
L 100.220016 221.006154 
L 100.220016 78.427404 
L 94.558585 78.427404 
z
" clip-path="url(#p468c22f2b2)" style="fill: #2ca02c; fill-opacity: 0.5; stroke: #2ca02c; stroke-linejoin: miter"/>
   </g>
   <g id="patch_110">
    <path d="M 100.220016 221.006154 
L 105.881446 221.006154 
L 105.881446 73.245447 
L 100.220016 73.245447 
z
" clip-path="url(#p468c22f2b2)" style="fill: #2ca02c; fill-opacity: 0.5; stroke: #2ca02c; stroke-linejoin: miter"/>
   </g>
   <g id="patch_111">
    <path d="M 105.881446 221.006154 
L 111.542877 221.006154 
L 111.542877 60.407119 
L 105.881446 60.407119 
z
" clip-path="url(#p468c22f2b2)" style="fill: #2ca02c; fill-opacity: 0.5; stroke: #2ca02c; stroke-linejoin: miter"/>
   </g>
   <g id="patch_112">
    <path d="M 111.542877 221.006154 
L 117.204308 221.006154 
L 117.204308 56.549306 
L 111.542877 56.549306 
z
" clip-path="url(#p468c22f2b2)" style="fill: #2ca02c; fill-opacity: 0.5; stroke: #2ca02c; stroke-linejoin: miter"/>
   </g>
   <g id="patch_113">
    <path d="M 117.204308 221.006154 
L 122.865739 221.006154 
L 122.865739 54.941453 
L 117.204308 54.941453 
z
" clip-path="url(#p468c22f2b2)" style="fill: #2ca02c; fill-opacity: 0.5; stroke: #2ca02c; stroke-linejoin: miter"/>
   </g>
   <g id="patch_114">
    <path d="M 122.865739 221.006154 
L 128.527169 221.006154 
L 128.527169 48.115064 
L 122.865739 48.115064 
z
" clip-path="url(#p468c22f2b2)" style="fill: #2ca02c; fill-opacity: 0.5; stroke: #2ca02c; stroke-linejoin: miter"/>
   </g>
   <g id="patch_115">
    <path d="M 128.527169 221.006154 
L 134.1886 221.006154 
L 134.1886 42.21233 
L 128.527169 42.21233 
z
" clip-path="url(#p468c22f2b2)" style="fill: #2ca02c; fill-opacity: 0.5; stroke: #2ca02c; stroke-linejoin: miter"/>
   </g>
   <g id="patch_116">
    <path d="M 134.1886 221.006154 
L 139.850031 221.006154 
L 139.850031 42.829415 
L 134.1886 42.829415 
z
" clip-path="url(#p468c22f2b2)" style="fill: #2ca02c; fill-opacity: 0.5; stroke: #2ca02c; stroke-linejoin: miter"/>
   </g>
   <g id="patch_117">
    <path d="M 139.850031 221.006154 
L 145.511462 221.006154 
L 145.511462 35.895531 
L 139.850031 35.895531 
z
" clip-path="url(#p468c22f2b2)" style="fill: #2ca02c; fill-opacity: 0.5; stroke: #2ca02c; stroke-linejoin: miter"/>
   </g>
   <g id="patch_118">
    <path d="M 145.511462 221.006154 
L 151.172892 221.006154 
L 151.172892 41.298752 
L 145.511462 41.298752 
z
" clip-path="url(#p468c22f2b2)" style="fill: #2ca02c; fill-opacity: 0.5; stroke: #2ca02c; stroke-linejoin: miter"/>
   </g>
   <g id="patch_119">
    <path d="M 151.172892 221.006154 
L 156.834323 221.006154 
L 156.834323 42.578936 
L 151.172892 42.578936 
z
" clip-path="url(#p468c22f2b2)" style="fill: #2ca02c; fill-opacity: 0.5; stroke: #2ca02c; stroke-linejoin: miter"/>
   </g>
   <g id="patch_120">
    <path d="M 156.834323 221.006154 
L 162.495754 221.006154 
L 162.495754 39.25355 
L 156.834323 39.25355 
z
" clip-path="url(#p468c22f2b2)" style="fill: #2ca02c; fill-opacity: 0.5; stroke: #2ca02c; stroke-linejoin: miter"/>
   </g>
   <g id="patch_121">
    <path d="M 162.495754 221.006154 
L 168.157185 221.006154 
L 168.157185 40.874857 
L 162.495754 40.874857 
z
" clip-path="url(#p468c22f2b2)" style="fill: #2ca02c; fill-opacity: 0.5; stroke: #2ca02c; stroke-linejoin: miter"/>
   </g>
   <g id="patch_122">
    <path d="M 168.157185 221.006154 
L 173.818615 221.006154 
L 173.818615 40.514045 
L 168.157185 40.514045 
z
" clip-path="url(#p468c22f2b2)" style="fill: #2ca02c; fill-opacity: 0.5; stroke: #2ca02c; stroke-linejoin: miter"/>
   </g>
   <g id="patch_123">
    <path d="M 173.818615 221.006154 
L 179.480046 221.006154 
L 179.480046 40.944758 
L 173.818615 40.944758 
z
" clip-path="url(#p468c22f2b2)" style="fill: #2ca02c; fill-opacity: 0.5; stroke: #2ca02c; stroke-linejoin: miter"/>
   </g>
   <g id="patch_124">
    <path d="M 179.480046 221.006154 
L 185.141477 221.006154 
L 185.141477 43.754347 
L 179.480046 43.754347 
z
" clip-path="url(#p468c22f2b2)" style="fill: #2ca02c; fill-opacity: 0.5; stroke: #2ca02c; stroke-linejoin: miter"/>
   </g>
   <g id="patch_125">
    <path d="M 185.141477 221.006154 
L 190.802908 221.006154 
L 190.802908 39.100298 
L 185.141477 39.100298 
z
" clip-path="url(#p468c22f2b2)" style="fill: #2ca02c; fill-opacity: 0.5; stroke: #2ca02c; stroke-linejoin: miter"/>
   </g>
   <g id="patch_126">
    <path d="M 190.802908 221.006154 
L 196.464339 221.006154 
L 196.464339 40.841276 
L 190.802908 40.841276 
z
" clip-path="url(#p468c22f2b2)" style="fill: #2ca02c; fill-opacity: 0.5; stroke: #2ca02c; stroke-linejoin: miter"/>
   </g>
   <g id="patch_127">
    <path d="M 196.464339 221.006154 
L 202.125769 221.006154 
L 202.125769 40.773646 
L 196.464339 40.773646 
z
" clip-path="url(#p468c22f2b2)" style="fill: #2ca02c; fill-opacity: 0.5; stroke: #2ca02c; stroke-linejoin: miter"/>
   </g>
   <g id="patch_128">
    <path d="M 202.125769 221.006154 
L 207.7872 221.006154 
L 207.7872 45.305074 
L 202.125769 45.305074 
z
" clip-path="url(#p468c22f2b2)" style="fill: #2ca02c; fill-opacity: 0.5; stroke: #2ca02c; stroke-linejoin: miter"/>
   </g>
   <g id="patch_129">
    <path d="M 207.7872 221.006154 
L 213.448631 221.006154 
L 213.448631 39.759553 
L 207.7872 39.759553 
z
" clip-path="url(#p468c22f2b2)" style="fill: #2ca02c; fill-opacity: 0.5; stroke: #2ca02c; stroke-linejoin: miter"/>
   </g>
   <g id="patch_130">
    <path d="M 213.448631 221.006154 
L 219.110062 221.006154 
L 219.110062 42.978465 
L 213.448631 42.978465 
z
" clip-path="url(#p468c22f2b2)" style="fill: #2ca02c; fill-opacity: 0.5; stroke: #2ca02c; stroke-linejoin: miter"/>
   </g>
   <g id="patch_131">
    <path d="M 219.110062 221.006154 
L 224.771492 221.006154 
L 224.771492 41.170315 
L 219.110062 41.170315 
z
" clip-path="url(#p468c22f2b2)" style="fill: #2ca02c; fill-opacity: 0.5; stroke: #2ca02c; stroke-linejoin: miter"/>
   </g>
   <g id="patch_132">
    <path d="M 224.771492 221.006154 
L 230.432923 221.006154 
L 230.432923 37.819202 
L 224.771492 37.819202 
z
" clip-path="url(#p468c22f2b2)" style="fill: #2ca02c; fill-opacity: 0.5; stroke: #2ca02c; stroke-linejoin: miter"/>
   </g>
   <g id="patch_133">
    <path d="M 230.432923 221.006154 
L 236.094354 221.006154 
L 236.094354 39.786431 
L 230.432923 39.786431 
z
" clip-path="url(#p468c22f2b2)" style="fill: #2ca02c; fill-opacity: 0.5; stroke: #2ca02c; stroke-linejoin: miter"/>
   </g>
   <g id="patch_134">
    <path d="M 236.094354 221.006154 
L 241.755785 221.006154 
L 241.755785 41.409751 
L 236.094354 41.409751 
z
" clip-path="url(#p468c22f2b2)" style="fill: #2ca02c; fill-opacity: 0.5; stroke: #2ca02c; stroke-linejoin: miter"/>
   </g>
   <g id="patch_135">
    <path d="M 241.755785 221.006154 
L 247.417215 221.006154 
L 247.417215 39.390318 
L 241.755785 39.390318 
z
" clip-path="url(#p468c22f2b2)" style="fill: #2ca02c; fill-opacity: 0.5; stroke: #2ca02c; stroke-linejoin: miter"/>
   </g>
   <g id="patch_136">
    <path d="M 247.417215 221.006154 
L 253.078646 221.006154 
L 253.078646 41.167283 
L 247.417215 41.167283 
z
" clip-path="url(#p468c22f2b2)" style="fill: #2ca02c; fill-opacity: 0.5; stroke: #2ca02c; stroke-linejoin: miter"/>
   </g>
   <g id="patch_137">
    <path d="M 253.078646 221.006154 
L 258.740077 221.006154 
L 258.740077 37.756968 
L 253.078646 37.756968 
z
" clip-path="url(#p468c22f2b2)" style="fill: #2ca02c; fill-opacity: 0.5; stroke: #2ca02c; stroke-linejoin: miter"/>
   </g>
   <g id="patch_138">
    <path d="M 258.740077 221.006154 
L 264.401508 221.006154 
L 264.401508 41.092758 
L 258.740077 41.092758 
z
" clip-path="url(#p468c22f2b2)" style="fill: #2ca02c; fill-opacity: 0.5; stroke: #2ca02c; stroke-linejoin: miter"/>
   </g>
   <g id="patch_139">
    <path d="M 264.401508 221.006154 
L 270.062939 221.006154 
L 270.062939 46.110204 
L 264.401508 46.110204 
z
" clip-path="url(#p468c22f2b2)" style="fill: #2ca02c; fill-opacity: 0.5; stroke: #2ca02c; stroke-linejoin: miter"/>
   </g>
   <g id="patch_140">
    <path d="M 270.062939 221.006154 
L 275.724369 221.006154 
L 275.724369 49.660371 
L 270.062939 49.660371 
z
" clip-path="url(#p468c22f2b2)" style="fill: #2ca02c; fill-opacity: 0.5; stroke: #2ca02c; stroke-linejoin: miter"/>
   </g>
   <g id="patch_141">
    <path d="M 275.724369 221.006154 
L 281.3858 221.006154 
L 281.3858 52.139745 
L 275.724369 52.139745 
z
" clip-path="url(#p468c22f2b2)" style="fill: #2ca02c; fill-opacity: 0.5; stroke: #2ca02c; stroke-linejoin: miter"/>
   </g>
   <g id="patch_142">
    <path d="M 281.3858 221.006154 
L 287.047231 221.006154 
L 287.047231 53.859391 
L 281.3858 53.859391 
z
" clip-path="url(#p468c22f2b2)" style="fill: #2ca02c; fill-opacity: 0.5; stroke: #2ca02c; stroke-linejoin: miter"/>
   </g>
   <g id="patch_143">
    <path d="M 287.047231 221.006154 
L 292.708662 221.006154 
L 292.708662 60.088347 
L 287.047231 60.088347 
z
" clip-path="url(#p468c22f2b2)" style="fill: #2ca02c; fill-opacity: 0.5; stroke: #2ca02c; stroke-linejoin: miter"/>
   </g>
   <g id="patch_144">
    <path d="M 292.708662 221.006154 
L 298.370092 221.006154 
L 298.370092 64.853133 
L 292.708662 64.853133 
z
" clip-path="url(#p468c22f2b2)" style="fill: #2ca02c; fill-opacity: 0.5; stroke: #2ca02c; stroke-linejoin: miter"/>
   </g>
   <g id="patch_145">
    <path d="M 298.370092 221.006154 
L 304.031523 221.006154 
L 304.031523 72.845953 
L 298.370092 72.845953 
z
" clip-path="url(#p468c22f2b2)" style="fill: #2ca02c; fill-opacity: 0.5; stroke: #2ca02c; stroke-linejoin: miter"/>
   </g>
   <g id="patch_146">
    <path d="M 304.031523 221.006154 
L 309.692954 221.006154 
L 309.692954 75.946214 
L 304.031523 75.946214 
z
" clip-path="url(#p468c22f2b2)" style="fill: #2ca02c; fill-opacity: 0.5; stroke: #2ca02c; stroke-linejoin: miter"/>
   </g>
   <g id="patch_147">
    <path d="M 309.692954 221.006154 
L 315.354385 221.006154 
L 315.354385 83.511973 
L 309.692954 83.511973 
z
" clip-path="url(#p468c22f2b2)" style="fill: #2ca02c; fill-opacity: 0.5; stroke: #2ca02c; stroke-linejoin: miter"/>
   </g>
   <g id="patch_148">
    <path d="M 315.354385 221.006154 
L 321.015815 221.006154 
L 321.015815 92.349665 
L 315.354385 92.349665 
z
" clip-path="url(#p468c22f2b2)" style="fill: #2ca02c; fill-opacity: 0.5; stroke: #2ca02c; stroke-linejoin: miter"/>
   </g>
   <g id="patch_149">
    <path d="M 321.015815 221.006154 
L 326.677246 221.006154 
L 326.677246 103.665501 
L 321.015815 103.665501 
z
" clip-path="url(#p468c22f2b2)" style="fill: #2ca02c; fill-opacity: 0.5; stroke: #2ca02c; stroke-linejoin: miter"/>
   </g>
   <g id="patch_150">
    <path d="M 326.677246 221.006154 
L 332.338677 221.006154 
L 332.338677 109.282074 
L 326.677246 109.282074 
z
" clip-path="url(#p468c22f2b2)" style="fill: #2ca02c; fill-opacity: 0.5; stroke: #2ca02c; stroke-linejoin: miter"/>
   </g>
   <g id="patch_151">
    <path d="M 332.338677 221.006154 
L 338.000108 221.006154 
L 338.000108 119.74181 
L 332.338677 119.74181 
z
" clip-path="url(#p468c22f2b2)" style="fill: #2ca02c; fill-opacity: 0.5; stroke: #2ca02c; stroke-linejoin: miter"/>
   </g>
   <g id="patch_152">
    <path d="M 338.000108 221.006154 
L 343.661538 221.006154 
L 343.661538 131.360078 
L 338.000108 131.360078 
z
" clip-path="url(#p468c22f2b2)" style="fill: #2ca02c; fill-opacity: 0.5; stroke: #2ca02c; stroke-linejoin: miter"/>
   </g>
   <g id="matplotlib.axis_1">
    <g id="xtick_1">
     <g id="line2d_1">
      <defs>
       <path id="ma7cddddd6a" d="M 0 0 
L 0 3.5 
" style="stroke: #000000; stroke-width: 0.8"/>
      </defs>
      <g>
       <use xlink:href="#ma7cddddd6a" x="74.892924" y="221.006154" style="stroke: #000000; stroke-width: 0.8"/>
      </g>
     </g>
     <g id="text_1">
      <!-- −2.0 -->
      <g transform="translate(62.751518 235.604591) scale(0.1 -0.1)">
       <defs>
        <path id="DejaVuSans-2212" d="M 678 2272 
L 4684 2272 
L 4684 1741 
L 678 1741 
L 678 2272 
z
" transform="scale(0.015625)"/>
        <path id="DejaVuSans-32" d="M 1228 531 
L 3431 531 
L 3431 0 
L 469 0 
L 469 531 
Q 828 903 1448 1529 
Q 2069 2156 2228 2338 
Q 2531 2678 2651 2914 
Q 2772 3150 2772 3378 
Q 2772 3750 2511 3984 
Q 2250 4219 1831 4219 
Q 1534 4219 1204 4116 
Q 875 4013 500 3803 
L 500 4441 
Q 881 4594 1212 4672 
Q 1544 4750 1819 4750 
Q 2544 4750 2975 4387 
Q 3406 4025 3406 3419 
Q 3406 3131 3298 2873 
Q 3191 2616 2906 2266 
Q 2828 2175 2409 1742 
Q 1991 1309 1228 531 
z
" transform="scale(0.015625)"/>
        <path id="DejaVuSans-2e" d="M 684 794 
L 1344 794 
L 1344 0 
L 684 0 
L 684 794 
z
" transform="scale(0.015625)"/>
        <path id="DejaVuSans-30" d="M 2034 4250 
Q 1547 4250 1301 3770 
Q 1056 3291 1056 2328 
Q 1056 1369 1301 889 
Q 1547 409 2034 409 
Q 2525 409 2770 889 
Q 3016 1369 3016 2328 
Q 3016 3291 2770 3770 
Q 2525 4250 2034 4250 
z
M 2034 4750 
Q 2819 4750 3233 4129 
Q 3647 3509 3647 2328 
Q 3647 1150 3233 529 
Q 2819 -91 2034 -91 
Q 1250 -91 836 529 
Q 422 1150 422 2328 
Q 422 3509 836 4129 
Q 1250 4750 2034 4750 
z
" transform="scale(0.015625)"/>
       </defs>
       <use xlink:href="#DejaVuSans-2212"/>
       <use xlink:href="#DejaVuSans-32" x="83.789062"/>
       <use xlink:href="#DejaVuSans-2e" x="147.412109"/>
       <use xlink:href="#DejaVuSans-30" x="179.199219"/>
      </g>
     </g>
    </g>
    <g id="xtick_2">
     <g id="line2d_2">
      <g>
       <use xlink:href="#ma7cddddd6a" x="106.746643" y="221.006154" style="stroke: #000000; stroke-width: 0.8"/>
      </g>
     </g>
     <g id="text_2">
      <!-- −1.5 -->
      <g transform="translate(94.605237 235.604591) scale(0.1 -0.1)">
       <defs>
        <path id="DejaVuSans-31" d="M 794 531 
L 1825 531 
L 1825 4091 
L 703 3866 
L 703 4441 
L 1819 4666 
L 2450 4666 
L 2450 531 
L 3481 531 
L 3481 0 
L 794 0 
L 794 531 
z
" transform="scale(0.015625)"/>
        <path id="DejaVuSans-35" d="M 691 4666 
L 3169 4666 
L 3169 4134 
L 1269 4134 
L 1269 2991 
Q 1406 3038 1543 3061 
Q 1681 3084 1819 3084 
Q 2600 3084 3056 2656 
Q 3513 2228 3513 1497 
Q 3513 744 3044 326 
Q 2575 -91 1722 -91 
Q 1428 -91 1123 -41 
Q 819 9 494 109 
L 494 744 
Q 775 591 1075 516 
Q 1375 441 1709 441 
Q 2250 441 2565 725 
Q 2881 1009 2881 1497 
Q 2881 1984 2565 2268 
Q 2250 2553 1709 2553 
Q 1456 2553 1204 2497 
Q 953 2441 691 2322 
L 691 4666 
z
" transform="scale(0.015625)"/>
       </defs>
       <use xlink:href="#DejaVuSans-2212"/>
       <use xlink:href="#DejaVuSans-31" x="83.789062"/>
       <use xlink:href="#DejaVuSans-2e" x="147.412109"/>
       <use xlink:href="#DejaVuSans-35" x="179.199219"/>
      </g>
     </g>
    </g>
    <g id="xtick_3">
     <g id="line2d_3">
      <g>
       <use xlink:href="#ma7cddddd6a" x="138.600362" y="221.006154" style="stroke: #000000; stroke-width: 0.8"/>
      </g>
     </g>
     <g id="text_3">
      <!-- −1.0 -->
      <g transform="translate(126.458956 235.604591) scale(0.1 -0.1)">
       <use xlink:href="#DejaVuSans-2212"/>
       <use xlink:href="#DejaVuSans-31" x="83.789062"/>
       <use xlink:href="#DejaVuSans-2e" x="147.412109"/>
       <use xlink:href="#DejaVuSans-30" x="179.199219"/>
      </g>
     </g>
    </g>
    <g id="xtick_4">
     <g id="line2d_4">
      <g>
       <use xlink:href="#ma7cddddd6a" x="170.454082" y="221.006154" style="stroke: #000000; stroke-width: 0.8"/>
      </g>
     </g>
     <g id="text_4">
      <!-- −0.5 -->
      <g transform="translate(158.312675 235.604591) scale(0.1 -0.1)">
       <use xlink:href="#DejaVuSans-2212"/>
       <use xlink:href="#DejaVuSans-30" x="83.789062"/>
       <use xlink:href="#DejaVuSans-2e" x="147.412109"/>
       <use xlink:href="#DejaVuSans-35" x="179.199219"/>
      </g>
     </g>
    </g>
    <g id="xtick_5">
     <g id="line2d_5">
      <g>
       <use xlink:href="#ma7cddddd6a" x="202.307801" y="221.006154" style="stroke: #000000; stroke-width: 0.8"/>
      </g>
     </g>
     <g id="text_5">
      <!-- 0.0 -->
      <g transform="translate(194.356239 235.604591) scale(0.1 -0.1)">
       <use xlink:href="#DejaVuSans-30"/>
       <use xlink:href="#DejaVuSans-2e" x="63.623047"/>
       <use xlink:href="#DejaVuSans-30" x="95.410156"/>
      </g>
     </g>
    </g>
    <g id="xtick_6">
     <g id="line2d_6">
      <g>
       <use xlink:href="#ma7cddddd6a" x="234.16152" y="221.006154" style="stroke: #000000; stroke-width: 0.8"/>
      </g>
     </g>
     <g id="text_6">
      <!-- 0.5 -->
      <g transform="translate(226.209958 235.604591) scale(0.1 -0.1)">
       <use xlink:href="#DejaVuSans-30"/>
       <use xlink:href="#DejaVuSans-2e" x="63.623047"/>
       <use xlink:href="#DejaVuSans-35" x="95.410156"/>
      </g>
     </g>
    </g>
    <g id="xtick_7">
     <g id="line2d_7">
      <g>
       <use xlink:href="#ma7cddddd6a" x="266.01524" y="221.006154" style="stroke: #000000; stroke-width: 0.8"/>
      </g>
     </g>
     <g id="text_7">
      <!-- 1.0 -->
      <g transform="translate(258.063677 235.604591) scale(0.1 -0.1)">
       <use xlink:href="#DejaVuSans-31"/>
       <use xlink:href="#DejaVuSans-2e" x="63.623047"/>
       <use xlink:href="#DejaVuSans-30" x="95.410156"/>
      </g>
     </g>
    </g>
    <g id="xtick_8">
     <g id="line2d_8">
      <g>
       <use xlink:href="#ma7cddddd6a" x="297.868959" y="221.006154" style="stroke: #000000; stroke-width: 0.8"/>
      </g>
     </g>
     <g id="text_8">
      <!-- 1.5 -->
      <g transform="translate(289.917396 235.604591) scale(0.1 -0.1)">
       <use xlink:href="#DejaVuSans-31"/>
       <use xlink:href="#DejaVuSans-2e" x="63.623047"/>
       <use xlink:href="#DejaVuSans-35" x="95.410156"/>
      </g>
     </g>
    </g>
    <g id="xtick_9">
     <g id="line2d_9">
      <g>
       <use xlink:href="#ma7cddddd6a" x="329.722678" y="221.006154" style="stroke: #000000; stroke-width: 0.8"/>
      </g>
     </g>
     <g id="text_9">
      <!-- 2.0 -->
      <g transform="translate(321.771116 235.604591) scale(0.1 -0.1)">
       <use xlink:href="#DejaVuSans-32"/>
       <use xlink:href="#DejaVuSans-2e" x="63.623047"/>
       <use xlink:href="#DejaVuSans-30" x="95.410156"/>
      </g>
     </g>
    </g>
    <g id="text_10">
     <!-- Top quark $\eta$ -->
     <g transform="translate(172.125769 249.284279) scale(0.1 -0.1)">
      <defs>
       <path id="DejaVuSans-54" d="M -19 4666 
L 3928 4666 
L 3928 4134 
L 2272 4134 
L 2272 0 
L 1638 0 
L 1638 4134 
L -19 4134 
L -19 4666 
z
" transform="scale(0.015625)"/>
       <path id="DejaVuSans-6f" d="M 1959 3097 
Q 1497 3097 1228 2736 
Q 959 2375 959 1747 
Q 959 1119 1226 758 
Q 1494 397 1959 397 
Q 2419 397 2687 759 
Q 2956 1122 2956 1747 
Q 2956 2369 2687 2733 
Q 2419 3097 1959 3097 
z
M 1959 3584 
Q 2709 3584 3137 3096 
Q 3566 2609 3566 1747 
Q 3566 888 3137 398 
Q 2709 -91 1959 -91 
Q 1206 -91 779 398 
Q 353 888 353 1747 
Q 353 2609 779 3096 
Q 1206 3584 1959 3584 
z
" transform="scale(0.015625)"/>
       <path id="DejaVuSans-70" d="M 1159 525 
L 1159 -1331 
L 581 -1331 
L 581 3500 
L 1159 3500 
L 1159 2969 
Q 1341 3281 1617 3432 
Q 1894 3584 2278 3584 
Q 2916 3584 3314 3078 
Q 3713 2572 3713 1747 
Q 3713 922 3314 415 
Q 2916 -91 2278 -91 
Q 1894 -91 1617 61 
Q 1341 213 1159 525 
z
M 3116 1747 
Q 3116 2381 2855 2742 
Q 2594 3103 2138 3103 
Q 1681 3103 1420 2742 
Q 1159 2381 1159 1747 
Q 1159 1113 1420 752 
Q 1681 391 2138 391 
Q 2594 391 2855 752 
Q 3116 1113 3116 1747 
z
" transform="scale(0.015625)"/>
       <path id="DejaVuSans-20" transform="scale(0.015625)"/>
       <path id="DejaVuSans-71" d="M 947 1747 
Q 947 1113 1208 752 
Q 1469 391 1925 391 
Q 2381 391 2643 752 
Q 2906 1113 2906 1747 
Q 2906 2381 2643 2742 
Q 2381 3103 1925 3103 
Q 1469 3103 1208 2742 
Q 947 2381 947 1747 
z
M 2906 525 
Q 2725 213 2448 61 
Q 2172 -91 1784 -91 
Q 1150 -91 751 415 
Q 353 922 353 1747 
Q 353 2572 751 3078 
Q 1150 3584 1784 3584 
Q 2172 3584 2448 3432 
Q 2725 3281 2906 2969 
L 2906 3500 
L 3481 3500 
L 3481 -1331 
L 2906 -1331 
L 2906 525 
z
" transform="scale(0.015625)"/>
       <path id="DejaVuSans-75" d="M 544 1381 
L 544 3500 
L 1119 3500 
L 1119 1403 
Q 1119 906 1312 657 
Q 1506 409 1894 409 
Q 2359 409 2629 706 
Q 2900 1003 2900 1516 
L 2900 3500 
L 3475 3500 
L 3475 0 
L 2900 0 
L 2900 538 
Q 2691 219 2414 64 
Q 2138 -91 1772 -91 
Q 1169 -91 856 284 
Q 544 659 544 1381 
z
M 1991 3584 
L 1991 3584 
z
" transform="scale(0.015625)"/>
       <path id="DejaVuSans-61" d="M 2194 1759 
Q 1497 1759 1228 1600 
Q 959 1441 959 1056 
Q 959 750 1161 570 
Q 1363 391 1709 391 
Q 2188 391 2477 730 
Q 2766 1069 2766 1631 
L 2766 1759 
L 2194 1759 
z
M 3341 1997 
L 3341 0 
L 2766 0 
L 2766 531 
Q 2569 213 2275 61 
Q 1981 -91 1556 -91 
Q 1019 -91 701 211 
Q 384 513 384 1019 
Q 384 1609 779 1909 
Q 1175 2209 1959 2209 
L 2766 2209 
L 2766 2266 
Q 2766 2663 2505 2880 
Q 2244 3097 1772 3097 
Q 1472 3097 1187 3025 
Q 903 2953 641 2809 
L 641 3341 
Q 956 3463 1253 3523 
Q 1550 3584 1831 3584 
Q 2591 3584 2966 3190 
Q 3341 2797 3341 1997 
z
" transform="scale(0.015625)"/>
       <path id="DejaVuSans-72" d="M 2631 2963 
Q 2534 3019 2420 3045 
Q 2306 3072 2169 3072 
Q 1681 3072 1420 2755 
Q 1159 2438 1159 1844 
L 1159 0 
L 581 0 
L 581 3500 
L 1159 3500 
L 1159 2956 
Q 1341 3275 1631 3429 
Q 1922 3584 2338 3584 
Q 2397 3584 2469 3576 
Q 2541 3569 2628 3553 
L 2631 2963 
z
" transform="scale(0.015625)"/>
       <path id="DejaVuSans-6b" d="M 581 4863 
L 1159 4863 
L 1159 1991 
L 2875 3500 
L 3609 3500 
L 1753 1863 
L 3688 0 
L 2938 0 
L 1159 1709 
L 1159 0 
L 581 0 
L 581 4863 
z
" transform="scale(0.015625)"/>
       <path id="DejaVuSans-Oblique-3b7" d="M 3703 2113 
L 3034 -1331 
L 2459 -1331 
L 3125 2094 
Q 3222 2591 3075 2838 
Q 2931 3084 2544 3084 
Q 2078 3084 1750 2788 
Q 1425 2491 1325 1978 
L 941 0 
L 363 0 
L 1044 3500 
L 1622 3500 
L 1516 2956 
Q 1781 3272 2094 3428 
Q 2403 3584 2769 3584 
Q 3372 3584 3609 3213 
Q 3844 2838 3703 2113 
z
" transform="scale(0.015625)"/>
      </defs>
      <use xlink:href="#DejaVuSans-54" transform="translate(0 0.015625)"/>
      <use xlink:href="#DejaVuSans-6f" transform="translate(61.083984 0.015625)"/>
      <use xlink:href="#DejaVuSans-70" transform="translate(122.265625 0.015625)"/>
      <use xlink:href="#DejaVuSans-20" transform="translate(185.742188 0.015625)"/>
      <use xlink:href="#DejaVuSans-71" transform="translate(217.529297 0.015625)"/>
      <use xlink:href="#DejaVuSans-75" transform="translate(281.005859 0.015625)"/>
      <use xlink:href="#DejaVuSans-61" transform="translate(344.384766 0.015625)"/>
      <use xlink:href="#DejaVuSans-72" transform="translate(405.664062 0.015625)"/>
      <use xlink:href="#DejaVuSans-6b" transform="translate(446.777344 0.015625)"/>
      <use xlink:href="#DejaVuSans-20" transform="translate(504.6875 0.015625)"/>
      <use xlink:href="#DejaVuSans-Oblique-3b7" transform="translate(536.474609 0.015625)"/>
     </g>
    </g>
   </g>
   <g id="matplotlib.axis_2">
    <g id="ytick_1">
     <g id="line2d_10">
      <defs>
       <path id="m7fa47b591d" d="M 0 0 
L -3.5 0 
" style="stroke: #000000; stroke-width: 0.8"/>
      </defs>
      <g>
       <use xlink:href="#m7fa47b591d" x="60.59" y="221.006154" style="stroke: #000000; stroke-width: 0.8"/>
      </g>
     </g>
     <g id="text_11">
      <!-- 0.000 -->
      <g transform="translate(24.961875 224.805373) scale(0.1 -0.1)">
       <use xlink:href="#DejaVuSans-30"/>
       <use xlink:href="#DejaVuSans-2e" x="63.623047"/>
       <use xlink:href="#DejaVuSans-30" x="95.410156"/>
       <use xlink:href="#DejaVuSans-30" x="159.033203"/>
       <use xlink:href="#DejaVuSans-30" x="222.65625"/>
      </g>
     </g>
    </g>
    <g id="ytick_2">
     <g id="line2d_11">
      <g>
       <use xlink:href="#m7fa47b591d" x="60.59" y="192.920843" style="stroke: #000000; stroke-width: 0.8"/>
      </g>
     </g>
     <g id="text_12">
      <!-- 0.001 -->
      <g transform="translate(24.961875 196.720061) scale(0.1 -0.1)">
       <use xlink:href="#DejaVuSans-30"/>
       <use xlink:href="#DejaVuSans-2e" x="63.623047"/>
       <use xlink:href="#DejaVuSans-30" x="95.410156"/>
       <use xlink:href="#DejaVuSans-30" x="159.033203"/>
       <use xlink:href="#DejaVuSans-31" x="222.65625"/>
      </g>
     </g>
    </g>
    <g id="ytick_3">
     <g id="line2d_12">
      <g>
       <use xlink:href="#m7fa47b591d" x="60.59" y="164.835532" style="stroke: #000000; stroke-width: 0.8"/>
      </g>
     </g>
     <g id="text_13">
      <!-- 0.002 -->
      <g transform="translate(24.961875 168.63475) scale(0.1 -0.1)">
       <use xlink:href="#DejaVuSans-30"/>
       <use xlink:href="#DejaVuSans-2e" x="63.623047"/>
       <use xlink:href="#DejaVuSans-30" x="95.410156"/>
       <use xlink:href="#DejaVuSans-30" x="159.033203"/>
       <use xlink:href="#DejaVuSans-32" x="222.65625"/>
      </g>
     </g>
    </g>
    <g id="ytick_4">
     <g id="line2d_13">
      <g>
       <use xlink:href="#m7fa47b591d" x="60.59" y="136.75022" style="stroke: #000000; stroke-width: 0.8"/>
      </g>
     </g>
     <g id="text_14">
      <!-- 0.003 -->
      <g transform="translate(24.961875 140.549439) scale(0.1 -0.1)">
       <defs>
        <path id="DejaVuSans-33" d="M 2597 2516 
Q 3050 2419 3304 2112 
Q 3559 1806 3559 1356 
Q 3559 666 3084 287 
Q 2609 -91 1734 -91 
Q 1441 -91 1130 -33 
Q 819 25 488 141 
L 488 750 
Q 750 597 1062 519 
Q 1375 441 1716 441 
Q 2309 441 2620 675 
Q 2931 909 2931 1356 
Q 2931 1769 2642 2001 
Q 2353 2234 1838 2234 
L 1294 2234 
L 1294 2753 
L 1863 2753 
Q 2328 2753 2575 2939 
Q 2822 3125 2822 3475 
Q 2822 3834 2567 4026 
Q 2313 4219 1838 4219 
Q 1578 4219 1281 4162 
Q 984 4106 628 3988 
L 628 4550 
Q 988 4650 1302 4700 
Q 1616 4750 1894 4750 
Q 2613 4750 3031 4423 
Q 3450 4097 3450 3541 
Q 3450 3153 3228 2886 
Q 3006 2619 2597 2516 
z
" transform="scale(0.015625)"/>
       </defs>
       <use xlink:href="#DejaVuSans-30"/>
       <use xlink:href="#DejaVuSans-2e" x="63.623047"/>
       <use xlink:href="#DejaVuSans-30" x="95.410156"/>
       <use xlink:href="#DejaVuSans-30" x="159.033203"/>
       <use xlink:href="#DejaVuSans-33" x="222.65625"/>
      </g>
     </g>
    </g>
    <g id="ytick_5">
     <g id="line2d_14">
      <g>
       <use xlink:href="#m7fa47b591d" x="60.59" y="108.664909" style="stroke: #000000; stroke-width: 0.8"/>
      </g>
     </g>
     <g id="text_15">
      <!-- 0.004 -->
      <g transform="translate(24.961875 112.464128) scale(0.1 -0.1)">
       <defs>
        <path id="DejaVuSans-34" d="M 2419 4116 
L 825 1625 
L 2419 1625 
L 2419 4116 
z
M 2253 4666 
L 3047 4666 
L 3047 1625 
L 3713 1625 
L 3713 1100 
L 3047 1100 
L 3047 0 
L 2419 0 
L 2419 1100 
L 313 1100 
L 313 1709 
L 2253 4666 
z
" transform="scale(0.015625)"/>
       </defs>
       <use xlink:href="#DejaVuSans-30"/>
       <use xlink:href="#DejaVuSans-2e" x="63.623047"/>
       <use xlink:href="#DejaVuSans-30" x="95.410156"/>
       <use xlink:href="#DejaVuSans-30" x="159.033203"/>
       <use xlink:href="#DejaVuSans-34" x="222.65625"/>
      </g>
     </g>
    </g>
    <g id="ytick_6">
     <g id="line2d_15">
      <g>
       <use xlink:href="#m7fa47b591d" x="60.59" y="80.579598" style="stroke: #000000; stroke-width: 0.8"/>
      </g>
     </g>
     <g id="text_16">
      <!-- 0.005 -->
      <g transform="translate(24.961875 84.378817) scale(0.1 -0.1)">
       <use xlink:href="#DejaVuSans-30"/>
       <use xlink:href="#DejaVuSans-2e" x="63.623047"/>
       <use xlink:href="#DejaVuSans-30" x="95.410156"/>
       <use xlink:href="#DejaVuSans-30" x="159.033203"/>
       <use xlink:href="#DejaVuSans-35" x="222.65625"/>
      </g>
     </g>
    </g>
    <g id="ytick_7">
     <g id="line2d_16">
      <g>
       <use xlink:href="#m7fa47b591d" x="60.59" y="52.494287" style="stroke: #000000; stroke-width: 0.8"/>
      </g>
     </g>
     <g id="text_17">
      <!-- 0.006 -->
      <g transform="translate(24.961875 56.293506) scale(0.1 -0.1)">
       <defs>
        <path id="DejaVuSans-36" d="M 2113 2584 
Q 1688 2584 1439 2293 
Q 1191 2003 1191 1497 
Q 1191 994 1439 701 
Q 1688 409 2113 409 
Q 2538 409 2786 701 
Q 3034 994 3034 1497 
Q 3034 2003 2786 2293 
Q 2538 2584 2113 2584 
z
M 3366 4563 
L 3366 3988 
Q 3128 4100 2886 4159 
Q 2644 4219 2406 4219 
Q 1781 4219 1451 3797 
Q 1122 3375 1075 2522 
Q 1259 2794 1537 2939 
Q 1816 3084 2150 3084 
Q 2853 3084 3261 2657 
Q 3669 2231 3669 1497 
Q 3669 778 3244 343 
Q 2819 -91 2113 -91 
Q 1303 -91 875 529 
Q 447 1150 447 2328 
Q 447 3434 972 4092 
Q 1497 4750 2381 4750 
Q 2619 4750 2861 4703 
Q 3103 4656 3366 4563 
z
" transform="scale(0.015625)"/>
       </defs>
       <use xlink:href="#DejaVuSans-30"/>
       <use xlink:href="#DejaVuSans-2e" x="63.623047"/>
       <use xlink:href="#DejaVuSans-30" x="95.410156"/>
       <use xlink:href="#DejaVuSans-30" x="159.033203"/>
       <use xlink:href="#DejaVuSans-36" x="222.65625"/>
      </g>
     </g>
    </g>
    <g id="text_18">
     <!-- Events / bin -->
     <g transform="translate(18.882187 153.346514) rotate(-90) scale(0.1 -0.1)">
      <defs>
       <path id="DejaVuSans-45" d="M 628 4666 
L 3578 4666 
L 3578 4134 
L 1259 4134 
L 1259 2753 
L 3481 2753 
L 3481 2222 
L 1259 2222 
L 1259 531 
L 3634 531 
L 3634 0 
L 628 0 
L 628 4666 
z
" transform="scale(0.015625)"/>
       <path id="DejaVuSans-76" d="M 191 3500 
L 800 3500 
L 1894 563 
L 2988 3500 
L 3597 3500 
L 2284 0 
L 1503 0 
L 191 3500 
z
" transform="scale(0.015625)"/>
       <path id="DejaVuSans-65" d="M 3597 1894 
L 3597 1613 
L 953 1613 
Q 991 1019 1311 708 
Q 1631 397 2203 397 
Q 2534 397 2845 478 
Q 3156 559 3463 722 
L 3463 178 
Q 3153 47 2828 -22 
Q 2503 -91 2169 -91 
Q 1331 -91 842 396 
Q 353 884 353 1716 
Q 353 2575 817 3079 
Q 1281 3584 2069 3584 
Q 2775 3584 3186 3129 
Q 3597 2675 3597 1894 
z
M 3022 2063 
Q 3016 2534 2758 2815 
Q 2500 3097 2075 3097 
Q 1594 3097 1305 2825 
Q 1016 2553 972 2059 
L 3022 2063 
z
" transform="scale(0.015625)"/>
       <path id="DejaVuSans-6e" d="M 3513 2113 
L 3513 0 
L 2938 0 
L 2938 2094 
Q 2938 2591 2744 2837 
Q 2550 3084 2163 3084 
Q 1697 3084 1428 2787 
Q 1159 2491 1159 1978 
L 1159 0 
L 581 0 
L 581 3500 
L 1159 3500 
L 1159 2956 
Q 1366 3272 1645 3428 
Q 1925 3584 2291 3584 
Q 2894 3584 3203 3211 
Q 3513 2838 3513 2113 
z
" transform="scale(0.015625)"/>
       <path id="DejaVuSans-74" d="M 1172 4494 
L 1172 3500 
L 2356 3500 
L 2356 3053 
L 1172 3053 
L 1172 1153 
Q 1172 725 1289 603 
Q 1406 481 1766 481 
L 2356 481 
L 2356 0 
L 1766 0 
Q 1100 0 847 248 
Q 594 497 594 1153 
L 594 3053 
L 172 3053 
L 172 3500 
L 594 3500 
L 594 4494 
L 1172 4494 
z
" transform="scale(0.015625)"/>
       <path id="DejaVuSans-73" d="M 2834 3397 
L 2834 2853 
Q 2591 2978 2328 3040 
Q 2066 3103 1784 3103 
Q 1356 3103 1142 2972 
Q 928 2841 928 2578 
Q 928 2378 1081 2264 
Q 1234 2150 1697 2047 
L 1894 2003 
Q 2506 1872 2764 1633 
Q 3022 1394 3022 966 
Q 3022 478 2636 193 
Q 2250 -91 1575 -91 
Q 1294 -91 989 -36 
Q 684 19 347 128 
L 347 722 
Q 666 556 975 473 
Q 1284 391 1588 391 
Q 1994 391 2212 530 
Q 2431 669 2431 922 
Q 2431 1156 2273 1281 
Q 2116 1406 1581 1522 
L 1381 1569 
Q 847 1681 609 1914 
Q 372 2147 372 2553 
Q 372 3047 722 3315 
Q 1072 3584 1716 3584 
Q 2034 3584 2315 3537 
Q 2597 3491 2834 3397 
z
" transform="scale(0.015625)"/>
       <path id="DejaVuSans-2f" d="M 1625 4666 
L 2156 4666 
L 531 -594 
L 0 -594 
L 1625 4666 
z
" transform="scale(0.015625)"/>
       <path id="DejaVuSans-62" d="M 3116 1747 
Q 3116 2381 2855 2742 
Q 2594 3103 2138 3103 
Q 1681 3103 1420 2742 
Q 1159 2381 1159 1747 
Q 1159 1113 1420 752 
Q 1681 391 2138 391 
Q 2594 391 2855 752 
Q 3116 1113 3116 1747 
z
M 1159 2969 
Q 1341 3281 1617 3432 
Q 1894 3584 2278 3584 
Q 2916 3584 3314 3078 
Q 3713 2572 3713 1747 
Q 3713 922 3314 415 
Q 2916 -91 2278 -91 
Q 1894 -91 1617 61 
Q 1341 213 1159 525 
L 1159 0 
L 581 0 
L 581 4863 
L 1159 4863 
L 1159 2969 
z
" transform="scale(0.015625)"/>
       <path id="DejaVuSans-69" d="M 603 3500 
L 1178 3500 
L 1178 0 
L 603 0 
L 603 3500 
z
M 603 4863 
L 1178 4863 
L 1178 4134 
L 603 4134 
L 603 4863 
z
" transform="scale(0.015625)"/>
      </defs>
      <use xlink:href="#DejaVuSans-45"/>
      <use xlink:href="#DejaVuSans-76" x="63.183594"/>
      <use xlink:href="#DejaVuSans-65" x="122.363281"/>
      <use xlink:href="#DejaVuSans-6e" x="183.886719"/>
      <use xlink:href="#DejaVuSans-74" x="247.265625"/>
      <use xlink:href="#DejaVuSans-73" x="286.474609"/>
      <use xlink:href="#DejaVuSans-20" x="338.574219"/>
      <use xlink:href="#DejaVuSans-2f" x="370.361328"/>
      <use xlink:href="#DejaVuSans-20" x="404.052734"/>
      <use xlink:href="#DejaVuSans-62" x="435.839844"/>
      <use xlink:href="#DejaVuSans-69" x="499.316406"/>
      <use xlink:href="#DejaVuSans-6e" x="527.099609"/>
     </g>
    </g>
   </g>
   <g id="patch_153">
    <path d="M 60.59 221.006154 
L 60.59 26.64 
" style="fill: none; stroke: #000000; stroke-width: 0.8; stroke-linejoin: miter; stroke-linecap: square"/>
   </g>
   <g id="patch_154">
    <path d="M 343.661538 221.006154 
L 343.661538 26.64 
" style="fill: none; stroke: #000000; stroke-width: 0.8; stroke-linejoin: miter; stroke-linecap: square"/>
   </g>
   <g id="patch_155">
    <path d="M 60.59 221.006154 
L 343.661538 221.006154 
" style="fill: none; stroke: #000000; stroke-width: 0.8; stroke-linejoin: miter; stroke-linecap: square"/>
   </g>
   <g id="patch_156">
    <path d="M 60.59 26.64 
L 343.661538 26.64 
" style="fill: none; stroke: #000000; stroke-width: 0.8; stroke-linejoin: miter; stroke-linecap: square"/>
   </g>
   <g id="text_19">
    <!-- CMS -->
    <g transform="translate(60.59 22.956328) scale(0.169 -0.169)">
     <defs>
      <path id="TeXGyreHeros-Bold-43" d="M 4384 1594 
L 3450 1594 
C 3392 998 3014 730 2419 730 
C 1677 730 1242 1299 1242 2317 
C 1242 3347 1696 3923 2451 3923 
C 2970 3923 3309 3686 3450 3085 
L 4365 3085 
C 4282 4160 3469 4742 2419 4742 
C 1101 4742 282 3840 282 2330 
C 282 832 1094 -77 2394 -77 
C 3552 -77 4326 525 4384 1594 
z
" transform="scale(0.015625)"/>
      <path id="TeXGyreHeros-Bold-4d" d="M 4966 0 
L 4966 4666 
L 3520 4666 
L 2701 954 
L 1856 4666 
L 422 4666 
L 422 0 
L 1382 0 
L 1382 3635 
L 2221 0 
L 3181 0 
L 4006 3635 
L 4006 0 
L 4966 0 
z
" transform="scale(0.015625)"/>
      <path id="TeXGyreHeros-Bold-53" d="M 4051 1402 
C 4051 2138 3680 2483 2816 2650 
L 2086 2790 
C 1402 2925 1203 3059 1203 3398 
C 1203 3750 1517 3974 2010 3974 
C 2618 3974 2989 3718 2989 3245 
L 3885 3245 
C 3885 4230 3194 4742 2054 4742 
C 934 4742 288 4218 288 3309 
C 288 2579 653 2240 1600 2054 
L 2253 1926 
C 2893 1798 3130 1664 3130 1286 
C 3130 896 2771 691 2189 691 
C 1536 691 1139 966 1139 1466 
L 205 1466 
C 205 467 947 -77 2138 -77 
C 3341 -77 4051 454 4051 1402 
z
" transform="scale(0.015625)"/>
     </defs>
     <use xlink:href="#TeXGyreHeros-Bold-43"/>
     <use xlink:href="#TeXGyreHeros-Bold-4d" x="72.199982"/>
     <use xlink:href="#TeXGyreHeros-Bold-53" x="155.499969"/>
    </g>
   </g>
   <g id="text_20">
    <!-- Private work (CMS simulation) -->
    <g transform="translate(99.902 22.899575) scale(0.13 -0.13)">
     <defs>
      <path id="TeXGyreHeros-Italic-50" d="M 4371 3635 
C 4371 4314 3968 4666 3187 4666 
L 1254 4666 
L 262 0 
L 864 0 
L 1286 1978 
L 2746 1978 
C 3712 1978 4371 2771 4371 3635 
z
M 3757 3520 
C 3757 2957 3302 2502 2637 2502 
L 1395 2502 
L 1747 4141 
L 2989 4141 
C 3488 4141 3757 3923 3757 3520 
z
" transform="scale(0.015625)"/>
      <path id="TeXGyreHeros-Italic-72" d="M 2355 2886 
L 2470 3430 
C 2387 3443 2336 3450 2266 3450 
C 1894 3450 1606 3283 1210 2829 
L 1318 3354 
L 832 3354 
L 122 0 
L 659 0 
L 1030 1741 
C 1190 2496 1626 2886 2291 2886 
L 2355 2886 
z
" transform="scale(0.015625)"/>
      <path id="TeXGyreHeros-Italic-69" d="M 659 0 
L 1370 3354 
L 832 3354 
L 122 0 
L 659 0 
z
M 1677 4525 
L 1011 4525 
L 870 3866 
L 1536 3866 
L 1677 4525 
z
" transform="scale(0.015625)"/>
      <path id="TeXGyreHeros-Italic-76" d="M 3507 3354 
L 2925 3354 
L 1363 653 
L 1050 3354 
L 461 3354 
L 934 0 
L 1517 0 
L 3507 3354 
z
" transform="scale(0.015625)"/>
      <path id="TeXGyreHeros-Italic-61" d="M 3149 0 
L 3232 416 
C 3174 403 3149 403 3123 403 
C 2957 403 2880 461 2880 589 
C 2880 614 2880 634 2886 653 
L 3277 2490 
C 3315 2662 3315 2662 3315 2726 
C 3315 3162 2874 3450 2202 3450 
C 1312 3450 768 3072 646 2362 
L 1184 2362 
C 1312 2771 1587 2957 2061 2957 
C 2445 2957 2739 2784 2739 2547 
C 2739 2522 2733 2477 2726 2426 
L 2707 2310 
C 2662 2048 2515 1971 2061 1933 
C 1203 1850 934 1792 621 1594 
C 288 1382 102 1069 102 698 
C 102 186 454 -96 1030 -96 
C 1446 -96 1818 -38 2310 371 
L 2304 275 
C 2304 13 2502 -58 2810 -58 
C 2899 -58 2893 -45 3149 0 
z
M 2566 1651 
L 2451 1101 
C 2368 704 1805 365 1242 365 
C 877 365 666 493 666 762 
C 666 1165 954 1370 1632 1466 
C 2234 1549 2285 1555 2566 1651 
z
" transform="scale(0.015625)"/>
      <path id="TeXGyreHeros-Italic-74" d="M 1408 467 
C 1210 422 1178 416 1101 416 
C 960 416 870 486 870 589 
C 870 608 877 640 883 678 
L 1363 2925 
L 1933 2925 
L 2022 3354 
L 1453 3354 
L 1651 4275 
L 1114 4275 
L 915 3354 
L 461 3354 
L 371 2925 
L 826 2925 
L 339 659 
C 326 595 320 525 320 461 
C 320 147 538 -45 890 -45 
C 1018 -45 1216 -26 1306 0 
L 1408 467 
z
" transform="scale(0.015625)"/>
      <path id="TeXGyreHeros-Italic-65" d="M 3290 1523 
L 3302 1606 
C 3360 1914 3392 2182 3392 2355 
C 3392 2970 2861 3450 2170 3450 
C 1613 3450 1075 3187 755 2758 
C 454 2355 224 1651 224 1133 
C 224 467 717 -96 1498 -96 
C 2266 -96 2912 326 3110 1018 
L 2573 1018 
C 2355 627 2016 397 1587 397 
C 1082 397 787 685 787 1229 
C 781 1338 787 1402 819 1523 
L 3290 1523 
z
M 2816 1984 
L 934 1984 
C 1094 2547 1568 2957 2086 2957 
C 2541 2957 2829 2650 2829 2170 
C 2829 2106 2822 2061 2816 1984 
z
" transform="scale(0.015625)"/>
      <path id="TeXGyreHeros-Italic-20" transform="scale(0.015625)"/>
      <path id="TeXGyreHeros-Italic-77" d="M 4928 3354 
L 4346 3354 
L 3091 742 
L 3091 3354 
L 2349 3354 
L 1139 742 
L 1139 3354 
L 435 3354 
L 691 0 
L 1306 0 
L 2554 2675 
L 2554 0 
L 3238 0 
L 4928 3354 
z
" transform="scale(0.015625)"/>
      <path id="TeXGyreHeros-Italic-6f" d="M 3366 2253 
C 3366 2931 2906 3450 2138 3450 
C 934 3450 198 2342 198 1075 
C 198 365 698 -96 1414 -96 
C 2579 -96 3366 922 3366 2253 
z
M 2803 2131 
C 2803 1178 2266 397 1504 397 
C 1050 397 762 691 762 1203 
C 762 2131 1299 2957 2054 2957 
C 2528 2957 2803 2650 2803 2131 
z
" transform="scale(0.015625)"/>
      <path id="TeXGyreHeros-Italic-6b" d="M 2893 0 
L 1997 2195 
L 3418 3354 
L 2726 3354 
L 1005 1958 
L 1581 4666 
L 1043 4666 
L 51 0 
L 589 0 
L 864 1299 
L 1549 1862 
L 2278 0 
L 2893 0 
z
" transform="scale(0.015625)"/>
      <path id="TeXGyreHeros-Italic-28" d="M 1254 -1363 
C 1018 -749 902 -147 902 506 
C 902 1926 1459 3347 2534 4666 
L 2182 4666 
C 1069 3501 403 2042 403 742 
C 403 -19 589 -813 902 -1363 
L 1254 -1363 
z
" transform="scale(0.015625)"/>
      <path id="TeXGyreHeros-Italic-43" d="M 4384 1702 
L 3757 1702 
C 3354 787 2950 403 2125 403 
C 1459 403 1018 922 1018 1696 
C 1018 2278 1210 2925 1536 3411 
C 1926 3987 2394 4262 2982 4262 
C 3629 4262 3942 3910 3994 3219 
L 4608 3219 
C 4557 4262 3974 4781 3091 4781 
C 2342 4781 1722 4480 1222 3878 
C 717 3270 403 2381 403 1581 
C 403 563 1011 -115 2035 -115 
C 3162 -115 3840 410 4384 1702 
z
" transform="scale(0.015625)"/>
      <path id="TeXGyreHeros-Italic-4d" d="M 5542 4666 
L 4704 4666 
L 2490 653 
L 1978 4666 
L 1152 4666 
L 160 0 
L 730 0 
L 1555 3872 
L 2048 0 
L 2669 0 
L 4806 3872 
L 3981 0 
L 4550 0 
L 5542 4666 
z
" transform="scale(0.015625)"/>
      <path id="TeXGyreHeros-Italic-53" d="M 3968 1549 
C 3968 1978 3667 2349 3187 2490 
L 2086 2803 
C 1594 2944 1440 3072 1440 3354 
C 1440 3866 1952 4262 2694 4262 
C 3398 4262 3667 3994 3667 3565 
C 3667 3507 3661 3462 3642 3334 
L 4205 3334 
C 4243 3514 4256 3597 4256 3693 
C 4256 4339 3712 4781 2810 4781 
C 2150 4781 1632 4595 1286 4237 
C 1024 3968 826 3514 826 3187 
C 826 2784 1107 2445 1536 2323 
L 2630 2010 
C 3142 1862 3354 1670 3354 1370 
C 3354 838 2771 403 1901 403 
C 1178 403 845 672 845 1254 
C 845 1338 851 1395 870 1517 
L 314 1517 
C 269 1350 256 1248 256 1114 
C 256 346 832 -115 1798 -115 
C 2470 -115 3034 70 3411 422 
C 3738 723 3968 1190 3968 1549 
z
" transform="scale(0.015625)"/>
      <path id="TeXGyreHeros-Italic-73" d="M 2848 1158 
C 2848 1549 2637 1754 2074 1894 
L 1587 2016 
C 1229 2106 1043 2234 1043 2400 
C 1043 2726 1363 2957 1850 2957 
C 2227 2957 2438 2810 2438 2560 
C 2438 2515 2438 2470 2432 2419 
L 2970 2419 
C 3002 2554 3008 2611 3008 2694 
C 3008 3142 2579 3450 1958 3450 
C 1069 3450 480 2938 480 2259 
C 480 1869 704 1677 1363 1510 
L 1837 1389 
C 2240 1286 2285 1146 2285 1011 
C 2285 646 1862 397 1370 397 
C 928 397 678 570 678 890 
C 678 928 685 986 691 1050 
L 122 1050 
C 90 902 83 826 83 723 
C 83 211 531 -96 1274 -96 
C 2227 -96 2848 397 2848 1158 
z
" transform="scale(0.015625)"/>
      <path id="TeXGyreHeros-Italic-6d" d="M 4589 0 
L 5094 2387 
C 5114 2458 5133 2669 5133 2739 
C 5133 3072 4883 3450 4320 3450 
C 3904 3450 3539 3283 3162 2918 
C 3059 3277 2810 3450 2387 3450 
C 1952 3450 1658 3322 1248 2938 
L 1331 3354 
L 845 3354 
L 134 0 
L 672 0 
L 1120 2106 
C 1222 2592 1658 2989 2086 2989 
C 2400 2989 2611 2810 2611 2547 
C 2611 2477 2605 2394 2586 2310 
L 2093 0 
L 2630 0 
L 3078 2106 
C 3181 2605 3616 2989 4083 2989 
C 4384 2989 4570 2803 4570 2496 
C 4570 2400 4570 2400 4512 2182 
L 4051 0 
L 4589 0 
z
" transform="scale(0.015625)"/>
      <path id="TeXGyreHeros-Italic-75" d="M 2771 0 
L 3482 3354 
L 2944 3354 
L 2554 1504 
C 2406 813 1952 365 1408 365 
C 1062 365 838 557 838 858 
C 838 909 845 966 858 1030 
L 1350 3354 
L 813 3354 
L 275 819 
C 262 755 256 685 256 602 
C 256 166 589 -96 1139 -96 
C 1638 -96 2003 58 2368 390 
L 2285 0 
L 2771 0 
z
" transform="scale(0.015625)"/>
      <path id="TeXGyreHeros-Italic-6c" d="M 1645 4666 
L 1107 4666 
L 115 0 
L 653 0 
L 1645 4666 
z
" transform="scale(0.015625)"/>
      <path id="TeXGyreHeros-Italic-6e" d="M 3328 2406 
C 3347 2490 3354 2566 3354 2650 
C 3354 3136 3014 3450 2483 3450 
C 1997 3450 1574 3277 1242 2938 
L 1325 3354 
L 838 3354 
L 128 0 
L 666 0 
L 1056 1850 
C 1203 2554 1658 2989 2234 2989 
C 2554 2989 2790 2765 2790 2470 
C 2790 2432 2771 2336 2752 2234 
L 2278 0 
L 2816 0 
L 3328 2406 
z
" transform="scale(0.015625)"/>
      <path id="TeXGyreHeros-Italic-29" d="M 1760 2605 
C 1760 3328 1568 4134 1267 4666 
L 915 4666 
C 1158 4045 1267 3443 1267 2758 
C 1267 1376 698 -64 -365 -1363 
L -13 -1363 
C 1094 -205 1760 1274 1760 2605 
z
" transform="scale(0.015625)"/>
     </defs>
     <use xlink:href="#TeXGyreHeros-Italic-50"/>
     <use xlink:href="#TeXGyreHeros-Italic-72" x="66.699997"/>
     <use xlink:href="#TeXGyreHeros-Italic-69" x="99.999985"/>
     <use xlink:href="#TeXGyreHeros-Italic-76" x="122.199982"/>
     <use xlink:href="#TeXGyreHeros-Italic-61" x="172.199966"/>
     <use xlink:href="#TeXGyreHeros-Italic-74" x="227.799957"/>
     <use xlink:href="#TeXGyreHeros-Italic-65" x="255.599945"/>
     <use xlink:href="#TeXGyreHeros-Italic-20" x="311.199936"/>
     <use xlink:href="#TeXGyreHeros-Italic-77" x="338.999924"/>
     <use xlink:href="#TeXGyreHeros-Italic-6f" x="411.199905"/>
     <use xlink:href="#TeXGyreHeros-Italic-72" x="466.799896"/>
     <use xlink:href="#TeXGyreHeros-Italic-6b" x="500.099884"/>
     <use xlink:href="#TeXGyreHeros-Italic-20" x="550.099869"/>
     <use xlink:href="#TeXGyreHeros-Italic-28" x="577.899857"/>
     <use xlink:href="#TeXGyreHeros-Italic-43" x="611.199844"/>
     <use xlink:href="#TeXGyreHeros-Italic-4d" x="683.399826"/>
     <use xlink:href="#TeXGyreHeros-Italic-53" x="766.699814"/>
     <use xlink:href="#TeXGyreHeros-Italic-20" x="833.399811"/>
     <use xlink:href="#TeXGyreHeros-Italic-73" x="861.199799"/>
     <use xlink:href="#TeXGyreHeros-Italic-69" x="911.199783"/>
     <use xlink:href="#TeXGyreHeros-Italic-6d" x="933.39978"/>
     <use xlink:href="#TeXGyreHeros-Italic-75" x="1016.699768"/>
     <use xlink:href="#TeXGyreHeros-Italic-6c" x="1072.299759"/>
     <use xlink:href="#TeXGyreHeros-Italic-61" x="1094.499756"/>
     <use xlink:href="#TeXGyreHeros-Italic-74" x="1150.099747"/>
     <use xlink:href="#TeXGyreHeros-Italic-69" x="1177.899734"/>
     <use xlink:href="#TeXGyreHeros-Italic-6f" x="1200.099731"/>
     <use xlink:href="#TeXGyreHeros-Italic-6e" x="1255.699722"/>
     <use xlink:href="#TeXGyreHeros-Italic-29" x="1311.299713"/>
    </g>
   </g>
   <g id="legend_1">
    <g id="patch_157">
     <path d="M 67.59 78.674375 
L 280.366562 78.674375 
Q 282.366562 78.674375 282.366562 76.674375 
L 282.366562 33.64 
Q 282.366562 31.64 280.366562 31.64 
L 67.59 31.64 
Q 65.59 31.64 65.59 33.64 
L 65.59 76.674375 
Q 65.59 78.674375 67.59 78.674375 
z
" style="fill: #ffffff; opacity: 0.8; stroke: #cccccc; stroke-linejoin: miter"/>
    </g>
    <g id="patch_158">
     <path d="M 69.59 43.238438 
L 89.59 43.238438 
L 89.59 36.238438 
L 69.59 36.238438 
z
" style="fill: #1f77b4; fill-opacity: 0.5; stroke: #1f77b4; stroke-linejoin: miter"/>
    </g>
    <g id="text_21">
     <!-- Network (MSE: 0.637) -->
     <g transform="translate(97.59 43.238438) scale(0.1 -0.1)">
      <defs>
       <path id="DejaVuSans-4e" d="M 628 4666 
L 1478 4666 
L 3547 763 
L 3547 4666 
L 4159 4666 
L 4159 0 
L 3309 0 
L 1241 3903 
L 1241 0 
L 628 0 
L 628 4666 
z
" transform="scale(0.015625)"/>
       <path id="DejaVuSans-77" d="M 269 3500 
L 844 3500 
L 1563 769 
L 2278 3500 
L 2956 3500 
L 3675 769 
L 4391 3500 
L 4966 3500 
L 4050 0 
L 3372 0 
L 2619 2869 
L 1863 0 
L 1184 0 
L 269 3500 
z
" transform="scale(0.015625)"/>
       <path id="DejaVuSans-28" d="M 1984 4856 
Q 1566 4138 1362 3434 
Q 1159 2731 1159 2009 
Q 1159 1288 1364 580 
Q 1569 -128 1984 -844 
L 1484 -844 
Q 1016 -109 783 600 
Q 550 1309 550 2009 
Q 550 2706 781 3412 
Q 1013 4119 1484 4856 
L 1984 4856 
z
" transform="scale(0.015625)"/>
       <path id="DejaVuSans-4d" d="M 628 4666 
L 1569 4666 
L 2759 1491 
L 3956 4666 
L 4897 4666 
L 4897 0 
L 4281 0 
L 4281 4097 
L 3078 897 
L 2444 897 
L 1241 4097 
L 1241 0 
L 628 0 
L 628 4666 
z
" transform="scale(0.015625)"/>
       <path id="DejaVuSans-53" d="M 3425 4513 
L 3425 3897 
Q 3066 4069 2747 4153 
Q 2428 4238 2131 4238 
Q 1616 4238 1336 4038 
Q 1056 3838 1056 3469 
Q 1056 3159 1242 3001 
Q 1428 2844 1947 2747 
L 2328 2669 
Q 3034 2534 3370 2195 
Q 3706 1856 3706 1288 
Q 3706 609 3251 259 
Q 2797 -91 1919 -91 
Q 1588 -91 1214 -16 
Q 841 59 441 206 
L 441 856 
Q 825 641 1194 531 
Q 1563 422 1919 422 
Q 2459 422 2753 634 
Q 3047 847 3047 1241 
Q 3047 1584 2836 1778 
Q 2625 1972 2144 2069 
L 1759 2144 
Q 1053 2284 737 2584 
Q 422 2884 422 3419 
Q 422 4038 858 4394 
Q 1294 4750 2059 4750 
Q 2388 4750 2728 4690 
Q 3069 4631 3425 4513 
z
" transform="scale(0.015625)"/>
       <path id="DejaVuSans-3a" d="M 750 794 
L 1409 794 
L 1409 0 
L 750 0 
L 750 794 
z
M 750 3309 
L 1409 3309 
L 1409 2516 
L 750 2516 
L 750 3309 
z
" transform="scale(0.015625)"/>
       <path id="DejaVuSans-37" d="M 525 4666 
L 3525 4666 
L 3525 4397 
L 1831 0 
L 1172 0 
L 2766 4134 
L 525 4134 
L 525 4666 
z
" transform="scale(0.015625)"/>
       <path id="DejaVuSans-29" d="M 513 4856 
L 1013 4856 
Q 1481 4119 1714 3412 
Q 1947 2706 1947 2009 
Q 1947 1309 1714 600 
Q 1481 -109 1013 -844 
L 513 -844 
Q 928 -128 1133 580 
Q 1338 1288 1338 2009 
Q 1338 2731 1133 3434 
Q 928 4138 513 4856 
z
" transform="scale(0.015625)"/>
      </defs>
      <use xlink:href="#DejaVuSans-4e"/>
      <use xlink:href="#DejaVuSans-65" x="74.804688"/>
      <use xlink:href="#DejaVuSans-74" x="136.328125"/>
      <use xlink:href="#DejaVuSans-77" x="175.537109"/>
      <use xlink:href="#DejaVuSans-6f" x="257.324219"/>
      <use xlink:href="#DejaVuSans-72" x="318.505859"/>
      <use xlink:href="#DejaVuSans-6b" x="359.619141"/>
      <use xlink:href="#DejaVuSans-20" x="417.529297"/>
      <use xlink:href="#DejaVuSans-28" x="449.316406"/>
      <use xlink:href="#DejaVuSans-4d" x="488.330078"/>
      <use xlink:href="#DejaVuSans-53" x="574.609375"/>
      <use xlink:href="#DejaVuSans-45" x="638.085938"/>
      <use xlink:href="#DejaVuSans-3a" x="701.269531"/>
      <use xlink:href="#DejaVuSans-20" x="734.960938"/>
      <use xlink:href="#DejaVuSans-30" x="766.748047"/>
      <use xlink:href="#DejaVuSans-2e" x="830.371094"/>
      <use xlink:href="#DejaVuSans-36" x="862.158203"/>
      <use xlink:href="#DejaVuSans-33" x="925.78125"/>
      <use xlink:href="#DejaVuSans-37" x="989.404297"/>
      <use xlink:href="#DejaVuSans-29" x="1053.027344"/>
     </g>
    </g>
    <g id="patch_159">
     <path d="M 69.59 57.916562 
L 89.59 57.916562 
L 89.59 50.916562 
L 69.59 50.916562 
z
" style="fill: #ff7f0e; fill-opacity: 0.5; stroke: #ff7f0e; stroke-linejoin: miter"/>
    </g>
    <g id="text_22">
     <!-- Truth -->
     <g transform="translate(97.59 57.916562) scale(0.1 -0.1)">
      <defs>
       <path id="DejaVuSans-68" d="M 3513 2113 
L 3513 0 
L 2938 0 
L 2938 2094 
Q 2938 2591 2744 2837 
Q 2550 3084 2163 3084 
Q 1697 3084 1428 2787 
Q 1159 2491 1159 1978 
L 1159 0 
L 581 0 
L 581 4863 
L 1159 4863 
L 1159 2956 
Q 1366 3272 1645 3428 
Q 1925 3584 2291 3584 
Q 2894 3584 3203 3211 
Q 3513 2838 3513 2113 
z
" transform="scale(0.015625)"/>
      </defs>
      <use xlink:href="#DejaVuSans-54"/>
      <use xlink:href="#DejaVuSans-72" x="46.333984"/>
      <use xlink:href="#DejaVuSans-75" x="87.447266"/>
      <use xlink:href="#DejaVuSans-74" x="150.826172"/>
      <use xlink:href="#DejaVuSans-68" x="190.035156"/>
     </g>
    </g>
    <g id="patch_160">
     <path d="M 69.59 72.594688 
L 89.59 72.594688 
L 89.59 65.594688 
L 69.59 65.594688 
z
" style="fill: #2ca02c; fill-opacity: 0.5; stroke: #2ca02c; stroke-linejoin: miter"/>
    </g>
    <g id="text_23">
     <!-- Analytic Sonnenschein (MSE: 0.599) -->
     <g transform="translate(97.59 72.594688) scale(0.1 -0.1)">
      <defs>
       <path id="DejaVuSans-41" d="M 2188 4044 
L 1331 1722 
L 3047 1722 
L 2188 4044 
z
M 1831 4666 
L 2547 4666 
L 4325 0 
L 3669 0 
L 3244 1197 
L 1141 1197 
L 716 0 
L 50 0 
L 1831 4666 
z
" transform="scale(0.015625)"/>
       <path id="DejaVuSans-6c" d="M 603 4863 
L 1178 4863 
L 1178 0 
L 603 0 
L 603 4863 
z
" transform="scale(0.015625)"/>
       <path id="DejaVuSans-79" d="M 2059 -325 
Q 1816 -950 1584 -1140 
Q 1353 -1331 966 -1331 
L 506 -1331 
L 506 -850 
L 844 -850 
Q 1081 -850 1212 -737 
Q 1344 -625 1503 -206 
L 1606 56 
L 191 3500 
L 800 3500 
L 1894 763 
L 2988 3500 
L 3597 3500 
L 2059 -325 
z
" transform="scale(0.015625)"/>
       <path id="DejaVuSans-63" d="M 3122 3366 
L 3122 2828 
Q 2878 2963 2633 3030 
Q 2388 3097 2138 3097 
Q 1578 3097 1268 2742 
Q 959 2388 959 1747 
Q 959 1106 1268 751 
Q 1578 397 2138 397 
Q 2388 397 2633 464 
Q 2878 531 3122 666 
L 3122 134 
Q 2881 22 2623 -34 
Q 2366 -91 2075 -91 
Q 1284 -91 818 406 
Q 353 903 353 1747 
Q 353 2603 823 3093 
Q 1294 3584 2113 3584 
Q 2378 3584 2631 3529 
Q 2884 3475 3122 3366 
z
" transform="scale(0.015625)"/>
       <path id="DejaVuSans-39" d="M 703 97 
L 703 672 
Q 941 559 1184 500 
Q 1428 441 1663 441 
Q 2288 441 2617 861 
Q 2947 1281 2994 2138 
Q 2813 1869 2534 1725 
Q 2256 1581 1919 1581 
Q 1219 1581 811 2004 
Q 403 2428 403 3163 
Q 403 3881 828 4315 
Q 1253 4750 1959 4750 
Q 2769 4750 3195 4129 
Q 3622 3509 3622 2328 
Q 3622 1225 3098 567 
Q 2575 -91 1691 -91 
Q 1453 -91 1209 -44 
Q 966 3 703 97 
z
M 1959 2075 
Q 2384 2075 2632 2365 
Q 2881 2656 2881 3163 
Q 2881 3666 2632 3958 
Q 2384 4250 1959 4250 
Q 1534 4250 1286 3958 
Q 1038 3666 1038 3163 
Q 1038 2656 1286 2365 
Q 1534 2075 1959 2075 
z
" transform="scale(0.015625)"/>
      </defs>
      <use xlink:href="#DejaVuSans-41"/>
      <use xlink:href="#DejaVuSans-6e" x="68.408203"/>
      <use xlink:href="#DejaVuSans-61" x="131.787109"/>
      <use xlink:href="#DejaVuSans-6c" x="193.066406"/>
      <use xlink:href="#DejaVuSans-79" x="220.849609"/>
      <use xlink:href="#DejaVuSans-74" x="280.029297"/>
      <use xlink:href="#DejaVuSans-69" x="319.238281"/>
      <use xlink:href="#DejaVuSans-63" x="347.021484"/>
      <use xlink:href="#DejaVuSans-20" x="402.001953"/>
      <use xlink:href="#DejaVuSans-53" x="433.789062"/>
      <use xlink:href="#DejaVuSans-6f" x="497.265625"/>
      <use xlink:href="#DejaVuSans-6e" x="558.447266"/>
      <use xlink:href="#DejaVuSans-6e" x="621.826172"/>
      <use xlink:href="#DejaVuSans-65" x="685.205078"/>
      <use xlink:href="#DejaVuSans-6e" x="746.728516"/>
      <use xlink:href="#DejaVuSans-73" x="810.107422"/>
      <use xlink:href="#DejaVuSans-63" x="862.207031"/>
      <use xlink:href="#DejaVuSans-68" x="917.1875"/>
      <use xlink:href="#DejaVuSans-65" x="980.566406"/>
      <use xlink:href="#DejaVuSans-69" x="1042.089844"/>
      <use xlink:href="#DejaVuSans-6e" x="1069.873047"/>
      <use xlink:href="#DejaVuSans-20" x="1133.251953"/>
      <use xlink:href="#DejaVuSans-28" x="1165.039062"/>
      <use xlink:href="#DejaVuSans-4d" x="1204.052734"/>
      <use xlink:href="#DejaVuSans-53" x="1290.332031"/>
      <use xlink:href="#DejaVuSans-45" x="1353.808594"/>
      <use xlink:href="#DejaVuSans-3a" x="1416.992188"/>
      <use xlink:href="#DejaVuSans-20" x="1450.683594"/>
      <use xlink:href="#DejaVuSans-30" x="1482.470703"/>
      <use xlink:href="#DejaVuSans-2e" x="1546.09375"/>
      <use xlink:href="#DejaVuSans-35" x="1577.880859"/>
      <use xlink:href="#DejaVuSans-39" x="1641.503906"/>
      <use xlink:href="#DejaVuSans-39" x="1705.126953"/>
      <use xlink:href="#DejaVuSans-29" x="1768.75"/>
     </g>
    </g>
   </g>
  </g>
 </g>
 <defs>
  <clipPath id="p468c22f2b2">
   <rect x="60.59" y="26.64" width="283.071538" height="194.366154"/>
  </clipPath>
 </defs>
</svg>
