<?xml version="1.0" encoding="utf-8" standalone="no"?>
<!DOCTYPE svg PUBLIC "-//W3C//DTD SVG 1.1//EN"
  "http://www.w3.org/Graphics/SVG/1.1/DTD/svg11.dtd">
<svg xmlns:xlink="http://www.w3.org/1999/xlink" width="354.461538pt" height="265.846154pt" viewBox="0 0 354.461538 265.846154" xmlns="http://www.w3.org/2000/svg" version="1.1">
 <metadata>
  <rdf:RDF xmlns:dc="http://purl.org/dc/elements/1.1/" xmlns:cc="http://creativecommons.org/ns#" xmlns:rdf="http://www.w3.org/1999/02/22-rdf-syntax-ns#">
   <cc:Work>
    <dc:type rdf:resource="http://purl.org/dc/dcmitype/StillImage"/>
    <dc:date>2024-08-09T17:20:28.277342</dc:date>
    <dc:format>image/svg+xml</dc:format>
    <dc:creator>
     <cc:Agent>
      <dc:title>Matplotlib v3.7.1, https://matplotlib.org/</dc:title>
     </cc:Agent>
    </dc:creator>
   </cc:Work>
  </rdf:RDF>
 </metadata>
 <defs>
  <style type="text/css">*{stroke-linejoin: round; stroke-linecap: butt}</style>
 </defs>
 <g id="figure_1">
  <g id="patch_1">
   <path d="M 0 265.846154 
L 354.461538 265.846154 
L 354.461538 0 
L 0 0 
z
" style="fill: #ffffff"/>
  </g>
  <g id="axes_1">
   <g id="patch_2">
    <path d="M 60.59 219.688654 
L 343.661538 219.688654 
L 343.661538 26.64 
L 60.59 26.64 
z
" style="fill: #ffffff"/>
   </g>
   <g id="patch_3">
    <path d="M 60.590003 219.688654 
L 66.25143 219.688654 
L 66.25143 219.688654 
L 60.590003 219.688654 
z
" clip-path="url(#p2dc6d2357f)" style="fill: #1f77b4; fill-opacity: 0.5; stroke: #1f77b4; stroke-linejoin: miter"/>
   </g>
   <g id="patch_4">
    <path d="M 66.25143 219.688654 
L 71.91286 219.688654 
L 71.91286 219.688654 
L 66.25143 219.688654 
z
" clip-path="url(#p2dc6d2357f)" style="fill: #1f77b4; fill-opacity: 0.5; stroke: #1f77b4; stroke-linejoin: miter"/>
   </g>
   <g id="patch_5">
    <path d="M 71.91286 219.688654 
L 77.574291 219.688654 
L 77.574291 219.688654 
L 71.91286 219.688654 
z
" clip-path="url(#p2dc6d2357f)" style="fill: #1f77b4; fill-opacity: 0.5; stroke: #1f77b4; stroke-linejoin: miter"/>
   </g>
   <g id="patch_6">
    <path d="M 77.574291 219.688654 
L 83.235724 219.688654 
L 83.235724 219.688654 
L 77.574291 219.688654 
z
" clip-path="url(#p2dc6d2357f)" style="fill: #1f77b4; fill-opacity: 0.5; stroke: #1f77b4; stroke-linejoin: miter"/>
   </g>
   <g id="patch_7">
    <path d="M 83.235724 219.688654 
L 88.897153 219.688654 
L 88.897153 219.688654 
L 83.235724 219.688654 
z
" clip-path="url(#p2dc6d2357f)" style="fill: #1f77b4; fill-opacity: 0.5; stroke: #1f77b4; stroke-linejoin: miter"/>
   </g>
   <g id="patch_8">
    <path d="M 88.897153 219.688654 
L 94.558585 219.688654 
L 94.558585 219.688654 
L 88.897153 219.688654 
z
" clip-path="url(#p2dc6d2357f)" style="fill: #1f77b4; fill-opacity: 0.5; stroke: #1f77b4; stroke-linejoin: miter"/>
   </g>
   <g id="patch_9">
    <path d="M 94.558585 219.688654 
L 100.220016 219.688654 
L 100.220016 219.688654 
L 94.558585 219.688654 
z
" clip-path="url(#p2dc6d2357f)" style="fill: #1f77b4; fill-opacity: 0.5; stroke: #1f77b4; stroke-linejoin: miter"/>
   </g>
   <g id="patch_10">
    <path d="M 100.220016 219.688654 
L 105.881446 219.688654 
L 105.881446 219.688654 
L 100.220016 219.688654 
z
" clip-path="url(#p2dc6d2357f)" style="fill: #1f77b4; fill-opacity: 0.5; stroke: #1f77b4; stroke-linejoin: miter"/>
   </g>
   <g id="patch_11">
    <path d="M 105.881446 219.688654 
L 111.542877 219.688654 
L 111.542877 219.688654 
L 105.881446 219.688654 
z
" clip-path="url(#p2dc6d2357f)" style="fill: #1f77b4; fill-opacity: 0.5; stroke: #1f77b4; stroke-linejoin: miter"/>
   </g>
   <g id="patch_12">
    <path d="M 111.542877 219.688654 
L 117.204308 219.688654 
L 117.204308 188.200392 
L 111.542877 188.200392 
z
" clip-path="url(#p2dc6d2357f)" style="fill: #1f77b4; fill-opacity: 0.5; stroke: #1f77b4; stroke-linejoin: miter"/>
   </g>
   <g id="patch_13">
    <path d="M 117.204308 219.688654 
L 122.865739 219.688654 
L 122.865739 112.538104 
L 117.204308 112.538104 
z
" clip-path="url(#p2dc6d2357f)" style="fill: #1f77b4; fill-opacity: 0.5; stroke: #1f77b4; stroke-linejoin: miter"/>
   </g>
   <g id="patch_14">
    <path d="M 122.865739 219.688654 
L 128.527169 219.688654 
L 128.527169 59.726607 
L 122.865739 59.726607 
z
" clip-path="url(#p2dc6d2357f)" style="fill: #1f77b4; fill-opacity: 0.5; stroke: #1f77b4; stroke-linejoin: miter"/>
   </g>
   <g id="patch_15">
    <path d="M 128.527169 219.688654 
L 134.1886 219.688654 
L 134.1886 35.832793 
L 128.527169 35.832793 
z
" clip-path="url(#p2dc6d2357f)" style="fill: #1f77b4; fill-opacity: 0.5; stroke: #1f77b4; stroke-linejoin: miter"/>
   </g>
   <g id="patch_16">
    <path d="M 134.1886 219.688654 
L 139.850032 219.688654 
L 139.850032 37.544498 
L 134.1886 37.544498 
z
" clip-path="url(#p2dc6d2357f)" style="fill: #1f77b4; fill-opacity: 0.5; stroke: #1f77b4; stroke-linejoin: miter"/>
   </g>
   <g id="patch_17">
    <path d="M 139.850032 219.688654 
L 145.511462 219.688654 
L 145.511462 46.55413 
L 139.850032 46.55413 
z
" clip-path="url(#p2dc6d2357f)" style="fill: #1f77b4; fill-opacity: 0.5; stroke: #1f77b4; stroke-linejoin: miter"/>
   </g>
   <g id="patch_18">
    <path d="M 145.511462 219.688654 
L 151.172892 219.688654 
L 151.172892 65.490899 
L 145.511462 65.490899 
z
" clip-path="url(#p2dc6d2357f)" style="fill: #1f77b4; fill-opacity: 0.5; stroke: #1f77b4; stroke-linejoin: miter"/>
   </g>
   <g id="patch_19">
    <path d="M 151.172892 219.688654 
L 156.834323 219.688654 
L 156.834323 82.736429 
L 151.172892 82.736429 
z
" clip-path="url(#p2dc6d2357f)" style="fill: #1f77b4; fill-opacity: 0.5; stroke: #1f77b4; stroke-linejoin: miter"/>
   </g>
   <g id="patch_20">
    <path d="M 156.834323 219.688654 
L 162.495753 219.688654 
L 162.495753 102.198354 
L 156.834323 102.198354 
z
" clip-path="url(#p2dc6d2357f)" style="fill: #1f77b4; fill-opacity: 0.5; stroke: #1f77b4; stroke-linejoin: miter"/>
   </g>
   <g id="patch_21">
    <path d="M 162.495753 219.688654 
L 168.157187 219.688654 
L 168.157187 119.612836 
L 162.495753 119.612836 
z
" clip-path="url(#p2dc6d2357f)" style="fill: #1f77b4; fill-opacity: 0.5; stroke: #1f77b4; stroke-linejoin: miter"/>
   </g>
   <g id="patch_22">
    <path d="M 168.157187 219.688654 
L 173.818617 219.688654 
L 173.818617 132.492799 
L 168.157187 132.492799 
z
" clip-path="url(#p2dc6d2357f)" style="fill: #1f77b4; fill-opacity: 0.5; stroke: #1f77b4; stroke-linejoin: miter"/>
   </g>
   <g id="patch_23">
    <path d="M 173.818617 219.688654 
L 179.480048 219.688654 
L 179.480048 147.018596 
L 173.818617 147.018596 
z
" clip-path="url(#p2dc6d2357f)" style="fill: #1f77b4; fill-opacity: 0.5; stroke: #1f77b4; stroke-linejoin: miter"/>
   </g>
   <g id="patch_24">
    <path d="M 179.480048 219.688654 
L 185.141478 219.688654 
L 185.141478 156.520346 
L 179.480048 156.520346 
z
" clip-path="url(#p2dc6d2357f)" style="fill: #1f77b4; fill-opacity: 0.5; stroke: #1f77b4; stroke-linejoin: miter"/>
   </g>
   <g id="patch_25">
    <path d="M 185.141478 219.688654 
L 190.802908 219.688654 
L 190.802908 167.079024 
L 185.141478 167.079024 
z
" clip-path="url(#p2dc6d2357f)" style="fill: #1f77b4; fill-opacity: 0.5; stroke: #1f77b4; stroke-linejoin: miter"/>
   </g>
   <g id="patch_26">
    <path d="M 190.802908 219.688654 
L 196.464339 219.688654 
L 196.464339 172.903997 
L 190.802908 172.903997 
z
" clip-path="url(#p2dc6d2357f)" style="fill: #1f77b4; fill-opacity: 0.5; stroke: #1f77b4; stroke-linejoin: miter"/>
   </g>
   <g id="patch_27">
    <path d="M 196.464339 219.688654 
L 202.125769 219.688654 
L 202.125769 179.698757 
L 196.464339 179.698757 
z
" clip-path="url(#p2dc6d2357f)" style="fill: #1f77b4; fill-opacity: 0.5; stroke: #1f77b4; stroke-linejoin: miter"/>
   </g>
   <g id="patch_28">
    <path d="M 202.125769 219.688654 
L 207.7872 219.688654 
L 207.7872 186.287017 
L 202.125769 186.287017 
z
" clip-path="url(#p2dc6d2357f)" style="fill: #1f77b4; fill-opacity: 0.5; stroke: #1f77b4; stroke-linejoin: miter"/>
   </g>
   <g id="patch_29">
    <path d="M 207.7872 219.688654 
L 213.44863 219.688654 
L 213.44863 190.010478 
L 207.7872 190.010478 
z
" clip-path="url(#p2dc6d2357f)" style="fill: #1f77b4; fill-opacity: 0.5; stroke: #1f77b4; stroke-linejoin: miter"/>
   </g>
   <g id="patch_30">
    <path d="M 213.44863 219.688654 
L 219.110067 219.688654 
L 219.110067 193.690242 
L 213.44863 193.690242 
z
" clip-path="url(#p2dc6d2357f)" style="fill: #1f77b4; fill-opacity: 0.5; stroke: #1f77b4; stroke-linejoin: miter"/>
   </g>
   <g id="patch_31">
    <path d="M 219.110067 219.688654 
L 224.771497 219.688654 
L 224.771497 196.562551 
L 219.110067 196.562551 
z
" clip-path="url(#p2dc6d2357f)" style="fill: #1f77b4; fill-opacity: 0.5; stroke: #1f77b4; stroke-linejoin: miter"/>
   </g>
   <g id="patch_32">
    <path d="M 224.771497 219.688654 
L 230.432927 219.688654 
L 230.432927 199.479225 
L 224.771497 199.479225 
z
" clip-path="url(#p2dc6d2357f)" style="fill: #1f77b4; fill-opacity: 0.5; stroke: #1f77b4; stroke-linejoin: miter"/>
   </g>
   <g id="patch_33">
    <path d="M 230.432927 219.688654 
L 236.094358 219.688654 
L 236.094358 202.309637 
L 230.432927 202.309637 
z
" clip-path="url(#p2dc6d2357f)" style="fill: #1f77b4; fill-opacity: 0.5; stroke: #1f77b4; stroke-linejoin: miter"/>
   </g>
   <g id="patch_34">
    <path d="M 236.094358 219.688654 
L 241.755788 219.688654 
L 241.755788 203.949567 
L 236.094358 203.949567 
z
" clip-path="url(#p2dc6d2357f)" style="fill: #1f77b4; fill-opacity: 0.5; stroke: #1f77b4; stroke-linejoin: miter"/>
   </g>
   <g id="patch_35">
    <path d="M 241.755788 219.688654 
L 247.417219 219.688654 
L 247.417219 205.991101 
L 241.755788 205.991101 
z
" clip-path="url(#p2dc6d2357f)" style="fill: #1f77b4; fill-opacity: 0.5; stroke: #1f77b4; stroke-linejoin: miter"/>
   </g>
   <g id="patch_36">
    <path d="M 247.417219 219.688654 
L 253.078649 219.688654 
L 253.078649 207.24241 
L 247.417219 207.24241 
z
" clip-path="url(#p2dc6d2357f)" style="fill: #1f77b4; fill-opacity: 0.5; stroke: #1f77b4; stroke-linejoin: miter"/>
   </g>
   <g id="patch_37">
    <path d="M 253.078649 219.688654 
L 258.740079 219.688654 
L 258.740079 207.946817 
L 253.078649 207.946817 
z
" clip-path="url(#p2dc6d2357f)" style="fill: #1f77b4; fill-opacity: 0.5; stroke: #1f77b4; stroke-linejoin: miter"/>
   </g>
   <g id="patch_38">
    <path d="M 258.740079 219.688654 
L 264.40151 219.688654 
L 264.40151 209.544098 
L 258.740079 209.544098 
z
" clip-path="url(#p2dc6d2357f)" style="fill: #1f77b4; fill-opacity: 0.5; stroke: #1f77b4; stroke-linejoin: miter"/>
   </g>
   <g id="patch_39">
    <path d="M 264.40151 219.688654 
L 270.06294 219.688654 
L 270.06294 210.786982 
L 264.40151 210.786982 
z
" clip-path="url(#p2dc6d2357f)" style="fill: #1f77b4; fill-opacity: 0.5; stroke: #1f77b4; stroke-linejoin: miter"/>
   </g>
   <g id="patch_40">
    <path d="M 270.06294 219.688654 
L 275.724371 219.688654 
L 275.724371 211.468268 
L 270.06294 211.468268 
z
" clip-path="url(#p2dc6d2357f)" style="fill: #1f77b4; fill-opacity: 0.5; stroke: #1f77b4; stroke-linejoin: miter"/>
   </g>
   <g id="patch_41">
    <path d="M 275.724371 219.688654 
L 281.385801 219.688654 
L 281.385801 212.401419 
L 275.724371 212.401419 
z
" clip-path="url(#p2dc6d2357f)" style="fill: #1f77b4; fill-opacity: 0.5; stroke: #1f77b4; stroke-linejoin: miter"/>
   </g>
   <g id="patch_42">
    <path d="M 281.385801 219.688654 
L 287.047232 219.688654 
L 287.047232 212.953284 
L 281.385801 212.953284 
z
" clip-path="url(#p2dc6d2357f)" style="fill: #1f77b4; fill-opacity: 0.5; stroke: #1f77b4; stroke-linejoin: miter"/>
   </g>
   <g id="patch_43">
    <path d="M 287.047232 219.688654 
L 292.708662 219.688654 
L 292.708662 213.711724 
L 287.047232 213.711724 
z
" clip-path="url(#p2dc6d2357f)" style="fill: #1f77b4; fill-opacity: 0.5; stroke: #1f77b4; stroke-linejoin: miter"/>
   </g>
   <g id="patch_44">
    <path d="M 292.708662 219.688654 
L 298.370092 219.688654 
L 298.370092 214.299512 
L 292.708662 214.299512 
z
" clip-path="url(#p2dc6d2357f)" style="fill: #1f77b4; fill-opacity: 0.5; stroke: #1f77b4; stroke-linejoin: miter"/>
   </g>
   <g id="patch_45">
    <path d="M 298.370092 219.688654 
L 304.031523 219.688654 
L 304.031523 214.246325 
L 298.370092 214.246325 
z
" clip-path="url(#p2dc6d2357f)" style="fill: #1f77b4; fill-opacity: 0.5; stroke: #1f77b4; stroke-linejoin: miter"/>
   </g>
   <g id="patch_46">
    <path d="M 304.031523 219.688654 
L 309.692953 219.688654 
L 309.692953 215.238419 
L 304.031523 215.238419 
z
" clip-path="url(#p2dc6d2357f)" style="fill: #1f77b4; fill-opacity: 0.5; stroke: #1f77b4; stroke-linejoin: miter"/>
   </g>
   <g id="patch_47">
    <path d="M 309.692953 219.688654 
L 315.354384 219.688654 
L 315.354384 215.756542 
L 309.692953 215.756542 
z
" clip-path="url(#p2dc6d2357f)" style="fill: #1f77b4; fill-opacity: 0.5; stroke: #1f77b4; stroke-linejoin: miter"/>
   </g>
   <g id="patch_48">
    <path d="M 315.354384 219.688654 
L 321.015814 219.688654 
L 321.015814 215.725737 
L 315.354384 215.725737 
z
" clip-path="url(#p2dc6d2357f)" style="fill: #1f77b4; fill-opacity: 0.5; stroke: #1f77b4; stroke-linejoin: miter"/>
   </g>
   <g id="patch_49">
    <path d="M 321.015814 219.688654 
L 326.677257 219.688654 
L 326.677257 216.070231 
L 321.015814 216.070231 
z
" clip-path="url(#p2dc6d2357f)" style="fill: #1f77b4; fill-opacity: 0.5; stroke: #1f77b4; stroke-linejoin: miter"/>
   </g>
   <g id="patch_50">
    <path d="M 326.677257 219.688654 
L 332.338675 219.688654 
L 332.338675 216.555075 
L 326.677257 216.555075 
z
" clip-path="url(#p2dc6d2357f)" style="fill: #1f77b4; fill-opacity: 0.5; stroke: #1f77b4; stroke-linejoin: miter"/>
   </g>
   <g id="patch_51">
    <path d="M 332.338675 219.688654 
L 338.000118 219.688654 
L 338.000118 216.533795 
L 332.338675 216.533795 
z
" clip-path="url(#p2dc6d2357f)" style="fill: #1f77b4; fill-opacity: 0.5; stroke: #1f77b4; stroke-linejoin: miter"/>
   </g>
   <g id="patch_52">
    <path d="M 338.000118 219.688654 
L 343.661536 219.688654 
L 343.661536 217.035071 
L 338.000118 217.035071 
z
" clip-path="url(#p2dc6d2357f)" style="fill: #1f77b4; fill-opacity: 0.5; stroke: #1f77b4; stroke-linejoin: miter"/>
   </g>
   <g id="patch_53">
    <path d="M 60.59 219.688654 
L 66.251431 219.688654 
L 66.251431 219.688654 
L 60.59 219.688654 
z
" clip-path="url(#p2dc6d2357f)" style="fill: #ff7f0e; fill-opacity: 0.5; stroke: #ff7f0e; stroke-linejoin: miter"/>
   </g>
   <g id="patch_54">
    <path d="M 66.251431 219.688654 
L 71.912862 219.688654 
L 71.912862 219.688654 
L 66.251431 219.688654 
z
" clip-path="url(#p2dc6d2357f)" style="fill: #ff7f0e; fill-opacity: 0.5; stroke: #ff7f0e; stroke-linejoin: miter"/>
   </g>
   <g id="patch_55">
    <path d="M 71.912862 219.688654 
L 77.574292 219.688654 
L 77.574292 219.688654 
L 71.912862 219.688654 
z
" clip-path="url(#p2dc6d2357f)" style="fill: #ff7f0e; fill-opacity: 0.5; stroke: #ff7f0e; stroke-linejoin: miter"/>
   </g>
   <g id="patch_56">
    <path d="M 77.574292 219.688654 
L 83.235723 219.688654 
L 83.235723 219.688654 
L 77.574292 219.688654 
z
" clip-path="url(#p2dc6d2357f)" style="fill: #ff7f0e; fill-opacity: 0.5; stroke: #ff7f0e; stroke-linejoin: miter"/>
   </g>
   <g id="patch_57">
    <path d="M 83.235723 219.688654 
L 88.897154 219.688654 
L 88.897154 219.688654 
L 83.235723 219.688654 
z
" clip-path="url(#p2dc6d2357f)" style="fill: #ff7f0e; fill-opacity: 0.5; stroke: #ff7f0e; stroke-linejoin: miter"/>
   </g>
   <g id="patch_58">
    <path d="M 88.897154 219.688654 
L 94.558585 219.688654 
L 94.558585 219.688654 
L 88.897154 219.688654 
z
" clip-path="url(#p2dc6d2357f)" style="fill: #ff7f0e; fill-opacity: 0.5; stroke: #ff7f0e; stroke-linejoin: miter"/>
   </g>
   <g id="patch_59">
    <path d="M 94.558585 219.688654 
L 100.220015 219.688654 
L 100.220015 219.688654 
L 94.558585 219.688654 
z
" clip-path="url(#p2dc6d2357f)" style="fill: #ff7f0e; fill-opacity: 0.5; stroke: #ff7f0e; stroke-linejoin: miter"/>
   </g>
   <g id="patch_60">
    <path d="M 100.220015 219.688654 
L 105.881446 219.688654 
L 105.881446 219.688654 
L 100.220015 219.688654 
z
" clip-path="url(#p2dc6d2357f)" style="fill: #ff7f0e; fill-opacity: 0.5; stroke: #ff7f0e; stroke-linejoin: miter"/>
   </g>
   <g id="patch_61">
    <path d="M 105.881446 219.688654 
L 111.542877 219.688654 
L 111.542877 219.688654 
L 105.881446 219.688654 
z
" clip-path="url(#p2dc6d2357f)" style="fill: #ff7f0e; fill-opacity: 0.5; stroke: #ff7f0e; stroke-linejoin: miter"/>
   </g>
   <g id="patch_62">
    <path d="M 111.542877 219.688654 
L 117.204308 219.688654 
L 117.204308 167.570666 
L 111.542877 167.570666 
z
" clip-path="url(#p2dc6d2357f)" style="fill: #ff7f0e; fill-opacity: 0.5; stroke: #ff7f0e; stroke-linejoin: miter"/>
   </g>
   <g id="patch_63">
    <path d="M 117.204308 219.688654 
L 122.865738 219.688654 
L 122.865738 97.419833 
L 117.204308 97.419833 
z
" clip-path="url(#p2dc6d2357f)" style="fill: #ff7f0e; fill-opacity: 0.5; stroke: #ff7f0e; stroke-linejoin: miter"/>
   </g>
   <g id="patch_64">
    <path d="M 122.865738 219.688654 
L 128.527169 219.688654 
L 128.527169 87.301073 
L 122.865738 87.301073 
z
" clip-path="url(#p2dc6d2357f)" style="fill: #ff7f0e; fill-opacity: 0.5; stroke: #ff7f0e; stroke-linejoin: miter"/>
   </g>
   <g id="patch_65">
    <path d="M 128.527169 219.688654 
L 134.1886 219.688654 
L 134.1886 91.791829 
L 128.527169 91.791829 
z
" clip-path="url(#p2dc6d2357f)" style="fill: #ff7f0e; fill-opacity: 0.5; stroke: #ff7f0e; stroke-linejoin: miter"/>
   </g>
   <g id="patch_66">
    <path d="M 134.1886 219.688654 
L 139.850031 219.688654 
L 139.850031 103.316874 
L 134.1886 103.316874 
z
" clip-path="url(#p2dc6d2357f)" style="fill: #ff7f0e; fill-opacity: 0.5; stroke: #ff7f0e; stroke-linejoin: miter"/>
   </g>
   <g id="patch_67">
    <path d="M 139.850031 219.688654 
L 145.511462 219.688654 
L 145.511462 112.583786 
L 139.850031 112.583786 
z
" clip-path="url(#p2dc6d2357f)" style="fill: #ff7f0e; fill-opacity: 0.5; stroke: #ff7f0e; stroke-linejoin: miter"/>
   </g>
   <g id="patch_68">
    <path d="M 145.511462 219.688654 
L 151.172892 219.688654 
L 151.172892 122.641838 
L 145.511462 122.641838 
z
" clip-path="url(#p2dc6d2357f)" style="fill: #ff7f0e; fill-opacity: 0.5; stroke: #ff7f0e; stroke-linejoin: miter"/>
   </g>
   <g id="patch_69">
    <path d="M 151.172892 219.688654 
L 156.834323 219.688654 
L 156.834323 128.983092 
L 151.172892 128.983092 
z
" clip-path="url(#p2dc6d2357f)" style="fill: #ff7f0e; fill-opacity: 0.5; stroke: #ff7f0e; stroke-linejoin: miter"/>
   </g>
   <g id="patch_70">
    <path d="M 156.834323 219.688654 
L 162.495754 219.688654 
L 162.495754 137.175116 
L 156.834323 137.175116 
z
" clip-path="url(#p2dc6d2357f)" style="fill: #ff7f0e; fill-opacity: 0.5; stroke: #ff7f0e; stroke-linejoin: miter"/>
   </g>
   <g id="patch_71">
    <path d="M 162.495754 219.688654 
L 168.157185 219.688654 
L 168.157185 143.826465 
L 162.495754 143.826465 
z
" clip-path="url(#p2dc6d2357f)" style="fill: #ff7f0e; fill-opacity: 0.5; stroke: #ff7f0e; stroke-linejoin: miter"/>
   </g>
   <g id="patch_72">
    <path d="M 168.157185 219.688654 
L 173.818615 219.688654 
L 173.818615 148.507498 
L 168.157185 148.507498 
z
" clip-path="url(#p2dc6d2357f)" style="fill: #ff7f0e; fill-opacity: 0.5; stroke: #ff7f0e; stroke-linejoin: miter"/>
   </g>
   <g id="patch_73">
    <path d="M 173.818615 219.688654 
L 179.480046 219.688654 
L 179.480046 153.870024 
L 173.818615 153.870024 
z
" clip-path="url(#p2dc6d2357f)" style="fill: #ff7f0e; fill-opacity: 0.5; stroke: #ff7f0e; stroke-linejoin: miter"/>
   </g>
   <g id="patch_74">
    <path d="M 179.480046 219.688654 
L 185.141477 219.688654 
L 185.141477 158.730731 
L 179.480046 158.730731 
z
" clip-path="url(#p2dc6d2357f)" style="fill: #ff7f0e; fill-opacity: 0.5; stroke: #ff7f0e; stroke-linejoin: miter"/>
   </g>
   <g id="patch_75">
    <path d="M 185.141477 219.688654 
L 190.802908 219.688654 
L 190.802908 162.656078 
L 185.141477 162.656078 
z
" clip-path="url(#p2dc6d2357f)" style="fill: #ff7f0e; fill-opacity: 0.5; stroke: #ff7f0e; stroke-linejoin: miter"/>
   </g>
   <g id="patch_76">
    <path d="M 190.802908 219.688654 
L 196.464338 219.688654 
L 196.464338 166.991536 
L 190.802908 166.991536 
z
" clip-path="url(#p2dc6d2357f)" style="fill: #ff7f0e; fill-opacity: 0.5; stroke: #ff7f0e; stroke-linejoin: miter"/>
   </g>
   <g id="patch_77">
    <path d="M 196.464338 219.688654 
L 202.125769 219.688654 
L 202.125769 169.353822 
L 196.464338 169.353822 
z
" clip-path="url(#p2dc6d2357f)" style="fill: #ff7f0e; fill-opacity: 0.5; stroke: #ff7f0e; stroke-linejoin: miter"/>
   </g>
   <g id="patch_78">
    <path d="M 202.125769 219.688654 
L 207.7872 219.688654 
L 207.7872 174.68564 
L 202.125769 174.68564 
z
" clip-path="url(#p2dc6d2357f)" style="fill: #ff7f0e; fill-opacity: 0.5; stroke: #ff7f0e; stroke-linejoin: miter"/>
   </g>
   <g id="patch_79">
    <path d="M 207.7872 219.688654 
L 213.448631 219.688654 
L 213.448631 176.339164 
L 207.7872 176.339164 
z
" clip-path="url(#p2dc6d2357f)" style="fill: #ff7f0e; fill-opacity: 0.5; stroke: #ff7f0e; stroke-linejoin: miter"/>
   </g>
   <g id="patch_80">
    <path d="M 213.448631 219.688654 
L 219.110062 219.688654 
L 219.110062 178.898073 
L 213.448631 178.898073 
z
" clip-path="url(#p2dc6d2357f)" style="fill: #ff7f0e; fill-opacity: 0.5; stroke: #ff7f0e; stroke-linejoin: miter"/>
   </g>
   <g id="patch_81">
    <path d="M 219.110062 219.688654 
L 224.771492 219.688654 
L 224.771492 181.742038 
L 219.110062 181.742038 
z
" clip-path="url(#p2dc6d2357f)" style="fill: #ff7f0e; fill-opacity: 0.5; stroke: #ff7f0e; stroke-linejoin: miter"/>
   </g>
   <g id="patch_82">
    <path d="M 224.771492 219.688654 
L 230.432923 219.688654 
L 230.432923 184.883073 
L 224.771492 184.883073 
z
" clip-path="url(#p2dc6d2357f)" style="fill: #ff7f0e; fill-opacity: 0.5; stroke: #ff7f0e; stroke-linejoin: miter"/>
   </g>
   <g id="patch_83">
    <path d="M 230.432923 219.688654 
L 236.094354 219.688654 
L 236.094354 186.796652 
L 230.432923 186.796652 
z
" clip-path="url(#p2dc6d2357f)" style="fill: #ff7f0e; fill-opacity: 0.5; stroke: #ff7f0e; stroke-linejoin: miter"/>
   </g>
   <g id="patch_84">
    <path d="M 236.094354 219.688654 
L 241.755785 219.688654 
L 241.755785 190.248268 
L 236.094354 190.248268 
z
" clip-path="url(#p2dc6d2357f)" style="fill: #ff7f0e; fill-opacity: 0.5; stroke: #ff7f0e; stroke-linejoin: miter"/>
   </g>
   <g id="patch_85">
    <path d="M 241.755785 219.688654 
L 247.417215 219.688654 
L 247.417215 190.928181 
L 241.755785 190.928181 
z
" clip-path="url(#p2dc6d2357f)" style="fill: #ff7f0e; fill-opacity: 0.5; stroke: #ff7f0e; stroke-linejoin: miter"/>
   </g>
   <g id="patch_86">
    <path d="M 247.417215 219.688654 
L 253.078646 219.688654 
L 253.078646 193.83366 
L 247.417215 193.83366 
z
" clip-path="url(#p2dc6d2357f)" style="fill: #ff7f0e; fill-opacity: 0.5; stroke: #ff7f0e; stroke-linejoin: miter"/>
   </g>
   <g id="patch_87">
    <path d="M 253.078646 219.688654 
L 258.740077 219.688654 
L 258.740077 194.660671 
L 253.078646 194.660671 
z
" clip-path="url(#p2dc6d2357f)" style="fill: #ff7f0e; fill-opacity: 0.5; stroke: #ff7f0e; stroke-linejoin: miter"/>
   </g>
   <g id="patch_88">
    <path d="M 258.740077 219.688654 
L 264.401508 219.688654 
L 264.401508 196.33577 
L 258.740077 196.33577 
z
" clip-path="url(#p2dc6d2357f)" style="fill: #ff7f0e; fill-opacity: 0.5; stroke: #ff7f0e; stroke-linejoin: miter"/>
   </g>
   <g id="patch_89">
    <path d="M 264.401508 219.688654 
L 270.062938 219.688654 
L 270.062938 199.092548 
L 264.401508 199.092548 
z
" clip-path="url(#p2dc6d2357f)" style="fill: #ff7f0e; fill-opacity: 0.5; stroke: #ff7f0e; stroke-linejoin: miter"/>
   </g>
   <g id="patch_90">
    <path d="M 270.062938 219.688654 
L 275.724369 219.688654 
L 275.724369 199.660736 
L 270.062938 199.660736 
z
" clip-path="url(#p2dc6d2357f)" style="fill: #ff7f0e; fill-opacity: 0.5; stroke: #ff7f0e; stroke-linejoin: miter"/>
   </g>
   <g id="patch_91">
    <path d="M 275.724369 219.688654 
L 281.3858 219.688654 
L 281.3858 201.536284 
L 275.724369 201.536284 
z
" clip-path="url(#p2dc6d2357f)" style="fill: #ff7f0e; fill-opacity: 0.5; stroke: #ff7f0e; stroke-linejoin: miter"/>
   </g>
   <g id="patch_92">
    <path d="M 281.3858 219.688654 
L 287.047231 219.688654 
L 287.047231 201.998738 
L 281.3858 201.998738 
z
" clip-path="url(#p2dc6d2357f)" style="fill: #ff7f0e; fill-opacity: 0.5; stroke: #ff7f0e; stroke-linejoin: miter"/>
   </g>
   <g id="patch_93">
    <path d="M 287.047231 219.688654 
L 292.708662 219.688654 
L 292.708662 203.939648 
L 287.047231 203.939648 
z
" clip-path="url(#p2dc6d2357f)" style="fill: #ff7f0e; fill-opacity: 0.5; stroke: #ff7f0e; stroke-linejoin: miter"/>
   </g>
   <g id="patch_94">
    <path d="M 292.708662 219.688654 
L 298.370092 219.688654 
L 298.370092 204.79771 
L 292.708662 204.79771 
z
" clip-path="url(#p2dc6d2357f)" style="fill: #ff7f0e; fill-opacity: 0.5; stroke: #ff7f0e; stroke-linejoin: miter"/>
   </g>
   <g id="patch_95">
    <path d="M 298.370092 219.688654 
L 304.031523 219.688654 
L 304.031523 205.693376 
L 298.370092 205.693376 
z
" clip-path="url(#p2dc6d2357f)" style="fill: #ff7f0e; fill-opacity: 0.5; stroke: #ff7f0e; stroke-linejoin: miter"/>
   </g>
   <g id="patch_96">
    <path d="M 304.031523 219.688654 
L 309.692954 219.688654 
L 309.692954 206.968509 
L 304.031523 206.968509 
z
" clip-path="url(#p2dc6d2357f)" style="fill: #ff7f0e; fill-opacity: 0.5; stroke: #ff7f0e; stroke-linejoin: miter"/>
   </g>
   <g id="patch_97">
    <path d="M 309.692954 219.688654 
L 315.354385 219.688654 
L 315.354385 208.071686 
L 309.692954 208.071686 
z
" clip-path="url(#p2dc6d2357f)" style="fill: #ff7f0e; fill-opacity: 0.5; stroke: #ff7f0e; stroke-linejoin: miter"/>
   </g>
   <g id="patch_98">
    <path d="M 315.354385 219.688654 
L 321.015815 219.688654 
L 321.015815 208.980938 
L 315.354385 208.980938 
z
" clip-path="url(#p2dc6d2357f)" style="fill: #ff7f0e; fill-opacity: 0.5; stroke: #ff7f0e; stroke-linejoin: miter"/>
   </g>
   <g id="patch_99">
    <path d="M 321.015815 219.688654 
L 326.677246 219.688654 
L 326.677246 209.686103 
L 321.015815 209.686103 
z
" clip-path="url(#p2dc6d2357f)" style="fill: #ff7f0e; fill-opacity: 0.5; stroke: #ff7f0e; stroke-linejoin: miter"/>
   </g>
   <g id="patch_100">
    <path d="M 326.677246 219.688654 
L 332.338677 219.688654 
L 332.338677 210.367781 
L 326.677246 210.367781 
z
" clip-path="url(#p2dc6d2357f)" style="fill: #ff7f0e; fill-opacity: 0.5; stroke: #ff7f0e; stroke-linejoin: miter"/>
   </g>
   <g id="patch_101">
    <path d="M 332.338677 219.688654 
L 338.000108 219.688654 
L 338.000108 210.816966 
L 332.338677 210.816966 
z
" clip-path="url(#p2dc6d2357f)" style="fill: #ff7f0e; fill-opacity: 0.5; stroke: #ff7f0e; stroke-linejoin: miter"/>
   </g>
   <g id="patch_102">
    <path d="M 338.000108 219.688654 
L 343.661538 219.688654 
L 343.661538 211.585975 
L 338.000108 211.585975 
z
" clip-path="url(#p2dc6d2357f)" style="fill: #ff7f0e; fill-opacity: 0.5; stroke: #ff7f0e; stroke-linejoin: miter"/>
   </g>
   <g id="patch_103">
    <path d="M 60.59 219.688654 
L 66.251431 219.688654 
L 66.251431 219.688654 
L 60.59 219.688654 
z
" clip-path="url(#p2dc6d2357f)" style="fill: #2ca02c; fill-opacity: 0.5; stroke: #2ca02c; stroke-linejoin: miter"/>
   </g>
   <g id="patch_104">
    <path d="M 66.251431 219.688654 
L 71.912862 219.688654 
L 71.912862 219.688654 
L 66.251431 219.688654 
z
" clip-path="url(#p2dc6d2357f)" style="fill: #2ca02c; fill-opacity: 0.5; stroke: #2ca02c; stroke-linejoin: miter"/>
   </g>
   <g id="patch_105">
    <path d="M 71.912862 219.688654 
L 77.574292 219.688654 
L 77.574292 219.688654 
L 71.912862 219.688654 
z
" clip-path="url(#p2dc6d2357f)" style="fill: #2ca02c; fill-opacity: 0.5; stroke: #2ca02c; stroke-linejoin: miter"/>
   </g>
   <g id="patch_106">
    <path d="M 77.574292 219.688654 
L 83.235723 219.688654 
L 83.235723 219.688654 
L 77.574292 219.688654 
z
" clip-path="url(#p2dc6d2357f)" style="fill: #2ca02c; fill-opacity: 0.5; stroke: #2ca02c; stroke-linejoin: miter"/>
   </g>
   <g id="patch_107">
    <path d="M 83.235723 219.688654 
L 88.897154 219.688654 
L 88.897154 219.688654 
L 83.235723 219.688654 
z
" clip-path="url(#p2dc6d2357f)" style="fill: #2ca02c; fill-opacity: 0.5; stroke: #2ca02c; stroke-linejoin: miter"/>
   </g>
   <g id="patch_108">
    <path d="M 88.897154 219.688654 
L 94.558585 219.688654 
L 94.558585 219.688654 
L 88.897154 219.688654 
z
" clip-path="url(#p2dc6d2357f)" style="fill: #2ca02c; fill-opacity: 0.5; stroke: #2ca02c; stroke-linejoin: miter"/>
   </g>
   <g id="patch_109">
    <path d="M 94.558585 219.688654 
L 100.220015 219.688654 
L 100.220015 219.688654 
L 94.558585 219.688654 
z
" clip-path="url(#p2dc6d2357f)" style="fill: #2ca02c; fill-opacity: 0.5; stroke: #2ca02c; stroke-linejoin: miter"/>
   </g>
   <g id="patch_110">
    <path d="M 100.220015 219.688654 
L 105.881446 219.688654 
L 105.881446 219.688654 
L 100.220015 219.688654 
z
" clip-path="url(#p2dc6d2357f)" style="fill: #2ca02c; fill-opacity: 0.5; stroke: #2ca02c; stroke-linejoin: miter"/>
   </g>
   <g id="patch_111">
    <path d="M 105.881446 219.688654 
L 111.542877 219.688654 
L 111.542877 219.688654 
L 105.881446 219.688654 
z
" clip-path="url(#p2dc6d2357f)" style="fill: #2ca02c; fill-opacity: 0.5; stroke: #2ca02c; stroke-linejoin: miter"/>
   </g>
   <g id="patch_112">
    <path d="M 111.542877 219.688654 
L 117.204308 219.688654 
L 117.204308 198.071379 
L 111.542877 198.071379 
z
" clip-path="url(#p2dc6d2357f)" style="fill: #2ca02c; fill-opacity: 0.5; stroke: #2ca02c; stroke-linejoin: miter"/>
   </g>
   <g id="patch_113">
    <path d="M 117.204308 219.688654 
L 122.865738 219.688654 
L 122.865738 140.929685 
L 117.204308 140.929685 
z
" clip-path="url(#p2dc6d2357f)" style="fill: #2ca02c; fill-opacity: 0.5; stroke: #2ca02c; stroke-linejoin: miter"/>
   </g>
   <g id="patch_114">
    <path d="M 122.865738 219.688654 
L 128.527169 219.688654 
L 128.527169 99.208474 
L 122.865738 99.208474 
z
" clip-path="url(#p2dc6d2357f)" style="fill: #2ca02c; fill-opacity: 0.5; stroke: #2ca02c; stroke-linejoin: miter"/>
   </g>
   <g id="patch_115">
    <path d="M 128.527169 219.688654 
L 134.1886 219.688654 
L 134.1886 71.823551 
L 128.527169 71.823551 
z
" clip-path="url(#p2dc6d2357f)" style="fill: #2ca02c; fill-opacity: 0.5; stroke: #2ca02c; stroke-linejoin: miter"/>
   </g>
   <g id="patch_116">
    <path d="M 134.1886 219.688654 
L 139.850031 219.688654 
L 139.850031 63.224103 
L 134.1886 63.224103 
z
" clip-path="url(#p2dc6d2357f)" style="fill: #2ca02c; fill-opacity: 0.5; stroke: #2ca02c; stroke-linejoin: miter"/>
   </g>
   <g id="patch_117">
    <path d="M 139.850031 219.688654 
L 145.511462 219.688654 
L 145.511462 67.431905 
L 139.850031 67.431905 
z
" clip-path="url(#p2dc6d2357f)" style="fill: #2ca02c; fill-opacity: 0.5; stroke: #2ca02c; stroke-linejoin: miter"/>
   </g>
   <g id="patch_118">
    <path d="M 145.511462 219.688654 
L 151.172892 219.688654 
L 151.172892 77.525155 
L 145.511462 77.525155 
z
" clip-path="url(#p2dc6d2357f)" style="fill: #2ca02c; fill-opacity: 0.5; stroke: #2ca02c; stroke-linejoin: miter"/>
   </g>
   <g id="patch_119">
    <path d="M 151.172892 219.688654 
L 156.834323 219.688654 
L 156.834323 89.98435 
L 151.172892 89.98435 
z
" clip-path="url(#p2dc6d2357f)" style="fill: #2ca02c; fill-opacity: 0.5; stroke: #2ca02c; stroke-linejoin: miter"/>
   </g>
   <g id="patch_120">
    <path d="M 156.834323 219.688654 
L 162.495754 219.688654 
L 162.495754 105.815667 
L 156.834323 105.815667 
z
" clip-path="url(#p2dc6d2357f)" style="fill: #2ca02c; fill-opacity: 0.5; stroke: #2ca02c; stroke-linejoin: miter"/>
   </g>
   <g id="patch_121">
    <path d="M 162.495754 219.688654 
L 168.157185 219.688654 
L 168.157185 118.44909 
L 162.495754 118.44909 
z
" clip-path="url(#p2dc6d2357f)" style="fill: #2ca02c; fill-opacity: 0.5; stroke: #2ca02c; stroke-linejoin: miter"/>
   </g>
   <g id="patch_122">
    <path d="M 168.157185 219.688654 
L 173.818615 219.688654 
L 173.818615 131.455443 
L 168.157185 131.455443 
z
" clip-path="url(#p2dc6d2357f)" style="fill: #2ca02c; fill-opacity: 0.5; stroke: #2ca02c; stroke-linejoin: miter"/>
   </g>
   <g id="patch_123">
    <path d="M 173.818615 219.688654 
L 179.480046 219.688654 
L 179.480046 142.472637 
L 173.818615 142.472637 
z
" clip-path="url(#p2dc6d2357f)" style="fill: #2ca02c; fill-opacity: 0.5; stroke: #2ca02c; stroke-linejoin: miter"/>
   </g>
   <g id="patch_124">
    <path d="M 179.480046 219.688654 
L 185.141477 219.688654 
L 185.141477 153.548158 
L 179.480046 153.548158 
z
" clip-path="url(#p2dc6d2357f)" style="fill: #2ca02c; fill-opacity: 0.5; stroke: #2ca02c; stroke-linejoin: miter"/>
   </g>
   <g id="patch_125">
    <path d="M 185.141477 219.688654 
L 190.802908 219.688654 
L 190.802908 161.403645 
L 185.141477 161.403645 
z
" clip-path="url(#p2dc6d2357f)" style="fill: #2ca02c; fill-opacity: 0.5; stroke: #2ca02c; stroke-linejoin: miter"/>
   </g>
   <g id="patch_126">
    <path d="M 190.802908 219.688654 
L 196.464338 219.688654 
L 196.464338 167.66996 
L 190.802908 167.66996 
z
" clip-path="url(#p2dc6d2357f)" style="fill: #2ca02c; fill-opacity: 0.5; stroke: #2ca02c; stroke-linejoin: miter"/>
   </g>
   <g id="patch_127">
    <path d="M 196.464338 219.688654 
L 202.125769 219.688654 
L 202.125769 174.218502 
L 196.464338 174.218502 
z
" clip-path="url(#p2dc6d2357f)" style="fill: #2ca02c; fill-opacity: 0.5; stroke: #2ca02c; stroke-linejoin: miter"/>
   </g>
   <g id="patch_128">
    <path d="M 202.125769 219.688654 
L 207.7872 219.688654 
L 207.7872 178.44053 
L 202.125769 178.44053 
z
" clip-path="url(#p2dc6d2357f)" style="fill: #2ca02c; fill-opacity: 0.5; stroke: #2ca02c; stroke-linejoin: miter"/>
   </g>
   <g id="patch_129">
    <path d="M 207.7872 219.688654 
L 213.448631 219.688654 
L 213.448631 182.588306 
L 207.7872 182.588306 
z
" clip-path="url(#p2dc6d2357f)" style="fill: #2ca02c; fill-opacity: 0.5; stroke: #2ca02c; stroke-linejoin: miter"/>
   </g>
   <g id="patch_130">
    <path d="M 213.448631 219.688654 
L 219.110062 219.688654 
L 219.110062 186.984169 
L 213.448631 186.984169 
z
" clip-path="url(#p2dc6d2357f)" style="fill: #2ca02c; fill-opacity: 0.5; stroke: #2ca02c; stroke-linejoin: miter"/>
   </g>
   <g id="patch_131">
    <path d="M 219.110062 219.688654 
L 224.771492 219.688654 
L 224.771492 189.954089 
L 219.110062 189.954089 
z
" clip-path="url(#p2dc6d2357f)" style="fill: #2ca02c; fill-opacity: 0.5; stroke: #2ca02c; stroke-linejoin: miter"/>
   </g>
   <g id="patch_132">
    <path d="M 224.771492 219.688654 
L 230.432923 219.688654 
L 230.432923 193.504315 
L 224.771492 193.504315 
z
" clip-path="url(#p2dc6d2357f)" style="fill: #2ca02c; fill-opacity: 0.5; stroke: #2ca02c; stroke-linejoin: miter"/>
   </g>
   <g id="patch_133">
    <path d="M 230.432923 219.688654 
L 236.094354 219.688654 
L 236.094354 196.075738 
L 230.432923 196.075738 
z
" clip-path="url(#p2dc6d2357f)" style="fill: #2ca02c; fill-opacity: 0.5; stroke: #2ca02c; stroke-linejoin: miter"/>
   </g>
   <g id="patch_134">
    <path d="M 236.094354 219.688654 
L 241.755785 219.688654 
L 241.755785 198.116767 
L 236.094354 198.116767 
z
" clip-path="url(#p2dc6d2357f)" style="fill: #2ca02c; fill-opacity: 0.5; stroke: #2ca02c; stroke-linejoin: miter"/>
   </g>
   <g id="patch_135">
    <path d="M 241.755785 219.688654 
L 247.417215 219.688654 
L 247.417215 199.119169 
L 241.755785 199.119169 
z
" clip-path="url(#p2dc6d2357f)" style="fill: #2ca02c; fill-opacity: 0.5; stroke: #2ca02c; stroke-linejoin: miter"/>
   </g>
   <g id="patch_136">
    <path d="M 247.417215 219.688654 
L 253.078646 219.688654 
L 253.078646 201.410376 
L 247.417215 201.410376 
z
" clip-path="url(#p2dc6d2357f)" style="fill: #2ca02c; fill-opacity: 0.5; stroke: #2ca02c; stroke-linejoin: miter"/>
   </g>
   <g id="patch_137">
    <path d="M 253.078646 219.688654 
L 258.740077 219.688654 
L 258.740077 203.19812 
L 253.078646 203.19812 
z
" clip-path="url(#p2dc6d2357f)" style="fill: #2ca02c; fill-opacity: 0.5; stroke: #2ca02c; stroke-linejoin: miter"/>
   </g>
   <g id="patch_138">
    <path d="M 258.740077 219.688654 
L 264.401508 219.688654 
L 264.401508 204.314991 
L 258.740077 204.314991 
z
" clip-path="url(#p2dc6d2357f)" style="fill: #2ca02c; fill-opacity: 0.5; stroke: #2ca02c; stroke-linejoin: miter"/>
   </g>
   <g id="patch_139">
    <path d="M 264.401508 219.688654 
L 270.062938 219.688654 
L 270.062938 206.114788 
L 264.401508 206.114788 
z
" clip-path="url(#p2dc6d2357f)" style="fill: #2ca02c; fill-opacity: 0.5; stroke: #2ca02c; stroke-linejoin: miter"/>
   </g>
   <g id="patch_140">
    <path d="M 270.062938 219.688654 
L 275.724369 219.688654 
L 275.724369 207.034959 
L 270.062938 207.034959 
z
" clip-path="url(#p2dc6d2357f)" style="fill: #2ca02c; fill-opacity: 0.5; stroke: #2ca02c; stroke-linejoin: miter"/>
   </g>
   <g id="patch_141">
    <path d="M 275.724369 219.688654 
L 281.3858 219.688654 
L 281.3858 207.800335 
L 275.724369 207.800335 
z
" clip-path="url(#p2dc6d2357f)" style="fill: #2ca02c; fill-opacity: 0.5; stroke: #2ca02c; stroke-linejoin: miter"/>
   </g>
   <g id="patch_142">
    <path d="M 281.3858 219.688654 
L 287.047231 219.688654 
L 287.047231 208.776038 
L 281.3858 208.776038 
z
" clip-path="url(#p2dc6d2357f)" style="fill: #2ca02c; fill-opacity: 0.5; stroke: #2ca02c; stroke-linejoin: miter"/>
   </g>
   <g id="patch_143">
    <path d="M 287.047231 219.688654 
L 292.708662 219.688654 
L 292.708662 209.844932 
L 287.047231 209.844932 
z
" clip-path="url(#p2dc6d2357f)" style="fill: #2ca02c; fill-opacity: 0.5; stroke: #2ca02c; stroke-linejoin: miter"/>
   </g>
   <g id="patch_144">
    <path d="M 292.708662 219.688654 
L 298.370092 219.688654 
L 298.370092 210.906722 
L 292.708662 210.906722 
z
" clip-path="url(#p2dc6d2357f)" style="fill: #2ca02c; fill-opacity: 0.5; stroke: #2ca02c; stroke-linejoin: miter"/>
   </g>
   <g id="patch_145">
    <path d="M 298.370092 219.688654 
L 304.031523 219.688654 
L 304.031523 211.337084 
L 298.370092 211.337084 
z
" clip-path="url(#p2dc6d2357f)" style="fill: #2ca02c; fill-opacity: 0.5; stroke: #2ca02c; stroke-linejoin: miter"/>
   </g>
   <g id="patch_146">
    <path d="M 304.031523 219.688654 
L 309.692954 219.688654 
L 309.692954 212.277703 
L 304.031523 212.277703 
z
" clip-path="url(#p2dc6d2357f)" style="fill: #2ca02c; fill-opacity: 0.5; stroke: #2ca02c; stroke-linejoin: miter"/>
   </g>
   <g id="patch_147">
    <path d="M 309.692954 219.688654 
L 315.354385 219.688654 
L 315.354385 212.409784 
L 309.692954 212.409784 
z
" clip-path="url(#p2dc6d2357f)" style="fill: #2ca02c; fill-opacity: 0.5; stroke: #2ca02c; stroke-linejoin: miter"/>
   </g>
   <g id="patch_148">
    <path d="M 315.354385 219.688654 
L 321.015815 219.688654 
L 321.015815 213.033155 
L 315.354385 213.033155 
z
" clip-path="url(#p2dc6d2357f)" style="fill: #2ca02c; fill-opacity: 0.5; stroke: #2ca02c; stroke-linejoin: miter"/>
   </g>
   <g id="patch_149">
    <path d="M 321.015815 219.688654 
L 326.677246 219.688654 
L 326.677246 213.629619 
L 321.015815 213.629619 
z
" clip-path="url(#p2dc6d2357f)" style="fill: #2ca02c; fill-opacity: 0.5; stroke: #2ca02c; stroke-linejoin: miter"/>
   </g>
   <g id="patch_150">
    <path d="M 326.677246 219.688654 
L 332.338677 219.688654 
L 332.338677 214.145417 
L 326.677246 214.145417 
z
" clip-path="url(#p2dc6d2357f)" style="fill: #2ca02c; fill-opacity: 0.5; stroke: #2ca02c; stroke-linejoin: miter"/>
   </g>
   <g id="patch_151">
    <path d="M 332.338677 219.688654 
L 338.000108 219.688654 
L 338.000108 214.420437 
L 332.338677 214.420437 
z
" clip-path="url(#p2dc6d2357f)" style="fill: #2ca02c; fill-opacity: 0.5; stroke: #2ca02c; stroke-linejoin: miter"/>
   </g>
   <g id="patch_152">
    <path d="M 338.000108 219.688654 
L 343.661538 219.688654 
L 343.661538 214.58634 
L 338.000108 214.58634 
z
" clip-path="url(#p2dc6d2357f)" style="fill: #2ca02c; fill-opacity: 0.5; stroke: #2ca02c; stroke-linejoin: miter"/>
   </g>
   <g id="matplotlib.axis_1">
    <g id="xtick_1">
     <g id="line2d_1">
      <defs>
       <path id="m84b1a4a92a" d="M 0 0 
L 0 3.5 
" style="stroke: #000000; stroke-width: 0.8"/>
      </defs>
      <g>
       <use xlink:href="#m84b1a4a92a" x="71.992937" y="219.688654" style="stroke: #000000; stroke-width: 0.8"/>
      </g>
     </g>
     <g id="text_1">
      <!-- −50 -->
      <g transform="translate(61.440593 234.287091) scale(0.1 -0.1)">
       <defs>
        <path id="DejaVuSans-2212" d="M 678 2272 
L 4684 2272 
L 4684 1741 
L 678 1741 
L 678 2272 
z
" transform="scale(0.015625)"/>
        <path id="DejaVuSans-35" d="M 691 4666 
L 3169 4666 
L 3169 4134 
L 1269 4134 
L 1269 2991 
Q 1406 3038 1543 3061 
Q 1681 3084 1819 3084 
Q 2600 3084 3056 2656 
Q 3513 2228 3513 1497 
Q 3513 744 3044 326 
Q 2575 -91 1722 -91 
Q 1428 -91 1123 -41 
Q 819 9 494 109 
L 494 744 
Q 775 591 1075 516 
Q 1375 441 1709 441 
Q 2250 441 2565 725 
Q 2881 1009 2881 1497 
Q 2881 1984 2565 2268 
Q 2250 2553 1709 2553 
Q 1456 2553 1204 2497 
Q 953 2441 691 2322 
L 691 4666 
z
" transform="scale(0.015625)"/>
        <path id="DejaVuSans-30" d="M 2034 4250 
Q 1547 4250 1301 3770 
Q 1056 3291 1056 2328 
Q 1056 1369 1301 889 
Q 1547 409 2034 409 
Q 2525 409 2770 889 
Q 3016 1369 3016 2328 
Q 3016 3291 2770 3770 
Q 2525 4250 2034 4250 
z
M 2034 4750 
Q 2819 4750 3233 4129 
Q 3647 3509 3647 2328 
Q 3647 1150 3233 529 
Q 2819 -91 2034 -91 
Q 1250 -91 836 529 
Q 422 1150 422 2328 
Q 422 3509 836 4129 
Q 1250 4750 2034 4750 
z
" transform="scale(0.015625)"/>
       </defs>
       <use xlink:href="#DejaVuSans-2212"/>
       <use xlink:href="#DejaVuSans-35" x="83.789062"/>
       <use xlink:href="#DejaVuSans-30" x="147.412109"/>
      </g>
     </g>
    </g>
    <g id="xtick_2">
     <g id="line2d_2">
      <g>
       <use xlink:href="#m84b1a4a92a" x="112.428288" y="219.688654" style="stroke: #000000; stroke-width: 0.8"/>
      </g>
     </g>
     <g id="text_2">
      <!-- 0 -->
      <g transform="translate(109.247038 234.287091) scale(0.1 -0.1)">
       <use xlink:href="#DejaVuSans-30"/>
      </g>
     </g>
    </g>
    <g id="xtick_3">
     <g id="line2d_3">
      <g>
       <use xlink:href="#m84b1a4a92a" x="152.863639" y="219.688654" style="stroke: #000000; stroke-width: 0.8"/>
      </g>
     </g>
     <g id="text_3">
      <!-- 50 -->
      <g transform="translate(146.501139 234.287091) scale(0.1 -0.1)">
       <use xlink:href="#DejaVuSans-35"/>
       <use xlink:href="#DejaVuSans-30" x="63.623047"/>
      </g>
     </g>
    </g>
    <g id="xtick_4">
     <g id="line2d_4">
      <g>
       <use xlink:href="#m84b1a4a92a" x="193.29899" y="219.688654" style="stroke: #000000; stroke-width: 0.8"/>
      </g>
     </g>
     <g id="text_4">
      <!-- 100 -->
      <g transform="translate(183.75524 234.287091) scale(0.1 -0.1)">
       <defs>
        <path id="DejaVuSans-31" d="M 794 531 
L 1825 531 
L 1825 4091 
L 703 3866 
L 703 4441 
L 1819 4666 
L 2450 4666 
L 2450 531 
L 3481 531 
L 3481 0 
L 794 0 
L 794 531 
z
" transform="scale(0.015625)"/>
       </defs>
       <use xlink:href="#DejaVuSans-31"/>
       <use xlink:href="#DejaVuSans-30" x="63.623047"/>
       <use xlink:href="#DejaVuSans-30" x="127.246094"/>
      </g>
     </g>
    </g>
    <g id="xtick_5">
     <g id="line2d_5">
      <g>
       <use xlink:href="#m84b1a4a92a" x="233.734342" y="219.688654" style="stroke: #000000; stroke-width: 0.8"/>
      </g>
     </g>
     <g id="text_5">
      <!-- 150 -->
      <g transform="translate(224.190592 234.287091) scale(0.1 -0.1)">
       <use xlink:href="#DejaVuSans-31"/>
       <use xlink:href="#DejaVuSans-35" x="63.623047"/>
       <use xlink:href="#DejaVuSans-30" x="127.246094"/>
      </g>
     </g>
    </g>
    <g id="xtick_6">
     <g id="line2d_6">
      <g>
       <use xlink:href="#m84b1a4a92a" x="274.169693" y="219.688654" style="stroke: #000000; stroke-width: 0.8"/>
      </g>
     </g>
     <g id="text_6">
      <!-- 200 -->
      <g transform="translate(264.625943 234.287091) scale(0.1 -0.1)">
       <defs>
        <path id="DejaVuSans-32" d="M 1228 531 
L 3431 531 
L 3431 0 
L 469 0 
L 469 531 
Q 828 903 1448 1529 
Q 2069 2156 2228 2338 
Q 2531 2678 2651 2914 
Q 2772 3150 2772 3378 
Q 2772 3750 2511 3984 
Q 2250 4219 1831 4219 
Q 1534 4219 1204 4116 
Q 875 4013 500 3803 
L 500 4441 
Q 881 4594 1212 4672 
Q 1544 4750 1819 4750 
Q 2544 4750 2975 4387 
Q 3406 4025 3406 3419 
Q 3406 3131 3298 2873 
Q 3191 2616 2906 2266 
Q 2828 2175 2409 1742 
Q 1991 1309 1228 531 
z
" transform="scale(0.015625)"/>
       </defs>
       <use xlink:href="#DejaVuSans-32"/>
       <use xlink:href="#DejaVuSans-30" x="63.623047"/>
       <use xlink:href="#DejaVuSans-30" x="127.246094"/>
      </g>
     </g>
    </g>
    <g id="xtick_7">
     <g id="line2d_7">
      <g>
       <use xlink:href="#m84b1a4a92a" x="314.605044" y="219.688654" style="stroke: #000000; stroke-width: 0.8"/>
      </g>
     </g>
     <g id="text_7">
      <!-- 250 -->
      <g transform="translate(305.061294 234.287091) scale(0.1 -0.1)">
       <use xlink:href="#DejaVuSans-32"/>
       <use xlink:href="#DejaVuSans-35" x="63.623047"/>
       <use xlink:href="#DejaVuSans-30" x="127.246094"/>
      </g>
     </g>
    </g>
    <g id="text_8">
     <!-- $\mathrm{t}\bar{\mathrm{t}}$ $p_{\mathrm{T}}$ (GeV) -->
     <g transform="translate(175.275769 249.366779) scale(0.1 -0.1)">
      <defs>
       <path id="DejaVuSans-74" d="M 1172 4494 
L 1172 3500 
L 2356 3500 
L 2356 3053 
L 1172 3053 
L 1172 1153 
Q 1172 725 1289 603 
Q 1406 481 1766 481 
L 2356 481 
L 2356 0 
L 1766 0 
Q 1100 0 847 248 
Q 594 497 594 1153 
L 594 3053 
L 172 3053 
L 172 3500 
L 594 3500 
L 594 4494 
L 1172 4494 
z
" transform="scale(0.015625)"/>
       <path id="DejaVuSans-304" d="M -2522 4769 
L -653 4769 
L -653 4306 
L -2522 4306 
L -2522 4769 
z
" transform="scale(0.015625)"/>
       <path id="DejaVuSans-20" transform="scale(0.015625)"/>
       <path id="DejaVuSans-Oblique-70" d="M 3175 2156 
Q 3175 2616 2975 2859 
Q 2775 3103 2400 3103 
Q 2144 3103 1911 2972 
Q 1678 2841 1497 2591 
Q 1319 2344 1212 1994 
Q 1106 1644 1106 1300 
Q 1106 863 1306 627 
Q 1506 391 1875 391 
Q 2147 391 2380 519 
Q 2613 647 2778 891 
Q 2956 1147 3065 1494 
Q 3175 1841 3175 2156 
z
M 1394 2969 
Q 1625 3272 1939 3428 
Q 2253 3584 2638 3584 
Q 3175 3584 3472 3232 
Q 3769 2881 3769 2247 
Q 3769 1728 3584 1258 
Q 3400 788 3053 416 
Q 2822 169 2531 39 
Q 2241 -91 1919 -91 
Q 1547 -91 1294 64 
Q 1041 219 916 525 
L 556 -1331 
L -19 -1331 
L 922 3500 
L 1497 3500 
L 1394 2969 
z
" transform="scale(0.015625)"/>
       <path id="DejaVuSans-54" d="M -19 4666 
L 3928 4666 
L 3928 4134 
L 2272 4134 
L 2272 0 
L 1638 0 
L 1638 4134 
L -19 4134 
L -19 4666 
z
" transform="scale(0.015625)"/>
       <path id="DejaVuSans-28" d="M 1984 4856 
Q 1566 4138 1362 3434 
Q 1159 2731 1159 2009 
Q 1159 1288 1364 580 
Q 1569 -128 1984 -844 
L 1484 -844 
Q 1016 -109 783 600 
Q 550 1309 550 2009 
Q 550 2706 781 3412 
Q 1013 4119 1484 4856 
L 1984 4856 
z
" transform="scale(0.015625)"/>
       <path id="DejaVuSans-47" d="M 3809 666 
L 3809 1919 
L 2778 1919 
L 2778 2438 
L 4434 2438 
L 4434 434 
Q 4069 175 3628 42 
Q 3188 -91 2688 -91 
Q 1594 -91 976 548 
Q 359 1188 359 2328 
Q 359 3472 976 4111 
Q 1594 4750 2688 4750 
Q 3144 4750 3555 4637 
Q 3966 4525 4313 4306 
L 4313 3634 
Q 3963 3931 3569 4081 
Q 3175 4231 2741 4231 
Q 1884 4231 1454 3753 
Q 1025 3275 1025 2328 
Q 1025 1384 1454 906 
Q 1884 428 2741 428 
Q 3075 428 3337 486 
Q 3600 544 3809 666 
z
" transform="scale(0.015625)"/>
       <path id="DejaVuSans-65" d="M 3597 1894 
L 3597 1613 
L 953 1613 
Q 991 1019 1311 708 
Q 1631 397 2203 397 
Q 2534 397 2845 478 
Q 3156 559 3463 722 
L 3463 178 
Q 3153 47 2828 -22 
Q 2503 -91 2169 -91 
Q 1331 -91 842 396 
Q 353 884 353 1716 
Q 353 2575 817 3079 
Q 1281 3584 2069 3584 
Q 2775 3584 3186 3129 
Q 3597 2675 3597 1894 
z
M 3022 2063 
Q 3016 2534 2758 2815 
Q 2500 3097 2075 3097 
Q 1594 3097 1305 2825 
Q 1016 2553 972 2059 
L 3022 2063 
z
" transform="scale(0.015625)"/>
       <path id="DejaVuSans-56" d="M 1831 0 
L 50 4666 
L 709 4666 
L 2188 738 
L 3669 4666 
L 4325 4666 
L 2547 0 
L 1831 0 
z
" transform="scale(0.015625)"/>
       <path id="DejaVuSans-29" d="M 513 4856 
L 1013 4856 
Q 1481 4119 1714 3412 
Q 1947 2706 1947 2009 
Q 1947 1309 1714 600 
Q 1481 -109 1013 -844 
L 513 -844 
Q 928 -128 1133 580 
Q 1338 1288 1338 2009 
Q 1338 2731 1133 3434 
Q 928 4138 513 4856 
z
" transform="scale(0.015625)"/>
      </defs>
      <use xlink:href="#DejaVuSans-74" transform="translate(0 0.046875)"/>
      <use xlink:href="#DejaVuSans-304" transform="translate(88.41748 15.484375)"/>
      <use xlink:href="#DejaVuSans-74" transform="translate(39.208984 0.046875)"/>
      <use xlink:href="#DejaVuSans-20" transform="translate(78.417969 0.046875)"/>
      <use xlink:href="#DejaVuSans-Oblique-70" transform="translate(110.205078 0.046875)"/>
      <use xlink:href="#DejaVuSans-54" transform="translate(173.681641 -16.359375) scale(0.7)"/>
      <use xlink:href="#DejaVuSans-20" transform="translate(219.174805 0.046875)"/>
      <use xlink:href="#DejaVuSans-28" transform="translate(250.961914 0.046875)"/>
      <use xlink:href="#DejaVuSans-47" transform="translate(289.975586 0.046875)"/>
      <use xlink:href="#DejaVuSans-65" transform="translate(367.46582 0.046875)"/>
      <use xlink:href="#DejaVuSans-56" transform="translate(428.989258 0.046875)"/>
      <use xlink:href="#DejaVuSans-29" transform="translate(497.397461 0.046875)"/>
     </g>
    </g>
   </g>
   <g id="matplotlib.axis_2">
    <g id="ytick_1">
     <g id="line2d_8">
      <defs>
       <path id="m11e9cbecf4" d="M 0 0 
L -3.5 0 
" style="stroke: #000000; stroke-width: 0.8"/>
      </defs>
      <g>
       <use xlink:href="#m11e9cbecf4" x="60.59" y="219.688654" style="stroke: #000000; stroke-width: 0.8"/>
      </g>
     </g>
     <g id="text_9">
      <!-- 0.000 -->
      <g transform="translate(24.961875 223.487873) scale(0.1 -0.1)">
       <defs>
        <path id="DejaVuSans-2e" d="M 684 794 
L 1344 794 
L 1344 0 
L 684 0 
L 684 794 
z
" transform="scale(0.015625)"/>
       </defs>
       <use xlink:href="#DejaVuSans-30"/>
       <use xlink:href="#DejaVuSans-2e" x="63.623047"/>
       <use xlink:href="#DejaVuSans-30" x="95.410156"/>
       <use xlink:href="#DejaVuSans-30" x="159.033203"/>
       <use xlink:href="#DejaVuSans-30" x="222.65625"/>
      </g>
     </g>
    </g>
    <g id="ytick_2">
     <g id="line2d_9">
      <g>
       <use xlink:href="#m11e9cbecf4" x="60.59" y="188.094022" style="stroke: #000000; stroke-width: 0.8"/>
      </g>
     </g>
     <g id="text_10">
      <!-- 0.005 -->
      <g transform="translate(24.961875 191.893241) scale(0.1 -0.1)">
       <use xlink:href="#DejaVuSans-30"/>
       <use xlink:href="#DejaVuSans-2e" x="63.623047"/>
       <use xlink:href="#DejaVuSans-30" x="95.410156"/>
       <use xlink:href="#DejaVuSans-30" x="159.033203"/>
       <use xlink:href="#DejaVuSans-35" x="222.65625"/>
      </g>
     </g>
    </g>
    <g id="ytick_3">
     <g id="line2d_10">
      <g>
       <use xlink:href="#m11e9cbecf4" x="60.59" y="156.499391" style="stroke: #000000; stroke-width: 0.8"/>
      </g>
     </g>
     <g id="text_11">
      <!-- 0.010 -->
      <g transform="translate(24.961875 160.29861) scale(0.1 -0.1)">
       <use xlink:href="#DejaVuSans-30"/>
       <use xlink:href="#DejaVuSans-2e" x="63.623047"/>
       <use xlink:href="#DejaVuSans-30" x="95.410156"/>
       <use xlink:href="#DejaVuSans-31" x="159.033203"/>
       <use xlink:href="#DejaVuSans-30" x="222.65625"/>
      </g>
     </g>
    </g>
    <g id="ytick_4">
     <g id="line2d_11">
      <g>
       <use xlink:href="#m11e9cbecf4" x="60.59" y="124.904759" style="stroke: #000000; stroke-width: 0.8"/>
      </g>
     </g>
     <g id="text_12">
      <!-- 0.015 -->
      <g transform="translate(24.961875 128.703978) scale(0.1 -0.1)">
       <use xlink:href="#DejaVuSans-30"/>
       <use xlink:href="#DejaVuSans-2e" x="63.623047"/>
       <use xlink:href="#DejaVuSans-30" x="95.410156"/>
       <use xlink:href="#DejaVuSans-31" x="159.033203"/>
       <use xlink:href="#DejaVuSans-35" x="222.65625"/>
      </g>
     </g>
    </g>
    <g id="ytick_5">
     <g id="line2d_12">
      <g>
       <use xlink:href="#m11e9cbecf4" x="60.59" y="93.310128" style="stroke: #000000; stroke-width: 0.8"/>
      </g>
     </g>
     <g id="text_13">
      <!-- 0.020 -->
      <g transform="translate(24.961875 97.109347) scale(0.1 -0.1)">
       <use xlink:href="#DejaVuSans-30"/>
       <use xlink:href="#DejaVuSans-2e" x="63.623047"/>
       <use xlink:href="#DejaVuSans-30" x="95.410156"/>
       <use xlink:href="#DejaVuSans-32" x="159.033203"/>
       <use xlink:href="#DejaVuSans-30" x="222.65625"/>
      </g>
     </g>
    </g>
    <g id="ytick_6">
     <g id="line2d_13">
      <g>
       <use xlink:href="#m11e9cbecf4" x="60.59" y="61.715496" style="stroke: #000000; stroke-width: 0.8"/>
      </g>
     </g>
     <g id="text_14">
      <!-- 0.025 -->
      <g transform="translate(24.961875 65.514715) scale(0.1 -0.1)">
       <use xlink:href="#DejaVuSans-30"/>
       <use xlink:href="#DejaVuSans-2e" x="63.623047"/>
       <use xlink:href="#DejaVuSans-30" x="95.410156"/>
       <use xlink:href="#DejaVuSans-32" x="159.033203"/>
       <use xlink:href="#DejaVuSans-35" x="222.65625"/>
      </g>
     </g>
    </g>
    <g id="ytick_7">
     <g id="line2d_14">
      <g>
       <use xlink:href="#m11e9cbecf4" x="60.59" y="30.120865" style="stroke: #000000; stroke-width: 0.8"/>
      </g>
     </g>
     <g id="text_15">
      <!-- 0.030 -->
      <g transform="translate(24.961875 33.920083) scale(0.1 -0.1)">
       <defs>
        <path id="DejaVuSans-33" d="M 2597 2516 
Q 3050 2419 3304 2112 
Q 3559 1806 3559 1356 
Q 3559 666 3084 287 
Q 2609 -91 1734 -91 
Q 1441 -91 1130 -33 
Q 819 25 488 141 
L 488 750 
Q 750 597 1062 519 
Q 1375 441 1716 441 
Q 2309 441 2620 675 
Q 2931 909 2931 1356 
Q 2931 1769 2642 2001 
Q 2353 2234 1838 2234 
L 1294 2234 
L 1294 2753 
L 1863 2753 
Q 2328 2753 2575 2939 
Q 2822 3125 2822 3475 
Q 2822 3834 2567 4026 
Q 2313 4219 1838 4219 
Q 1578 4219 1281 4162 
Q 984 4106 628 3988 
L 628 4550 
Q 988 4650 1302 4700 
Q 1616 4750 1894 4750 
Q 2613 4750 3031 4423 
Q 3450 4097 3450 3541 
Q 3450 3153 3228 2886 
Q 3006 2619 2597 2516 
z
" transform="scale(0.015625)"/>
       </defs>
       <use xlink:href="#DejaVuSans-30"/>
       <use xlink:href="#DejaVuSans-2e" x="63.623047"/>
       <use xlink:href="#DejaVuSans-30" x="95.410156"/>
       <use xlink:href="#DejaVuSans-33" x="159.033203"/>
       <use xlink:href="#DejaVuSans-30" x="222.65625"/>
      </g>
     </g>
    </g>
    <g id="text_16">
     <!-- Events / bin -->
     <g transform="translate(18.882187 152.687764) rotate(-90) scale(0.1 -0.1)">
      <defs>
       <path id="DejaVuSans-45" d="M 628 4666 
L 3578 4666 
L 3578 4134 
L 1259 4134 
L 1259 2753 
L 3481 2753 
L 3481 2222 
L 1259 2222 
L 1259 531 
L 3634 531 
L 3634 0 
L 628 0 
L 628 4666 
z
" transform="scale(0.015625)"/>
       <path id="DejaVuSans-76" d="M 191 3500 
L 800 3500 
L 1894 563 
L 2988 3500 
L 3597 3500 
L 2284 0 
L 1503 0 
L 191 3500 
z
" transform="scale(0.015625)"/>
       <path id="DejaVuSans-6e" d="M 3513 2113 
L 3513 0 
L 2938 0 
L 2938 2094 
Q 2938 2591 2744 2837 
Q 2550 3084 2163 3084 
Q 1697 3084 1428 2787 
Q 1159 2491 1159 1978 
L 1159 0 
L 581 0 
L 581 3500 
L 1159 3500 
L 1159 2956 
Q 1366 3272 1645 3428 
Q 1925 3584 2291 3584 
Q 2894 3584 3203 3211 
Q 3513 2838 3513 2113 
z
" transform="scale(0.015625)"/>
       <path id="DejaVuSans-73" d="M 2834 3397 
L 2834 2853 
Q 2591 2978 2328 3040 
Q 2066 3103 1784 3103 
Q 1356 3103 1142 2972 
Q 928 2841 928 2578 
Q 928 2378 1081 2264 
Q 1234 2150 1697 2047 
L 1894 2003 
Q 2506 1872 2764 1633 
Q 3022 1394 3022 966 
Q 3022 478 2636 193 
Q 2250 -91 1575 -91 
Q 1294 -91 989 -36 
Q 684 19 347 128 
L 347 722 
Q 666 556 975 473 
Q 1284 391 1588 391 
Q 1994 391 2212 530 
Q 2431 669 2431 922 
Q 2431 1156 2273 1281 
Q 2116 1406 1581 1522 
L 1381 1569 
Q 847 1681 609 1914 
Q 372 2147 372 2553 
Q 372 3047 722 3315 
Q 1072 3584 1716 3584 
Q 2034 3584 2315 3537 
Q 2597 3491 2834 3397 
z
" transform="scale(0.015625)"/>
       <path id="DejaVuSans-2f" d="M 1625 4666 
L 2156 4666 
L 531 -594 
L 0 -594 
L 1625 4666 
z
" transform="scale(0.015625)"/>
       <path id="DejaVuSans-62" d="M 3116 1747 
Q 3116 2381 2855 2742 
Q 2594 3103 2138 3103 
Q 1681 3103 1420 2742 
Q 1159 2381 1159 1747 
Q 1159 1113 1420 752 
Q 1681 391 2138 391 
Q 2594 391 2855 752 
Q 3116 1113 3116 1747 
z
M 1159 2969 
Q 1341 3281 1617 3432 
Q 1894 3584 2278 3584 
Q 2916 3584 3314 3078 
Q 3713 2572 3713 1747 
Q 3713 922 3314 415 
Q 2916 -91 2278 -91 
Q 1894 -91 1617 61 
Q 1341 213 1159 525 
L 1159 0 
L 581 0 
L 581 4863 
L 1159 4863 
L 1159 2969 
z
" transform="scale(0.015625)"/>
       <path id="DejaVuSans-69" d="M 603 3500 
L 1178 3500 
L 1178 0 
L 603 0 
L 603 3500 
z
M 603 4863 
L 1178 4863 
L 1178 4134 
L 603 4134 
L 603 4863 
z
" transform="scale(0.015625)"/>
      </defs>
      <use xlink:href="#DejaVuSans-45"/>
      <use xlink:href="#DejaVuSans-76" x="63.183594"/>
      <use xlink:href="#DejaVuSans-65" x="122.363281"/>
      <use xlink:href="#DejaVuSans-6e" x="183.886719"/>
      <use xlink:href="#DejaVuSans-74" x="247.265625"/>
      <use xlink:href="#DejaVuSans-73" x="286.474609"/>
      <use xlink:href="#DejaVuSans-20" x="338.574219"/>
      <use xlink:href="#DejaVuSans-2f" x="370.361328"/>
      <use xlink:href="#DejaVuSans-20" x="404.052734"/>
      <use xlink:href="#DejaVuSans-62" x="435.839844"/>
      <use xlink:href="#DejaVuSans-69" x="499.316406"/>
      <use xlink:href="#DejaVuSans-6e" x="527.099609"/>
     </g>
    </g>
   </g>
   <g id="patch_153">
    <path d="M 60.59 219.688654 
L 60.59 26.64 
" style="fill: none; stroke: #000000; stroke-width: 0.8; stroke-linejoin: miter; stroke-linecap: square"/>
   </g>
   <g id="patch_154">
    <path d="M 343.661538 219.688654 
L 343.661538 26.64 
" style="fill: none; stroke: #000000; stroke-width: 0.8; stroke-linejoin: miter; stroke-linecap: square"/>
   </g>
   <g id="patch_155">
    <path d="M 60.59 219.688654 
L 343.661538 219.688654 
" style="fill: none; stroke: #000000; stroke-width: 0.8; stroke-linejoin: miter; stroke-linecap: square"/>
   </g>
   <g id="patch_156">
    <path d="M 60.59 26.64 
L 343.661538 26.64 
" style="fill: none; stroke: #000000; stroke-width: 0.8; stroke-linejoin: miter; stroke-linecap: square"/>
   </g>
   <g id="text_17">
    <!-- CMS -->
    <g transform="translate(60.59 22.956328) scale(0.169 -0.169)">
     <defs>
      <path id="TeXGyreHeros-Bold-43" d="M 4384 1594 
L 3450 1594 
C 3392 998 3014 730 2419 730 
C 1677 730 1242 1299 1242 2317 
C 1242 3347 1696 3923 2451 3923 
C 2970 3923 3309 3686 3450 3085 
L 4365 3085 
C 4282 4160 3469 4742 2419 4742 
C 1101 4742 282 3840 282 2330 
C 282 832 1094 -77 2394 -77 
C 3552 -77 4326 525 4384 1594 
z
" transform="scale(0.015625)"/>
      <path id="TeXGyreHeros-Bold-4d" d="M 4966 0 
L 4966 4666 
L 3520 4666 
L 2701 954 
L 1856 4666 
L 422 4666 
L 422 0 
L 1382 0 
L 1382 3635 
L 2221 0 
L 3181 0 
L 4006 3635 
L 4006 0 
L 4966 0 
z
" transform="scale(0.015625)"/>
      <path id="TeXGyreHeros-Bold-53" d="M 4051 1402 
C 4051 2138 3680 2483 2816 2650 
L 2086 2790 
C 1402 2925 1203 3059 1203 3398 
C 1203 3750 1517 3974 2010 3974 
C 2618 3974 2989 3718 2989 3245 
L 3885 3245 
C 3885 4230 3194 4742 2054 4742 
C 934 4742 288 4218 288 3309 
C 288 2579 653 2240 1600 2054 
L 2253 1926 
C 2893 1798 3130 1664 3130 1286 
C 3130 896 2771 691 2189 691 
C 1536 691 1139 966 1139 1466 
L 205 1466 
C 205 467 947 -77 2138 -77 
C 3341 -77 4051 454 4051 1402 
z
" transform="scale(0.015625)"/>
     </defs>
     <use xlink:href="#TeXGyreHeros-Bold-43"/>
     <use xlink:href="#TeXGyreHeros-Bold-4d" x="72.199982"/>
     <use xlink:href="#TeXGyreHeros-Bold-53" x="155.499969"/>
    </g>
   </g>
   <g id="text_18">
    <!-- Private work (CMS simulation) -->
    <g transform="translate(99.902 22.906163) scale(0.13 -0.13)">
     <defs>
      <path id="TeXGyreHeros-Italic-50" d="M 4371 3635 
C 4371 4314 3968 4666 3187 4666 
L 1254 4666 
L 262 0 
L 864 0 
L 1286 1978 
L 2746 1978 
C 3712 1978 4371 2771 4371 3635 
z
M 3757 3520 
C 3757 2957 3302 2502 2637 2502 
L 1395 2502 
L 1747 4141 
L 2989 4141 
C 3488 4141 3757 3923 3757 3520 
z
" transform="scale(0.015625)"/>
      <path id="TeXGyreHeros-Italic-72" d="M 2355 2886 
L 2470 3430 
C 2387 3443 2336 3450 2266 3450 
C 1894 3450 1606 3283 1210 2829 
L 1318 3354 
L 832 3354 
L 122 0 
L 659 0 
L 1030 1741 
C 1190 2496 1626 2886 2291 2886 
L 2355 2886 
z
" transform="scale(0.015625)"/>
      <path id="TeXGyreHeros-Italic-69" d="M 659 0 
L 1370 3354 
L 832 3354 
L 122 0 
L 659 0 
z
M 1677 4525 
L 1011 4525 
L 870 3866 
L 1536 3866 
L 1677 4525 
z
" transform="scale(0.015625)"/>
      <path id="TeXGyreHeros-Italic-76" d="M 3507 3354 
L 2925 3354 
L 1363 653 
L 1050 3354 
L 461 3354 
L 934 0 
L 1517 0 
L 3507 3354 
z
" transform="scale(0.015625)"/>
      <path id="TeXGyreHeros-Italic-61" d="M 3149 0 
L 3232 416 
C 3174 403 3149 403 3123 403 
C 2957 403 2880 461 2880 589 
C 2880 614 2880 634 2886 653 
L 3277 2490 
C 3315 2662 3315 2662 3315 2726 
C 3315 3162 2874 3450 2202 3450 
C 1312 3450 768 3072 646 2362 
L 1184 2362 
C 1312 2771 1587 2957 2061 2957 
C 2445 2957 2739 2784 2739 2547 
C 2739 2522 2733 2477 2726 2426 
L 2707 2310 
C 2662 2048 2515 1971 2061 1933 
C 1203 1850 934 1792 621 1594 
C 288 1382 102 1069 102 698 
C 102 186 454 -96 1030 -96 
C 1446 -96 1818 -38 2310 371 
L 2304 275 
C 2304 13 2502 -58 2810 -58 
C 2899 -58 2893 -45 3149 0 
z
M 2566 1651 
L 2451 1101 
C 2368 704 1805 365 1242 365 
C 877 365 666 493 666 762 
C 666 1165 954 1370 1632 1466 
C 2234 1549 2285 1555 2566 1651 
z
" transform="scale(0.015625)"/>
      <path id="TeXGyreHeros-Italic-74" d="M 1408 467 
C 1210 422 1178 416 1101 416 
C 960 416 870 486 870 589 
C 870 608 877 640 883 678 
L 1363 2925 
L 1933 2925 
L 2022 3354 
L 1453 3354 
L 1651 4275 
L 1114 4275 
L 915 3354 
L 461 3354 
L 371 2925 
L 826 2925 
L 339 659 
C 326 595 320 525 320 461 
C 320 147 538 -45 890 -45 
C 1018 -45 1216 -26 1306 0 
L 1408 467 
z
" transform="scale(0.015625)"/>
      <path id="TeXGyreHeros-Italic-65" d="M 3290 1523 
L 3302 1606 
C 3360 1914 3392 2182 3392 2355 
C 3392 2970 2861 3450 2170 3450 
C 1613 3450 1075 3187 755 2758 
C 454 2355 224 1651 224 1133 
C 224 467 717 -96 1498 -96 
C 2266 -96 2912 326 3110 1018 
L 2573 1018 
C 2355 627 2016 397 1587 397 
C 1082 397 787 685 787 1229 
C 781 1338 787 1402 819 1523 
L 3290 1523 
z
M 2816 1984 
L 934 1984 
C 1094 2547 1568 2957 2086 2957 
C 2541 2957 2829 2650 2829 2170 
C 2829 2106 2822 2061 2816 1984 
z
" transform="scale(0.015625)"/>
      <path id="TeXGyreHeros-Italic-20" transform="scale(0.015625)"/>
      <path id="TeXGyreHeros-Italic-77" d="M 4928 3354 
L 4346 3354 
L 3091 742 
L 3091 3354 
L 2349 3354 
L 1139 742 
L 1139 3354 
L 435 3354 
L 691 0 
L 1306 0 
L 2554 2675 
L 2554 0 
L 3238 0 
L 4928 3354 
z
" transform="scale(0.015625)"/>
      <path id="TeXGyreHeros-Italic-6f" d="M 3366 2253 
C 3366 2931 2906 3450 2138 3450 
C 934 3450 198 2342 198 1075 
C 198 365 698 -96 1414 -96 
C 2579 -96 3366 922 3366 2253 
z
M 2803 2131 
C 2803 1178 2266 397 1504 397 
C 1050 397 762 691 762 1203 
C 762 2131 1299 2957 2054 2957 
C 2528 2957 2803 2650 2803 2131 
z
" transform="scale(0.015625)"/>
      <path id="TeXGyreHeros-Italic-6b" d="M 2893 0 
L 1997 2195 
L 3418 3354 
L 2726 3354 
L 1005 1958 
L 1581 4666 
L 1043 4666 
L 51 0 
L 589 0 
L 864 1299 
L 1549 1862 
L 2278 0 
L 2893 0 
z
" transform="scale(0.015625)"/>
      <path id="TeXGyreHeros-Italic-28" d="M 1254 -1363 
C 1018 -749 902 -147 902 506 
C 902 1926 1459 3347 2534 4666 
L 2182 4666 
C 1069 3501 403 2042 403 742 
C 403 -19 589 -813 902 -1363 
L 1254 -1363 
z
" transform="scale(0.015625)"/>
      <path id="TeXGyreHeros-Italic-43" d="M 4384 1702 
L 3757 1702 
C 3354 787 2950 403 2125 403 
C 1459 403 1018 922 1018 1696 
C 1018 2278 1210 2925 1536 3411 
C 1926 3987 2394 4262 2982 4262 
C 3629 4262 3942 3910 3994 3219 
L 4608 3219 
C 4557 4262 3974 4781 3091 4781 
C 2342 4781 1722 4480 1222 3878 
C 717 3270 403 2381 403 1581 
C 403 563 1011 -115 2035 -115 
C 3162 -115 3840 410 4384 1702 
z
" transform="scale(0.015625)"/>
      <path id="TeXGyreHeros-Italic-4d" d="M 5542 4666 
L 4704 4666 
L 2490 653 
L 1978 4666 
L 1152 4666 
L 160 0 
L 730 0 
L 1555 3872 
L 2048 0 
L 2669 0 
L 4806 3872 
L 3981 0 
L 4550 0 
L 5542 4666 
z
" transform="scale(0.015625)"/>
      <path id="TeXGyreHeros-Italic-53" d="M 3968 1549 
C 3968 1978 3667 2349 3187 2490 
L 2086 2803 
C 1594 2944 1440 3072 1440 3354 
C 1440 3866 1952 4262 2694 4262 
C 3398 4262 3667 3994 3667 3565 
C 3667 3507 3661 3462 3642 3334 
L 4205 3334 
C 4243 3514 4256 3597 4256 3693 
C 4256 4339 3712 4781 2810 4781 
C 2150 4781 1632 4595 1286 4237 
C 1024 3968 826 3514 826 3187 
C 826 2784 1107 2445 1536 2323 
L 2630 2010 
C 3142 1862 3354 1670 3354 1370 
C 3354 838 2771 403 1901 403 
C 1178 403 845 672 845 1254 
C 845 1338 851 1395 870 1517 
L 314 1517 
C 269 1350 256 1248 256 1114 
C 256 346 832 -115 1798 -115 
C 2470 -115 3034 70 3411 422 
C 3738 723 3968 1190 3968 1549 
z
" transform="scale(0.015625)"/>
      <path id="TeXGyreHeros-Italic-73" d="M 2848 1158 
C 2848 1549 2637 1754 2074 1894 
L 1587 2016 
C 1229 2106 1043 2234 1043 2400 
C 1043 2726 1363 2957 1850 2957 
C 2227 2957 2438 2810 2438 2560 
C 2438 2515 2438 2470 2432 2419 
L 2970 2419 
C 3002 2554 3008 2611 3008 2694 
C 3008 3142 2579 3450 1958 3450 
C 1069 3450 480 2938 480 2259 
C 480 1869 704 1677 1363 1510 
L 1837 1389 
C 2240 1286 2285 1146 2285 1011 
C 2285 646 1862 397 1370 397 
C 928 397 678 570 678 890 
C 678 928 685 986 691 1050 
L 122 1050 
C 90 902 83 826 83 723 
C 83 211 531 -96 1274 -96 
C 2227 -96 2848 397 2848 1158 
z
" transform="scale(0.015625)"/>
      <path id="TeXGyreHeros-Italic-6d" d="M 4589 0 
L 5094 2387 
C 5114 2458 5133 2669 5133 2739 
C 5133 3072 4883 3450 4320 3450 
C 3904 3450 3539 3283 3162 2918 
C 3059 3277 2810 3450 2387 3450 
C 1952 3450 1658 3322 1248 2938 
L 1331 3354 
L 845 3354 
L 134 0 
L 672 0 
L 1120 2106 
C 1222 2592 1658 2989 2086 2989 
C 2400 2989 2611 2810 2611 2547 
C 2611 2477 2605 2394 2586 2310 
L 2093 0 
L 2630 0 
L 3078 2106 
C 3181 2605 3616 2989 4083 2989 
C 4384 2989 4570 2803 4570 2496 
C 4570 2400 4570 2400 4512 2182 
L 4051 0 
L 4589 0 
z
" transform="scale(0.015625)"/>
      <path id="TeXGyreHeros-Italic-75" d="M 2771 0 
L 3482 3354 
L 2944 3354 
L 2554 1504 
C 2406 813 1952 365 1408 365 
C 1062 365 838 557 838 858 
C 838 909 845 966 858 1030 
L 1350 3354 
L 813 3354 
L 275 819 
C 262 755 256 685 256 602 
C 256 166 589 -96 1139 -96 
C 1638 -96 2003 58 2368 390 
L 2285 0 
L 2771 0 
z
" transform="scale(0.015625)"/>
      <path id="TeXGyreHeros-Italic-6c" d="M 1645 4666 
L 1107 4666 
L 115 0 
L 653 0 
L 1645 4666 
z
" transform="scale(0.015625)"/>
      <path id="TeXGyreHeros-Italic-6e" d="M 3328 2406 
C 3347 2490 3354 2566 3354 2650 
C 3354 3136 3014 3450 2483 3450 
C 1997 3450 1574 3277 1242 2938 
L 1325 3354 
L 838 3354 
L 128 0 
L 666 0 
L 1056 1850 
C 1203 2554 1658 2989 2234 2989 
C 2554 2989 2790 2765 2790 2470 
C 2790 2432 2771 2336 2752 2234 
L 2278 0 
L 2816 0 
L 3328 2406 
z
" transform="scale(0.015625)"/>
      <path id="TeXGyreHeros-Italic-29" d="M 1760 2605 
C 1760 3328 1568 4134 1267 4666 
L 915 4666 
C 1158 4045 1267 3443 1267 2758 
C 1267 1376 698 -64 -365 -1363 
L -13 -1363 
C 1094 -205 1760 1274 1760 2605 
z
" transform="scale(0.015625)"/>
     </defs>
     <use xlink:href="#TeXGyreHeros-Italic-50"/>
     <use xlink:href="#TeXGyreHeros-Italic-72" x="66.699997"/>
     <use xlink:href="#TeXGyreHeros-Italic-69" x="99.999985"/>
     <use xlink:href="#TeXGyreHeros-Italic-76" x="122.199982"/>
     <use xlink:href="#TeXGyreHeros-Italic-61" x="172.199966"/>
     <use xlink:href="#TeXGyreHeros-Italic-74" x="227.799957"/>
     <use xlink:href="#TeXGyreHeros-Italic-65" x="255.599945"/>
     <use xlink:href="#TeXGyreHeros-Italic-20" x="311.199936"/>
     <use xlink:href="#TeXGyreHeros-Italic-77" x="338.999924"/>
     <use xlink:href="#TeXGyreHeros-Italic-6f" x="411.199905"/>
     <use xlink:href="#TeXGyreHeros-Italic-72" x="466.799896"/>
     <use xlink:href="#TeXGyreHeros-Italic-6b" x="500.099884"/>
     <use xlink:href="#TeXGyreHeros-Italic-20" x="550.099869"/>
     <use xlink:href="#TeXGyreHeros-Italic-28" x="577.899857"/>
     <use xlink:href="#TeXGyreHeros-Italic-43" x="611.199844"/>
     <use xlink:href="#TeXGyreHeros-Italic-4d" x="683.399826"/>
     <use xlink:href="#TeXGyreHeros-Italic-53" x="766.699814"/>
     <use xlink:href="#TeXGyreHeros-Italic-20" x="833.399811"/>
     <use xlink:href="#TeXGyreHeros-Italic-73" x="861.199799"/>
     <use xlink:href="#TeXGyreHeros-Italic-69" x="911.199783"/>
     <use xlink:href="#TeXGyreHeros-Italic-6d" x="933.39978"/>
     <use xlink:href="#TeXGyreHeros-Italic-75" x="1016.699768"/>
     <use xlink:href="#TeXGyreHeros-Italic-6c" x="1072.299759"/>
     <use xlink:href="#TeXGyreHeros-Italic-61" x="1094.499756"/>
     <use xlink:href="#TeXGyreHeros-Italic-74" x="1150.099747"/>
     <use xlink:href="#TeXGyreHeros-Italic-69" x="1177.899734"/>
     <use xlink:href="#TeXGyreHeros-Italic-6f" x="1200.099731"/>
     <use xlink:href="#TeXGyreHeros-Italic-6e" x="1255.699722"/>
     <use xlink:href="#TeXGyreHeros-Italic-29" x="1311.299713"/>
    </g>
   </g>
   <g id="legend_1">
    <g id="patch_157">
     <path d="M 102.989663 78.674375 
L 336.661538 78.674375 
Q 338.661538 78.674375 338.661538 76.674375 
L 338.661538 33.64 
Q 338.661538 31.64 336.661538 31.64 
L 102.989663 31.64 
Q 100.989663 31.64 100.989663 33.64 
L 100.989663 76.674375 
Q 100.989663 78.674375 102.989663 78.674375 
z
" style="fill: #ffffff; opacity: 0.8; stroke: #cccccc; stroke-linejoin: miter"/>
    </g>
    <g id="patch_158">
     <path d="M 104.989663 43.238438 
L 124.989663 43.238438 
L 124.989663 36.238438 
L 104.989663 36.238438 
z
" style="fill: #1f77b4; fill-opacity: 0.5; stroke: #1f77b4; stroke-linejoin: miter"/>
    </g>
    <g id="text_19">
     <!-- Network (MSE: 4.03e+03) -->
     <g transform="translate(132.989663 43.238438) scale(0.1 -0.1)">
      <defs>
       <path id="DejaVuSans-4e" d="M 628 4666 
L 1478 4666 
L 3547 763 
L 3547 4666 
L 4159 4666 
L 4159 0 
L 3309 0 
L 1241 3903 
L 1241 0 
L 628 0 
L 628 4666 
z
" transform="scale(0.015625)"/>
       <path id="DejaVuSans-77" d="M 269 3500 
L 844 3500 
L 1563 769 
L 2278 3500 
L 2956 3500 
L 3675 769 
L 4391 3500 
L 4966 3500 
L 4050 0 
L 3372 0 
L 2619 2869 
L 1863 0 
L 1184 0 
L 269 3500 
z
" transform="scale(0.015625)"/>
       <path id="DejaVuSans-6f" d="M 1959 3097 
Q 1497 3097 1228 2736 
Q 959 2375 959 1747 
Q 959 1119 1226 758 
Q 1494 397 1959 397 
Q 2419 397 2687 759 
Q 2956 1122 2956 1747 
Q 2956 2369 2687 2733 
Q 2419 3097 1959 3097 
z
M 1959 3584 
Q 2709 3584 3137 3096 
Q 3566 2609 3566 1747 
Q 3566 888 3137 398 
Q 2709 -91 1959 -91 
Q 1206 -91 779 398 
Q 353 888 353 1747 
Q 353 2609 779 3096 
Q 1206 3584 1959 3584 
z
" transform="scale(0.015625)"/>
       <path id="DejaVuSans-72" d="M 2631 2963 
Q 2534 3019 2420 3045 
Q 2306 3072 2169 3072 
Q 1681 3072 1420 2755 
Q 1159 2438 1159 1844 
L 1159 0 
L 581 0 
L 581 3500 
L 1159 3500 
L 1159 2956 
Q 1341 3275 1631 3429 
Q 1922 3584 2338 3584 
Q 2397 3584 2469 3576 
Q 2541 3569 2628 3553 
L 2631 2963 
z
" transform="scale(0.015625)"/>
       <path id="DejaVuSans-6b" d="M 581 4863 
L 1159 4863 
L 1159 1991 
L 2875 3500 
L 3609 3500 
L 1753 1863 
L 3688 0 
L 2938 0 
L 1159 1709 
L 1159 0 
L 581 0 
L 581 4863 
z
" transform="scale(0.015625)"/>
       <path id="DejaVuSans-4d" d="M 628 4666 
L 1569 4666 
L 2759 1491 
L 3956 4666 
L 4897 4666 
L 4897 0 
L 4281 0 
L 4281 4097 
L 3078 897 
L 2444 897 
L 1241 4097 
L 1241 0 
L 628 0 
L 628 4666 
z
" transform="scale(0.015625)"/>
       <path id="DejaVuSans-53" d="M 3425 4513 
L 3425 3897 
Q 3066 4069 2747 4153 
Q 2428 4238 2131 4238 
Q 1616 4238 1336 4038 
Q 1056 3838 1056 3469 
Q 1056 3159 1242 3001 
Q 1428 2844 1947 2747 
L 2328 2669 
Q 3034 2534 3370 2195 
Q 3706 1856 3706 1288 
Q 3706 609 3251 259 
Q 2797 -91 1919 -91 
Q 1588 -91 1214 -16 
Q 841 59 441 206 
L 441 856 
Q 825 641 1194 531 
Q 1563 422 1919 422 
Q 2459 422 2753 634 
Q 3047 847 3047 1241 
Q 3047 1584 2836 1778 
Q 2625 1972 2144 2069 
L 1759 2144 
Q 1053 2284 737 2584 
Q 422 2884 422 3419 
Q 422 4038 858 4394 
Q 1294 4750 2059 4750 
Q 2388 4750 2728 4690 
Q 3069 4631 3425 4513 
z
" transform="scale(0.015625)"/>
       <path id="DejaVuSans-3a" d="M 750 794 
L 1409 794 
L 1409 0 
L 750 0 
L 750 794 
z
M 750 3309 
L 1409 3309 
L 1409 2516 
L 750 2516 
L 750 3309 
z
" transform="scale(0.015625)"/>
       <path id="DejaVuSans-34" d="M 2419 4116 
L 825 1625 
L 2419 1625 
L 2419 4116 
z
M 2253 4666 
L 3047 4666 
L 3047 1625 
L 3713 1625 
L 3713 1100 
L 3047 1100 
L 3047 0 
L 2419 0 
L 2419 1100 
L 313 1100 
L 313 1709 
L 2253 4666 
z
" transform="scale(0.015625)"/>
       <path id="DejaVuSans-2b" d="M 2944 4013 
L 2944 2272 
L 4684 2272 
L 4684 1741 
L 2944 1741 
L 2944 0 
L 2419 0 
L 2419 1741 
L 678 1741 
L 678 2272 
L 2419 2272 
L 2419 4013 
L 2944 4013 
z
" transform="scale(0.015625)"/>
      </defs>
      <use xlink:href="#DejaVuSans-4e"/>
      <use xlink:href="#DejaVuSans-65" x="74.804688"/>
      <use xlink:href="#DejaVuSans-74" x="136.328125"/>
      <use xlink:href="#DejaVuSans-77" x="175.537109"/>
      <use xlink:href="#DejaVuSans-6f" x="257.324219"/>
      <use xlink:href="#DejaVuSans-72" x="318.505859"/>
      <use xlink:href="#DejaVuSans-6b" x="359.619141"/>
      <use xlink:href="#DejaVuSans-20" x="417.529297"/>
      <use xlink:href="#DejaVuSans-28" x="449.316406"/>
      <use xlink:href="#DejaVuSans-4d" x="488.330078"/>
      <use xlink:href="#DejaVuSans-53" x="574.609375"/>
      <use xlink:href="#DejaVuSans-45" x="638.085938"/>
      <use xlink:href="#DejaVuSans-3a" x="701.269531"/>
      <use xlink:href="#DejaVuSans-20" x="734.960938"/>
      <use xlink:href="#DejaVuSans-34" x="766.748047"/>
      <use xlink:href="#DejaVuSans-2e" x="830.371094"/>
      <use xlink:href="#DejaVuSans-30" x="862.158203"/>
      <use xlink:href="#DejaVuSans-33" x="925.78125"/>
      <use xlink:href="#DejaVuSans-65" x="989.404297"/>
      <use xlink:href="#DejaVuSans-2b" x="1050.927734"/>
      <use xlink:href="#DejaVuSans-30" x="1134.716797"/>
      <use xlink:href="#DejaVuSans-33" x="1198.339844"/>
      <use xlink:href="#DejaVuSans-29" x="1261.962891"/>
     </g>
    </g>
    <g id="patch_159">
     <path d="M 104.989663 57.916562 
L 124.989663 57.916562 
L 124.989663 50.916562 
L 104.989663 50.916562 
z
" style="fill: #ff7f0e; fill-opacity: 0.5; stroke: #ff7f0e; stroke-linejoin: miter"/>
    </g>
    <g id="text_20">
     <!-- Truth -->
     <g transform="translate(132.989663 57.916562) scale(0.1 -0.1)">
      <defs>
       <path id="DejaVuSans-75" d="M 544 1381 
L 544 3500 
L 1119 3500 
L 1119 1403 
Q 1119 906 1312 657 
Q 1506 409 1894 409 
Q 2359 409 2629 706 
Q 2900 1003 2900 1516 
L 2900 3500 
L 3475 3500 
L 3475 0 
L 2900 0 
L 2900 538 
Q 2691 219 2414 64 
Q 2138 -91 1772 -91 
Q 1169 -91 856 284 
Q 544 659 544 1381 
z
M 1991 3584 
L 1991 3584 
z
" transform="scale(0.015625)"/>
       <path id="DejaVuSans-68" d="M 3513 2113 
L 3513 0 
L 2938 0 
L 2938 2094 
Q 2938 2591 2744 2837 
Q 2550 3084 2163 3084 
Q 1697 3084 1428 2787 
Q 1159 2491 1159 1978 
L 1159 0 
L 581 0 
L 581 4863 
L 1159 4863 
L 1159 2956 
Q 1366 3272 1645 3428 
Q 1925 3584 2291 3584 
Q 2894 3584 3203 3211 
Q 3513 2838 3513 2113 
z
" transform="scale(0.015625)"/>
      </defs>
      <use xlink:href="#DejaVuSans-54"/>
      <use xlink:href="#DejaVuSans-72" x="46.333984"/>
      <use xlink:href="#DejaVuSans-75" x="87.447266"/>
      <use xlink:href="#DejaVuSans-74" x="150.826172"/>
      <use xlink:href="#DejaVuSans-68" x="190.035156"/>
     </g>
    </g>
    <g id="patch_160">
     <path d="M 104.989663 72.594688 
L 124.989663 72.594688 
L 124.989663 65.594688 
L 104.989663 65.594688 
z
" style="fill: #2ca02c; fill-opacity: 0.5; stroke: #2ca02c; stroke-linejoin: miter"/>
    </g>
    <g id="text_21">
     <!-- Analytic Sonnenschein (MSE: 3.76e+03) -->
     <g transform="translate(132.989663 72.594688) scale(0.1 -0.1)">
      <defs>
       <path id="DejaVuSans-41" d="M 2188 4044 
L 1331 1722 
L 3047 1722 
L 2188 4044 
z
M 1831 4666 
L 2547 4666 
L 4325 0 
L 3669 0 
L 3244 1197 
L 1141 1197 
L 716 0 
L 50 0 
L 1831 4666 
z
" transform="scale(0.015625)"/>
       <path id="DejaVuSans-61" d="M 2194 1759 
Q 1497 1759 1228 1600 
Q 959 1441 959 1056 
Q 959 750 1161 570 
Q 1363 391 1709 391 
Q 2188 391 2477 730 
Q 2766 1069 2766 1631 
L 2766 1759 
L 2194 1759 
z
M 3341 1997 
L 3341 0 
L 2766 0 
L 2766 531 
Q 2569 213 2275 61 
Q 1981 -91 1556 -91 
Q 1019 -91 701 211 
Q 384 513 384 1019 
Q 384 1609 779 1909 
Q 1175 2209 1959 2209 
L 2766 2209 
L 2766 2266 
Q 2766 2663 2505 2880 
Q 2244 3097 1772 3097 
Q 1472 3097 1187 3025 
Q 903 2953 641 2809 
L 641 3341 
Q 956 3463 1253 3523 
Q 1550 3584 1831 3584 
Q 2591 3584 2966 3190 
Q 3341 2797 3341 1997 
z
" transform="scale(0.015625)"/>
       <path id="DejaVuSans-6c" d="M 603 4863 
L 1178 4863 
L 1178 0 
L 603 0 
L 603 4863 
z
" transform="scale(0.015625)"/>
       <path id="DejaVuSans-79" d="M 2059 -325 
Q 1816 -950 1584 -1140 
Q 1353 -1331 966 -1331 
L 506 -1331 
L 506 -850 
L 844 -850 
Q 1081 -850 1212 -737 
Q 1344 -625 1503 -206 
L 1606 56 
L 191 3500 
L 800 3500 
L 1894 763 
L 2988 3500 
L 3597 3500 
L 2059 -325 
z
" transform="scale(0.015625)"/>
       <path id="DejaVuSans-63" d="M 3122 3366 
L 3122 2828 
Q 2878 2963 2633 3030 
Q 2388 3097 2138 3097 
Q 1578 3097 1268 2742 
Q 959 2388 959 1747 
Q 959 1106 1268 751 
Q 1578 397 2138 397 
Q 2388 397 2633 464 
Q 2878 531 3122 666 
L 3122 134 
Q 2881 22 2623 -34 
Q 2366 -91 2075 -91 
Q 1284 -91 818 406 
Q 353 903 353 1747 
Q 353 2603 823 3093 
Q 1294 3584 2113 3584 
Q 2378 3584 2631 3529 
Q 2884 3475 3122 3366 
z
" transform="scale(0.015625)"/>
       <path id="DejaVuSans-37" d="M 525 4666 
L 3525 4666 
L 3525 4397 
L 1831 0 
L 1172 0 
L 2766 4134 
L 525 4134 
L 525 4666 
z
" transform="scale(0.015625)"/>
       <path id="DejaVuSans-36" d="M 2113 2584 
Q 1688 2584 1439 2293 
Q 1191 2003 1191 1497 
Q 1191 994 1439 701 
Q 1688 409 2113 409 
Q 2538 409 2786 701 
Q 3034 994 3034 1497 
Q 3034 2003 2786 2293 
Q 2538 2584 2113 2584 
z
M 3366 4563 
L 3366 3988 
Q 3128 4100 2886 4159 
Q 2644 4219 2406 4219 
Q 1781 4219 1451 3797 
Q 1122 3375 1075 2522 
Q 1259 2794 1537 2939 
Q 1816 3084 2150 3084 
Q 2853 3084 3261 2657 
Q 3669 2231 3669 1497 
Q 3669 778 3244 343 
Q 2819 -91 2113 -91 
Q 1303 -91 875 529 
Q 447 1150 447 2328 
Q 447 3434 972 4092 
Q 1497 4750 2381 4750 
Q 2619 4750 2861 4703 
Q 3103 4656 3366 4563 
z
" transform="scale(0.015625)"/>
      </defs>
      <use xlink:href="#DejaVuSans-41"/>
      <use xlink:href="#DejaVuSans-6e" x="68.408203"/>
      <use xlink:href="#DejaVuSans-61" x="131.787109"/>
      <use xlink:href="#DejaVuSans-6c" x="193.066406"/>
      <use xlink:href="#DejaVuSans-79" x="220.849609"/>
      <use xlink:href="#DejaVuSans-74" x="280.029297"/>
      <use xlink:href="#DejaVuSans-69" x="319.238281"/>
      <use xlink:href="#DejaVuSans-63" x="347.021484"/>
      <use xlink:href="#DejaVuSans-20" x="402.001953"/>
      <use xlink:href="#DejaVuSans-53" x="433.789062"/>
      <use xlink:href="#DejaVuSans-6f" x="497.265625"/>
      <use xlink:href="#DejaVuSans-6e" x="558.447266"/>
      <use xlink:href="#DejaVuSans-6e" x="621.826172"/>
      <use xlink:href="#DejaVuSans-65" x="685.205078"/>
      <use xlink:href="#DejaVuSans-6e" x="746.728516"/>
      <use xlink:href="#DejaVuSans-73" x="810.107422"/>
      <use xlink:href="#DejaVuSans-63" x="862.207031"/>
      <use xlink:href="#DejaVuSans-68" x="917.1875"/>
      <use xlink:href="#DejaVuSans-65" x="980.566406"/>
      <use xlink:href="#DejaVuSans-69" x="1042.089844"/>
      <use xlink:href="#DejaVuSans-6e" x="1069.873047"/>
      <use xlink:href="#DejaVuSans-20" x="1133.251953"/>
      <use xlink:href="#DejaVuSans-28" x="1165.039062"/>
      <use xlink:href="#DejaVuSans-4d" x="1204.052734"/>
      <use xlink:href="#DejaVuSans-53" x="1290.332031"/>
      <use xlink:href="#DejaVuSans-45" x="1353.808594"/>
      <use xlink:href="#DejaVuSans-3a" x="1416.992188"/>
      <use xlink:href="#DejaVuSans-20" x="1450.683594"/>
      <use xlink:href="#DejaVuSans-33" x="1482.470703"/>
      <use xlink:href="#DejaVuSans-2e" x="1546.09375"/>
      <use xlink:href="#DejaVuSans-37" x="1577.880859"/>
      <use xlink:href="#DejaVuSans-36" x="1641.503906"/>
      <use xlink:href="#DejaVuSans-65" x="1705.126953"/>
      <use xlink:href="#DejaVuSans-2b" x="1766.650391"/>
      <use xlink:href="#DejaVuSans-30" x="1850.439453"/>
      <use xlink:href="#DejaVuSans-33" x="1914.0625"/>
      <use xlink:href="#DejaVuSans-29" x="1977.685547"/>
     </g>
    </g>
   </g>
  </g>
 </g>
 <defs>
  <clipPath id="p2dc6d2357f">
   <rect x="60.59" y="26.64" width="283.071538" height="193.048654"/>
  </clipPath>
 </defs>
</svg>
