<?xml version="1.0" encoding="utf-8" standalone="no"?>
<!DOCTYPE svg PUBLIC "-//W3C//DTD SVG 1.1//EN"
  "http://www.w3.org/Graphics/SVG/1.1/DTD/svg11.dtd">
<svg xmlns:xlink="http://www.w3.org/1999/xlink" width="354.461538pt" height="265.846154pt" viewBox="0 0 354.461538 265.846154" xmlns="http://www.w3.org/2000/svg" version="1.1">
 <metadata>
  <rdf:RDF xmlns:dc="http://purl.org/dc/elements/1.1/" xmlns:cc="http://creativecommons.org/ns#" xmlns:rdf="http://www.w3.org/1999/02/22-rdf-syntax-ns#">
   <cc:Work>
    <dc:type rdf:resource="http://purl.org/dc/dcmitype/StillImage"/>
    <dc:date>2024-08-09T17:20:07.119937</dc:date>
    <dc:format>image/svg+xml</dc:format>
    <dc:creator>
     <cc:Agent>
      <dc:title>Matplotlib v3.7.1, https://matplotlib.org/</dc:title>
     </cc:Agent>
    </dc:creator>
   </cc:Work>
  </rdf:RDF>
 </metadata>
 <defs>
  <style type="text/css">*{stroke-linejoin: round; stroke-linecap: butt}</style>
 </defs>
 <g id="figure_1">
  <g id="patch_1">
   <path d="M 0 265.846154 
L 354.461538 265.846154 
L 354.461538 0 
L 0 0 
z
" style="fill: #ffffff"/>
  </g>
  <g id="axes_1">
   <g id="patch_2">
    <path d="M 46.64 221.006154 
L 343.661538 221.006154 
L 343.661538 26.64 
L 46.64 26.64 
z
" style="fill: #ffffff"/>
   </g>
   <g id="PolyCollection_1">
    <defs>
     <path id="meb4f75ffa2" d="M 46.64 -100.65451 
L 46.64 -53.674825 
L 46.64 -53.674825 
L 52.701664 -53.674825 
L 52.701664 -55.760284 
L 58.763328 -55.760284 
L 58.763328 -58.851215 
L 64.824992 -58.851215 
L 64.824992 -60.860783 
L 70.886656 -60.860783 
L 70.886656 -63.722277 
L 76.94832 -63.722277 
L 76.94832 -66.229462 
L 83.009984 -66.229462 
L 83.009984 -69.430844 
L 89.071648 -69.430844 
L 89.071648 -71.212463 
L 95.133312 -71.212463 
L 95.133312 -74.795809 
L 101.194976 -74.795809 
L 101.194976 -77.481781 
L 107.256641 -77.481781 
L 107.256641 -79.739659 
L 113.318305 -79.739659 
L 113.318305 -82.423513 
L 119.379969 -82.423513 
L 119.379969 -86.070075 
L 125.441633 -86.070075 
L 125.441633 -88.186794 
L 131.503297 -88.186794 
L 131.503297 -91.070033 
L 137.564961 -91.070033 
L 137.564961 -93.602162 
L 143.626625 -93.602162 
L 143.626625 -96.141224 
L 149.688289 -96.141224 
L 149.688289 -99.420258 
L 155.749953 -99.420258 
L 155.749953 -101.988649 
L 161.811617 -101.988649 
L 161.811617 -104.461356 
L 167.873281 -104.461356 
L 167.873281 -107.794809 
L 173.934945 -107.794809 
L 173.934945 -109.874854 
L 179.996609 -109.874854 
L 179.996609 -112.194313 
L 186.058273 -112.194313 
L 186.058273 -115.602923 
L 192.119937 -115.602923 
L 192.119937 -119.313429 
L 198.181601 -119.313429 
L 198.181601 -121.594872 
L 204.243265 -121.594872 
L 204.243265 -123.921285 
L 210.304929 -123.921285 
L 210.304929 -126.261523 
L 216.366593 -126.261523 
L 216.366593 -130.028258 
L 222.428257 -130.028258 
L 222.428257 -132.545815 
L 228.489922 -132.545815 
L 228.489922 -135.225808 
L 234.551586 -135.225808 
L 234.551586 -137.223996 
L 240.61325 -137.223996 
L 240.61325 -140.395876 
L 246.674914 -140.395876 
L 246.674914 -142.978456 
L 252.736578 -142.978456 
L 252.736578 -146.261247 
L 258.798242 -146.261247 
L 258.798242 -148.853532 
L 264.859906 -148.853532 
L 264.859906 -151.668016 
L 270.92157 -151.668016 
L 270.92157 -153.648505 
L 276.983234 -153.648505 
L 276.983234 -156.988629 
L 283.044898 -156.988629 
L 283.044898 -160.323391 
L 289.106562 -160.323391 
L 289.106562 -161.511561 
L 295.168226 -161.511561 
L 295.168226 -164.880057 
L 301.22989 -164.880057 
L 301.22989 -167.594737 
L 307.291554 -167.594737 
L 307.291554 -170.22993 
L 313.353218 -170.22993 
L 313.353218 -172.948615 
L 319.414882 -172.948615 
L 319.414882 -175.226209 
L 325.476546 -175.226209 
L 325.476546 -178.21416 
L 331.53821 -178.21416 
L 331.53821 -179.522147 
L 337.599874 -179.522147 
L 337.599874 -183.391644 
L 343.661538 -183.391644 
L 343.661538 -230.371329 
L 343.661538 -230.371329 
L 337.599874 -230.371329 
L 337.599874 -226.501832 
L 331.53821 -226.501832 
L 331.53821 -225.193845 
L 325.476546 -225.193845 
L 325.476546 -222.205894 
L 319.414882 -222.205894 
L 319.414882 -219.9283 
L 313.353218 -219.9283 
L 313.353218 -217.209615 
L 307.291554 -217.209615 
L 307.291554 -214.574422 
L 301.22989 -214.574422 
L 301.22989 -211.859742 
L 295.168226 -211.859742 
L 295.168226 -208.491246 
L 289.106562 -208.491246 
L 289.106562 -207.303076 
L 283.044898 -207.303076 
L 283.044898 -203.968314 
L 276.983234 -203.968314 
L 276.983234 -200.62819 
L 270.92157 -200.62819 
L 270.92157 -198.647701 
L 264.859906 -198.647701 
L 264.859906 -195.833217 
L 258.798242 -195.833217 
L 258.798242 -193.240932 
L 252.736578 -193.240932 
L 252.736578 -189.958141 
L 246.674914 -189.958141 
L 246.674914 -187.375561 
L 240.61325 -187.375561 
L 240.61325 -184.203681 
L 234.551586 -184.203681 
L 234.551586 -182.205493 
L 228.489922 -182.205493 
L 228.489922 -179.5255 
L 222.428257 -179.5255 
L 222.428257 -177.007943 
L 216.366593 -177.007943 
L 216.366593 -173.241208 
L 210.304929 -173.241208 
L 210.304929 -170.90097 
L 204.243265 -170.90097 
L 204.243265 -168.574557 
L 198.181601 -168.574557 
L 198.181601 -166.293114 
L 192.119937 -166.293114 
L 192.119937 -162.582608 
L 186.058273 -162.582608 
L 186.058273 -159.173998 
L 179.996609 -159.173998 
L 179.996609 -156.854539 
L 173.934945 -156.854539 
L 173.934945 -154.774494 
L 167.873281 -154.774494 
L 167.873281 -151.441041 
L 161.811617 -151.441041 
L 161.811617 -148.968334 
L 155.749953 -148.968334 
L 155.749953 -146.399943 
L 149.688289 -146.399943 
L 149.688289 -143.120909 
L 143.626625 -143.120909 
L 143.626625 -140.581847 
L 137.564961 -140.581847 
L 137.564961 -138.049718 
L 131.503297 -138.049718 
L 131.503297 -135.166479 
L 125.441633 -135.166479 
L 125.441633 -133.04976 
L 119.379969 -133.04976 
L 119.379969 -129.403198 
L 113.318305 -129.403198 
L 113.318305 -126.719344 
L 107.256641 -126.719344 
L 107.256641 -124.461466 
L 101.194976 -124.461466 
L 101.194976 -121.775494 
L 95.133312 -121.775494 
L 95.133312 -118.192148 
L 89.071648 -118.192148 
L 89.071648 -116.410529 
L 83.009984 -116.410529 
L 83.009984 -113.209146 
L 76.94832 -113.209146 
L 76.94832 -110.701962 
L 70.886656 -110.701962 
L 70.886656 -107.840468 
L 64.824992 -107.840468 
L 64.824992 -105.8309 
L 58.763328 -105.8309 
L 58.763328 -102.739969 
L 52.701664 -102.739969 
L 52.701664 -100.65451 
L 46.64 -100.65451 
L 46.64 -100.65451 
z
" style="stroke: #1f77b4; stroke-opacity: 0.5"/>
    </defs>
    <g clip-path="url(#p9beea4df70)">
     <use xlink:href="#meb4f75ffa2" x="0" y="265.846154" style="fill: #1f77b4; fill-opacity: 0.5; stroke: #1f77b4; stroke-opacity: 0.5"/>
    </g>
   </g>
   <g id="PolyCollection_2">
    <defs>
     <path id="me523ed1bab" d="M 46.64 -104.602888 
L 46.64 -67.121557 
L 46.64 -67.121557 
L 52.701664 -67.121557 
L 52.701664 -69.120452 
L 58.763328 -69.120452 
L 58.763328 -72.310867 
L 64.824992 -72.310867 
L 64.824992 -73.504787 
L 70.886656 -73.504787 
L 70.886656 -76.239324 
L 76.94832 -76.239324 
L 76.94832 -78.305246 
L 83.009984 -78.305246 
L 83.009984 -80.890809 
L 89.071648 -80.890809 
L 89.071648 -82.510957 
L 95.133312 -82.510957 
L 95.133312 -85.961316 
L 101.194976 -85.961316 
L 101.194976 -86.651237 
L 107.256641 -86.651237 
L 107.256641 -89.985504 
L 113.318305 -89.985504 
L 113.318305 -92.680439 
L 119.379969 -92.680439 
L 119.379969 -94.864701 
L 125.441633 -94.864701 
L 125.441633 -97.431564 
L 131.503297 -97.431564 
L 131.503297 -99.344972 
L 137.564961 -99.344972 
L 137.564961 -102.079952 
L 143.626625 -102.079952 
L 143.626625 -103.751008 
L 149.688289 -103.751008 
L 149.688289 -106.615197 
L 155.749953 -106.615197 
L 155.749953 -108.649496 
L 161.811617 -108.649496 
L 161.811617 -111.260062 
L 167.873281 -111.260062 
L 167.873281 -114.013758 
L 173.934945 -114.013758 
L 173.934945 -116.401535 
L 179.996609 -116.401535 
L 179.996609 -118.193151 
L 186.058273 -118.193151 
L 186.058273 -121.001927 
L 192.119937 -121.001927 
L 192.119937 -123.501379 
L 198.181601 -123.501379 
L 198.181601 -125.574009 
L 204.243265 -125.574009 
L 204.243265 -127.987026 
L 210.304929 -127.987026 
L 210.304929 -129.771995 
L 216.366593 -129.771995 
L 216.366593 -132.490006 
L 222.428257 -132.490006 
L 222.428257 -135.240787 
L 228.489922 -135.240787 
L 228.489922 -137.206984 
L 234.551586 -137.206984 
L 234.551586 -139.536898 
L 240.61325 -139.536898 
L 240.61325 -142.888969 
L 246.674914 -142.888969 
L 246.674914 -144.76615 
L 252.736578 -144.76615 
L 252.736578 -147.016742 
L 258.798242 -147.016742 
L 258.798242 -149.819325 
L 264.859906 -149.819325 
L 264.859906 -152.292433 
L 270.92157 -152.292433 
L 270.92157 -153.780499 
L 276.983234 -153.780499 
L 276.983234 -156.964864 
L 283.044898 -156.964864 
L 283.044898 -159.466027 
L 289.106562 -159.466027 
L 289.106562 -161.181327 
L 295.168226 -161.181327 
L 295.168226 -163.853313 
L 301.22989 -163.853313 
L 301.22989 -165.1948 
L 307.291554 -165.1948 
L 307.291554 -167.67414 
L 313.353218 -167.67414 
L 313.353218 -171.340665 
L 319.414882 -171.340665 
L 319.414882 -172.571807 
L 325.476546 -172.571807 
L 325.476546 -175.294689 
L 331.53821 -175.294689 
L 331.53821 -176.859412 
L 337.599874 -176.859412 
L 337.599874 -180.115944 
L 343.661538 -180.115944 
L 343.661538 -217.597275 
L 343.661538 -217.597275 
L 337.599874 -217.597275 
L 337.599874 -214.340743 
L 331.53821 -214.340743 
L 331.53821 -212.77602 
L 325.476546 -212.77602 
L 325.476546 -210.053137 
L 319.414882 -210.053137 
L 319.414882 -208.821996 
L 313.353218 -208.821996 
L 313.353218 -205.155471 
L 307.291554 -205.155471 
L 307.291554 -202.67613 
L 301.22989 -202.67613 
L 301.22989 -201.334643 
L 295.168226 -201.334643 
L 295.168226 -198.662658 
L 289.106562 -198.662658 
L 289.106562 -196.947358 
L 283.044898 -196.947358 
L 283.044898 -194.446195 
L 276.983234 -194.446195 
L 276.983234 -191.261829 
L 270.92157 -191.261829 
L 270.92157 -189.773764 
L 264.859906 -189.773764 
L 264.859906 -187.300656 
L 258.798242 -187.300656 
L 258.798242 -184.498072 
L 252.736578 -184.498072 
L 252.736578 -182.247481 
L 246.674914 -182.247481 
L 246.674914 -180.3703 
L 240.61325 -180.3703 
L 240.61325 -177.018229 
L 234.551586 -177.018229 
L 234.551586 -174.688315 
L 228.489922 -174.688315 
L 228.489922 -172.722118 
L 222.428257 -172.722118 
L 222.428257 -169.971336 
L 216.366593 -169.971336 
L 216.366593 -167.253325 
L 210.304929 -167.253325 
L 210.304929 -165.468357 
L 204.243265 -165.468357 
L 204.243265 -163.05534 
L 198.181601 -163.05534 
L 198.181601 -160.98271 
L 192.119937 -160.98271 
L 192.119937 -158.483258 
L 186.058273 -158.483258 
L 186.058273 -155.674482 
L 179.996609 -155.674482 
L 179.996609 -153.882866 
L 173.934945 -153.882866 
L 173.934945 -151.495089 
L 167.873281 -151.495089 
L 167.873281 -148.741393 
L 161.811617 -148.741393 
L 161.811617 -146.130827 
L 155.749953 -146.130827 
L 155.749953 -144.096528 
L 149.688289 -144.096528 
L 149.688289 -141.232338 
L 143.626625 -141.232338 
L 143.626625 -139.561282 
L 137.564961 -139.561282 
L 137.564961 -136.826303 
L 131.503297 -136.826303 
L 131.503297 -134.912895 
L 125.441633 -134.912895 
L 125.441633 -132.346032 
L 119.379969 -132.346032 
L 119.379969 -130.16177 
L 113.318305 -130.16177 
L 113.318305 -127.466835 
L 107.256641 -127.466835 
L 107.256641 -124.132567 
L 101.194976 -124.132567 
L 101.194976 -123.442646 
L 95.133312 -123.442646 
L 95.133312 -119.992288 
L 89.071648 -119.992288 
L 89.071648 -118.37214 
L 83.009984 -118.37214 
L 83.009984 -115.786577 
L 76.94832 -115.786577 
L 76.94832 -113.720654 
L 70.886656 -113.720654 
L 70.886656 -110.986118 
L 64.824992 -110.986118 
L 64.824992 -109.792198 
L 58.763328 -109.792198 
L 58.763328 -106.601783 
L 52.701664 -106.601783 
L 52.701664 -104.602888 
L 46.64 -104.602888 
L 46.64 -104.602888 
z
" style="stroke: #ff7f0e; stroke-opacity: 0.5"/>
    </defs>
    <g clip-path="url(#p9beea4df70)">
     <use xlink:href="#me523ed1bab" x="0" y="265.846154" style="fill: #ff7f0e; fill-opacity: 0.5; stroke: #ff7f0e; stroke-opacity: 0.5"/>
    </g>
   </g>
   <g id="matplotlib.axis_1">
    <g id="xtick_1">
     <g id="line2d_1">
      <path d="M 95.166782 221.006154 
L 95.166782 26.64 
" clip-path="url(#p9beea4df70)" style="fill: none; stroke: #b0b0b0; stroke-width: 0.8; stroke-linecap: square"/>
     </g>
     <g id="line2d_2">
      <defs>
       <path id="m18e2a31ea7" d="M 0 0 
L 0 3.5 
" style="stroke: #000000; stroke-width: 0.8"/>
      </defs>
      <g>
       <use xlink:href="#m18e2a31ea7" x="95.166782" y="221.006154" style="stroke: #000000; stroke-width: 0.8"/>
      </g>
     </g>
     <g id="text_1">
      <!-- −1.0 -->
      <g transform="translate(83.025375 235.604591) scale(0.1 -0.1)">
       <defs>
        <path id="DejaVuSans-2212" d="M 678 2272 
L 4684 2272 
L 4684 1741 
L 678 1741 
L 678 2272 
z
" transform="scale(0.015625)"/>
        <path id="DejaVuSans-31" d="M 794 531 
L 1825 531 
L 1825 4091 
L 703 3866 
L 703 4441 
L 1819 4666 
L 2450 4666 
L 2450 531 
L 3481 531 
L 3481 0 
L 794 0 
L 794 531 
z
" transform="scale(0.015625)"/>
        <path id="DejaVuSans-2e" d="M 684 794 
L 1344 794 
L 1344 0 
L 684 0 
L 684 794 
z
" transform="scale(0.015625)"/>
        <path id="DejaVuSans-30" d="M 2034 4250 
Q 1547 4250 1301 3770 
Q 1056 3291 1056 2328 
Q 1056 1369 1301 889 
Q 1547 409 2034 409 
Q 2525 409 2770 889 
Q 3016 1369 3016 2328 
Q 3016 3291 2770 3770 
Q 2525 4250 2034 4250 
z
M 2034 4750 
Q 2819 4750 3233 4129 
Q 3647 3509 3647 2328 
Q 3647 1150 3233 529 
Q 2819 -91 2034 -91 
Q 1250 -91 836 529 
Q 422 1150 422 2328 
Q 422 3509 836 4129 
Q 1250 4750 2034 4750 
z
" transform="scale(0.015625)"/>
       </defs>
       <use xlink:href="#DejaVuSans-2212"/>
       <use xlink:href="#DejaVuSans-31" x="83.789062"/>
       <use xlink:href="#DejaVuSans-2e" x="147.412109"/>
       <use xlink:href="#DejaVuSans-30" x="179.199219"/>
      </g>
     </g>
    </g>
    <g id="xtick_2">
     <g id="line2d_3">
      <path d="M 145.302027 221.006154 
L 145.302027 26.64 
" clip-path="url(#p9beea4df70)" style="fill: none; stroke: #b0b0b0; stroke-width: 0.8; stroke-linecap: square"/>
     </g>
     <g id="line2d_4">
      <g>
       <use xlink:href="#m18e2a31ea7" x="145.302027" y="221.006154" style="stroke: #000000; stroke-width: 0.8"/>
      </g>
     </g>
     <g id="text_2">
      <!-- −0.5 -->
      <g transform="translate(133.160621 235.604591) scale(0.1 -0.1)">
       <defs>
        <path id="DejaVuSans-35" d="M 691 4666 
L 3169 4666 
L 3169 4134 
L 1269 4134 
L 1269 2991 
Q 1406 3038 1543 3061 
Q 1681 3084 1819 3084 
Q 2600 3084 3056 2656 
Q 3513 2228 3513 1497 
Q 3513 744 3044 326 
Q 2575 -91 1722 -91 
Q 1428 -91 1123 -41 
Q 819 9 494 109 
L 494 744 
Q 775 591 1075 516 
Q 1375 441 1709 441 
Q 2250 441 2565 725 
Q 2881 1009 2881 1497 
Q 2881 1984 2565 2268 
Q 2250 2553 1709 2553 
Q 1456 2553 1204 2497 
Q 953 2441 691 2322 
L 691 4666 
z
" transform="scale(0.015625)"/>
       </defs>
       <use xlink:href="#DejaVuSans-2212"/>
       <use xlink:href="#DejaVuSans-30" x="83.789062"/>
       <use xlink:href="#DejaVuSans-2e" x="147.412109"/>
       <use xlink:href="#DejaVuSans-35" x="179.199219"/>
      </g>
     </g>
    </g>
    <g id="xtick_3">
     <g id="line2d_5">
      <path d="M 195.437273 221.006154 
L 195.437273 26.64 
" clip-path="url(#p9beea4df70)" style="fill: none; stroke: #b0b0b0; stroke-width: 0.8; stroke-linecap: square"/>
     </g>
     <g id="line2d_6">
      <g>
       <use xlink:href="#m18e2a31ea7" x="195.437273" y="221.006154" style="stroke: #000000; stroke-width: 0.8"/>
      </g>
     </g>
     <g id="text_3">
      <!-- 0.0 -->
      <g transform="translate(187.48571 235.604591) scale(0.1 -0.1)">
       <use xlink:href="#DejaVuSans-30"/>
       <use xlink:href="#DejaVuSans-2e" x="63.623047"/>
       <use xlink:href="#DejaVuSans-30" x="95.410156"/>
      </g>
     </g>
    </g>
    <g id="xtick_4">
     <g id="line2d_7">
      <path d="M 245.572518 221.006154 
L 245.572518 26.64 
" clip-path="url(#p9beea4df70)" style="fill: none; stroke: #b0b0b0; stroke-width: 0.8; stroke-linecap: square"/>
     </g>
     <g id="line2d_8">
      <g>
       <use xlink:href="#m18e2a31ea7" x="245.572518" y="221.006154" style="stroke: #000000; stroke-width: 0.8"/>
      </g>
     </g>
     <g id="text_4">
      <!-- 0.5 -->
      <g transform="translate(237.620956 235.604591) scale(0.1 -0.1)">
       <use xlink:href="#DejaVuSans-30"/>
       <use xlink:href="#DejaVuSans-2e" x="63.623047"/>
       <use xlink:href="#DejaVuSans-35" x="95.410156"/>
      </g>
     </g>
    </g>
    <g id="xtick_5">
     <g id="line2d_9">
      <path d="M 295.707764 221.006154 
L 295.707764 26.64 
" clip-path="url(#p9beea4df70)" style="fill: none; stroke: #b0b0b0; stroke-width: 0.8; stroke-linecap: square"/>
     </g>
     <g id="line2d_10">
      <g>
       <use xlink:href="#m18e2a31ea7" x="295.707764" y="221.006154" style="stroke: #000000; stroke-width: 0.8"/>
      </g>
     </g>
     <g id="text_5">
      <!-- 1.0 -->
      <g transform="translate(287.756201 235.604591) scale(0.1 -0.1)">
       <use xlink:href="#DejaVuSans-31"/>
       <use xlink:href="#DejaVuSans-2e" x="63.623047"/>
       <use xlink:href="#DejaVuSans-30" x="95.410156"/>
      </g>
     </g>
    </g>
    <g id="text_6">
     <!-- True Top quark $\eta$ -->
     <g transform="translate(152.200769 249.284279) scale(0.1 -0.1)">
      <defs>
       <path id="DejaVuSans-54" d="M -19 4666 
L 3928 4666 
L 3928 4134 
L 2272 4134 
L 2272 0 
L 1638 0 
L 1638 4134 
L -19 4134 
L -19 4666 
z
" transform="scale(0.015625)"/>
       <path id="DejaVuSans-72" d="M 2631 2963 
Q 2534 3019 2420 3045 
Q 2306 3072 2169 3072 
Q 1681 3072 1420 2755 
Q 1159 2438 1159 1844 
L 1159 0 
L 581 0 
L 581 3500 
L 1159 3500 
L 1159 2956 
Q 1341 3275 1631 3429 
Q 1922 3584 2338 3584 
Q 2397 3584 2469 3576 
Q 2541 3569 2628 3553 
L 2631 2963 
z
" transform="scale(0.015625)"/>
       <path id="DejaVuSans-75" d="M 544 1381 
L 544 3500 
L 1119 3500 
L 1119 1403 
Q 1119 906 1312 657 
Q 1506 409 1894 409 
Q 2359 409 2629 706 
Q 2900 1003 2900 1516 
L 2900 3500 
L 3475 3500 
L 3475 0 
L 2900 0 
L 2900 538 
Q 2691 219 2414 64 
Q 2138 -91 1772 -91 
Q 1169 -91 856 284 
Q 544 659 544 1381 
z
M 1991 3584 
L 1991 3584 
z
" transform="scale(0.015625)"/>
       <path id="DejaVuSans-65" d="M 3597 1894 
L 3597 1613 
L 953 1613 
Q 991 1019 1311 708 
Q 1631 397 2203 397 
Q 2534 397 2845 478 
Q 3156 559 3463 722 
L 3463 178 
Q 3153 47 2828 -22 
Q 2503 -91 2169 -91 
Q 1331 -91 842 396 
Q 353 884 353 1716 
Q 353 2575 817 3079 
Q 1281 3584 2069 3584 
Q 2775 3584 3186 3129 
Q 3597 2675 3597 1894 
z
M 3022 2063 
Q 3016 2534 2758 2815 
Q 2500 3097 2075 3097 
Q 1594 3097 1305 2825 
Q 1016 2553 972 2059 
L 3022 2063 
z
" transform="scale(0.015625)"/>
       <path id="DejaVuSans-20" transform="scale(0.015625)"/>
       <path id="DejaVuSans-6f" d="M 1959 3097 
Q 1497 3097 1228 2736 
Q 959 2375 959 1747 
Q 959 1119 1226 758 
Q 1494 397 1959 397 
Q 2419 397 2687 759 
Q 2956 1122 2956 1747 
Q 2956 2369 2687 2733 
Q 2419 3097 1959 3097 
z
M 1959 3584 
Q 2709 3584 3137 3096 
Q 3566 2609 3566 1747 
Q 3566 888 3137 398 
Q 2709 -91 1959 -91 
Q 1206 -91 779 398 
Q 353 888 353 1747 
Q 353 2609 779 3096 
Q 1206 3584 1959 3584 
z
" transform="scale(0.015625)"/>
       <path id="DejaVuSans-70" d="M 1159 525 
L 1159 -1331 
L 581 -1331 
L 581 3500 
L 1159 3500 
L 1159 2969 
Q 1341 3281 1617 3432 
Q 1894 3584 2278 3584 
Q 2916 3584 3314 3078 
Q 3713 2572 3713 1747 
Q 3713 922 3314 415 
Q 2916 -91 2278 -91 
Q 1894 -91 1617 61 
Q 1341 213 1159 525 
z
M 3116 1747 
Q 3116 2381 2855 2742 
Q 2594 3103 2138 3103 
Q 1681 3103 1420 2742 
Q 1159 2381 1159 1747 
Q 1159 1113 1420 752 
Q 1681 391 2138 391 
Q 2594 391 2855 752 
Q 3116 1113 3116 1747 
z
" transform="scale(0.015625)"/>
       <path id="DejaVuSans-71" d="M 947 1747 
Q 947 1113 1208 752 
Q 1469 391 1925 391 
Q 2381 391 2643 752 
Q 2906 1113 2906 1747 
Q 2906 2381 2643 2742 
Q 2381 3103 1925 3103 
Q 1469 3103 1208 2742 
Q 947 2381 947 1747 
z
M 2906 525 
Q 2725 213 2448 61 
Q 2172 -91 1784 -91 
Q 1150 -91 751 415 
Q 353 922 353 1747 
Q 353 2572 751 3078 
Q 1150 3584 1784 3584 
Q 2172 3584 2448 3432 
Q 2725 3281 2906 2969 
L 2906 3500 
L 3481 3500 
L 3481 -1331 
L 2906 -1331 
L 2906 525 
z
" transform="scale(0.015625)"/>
       <path id="DejaVuSans-61" d="M 2194 1759 
Q 1497 1759 1228 1600 
Q 959 1441 959 1056 
Q 959 750 1161 570 
Q 1363 391 1709 391 
Q 2188 391 2477 730 
Q 2766 1069 2766 1631 
L 2766 1759 
L 2194 1759 
z
M 3341 1997 
L 3341 0 
L 2766 0 
L 2766 531 
Q 2569 213 2275 61 
Q 1981 -91 1556 -91 
Q 1019 -91 701 211 
Q 384 513 384 1019 
Q 384 1609 779 1909 
Q 1175 2209 1959 2209 
L 2766 2209 
L 2766 2266 
Q 2766 2663 2505 2880 
Q 2244 3097 1772 3097 
Q 1472 3097 1187 3025 
Q 903 2953 641 2809 
L 641 3341 
Q 956 3463 1253 3523 
Q 1550 3584 1831 3584 
Q 2591 3584 2966 3190 
Q 3341 2797 3341 1997 
z
" transform="scale(0.015625)"/>
       <path id="DejaVuSans-6b" d="M 581 4863 
L 1159 4863 
L 1159 1991 
L 2875 3500 
L 3609 3500 
L 1753 1863 
L 3688 0 
L 2938 0 
L 1159 1709 
L 1159 0 
L 581 0 
L 581 4863 
z
" transform="scale(0.015625)"/>
       <path id="DejaVuSans-Oblique-3b7" d="M 3703 2113 
L 3034 -1331 
L 2459 -1331 
L 3125 2094 
Q 3222 2591 3075 2838 
Q 2931 3084 2544 3084 
Q 2078 3084 1750 2788 
Q 1425 2491 1325 1978 
L 941 0 
L 363 0 
L 1044 3500 
L 1622 3500 
L 1516 2956 
Q 1781 3272 2094 3428 
Q 2403 3584 2769 3584 
Q 3372 3584 3609 3213 
Q 3844 2838 3703 2113 
z
" transform="scale(0.015625)"/>
      </defs>
      <use xlink:href="#DejaVuSans-54" transform="translate(0 0.015625)"/>
      <use xlink:href="#DejaVuSans-72" transform="translate(61.083984 0.015625)"/>
      <use xlink:href="#DejaVuSans-75" transform="translate(102.197266 0.015625)"/>
      <use xlink:href="#DejaVuSans-65" transform="translate(165.576172 0.015625)"/>
      <use xlink:href="#DejaVuSans-20" transform="translate(227.099609 0.015625)"/>
      <use xlink:href="#DejaVuSans-54" transform="translate(258.886719 0.015625)"/>
      <use xlink:href="#DejaVuSans-6f" transform="translate(319.970703 0.015625)"/>
      <use xlink:href="#DejaVuSans-70" transform="translate(381.152344 0.015625)"/>
      <use xlink:href="#DejaVuSans-20" transform="translate(444.628906 0.015625)"/>
      <use xlink:href="#DejaVuSans-71" transform="translate(476.416016 0.015625)"/>
      <use xlink:href="#DejaVuSans-75" transform="translate(539.892578 0.015625)"/>
      <use xlink:href="#DejaVuSans-61" transform="translate(603.271484 0.015625)"/>
      <use xlink:href="#DejaVuSans-72" transform="translate(664.550781 0.015625)"/>
      <use xlink:href="#DejaVuSans-6b" transform="translate(705.664062 0.015625)"/>
      <use xlink:href="#DejaVuSans-20" transform="translate(763.574219 0.015625)"/>
      <use xlink:href="#DejaVuSans-Oblique-3b7" transform="translate(795.361328 0.015625)"/>
     </g>
    </g>
   </g>
   <g id="matplotlib.axis_2">
    <g id="ytick_1">
     <g id="line2d_11">
      <path d="M 46.64 207.672676 
L 343.661538 207.672676 
" clip-path="url(#p9beea4df70)" style="fill: none; stroke: #b0b0b0; stroke-width: 0.8; stroke-linecap: square"/>
     </g>
     <g id="line2d_12">
      <defs>
       <path id="m8e03ded8c8" d="M 0 0 
L -3.5 0 
" style="stroke: #000000; stroke-width: 0.8"/>
      </defs>
      <g>
       <use xlink:href="#m8e03ded8c8" x="46.64" y="207.672676" style="stroke: #000000; stroke-width: 0.8"/>
      </g>
     </g>
     <g id="text_7">
      <!-- −2 -->
      <g transform="translate(24.897813 211.471895) scale(0.1 -0.1)">
       <defs>
        <path id="DejaVuSans-32" d="M 1228 531 
L 3431 531 
L 3431 0 
L 469 0 
L 469 531 
Q 828 903 1448 1529 
Q 2069 2156 2228 2338 
Q 2531 2678 2651 2914 
Q 2772 3150 2772 3378 
Q 2772 3750 2511 3984 
Q 2250 4219 1831 4219 
Q 1534 4219 1204 4116 
Q 875 4013 500 3803 
L 500 4441 
Q 881 4594 1212 4672 
Q 1544 4750 1819 4750 
Q 2544 4750 2975 4387 
Q 3406 4025 3406 3419 
Q 3406 3131 3298 2873 
Q 3191 2616 2906 2266 
Q 2828 2175 2409 1742 
Q 1991 1309 1228 531 
z
" transform="scale(0.015625)"/>
       </defs>
       <use xlink:href="#DejaVuSans-2212"/>
       <use xlink:href="#DejaVuSans-32" x="83.789062"/>
      </g>
     </g>
    </g>
    <g id="ytick_2">
     <g id="line2d_13">
      <path d="M 46.64 165.631373 
L 343.661538 165.631373 
" clip-path="url(#p9beea4df70)" style="fill: none; stroke: #b0b0b0; stroke-width: 0.8; stroke-linecap: square"/>
     </g>
     <g id="line2d_14">
      <g>
       <use xlink:href="#m8e03ded8c8" x="46.64" y="165.631373" style="stroke: #000000; stroke-width: 0.8"/>
      </g>
     </g>
     <g id="text_8">
      <!-- −1 -->
      <g transform="translate(24.897813 169.430591) scale(0.1 -0.1)">
       <use xlink:href="#DejaVuSans-2212"/>
       <use xlink:href="#DejaVuSans-31" x="83.789062"/>
      </g>
     </g>
    </g>
    <g id="ytick_3">
     <g id="line2d_15">
      <path d="M 46.64 123.590069 
L 343.661538 123.590069 
" clip-path="url(#p9beea4df70)" style="fill: none; stroke: #b0b0b0; stroke-width: 0.8; stroke-linecap: square"/>
     </g>
     <g id="line2d_16">
      <g>
       <use xlink:href="#m8e03ded8c8" x="46.64" y="123.590069" style="stroke: #000000; stroke-width: 0.8"/>
      </g>
     </g>
     <g id="text_9">
      <!-- 0 -->
      <g transform="translate(33.2775 127.389288) scale(0.1 -0.1)">
       <use xlink:href="#DejaVuSans-30"/>
      </g>
     </g>
    </g>
    <g id="ytick_4">
     <g id="line2d_17">
      <path d="M 46.64 81.548766 
L 343.661538 81.548766 
" clip-path="url(#p9beea4df70)" style="fill: none; stroke: #b0b0b0; stroke-width: 0.8; stroke-linecap: square"/>
     </g>
     <g id="line2d_18">
      <g>
       <use xlink:href="#m8e03ded8c8" x="46.64" y="81.548766" style="stroke: #000000; stroke-width: 0.8"/>
      </g>
     </g>
     <g id="text_10">
      <!-- 1 -->
      <g transform="translate(33.2775 85.347984) scale(0.1 -0.1)">
       <use xlink:href="#DejaVuSans-31"/>
      </g>
     </g>
    </g>
    <g id="ytick_5">
     <g id="line2d_19">
      <path d="M 46.64 39.507462 
L 343.661538 39.507462 
" clip-path="url(#p9beea4df70)" style="fill: none; stroke: #b0b0b0; stroke-width: 0.8; stroke-linecap: square"/>
     </g>
     <g id="line2d_20">
      <g>
       <use xlink:href="#m8e03ded8c8" x="46.64" y="39.507462" style="stroke: #000000; stroke-width: 0.8"/>
      </g>
     </g>
     <g id="text_11">
      <!-- 2 -->
      <g transform="translate(33.2775 43.306681) scale(0.1 -0.1)">
       <use xlink:href="#DejaVuSans-32"/>
      </g>
     </g>
    </g>
    <g id="text_12">
     <!-- Response -->
     <g transform="translate(18.818125 147.837139) rotate(-90) scale(0.1 -0.1)">
      <defs>
       <path id="DejaVuSans-52" d="M 2841 2188 
Q 3044 2119 3236 1894 
Q 3428 1669 3622 1275 
L 4263 0 
L 3584 0 
L 2988 1197 
Q 2756 1666 2539 1819 
Q 2322 1972 1947 1972 
L 1259 1972 
L 1259 0 
L 628 0 
L 628 4666 
L 2053 4666 
Q 2853 4666 3247 4331 
Q 3641 3997 3641 3322 
Q 3641 2881 3436 2590 
Q 3231 2300 2841 2188 
z
M 1259 4147 
L 1259 2491 
L 2053 2491 
Q 2509 2491 2742 2702 
Q 2975 2913 2975 3322 
Q 2975 3731 2742 3939 
Q 2509 4147 2053 4147 
L 1259 4147 
z
" transform="scale(0.015625)"/>
       <path id="DejaVuSans-73" d="M 2834 3397 
L 2834 2853 
Q 2591 2978 2328 3040 
Q 2066 3103 1784 3103 
Q 1356 3103 1142 2972 
Q 928 2841 928 2578 
Q 928 2378 1081 2264 
Q 1234 2150 1697 2047 
L 1894 2003 
Q 2506 1872 2764 1633 
Q 3022 1394 3022 966 
Q 3022 478 2636 193 
Q 2250 -91 1575 -91 
Q 1294 -91 989 -36 
Q 684 19 347 128 
L 347 722 
Q 666 556 975 473 
Q 1284 391 1588 391 
Q 1994 391 2212 530 
Q 2431 669 2431 922 
Q 2431 1156 2273 1281 
Q 2116 1406 1581 1522 
L 1381 1569 
Q 847 1681 609 1914 
Q 372 2147 372 2553 
Q 372 3047 722 3315 
Q 1072 3584 1716 3584 
Q 2034 3584 2315 3537 
Q 2597 3491 2834 3397 
z
" transform="scale(0.015625)"/>
       <path id="DejaVuSans-6e" d="M 3513 2113 
L 3513 0 
L 2938 0 
L 2938 2094 
Q 2938 2591 2744 2837 
Q 2550 3084 2163 3084 
Q 1697 3084 1428 2787 
Q 1159 2491 1159 1978 
L 1159 0 
L 581 0 
L 581 3500 
L 1159 3500 
L 1159 2956 
Q 1366 3272 1645 3428 
Q 1925 3584 2291 3584 
Q 2894 3584 3203 3211 
Q 3513 2838 3513 2113 
z
" transform="scale(0.015625)"/>
      </defs>
      <use xlink:href="#DejaVuSans-52"/>
      <use xlink:href="#DejaVuSans-65" x="64.982422"/>
      <use xlink:href="#DejaVuSans-73" x="126.505859"/>
      <use xlink:href="#DejaVuSans-70" x="178.605469"/>
      <use xlink:href="#DejaVuSans-6f" x="242.082031"/>
      <use xlink:href="#DejaVuSans-6e" x="303.263672"/>
      <use xlink:href="#DejaVuSans-73" x="366.642578"/>
      <use xlink:href="#DejaVuSans-65" x="418.742188"/>
     </g>
    </g>
   </g>
   <g id="line2d_21">
    <path d="M 46.64 188.502423 
L 46.64 188.502423 
L 52.701664 188.502423 
L 52.701664 186.416965 
L 58.763328 186.416965 
L 58.763328 183.326034 
L 64.824992 183.326034 
L 64.824992 181.316466 
L 70.886656 181.316466 
L 70.886656 178.454972 
L 76.94832 178.454972 
L 76.94832 175.947787 
L 83.009984 175.947787 
L 83.009984 172.746405 
L 89.071648 172.746405 
L 89.071648 170.964786 
L 95.133312 170.964786 
L 95.133312 167.381439 
L 101.194976 167.381439 
L 101.194976 164.695467 
L 107.256641 164.695467 
L 107.256641 162.437589 
L 113.318305 162.437589 
L 113.318305 159.753736 
L 119.379969 159.753736 
L 119.379969 156.107174 
L 125.441633 156.107174 
L 125.441633 153.990454 
L 131.503297 153.990454 
L 131.503297 151.107215 
L 137.564961 151.107215 
L 137.564961 148.575087 
L 143.626625 148.575087 
L 143.626625 146.036024 
L 149.688289 146.036024 
L 149.688289 142.756991 
L 155.749953 142.756991 
L 155.749953 140.1886 
L 161.811617 140.1886 
L 161.811617 137.715892 
L 167.873281 137.715892 
L 167.873281 134.382439 
L 173.934945 134.382439 
L 173.934945 132.302395 
L 179.996609 132.302395 
L 179.996609 129.982936 
L 186.058273 129.982936 
L 186.058273 126.574325 
L 192.119937 126.574325 
L 192.119937 122.863819 
L 198.181601 122.863819 
L 198.181601 120.582377 
L 204.243265 120.582377 
L 204.243265 118.255964 
L 210.304929 118.255964 
L 210.304929 115.915725 
L 216.366593 115.915725 
L 216.366593 112.14899 
L 222.428257 112.14899 
L 222.428257 109.631433 
L 228.489922 109.631433 
L 228.489922 106.951441 
L 234.551586 106.951441 
L 234.551586 104.953253 
L 240.61325 104.953253 
L 240.61325 101.781373 
L 246.674914 101.781373 
L 246.674914 99.198792 
L 252.736578 99.198792 
L 252.736578 95.916002 
L 258.798242 95.916002 
L 258.798242 93.323717 
L 264.859906 93.323717 
L 264.859906 90.509233 
L 270.92157 90.509233 
L 270.92157 88.528744 
L 276.983234 88.528744 
L 276.983234 85.188619 
L 283.044898 85.188619 
L 283.044898 81.853858 
L 289.106562 81.853858 
L 289.106562 80.665687 
L 295.168226 80.665687 
L 295.168226 77.297192 
L 301.22989 77.297192 
L 301.22989 74.582512 
L 307.291554 74.582512 
L 307.291554 71.947319 
L 313.353218 71.947319 
L 313.353218 69.228634 
L 319.414882 69.228634 
L 319.414882 66.951039 
L 325.476546 66.951039 
L 325.476546 63.963088 
L 331.53821 63.963088 
L 331.53821 62.655102 
L 337.599874 62.655102 
L 337.599874 58.785605 
L 343.661538 58.785605 
" clip-path="url(#p9beea4df70)" style="fill: none; stroke: #1f77b4; stroke-width: 1.5; stroke-linecap: square"/>
   </g>
   <g id="line2d_22">
    <path d="M 46.64 179.933256 
L 46.64 179.933256 
L 52.701664 179.933256 
L 52.701664 177.934362 
L 58.763328 177.934362 
L 58.763328 174.743946 
L 64.824992 174.743946 
L 64.824992 173.550026 
L 70.886656 173.550026 
L 70.886656 170.81549 
L 76.94832 170.81549 
L 76.94832 168.749568 
L 83.009984 168.749568 
L 83.009984 166.164005 
L 89.071648 166.164005 
L 89.071648 164.543856 
L 95.133312 164.543856 
L 95.133312 161.093498 
L 101.194976 161.093498 
L 101.194976 160.403577 
L 107.256641 160.403577 
L 107.256641 157.06931 
L 113.318305 157.06931 
L 113.318305 154.374375 
L 119.379969 154.374375 
L 119.379969 152.190112 
L 125.441633 152.190112 
L 125.441633 149.62325 
L 131.503297 149.62325 
L 131.503297 147.709842 
L 137.564961 147.709842 
L 137.564961 144.974862 
L 143.626625 144.974862 
L 143.626625 143.303806 
L 149.688289 143.303806 
L 149.688289 140.439616 
L 155.749953 140.439616 
L 155.749953 138.405318 
L 161.811617 138.405318 
L 161.811617 135.794752 
L 167.873281 135.794752 
L 167.873281 133.041056 
L 173.934945 133.041056 
L 173.934945 130.653279 
L 179.996609 130.653279 
L 179.996609 128.861663 
L 186.058273 128.861663 
L 186.058273 126.052886 
L 192.119937 126.052886 
L 192.119937 123.553435 
L 198.181601 123.553435 
L 198.181601 121.480805 
L 204.243265 121.480805 
L 204.243265 119.067787 
L 210.304929 119.067787 
L 210.304929 117.282819 
L 216.366593 117.282819 
L 216.366593 114.564808 
L 222.428257 114.564808 
L 222.428257 111.814026 
L 228.489922 111.814026 
L 228.489922 109.847829 
L 234.551586 109.847829 
L 234.551586 107.517916 
L 240.61325 107.517916 
L 240.61325 104.165844 
L 246.674914 104.165844 
L 246.674914 102.288664 
L 252.736578 102.288664 
L 252.736578 100.038072 
L 258.798242 100.038072 
L 258.798242 97.235488 
L 264.859906 97.235488 
L 264.859906 94.76238 
L 270.92157 94.76238 
L 270.92157 93.274315 
L 276.983234 93.274315 
L 276.983234 90.08995 
L 283.044898 90.08995 
L 283.044898 87.588786 
L 289.106562 87.588786 
L 289.106562 85.873486 
L 295.168226 85.873486 
L 295.168226 83.201501 
L 301.22989 83.201501 
L 301.22989 81.860014 
L 307.291554 81.860014 
L 307.291554 79.380674 
L 313.353218 79.380674 
L 313.353218 75.714148 
L 319.414882 75.714148 
L 319.414882 74.483007 
L 325.476546 74.483007 
L 325.476546 71.760124 
L 331.53821 71.760124 
L 331.53821 70.195402 
L 337.599874 70.195402 
L 337.599874 66.938869 
L 343.661538 66.938869 
" clip-path="url(#p9beea4df70)" style="fill: none; stroke: #ff7f0e; stroke-width: 1.5; stroke-linecap: square"/>
   </g>
   <g id="patch_3">
    <path d="M 46.64 221.006154 
L 46.64 26.64 
" style="fill: none; stroke: #000000; stroke-width: 0.8; stroke-linejoin: miter; stroke-linecap: square"/>
   </g>
   <g id="patch_4">
    <path d="M 343.661538 221.006154 
L 343.661538 26.64 
" style="fill: none; stroke: #000000; stroke-width: 0.8; stroke-linejoin: miter; stroke-linecap: square"/>
   </g>
   <g id="patch_5">
    <path d="M 46.64 221.006154 
L 343.661538 221.006154 
" style="fill: none; stroke: #000000; stroke-width: 0.8; stroke-linejoin: miter; stroke-linecap: square"/>
   </g>
   <g id="patch_6">
    <path d="M 46.64 26.64 
L 343.661538 26.64 
" style="fill: none; stroke: #000000; stroke-width: 0.8; stroke-linejoin: miter; stroke-linecap: square"/>
   </g>
   <g id="text_13">
    <!-- CMS -->
    <g transform="translate(46.64 22.956328) scale(0.169 -0.169)">
     <defs>
      <path id="TeXGyreHeros-Bold-43" d="M 4384 1594 
L 3450 1594 
C 3392 998 3014 730 2419 730 
C 1677 730 1242 1299 1242 2317 
C 1242 3347 1696 3923 2451 3923 
C 2970 3923 3309 3686 3450 3085 
L 4365 3085 
C 4282 4160 3469 4742 2419 4742 
C 1101 4742 282 3840 282 2330 
C 282 832 1094 -77 2394 -77 
C 3552 -77 4326 525 4384 1594 
z
" transform="scale(0.015625)"/>
      <path id="TeXGyreHeros-Bold-4d" d="M 4966 0 
L 4966 4666 
L 3520 4666 
L 2701 954 
L 1856 4666 
L 422 4666 
L 422 0 
L 1382 0 
L 1382 3635 
L 2221 0 
L 3181 0 
L 4006 3635 
L 4006 0 
L 4966 0 
z
" transform="scale(0.015625)"/>
      <path id="TeXGyreHeros-Bold-53" d="M 4051 1402 
C 4051 2138 3680 2483 2816 2650 
L 2086 2790 
C 1402 2925 1203 3059 1203 3398 
C 1203 3750 1517 3974 2010 3974 
C 2618 3974 2989 3718 2989 3245 
L 3885 3245 
C 3885 4230 3194 4742 2054 4742 
C 934 4742 288 4218 288 3309 
C 288 2579 653 2240 1600 2054 
L 2253 1926 
C 2893 1798 3130 1664 3130 1286 
C 3130 896 2771 691 2189 691 
C 1536 691 1139 966 1139 1466 
L 205 1466 
C 205 467 947 -77 2138 -77 
C 3341 -77 4051 454 4051 1402 
z
" transform="scale(0.015625)"/>
     </defs>
     <use xlink:href="#TeXGyreHeros-Bold-43"/>
     <use xlink:href="#TeXGyreHeros-Bold-4d" x="72.199982"/>
     <use xlink:href="#TeXGyreHeros-Bold-53" x="155.499969"/>
    </g>
   </g>
   <g id="text_14">
    <!-- Private work (CMS simulation) -->
    <g transform="translate(85.952 22.899575) scale(0.13 -0.13)">
     <defs>
      <path id="TeXGyreHeros-Italic-50" d="M 4371 3635 
C 4371 4314 3968 4666 3187 4666 
L 1254 4666 
L 262 0 
L 864 0 
L 1286 1978 
L 2746 1978 
C 3712 1978 4371 2771 4371 3635 
z
M 3757 3520 
C 3757 2957 3302 2502 2637 2502 
L 1395 2502 
L 1747 4141 
L 2989 4141 
C 3488 4141 3757 3923 3757 3520 
z
" transform="scale(0.015625)"/>
      <path id="TeXGyreHeros-Italic-72" d="M 2355 2886 
L 2470 3430 
C 2387 3443 2336 3450 2266 3450 
C 1894 3450 1606 3283 1210 2829 
L 1318 3354 
L 832 3354 
L 122 0 
L 659 0 
L 1030 1741 
C 1190 2496 1626 2886 2291 2886 
L 2355 2886 
z
" transform="scale(0.015625)"/>
      <path id="TeXGyreHeros-Italic-69" d="M 659 0 
L 1370 3354 
L 832 3354 
L 122 0 
L 659 0 
z
M 1677 4525 
L 1011 4525 
L 870 3866 
L 1536 3866 
L 1677 4525 
z
" transform="scale(0.015625)"/>
      <path id="TeXGyreHeros-Italic-76" d="M 3507 3354 
L 2925 3354 
L 1363 653 
L 1050 3354 
L 461 3354 
L 934 0 
L 1517 0 
L 3507 3354 
z
" transform="scale(0.015625)"/>
      <path id="TeXGyreHeros-Italic-61" d="M 3149 0 
L 3232 416 
C 3174 403 3149 403 3123 403 
C 2957 403 2880 461 2880 589 
C 2880 614 2880 634 2886 653 
L 3277 2490 
C 3315 2662 3315 2662 3315 2726 
C 3315 3162 2874 3450 2202 3450 
C 1312 3450 768 3072 646 2362 
L 1184 2362 
C 1312 2771 1587 2957 2061 2957 
C 2445 2957 2739 2784 2739 2547 
C 2739 2522 2733 2477 2726 2426 
L 2707 2310 
C 2662 2048 2515 1971 2061 1933 
C 1203 1850 934 1792 621 1594 
C 288 1382 102 1069 102 698 
C 102 186 454 -96 1030 -96 
C 1446 -96 1818 -38 2310 371 
L 2304 275 
C 2304 13 2502 -58 2810 -58 
C 2899 -58 2893 -45 3149 0 
z
M 2566 1651 
L 2451 1101 
C 2368 704 1805 365 1242 365 
C 877 365 666 493 666 762 
C 666 1165 954 1370 1632 1466 
C 2234 1549 2285 1555 2566 1651 
z
" transform="scale(0.015625)"/>
      <path id="TeXGyreHeros-Italic-74" d="M 1408 467 
C 1210 422 1178 416 1101 416 
C 960 416 870 486 870 589 
C 870 608 877 640 883 678 
L 1363 2925 
L 1933 2925 
L 2022 3354 
L 1453 3354 
L 1651 4275 
L 1114 4275 
L 915 3354 
L 461 3354 
L 371 2925 
L 826 2925 
L 339 659 
C 326 595 320 525 320 461 
C 320 147 538 -45 890 -45 
C 1018 -45 1216 -26 1306 0 
L 1408 467 
z
" transform="scale(0.015625)"/>
      <path id="TeXGyreHeros-Italic-65" d="M 3290 1523 
L 3302 1606 
C 3360 1914 3392 2182 3392 2355 
C 3392 2970 2861 3450 2170 3450 
C 1613 3450 1075 3187 755 2758 
C 454 2355 224 1651 224 1133 
C 224 467 717 -96 1498 -96 
C 2266 -96 2912 326 3110 1018 
L 2573 1018 
C 2355 627 2016 397 1587 397 
C 1082 397 787 685 787 1229 
C 781 1338 787 1402 819 1523 
L 3290 1523 
z
M 2816 1984 
L 934 1984 
C 1094 2547 1568 2957 2086 2957 
C 2541 2957 2829 2650 2829 2170 
C 2829 2106 2822 2061 2816 1984 
z
" transform="scale(0.015625)"/>
      <path id="TeXGyreHeros-Italic-20" transform="scale(0.015625)"/>
      <path id="TeXGyreHeros-Italic-77" d="M 4928 3354 
L 4346 3354 
L 3091 742 
L 3091 3354 
L 2349 3354 
L 1139 742 
L 1139 3354 
L 435 3354 
L 691 0 
L 1306 0 
L 2554 2675 
L 2554 0 
L 3238 0 
L 4928 3354 
z
" transform="scale(0.015625)"/>
      <path id="TeXGyreHeros-Italic-6f" d="M 3366 2253 
C 3366 2931 2906 3450 2138 3450 
C 934 3450 198 2342 198 1075 
C 198 365 698 -96 1414 -96 
C 2579 -96 3366 922 3366 2253 
z
M 2803 2131 
C 2803 1178 2266 397 1504 397 
C 1050 397 762 691 762 1203 
C 762 2131 1299 2957 2054 2957 
C 2528 2957 2803 2650 2803 2131 
z
" transform="scale(0.015625)"/>
      <path id="TeXGyreHeros-Italic-6b" d="M 2893 0 
L 1997 2195 
L 3418 3354 
L 2726 3354 
L 1005 1958 
L 1581 4666 
L 1043 4666 
L 51 0 
L 589 0 
L 864 1299 
L 1549 1862 
L 2278 0 
L 2893 0 
z
" transform="scale(0.015625)"/>
      <path id="TeXGyreHeros-Italic-28" d="M 1254 -1363 
C 1018 -749 902 -147 902 506 
C 902 1926 1459 3347 2534 4666 
L 2182 4666 
C 1069 3501 403 2042 403 742 
C 403 -19 589 -813 902 -1363 
L 1254 -1363 
z
" transform="scale(0.015625)"/>
      <path id="TeXGyreHeros-Italic-43" d="M 4384 1702 
L 3757 1702 
C 3354 787 2950 403 2125 403 
C 1459 403 1018 922 1018 1696 
C 1018 2278 1210 2925 1536 3411 
C 1926 3987 2394 4262 2982 4262 
C 3629 4262 3942 3910 3994 3219 
L 4608 3219 
C 4557 4262 3974 4781 3091 4781 
C 2342 4781 1722 4480 1222 3878 
C 717 3270 403 2381 403 1581 
C 403 563 1011 -115 2035 -115 
C 3162 -115 3840 410 4384 1702 
z
" transform="scale(0.015625)"/>
      <path id="TeXGyreHeros-Italic-4d" d="M 5542 4666 
L 4704 4666 
L 2490 653 
L 1978 4666 
L 1152 4666 
L 160 0 
L 730 0 
L 1555 3872 
L 2048 0 
L 2669 0 
L 4806 3872 
L 3981 0 
L 4550 0 
L 5542 4666 
z
" transform="scale(0.015625)"/>
      <path id="TeXGyreHeros-Italic-53" d="M 3968 1549 
C 3968 1978 3667 2349 3187 2490 
L 2086 2803 
C 1594 2944 1440 3072 1440 3354 
C 1440 3866 1952 4262 2694 4262 
C 3398 4262 3667 3994 3667 3565 
C 3667 3507 3661 3462 3642 3334 
L 4205 3334 
C 4243 3514 4256 3597 4256 3693 
C 4256 4339 3712 4781 2810 4781 
C 2150 4781 1632 4595 1286 4237 
C 1024 3968 826 3514 826 3187 
C 826 2784 1107 2445 1536 2323 
L 2630 2010 
C 3142 1862 3354 1670 3354 1370 
C 3354 838 2771 403 1901 403 
C 1178 403 845 672 845 1254 
C 845 1338 851 1395 870 1517 
L 314 1517 
C 269 1350 256 1248 256 1114 
C 256 346 832 -115 1798 -115 
C 2470 -115 3034 70 3411 422 
C 3738 723 3968 1190 3968 1549 
z
" transform="scale(0.015625)"/>
      <path id="TeXGyreHeros-Italic-73" d="M 2848 1158 
C 2848 1549 2637 1754 2074 1894 
L 1587 2016 
C 1229 2106 1043 2234 1043 2400 
C 1043 2726 1363 2957 1850 2957 
C 2227 2957 2438 2810 2438 2560 
C 2438 2515 2438 2470 2432 2419 
L 2970 2419 
C 3002 2554 3008 2611 3008 2694 
C 3008 3142 2579 3450 1958 3450 
C 1069 3450 480 2938 480 2259 
C 480 1869 704 1677 1363 1510 
L 1837 1389 
C 2240 1286 2285 1146 2285 1011 
C 2285 646 1862 397 1370 397 
C 928 397 678 570 678 890 
C 678 928 685 986 691 1050 
L 122 1050 
C 90 902 83 826 83 723 
C 83 211 531 -96 1274 -96 
C 2227 -96 2848 397 2848 1158 
z
" transform="scale(0.015625)"/>
      <path id="TeXGyreHeros-Italic-6d" d="M 4589 0 
L 5094 2387 
C 5114 2458 5133 2669 5133 2739 
C 5133 3072 4883 3450 4320 3450 
C 3904 3450 3539 3283 3162 2918 
C 3059 3277 2810 3450 2387 3450 
C 1952 3450 1658 3322 1248 2938 
L 1331 3354 
L 845 3354 
L 134 0 
L 672 0 
L 1120 2106 
C 1222 2592 1658 2989 2086 2989 
C 2400 2989 2611 2810 2611 2547 
C 2611 2477 2605 2394 2586 2310 
L 2093 0 
L 2630 0 
L 3078 2106 
C 3181 2605 3616 2989 4083 2989 
C 4384 2989 4570 2803 4570 2496 
C 4570 2400 4570 2400 4512 2182 
L 4051 0 
L 4589 0 
z
" transform="scale(0.015625)"/>
      <path id="TeXGyreHeros-Italic-75" d="M 2771 0 
L 3482 3354 
L 2944 3354 
L 2554 1504 
C 2406 813 1952 365 1408 365 
C 1062 365 838 557 838 858 
C 838 909 845 966 858 1030 
L 1350 3354 
L 813 3354 
L 275 819 
C 262 755 256 685 256 602 
C 256 166 589 -96 1139 -96 
C 1638 -96 2003 58 2368 390 
L 2285 0 
L 2771 0 
z
" transform="scale(0.015625)"/>
      <path id="TeXGyreHeros-Italic-6c" d="M 1645 4666 
L 1107 4666 
L 115 0 
L 653 0 
L 1645 4666 
z
" transform="scale(0.015625)"/>
      <path id="TeXGyreHeros-Italic-6e" d="M 3328 2406 
C 3347 2490 3354 2566 3354 2650 
C 3354 3136 3014 3450 2483 3450 
C 1997 3450 1574 3277 1242 2938 
L 1325 3354 
L 838 3354 
L 128 0 
L 666 0 
L 1056 1850 
C 1203 2554 1658 2989 2234 2989 
C 2554 2989 2790 2765 2790 2470 
C 2790 2432 2771 2336 2752 2234 
L 2278 0 
L 2816 0 
L 3328 2406 
z
" transform="scale(0.015625)"/>
      <path id="TeXGyreHeros-Italic-29" d="M 1760 2605 
C 1760 3328 1568 4134 1267 4666 
L 915 4666 
C 1158 4045 1267 3443 1267 2758 
C 1267 1376 698 -64 -365 -1363 
L -13 -1363 
C 1094 -205 1760 1274 1760 2605 
z
" transform="scale(0.015625)"/>
     </defs>
     <use xlink:href="#TeXGyreHeros-Italic-50"/>
     <use xlink:href="#TeXGyreHeros-Italic-72" x="66.699997"/>
     <use xlink:href="#TeXGyreHeros-Italic-69" x="99.999985"/>
     <use xlink:href="#TeXGyreHeros-Italic-76" x="122.199982"/>
     <use xlink:href="#TeXGyreHeros-Italic-61" x="172.199966"/>
     <use xlink:href="#TeXGyreHeros-Italic-74" x="227.799957"/>
     <use xlink:href="#TeXGyreHeros-Italic-65" x="255.599945"/>
     <use xlink:href="#TeXGyreHeros-Italic-20" x="311.199936"/>
     <use xlink:href="#TeXGyreHeros-Italic-77" x="338.999924"/>
     <use xlink:href="#TeXGyreHeros-Italic-6f" x="411.199905"/>
     <use xlink:href="#TeXGyreHeros-Italic-72" x="466.799896"/>
     <use xlink:href="#TeXGyreHeros-Italic-6b" x="500.099884"/>
     <use xlink:href="#TeXGyreHeros-Italic-20" x="550.099869"/>
     <use xlink:href="#TeXGyreHeros-Italic-28" x="577.899857"/>
     <use xlink:href="#TeXGyreHeros-Italic-43" x="611.199844"/>
     <use xlink:href="#TeXGyreHeros-Italic-4d" x="683.399826"/>
     <use xlink:href="#TeXGyreHeros-Italic-53" x="766.699814"/>
     <use xlink:href="#TeXGyreHeros-Italic-20" x="833.399811"/>
     <use xlink:href="#TeXGyreHeros-Italic-73" x="861.199799"/>
     <use xlink:href="#TeXGyreHeros-Italic-69" x="911.199783"/>
     <use xlink:href="#TeXGyreHeros-Italic-6d" x="933.39978"/>
     <use xlink:href="#TeXGyreHeros-Italic-75" x="1016.699768"/>
     <use xlink:href="#TeXGyreHeros-Italic-6c" x="1072.299759"/>
     <use xlink:href="#TeXGyreHeros-Italic-61" x="1094.499756"/>
     <use xlink:href="#TeXGyreHeros-Italic-74" x="1150.099747"/>
     <use xlink:href="#TeXGyreHeros-Italic-69" x="1177.899734"/>
     <use xlink:href="#TeXGyreHeros-Italic-6f" x="1200.099731"/>
     <use xlink:href="#TeXGyreHeros-Italic-6e" x="1255.699722"/>
     <use xlink:href="#TeXGyreHeros-Italic-29" x="1311.299713"/>
    </g>
   </g>
   <g id="legend_1">
    <g id="patch_7">
     <path d="M 53.64 63.99625 
L 198.965 63.99625 
Q 200.965 63.99625 200.965 61.99625 
L 200.965 33.64 
Q 200.965 31.64 198.965 31.64 
L 53.64 31.64 
Q 51.64 31.64 51.64 33.64 
L 51.64 61.99625 
Q 51.64 63.99625 53.64 63.99625 
z
" style="fill: #ffffff; opacity: 0.8; stroke: #cccccc; stroke-linejoin: miter"/>
    </g>
    <g id="line2d_23">
     <path d="M 55.64 39.738437 
L 55.64 39.738437 
L 65.64 39.738437 
L 65.64 39.738437 
L 75.64 39.738437 
" style="fill: none; stroke: #1f77b4; stroke-width: 1.5; stroke-linecap: square"/>
    </g>
    <g id="text_15">
     <!-- Network -->
     <g transform="translate(83.64 43.238437) scale(0.1 -0.1)">
      <defs>
       <path id="DejaVuSans-4e" d="M 628 4666 
L 1478 4666 
L 3547 763 
L 3547 4666 
L 4159 4666 
L 4159 0 
L 3309 0 
L 1241 3903 
L 1241 0 
L 628 0 
L 628 4666 
z
" transform="scale(0.015625)"/>
       <path id="DejaVuSans-74" d="M 1172 4494 
L 1172 3500 
L 2356 3500 
L 2356 3053 
L 1172 3053 
L 1172 1153 
Q 1172 725 1289 603 
Q 1406 481 1766 481 
L 2356 481 
L 2356 0 
L 1766 0 
Q 1100 0 847 248 
Q 594 497 594 1153 
L 594 3053 
L 172 3053 
L 172 3500 
L 594 3500 
L 594 4494 
L 1172 4494 
z
" transform="scale(0.015625)"/>
       <path id="DejaVuSans-77" d="M 269 3500 
L 844 3500 
L 1563 769 
L 2278 3500 
L 2956 3500 
L 3675 769 
L 4391 3500 
L 4966 3500 
L 4050 0 
L 3372 0 
L 2619 2869 
L 1863 0 
L 1184 0 
L 269 3500 
z
" transform="scale(0.015625)"/>
      </defs>
      <use xlink:href="#DejaVuSans-4e"/>
      <use xlink:href="#DejaVuSans-65" x="74.804688"/>
      <use xlink:href="#DejaVuSans-74" x="136.328125"/>
      <use xlink:href="#DejaVuSans-77" x="175.537109"/>
      <use xlink:href="#DejaVuSans-6f" x="257.324219"/>
      <use xlink:href="#DejaVuSans-72" x="318.505859"/>
      <use xlink:href="#DejaVuSans-6b" x="359.619141"/>
     </g>
    </g>
    <g id="line2d_24">
     <path d="M 55.64 54.416562 
L 55.64 54.416562 
L 65.64 54.416562 
L 65.64 54.416562 
L 75.64 54.416562 
" style="fill: none; stroke: #ff7f0e; stroke-width: 1.5; stroke-linecap: square"/>
    </g>
    <g id="text_16">
     <!-- Analytic Sonnenschein -->
     <g transform="translate(83.64 57.916562) scale(0.1 -0.1)">
      <defs>
       <path id="DejaVuSans-41" d="M 2188 4044 
L 1331 1722 
L 3047 1722 
L 2188 4044 
z
M 1831 4666 
L 2547 4666 
L 4325 0 
L 3669 0 
L 3244 1197 
L 1141 1197 
L 716 0 
L 50 0 
L 1831 4666 
z
" transform="scale(0.015625)"/>
       <path id="DejaVuSans-6c" d="M 603 4863 
L 1178 4863 
L 1178 0 
L 603 0 
L 603 4863 
z
" transform="scale(0.015625)"/>
       <path id="DejaVuSans-79" d="M 2059 -325 
Q 1816 -950 1584 -1140 
Q 1353 -1331 966 -1331 
L 506 -1331 
L 506 -850 
L 844 -850 
Q 1081 -850 1212 -737 
Q 1344 -625 1503 -206 
L 1606 56 
L 191 3500 
L 800 3500 
L 1894 763 
L 2988 3500 
L 3597 3500 
L 2059 -325 
z
" transform="scale(0.015625)"/>
       <path id="DejaVuSans-69" d="M 603 3500 
L 1178 3500 
L 1178 0 
L 603 0 
L 603 3500 
z
M 603 4863 
L 1178 4863 
L 1178 4134 
L 603 4134 
L 603 4863 
z
" transform="scale(0.015625)"/>
       <path id="DejaVuSans-63" d="M 3122 3366 
L 3122 2828 
Q 2878 2963 2633 3030 
Q 2388 3097 2138 3097 
Q 1578 3097 1268 2742 
Q 959 2388 959 1747 
Q 959 1106 1268 751 
Q 1578 397 2138 397 
Q 2388 397 2633 464 
Q 2878 531 3122 666 
L 3122 134 
Q 2881 22 2623 -34 
Q 2366 -91 2075 -91 
Q 1284 -91 818 406 
Q 353 903 353 1747 
Q 353 2603 823 3093 
Q 1294 3584 2113 3584 
Q 2378 3584 2631 3529 
Q 2884 3475 3122 3366 
z
" transform="scale(0.015625)"/>
       <path id="DejaVuSans-53" d="M 3425 4513 
L 3425 3897 
Q 3066 4069 2747 4153 
Q 2428 4238 2131 4238 
Q 1616 4238 1336 4038 
Q 1056 3838 1056 3469 
Q 1056 3159 1242 3001 
Q 1428 2844 1947 2747 
L 2328 2669 
Q 3034 2534 3370 2195 
Q 3706 1856 3706 1288 
Q 3706 609 3251 259 
Q 2797 -91 1919 -91 
Q 1588 -91 1214 -16 
Q 841 59 441 206 
L 441 856 
Q 825 641 1194 531 
Q 1563 422 1919 422 
Q 2459 422 2753 634 
Q 3047 847 3047 1241 
Q 3047 1584 2836 1778 
Q 2625 1972 2144 2069 
L 1759 2144 
Q 1053 2284 737 2584 
Q 422 2884 422 3419 
Q 422 4038 858 4394 
Q 1294 4750 2059 4750 
Q 2388 4750 2728 4690 
Q 3069 4631 3425 4513 
z
" transform="scale(0.015625)"/>
       <path id="DejaVuSans-68" d="M 3513 2113 
L 3513 0 
L 2938 0 
L 2938 2094 
Q 2938 2591 2744 2837 
Q 2550 3084 2163 3084 
Q 1697 3084 1428 2787 
Q 1159 2491 1159 1978 
L 1159 0 
L 581 0 
L 581 4863 
L 1159 4863 
L 1159 2956 
Q 1366 3272 1645 3428 
Q 1925 3584 2291 3584 
Q 2894 3584 3203 3211 
Q 3513 2838 3513 2113 
z
" transform="scale(0.015625)"/>
      </defs>
      <use xlink:href="#DejaVuSans-41"/>
      <use xlink:href="#DejaVuSans-6e" x="68.408203"/>
      <use xlink:href="#DejaVuSans-61" x="131.787109"/>
      <use xlink:href="#DejaVuSans-6c" x="193.066406"/>
      <use xlink:href="#DejaVuSans-79" x="220.849609"/>
      <use xlink:href="#DejaVuSans-74" x="280.029297"/>
      <use xlink:href="#DejaVuSans-69" x="319.238281"/>
      <use xlink:href="#DejaVuSans-63" x="347.021484"/>
      <use xlink:href="#DejaVuSans-20" x="402.001953"/>
      <use xlink:href="#DejaVuSans-53" x="433.789062"/>
      <use xlink:href="#DejaVuSans-6f" x="497.265625"/>
      <use xlink:href="#DejaVuSans-6e" x="558.447266"/>
      <use xlink:href="#DejaVuSans-6e" x="621.826172"/>
      <use xlink:href="#DejaVuSans-65" x="685.205078"/>
      <use xlink:href="#DejaVuSans-6e" x="746.728516"/>
      <use xlink:href="#DejaVuSans-73" x="810.107422"/>
      <use xlink:href="#DejaVuSans-63" x="862.207031"/>
      <use xlink:href="#DejaVuSans-68" x="917.1875"/>
      <use xlink:href="#DejaVuSans-65" x="980.566406"/>
      <use xlink:href="#DejaVuSans-69" x="1042.089844"/>
      <use xlink:href="#DejaVuSans-6e" x="1069.873047"/>
     </g>
    </g>
   </g>
  </g>
 </g>
 <defs>
  <clipPath id="p9beea4df70">
   <rect x="46.64" y="26.64" width="297.021538" height="194.366154"/>
  </clipPath>
 </defs>
</svg>
