<?xml version="1.0" encoding="utf-8" standalone="no"?>
<!DOCTYPE svg PUBLIC "-//W3C//DTD SVG 1.1//EN"
  "http://www.w3.org/Graphics/SVG/1.1/DTD/svg11.dtd">
<svg xmlns:xlink="http://www.w3.org/1999/xlink" width="354.461538pt" height="265.846154pt" viewBox="0 0 354.461538 265.846154" xmlns="http://www.w3.org/2000/svg" version="1.1">
 <metadata>
  <rdf:RDF xmlns:dc="http://purl.org/dc/elements/1.1/" xmlns:cc="http://creativecommons.org/ns#" xmlns:rdf="http://www.w3.org/1999/02/22-rdf-syntax-ns#">
   <cc:Work>
    <dc:type rdf:resource="http://purl.org/dc/dcmitype/StillImage"/>
    <dc:date>2024-08-09T17:20:14.752517</dc:date>
    <dc:format>image/svg+xml</dc:format>
    <dc:creator>
     <cc:Agent>
      <dc:title>Matplotlib v3.7.1, https://matplotlib.org/</dc:title>
     </cc:Agent>
    </dc:creator>
   </cc:Work>
  </rdf:RDF>
 </metadata>
 <defs>
  <style type="text/css">*{stroke-linejoin: round; stroke-linecap: butt}</style>
 </defs>
 <g id="figure_1">
  <g id="patch_1">
   <path d="M 0 265.846154 
L 354.461538 265.846154 
L 354.461538 0 
L 0 0 
z
" style="fill: #ffffff"/>
  </g>
  <g id="axes_1">
   <g id="patch_2">
    <path d="M 51.05 223.886154 
L 343.661538 223.886154 
L 343.661538 26.64 
L 51.05 26.64 
z
" style="fill: #ffffff"/>
   </g>
   <g id="PolyCollection_1">
    <defs>
     <path id="mcc6195b0f9" d="M 51.05 -92.734744 
L 51.05 -50.925734 
L 51.05 -50.925734 
L 57.021664 -50.925734 
L 57.021664 -51.000563 
L 62.993328 -51.000563 
L 62.993328 -52.56349 
L 68.964992 -52.56349 
L 68.964992 -54.038388 
L 74.936656 -54.038388 
L 74.936656 -55.82251 
L 80.90832 -55.82251 
L 80.90832 -58.100322 
L 86.879984 -58.100322 
L 86.879984 -59.982982 
L 92.851648 -59.982982 
L 92.851648 -62.130851 
L 98.823312 -62.130851 
L 98.823312 -64.349481 
L 104.794976 -64.349481 
L 104.794976 -66.500876 
L 110.766641 -66.500876 
L 110.766641 -68.650559 
L 116.738305 -68.650559 
L 116.738305 -71.151045 
L 122.709969 -71.151045 
L 122.709969 -73.373128 
L 128.681633 -73.373128 
L 128.681633 -75.692928 
L 134.653297 -75.692928 
L 134.653297 -78.177461 
L 140.624961 -78.177461 
L 140.624961 -80.45612 
L 146.596625 -80.45612 
L 146.596625 -82.556752 
L 152.568289 -82.556752 
L 152.568289 -84.837047 
L 158.539953 -84.837047 
L 158.539953 -87.725234 
L 164.511617 -87.725234 
L 164.511617 -89.497113 
L 170.483281 -89.497113 
L 170.483281 -91.995201 
L 176.454945 -91.995201 
L 176.454945 -93.932746 
L 182.426609 -93.932746 
L 182.426609 -97.016314 
L 188.398273 -97.016314 
L 188.398273 -99.159144 
L 194.369937 -99.159144 
L 194.369937 -101.111128 
L 200.341601 -101.111128 
L 200.341601 -103.072004 
L 206.313265 -103.072004 
L 206.313265 -105.454768 
L 212.284929 -105.454768 
L 212.284929 -107.477136 
L 218.256593 -107.477136 
L 218.256593 -109.37752 
L 224.228257 -109.37752 
L 224.228257 -111.394997 
L 230.199922 -111.394997 
L 230.199922 -113.192781 
L 236.171586 -113.192781 
L 236.171586 -116.537219 
L 242.14325 -116.537219 
L 242.14325 -119.068531 
L 248.114914 -119.068531 
L 248.114914 -120.692845 
L 254.086578 -120.692845 
L 254.086578 -121.964814 
L 260.058242 -121.964814 
L 260.058242 -123.877671 
L 266.029906 -123.877671 
L 266.029906 -126.986121 
L 272.00157 -126.986121 
L 272.00157 -128.671964 
L 277.973234 -128.671964 
L 277.973234 -132.029661 
L 283.944898 -132.029661 
L 283.944898 -131.331736 
L 289.916562 -131.331736 
L 289.916562 -134.534578 
L 295.888226 -134.534578 
L 295.888226 -136.98167 
L 301.85989 -136.98167 
L 301.85989 -139.434314 
L 307.831554 -139.434314 
L 307.831554 -141.91002 
L 313.803218 -141.91002 
L 313.803218 -142.50254 
L 319.774882 -142.50254 
L 319.774882 -145.380744 
L 325.746546 -145.380744 
L 325.746546 -147.092746 
L 331.71821 -147.092746 
L 331.71821 -147.165298 
L 337.689874 -147.165298 
L 337.689874 -149.574704 
L 343.661538 -149.574704 
L 343.661538 -191.383714 
L 343.661538 -191.383714 
L 337.689874 -191.383714 
L 337.689874 -188.974308 
L 331.71821 -188.974308 
L 331.71821 -188.901756 
L 325.746546 -188.901756 
L 325.746546 -187.189754 
L 319.774882 -187.189754 
L 319.774882 -184.311549 
L 313.803218 -184.311549 
L 313.803218 -183.719029 
L 307.831554 -183.719029 
L 307.831554 -181.243324 
L 301.85989 -181.243324 
L 301.85989 -178.79068 
L 295.888226 -178.79068 
L 295.888226 -176.343588 
L 289.916562 -176.343588 
L 289.916562 -173.140745 
L 283.944898 -173.140745 
L 283.944898 -173.83867 
L 277.973234 -173.83867 
L 277.973234 -170.480973 
L 272.00157 -170.480973 
L 272.00157 -168.795131 
L 266.029906 -168.795131 
L 266.029906 -165.686681 
L 260.058242 -165.686681 
L 260.058242 -163.773823 
L 254.086578 -163.773823 
L 254.086578 -162.501854 
L 248.114914 -162.501854 
L 248.114914 -160.87754 
L 242.14325 -160.87754 
L 242.14325 -158.346228 
L 236.171586 -158.346228 
L 236.171586 -155.00179 
L 230.199922 -155.00179 
L 230.199922 -153.204006 
L 224.228257 -153.204006 
L 224.228257 -151.186529 
L 218.256593 -151.186529 
L 218.256593 -149.286145 
L 212.284929 -149.286145 
L 212.284929 -147.263777 
L 206.313265 -147.263777 
L 206.313265 -144.881013 
L 200.341601 -144.881013 
L 200.341601 -142.920138 
L 194.369937 -142.920138 
L 194.369937 -140.968154 
L 188.398273 -140.968154 
L 188.398273 -138.825324 
L 182.426609 -138.825324 
L 182.426609 -135.741755 
L 176.454945 -135.741755 
L 176.454945 -133.80421 
L 170.483281 -133.80421 
L 170.483281 -131.306123 
L 164.511617 -131.306123 
L 164.511617 -129.534244 
L 158.539953 -129.534244 
L 158.539953 -126.646056 
L 152.568289 -126.646056 
L 152.568289 -124.365761 
L 146.596625 -124.365761 
L 146.596625 -122.265129 
L 140.624961 -122.265129 
L 140.624961 -119.986471 
L 134.653297 -119.986471 
L 134.653297 -117.501937 
L 128.681633 -117.501937 
L 128.681633 -115.182137 
L 122.709969 -115.182137 
L 122.709969 -112.960055 
L 116.738305 -112.960055 
L 116.738305 -110.459568 
L 110.766641 -110.459568 
L 110.766641 -108.309886 
L 104.794976 -108.309886 
L 104.794976 -106.15849 
L 98.823312 -106.15849 
L 98.823312 -103.93986 
L 92.851648 -103.93986 
L 92.851648 -101.791991 
L 86.879984 -101.791991 
L 86.879984 -99.909332 
L 80.90832 -99.909332 
L 80.90832 -97.631519 
L 74.936656 -97.631519 
L 74.936656 -95.847398 
L 68.964992 -95.847398 
L 68.964992 -94.3725 
L 62.993328 -94.3725 
L 62.993328 -92.809573 
L 57.021664 -92.809573 
L 57.021664 -92.734744 
L 51.05 -92.734744 
L 51.05 -92.734744 
z
" style="stroke: #1f77b4; stroke-opacity: 0.5"/>
    </defs>
    <g clip-path="url(#pb2742960b2)">
     <use xlink:href="#mcc6195b0f9" x="0" y="265.846154" style="fill: #1f77b4; fill-opacity: 0.5; stroke: #1f77b4; stroke-opacity: 0.5"/>
    </g>
   </g>
   <g id="PolyCollection_2">
    <defs>
     <path id="m8b866828f2" d="M 51.05 -105.054684 
L 51.05 -52.123325 
L 51.05 -52.123325 
L 57.021664 -52.123325 
L 57.021664 -51.364654 
L 62.993328 -51.364654 
L 62.993328 -53.119624 
L 68.964992 -53.119624 
L 68.964992 -55.751317 
L 74.936656 -55.751317 
L 74.936656 -58.007761 
L 80.90832 -58.007761 
L 80.90832 -60.875251 
L 86.879984 -60.875251 
L 86.879984 -63.059683 
L 92.851648 -63.059683 
L 92.851648 -65.966892 
L 98.823312 -65.966892 
L 98.823312 -68.744298 
L 104.794976 -68.744298 
L 104.794976 -71.195217 
L 110.766641 -71.195217 
L 110.766641 -74.230708 
L 116.738305 -74.230708 
L 116.738305 -76.811596 
L 122.709969 -76.811596 
L 122.709969 -79.679762 
L 128.681633 -79.679762 
L 128.681633 -82.408137 
L 134.653297 -82.408137 
L 134.653297 -84.933168 
L 140.624961 -84.933168 
L 140.624961 -88.335826 
L 146.596625 -88.335826 
L 146.596625 -90.402355 
L 152.568289 -90.402355 
L 152.568289 -93.228858 
L 158.539953 -93.228858 
L 158.539953 -96.894522 
L 164.511617 -96.894522 
L 164.511617 -99.382085 
L 170.483281 -99.382085 
L 170.483281 -102.309088 
L 176.454945 -102.309088 
L 176.454945 -104.092914 
L 182.426609 -104.092914 
L 182.426609 -107.715305 
L 188.398273 -107.715305 
L 188.398273 -110.887712 
L 194.369937 -110.887712 
L 194.369937 -112.496567 
L 200.341601 -112.496567 
L 200.341601 -115.921069 
L 206.313265 -115.921069 
L 206.313265 -118.563107 
L 212.284929 -118.563107 
L 212.284929 -121.017581 
L 218.256593 -121.017581 
L 218.256593 -123.782443 
L 224.228257 -123.782443 
L 224.228257 -125.49601 
L 230.199922 -125.49601 
L 230.199922 -129.611843 
L 236.171586 -129.611843 
L 236.171586 -133.673416 
L 242.14325 -133.673416 
L 242.14325 -135.591841 
L 248.114914 -135.591841 
L 248.114914 -137.53819 
L 254.086578 -137.53819 
L 254.086578 -141.120574 
L 260.058242 -141.120574 
L 260.058242 -142.296161 
L 266.029906 -142.296161 
L 266.029906 -147.397206 
L 272.00157 -147.397206 
L 272.00157 -149.302619 
L 277.973234 -149.302619 
L 277.973234 -150.325869 
L 283.944898 -150.325869 
L 283.944898 -153.312641 
L 289.916562 -153.312641 
L 289.916562 -154.882605 
L 295.888226 -154.882605 
L 295.888226 -159.793717 
L 301.85989 -159.793717 
L 301.85989 -163.171621 
L 307.831554 -163.171621 
L 307.831554 -165.882331 
L 313.803218 -165.882331 
L 313.803218 -169.697976 
L 319.774882 -169.697976 
L 319.774882 -168.137855 
L 325.746546 -168.137855 
L 325.746546 -173.07767 
L 331.71821 -173.07767 
L 331.71821 -172.329023 
L 337.689874 -172.329023 
L 337.689874 -177.30906 
L 343.661538 -177.30906 
L 343.661538 -230.24042 
L 343.661538 -230.24042 
L 337.689874 -230.24042 
L 337.689874 -225.260383 
L 331.71821 -225.260383 
L 331.71821 -226.00903 
L 325.746546 -226.00903 
L 325.746546 -221.069214 
L 319.774882 -221.069214 
L 319.774882 -222.629335 
L 313.803218 -222.629335 
L 313.803218 -218.81369 
L 307.831554 -218.81369 
L 307.831554 -216.10298 
L 301.85989 -216.10298 
L 301.85989 -212.725077 
L 295.888226 -212.725077 
L 295.888226 -207.813964 
L 289.916562 -207.813964 
L 289.916562 -206.244001 
L 283.944898 -206.244001 
L 283.944898 -203.257229 
L 277.973234 -203.257229 
L 277.973234 -202.233979 
L 272.00157 -202.233979 
L 272.00157 -200.328566 
L 266.029906 -200.328566 
L 266.029906 -195.22752 
L 260.058242 -195.22752 
L 260.058242 -194.051933 
L 254.086578 -194.051933 
L 254.086578 -190.46955 
L 248.114914 -190.46955 
L 248.114914 -188.523201 
L 242.14325 -188.523201 
L 242.14325 -186.604776 
L 236.171586 -186.604776 
L 236.171586 -182.543202 
L 230.199922 -182.543202 
L 230.199922 -178.427369 
L 224.228257 -178.427369 
L 224.228257 -176.713802 
L 218.256593 -176.713802 
L 218.256593 -173.94894 
L 212.284929 -173.94894 
L 212.284929 -171.494466 
L 206.313265 -171.494466 
L 206.313265 -168.852428 
L 200.341601 -168.852428 
L 200.341601 -165.427926 
L 194.369937 -165.427926 
L 194.369937 -163.819072 
L 188.398273 -163.819072 
L 188.398273 -160.646664 
L 182.426609 -160.646664 
L 182.426609 -157.024273 
L 176.454945 -157.024273 
L 176.454945 -155.240448 
L 170.483281 -155.240448 
L 170.483281 -152.313444 
L 164.511617 -152.313444 
L 164.511617 -149.825882 
L 158.539953 -149.825882 
L 158.539953 -146.160218 
L 152.568289 -146.160218 
L 152.568289 -143.333714 
L 146.596625 -143.333714 
L 146.596625 -141.267185 
L 140.624961 -141.267185 
L 140.624961 -137.864527 
L 134.653297 -137.864527 
L 134.653297 -135.339496 
L 128.681633 -135.339496 
L 128.681633 -132.611121 
L 122.709969 -132.611121 
L 122.709969 -129.742955 
L 116.738305 -129.742955 
L 116.738305 -127.162067 
L 110.766641 -127.162067 
L 110.766641 -124.126576 
L 104.794976 -124.126576 
L 104.794976 -121.675657 
L 98.823312 -121.675657 
L 98.823312 -118.898251 
L 92.851648 -118.898251 
L 92.851648 -115.991043 
L 86.879984 -115.991043 
L 86.879984 -113.806611 
L 80.90832 -113.806611 
L 80.90832 -110.93912 
L 74.936656 -110.93912 
L 74.936656 -108.682676 
L 68.964992 -108.682676 
L 68.964992 -106.050983 
L 62.993328 -106.050983 
L 62.993328 -104.296013 
L 57.021664 -104.296013 
L 57.021664 -105.054684 
L 51.05 -105.054684 
L 51.05 -105.054684 
z
" style="stroke: #ff7f0e; stroke-opacity: 0.5"/>
    </defs>
    <g clip-path="url(#pb2742960b2)">
     <use xlink:href="#m8b866828f2" x="0" y="265.846154" style="fill: #ff7f0e; fill-opacity: 0.5; stroke: #ff7f0e; stroke-opacity: 0.5"/>
    </g>
   </g>
   <g id="matplotlib.axis_1">
    <g id="xtick_1">
     <g id="line2d_1">
      <path d="M 75.183219 223.886154 
L 75.183219 26.64 
" clip-path="url(#pb2742960b2)" style="fill: none; stroke: #b0b0b0; stroke-width: 0.8; stroke-linecap: square"/>
     </g>
     <g id="line2d_2">
      <defs>
       <path id="m103b816621" d="M 0 0 
L 0 3.5 
" style="stroke: #000000; stroke-width: 0.8"/>
      </defs>
      <g>
       <use xlink:href="#m103b816621" x="75.183219" y="223.886154" style="stroke: #000000; stroke-width: 0.8"/>
      </g>
     </g>
     <g id="text_1">
      <!-- 200 -->
      <g transform="translate(65.639469 238.484591) scale(0.1 -0.1)">
       <defs>
        <path id="DejaVuSans-32" d="M 1228 531 
L 3431 531 
L 3431 0 
L 469 0 
L 469 531 
Q 828 903 1448 1529 
Q 2069 2156 2228 2338 
Q 2531 2678 2651 2914 
Q 2772 3150 2772 3378 
Q 2772 3750 2511 3984 
Q 2250 4219 1831 4219 
Q 1534 4219 1204 4116 
Q 875 4013 500 3803 
L 500 4441 
Q 881 4594 1212 4672 
Q 1544 4750 1819 4750 
Q 2544 4750 2975 4387 
Q 3406 4025 3406 3419 
Q 3406 3131 3298 2873 
Q 3191 2616 2906 2266 
Q 2828 2175 2409 1742 
Q 1991 1309 1228 531 
z
" transform="scale(0.015625)"/>
        <path id="DejaVuSans-30" d="M 2034 4250 
Q 1547 4250 1301 3770 
Q 1056 3291 1056 2328 
Q 1056 1369 1301 889 
Q 1547 409 2034 409 
Q 2525 409 2770 889 
Q 3016 1369 3016 2328 
Q 3016 3291 2770 3770 
Q 2525 4250 2034 4250 
z
M 2034 4750 
Q 2819 4750 3233 4129 
Q 3647 3509 3647 2328 
Q 3647 1150 3233 529 
Q 2819 -91 2034 -91 
Q 1250 -91 836 529 
Q 422 1150 422 2328 
Q 422 3509 836 4129 
Q 1250 4750 2034 4750 
z
" transform="scale(0.015625)"/>
       </defs>
       <use xlink:href="#DejaVuSans-32"/>
       <use xlink:href="#DejaVuSans-30" x="63.623047"/>
       <use xlink:href="#DejaVuSans-30" x="127.246094"/>
      </g>
     </g>
    </g>
    <g id="xtick_2">
     <g id="line2d_3">
      <path d="M 110.029703 223.886154 
L 110.029703 26.64 
" clip-path="url(#pb2742960b2)" style="fill: none; stroke: #b0b0b0; stroke-width: 0.8; stroke-linecap: square"/>
     </g>
     <g id="line2d_4">
      <g>
       <use xlink:href="#m103b816621" x="110.029703" y="223.886154" style="stroke: #000000; stroke-width: 0.8"/>
      </g>
     </g>
     <g id="text_2">
      <!-- 250 -->
      <g transform="translate(100.485953 238.484591) scale(0.1 -0.1)">
       <defs>
        <path id="DejaVuSans-35" d="M 691 4666 
L 3169 4666 
L 3169 4134 
L 1269 4134 
L 1269 2991 
Q 1406 3038 1543 3061 
Q 1681 3084 1819 3084 
Q 2600 3084 3056 2656 
Q 3513 2228 3513 1497 
Q 3513 744 3044 326 
Q 2575 -91 1722 -91 
Q 1428 -91 1123 -41 
Q 819 9 494 109 
L 494 744 
Q 775 591 1075 516 
Q 1375 441 1709 441 
Q 2250 441 2565 725 
Q 2881 1009 2881 1497 
Q 2881 1984 2565 2268 
Q 2250 2553 1709 2553 
Q 1456 2553 1204 2497 
Q 953 2441 691 2322 
L 691 4666 
z
" transform="scale(0.015625)"/>
       </defs>
       <use xlink:href="#DejaVuSans-32"/>
       <use xlink:href="#DejaVuSans-35" x="63.623047"/>
       <use xlink:href="#DejaVuSans-30" x="127.246094"/>
      </g>
     </g>
    </g>
    <g id="xtick_3">
     <g id="line2d_5">
      <path d="M 144.876186 223.886154 
L 144.876186 26.64 
" clip-path="url(#pb2742960b2)" style="fill: none; stroke: #b0b0b0; stroke-width: 0.8; stroke-linecap: square"/>
     </g>
     <g id="line2d_6">
      <g>
       <use xlink:href="#m103b816621" x="144.876186" y="223.886154" style="stroke: #000000; stroke-width: 0.8"/>
      </g>
     </g>
     <g id="text_3">
      <!-- 300 -->
      <g transform="translate(135.332436 238.484591) scale(0.1 -0.1)">
       <defs>
        <path id="DejaVuSans-33" d="M 2597 2516 
Q 3050 2419 3304 2112 
Q 3559 1806 3559 1356 
Q 3559 666 3084 287 
Q 2609 -91 1734 -91 
Q 1441 -91 1130 -33 
Q 819 25 488 141 
L 488 750 
Q 750 597 1062 519 
Q 1375 441 1716 441 
Q 2309 441 2620 675 
Q 2931 909 2931 1356 
Q 2931 1769 2642 2001 
Q 2353 2234 1838 2234 
L 1294 2234 
L 1294 2753 
L 1863 2753 
Q 2328 2753 2575 2939 
Q 2822 3125 2822 3475 
Q 2822 3834 2567 4026 
Q 2313 4219 1838 4219 
Q 1578 4219 1281 4162 
Q 984 4106 628 3988 
L 628 4550 
Q 988 4650 1302 4700 
Q 1616 4750 1894 4750 
Q 2613 4750 3031 4423 
Q 3450 4097 3450 3541 
Q 3450 3153 3228 2886 
Q 3006 2619 2597 2516 
z
" transform="scale(0.015625)"/>
       </defs>
       <use xlink:href="#DejaVuSans-33"/>
       <use xlink:href="#DejaVuSans-30" x="63.623047"/>
       <use xlink:href="#DejaVuSans-30" x="127.246094"/>
      </g>
     </g>
    </g>
    <g id="xtick_4">
     <g id="line2d_7">
      <path d="M 179.72267 223.886154 
L 179.72267 26.64 
" clip-path="url(#pb2742960b2)" style="fill: none; stroke: #b0b0b0; stroke-width: 0.8; stroke-linecap: square"/>
     </g>
     <g id="line2d_8">
      <g>
       <use xlink:href="#m103b816621" x="179.72267" y="223.886154" style="stroke: #000000; stroke-width: 0.8"/>
      </g>
     </g>
     <g id="text_4">
      <!-- 350 -->
      <g transform="translate(170.17892 238.484591) scale(0.1 -0.1)">
       <use xlink:href="#DejaVuSans-33"/>
       <use xlink:href="#DejaVuSans-35" x="63.623047"/>
       <use xlink:href="#DejaVuSans-30" x="127.246094"/>
      </g>
     </g>
    </g>
    <g id="xtick_5">
     <g id="line2d_9">
      <path d="M 214.569154 223.886154 
L 214.569154 26.64 
" clip-path="url(#pb2742960b2)" style="fill: none; stroke: #b0b0b0; stroke-width: 0.8; stroke-linecap: square"/>
     </g>
     <g id="line2d_10">
      <g>
       <use xlink:href="#m103b816621" x="214.569154" y="223.886154" style="stroke: #000000; stroke-width: 0.8"/>
      </g>
     </g>
     <g id="text_5">
      <!-- 400 -->
      <g transform="translate(205.025404 238.484591) scale(0.1 -0.1)">
       <defs>
        <path id="DejaVuSans-34" d="M 2419 4116 
L 825 1625 
L 2419 1625 
L 2419 4116 
z
M 2253 4666 
L 3047 4666 
L 3047 1625 
L 3713 1625 
L 3713 1100 
L 3047 1100 
L 3047 0 
L 2419 0 
L 2419 1100 
L 313 1100 
L 313 1709 
L 2253 4666 
z
" transform="scale(0.015625)"/>
       </defs>
       <use xlink:href="#DejaVuSans-34"/>
       <use xlink:href="#DejaVuSans-30" x="63.623047"/>
       <use xlink:href="#DejaVuSans-30" x="127.246094"/>
      </g>
     </g>
    </g>
    <g id="xtick_6">
     <g id="line2d_11">
      <path d="M 249.415637 223.886154 
L 249.415637 26.64 
" clip-path="url(#pb2742960b2)" style="fill: none; stroke: #b0b0b0; stroke-width: 0.8; stroke-linecap: square"/>
     </g>
     <g id="line2d_12">
      <g>
       <use xlink:href="#m103b816621" x="249.415637" y="223.886154" style="stroke: #000000; stroke-width: 0.8"/>
      </g>
     </g>
     <g id="text_6">
      <!-- 450 -->
      <g transform="translate(239.871887 238.484591) scale(0.1 -0.1)">
       <use xlink:href="#DejaVuSans-34"/>
       <use xlink:href="#DejaVuSans-35" x="63.623047"/>
       <use xlink:href="#DejaVuSans-30" x="127.246094"/>
      </g>
     </g>
    </g>
    <g id="xtick_7">
     <g id="line2d_13">
      <path d="M 284.262121 223.886154 
L 284.262121 26.64 
" clip-path="url(#pb2742960b2)" style="fill: none; stroke: #b0b0b0; stroke-width: 0.8; stroke-linecap: square"/>
     </g>
     <g id="line2d_14">
      <g>
       <use xlink:href="#m103b816621" x="284.262121" y="223.886154" style="stroke: #000000; stroke-width: 0.8"/>
      </g>
     </g>
     <g id="text_7">
      <!-- 500 -->
      <g transform="translate(274.718371 238.484591) scale(0.1 -0.1)">
       <use xlink:href="#DejaVuSans-35"/>
       <use xlink:href="#DejaVuSans-30" x="63.623047"/>
       <use xlink:href="#DejaVuSans-30" x="127.246094"/>
      </g>
     </g>
    </g>
    <g id="xtick_8">
     <g id="line2d_15">
      <path d="M 319.108605 223.886154 
L 319.108605 26.64 
" clip-path="url(#pb2742960b2)" style="fill: none; stroke: #b0b0b0; stroke-width: 0.8; stroke-linecap: square"/>
     </g>
     <g id="line2d_16">
      <g>
       <use xlink:href="#m103b816621" x="319.108605" y="223.886154" style="stroke: #000000; stroke-width: 0.8"/>
      </g>
     </g>
     <g id="text_8">
      <!-- 550 -->
      <g transform="translate(309.564855 238.484591) scale(0.1 -0.1)">
       <use xlink:href="#DejaVuSans-35"/>
       <use xlink:href="#DejaVuSans-35" x="63.623047"/>
       <use xlink:href="#DejaVuSans-30" x="127.246094"/>
      </g>
     </g>
    </g>
    <g id="text_9">
     <!-- True Top antiquark Energy (GeV) -->
     <g transform="translate(116.226082 252.162716) scale(0.1 -0.1)">
      <defs>
       <path id="DejaVuSans-54" d="M -19 4666 
L 3928 4666 
L 3928 4134 
L 2272 4134 
L 2272 0 
L 1638 0 
L 1638 4134 
L -19 4134 
L -19 4666 
z
" transform="scale(0.015625)"/>
       <path id="DejaVuSans-72" d="M 2631 2963 
Q 2534 3019 2420 3045 
Q 2306 3072 2169 3072 
Q 1681 3072 1420 2755 
Q 1159 2438 1159 1844 
L 1159 0 
L 581 0 
L 581 3500 
L 1159 3500 
L 1159 2956 
Q 1341 3275 1631 3429 
Q 1922 3584 2338 3584 
Q 2397 3584 2469 3576 
Q 2541 3569 2628 3553 
L 2631 2963 
z
" transform="scale(0.015625)"/>
       <path id="DejaVuSans-75" d="M 544 1381 
L 544 3500 
L 1119 3500 
L 1119 1403 
Q 1119 906 1312 657 
Q 1506 409 1894 409 
Q 2359 409 2629 706 
Q 2900 1003 2900 1516 
L 2900 3500 
L 3475 3500 
L 3475 0 
L 2900 0 
L 2900 538 
Q 2691 219 2414 64 
Q 2138 -91 1772 -91 
Q 1169 -91 856 284 
Q 544 659 544 1381 
z
M 1991 3584 
L 1991 3584 
z
" transform="scale(0.015625)"/>
       <path id="DejaVuSans-65" d="M 3597 1894 
L 3597 1613 
L 953 1613 
Q 991 1019 1311 708 
Q 1631 397 2203 397 
Q 2534 397 2845 478 
Q 3156 559 3463 722 
L 3463 178 
Q 3153 47 2828 -22 
Q 2503 -91 2169 -91 
Q 1331 -91 842 396 
Q 353 884 353 1716 
Q 353 2575 817 3079 
Q 1281 3584 2069 3584 
Q 2775 3584 3186 3129 
Q 3597 2675 3597 1894 
z
M 3022 2063 
Q 3016 2534 2758 2815 
Q 2500 3097 2075 3097 
Q 1594 3097 1305 2825 
Q 1016 2553 972 2059 
L 3022 2063 
z
" transform="scale(0.015625)"/>
       <path id="DejaVuSans-20" transform="scale(0.015625)"/>
       <path id="DejaVuSans-6f" d="M 1959 3097 
Q 1497 3097 1228 2736 
Q 959 2375 959 1747 
Q 959 1119 1226 758 
Q 1494 397 1959 397 
Q 2419 397 2687 759 
Q 2956 1122 2956 1747 
Q 2956 2369 2687 2733 
Q 2419 3097 1959 3097 
z
M 1959 3584 
Q 2709 3584 3137 3096 
Q 3566 2609 3566 1747 
Q 3566 888 3137 398 
Q 2709 -91 1959 -91 
Q 1206 -91 779 398 
Q 353 888 353 1747 
Q 353 2609 779 3096 
Q 1206 3584 1959 3584 
z
" transform="scale(0.015625)"/>
       <path id="DejaVuSans-70" d="M 1159 525 
L 1159 -1331 
L 581 -1331 
L 581 3500 
L 1159 3500 
L 1159 2969 
Q 1341 3281 1617 3432 
Q 1894 3584 2278 3584 
Q 2916 3584 3314 3078 
Q 3713 2572 3713 1747 
Q 3713 922 3314 415 
Q 2916 -91 2278 -91 
Q 1894 -91 1617 61 
Q 1341 213 1159 525 
z
M 3116 1747 
Q 3116 2381 2855 2742 
Q 2594 3103 2138 3103 
Q 1681 3103 1420 2742 
Q 1159 2381 1159 1747 
Q 1159 1113 1420 752 
Q 1681 391 2138 391 
Q 2594 391 2855 752 
Q 3116 1113 3116 1747 
z
" transform="scale(0.015625)"/>
       <path id="DejaVuSans-61" d="M 2194 1759 
Q 1497 1759 1228 1600 
Q 959 1441 959 1056 
Q 959 750 1161 570 
Q 1363 391 1709 391 
Q 2188 391 2477 730 
Q 2766 1069 2766 1631 
L 2766 1759 
L 2194 1759 
z
M 3341 1997 
L 3341 0 
L 2766 0 
L 2766 531 
Q 2569 213 2275 61 
Q 1981 -91 1556 -91 
Q 1019 -91 701 211 
Q 384 513 384 1019 
Q 384 1609 779 1909 
Q 1175 2209 1959 2209 
L 2766 2209 
L 2766 2266 
Q 2766 2663 2505 2880 
Q 2244 3097 1772 3097 
Q 1472 3097 1187 3025 
Q 903 2953 641 2809 
L 641 3341 
Q 956 3463 1253 3523 
Q 1550 3584 1831 3584 
Q 2591 3584 2966 3190 
Q 3341 2797 3341 1997 
z
" transform="scale(0.015625)"/>
       <path id="DejaVuSans-6e" d="M 3513 2113 
L 3513 0 
L 2938 0 
L 2938 2094 
Q 2938 2591 2744 2837 
Q 2550 3084 2163 3084 
Q 1697 3084 1428 2787 
Q 1159 2491 1159 1978 
L 1159 0 
L 581 0 
L 581 3500 
L 1159 3500 
L 1159 2956 
Q 1366 3272 1645 3428 
Q 1925 3584 2291 3584 
Q 2894 3584 3203 3211 
Q 3513 2838 3513 2113 
z
" transform="scale(0.015625)"/>
       <path id="DejaVuSans-74" d="M 1172 4494 
L 1172 3500 
L 2356 3500 
L 2356 3053 
L 1172 3053 
L 1172 1153 
Q 1172 725 1289 603 
Q 1406 481 1766 481 
L 2356 481 
L 2356 0 
L 1766 0 
Q 1100 0 847 248 
Q 594 497 594 1153 
L 594 3053 
L 172 3053 
L 172 3500 
L 594 3500 
L 594 4494 
L 1172 4494 
z
" transform="scale(0.015625)"/>
       <path id="DejaVuSans-69" d="M 603 3500 
L 1178 3500 
L 1178 0 
L 603 0 
L 603 3500 
z
M 603 4863 
L 1178 4863 
L 1178 4134 
L 603 4134 
L 603 4863 
z
" transform="scale(0.015625)"/>
       <path id="DejaVuSans-71" d="M 947 1747 
Q 947 1113 1208 752 
Q 1469 391 1925 391 
Q 2381 391 2643 752 
Q 2906 1113 2906 1747 
Q 2906 2381 2643 2742 
Q 2381 3103 1925 3103 
Q 1469 3103 1208 2742 
Q 947 2381 947 1747 
z
M 2906 525 
Q 2725 213 2448 61 
Q 2172 -91 1784 -91 
Q 1150 -91 751 415 
Q 353 922 353 1747 
Q 353 2572 751 3078 
Q 1150 3584 1784 3584 
Q 2172 3584 2448 3432 
Q 2725 3281 2906 2969 
L 2906 3500 
L 3481 3500 
L 3481 -1331 
L 2906 -1331 
L 2906 525 
z
" transform="scale(0.015625)"/>
       <path id="DejaVuSans-6b" d="M 581 4863 
L 1159 4863 
L 1159 1991 
L 2875 3500 
L 3609 3500 
L 1753 1863 
L 3688 0 
L 2938 0 
L 1159 1709 
L 1159 0 
L 581 0 
L 581 4863 
z
" transform="scale(0.015625)"/>
       <path id="DejaVuSans-45" d="M 628 4666 
L 3578 4666 
L 3578 4134 
L 1259 4134 
L 1259 2753 
L 3481 2753 
L 3481 2222 
L 1259 2222 
L 1259 531 
L 3634 531 
L 3634 0 
L 628 0 
L 628 4666 
z
" transform="scale(0.015625)"/>
       <path id="DejaVuSans-67" d="M 2906 1791 
Q 2906 2416 2648 2759 
Q 2391 3103 1925 3103 
Q 1463 3103 1205 2759 
Q 947 2416 947 1791 
Q 947 1169 1205 825 
Q 1463 481 1925 481 
Q 2391 481 2648 825 
Q 2906 1169 2906 1791 
z
M 3481 434 
Q 3481 -459 3084 -895 
Q 2688 -1331 1869 -1331 
Q 1566 -1331 1297 -1286 
Q 1028 -1241 775 -1147 
L 775 -588 
Q 1028 -725 1275 -790 
Q 1522 -856 1778 -856 
Q 2344 -856 2625 -561 
Q 2906 -266 2906 331 
L 2906 616 
Q 2728 306 2450 153 
Q 2172 0 1784 0 
Q 1141 0 747 490 
Q 353 981 353 1791 
Q 353 2603 747 3093 
Q 1141 3584 1784 3584 
Q 2172 3584 2450 3431 
Q 2728 3278 2906 2969 
L 2906 3500 
L 3481 3500 
L 3481 434 
z
" transform="scale(0.015625)"/>
       <path id="DejaVuSans-79" d="M 2059 -325 
Q 1816 -950 1584 -1140 
Q 1353 -1331 966 -1331 
L 506 -1331 
L 506 -850 
L 844 -850 
Q 1081 -850 1212 -737 
Q 1344 -625 1503 -206 
L 1606 56 
L 191 3500 
L 800 3500 
L 1894 763 
L 2988 3500 
L 3597 3500 
L 2059 -325 
z
" transform="scale(0.015625)"/>
       <path id="DejaVuSans-28" d="M 1984 4856 
Q 1566 4138 1362 3434 
Q 1159 2731 1159 2009 
Q 1159 1288 1364 580 
Q 1569 -128 1984 -844 
L 1484 -844 
Q 1016 -109 783 600 
Q 550 1309 550 2009 
Q 550 2706 781 3412 
Q 1013 4119 1484 4856 
L 1984 4856 
z
" transform="scale(0.015625)"/>
       <path id="DejaVuSans-47" d="M 3809 666 
L 3809 1919 
L 2778 1919 
L 2778 2438 
L 4434 2438 
L 4434 434 
Q 4069 175 3628 42 
Q 3188 -91 2688 -91 
Q 1594 -91 976 548 
Q 359 1188 359 2328 
Q 359 3472 976 4111 
Q 1594 4750 2688 4750 
Q 3144 4750 3555 4637 
Q 3966 4525 4313 4306 
L 4313 3634 
Q 3963 3931 3569 4081 
Q 3175 4231 2741 4231 
Q 1884 4231 1454 3753 
Q 1025 3275 1025 2328 
Q 1025 1384 1454 906 
Q 1884 428 2741 428 
Q 3075 428 3337 486 
Q 3600 544 3809 666 
z
" transform="scale(0.015625)"/>
       <path id="DejaVuSans-56" d="M 1831 0 
L 50 4666 
L 709 4666 
L 2188 738 
L 3669 4666 
L 4325 4666 
L 2547 0 
L 1831 0 
z
" transform="scale(0.015625)"/>
       <path id="DejaVuSans-29" d="M 513 4856 
L 1013 4856 
Q 1481 4119 1714 3412 
Q 1947 2706 1947 2009 
Q 1947 1309 1714 600 
Q 1481 -109 1013 -844 
L 513 -844 
Q 928 -128 1133 580 
Q 1338 1288 1338 2009 
Q 1338 2731 1133 3434 
Q 928 4138 513 4856 
z
" transform="scale(0.015625)"/>
      </defs>
      <use xlink:href="#DejaVuSans-54"/>
      <use xlink:href="#DejaVuSans-72" x="46.333984"/>
      <use xlink:href="#DejaVuSans-75" x="87.447266"/>
      <use xlink:href="#DejaVuSans-65" x="150.826172"/>
      <use xlink:href="#DejaVuSans-20" x="212.349609"/>
      <use xlink:href="#DejaVuSans-54" x="244.136719"/>
      <use xlink:href="#DejaVuSans-6f" x="288.220703"/>
      <use xlink:href="#DejaVuSans-70" x="349.402344"/>
      <use xlink:href="#DejaVuSans-20" x="412.878906"/>
      <use xlink:href="#DejaVuSans-61" x="444.666016"/>
      <use xlink:href="#DejaVuSans-6e" x="505.945312"/>
      <use xlink:href="#DejaVuSans-74" x="569.324219"/>
      <use xlink:href="#DejaVuSans-69" x="608.533203"/>
      <use xlink:href="#DejaVuSans-71" x="636.316406"/>
      <use xlink:href="#DejaVuSans-75" x="699.792969"/>
      <use xlink:href="#DejaVuSans-61" x="763.171875"/>
      <use xlink:href="#DejaVuSans-72" x="824.451172"/>
      <use xlink:href="#DejaVuSans-6b" x="865.564453"/>
      <use xlink:href="#DejaVuSans-20" x="923.474609"/>
      <use xlink:href="#DejaVuSans-45" x="955.261719"/>
      <use xlink:href="#DejaVuSans-6e" x="1018.445312"/>
      <use xlink:href="#DejaVuSans-65" x="1081.824219"/>
      <use xlink:href="#DejaVuSans-72" x="1143.347656"/>
      <use xlink:href="#DejaVuSans-67" x="1182.710938"/>
      <use xlink:href="#DejaVuSans-79" x="1246.1875"/>
      <use xlink:href="#DejaVuSans-20" x="1305.367188"/>
      <use xlink:href="#DejaVuSans-28" x="1337.154297"/>
      <use xlink:href="#DejaVuSans-47" x="1376.167969"/>
      <use xlink:href="#DejaVuSans-65" x="1453.658203"/>
      <use xlink:href="#DejaVuSans-56" x="1515.181641"/>
      <use xlink:href="#DejaVuSans-29" x="1583.589844"/>
     </g>
    </g>
   </g>
   <g id="matplotlib.axis_2">
    <g id="ytick_1">
     <g id="line2d_17">
      <path d="M 51.05 198.05272 
L 343.661538 198.05272 
" clip-path="url(#pb2742960b2)" style="fill: none; stroke: #b0b0b0; stroke-width: 0.8; stroke-linecap: square"/>
     </g>
     <g id="line2d_18">
      <defs>
       <path id="mff02546751" d="M 0 0 
L -3.5 0 
" style="stroke: #000000; stroke-width: 0.8"/>
      </defs>
      <g>
       <use xlink:href="#mff02546751" x="51.05" y="198.05272" style="stroke: #000000; stroke-width: 0.8"/>
      </g>
     </g>
     <g id="text_10">
      <!-- 200 -->
      <g transform="translate(24.9625 201.851939) scale(0.1 -0.1)">
       <use xlink:href="#DejaVuSans-32"/>
       <use xlink:href="#DejaVuSans-30" x="63.623047"/>
       <use xlink:href="#DejaVuSans-30" x="127.246094"/>
      </g>
     </g>
    </g>
    <g id="ytick_2">
     <g id="line2d_19">
      <path d="M 51.05 163.403185 
L 343.661538 163.403185 
" clip-path="url(#pb2742960b2)" style="fill: none; stroke: #b0b0b0; stroke-width: 0.8; stroke-linecap: square"/>
     </g>
     <g id="line2d_20">
      <g>
       <use xlink:href="#mff02546751" x="51.05" y="163.403185" style="stroke: #000000; stroke-width: 0.8"/>
      </g>
     </g>
     <g id="text_11">
      <!-- 300 -->
      <g transform="translate(24.9625 167.202404) scale(0.1 -0.1)">
       <use xlink:href="#DejaVuSans-33"/>
       <use xlink:href="#DejaVuSans-30" x="63.623047"/>
       <use xlink:href="#DejaVuSans-30" x="127.246094"/>
      </g>
     </g>
    </g>
    <g id="ytick_3">
     <g id="line2d_21">
      <path d="M 51.05 128.75365 
L 343.661538 128.75365 
" clip-path="url(#pb2742960b2)" style="fill: none; stroke: #b0b0b0; stroke-width: 0.8; stroke-linecap: square"/>
     </g>
     <g id="line2d_22">
      <g>
       <use xlink:href="#mff02546751" x="51.05" y="128.75365" style="stroke: #000000; stroke-width: 0.8"/>
      </g>
     </g>
     <g id="text_12">
      <!-- 400 -->
      <g transform="translate(24.9625 132.552869) scale(0.1 -0.1)">
       <use xlink:href="#DejaVuSans-34"/>
       <use xlink:href="#DejaVuSans-30" x="63.623047"/>
       <use xlink:href="#DejaVuSans-30" x="127.246094"/>
      </g>
     </g>
    </g>
    <g id="ytick_4">
     <g id="line2d_23">
      <path d="M 51.05 94.104115 
L 343.661538 94.104115 
" clip-path="url(#pb2742960b2)" style="fill: none; stroke: #b0b0b0; stroke-width: 0.8; stroke-linecap: square"/>
     </g>
     <g id="line2d_24">
      <g>
       <use xlink:href="#mff02546751" x="51.05" y="94.104115" style="stroke: #000000; stroke-width: 0.8"/>
      </g>
     </g>
     <g id="text_13">
      <!-- 500 -->
      <g transform="translate(24.9625 97.903334) scale(0.1 -0.1)">
       <use xlink:href="#DejaVuSans-35"/>
       <use xlink:href="#DejaVuSans-30" x="63.623047"/>
       <use xlink:href="#DejaVuSans-30" x="127.246094"/>
      </g>
     </g>
    </g>
    <g id="ytick_5">
     <g id="line2d_25">
      <path d="M 51.05 59.45458 
L 343.661538 59.45458 
" clip-path="url(#pb2742960b2)" style="fill: none; stroke: #b0b0b0; stroke-width: 0.8; stroke-linecap: square"/>
     </g>
     <g id="line2d_26">
      <g>
       <use xlink:href="#mff02546751" x="51.05" y="59.45458" style="stroke: #000000; stroke-width: 0.8"/>
      </g>
     </g>
     <g id="text_14">
      <!-- 600 -->
      <g transform="translate(24.9625 63.253799) scale(0.1 -0.1)">
       <defs>
        <path id="DejaVuSans-36" d="M 2113 2584 
Q 1688 2584 1439 2293 
Q 1191 2003 1191 1497 
Q 1191 994 1439 701 
Q 1688 409 2113 409 
Q 2538 409 2786 701 
Q 3034 994 3034 1497 
Q 3034 2003 2786 2293 
Q 2538 2584 2113 2584 
z
M 3366 4563 
L 3366 3988 
Q 3128 4100 2886 4159 
Q 2644 4219 2406 4219 
Q 1781 4219 1451 3797 
Q 1122 3375 1075 2522 
Q 1259 2794 1537 2939 
Q 1816 3084 2150 3084 
Q 2853 3084 3261 2657 
Q 3669 2231 3669 1497 
Q 3669 778 3244 343 
Q 2819 -91 2113 -91 
Q 1303 -91 875 529 
Q 447 1150 447 2328 
Q 447 3434 972 4092 
Q 1497 4750 2381 4750 
Q 2619 4750 2861 4703 
Q 3103 4656 3366 4563 
z
" transform="scale(0.015625)"/>
       </defs>
       <use xlink:href="#DejaVuSans-36"/>
       <use xlink:href="#DejaVuSans-30" x="63.623047"/>
       <use xlink:href="#DejaVuSans-30" x="127.246094"/>
      </g>
     </g>
    </g>
    <g id="text_15">
     <!-- Response -->
     <g transform="translate(18.882812 149.277139) rotate(-90) scale(0.1 -0.1)">
      <defs>
       <path id="DejaVuSans-52" d="M 2841 2188 
Q 3044 2119 3236 1894 
Q 3428 1669 3622 1275 
L 4263 0 
L 3584 0 
L 2988 1197 
Q 2756 1666 2539 1819 
Q 2322 1972 1947 1972 
L 1259 1972 
L 1259 0 
L 628 0 
L 628 4666 
L 2053 4666 
Q 2853 4666 3247 4331 
Q 3641 3997 3641 3322 
Q 3641 2881 3436 2590 
Q 3231 2300 2841 2188 
z
M 1259 4147 
L 1259 2491 
L 2053 2491 
Q 2509 2491 2742 2702 
Q 2975 2913 2975 3322 
Q 2975 3731 2742 3939 
Q 2509 4147 2053 4147 
L 1259 4147 
z
" transform="scale(0.015625)"/>
       <path id="DejaVuSans-73" d="M 2834 3397 
L 2834 2853 
Q 2591 2978 2328 3040 
Q 2066 3103 1784 3103 
Q 1356 3103 1142 2972 
Q 928 2841 928 2578 
Q 928 2378 1081 2264 
Q 1234 2150 1697 2047 
L 1894 2003 
Q 2506 1872 2764 1633 
Q 3022 1394 3022 966 
Q 3022 478 2636 193 
Q 2250 -91 1575 -91 
Q 1294 -91 989 -36 
Q 684 19 347 128 
L 347 722 
Q 666 556 975 473 
Q 1284 391 1588 391 
Q 1994 391 2212 530 
Q 2431 669 2431 922 
Q 2431 1156 2273 1281 
Q 2116 1406 1581 1522 
L 1381 1569 
Q 847 1681 609 1914 
Q 372 2147 372 2553 
Q 372 3047 722 3315 
Q 1072 3584 1716 3584 
Q 2034 3584 2315 3537 
Q 2597 3491 2834 3397 
z
" transform="scale(0.015625)"/>
      </defs>
      <use xlink:href="#DejaVuSans-52"/>
      <use xlink:href="#DejaVuSans-65" x="64.982422"/>
      <use xlink:href="#DejaVuSans-73" x="126.505859"/>
      <use xlink:href="#DejaVuSans-70" x="178.605469"/>
      <use xlink:href="#DejaVuSans-6f" x="242.082031"/>
      <use xlink:href="#DejaVuSans-6e" x="303.263672"/>
      <use xlink:href="#DejaVuSans-73" x="366.642578"/>
      <use xlink:href="#DejaVuSans-65" x="418.742188"/>
     </g>
    </g>
   </g>
   <g id="line2d_27">
    <path d="M 51.05 196.561249 
L 51.05 196.561249 
L 57.021664 196.561249 
L 57.021664 196.486421 
L 62.993328 196.486421 
L 62.993328 194.923493 
L 68.964992 194.923493 
L 68.964992 193.448595 
L 74.936656 193.448595 
L 74.936656 191.664474 
L 80.90832 191.664474 
L 80.90832 189.386662 
L 86.879984 189.386662 
L 86.879984 187.504002 
L 92.851648 187.504002 
L 92.851648 185.356133 
L 98.823312 185.356133 
L 98.823312 183.137503 
L 104.794976 183.137503 
L 104.794976 180.986108 
L 110.766641 180.986108 
L 110.766641 178.836425 
L 116.738305 178.836425 
L 116.738305 176.335938 
L 122.709969 176.335938 
L 122.709969 174.113856 
L 128.681633 174.113856 
L 128.681633 171.794056 
L 134.653297 171.794056 
L 134.653297 169.309522 
L 140.624961 169.309522 
L 140.624961 167.030864 
L 146.596625 167.030864 
L 146.596625 164.930232 
L 152.568289 164.930232 
L 152.568289 162.649937 
L 158.539953 162.649937 
L 158.539953 159.761749 
L 164.511617 159.761749 
L 164.511617 157.98987 
L 170.483281 157.98987 
L 170.483281 155.491783 
L 176.454945 155.491783 
L 176.454945 153.554238 
L 182.426609 153.554238 
L 182.426609 150.470669 
L 188.398273 150.470669 
L 188.398273 148.327839 
L 194.369937 148.327839 
L 194.369937 146.375855 
L 200.341601 146.375855 
L 200.341601 144.41498 
L 206.313265 144.41498 
L 206.313265 142.032216 
L 212.284929 142.032216 
L 212.284929 140.009848 
L 218.256593 140.009848 
L 218.256593 138.109464 
L 224.228257 138.109464 
L 224.228257 136.091987 
L 230.199922 136.091987 
L 230.199922 134.294203 
L 236.171586 134.294203 
L 236.171586 130.949765 
L 242.14325 130.949765 
L 242.14325 128.418453 
L 248.114914 128.418453 
L 248.114914 126.794139 
L 254.086578 126.794139 
L 254.086578 125.52217 
L 260.058242 125.52217 
L 260.058242 123.609312 
L 266.029906 123.609312 
L 266.029906 120.500862 
L 272.00157 120.500862 
L 272.00157 118.81502 
L 277.973234 118.81502 
L 277.973234 115.457323 
L 283.944898 115.457323 
L 283.944898 116.155248 
L 289.916562 116.155248 
L 289.916562 112.952406 
L 295.888226 112.952406 
L 295.888226 110.505314 
L 301.85989 110.505314 
L 301.85989 108.05267 
L 307.831554 108.05267 
L 307.831554 105.576964 
L 313.803218 105.576964 
L 313.803218 104.984444 
L 319.774882 104.984444 
L 319.774882 102.106239 
L 325.746546 102.106239 
L 325.746546 100.394237 
L 331.71821 100.394237 
L 331.71821 100.321686 
L 337.689874 100.321686 
L 337.689874 97.912279 
L 343.661538 97.912279 
" clip-path="url(#pb2742960b2)" style="fill: none; stroke: #1f77b4; stroke-width: 1.5; stroke-linecap: square"/>
   </g>
   <g id="line2d_28">
    <path d="M 51.05 191.966505 
L 51.05 191.966505 
L 57.021664 191.966505 
L 57.021664 192.725176 
L 62.993328 192.725176 
L 62.993328 190.970206 
L 68.964992 190.970206 
L 68.964992 188.338513 
L 74.936656 188.338513 
L 74.936656 186.082069 
L 80.90832 186.082069 
L 80.90832 183.214579 
L 86.879984 183.214579 
L 86.879984 181.030147 
L 92.851648 181.030147 
L 92.851648 178.122938 
L 98.823312 178.122938 
L 98.823312 175.345532 
L 104.794976 175.345532 
L 104.794976 172.894613 
L 110.766641 172.894613 
L 110.766641 169.859122 
L 116.738305 169.859122 
L 116.738305 167.278234 
L 122.709969 167.278234 
L 122.709969 164.410068 
L 128.681633 164.410068 
L 128.681633 161.681693 
L 134.653297 161.681693 
L 134.653297 159.156662 
L 140.624961 159.156662 
L 140.624961 155.754004 
L 146.596625 155.754004 
L 146.596625 153.687475 
L 152.568289 153.687475 
L 152.568289 150.860972 
L 158.539953 150.860972 
L 158.539953 147.195308 
L 164.511617 147.195308 
L 164.511617 144.707745 
L 170.483281 144.707745 
L 170.483281 141.780742 
L 176.454945 141.780742 
L 176.454945 139.996916 
L 182.426609 139.996916 
L 182.426609 136.374525 
L 188.398273 136.374525 
L 188.398273 133.202118 
L 194.369937 133.202118 
L 194.369937 131.593263 
L 200.341601 131.593263 
L 200.341601 128.168761 
L 206.313265 128.168761 
L 206.313265 125.526723 
L 212.284929 125.526723 
L 212.284929 123.072249 
L 218.256593 123.072249 
L 218.256593 120.307387 
L 224.228257 120.307387 
L 224.228257 118.59382 
L 230.199922 118.59382 
L 230.199922 114.477987 
L 236.171586 114.477987 
L 236.171586 110.416413 
L 242.14325 110.416413 
L 242.14325 108.497989 
L 248.114914 108.497989 
L 248.114914 106.55164 
L 254.086578 106.55164 
L 254.086578 102.969256 
L 260.058242 102.969256 
L 260.058242 101.793669 
L 266.029906 101.793669 
L 266.029906 96.692624 
L 272.00157 96.692624 
L 272.00157 94.787211 
L 277.973234 94.787211 
L 277.973234 93.763961 
L 283.944898 93.763961 
L 283.944898 90.777189 
L 289.916562 90.777189 
L 289.916562 89.207225 
L 295.888226 89.207225 
L 295.888226 84.296113 
L 301.85989 84.296113 
L 301.85989 80.918209 
L 307.831554 80.918209 
L 307.831554 78.207499 
L 313.803218 78.207499 
L 313.803218 74.391854 
L 319.774882 74.391854 
L 319.774882 75.951975 
L 325.746546 75.951975 
L 325.746546 71.01216 
L 331.71821 71.01216 
L 331.71821 71.760807 
L 337.689874 71.760807 
L 337.689874 66.78077 
L 343.661538 66.78077 
" clip-path="url(#pb2742960b2)" style="fill: none; stroke: #ff7f0e; stroke-width: 1.5; stroke-linecap: square"/>
   </g>
   <g id="patch_3">
    <path d="M 51.05 223.886154 
L 51.05 26.64 
" style="fill: none; stroke: #000000; stroke-width: 0.8; stroke-linejoin: miter; stroke-linecap: square"/>
   </g>
   <g id="patch_4">
    <path d="M 343.661538 223.886154 
L 343.661538 26.64 
" style="fill: none; stroke: #000000; stroke-width: 0.8; stroke-linejoin: miter; stroke-linecap: square"/>
   </g>
   <g id="patch_5">
    <path d="M 51.05 223.886154 
L 343.661538 223.886154 
" style="fill: none; stroke: #000000; stroke-width: 0.8; stroke-linejoin: miter; stroke-linecap: square"/>
   </g>
   <g id="patch_6">
    <path d="M 51.05 26.64 
L 343.661538 26.64 
" style="fill: none; stroke: #000000; stroke-width: 0.8; stroke-linejoin: miter; stroke-linecap: square"/>
   </g>
   <g id="text_16">
    <!-- CMS -->
    <g transform="translate(51.05 22.956328) scale(0.169 -0.169)">
     <defs>
      <path id="TeXGyreHeros-Bold-43" d="M 4384 1594 
L 3450 1594 
C 3392 998 3014 730 2419 730 
C 1677 730 1242 1299 1242 2317 
C 1242 3347 1696 3923 2451 3923 
C 2970 3923 3309 3686 3450 3085 
L 4365 3085 
C 4282 4160 3469 4742 2419 4742 
C 1101 4742 282 3840 282 2330 
C 282 832 1094 -77 2394 -77 
C 3552 -77 4326 525 4384 1594 
z
" transform="scale(0.015625)"/>
      <path id="TeXGyreHeros-Bold-4d" d="M 4966 0 
L 4966 4666 
L 3520 4666 
L 2701 954 
L 1856 4666 
L 422 4666 
L 422 0 
L 1382 0 
L 1382 3635 
L 2221 0 
L 3181 0 
L 4006 3635 
L 4006 0 
L 4966 0 
z
" transform="scale(0.015625)"/>
      <path id="TeXGyreHeros-Bold-53" d="M 4051 1402 
C 4051 2138 3680 2483 2816 2650 
L 2086 2790 
C 1402 2925 1203 3059 1203 3398 
C 1203 3750 1517 3974 2010 3974 
C 2618 3974 2989 3718 2989 3245 
L 3885 3245 
C 3885 4230 3194 4742 2054 4742 
C 934 4742 288 4218 288 3309 
C 288 2579 653 2240 1600 2054 
L 2253 1926 
C 2893 1798 3130 1664 3130 1286 
C 3130 896 2771 691 2189 691 
C 1536 691 1139 966 1139 1466 
L 205 1466 
C 205 467 947 -77 2138 -77 
C 3341 -77 4051 454 4051 1402 
z
" transform="scale(0.015625)"/>
     </defs>
     <use xlink:href="#TeXGyreHeros-Bold-43"/>
     <use xlink:href="#TeXGyreHeros-Bold-4d" x="72.199982"/>
     <use xlink:href="#TeXGyreHeros-Bold-53" x="155.499969"/>
    </g>
   </g>
   <g id="text_17">
    <!-- Private work (CMS simulation) -->
    <g transform="translate(90.362 22.885175) scale(0.13 -0.13)">
     <defs>
      <path id="TeXGyreHeros-Italic-50" d="M 4371 3635 
C 4371 4314 3968 4666 3187 4666 
L 1254 4666 
L 262 0 
L 864 0 
L 1286 1978 
L 2746 1978 
C 3712 1978 4371 2771 4371 3635 
z
M 3757 3520 
C 3757 2957 3302 2502 2637 2502 
L 1395 2502 
L 1747 4141 
L 2989 4141 
C 3488 4141 3757 3923 3757 3520 
z
" transform="scale(0.015625)"/>
      <path id="TeXGyreHeros-Italic-72" d="M 2355 2886 
L 2470 3430 
C 2387 3443 2336 3450 2266 3450 
C 1894 3450 1606 3283 1210 2829 
L 1318 3354 
L 832 3354 
L 122 0 
L 659 0 
L 1030 1741 
C 1190 2496 1626 2886 2291 2886 
L 2355 2886 
z
" transform="scale(0.015625)"/>
      <path id="TeXGyreHeros-Italic-69" d="M 659 0 
L 1370 3354 
L 832 3354 
L 122 0 
L 659 0 
z
M 1677 4525 
L 1011 4525 
L 870 3866 
L 1536 3866 
L 1677 4525 
z
" transform="scale(0.015625)"/>
      <path id="TeXGyreHeros-Italic-76" d="M 3507 3354 
L 2925 3354 
L 1363 653 
L 1050 3354 
L 461 3354 
L 934 0 
L 1517 0 
L 3507 3354 
z
" transform="scale(0.015625)"/>
      <path id="TeXGyreHeros-Italic-61" d="M 3149 0 
L 3232 416 
C 3174 403 3149 403 3123 403 
C 2957 403 2880 461 2880 589 
C 2880 614 2880 634 2886 653 
L 3277 2490 
C 3315 2662 3315 2662 3315 2726 
C 3315 3162 2874 3450 2202 3450 
C 1312 3450 768 3072 646 2362 
L 1184 2362 
C 1312 2771 1587 2957 2061 2957 
C 2445 2957 2739 2784 2739 2547 
C 2739 2522 2733 2477 2726 2426 
L 2707 2310 
C 2662 2048 2515 1971 2061 1933 
C 1203 1850 934 1792 621 1594 
C 288 1382 102 1069 102 698 
C 102 186 454 -96 1030 -96 
C 1446 -96 1818 -38 2310 371 
L 2304 275 
C 2304 13 2502 -58 2810 -58 
C 2899 -58 2893 -45 3149 0 
z
M 2566 1651 
L 2451 1101 
C 2368 704 1805 365 1242 365 
C 877 365 666 493 666 762 
C 666 1165 954 1370 1632 1466 
C 2234 1549 2285 1555 2566 1651 
z
" transform="scale(0.015625)"/>
      <path id="TeXGyreHeros-Italic-74" d="M 1408 467 
C 1210 422 1178 416 1101 416 
C 960 416 870 486 870 589 
C 870 608 877 640 883 678 
L 1363 2925 
L 1933 2925 
L 2022 3354 
L 1453 3354 
L 1651 4275 
L 1114 4275 
L 915 3354 
L 461 3354 
L 371 2925 
L 826 2925 
L 339 659 
C 326 595 320 525 320 461 
C 320 147 538 -45 890 -45 
C 1018 -45 1216 -26 1306 0 
L 1408 467 
z
" transform="scale(0.015625)"/>
      <path id="TeXGyreHeros-Italic-65" d="M 3290 1523 
L 3302 1606 
C 3360 1914 3392 2182 3392 2355 
C 3392 2970 2861 3450 2170 3450 
C 1613 3450 1075 3187 755 2758 
C 454 2355 224 1651 224 1133 
C 224 467 717 -96 1498 -96 
C 2266 -96 2912 326 3110 1018 
L 2573 1018 
C 2355 627 2016 397 1587 397 
C 1082 397 787 685 787 1229 
C 781 1338 787 1402 819 1523 
L 3290 1523 
z
M 2816 1984 
L 934 1984 
C 1094 2547 1568 2957 2086 2957 
C 2541 2957 2829 2650 2829 2170 
C 2829 2106 2822 2061 2816 1984 
z
" transform="scale(0.015625)"/>
      <path id="TeXGyreHeros-Italic-20" transform="scale(0.015625)"/>
      <path id="TeXGyreHeros-Italic-77" d="M 4928 3354 
L 4346 3354 
L 3091 742 
L 3091 3354 
L 2349 3354 
L 1139 742 
L 1139 3354 
L 435 3354 
L 691 0 
L 1306 0 
L 2554 2675 
L 2554 0 
L 3238 0 
L 4928 3354 
z
" transform="scale(0.015625)"/>
      <path id="TeXGyreHeros-Italic-6f" d="M 3366 2253 
C 3366 2931 2906 3450 2138 3450 
C 934 3450 198 2342 198 1075 
C 198 365 698 -96 1414 -96 
C 2579 -96 3366 922 3366 2253 
z
M 2803 2131 
C 2803 1178 2266 397 1504 397 
C 1050 397 762 691 762 1203 
C 762 2131 1299 2957 2054 2957 
C 2528 2957 2803 2650 2803 2131 
z
" transform="scale(0.015625)"/>
      <path id="TeXGyreHeros-Italic-6b" d="M 2893 0 
L 1997 2195 
L 3418 3354 
L 2726 3354 
L 1005 1958 
L 1581 4666 
L 1043 4666 
L 51 0 
L 589 0 
L 864 1299 
L 1549 1862 
L 2278 0 
L 2893 0 
z
" transform="scale(0.015625)"/>
      <path id="TeXGyreHeros-Italic-28" d="M 1254 -1363 
C 1018 -749 902 -147 902 506 
C 902 1926 1459 3347 2534 4666 
L 2182 4666 
C 1069 3501 403 2042 403 742 
C 403 -19 589 -813 902 -1363 
L 1254 -1363 
z
" transform="scale(0.015625)"/>
      <path id="TeXGyreHeros-Italic-43" d="M 4384 1702 
L 3757 1702 
C 3354 787 2950 403 2125 403 
C 1459 403 1018 922 1018 1696 
C 1018 2278 1210 2925 1536 3411 
C 1926 3987 2394 4262 2982 4262 
C 3629 4262 3942 3910 3994 3219 
L 4608 3219 
C 4557 4262 3974 4781 3091 4781 
C 2342 4781 1722 4480 1222 3878 
C 717 3270 403 2381 403 1581 
C 403 563 1011 -115 2035 -115 
C 3162 -115 3840 410 4384 1702 
z
" transform="scale(0.015625)"/>
      <path id="TeXGyreHeros-Italic-4d" d="M 5542 4666 
L 4704 4666 
L 2490 653 
L 1978 4666 
L 1152 4666 
L 160 0 
L 730 0 
L 1555 3872 
L 2048 0 
L 2669 0 
L 4806 3872 
L 3981 0 
L 4550 0 
L 5542 4666 
z
" transform="scale(0.015625)"/>
      <path id="TeXGyreHeros-Italic-53" d="M 3968 1549 
C 3968 1978 3667 2349 3187 2490 
L 2086 2803 
C 1594 2944 1440 3072 1440 3354 
C 1440 3866 1952 4262 2694 4262 
C 3398 4262 3667 3994 3667 3565 
C 3667 3507 3661 3462 3642 3334 
L 4205 3334 
C 4243 3514 4256 3597 4256 3693 
C 4256 4339 3712 4781 2810 4781 
C 2150 4781 1632 4595 1286 4237 
C 1024 3968 826 3514 826 3187 
C 826 2784 1107 2445 1536 2323 
L 2630 2010 
C 3142 1862 3354 1670 3354 1370 
C 3354 838 2771 403 1901 403 
C 1178 403 845 672 845 1254 
C 845 1338 851 1395 870 1517 
L 314 1517 
C 269 1350 256 1248 256 1114 
C 256 346 832 -115 1798 -115 
C 2470 -115 3034 70 3411 422 
C 3738 723 3968 1190 3968 1549 
z
" transform="scale(0.015625)"/>
      <path id="TeXGyreHeros-Italic-73" d="M 2848 1158 
C 2848 1549 2637 1754 2074 1894 
L 1587 2016 
C 1229 2106 1043 2234 1043 2400 
C 1043 2726 1363 2957 1850 2957 
C 2227 2957 2438 2810 2438 2560 
C 2438 2515 2438 2470 2432 2419 
L 2970 2419 
C 3002 2554 3008 2611 3008 2694 
C 3008 3142 2579 3450 1958 3450 
C 1069 3450 480 2938 480 2259 
C 480 1869 704 1677 1363 1510 
L 1837 1389 
C 2240 1286 2285 1146 2285 1011 
C 2285 646 1862 397 1370 397 
C 928 397 678 570 678 890 
C 678 928 685 986 691 1050 
L 122 1050 
C 90 902 83 826 83 723 
C 83 211 531 -96 1274 -96 
C 2227 -96 2848 397 2848 1158 
z
" transform="scale(0.015625)"/>
      <path id="TeXGyreHeros-Italic-6d" d="M 4589 0 
L 5094 2387 
C 5114 2458 5133 2669 5133 2739 
C 5133 3072 4883 3450 4320 3450 
C 3904 3450 3539 3283 3162 2918 
C 3059 3277 2810 3450 2387 3450 
C 1952 3450 1658 3322 1248 2938 
L 1331 3354 
L 845 3354 
L 134 0 
L 672 0 
L 1120 2106 
C 1222 2592 1658 2989 2086 2989 
C 2400 2989 2611 2810 2611 2547 
C 2611 2477 2605 2394 2586 2310 
L 2093 0 
L 2630 0 
L 3078 2106 
C 3181 2605 3616 2989 4083 2989 
C 4384 2989 4570 2803 4570 2496 
C 4570 2400 4570 2400 4512 2182 
L 4051 0 
L 4589 0 
z
" transform="scale(0.015625)"/>
      <path id="TeXGyreHeros-Italic-75" d="M 2771 0 
L 3482 3354 
L 2944 3354 
L 2554 1504 
C 2406 813 1952 365 1408 365 
C 1062 365 838 557 838 858 
C 838 909 845 966 858 1030 
L 1350 3354 
L 813 3354 
L 275 819 
C 262 755 256 685 256 602 
C 256 166 589 -96 1139 -96 
C 1638 -96 2003 58 2368 390 
L 2285 0 
L 2771 0 
z
" transform="scale(0.015625)"/>
      <path id="TeXGyreHeros-Italic-6c" d="M 1645 4666 
L 1107 4666 
L 115 0 
L 653 0 
L 1645 4666 
z
" transform="scale(0.015625)"/>
      <path id="TeXGyreHeros-Italic-6e" d="M 3328 2406 
C 3347 2490 3354 2566 3354 2650 
C 3354 3136 3014 3450 2483 3450 
C 1997 3450 1574 3277 1242 2938 
L 1325 3354 
L 838 3354 
L 128 0 
L 666 0 
L 1056 1850 
C 1203 2554 1658 2989 2234 2989 
C 2554 2989 2790 2765 2790 2470 
C 2790 2432 2771 2336 2752 2234 
L 2278 0 
L 2816 0 
L 3328 2406 
z
" transform="scale(0.015625)"/>
      <path id="TeXGyreHeros-Italic-29" d="M 1760 2605 
C 1760 3328 1568 4134 1267 4666 
L 915 4666 
C 1158 4045 1267 3443 1267 2758 
C 1267 1376 698 -64 -365 -1363 
L -13 -1363 
C 1094 -205 1760 1274 1760 2605 
z
" transform="scale(0.015625)"/>
     </defs>
     <use xlink:href="#TeXGyreHeros-Italic-50"/>
     <use xlink:href="#TeXGyreHeros-Italic-72" x="66.699997"/>
     <use xlink:href="#TeXGyreHeros-Italic-69" x="99.999985"/>
     <use xlink:href="#TeXGyreHeros-Italic-76" x="122.199982"/>
     <use xlink:href="#TeXGyreHeros-Italic-61" x="172.199966"/>
     <use xlink:href="#TeXGyreHeros-Italic-74" x="227.799957"/>
     <use xlink:href="#TeXGyreHeros-Italic-65" x="255.599945"/>
     <use xlink:href="#TeXGyreHeros-Italic-20" x="311.199936"/>
     <use xlink:href="#TeXGyreHeros-Italic-77" x="338.999924"/>
     <use xlink:href="#TeXGyreHeros-Italic-6f" x="411.199905"/>
     <use xlink:href="#TeXGyreHeros-Italic-72" x="466.799896"/>
     <use xlink:href="#TeXGyreHeros-Italic-6b" x="500.099884"/>
     <use xlink:href="#TeXGyreHeros-Italic-20" x="550.099869"/>
     <use xlink:href="#TeXGyreHeros-Italic-28" x="577.899857"/>
     <use xlink:href="#TeXGyreHeros-Italic-43" x="611.199844"/>
     <use xlink:href="#TeXGyreHeros-Italic-4d" x="683.399826"/>
     <use xlink:href="#TeXGyreHeros-Italic-53" x="766.699814"/>
     <use xlink:href="#TeXGyreHeros-Italic-20" x="833.399811"/>
     <use xlink:href="#TeXGyreHeros-Italic-73" x="861.199799"/>
     <use xlink:href="#TeXGyreHeros-Italic-69" x="911.199783"/>
     <use xlink:href="#TeXGyreHeros-Italic-6d" x="933.39978"/>
     <use xlink:href="#TeXGyreHeros-Italic-75" x="1016.699768"/>
     <use xlink:href="#TeXGyreHeros-Italic-6c" x="1072.299759"/>
     <use xlink:href="#TeXGyreHeros-Italic-61" x="1094.499756"/>
     <use xlink:href="#TeXGyreHeros-Italic-74" x="1150.099747"/>
     <use xlink:href="#TeXGyreHeros-Italic-69" x="1177.899734"/>
     <use xlink:href="#TeXGyreHeros-Italic-6f" x="1200.099731"/>
     <use xlink:href="#TeXGyreHeros-Italic-6e" x="1255.699722"/>
     <use xlink:href="#TeXGyreHeros-Italic-29" x="1311.299713"/>
    </g>
   </g>
   <g id="legend_1">
    <g id="patch_7">
     <path d="M 191.336538 63.99625 
L 336.661538 63.99625 
Q 338.661538 63.99625 338.661538 61.99625 
L 338.661538 33.64 
Q 338.661538 31.64 336.661538 31.64 
L 191.336538 31.64 
Q 189.336538 31.64 189.336538 33.64 
L 189.336538 61.99625 
Q 189.336538 63.99625 191.336538 63.99625 
z
" style="fill: #ffffff; opacity: 0.8; stroke: #cccccc; stroke-linejoin: miter"/>
    </g>
    <g id="line2d_29">
     <path d="M 193.336538 39.738437 
L 193.336538 39.738437 
L 203.336538 39.738437 
L 203.336538 39.738437 
L 213.336538 39.738437 
" style="fill: none; stroke: #1f77b4; stroke-width: 1.5; stroke-linecap: square"/>
    </g>
    <g id="text_18">
     <!-- Network -->
     <g transform="translate(221.336538 43.238437) scale(0.1 -0.1)">
      <defs>
       <path id="DejaVuSans-4e" d="M 628 4666 
L 1478 4666 
L 3547 763 
L 3547 4666 
L 4159 4666 
L 4159 0 
L 3309 0 
L 1241 3903 
L 1241 0 
L 628 0 
L 628 4666 
z
" transform="scale(0.015625)"/>
       <path id="DejaVuSans-77" d="M 269 3500 
L 844 3500 
L 1563 769 
L 2278 3500 
L 2956 3500 
L 3675 769 
L 4391 3500 
L 4966 3500 
L 4050 0 
L 3372 0 
L 2619 2869 
L 1863 0 
L 1184 0 
L 269 3500 
z
" transform="scale(0.015625)"/>
      </defs>
      <use xlink:href="#DejaVuSans-4e"/>
      <use xlink:href="#DejaVuSans-65" x="74.804688"/>
      <use xlink:href="#DejaVuSans-74" x="136.328125"/>
      <use xlink:href="#DejaVuSans-77" x="175.537109"/>
      <use xlink:href="#DejaVuSans-6f" x="257.324219"/>
      <use xlink:href="#DejaVuSans-72" x="318.505859"/>
      <use xlink:href="#DejaVuSans-6b" x="359.619141"/>
     </g>
    </g>
    <g id="line2d_30">
     <path d="M 193.336538 54.416562 
L 193.336538 54.416562 
L 203.336538 54.416562 
L 203.336538 54.416562 
L 213.336538 54.416562 
" style="fill: none; stroke: #ff7f0e; stroke-width: 1.5; stroke-linecap: square"/>
    </g>
    <g id="text_19">
     <!-- Analytic Sonnenschein -->
     <g transform="translate(221.336538 57.916562) scale(0.1 -0.1)">
      <defs>
       <path id="DejaVuSans-41" d="M 2188 4044 
L 1331 1722 
L 3047 1722 
L 2188 4044 
z
M 1831 4666 
L 2547 4666 
L 4325 0 
L 3669 0 
L 3244 1197 
L 1141 1197 
L 716 0 
L 50 0 
L 1831 4666 
z
" transform="scale(0.015625)"/>
       <path id="DejaVuSans-6c" d="M 603 4863 
L 1178 4863 
L 1178 0 
L 603 0 
L 603 4863 
z
" transform="scale(0.015625)"/>
       <path id="DejaVuSans-63" d="M 3122 3366 
L 3122 2828 
Q 2878 2963 2633 3030 
Q 2388 3097 2138 3097 
Q 1578 3097 1268 2742 
Q 959 2388 959 1747 
Q 959 1106 1268 751 
Q 1578 397 2138 397 
Q 2388 397 2633 464 
Q 2878 531 3122 666 
L 3122 134 
Q 2881 22 2623 -34 
Q 2366 -91 2075 -91 
Q 1284 -91 818 406 
Q 353 903 353 1747 
Q 353 2603 823 3093 
Q 1294 3584 2113 3584 
Q 2378 3584 2631 3529 
Q 2884 3475 3122 3366 
z
" transform="scale(0.015625)"/>
       <path id="DejaVuSans-53" d="M 3425 4513 
L 3425 3897 
Q 3066 4069 2747 4153 
Q 2428 4238 2131 4238 
Q 1616 4238 1336 4038 
Q 1056 3838 1056 3469 
Q 1056 3159 1242 3001 
Q 1428 2844 1947 2747 
L 2328 2669 
Q 3034 2534 3370 2195 
Q 3706 1856 3706 1288 
Q 3706 609 3251 259 
Q 2797 -91 1919 -91 
Q 1588 -91 1214 -16 
Q 841 59 441 206 
L 441 856 
Q 825 641 1194 531 
Q 1563 422 1919 422 
Q 2459 422 2753 634 
Q 3047 847 3047 1241 
Q 3047 1584 2836 1778 
Q 2625 1972 2144 2069 
L 1759 2144 
Q 1053 2284 737 2584 
Q 422 2884 422 3419 
Q 422 4038 858 4394 
Q 1294 4750 2059 4750 
Q 2388 4750 2728 4690 
Q 3069 4631 3425 4513 
z
" transform="scale(0.015625)"/>
       <path id="DejaVuSans-68" d="M 3513 2113 
L 3513 0 
L 2938 0 
L 2938 2094 
Q 2938 2591 2744 2837 
Q 2550 3084 2163 3084 
Q 1697 3084 1428 2787 
Q 1159 2491 1159 1978 
L 1159 0 
L 581 0 
L 581 4863 
L 1159 4863 
L 1159 2956 
Q 1366 3272 1645 3428 
Q 1925 3584 2291 3584 
Q 2894 3584 3203 3211 
Q 3513 2838 3513 2113 
z
" transform="scale(0.015625)"/>
      </defs>
      <use xlink:href="#DejaVuSans-41"/>
      <use xlink:href="#DejaVuSans-6e" x="68.408203"/>
      <use xlink:href="#DejaVuSans-61" x="131.787109"/>
      <use xlink:href="#DejaVuSans-6c" x="193.066406"/>
      <use xlink:href="#DejaVuSans-79" x="220.849609"/>
      <use xlink:href="#DejaVuSans-74" x="280.029297"/>
      <use xlink:href="#DejaVuSans-69" x="319.238281"/>
      <use xlink:href="#DejaVuSans-63" x="347.021484"/>
      <use xlink:href="#DejaVuSans-20" x="402.001953"/>
      <use xlink:href="#DejaVuSans-53" x="433.789062"/>
      <use xlink:href="#DejaVuSans-6f" x="497.265625"/>
      <use xlink:href="#DejaVuSans-6e" x="558.447266"/>
      <use xlink:href="#DejaVuSans-6e" x="621.826172"/>
      <use xlink:href="#DejaVuSans-65" x="685.205078"/>
      <use xlink:href="#DejaVuSans-6e" x="746.728516"/>
      <use xlink:href="#DejaVuSans-73" x="810.107422"/>
      <use xlink:href="#DejaVuSans-63" x="862.207031"/>
      <use xlink:href="#DejaVuSans-68" x="917.1875"/>
      <use xlink:href="#DejaVuSans-65" x="980.566406"/>
      <use xlink:href="#DejaVuSans-69" x="1042.089844"/>
      <use xlink:href="#DejaVuSans-6e" x="1069.873047"/>
     </g>
    </g>
   </g>
  </g>
 </g>
 <defs>
  <clipPath id="pb2742960b2">
   <rect x="51.05" y="26.64" width="292.611538" height="197.246154"/>
  </clipPath>
 </defs>
</svg>
