<?xml version="1.0" encoding="utf-8" standalone="no"?>
<!DOCTYPE svg PUBLIC "-//W3C//DTD SVG 1.1//EN"
  "http://www.w3.org/Graphics/SVG/1.1/DTD/svg11.dtd">
<svg xmlns:xlink="http://www.w3.org/1999/xlink" width="354.461538pt" height="265.846154pt" viewBox="0 0 354.461538 265.846154" xmlns="http://www.w3.org/2000/svg" version="1.1">
 <metadata>
  <rdf:RDF xmlns:dc="http://purl.org/dc/elements/1.1/" xmlns:cc="http://creativecommons.org/ns#" xmlns:rdf="http://www.w3.org/1999/02/22-rdf-syntax-ns#">
   <cc:Work>
    <dc:type rdf:resource="http://purl.org/dc/dcmitype/StillImage"/>
    <dc:date>2024-08-05T21:02:18.795923</dc:date>
    <dc:format>image/svg+xml</dc:format>
    <dc:creator>
     <cc:Agent>
      <dc:title>Matplotlib v3.7.1, https://matplotlib.org/</dc:title>
     </cc:Agent>
    </dc:creator>
   </cc:Work>
  </rdf:RDF>
 </metadata>
 <defs>
  <style type="text/css">*{stroke-linejoin: round; stroke-linecap: butt}</style>
 </defs>
 <g id="figure_1">
  <g id="patch_1">
   <path d="M 0 265.846154 
L 354.461538 265.846154 
L 354.461538 0 
L 0 0 
z
" style="fill: #ffffff"/>
  </g>
  <g id="axes_1">
   <g id="patch_2">
    <path d="M 56.18 221.128654 
L 342.116661 221.128654 
L 342.116661 26.64 
L 56.18 26.64 
z
" style="fill: #ffffff"/>
   </g>
   <g id="PolyCollection_1">
    <defs>
     <path id="md2a12d29ed" d="M 56.18 -200.211867 
L 56.18 -110.846124 
L 56.18 -110.846124 
L 62.015442 -110.846124 
L 62.015442 -105.47298 
L 67.850884 -105.47298 
L 67.850884 -99.706338 
L 73.686326 -99.706338 
L 73.686326 -95.576411 
L 79.521768 -95.576411 
L 79.521768 -92.160345 
L 85.35721 -92.160345 
L 85.35721 -88.952835 
L 91.192652 -88.952835 
L 91.192652 -86.077843 
L 97.028094 -86.077843 
L 97.028094 -82.749356 
L 102.863537 -82.749356 
L 102.863537 -80.424492 
L 108.698979 -80.424492 
L 108.698979 -78.710102 
L 114.534421 -78.710102 
L 114.534421 -76.407212 
L 120.369863 -76.407212 
L 120.369863 -74.943235 
L 126.205305 -74.943235 
L 126.205305 -73.299992 
L 132.040747 -73.299992 
L 132.040747 -72.402603 
L 137.876189 -72.402603 
L 137.876189 -71.610969 
L 143.711631 -71.610969 
L 143.711631 -70.220405 
L 149.547073 -70.220405 
L 149.547073 -69.85947 
L 155.382515 -69.85947 
L 155.382515 -68.469393 
L 161.217957 -68.469393 
L 161.217957 -68.417292 
L 167.053399 -68.417292 
L 167.053399 -69.041083 
L 172.888841 -69.041083 
L 172.888841 -66.364185 
L 178.724283 -66.364185 
L 178.724283 -65.640923 
L 184.559726 -65.640923 
L 184.559726 -64.850794 
L 190.395168 -64.850794 
L 190.395168 -64.709978 
L 196.23061 -64.709978 
L 196.23061 -64.926271 
L 202.066052 -64.926271 
L 202.066052 -62.867489 
L 207.901494 -62.867489 
L 207.901494 -62.673888 
L 213.736936 -62.673888 
L 213.736936 -63.308486 
L 219.572378 -63.308486 
L 219.572378 -63.769674 
L 225.40782 -63.769674 
L 225.40782 -61.870926 
L 231.243262 -61.870926 
L 231.243262 -61.349456 
L 237.078704 -61.349456 
L 237.078704 -62.23316 
L 242.914146 -62.23316 
L 242.914146 -62.326163 
L 248.749588 -62.326163 
L 248.749588 -59.862882 
L 254.58503 -59.862882 
L 254.58503 -58.941429 
L 260.420472 -58.941429 
L 260.420472 -60.214273 
L 266.255914 -60.214273 
L 266.255914 -59.028453 
L 272.091357 -59.028453 
L 272.091357 -59.264602 
L 277.926799 -59.264602 
L 277.926799 -58.27521 
L 283.762241 -58.27521 
L 283.762241 -57.125679 
L 289.597683 -57.125679 
L 289.597683 -55.686396 
L 295.433125 -55.686396 
L 295.433125 -56.860036 
L 301.268567 -56.860036 
L 301.268567 -57.360094 
L 307.104009 -57.360094 
L 307.104009 -55.096318 
L 312.939451 -55.096318 
L 312.939451 -56.479338 
L 318.774893 -56.479338 
L 318.774893 -54.640794 
L 324.610335 -54.640794 
L 324.610335 -56.23201 
L 330.445777 -56.23201 
L 330.445777 -53.557893 
L 336.281219 -53.557893 
L 336.281219 -55.128 
L 342.116661 -55.128 
L 342.116661 -144.493743 
L 342.116661 -144.493743 
L 336.281219 -144.493743 
L 336.281219 -142.923636 
L 330.445777 -142.923636 
L 330.445777 -145.597753 
L 324.610335 -145.597753 
L 324.610335 -144.006537 
L 318.774893 -144.006537 
L 318.774893 -145.845081 
L 312.939451 -145.845081 
L 312.939451 -144.462061 
L 307.104009 -144.462061 
L 307.104009 -146.725837 
L 301.268567 -146.725837 
L 301.268567 -146.225779 
L 295.433125 -146.225779 
L 295.433125 -145.052138 
L 289.597683 -145.052138 
L 289.597683 -146.491422 
L 283.762241 -146.491422 
L 283.762241 -147.640953 
L 277.926799 -147.640953 
L 277.926799 -148.630345 
L 272.091357 -148.630345 
L 272.091357 -148.394196 
L 266.255914 -148.394196 
L 266.255914 -149.580016 
L 260.420472 -149.580016 
L 260.420472 -148.307172 
L 254.58503 -148.307172 
L 254.58503 -149.228625 
L 248.749588 -149.228625 
L 248.749588 -151.691906 
L 242.914146 -151.691906 
L 242.914146 -151.598903 
L 237.078704 -151.598903 
L 237.078704 -150.715199 
L 231.243262 -150.715199 
L 231.243262 -151.236669 
L 225.40782 -151.236669 
L 225.40782 -153.135417 
L 219.572378 -153.135417 
L 219.572378 -152.674229 
L 213.736936 -152.674229 
L 213.736936 -152.039631 
L 207.901494 -152.039631 
L 207.901494 -152.233232 
L 202.066052 -152.233232 
L 202.066052 -154.292014 
L 196.23061 -154.292014 
L 196.23061 -154.075721 
L 190.395168 -154.075721 
L 190.395168 -154.216537 
L 184.559726 -154.216537 
L 184.559726 -155.006666 
L 178.724283 -155.006666 
L 178.724283 -155.729928 
L 172.888841 -155.729928 
L 172.888841 -158.406826 
L 167.053399 -158.406826 
L 167.053399 -157.783035 
L 161.217957 -157.783035 
L 161.217957 -157.835136 
L 155.382515 -157.835136 
L 155.382515 -159.225213 
L 149.547073 -159.225213 
L 149.547073 -159.586148 
L 143.711631 -159.586148 
L 143.711631 -160.976712 
L 137.876189 -160.976712 
L 137.876189 -161.768346 
L 132.040747 -161.768346 
L 132.040747 -162.665735 
L 126.205305 -162.665735 
L 126.205305 -164.308978 
L 120.369863 -164.308978 
L 120.369863 -165.772955 
L 114.534421 -165.772955 
L 114.534421 -168.075845 
L 108.698979 -168.075845 
L 108.698979 -169.790235 
L 102.863537 -169.790235 
L 102.863537 -172.115099 
L 97.028094 -172.115099 
L 97.028094 -175.443586 
L 91.192652 -175.443586 
L 91.192652 -178.318578 
L 85.35721 -178.318578 
L 85.35721 -181.526088 
L 79.521768 -181.526088 
L 79.521768 -184.942154 
L 73.686326 -184.942154 
L 73.686326 -189.072081 
L 67.850884 -189.072081 
L 67.850884 -194.838723 
L 62.015442 -194.838723 
L 62.015442 -200.211867 
L 56.18 -200.211867 
L 56.18 -200.211867 
z
" style="stroke: #1f77b4; stroke-opacity: 0.5"/>
    </defs>
    <g clip-path="url(#p4a6fa0d50d)">
     <use xlink:href="#md2a12d29ed" x="0" y="265.846154" style="fill: #1f77b4; fill-opacity: 0.5; stroke: #1f77b4; stroke-opacity: 0.5"/>
    </g>
   </g>
   <g id="PolyCollection_2">
    <defs>
     <path id="m52ff4ecb99" d="M 56.18 -230.36576 
L 56.18 -110.713101 
L 56.18 -110.713101 
L 62.015442 -110.713101 
L 62.015442 -106.889748 
L 67.850884 -106.889748 
L 67.850884 -103.338372 
L 73.686326 -103.338372 
L 73.686326 -101.283317 
L 79.521768 -101.283317 
L 79.521768 -98.961536 
L 85.35721 -98.961536 
L 85.35721 -97.550847 
L 91.192652 -97.550847 
L 91.192652 -96.793327 
L 97.028094 -96.793327 
L 97.028094 -94.441794 
L 102.863537 -94.441794 
L 102.863537 -94.275626 
L 108.698979 -94.275626 
L 108.698979 -93.180184 
L 114.534421 -93.180184 
L 114.534421 -92.773572 
L 120.369863 -92.773572 
L 120.369863 -92.49293 
L 126.205305 -92.49293 
L 126.205305 -92.25803 
L 132.040747 -92.25803 
L 132.040747 -91.995885 
L 137.876189 -91.995885 
L 137.876189 -92.113483 
L 143.711631 -92.113483 
L 143.711631 -92.744323 
L 149.547073 -92.744323 
L 149.547073 -92.74669 
L 155.382515 -92.74669 
L 155.382515 -91.083868 
L 161.217957 -91.083868 
L 161.217957 -92.362613 
L 167.053399 -92.362613 
L 167.053399 -95.555023 
L 172.888841 -95.555023 
L 172.888841 -92.166454 
L 178.724283 -92.166454 
L 178.724283 -91.794511 
L 184.559726 -91.794511 
L 184.559726 -91.007426 
L 190.395168 -91.007426 
L 190.395168 -92.379024 
L 196.23061 -92.379024 
L 196.23061 -95.343148 
L 202.066052 -95.343148 
L 202.066052 -91.826804 
L 207.901494 -91.826804 
L 207.901494 -94.419223 
L 213.736936 -94.419223 
L 213.736936 -93.872153 
L 219.572378 -93.872153 
L 219.572378 -94.468226 
L 225.40782 -94.468226 
L 225.40782 -93.579785 
L 231.243262 -93.579785 
L 231.243262 -93.872186 
L 237.078704 -93.872186 
L 237.078704 -95.981297 
L 242.914146 -95.981297 
L 242.914146 -94.498504 
L 248.749588 -94.498504 
L 248.749588 -93.369873 
L 254.58503 -93.369873 
L 254.58503 -95.310058 
L 260.420472 -95.310058 
L 260.420472 -97.009125 
L 266.255914 -97.009125 
L 266.255914 -96.314072 
L 272.091357 -96.314072 
L 272.091357 -95.939741 
L 277.926799 -95.939741 
L 277.926799 -93.753759 
L 283.762241 -93.753759 
L 283.762241 -94.418436 
L 289.597683 -94.418436 
L 289.597683 -94.497922 
L 295.433125 -94.497922 
L 295.433125 -96.242098 
L 301.268567 -96.242098 
L 301.268567 -95.057277 
L 307.104009 -95.057277 
L 307.104009 -96.481487 
L 312.939451 -96.481487 
L 312.939451 -97.516625 
L 318.774893 -97.516625 
L 318.774893 -98.771234 
L 324.610335 -98.771234 
L 324.610335 -97.43485 
L 330.445777 -97.43485 
L 330.445777 -94.962973 
L 336.281219 -94.962973 
L 336.281219 -95.282782 
L 342.116661 -95.282782 
L 342.116661 -214.935442 
L 342.116661 -214.935442 
L 336.281219 -214.935442 
L 336.281219 -214.615633 
L 330.445777 -214.615633 
L 330.445777 -217.087509 
L 324.610335 -217.087509 
L 324.610335 -218.423893 
L 318.774893 -218.423893 
L 318.774893 -217.169284 
L 312.939451 -217.169284 
L 312.939451 -216.134147 
L 307.104009 -216.134147 
L 307.104009 -214.709936 
L 301.268567 -214.709936 
L 301.268567 -215.894758 
L 295.433125 -215.894758 
L 295.433125 -214.150581 
L 289.597683 -214.150581 
L 289.597683 -214.071096 
L 283.762241 -214.071096 
L 283.762241 -213.406419 
L 277.926799 -213.406419 
L 277.926799 -215.5924 
L 272.091357 -215.5924 
L 272.091357 -215.966732 
L 266.255914 -215.966732 
L 266.255914 -216.661784 
L 260.420472 -216.661784 
L 260.420472 -214.962717 
L 254.58503 -214.962717 
L 254.58503 -213.022532 
L 248.749588 -213.022532 
L 248.749588 -214.151163 
L 242.914146 -214.151163 
L 242.914146 -215.633957 
L 237.078704 -215.633957 
L 237.078704 -213.524845 
L 231.243262 -213.524845 
L 231.243262 -213.232445 
L 225.40782 -213.232445 
L 225.40782 -214.120886 
L 219.572378 -214.120886 
L 219.572378 -213.524812 
L 213.736936 -213.524812 
L 213.736936 -214.071883 
L 207.901494 -214.071883 
L 207.901494 -211.479463 
L 202.066052 -211.479463 
L 202.066052 -214.995807 
L 196.23061 -214.995807 
L 196.23061 -212.031684 
L 190.395168 -212.031684 
L 190.395168 -210.660085 
L 184.559726 -210.660085 
L 184.559726 -211.447171 
L 178.724283 -211.447171 
L 178.724283 -211.819113 
L 172.888841 -211.819113 
L 172.888841 -215.207683 
L 167.053399 -215.207683 
L 167.053399 -212.015272 
L 161.217957 -212.015272 
L 161.217957 -210.736528 
L 155.382515 -210.736528 
L 155.382515 -212.39935 
L 149.547073 -212.39935 
L 149.547073 -212.396982 
L 143.711631 -212.396982 
L 143.711631 -211.766143 
L 137.876189 -211.766143 
L 137.876189 -211.648544 
L 132.040747 -211.648544 
L 132.040747 -211.91069 
L 126.205305 -211.91069 
L 126.205305 -212.145589 
L 120.369863 -212.145589 
L 120.369863 -212.426232 
L 114.534421 -212.426232 
L 114.534421 -212.832843 
L 108.698979 -212.832843 
L 108.698979 -213.928286 
L 102.863537 -213.928286 
L 102.863537 -214.094454 
L 97.028094 -214.094454 
L 97.028094 -216.445987 
L 91.192652 -216.445987 
L 91.192652 -217.203507 
L 85.35721 -217.203507 
L 85.35721 -218.614196 
L 79.521768 -218.614196 
L 79.521768 -220.935977 
L 73.686326 -220.935977 
L 73.686326 -222.991032 
L 67.850884 -222.991032 
L 67.850884 -226.542407 
L 62.015442 -226.542407 
L 62.015442 -230.36576 
L 56.18 -230.36576 
L 56.18 -230.36576 
z
" style="stroke: #ff7f0e; stroke-opacity: 0.5"/>
    </defs>
    <g clip-path="url(#p4a6fa0d50d)">
     <use xlink:href="#m52ff4ecb99" x="0" y="265.846154" style="fill: #ff7f0e; fill-opacity: 0.5; stroke: #ff7f0e; stroke-opacity: 0.5"/>
    </g>
   </g>
   <g id="matplotlib.axis_1">
    <g id="xtick_1">
     <g id="line2d_1">
      <path d="M 86.493116 221.128654 
L 86.493116 26.64 
" clip-path="url(#p4a6fa0d50d)" style="fill: none; stroke: #b0b0b0; stroke-width: 0.8; stroke-linecap: square"/>
     </g>
     <g id="line2d_2">
      <defs>
       <path id="mf2575693e2" d="M 0 0 
L 0 3.5 
" style="stroke: #000000; stroke-width: 0.8"/>
      </defs>
      <g>
       <use xlink:href="#mf2575693e2" x="86.493116" y="221.128654" style="stroke: #000000; stroke-width: 0.8"/>
      </g>
     </g>
     <g id="text_1">
      <!-- 400 -->
      <g transform="translate(76.949366 235.727091) scale(0.1 -0.1)">
       <defs>
        <path id="DejaVuSans-34" d="M 2419 4116 
L 825 1625 
L 2419 1625 
L 2419 4116 
z
M 2253 4666 
L 3047 4666 
L 3047 1625 
L 3713 1625 
L 3713 1100 
L 3047 1100 
L 3047 0 
L 2419 0 
L 2419 1100 
L 313 1100 
L 313 1709 
L 2253 4666 
z
" transform="scale(0.015625)"/>
        <path id="DejaVuSans-30" d="M 2034 4250 
Q 1547 4250 1301 3770 
Q 1056 3291 1056 2328 
Q 1056 1369 1301 889 
Q 1547 409 2034 409 
Q 2525 409 2770 889 
Q 3016 1369 3016 2328 
Q 3016 3291 2770 3770 
Q 2525 4250 2034 4250 
z
M 2034 4750 
Q 2819 4750 3233 4129 
Q 3647 3509 3647 2328 
Q 3647 1150 3233 529 
Q 2819 -91 2034 -91 
Q 1250 -91 836 529 
Q 422 1150 422 2328 
Q 422 3509 836 4129 
Q 1250 4750 2034 4750 
z
" transform="scale(0.015625)"/>
       </defs>
       <use xlink:href="#DejaVuSans-34"/>
       <use xlink:href="#DejaVuSans-30" x="63.623047"/>
       <use xlink:href="#DejaVuSans-30" x="127.246094"/>
      </g>
     </g>
    </g>
    <g id="xtick_2">
     <g id="line2d_3">
      <path d="M 121.815227 221.128654 
L 121.815227 26.64 
" clip-path="url(#p4a6fa0d50d)" style="fill: none; stroke: #b0b0b0; stroke-width: 0.8; stroke-linecap: square"/>
     </g>
     <g id="line2d_4">
      <g>
       <use xlink:href="#mf2575693e2" x="121.815227" y="221.128654" style="stroke: #000000; stroke-width: 0.8"/>
      </g>
     </g>
     <g id="text_2">
      <!-- 450 -->
      <g transform="translate(112.271477 235.727091) scale(0.1 -0.1)">
       <defs>
        <path id="DejaVuSans-35" d="M 691 4666 
L 3169 4666 
L 3169 4134 
L 1269 4134 
L 1269 2991 
Q 1406 3038 1543 3061 
Q 1681 3084 1819 3084 
Q 2600 3084 3056 2656 
Q 3513 2228 3513 1497 
Q 3513 744 3044 326 
Q 2575 -91 1722 -91 
Q 1428 -91 1123 -41 
Q 819 9 494 109 
L 494 744 
Q 775 591 1075 516 
Q 1375 441 1709 441 
Q 2250 441 2565 725 
Q 2881 1009 2881 1497 
Q 2881 1984 2565 2268 
Q 2250 2553 1709 2553 
Q 1456 2553 1204 2497 
Q 953 2441 691 2322 
L 691 4666 
z
" transform="scale(0.015625)"/>
       </defs>
       <use xlink:href="#DejaVuSans-34"/>
       <use xlink:href="#DejaVuSans-35" x="63.623047"/>
       <use xlink:href="#DejaVuSans-30" x="127.246094"/>
      </g>
     </g>
    </g>
    <g id="xtick_3">
     <g id="line2d_5">
      <path d="M 157.137337 221.128654 
L 157.137337 26.64 
" clip-path="url(#p4a6fa0d50d)" style="fill: none; stroke: #b0b0b0; stroke-width: 0.8; stroke-linecap: square"/>
     </g>
     <g id="line2d_6">
      <g>
       <use xlink:href="#mf2575693e2" x="157.137337" y="221.128654" style="stroke: #000000; stroke-width: 0.8"/>
      </g>
     </g>
     <g id="text_3">
      <!-- 500 -->
      <g transform="translate(147.593587 235.727091) scale(0.1 -0.1)">
       <use xlink:href="#DejaVuSans-35"/>
       <use xlink:href="#DejaVuSans-30" x="63.623047"/>
       <use xlink:href="#DejaVuSans-30" x="127.246094"/>
      </g>
     </g>
    </g>
    <g id="xtick_4">
     <g id="line2d_7">
      <path d="M 192.459448 221.128654 
L 192.459448 26.64 
" clip-path="url(#p4a6fa0d50d)" style="fill: none; stroke: #b0b0b0; stroke-width: 0.8; stroke-linecap: square"/>
     </g>
     <g id="line2d_8">
      <g>
       <use xlink:href="#mf2575693e2" x="192.459448" y="221.128654" style="stroke: #000000; stroke-width: 0.8"/>
      </g>
     </g>
     <g id="text_4">
      <!-- 550 -->
      <g transform="translate(182.915698 235.727091) scale(0.1 -0.1)">
       <use xlink:href="#DejaVuSans-35"/>
       <use xlink:href="#DejaVuSans-35" x="63.623047"/>
       <use xlink:href="#DejaVuSans-30" x="127.246094"/>
      </g>
     </g>
    </g>
    <g id="xtick_5">
     <g id="line2d_9">
      <path d="M 227.781558 221.128654 
L 227.781558 26.64 
" clip-path="url(#p4a6fa0d50d)" style="fill: none; stroke: #b0b0b0; stroke-width: 0.8; stroke-linecap: square"/>
     </g>
     <g id="line2d_10">
      <g>
       <use xlink:href="#mf2575693e2" x="227.781558" y="221.128654" style="stroke: #000000; stroke-width: 0.8"/>
      </g>
     </g>
     <g id="text_5">
      <!-- 600 -->
      <g transform="translate(218.237808 235.727091) scale(0.1 -0.1)">
       <defs>
        <path id="DejaVuSans-36" d="M 2113 2584 
Q 1688 2584 1439 2293 
Q 1191 2003 1191 1497 
Q 1191 994 1439 701 
Q 1688 409 2113 409 
Q 2538 409 2786 701 
Q 3034 994 3034 1497 
Q 3034 2003 2786 2293 
Q 2538 2584 2113 2584 
z
M 3366 4563 
L 3366 3988 
Q 3128 4100 2886 4159 
Q 2644 4219 2406 4219 
Q 1781 4219 1451 3797 
Q 1122 3375 1075 2522 
Q 1259 2794 1537 2939 
Q 1816 3084 2150 3084 
Q 2853 3084 3261 2657 
Q 3669 2231 3669 1497 
Q 3669 778 3244 343 
Q 2819 -91 2113 -91 
Q 1303 -91 875 529 
Q 447 1150 447 2328 
Q 447 3434 972 4092 
Q 1497 4750 2381 4750 
Q 2619 4750 2861 4703 
Q 3103 4656 3366 4563 
z
" transform="scale(0.015625)"/>
       </defs>
       <use xlink:href="#DejaVuSans-36"/>
       <use xlink:href="#DejaVuSans-30" x="63.623047"/>
       <use xlink:href="#DejaVuSans-30" x="127.246094"/>
      </g>
     </g>
    </g>
    <g id="xtick_6">
     <g id="line2d_11">
      <path d="M 263.103669 221.128654 
L 263.103669 26.64 
" clip-path="url(#p4a6fa0d50d)" style="fill: none; stroke: #b0b0b0; stroke-width: 0.8; stroke-linecap: square"/>
     </g>
     <g id="line2d_12">
      <g>
       <use xlink:href="#mf2575693e2" x="263.103669" y="221.128654" style="stroke: #000000; stroke-width: 0.8"/>
      </g>
     </g>
     <g id="text_6">
      <!-- 650 -->
      <g transform="translate(253.559919 235.727091) scale(0.1 -0.1)">
       <use xlink:href="#DejaVuSans-36"/>
       <use xlink:href="#DejaVuSans-35" x="63.623047"/>
       <use xlink:href="#DejaVuSans-30" x="127.246094"/>
      </g>
     </g>
    </g>
    <g id="xtick_7">
     <g id="line2d_13">
      <path d="M 298.425779 221.128654 
L 298.425779 26.64 
" clip-path="url(#p4a6fa0d50d)" style="fill: none; stroke: #b0b0b0; stroke-width: 0.8; stroke-linecap: square"/>
     </g>
     <g id="line2d_14">
      <g>
       <use xlink:href="#mf2575693e2" x="298.425779" y="221.128654" style="stroke: #000000; stroke-width: 0.8"/>
      </g>
     </g>
     <g id="text_7">
      <!-- 700 -->
      <g transform="translate(288.882029 235.727091) scale(0.1 -0.1)">
       <defs>
        <path id="DejaVuSans-37" d="M 525 4666 
L 3525 4666 
L 3525 4397 
L 1831 0 
L 1172 0 
L 2766 4134 
L 525 4134 
L 525 4666 
z
" transform="scale(0.015625)"/>
       </defs>
       <use xlink:href="#DejaVuSans-37"/>
       <use xlink:href="#DejaVuSans-30" x="63.623047"/>
       <use xlink:href="#DejaVuSans-30" x="127.246094"/>
      </g>
     </g>
    </g>
    <g id="xtick_8">
     <g id="line2d_15">
      <path d="M 333.74789 221.128654 
L 333.74789 26.64 
" clip-path="url(#p4a6fa0d50d)" style="fill: none; stroke: #b0b0b0; stroke-width: 0.8; stroke-linecap: square"/>
     </g>
     <g id="line2d_16">
      <g>
       <use xlink:href="#mf2575693e2" x="333.74789" y="221.128654" style="stroke: #000000; stroke-width: 0.8"/>
      </g>
     </g>
     <g id="text_8">
      <!-- 750 -->
      <g transform="translate(324.20414 235.727091) scale(0.1 -0.1)">
       <use xlink:href="#DejaVuSans-37"/>
       <use xlink:href="#DejaVuSans-35" x="63.623047"/>
       <use xlink:href="#DejaVuSans-30" x="127.246094"/>
      </g>
     </g>
    </g>
    <g id="text_9">
     <!-- True $\mathrm{t}\bar{\mathrm{t}}$ mass (GeV) -->
     <g transform="translate(151.648331 250.127091) scale(0.1 -0.1)">
      <defs>
       <path id="DejaVuSans-54" d="M -19 4666 
L 3928 4666 
L 3928 4134 
L 2272 4134 
L 2272 0 
L 1638 0 
L 1638 4134 
L -19 4134 
L -19 4666 
z
" transform="scale(0.015625)"/>
       <path id="DejaVuSans-72" d="M 2631 2963 
Q 2534 3019 2420 3045 
Q 2306 3072 2169 3072 
Q 1681 3072 1420 2755 
Q 1159 2438 1159 1844 
L 1159 0 
L 581 0 
L 581 3500 
L 1159 3500 
L 1159 2956 
Q 1341 3275 1631 3429 
Q 1922 3584 2338 3584 
Q 2397 3584 2469 3576 
Q 2541 3569 2628 3553 
L 2631 2963 
z
" transform="scale(0.015625)"/>
       <path id="DejaVuSans-75" d="M 544 1381 
L 544 3500 
L 1119 3500 
L 1119 1403 
Q 1119 906 1312 657 
Q 1506 409 1894 409 
Q 2359 409 2629 706 
Q 2900 1003 2900 1516 
L 2900 3500 
L 3475 3500 
L 3475 0 
L 2900 0 
L 2900 538 
Q 2691 219 2414 64 
Q 2138 -91 1772 -91 
Q 1169 -91 856 284 
Q 544 659 544 1381 
z
M 1991 3584 
L 1991 3584 
z
" transform="scale(0.015625)"/>
       <path id="DejaVuSans-65" d="M 3597 1894 
L 3597 1613 
L 953 1613 
Q 991 1019 1311 708 
Q 1631 397 2203 397 
Q 2534 397 2845 478 
Q 3156 559 3463 722 
L 3463 178 
Q 3153 47 2828 -22 
Q 2503 -91 2169 -91 
Q 1331 -91 842 396 
Q 353 884 353 1716 
Q 353 2575 817 3079 
Q 1281 3584 2069 3584 
Q 2775 3584 3186 3129 
Q 3597 2675 3597 1894 
z
M 3022 2063 
Q 3016 2534 2758 2815 
Q 2500 3097 2075 3097 
Q 1594 3097 1305 2825 
Q 1016 2553 972 2059 
L 3022 2063 
z
" transform="scale(0.015625)"/>
       <path id="DejaVuSans-20" transform="scale(0.015625)"/>
       <path id="DejaVuSans-74" d="M 1172 4494 
L 1172 3500 
L 2356 3500 
L 2356 3053 
L 1172 3053 
L 1172 1153 
Q 1172 725 1289 603 
Q 1406 481 1766 481 
L 2356 481 
L 2356 0 
L 1766 0 
Q 1100 0 847 248 
Q 594 497 594 1153 
L 594 3053 
L 172 3053 
L 172 3500 
L 594 3500 
L 594 4494 
L 1172 4494 
z
" transform="scale(0.015625)"/>
       <path id="DejaVuSans-304" d="M -2522 4769 
L -653 4769 
L -653 4306 
L -2522 4306 
L -2522 4769 
z
" transform="scale(0.015625)"/>
       <path id="DejaVuSans-6d" d="M 3328 2828 
Q 3544 3216 3844 3400 
Q 4144 3584 4550 3584 
Q 5097 3584 5394 3201 
Q 5691 2819 5691 2113 
L 5691 0 
L 5113 0 
L 5113 2094 
Q 5113 2597 4934 2840 
Q 4756 3084 4391 3084 
Q 3944 3084 3684 2787 
Q 3425 2491 3425 1978 
L 3425 0 
L 2847 0 
L 2847 2094 
Q 2847 2600 2669 2842 
Q 2491 3084 2119 3084 
Q 1678 3084 1418 2786 
Q 1159 2488 1159 1978 
L 1159 0 
L 581 0 
L 581 3500 
L 1159 3500 
L 1159 2956 
Q 1356 3278 1631 3431 
Q 1906 3584 2284 3584 
Q 2666 3584 2933 3390 
Q 3200 3197 3328 2828 
z
" transform="scale(0.015625)"/>
       <path id="DejaVuSans-61" d="M 2194 1759 
Q 1497 1759 1228 1600 
Q 959 1441 959 1056 
Q 959 750 1161 570 
Q 1363 391 1709 391 
Q 2188 391 2477 730 
Q 2766 1069 2766 1631 
L 2766 1759 
L 2194 1759 
z
M 3341 1997 
L 3341 0 
L 2766 0 
L 2766 531 
Q 2569 213 2275 61 
Q 1981 -91 1556 -91 
Q 1019 -91 701 211 
Q 384 513 384 1019 
Q 384 1609 779 1909 
Q 1175 2209 1959 2209 
L 2766 2209 
L 2766 2266 
Q 2766 2663 2505 2880 
Q 2244 3097 1772 3097 
Q 1472 3097 1187 3025 
Q 903 2953 641 2809 
L 641 3341 
Q 956 3463 1253 3523 
Q 1550 3584 1831 3584 
Q 2591 3584 2966 3190 
Q 3341 2797 3341 1997 
z
" transform="scale(0.015625)"/>
       <path id="DejaVuSans-73" d="M 2834 3397 
L 2834 2853 
Q 2591 2978 2328 3040 
Q 2066 3103 1784 3103 
Q 1356 3103 1142 2972 
Q 928 2841 928 2578 
Q 928 2378 1081 2264 
Q 1234 2150 1697 2047 
L 1894 2003 
Q 2506 1872 2764 1633 
Q 3022 1394 3022 966 
Q 3022 478 2636 193 
Q 2250 -91 1575 -91 
Q 1294 -91 989 -36 
Q 684 19 347 128 
L 347 722 
Q 666 556 975 473 
Q 1284 391 1588 391 
Q 1994 391 2212 530 
Q 2431 669 2431 922 
Q 2431 1156 2273 1281 
Q 2116 1406 1581 1522 
L 1381 1569 
Q 847 1681 609 1914 
Q 372 2147 372 2553 
Q 372 3047 722 3315 
Q 1072 3584 1716 3584 
Q 2034 3584 2315 3537 
Q 2597 3491 2834 3397 
z
" transform="scale(0.015625)"/>
       <path id="DejaVuSans-28" d="M 1984 4856 
Q 1566 4138 1362 3434 
Q 1159 2731 1159 2009 
Q 1159 1288 1364 580 
Q 1569 -128 1984 -844 
L 1484 -844 
Q 1016 -109 783 600 
Q 550 1309 550 2009 
Q 550 2706 781 3412 
Q 1013 4119 1484 4856 
L 1984 4856 
z
" transform="scale(0.015625)"/>
       <path id="DejaVuSans-47" d="M 3809 666 
L 3809 1919 
L 2778 1919 
L 2778 2438 
L 4434 2438 
L 4434 434 
Q 4069 175 3628 42 
Q 3188 -91 2688 -91 
Q 1594 -91 976 548 
Q 359 1188 359 2328 
Q 359 3472 976 4111 
Q 1594 4750 2688 4750 
Q 3144 4750 3555 4637 
Q 3966 4525 4313 4306 
L 4313 3634 
Q 3963 3931 3569 4081 
Q 3175 4231 2741 4231 
Q 1884 4231 1454 3753 
Q 1025 3275 1025 2328 
Q 1025 1384 1454 906 
Q 1884 428 2741 428 
Q 3075 428 3337 486 
Q 3600 544 3809 666 
z
" transform="scale(0.015625)"/>
       <path id="DejaVuSans-56" d="M 1831 0 
L 50 4666 
L 709 4666 
L 2188 738 
L 3669 4666 
L 4325 4666 
L 2547 0 
L 1831 0 
z
" transform="scale(0.015625)"/>
       <path id="DejaVuSans-29" d="M 513 4856 
L 1013 4856 
Q 1481 4119 1714 3412 
Q 1947 2706 1947 2009 
Q 1947 1309 1714 600 
Q 1481 -109 1013 -844 
L 513 -844 
Q 928 -128 1133 580 
Q 1338 1288 1338 2009 
Q 1338 2731 1133 3434 
Q 928 4138 513 4856 
z
" transform="scale(0.015625)"/>
      </defs>
      <use xlink:href="#DejaVuSans-54" transform="translate(0 0.046875)"/>
      <use xlink:href="#DejaVuSans-72" transform="translate(61.083984 0.046875)"/>
      <use xlink:href="#DejaVuSans-75" transform="translate(102.197266 0.046875)"/>
      <use xlink:href="#DejaVuSans-65" transform="translate(165.576172 0.046875)"/>
      <use xlink:href="#DejaVuSans-20" transform="translate(227.099609 0.046875)"/>
      <use xlink:href="#DejaVuSans-74" transform="translate(258.886719 0.046875)"/>
      <use xlink:href="#DejaVuSans-304" transform="translate(347.304199 15.484375)"/>
      <use xlink:href="#DejaVuSans-74" transform="translate(298.095703 0.046875)"/>
      <use xlink:href="#DejaVuSans-20" transform="translate(337.304688 0.046875)"/>
      <use xlink:href="#DejaVuSans-6d" transform="translate(369.091797 0.046875)"/>
      <use xlink:href="#DejaVuSans-61" transform="translate(466.503906 0.046875)"/>
      <use xlink:href="#DejaVuSans-73" transform="translate(527.783203 0.046875)"/>
      <use xlink:href="#DejaVuSans-73" transform="translate(579.882812 0.046875)"/>
      <use xlink:href="#DejaVuSans-20" transform="translate(631.982422 0.046875)"/>
      <use xlink:href="#DejaVuSans-28" transform="translate(663.769531 0.046875)"/>
      <use xlink:href="#DejaVuSans-47" transform="translate(702.783203 0.046875)"/>
      <use xlink:href="#DejaVuSans-65" transform="translate(780.273438 0.046875)"/>
      <use xlink:href="#DejaVuSans-56" transform="translate(841.796875 0.046875)"/>
      <use xlink:href="#DejaVuSans-29" transform="translate(910.205078 0.046875)"/>
     </g>
    </g>
   </g>
   <g id="matplotlib.axis_2">
    <g id="ytick_1">
     <g id="line2d_17">
      <path d="M 56.18 201.982266 
L 342.116661 201.982266 
" clip-path="url(#p4a6fa0d50d)" style="fill: none; stroke: #b0b0b0; stroke-width: 0.8; stroke-linecap: square"/>
     </g>
     <g id="line2d_18">
      <defs>
       <path id="m2fce3fd8e4" d="M 0 0 
L -3.5 0 
" style="stroke: #000000; stroke-width: 0.8"/>
      </defs>
      <g>
       <use xlink:href="#m2fce3fd8e4" x="56.18" y="201.982266" style="stroke: #000000; stroke-width: 0.8"/>
      </g>
     </g>
     <g id="text_10">
      <!-- −0.2 -->
      <g transform="translate(24.897188 205.781485) scale(0.1 -0.1)">
       <defs>
        <path id="DejaVuSans-2212" d="M 678 2272 
L 4684 2272 
L 4684 1741 
L 678 1741 
L 678 2272 
z
" transform="scale(0.015625)"/>
        <path id="DejaVuSans-2e" d="M 684 794 
L 1344 794 
L 1344 0 
L 684 0 
L 684 794 
z
" transform="scale(0.015625)"/>
        <path id="DejaVuSans-32" d="M 1228 531 
L 3431 531 
L 3431 0 
L 469 0 
L 469 531 
Q 828 903 1448 1529 
Q 2069 2156 2228 2338 
Q 2531 2678 2651 2914 
Q 2772 3150 2772 3378 
Q 2772 3750 2511 3984 
Q 2250 4219 1831 4219 
Q 1534 4219 1204 4116 
Q 875 4013 500 3803 
L 500 4441 
Q 881 4594 1212 4672 
Q 1544 4750 1819 4750 
Q 2544 4750 2975 4387 
Q 3406 4025 3406 3419 
Q 3406 3131 3298 2873 
Q 3191 2616 2906 2266 
Q 2828 2175 2409 1742 
Q 1991 1309 1228 531 
z
" transform="scale(0.015625)"/>
       </defs>
       <use xlink:href="#DejaVuSans-2212"/>
       <use xlink:href="#DejaVuSans-30" x="83.789062"/>
       <use xlink:href="#DejaVuSans-2e" x="147.412109"/>
       <use xlink:href="#DejaVuSans-32" x="179.199219"/>
      </g>
     </g>
    </g>
    <g id="ytick_2">
     <g id="line2d_19">
      <path d="M 56.18 165.320673 
L 342.116661 165.320673 
" clip-path="url(#p4a6fa0d50d)" style="fill: none; stroke: #b0b0b0; stroke-width: 0.8; stroke-linecap: square"/>
     </g>
     <g id="line2d_20">
      <g>
       <use xlink:href="#m2fce3fd8e4" x="56.18" y="165.320673" style="stroke: #000000; stroke-width: 0.8"/>
      </g>
     </g>
     <g id="text_11">
      <!-- −0.1 -->
      <g transform="translate(24.897188 169.119892) scale(0.1 -0.1)">
       <defs>
        <path id="DejaVuSans-31" d="M 794 531 
L 1825 531 
L 1825 4091 
L 703 3866 
L 703 4441 
L 1819 4666 
L 2450 4666 
L 2450 531 
L 3481 531 
L 3481 0 
L 794 0 
L 794 531 
z
" transform="scale(0.015625)"/>
       </defs>
       <use xlink:href="#DejaVuSans-2212"/>
       <use xlink:href="#DejaVuSans-30" x="83.789062"/>
       <use xlink:href="#DejaVuSans-2e" x="147.412109"/>
       <use xlink:href="#DejaVuSans-31" x="179.199219"/>
      </g>
     </g>
    </g>
    <g id="ytick_3">
     <g id="line2d_21">
      <path d="M 56.18 128.65908 
L 342.116661 128.65908 
" clip-path="url(#p4a6fa0d50d)" style="fill: none; stroke: #b0b0b0; stroke-width: 0.8; stroke-linecap: square"/>
     </g>
     <g id="line2d_22">
      <g>
       <use xlink:href="#m2fce3fd8e4" x="56.18" y="128.65908" style="stroke: #000000; stroke-width: 0.8"/>
      </g>
     </g>
     <g id="text_12">
      <!-- 0.0 -->
      <g transform="translate(33.276875 132.458298) scale(0.1 -0.1)">
       <use xlink:href="#DejaVuSans-30"/>
       <use xlink:href="#DejaVuSans-2e" x="63.623047"/>
       <use xlink:href="#DejaVuSans-30" x="95.410156"/>
      </g>
     </g>
    </g>
    <g id="ytick_4">
     <g id="line2d_23">
      <path d="M 56.18 91.997486 
L 342.116661 91.997486 
" clip-path="url(#p4a6fa0d50d)" style="fill: none; stroke: #b0b0b0; stroke-width: 0.8; stroke-linecap: square"/>
     </g>
     <g id="line2d_24">
      <g>
       <use xlink:href="#m2fce3fd8e4" x="56.18" y="91.997486" style="stroke: #000000; stroke-width: 0.8"/>
      </g>
     </g>
     <g id="text_13">
      <!-- 0.1 -->
      <g transform="translate(33.276875 95.796705) scale(0.1 -0.1)">
       <use xlink:href="#DejaVuSans-30"/>
       <use xlink:href="#DejaVuSans-2e" x="63.623047"/>
       <use xlink:href="#DejaVuSans-31" x="95.410156"/>
      </g>
     </g>
    </g>
    <g id="ytick_5">
     <g id="line2d_25">
      <path d="M 56.18 55.335893 
L 342.116661 55.335893 
" clip-path="url(#p4a6fa0d50d)" style="fill: none; stroke: #b0b0b0; stroke-width: 0.8; stroke-linecap: square"/>
     </g>
     <g id="line2d_26">
      <g>
       <use xlink:href="#m2fce3fd8e4" x="56.18" y="55.335893" style="stroke: #000000; stroke-width: 0.8"/>
      </g>
     </g>
     <g id="text_14">
      <!-- 0.2 -->
      <g transform="translate(33.276875 59.135112) scale(0.1 -0.1)">
       <use xlink:href="#DejaVuSans-30"/>
       <use xlink:href="#DejaVuSans-2e" x="63.623047"/>
       <use xlink:href="#DejaVuSans-32" x="95.410156"/>
      </g>
     </g>
    </g>
    <g id="text_15">
     <!-- Relative bias -->
     <g transform="translate(18.8175 155.869483) rotate(-90) scale(0.1 -0.1)">
      <defs>
       <path id="DejaVuSans-52" d="M 2841 2188 
Q 3044 2119 3236 1894 
Q 3428 1669 3622 1275 
L 4263 0 
L 3584 0 
L 2988 1197 
Q 2756 1666 2539 1819 
Q 2322 1972 1947 1972 
L 1259 1972 
L 1259 0 
L 628 0 
L 628 4666 
L 2053 4666 
Q 2853 4666 3247 4331 
Q 3641 3997 3641 3322 
Q 3641 2881 3436 2590 
Q 3231 2300 2841 2188 
z
M 1259 4147 
L 1259 2491 
L 2053 2491 
Q 2509 2491 2742 2702 
Q 2975 2913 2975 3322 
Q 2975 3731 2742 3939 
Q 2509 4147 2053 4147 
L 1259 4147 
z
" transform="scale(0.015625)"/>
       <path id="DejaVuSans-6c" d="M 603 4863 
L 1178 4863 
L 1178 0 
L 603 0 
L 603 4863 
z
" transform="scale(0.015625)"/>
       <path id="DejaVuSans-69" d="M 603 3500 
L 1178 3500 
L 1178 0 
L 603 0 
L 603 3500 
z
M 603 4863 
L 1178 4863 
L 1178 4134 
L 603 4134 
L 603 4863 
z
" transform="scale(0.015625)"/>
       <path id="DejaVuSans-76" d="M 191 3500 
L 800 3500 
L 1894 563 
L 2988 3500 
L 3597 3500 
L 2284 0 
L 1503 0 
L 191 3500 
z
" transform="scale(0.015625)"/>
       <path id="DejaVuSans-62" d="M 3116 1747 
Q 3116 2381 2855 2742 
Q 2594 3103 2138 3103 
Q 1681 3103 1420 2742 
Q 1159 2381 1159 1747 
Q 1159 1113 1420 752 
Q 1681 391 2138 391 
Q 2594 391 2855 752 
Q 3116 1113 3116 1747 
z
M 1159 2969 
Q 1341 3281 1617 3432 
Q 1894 3584 2278 3584 
Q 2916 3584 3314 3078 
Q 3713 2572 3713 1747 
Q 3713 922 3314 415 
Q 2916 -91 2278 -91 
Q 1894 -91 1617 61 
Q 1341 213 1159 525 
L 1159 0 
L 581 0 
L 581 4863 
L 1159 4863 
L 1159 2969 
z
" transform="scale(0.015625)"/>
      </defs>
      <use xlink:href="#DejaVuSans-52"/>
      <use xlink:href="#DejaVuSans-65" x="64.982422"/>
      <use xlink:href="#DejaVuSans-6c" x="126.505859"/>
      <use xlink:href="#DejaVuSans-61" x="154.289062"/>
      <use xlink:href="#DejaVuSans-74" x="215.568359"/>
      <use xlink:href="#DejaVuSans-69" x="254.777344"/>
      <use xlink:href="#DejaVuSans-76" x="282.560547"/>
      <use xlink:href="#DejaVuSans-65" x="341.740234"/>
      <use xlink:href="#DejaVuSans-20" x="403.263672"/>
      <use xlink:href="#DejaVuSans-62" x="435.050781"/>
      <use xlink:href="#DejaVuSans-69" x="498.527344"/>
      <use xlink:href="#DejaVuSans-61" x="526.310547"/>
      <use xlink:href="#DejaVuSans-73" x="587.589844"/>
     </g>
    </g>
   </g>
   <g id="line2d_27">
    <path d="M 56.18 114.674841 
L 56.18 114.674841 
L 62.015442 114.674841 
L 62.015442 120.047985 
L 67.850884 120.047985 
L 67.850884 125.814627 
L 73.686326 125.814627 
L 73.686326 129.944554 
L 79.521768 129.944554 
L 79.521768 133.36062 
L 85.35721 133.36062 
L 85.35721 136.56813 
L 91.192652 136.56813 
L 91.192652 139.443122 
L 97.028094 139.443122 
L 97.028094 142.771609 
L 102.863537 142.771609 
L 102.863537 145.096473 
L 108.698979 145.096473 
L 108.698979 146.810863 
L 114.534421 146.810863 
L 114.534421 149.113753 
L 120.369863 149.113753 
L 120.369863 150.57773 
L 126.205305 150.57773 
L 126.205305 152.220973 
L 132.040747 152.220973 
L 132.040747 153.118362 
L 137.876189 153.118362 
L 137.876189 153.909996 
L 143.711631 153.909996 
L 143.711631 155.30056 
L 149.547073 155.30056 
L 149.547073 155.661495 
L 155.382515 155.661495 
L 155.382515 157.051572 
L 161.217957 157.051572 
L 161.217957 157.103673 
L 167.053399 157.103673 
L 167.053399 156.479882 
L 172.888841 156.479882 
L 172.888841 159.15678 
L 178.724283 159.15678 
L 178.724283 159.880042 
L 184.559726 159.880042 
L 184.559726 160.670171 
L 190.395168 160.670171 
L 190.395168 160.810987 
L 196.23061 160.810987 
L 196.23061 160.594694 
L 202.066052 160.594694 
L 202.066052 162.653476 
L 207.901494 162.653476 
L 207.901494 162.847077 
L 213.736936 162.847077 
L 213.736936 162.212479 
L 219.572378 162.212479 
L 219.572378 161.751291 
L 225.40782 161.751291 
L 225.40782 163.650039 
L 231.243262 163.650039 
L 231.243262 164.171509 
L 237.078704 164.171509 
L 237.078704 163.287805 
L 242.914146 163.287805 
L 242.914146 163.194802 
L 248.749588 163.194802 
L 248.749588 165.658083 
L 254.58503 165.658083 
L 254.58503 166.579536 
L 260.420472 166.579536 
L 260.420472 165.306692 
L 266.255914 165.306692 
L 266.255914 166.492512 
L 272.091357 166.492512 
L 272.091357 166.256363 
L 277.926799 166.256363 
L 277.926799 167.245755 
L 283.762241 167.245755 
L 283.762241 168.395286 
L 289.597683 168.395286 
L 289.597683 169.834569 
L 295.433125 169.834569 
L 295.433125 168.660929 
L 301.268567 168.660929 
L 301.268567 168.160871 
L 307.104009 168.160871 
L 307.104009 170.424647 
L 312.939451 170.424647 
L 312.939451 169.041627 
L 318.774893 169.041627 
L 318.774893 170.880171 
L 324.610335 170.880171 
L 324.610335 169.288955 
L 330.445777 169.288955 
L 330.445777 171.963072 
L 336.281219 171.963072 
L 336.281219 170.392965 
L 342.116661 170.392965 
" clip-path="url(#p4a6fa0d50d)" style="fill: none; stroke: #1f77b4; stroke-width: 1.5; stroke-linecap: square"/>
   </g>
   <g id="line2d_28">
    <path d="M 56.18 101.333743 
L 56.18 101.333743 
L 62.015442 101.333743 
L 62.015442 105.157096 
L 67.850884 105.157096 
L 67.850884 108.708471 
L 73.686326 108.708471 
L 73.686326 110.763527 
L 79.521768 110.763527 
L 79.521768 113.085308 
L 85.35721 113.085308 
L 85.35721 114.495996 
L 91.192652 114.495996 
L 91.192652 115.253516 
L 97.028094 115.253516 
L 97.028094 117.605049 
L 102.863537 117.605049 
L 102.863537 117.771217 
L 108.698979 117.771217 
L 108.698979 118.86666 
L 114.534421 118.86666 
L 114.534421 119.273271 
L 120.369863 119.273271 
L 120.369863 119.553914 
L 126.205305 119.553914 
L 126.205305 119.788813 
L 132.040747 119.788813 
L 132.040747 120.050959 
L 137.876189 120.050959 
L 137.876189 119.93336 
L 143.711631 119.93336 
L 143.711631 119.302521 
L 149.547073 119.302521 
L 149.547073 119.300154 
L 155.382515 119.300154 
L 155.382515 120.962975 
L 161.217957 120.962975 
L 161.217957 119.684231 
L 167.053399 119.684231 
L 167.053399 116.49182 
L 172.888841 116.49182 
L 172.888841 119.88039 
L 178.724283 119.88039 
L 178.724283 120.252332 
L 184.559726 120.252332 
L 184.559726 121.039418 
L 190.395168 121.039418 
L 190.395168 119.667819 
L 196.23061 119.667819 
L 196.23061 116.703696 
L 202.066052 116.703696 
L 202.066052 120.22004 
L 207.901494 120.22004 
L 207.901494 117.627621 
L 213.736936 117.627621 
L 213.736936 118.174691 
L 219.572378 118.174691 
L 219.572378 117.578617 
L 225.40782 117.578617 
L 225.40782 118.467058 
L 231.243262 118.467058 
L 231.243262 118.174658 
L 237.078704 118.174658 
L 237.078704 116.065546 
L 242.914146 116.065546 
L 242.914146 117.54834 
L 248.749588 117.54834 
L 248.749588 118.676971 
L 254.58503 118.676971 
L 254.58503 116.736786 
L 260.420472 116.736786 
L 260.420472 115.037719 
L 266.255914 115.037719 
L 266.255914 115.732772 
L 272.091357 115.732772 
L 272.091357 116.107103 
L 277.926799 116.107103 
L 277.926799 118.293085 
L 283.762241 118.293085 
L 283.762241 117.628407 
L 289.597683 117.628407 
L 289.597683 117.548922 
L 295.433125 117.548922 
L 295.433125 115.804745 
L 301.268567 115.804745 
L 301.268567 116.989567 
L 307.104009 116.989567 
L 307.104009 115.565356 
L 312.939451 115.565356 
L 312.939451 114.530219 
L 318.774893 114.530219 
L 318.774893 113.27561 
L 324.610335 113.27561 
L 324.610335 114.611994 
L 330.445777 114.611994 
L 330.445777 117.08387 
L 336.281219 117.08387 
L 336.281219 116.764062 
L 342.116661 116.764062 
" clip-path="url(#p4a6fa0d50d)" style="fill: none; stroke: #ff7f0e; stroke-width: 1.5; stroke-linecap: square"/>
   </g>
   <g id="patch_3">
    <path d="M 56.18 221.128654 
L 56.18 26.64 
" style="fill: none; stroke: #000000; stroke-width: 0.8; stroke-linejoin: miter; stroke-linecap: square"/>
   </g>
   <g id="patch_4">
    <path d="M 342.116661 221.128654 
L 342.116661 26.64 
" style="fill: none; stroke: #000000; stroke-width: 0.8; stroke-linejoin: miter; stroke-linecap: square"/>
   </g>
   <g id="patch_5">
    <path d="M 56.18 221.128654 
L 342.116661 221.128654 
" style="fill: none; stroke: #000000; stroke-width: 0.8; stroke-linejoin: miter; stroke-linecap: square"/>
   </g>
   <g id="patch_6">
    <path d="M 56.18 26.64 
L 342.116661 26.64 
" style="fill: none; stroke: #000000; stroke-width: 0.8; stroke-linejoin: miter; stroke-linecap: square"/>
   </g>
   <g id="text_16">
    <!-- CMS -->
    <g transform="translate(56.18 22.956328) scale(0.169 -0.169)">
     <defs>
      <path id="TeXGyreHeros-Bold-43" d="M 4384 1594 
L 3450 1594 
C 3392 998 3014 730 2419 730 
C 1677 730 1242 1299 1242 2317 
C 1242 3347 1696 3923 2451 3923 
C 2970 3923 3309 3686 3450 3085 
L 4365 3085 
C 4282 4160 3469 4742 2419 4742 
C 1101 4742 282 3840 282 2330 
C 282 832 1094 -77 2394 -77 
C 3552 -77 4326 525 4384 1594 
z
" transform="scale(0.015625)"/>
      <path id="TeXGyreHeros-Bold-4d" d="M 4966 0 
L 4966 4666 
L 3520 4666 
L 2701 954 
L 1856 4666 
L 422 4666 
L 422 0 
L 1382 0 
L 1382 3635 
L 2221 0 
L 3181 0 
L 4006 3635 
L 4006 0 
L 4966 0 
z
" transform="scale(0.015625)"/>
      <path id="TeXGyreHeros-Bold-53" d="M 4051 1402 
C 4051 2138 3680 2483 2816 2650 
L 2086 2790 
C 1402 2925 1203 3059 1203 3398 
C 1203 3750 1517 3974 2010 3974 
C 2618 3974 2989 3718 2989 3245 
L 3885 3245 
C 3885 4230 3194 4742 2054 4742 
C 934 4742 288 4218 288 3309 
C 288 2579 653 2240 1600 2054 
L 2253 1926 
C 2893 1798 3130 1664 3130 1286 
C 3130 896 2771 691 2189 691 
C 1536 691 1139 966 1139 1466 
L 205 1466 
C 205 467 947 -77 2138 -77 
C 3341 -77 4051 454 4051 1402 
z
" transform="scale(0.015625)"/>
     </defs>
     <use xlink:href="#TeXGyreHeros-Bold-43"/>
     <use xlink:href="#TeXGyreHeros-Bold-4d" x="72.199982"/>
     <use xlink:href="#TeXGyreHeros-Bold-53" x="155.499969"/>
    </g>
   </g>
   <g id="text_17">
    <!-- Private work (CMS simulation) -->
    <g transform="translate(95.492 22.898963) scale(0.13 -0.13)">
     <defs>
      <path id="TeXGyreHeros-Italic-50" d="M 4371 3635 
C 4371 4314 3968 4666 3187 4666 
L 1254 4666 
L 262 0 
L 864 0 
L 1286 1978 
L 2746 1978 
C 3712 1978 4371 2771 4371 3635 
z
M 3757 3520 
C 3757 2957 3302 2502 2637 2502 
L 1395 2502 
L 1747 4141 
L 2989 4141 
C 3488 4141 3757 3923 3757 3520 
z
" transform="scale(0.015625)"/>
      <path id="TeXGyreHeros-Italic-72" d="M 2355 2886 
L 2470 3430 
C 2387 3443 2336 3450 2266 3450 
C 1894 3450 1606 3283 1210 2829 
L 1318 3354 
L 832 3354 
L 122 0 
L 659 0 
L 1030 1741 
C 1190 2496 1626 2886 2291 2886 
L 2355 2886 
z
" transform="scale(0.015625)"/>
      <path id="TeXGyreHeros-Italic-69" d="M 659 0 
L 1370 3354 
L 832 3354 
L 122 0 
L 659 0 
z
M 1677 4525 
L 1011 4525 
L 870 3866 
L 1536 3866 
L 1677 4525 
z
" transform="scale(0.015625)"/>
      <path id="TeXGyreHeros-Italic-76" d="M 3507 3354 
L 2925 3354 
L 1363 653 
L 1050 3354 
L 461 3354 
L 934 0 
L 1517 0 
L 3507 3354 
z
" transform="scale(0.015625)"/>
      <path id="TeXGyreHeros-Italic-61" d="M 3149 0 
L 3232 416 
C 3174 403 3149 403 3123 403 
C 2957 403 2880 461 2880 589 
C 2880 614 2880 634 2886 653 
L 3277 2490 
C 3315 2662 3315 2662 3315 2726 
C 3315 3162 2874 3450 2202 3450 
C 1312 3450 768 3072 646 2362 
L 1184 2362 
C 1312 2771 1587 2957 2061 2957 
C 2445 2957 2739 2784 2739 2547 
C 2739 2522 2733 2477 2726 2426 
L 2707 2310 
C 2662 2048 2515 1971 2061 1933 
C 1203 1850 934 1792 621 1594 
C 288 1382 102 1069 102 698 
C 102 186 454 -96 1030 -96 
C 1446 -96 1818 -38 2310 371 
L 2304 275 
C 2304 13 2502 -58 2810 -58 
C 2899 -58 2893 -45 3149 0 
z
M 2566 1651 
L 2451 1101 
C 2368 704 1805 365 1242 365 
C 877 365 666 493 666 762 
C 666 1165 954 1370 1632 1466 
C 2234 1549 2285 1555 2566 1651 
z
" transform="scale(0.015625)"/>
      <path id="TeXGyreHeros-Italic-74" d="M 1408 467 
C 1210 422 1178 416 1101 416 
C 960 416 870 486 870 589 
C 870 608 877 640 883 678 
L 1363 2925 
L 1933 2925 
L 2022 3354 
L 1453 3354 
L 1651 4275 
L 1114 4275 
L 915 3354 
L 461 3354 
L 371 2925 
L 826 2925 
L 339 659 
C 326 595 320 525 320 461 
C 320 147 538 -45 890 -45 
C 1018 -45 1216 -26 1306 0 
L 1408 467 
z
" transform="scale(0.015625)"/>
      <path id="TeXGyreHeros-Italic-65" d="M 3290 1523 
L 3302 1606 
C 3360 1914 3392 2182 3392 2355 
C 3392 2970 2861 3450 2170 3450 
C 1613 3450 1075 3187 755 2758 
C 454 2355 224 1651 224 1133 
C 224 467 717 -96 1498 -96 
C 2266 -96 2912 326 3110 1018 
L 2573 1018 
C 2355 627 2016 397 1587 397 
C 1082 397 787 685 787 1229 
C 781 1338 787 1402 819 1523 
L 3290 1523 
z
M 2816 1984 
L 934 1984 
C 1094 2547 1568 2957 2086 2957 
C 2541 2957 2829 2650 2829 2170 
C 2829 2106 2822 2061 2816 1984 
z
" transform="scale(0.015625)"/>
      <path id="TeXGyreHeros-Italic-20" transform="scale(0.015625)"/>
      <path id="TeXGyreHeros-Italic-77" d="M 4928 3354 
L 4346 3354 
L 3091 742 
L 3091 3354 
L 2349 3354 
L 1139 742 
L 1139 3354 
L 435 3354 
L 691 0 
L 1306 0 
L 2554 2675 
L 2554 0 
L 3238 0 
L 4928 3354 
z
" transform="scale(0.015625)"/>
      <path id="TeXGyreHeros-Italic-6f" d="M 3366 2253 
C 3366 2931 2906 3450 2138 3450 
C 934 3450 198 2342 198 1075 
C 198 365 698 -96 1414 -96 
C 2579 -96 3366 922 3366 2253 
z
M 2803 2131 
C 2803 1178 2266 397 1504 397 
C 1050 397 762 691 762 1203 
C 762 2131 1299 2957 2054 2957 
C 2528 2957 2803 2650 2803 2131 
z
" transform="scale(0.015625)"/>
      <path id="TeXGyreHeros-Italic-6b" d="M 2893 0 
L 1997 2195 
L 3418 3354 
L 2726 3354 
L 1005 1958 
L 1581 4666 
L 1043 4666 
L 51 0 
L 589 0 
L 864 1299 
L 1549 1862 
L 2278 0 
L 2893 0 
z
" transform="scale(0.015625)"/>
      <path id="TeXGyreHeros-Italic-28" d="M 1254 -1363 
C 1018 -749 902 -147 902 506 
C 902 1926 1459 3347 2534 4666 
L 2182 4666 
C 1069 3501 403 2042 403 742 
C 403 -19 589 -813 902 -1363 
L 1254 -1363 
z
" transform="scale(0.015625)"/>
      <path id="TeXGyreHeros-Italic-43" d="M 4384 1702 
L 3757 1702 
C 3354 787 2950 403 2125 403 
C 1459 403 1018 922 1018 1696 
C 1018 2278 1210 2925 1536 3411 
C 1926 3987 2394 4262 2982 4262 
C 3629 4262 3942 3910 3994 3219 
L 4608 3219 
C 4557 4262 3974 4781 3091 4781 
C 2342 4781 1722 4480 1222 3878 
C 717 3270 403 2381 403 1581 
C 403 563 1011 -115 2035 -115 
C 3162 -115 3840 410 4384 1702 
z
" transform="scale(0.015625)"/>
      <path id="TeXGyreHeros-Italic-4d" d="M 5542 4666 
L 4704 4666 
L 2490 653 
L 1978 4666 
L 1152 4666 
L 160 0 
L 730 0 
L 1555 3872 
L 2048 0 
L 2669 0 
L 4806 3872 
L 3981 0 
L 4550 0 
L 5542 4666 
z
" transform="scale(0.015625)"/>
      <path id="TeXGyreHeros-Italic-53" d="M 3968 1549 
C 3968 1978 3667 2349 3187 2490 
L 2086 2803 
C 1594 2944 1440 3072 1440 3354 
C 1440 3866 1952 4262 2694 4262 
C 3398 4262 3667 3994 3667 3565 
C 3667 3507 3661 3462 3642 3334 
L 4205 3334 
C 4243 3514 4256 3597 4256 3693 
C 4256 4339 3712 4781 2810 4781 
C 2150 4781 1632 4595 1286 4237 
C 1024 3968 826 3514 826 3187 
C 826 2784 1107 2445 1536 2323 
L 2630 2010 
C 3142 1862 3354 1670 3354 1370 
C 3354 838 2771 403 1901 403 
C 1178 403 845 672 845 1254 
C 845 1338 851 1395 870 1517 
L 314 1517 
C 269 1350 256 1248 256 1114 
C 256 346 832 -115 1798 -115 
C 2470 -115 3034 70 3411 422 
C 3738 723 3968 1190 3968 1549 
z
" transform="scale(0.015625)"/>
      <path id="TeXGyreHeros-Italic-73" d="M 2848 1158 
C 2848 1549 2637 1754 2074 1894 
L 1587 2016 
C 1229 2106 1043 2234 1043 2400 
C 1043 2726 1363 2957 1850 2957 
C 2227 2957 2438 2810 2438 2560 
C 2438 2515 2438 2470 2432 2419 
L 2970 2419 
C 3002 2554 3008 2611 3008 2694 
C 3008 3142 2579 3450 1958 3450 
C 1069 3450 480 2938 480 2259 
C 480 1869 704 1677 1363 1510 
L 1837 1389 
C 2240 1286 2285 1146 2285 1011 
C 2285 646 1862 397 1370 397 
C 928 397 678 570 678 890 
C 678 928 685 986 691 1050 
L 122 1050 
C 90 902 83 826 83 723 
C 83 211 531 -96 1274 -96 
C 2227 -96 2848 397 2848 1158 
z
" transform="scale(0.015625)"/>
      <path id="TeXGyreHeros-Italic-6d" d="M 4589 0 
L 5094 2387 
C 5114 2458 5133 2669 5133 2739 
C 5133 3072 4883 3450 4320 3450 
C 3904 3450 3539 3283 3162 2918 
C 3059 3277 2810 3450 2387 3450 
C 1952 3450 1658 3322 1248 2938 
L 1331 3354 
L 845 3354 
L 134 0 
L 672 0 
L 1120 2106 
C 1222 2592 1658 2989 2086 2989 
C 2400 2989 2611 2810 2611 2547 
C 2611 2477 2605 2394 2586 2310 
L 2093 0 
L 2630 0 
L 3078 2106 
C 3181 2605 3616 2989 4083 2989 
C 4384 2989 4570 2803 4570 2496 
C 4570 2400 4570 2400 4512 2182 
L 4051 0 
L 4589 0 
z
" transform="scale(0.015625)"/>
      <path id="TeXGyreHeros-Italic-75" d="M 2771 0 
L 3482 3354 
L 2944 3354 
L 2554 1504 
C 2406 813 1952 365 1408 365 
C 1062 365 838 557 838 858 
C 838 909 845 966 858 1030 
L 1350 3354 
L 813 3354 
L 275 819 
C 262 755 256 685 256 602 
C 256 166 589 -96 1139 -96 
C 1638 -96 2003 58 2368 390 
L 2285 0 
L 2771 0 
z
" transform="scale(0.015625)"/>
      <path id="TeXGyreHeros-Italic-6c" d="M 1645 4666 
L 1107 4666 
L 115 0 
L 653 0 
L 1645 4666 
z
" transform="scale(0.015625)"/>
      <path id="TeXGyreHeros-Italic-6e" d="M 3328 2406 
C 3347 2490 3354 2566 3354 2650 
C 3354 3136 3014 3450 2483 3450 
C 1997 3450 1574 3277 1242 2938 
L 1325 3354 
L 838 3354 
L 128 0 
L 666 0 
L 1056 1850 
C 1203 2554 1658 2989 2234 2989 
C 2554 2989 2790 2765 2790 2470 
C 2790 2432 2771 2336 2752 2234 
L 2278 0 
L 2816 0 
L 3328 2406 
z
" transform="scale(0.015625)"/>
      <path id="TeXGyreHeros-Italic-29" d="M 1760 2605 
C 1760 3328 1568 4134 1267 4666 
L 915 4666 
C 1158 4045 1267 3443 1267 2758 
C 1267 1376 698 -64 -365 -1363 
L -13 -1363 
C 1094 -205 1760 1274 1760 2605 
z
" transform="scale(0.015625)"/>
     </defs>
     <use xlink:href="#TeXGyreHeros-Italic-50"/>
     <use xlink:href="#TeXGyreHeros-Italic-72" x="66.699997"/>
     <use xlink:href="#TeXGyreHeros-Italic-69" x="99.999985"/>
     <use xlink:href="#TeXGyreHeros-Italic-76" x="122.199982"/>
     <use xlink:href="#TeXGyreHeros-Italic-61" x="172.199966"/>
     <use xlink:href="#TeXGyreHeros-Italic-74" x="227.799957"/>
     <use xlink:href="#TeXGyreHeros-Italic-65" x="255.599945"/>
     <use xlink:href="#TeXGyreHeros-Italic-20" x="311.199936"/>
     <use xlink:href="#TeXGyreHeros-Italic-77" x="338.999924"/>
     <use xlink:href="#TeXGyreHeros-Italic-6f" x="411.199905"/>
     <use xlink:href="#TeXGyreHeros-Italic-72" x="466.799896"/>
     <use xlink:href="#TeXGyreHeros-Italic-6b" x="500.099884"/>
     <use xlink:href="#TeXGyreHeros-Italic-20" x="550.099869"/>
     <use xlink:href="#TeXGyreHeros-Italic-28" x="577.899857"/>
     <use xlink:href="#TeXGyreHeros-Italic-43" x="611.199844"/>
     <use xlink:href="#TeXGyreHeros-Italic-4d" x="683.399826"/>
     <use xlink:href="#TeXGyreHeros-Italic-53" x="766.699814"/>
     <use xlink:href="#TeXGyreHeros-Italic-20" x="833.399811"/>
     <use xlink:href="#TeXGyreHeros-Italic-73" x="861.199799"/>
     <use xlink:href="#TeXGyreHeros-Italic-69" x="911.199783"/>
     <use xlink:href="#TeXGyreHeros-Italic-6d" x="933.39978"/>
     <use xlink:href="#TeXGyreHeros-Italic-75" x="1016.699768"/>
     <use xlink:href="#TeXGyreHeros-Italic-6c" x="1072.299759"/>
     <use xlink:href="#TeXGyreHeros-Italic-61" x="1094.499756"/>
     <use xlink:href="#TeXGyreHeros-Italic-74" x="1150.099747"/>
     <use xlink:href="#TeXGyreHeros-Italic-69" x="1177.899734"/>
     <use xlink:href="#TeXGyreHeros-Italic-6f" x="1200.099731"/>
     <use xlink:href="#TeXGyreHeros-Italic-6e" x="1255.699722"/>
     <use xlink:href="#TeXGyreHeros-Italic-29" x="1311.299713"/>
    </g>
   </g>
   <g id="legend_1">
    <g id="patch_7">
     <path d="M 97.780724 63.99625 
L 335.116661 63.99625 
Q 337.116661 63.99625 337.116661 61.99625 
L 337.116661 33.64 
Q 337.116661 31.64 335.116661 31.64 
L 97.780724 31.64 
Q 95.780724 31.64 95.780724 33.64 
L 95.780724 61.99625 
Q 95.780724 63.99625 97.780724 63.99625 
z
" style="fill: #ffffff; opacity: 0.8; stroke: #cccccc; stroke-linejoin: miter"/>
    </g>
    <g id="line2d_29">
     <path d="M 99.780724 39.738437 
L 99.780724 39.738437 
L 109.780724 39.738437 
L 109.780724 39.738437 
L 119.780724 39.738437 
" style="fill: none; stroke: #1f77b4; stroke-width: 1.5; stroke-linecap: square"/>
    </g>
    <g id="text_18">
     <!-- Network (mean abs 0.116) -->
     <g transform="translate(127.780724 43.238437) scale(0.1 -0.1)">
      <defs>
       <path id="DejaVuSans-4e" d="M 628 4666 
L 1478 4666 
L 3547 763 
L 3547 4666 
L 4159 4666 
L 4159 0 
L 3309 0 
L 1241 3903 
L 1241 0 
L 628 0 
L 628 4666 
z
" transform="scale(0.015625)"/>
       <path id="DejaVuSans-77" d="M 269 3500 
L 844 3500 
L 1563 769 
L 2278 3500 
L 2956 3500 
L 3675 769 
L 4391 3500 
L 4966 3500 
L 4050 0 
L 3372 0 
L 2619 2869 
L 1863 0 
L 1184 0 
L 269 3500 
z
" transform="scale(0.015625)"/>
       <path id="DejaVuSans-6f" d="M 1959 3097 
Q 1497 3097 1228 2736 
Q 959 2375 959 1747 
Q 959 1119 1226 758 
Q 1494 397 1959 397 
Q 2419 397 2687 759 
Q 2956 1122 2956 1747 
Q 2956 2369 2687 2733 
Q 2419 3097 1959 3097 
z
M 1959 3584 
Q 2709 3584 3137 3096 
Q 3566 2609 3566 1747 
Q 3566 888 3137 398 
Q 2709 -91 1959 -91 
Q 1206 -91 779 398 
Q 353 888 353 1747 
Q 353 2609 779 3096 
Q 1206 3584 1959 3584 
z
" transform="scale(0.015625)"/>
       <path id="DejaVuSans-6b" d="M 581 4863 
L 1159 4863 
L 1159 1991 
L 2875 3500 
L 3609 3500 
L 1753 1863 
L 3688 0 
L 2938 0 
L 1159 1709 
L 1159 0 
L 581 0 
L 581 4863 
z
" transform="scale(0.015625)"/>
       <path id="DejaVuSans-6e" d="M 3513 2113 
L 3513 0 
L 2938 0 
L 2938 2094 
Q 2938 2591 2744 2837 
Q 2550 3084 2163 3084 
Q 1697 3084 1428 2787 
Q 1159 2491 1159 1978 
L 1159 0 
L 581 0 
L 581 3500 
L 1159 3500 
L 1159 2956 
Q 1366 3272 1645 3428 
Q 1925 3584 2291 3584 
Q 2894 3584 3203 3211 
Q 3513 2838 3513 2113 
z
" transform="scale(0.015625)"/>
      </defs>
      <use xlink:href="#DejaVuSans-4e"/>
      <use xlink:href="#DejaVuSans-65" x="74.804688"/>
      <use xlink:href="#DejaVuSans-74" x="136.328125"/>
      <use xlink:href="#DejaVuSans-77" x="175.537109"/>
      <use xlink:href="#DejaVuSans-6f" x="257.324219"/>
      <use xlink:href="#DejaVuSans-72" x="318.505859"/>
      <use xlink:href="#DejaVuSans-6b" x="359.619141"/>
      <use xlink:href="#DejaVuSans-20" x="417.529297"/>
      <use xlink:href="#DejaVuSans-28" x="449.316406"/>
      <use xlink:href="#DejaVuSans-6d" x="488.330078"/>
      <use xlink:href="#DejaVuSans-65" x="585.742188"/>
      <use xlink:href="#DejaVuSans-61" x="647.265625"/>
      <use xlink:href="#DejaVuSans-6e" x="708.544922"/>
      <use xlink:href="#DejaVuSans-20" x="771.923828"/>
      <use xlink:href="#DejaVuSans-61" x="803.710938"/>
      <use xlink:href="#DejaVuSans-62" x="864.990234"/>
      <use xlink:href="#DejaVuSans-73" x="928.466797"/>
      <use xlink:href="#DejaVuSans-20" x="980.566406"/>
      <use xlink:href="#DejaVuSans-30" x="1012.353516"/>
      <use xlink:href="#DejaVuSans-2e" x="1075.976562"/>
      <use xlink:href="#DejaVuSans-31" x="1107.763672"/>
      <use xlink:href="#DejaVuSans-31" x="1171.386719"/>
      <use xlink:href="#DejaVuSans-36" x="1235.009766"/>
      <use xlink:href="#DejaVuSans-29" x="1298.632812"/>
     </g>
    </g>
    <g id="line2d_30">
     <path d="M 99.780724 54.416562 
L 99.780724 54.416562 
L 109.780724 54.416562 
L 109.780724 54.416562 
L 119.780724 54.416562 
" style="fill: none; stroke: #ff7f0e; stroke-width: 1.5; stroke-linecap: square"/>
    </g>
    <g id="text_19">
     <!-- Analytic Sonnenschein (mean abs 0.142) -->
     <g transform="translate(127.780724 57.916562) scale(0.1 -0.1)">
      <defs>
       <path id="DejaVuSans-41" d="M 2188 4044 
L 1331 1722 
L 3047 1722 
L 2188 4044 
z
M 1831 4666 
L 2547 4666 
L 4325 0 
L 3669 0 
L 3244 1197 
L 1141 1197 
L 716 0 
L 50 0 
L 1831 4666 
z
" transform="scale(0.015625)"/>
       <path id="DejaVuSans-79" d="M 2059 -325 
Q 1816 -950 1584 -1140 
Q 1353 -1331 966 -1331 
L 506 -1331 
L 506 -850 
L 844 -850 
Q 1081 -850 1212 -737 
Q 1344 -625 1503 -206 
L 1606 56 
L 191 3500 
L 800 3500 
L 1894 763 
L 2988 3500 
L 3597 3500 
L 2059 -325 
z
" transform="scale(0.015625)"/>
       <path id="DejaVuSans-63" d="M 3122 3366 
L 3122 2828 
Q 2878 2963 2633 3030 
Q 2388 3097 2138 3097 
Q 1578 3097 1268 2742 
Q 959 2388 959 1747 
Q 959 1106 1268 751 
Q 1578 397 2138 397 
Q 2388 397 2633 464 
Q 2878 531 3122 666 
L 3122 134 
Q 2881 22 2623 -34 
Q 2366 -91 2075 -91 
Q 1284 -91 818 406 
Q 353 903 353 1747 
Q 353 2603 823 3093 
Q 1294 3584 2113 3584 
Q 2378 3584 2631 3529 
Q 2884 3475 3122 3366 
z
" transform="scale(0.015625)"/>
       <path id="DejaVuSans-53" d="M 3425 4513 
L 3425 3897 
Q 3066 4069 2747 4153 
Q 2428 4238 2131 4238 
Q 1616 4238 1336 4038 
Q 1056 3838 1056 3469 
Q 1056 3159 1242 3001 
Q 1428 2844 1947 2747 
L 2328 2669 
Q 3034 2534 3370 2195 
Q 3706 1856 3706 1288 
Q 3706 609 3251 259 
Q 2797 -91 1919 -91 
Q 1588 -91 1214 -16 
Q 841 59 441 206 
L 441 856 
Q 825 641 1194 531 
Q 1563 422 1919 422 
Q 2459 422 2753 634 
Q 3047 847 3047 1241 
Q 3047 1584 2836 1778 
Q 2625 1972 2144 2069 
L 1759 2144 
Q 1053 2284 737 2584 
Q 422 2884 422 3419 
Q 422 4038 858 4394 
Q 1294 4750 2059 4750 
Q 2388 4750 2728 4690 
Q 3069 4631 3425 4513 
z
" transform="scale(0.015625)"/>
       <path id="DejaVuSans-68" d="M 3513 2113 
L 3513 0 
L 2938 0 
L 2938 2094 
Q 2938 2591 2744 2837 
Q 2550 3084 2163 3084 
Q 1697 3084 1428 2787 
Q 1159 2491 1159 1978 
L 1159 0 
L 581 0 
L 581 4863 
L 1159 4863 
L 1159 2956 
Q 1366 3272 1645 3428 
Q 1925 3584 2291 3584 
Q 2894 3584 3203 3211 
Q 3513 2838 3513 2113 
z
" transform="scale(0.015625)"/>
      </defs>
      <use xlink:href="#DejaVuSans-41"/>
      <use xlink:href="#DejaVuSans-6e" x="68.408203"/>
      <use xlink:href="#DejaVuSans-61" x="131.787109"/>
      <use xlink:href="#DejaVuSans-6c" x="193.066406"/>
      <use xlink:href="#DejaVuSans-79" x="220.849609"/>
      <use xlink:href="#DejaVuSans-74" x="280.029297"/>
      <use xlink:href="#DejaVuSans-69" x="319.238281"/>
      <use xlink:href="#DejaVuSans-63" x="347.021484"/>
      <use xlink:href="#DejaVuSans-20" x="402.001953"/>
      <use xlink:href="#DejaVuSans-53" x="433.789062"/>
      <use xlink:href="#DejaVuSans-6f" x="497.265625"/>
      <use xlink:href="#DejaVuSans-6e" x="558.447266"/>
      <use xlink:href="#DejaVuSans-6e" x="621.826172"/>
      <use xlink:href="#DejaVuSans-65" x="685.205078"/>
      <use xlink:href="#DejaVuSans-6e" x="746.728516"/>
      <use xlink:href="#DejaVuSans-73" x="810.107422"/>
      <use xlink:href="#DejaVuSans-63" x="862.207031"/>
      <use xlink:href="#DejaVuSans-68" x="917.1875"/>
      <use xlink:href="#DejaVuSans-65" x="980.566406"/>
      <use xlink:href="#DejaVuSans-69" x="1042.089844"/>
      <use xlink:href="#DejaVuSans-6e" x="1069.873047"/>
      <use xlink:href="#DejaVuSans-20" x="1133.251953"/>
      <use xlink:href="#DejaVuSans-28" x="1165.039062"/>
      <use xlink:href="#DejaVuSans-6d" x="1204.052734"/>
      <use xlink:href="#DejaVuSans-65" x="1301.464844"/>
      <use xlink:href="#DejaVuSans-61" x="1362.988281"/>
      <use xlink:href="#DejaVuSans-6e" x="1424.267578"/>
      <use xlink:href="#DejaVuSans-20" x="1487.646484"/>
      <use xlink:href="#DejaVuSans-61" x="1519.433594"/>
      <use xlink:href="#DejaVuSans-62" x="1580.712891"/>
      <use xlink:href="#DejaVuSans-73" x="1644.189453"/>
      <use xlink:href="#DejaVuSans-20" x="1696.289062"/>
      <use xlink:href="#DejaVuSans-30" x="1728.076172"/>
      <use xlink:href="#DejaVuSans-2e" x="1791.699219"/>
      <use xlink:href="#DejaVuSans-31" x="1823.486328"/>
      <use xlink:href="#DejaVuSans-34" x="1887.109375"/>
      <use xlink:href="#DejaVuSans-32" x="1950.732422"/>
      <use xlink:href="#DejaVuSans-29" x="2014.355469"/>
     </g>
    </g>
   </g>
  </g>
 </g>
 <defs>
  <clipPath id="p4a6fa0d50d">
   <rect x="56.18" y="26.64" width="285.936661" height="194.488654"/>
  </clipPath>
 </defs>
</svg>
