<?xml version="1.0" encoding="utf-8" standalone="no"?>
<!DOCTYPE svg PUBLIC "-//W3C//DTD SVG 1.1//EN"
  "http://www.w3.org/Graphics/SVG/1.1/DTD/svg11.dtd">
<svg xmlns:xlink="http://www.w3.org/1999/xlink" width="354.461538pt" height="265.846154pt" viewBox="0 0 354.461538 265.846154" xmlns="http://www.w3.org/2000/svg" version="1.1">
 <metadata>
  <rdf:RDF xmlns:dc="http://purl.org/dc/elements/1.1/" xmlns:cc="http://creativecommons.org/ns#" xmlns:rdf="http://www.w3.org/1999/02/22-rdf-syntax-ns#">
   <cc:Work>
    <dc:type rdf:resource="http://purl.org/dc/dcmitype/StillImage"/>
    <dc:date>2024-08-05T21:01:52.766011</dc:date>
    <dc:format>image/svg+xml</dc:format>
    <dc:creator>
     <cc:Agent>
      <dc:title>Matplotlib v3.7.1, https://matplotlib.org/</dc:title>
     </cc:Agent>
    </dc:creator>
   </cc:Work>
  </rdf:RDF>
 </metadata>
 <defs>
  <style type="text/css">*{stroke-linejoin: round; stroke-linecap: butt}</style>
 </defs>
 <g id="figure_1">
  <g id="patch_1">
   <path d="M 0 265.846154 
L 354.461538 265.846154 
L 354.461538 0 
L 0 0 
z
" style="fill: #ffffff"/>
  </g>
  <g id="axes_1">
   <g id="patch_2">
    <path d="M 46.64 221.006154 
L 343.661538 221.006154 
L 343.661538 26.64 
L 46.64 26.64 
z
" style="fill: #ffffff"/>
   </g>
   <g id="PolyCollection_1">
    <defs>
     <path id="m45fedc536f" d="M 46.64 -99.466387 
L 46.64 -53.674825 
L 46.64 -53.674825 
L 52.701664 -53.674825 
L 52.701664 -55.218257 
L 58.763328 -55.218257 
L 58.763328 -59.148248 
L 64.824992 -59.148248 
L 64.824992 -60.632474 
L 70.886656 -60.632474 
L 70.886656 -63.718341 
L 76.94832 -63.718341 
L 76.94832 -66.271212 
L 83.009984 -66.271212 
L 83.009984 -69.402861 
L 89.071648 -69.402861 
L 89.071648 -71.539352 
L 95.133312 -71.539352 
L 95.133312 -74.751727 
L 101.194976 -74.751727 
L 101.194976 -77.408559 
L 107.256641 -77.408559 
L 107.256641 -80.388277 
L 113.318305 -80.388277 
L 113.318305 -82.32581 
L 119.379969 -82.32581 
L 119.379969 -86.274612 
L 125.441633 -86.274612 
L 125.441633 -88.558271 
L 131.503297 -88.558271 
L 131.503297 -91.269683 
L 137.564961 -91.269683 
L 137.564961 -93.57129 
L 143.626625 -93.57129 
L 143.626625 -96.245626 
L 149.688289 -96.245626 
L 149.688289 -99.593257 
L 155.749953 -99.593257 
L 155.749953 -102.261867 
L 161.811617 -102.261867 
L 161.811617 -104.450345 
L 167.873281 -104.450345 
L 167.873281 -107.968853 
L 173.934945 -107.968853 
L 173.934945 -110.083781 
L 179.996609 -110.083781 
L 179.996609 -112.524234 
L 186.058273 -112.524234 
L 186.058273 -116.245334 
L 192.119937 -116.245334 
L 192.119937 -119.651004 
L 198.181601 -119.651004 
L 198.181601 -121.992491 
L 204.243265 -121.992491 
L 204.243265 -124.510177 
L 210.304929 -124.510177 
L 210.304929 -126.625071 
L 216.366593 -126.625071 
L 216.366593 -130.327274 
L 222.428257 -130.327274 
L 222.428257 -132.566891 
L 228.489922 -132.566891 
L 228.489922 -135.719897 
L 234.551586 -135.719897 
L 234.551586 -137.57046 
L 240.61325 -137.57046 
L 240.61325 -140.805364 
L 246.674914 -140.805364 
L 246.674914 -143.446001 
L 252.736578 -143.446001 
L 252.736578 -147.003766 
L 258.798242 -147.003766 
L 258.798242 -149.566227 
L 264.859906 -149.566227 
L 264.859906 -152.135458 
L 270.92157 -152.135458 
L 270.92157 -154.389123 
L 276.983234 -154.389123 
L 276.983234 -157.554756 
L 283.044898 -157.554756 
L 283.044898 -160.777517 
L 289.106562 -160.777517 
L 289.106562 -162.696393 
L 295.168226 -162.696393 
L 295.168226 -165.579278 
L 301.22989 -165.579278 
L 301.22989 -168.727444 
L 307.291554 -168.727444 
L 307.291554 -171.115648 
L 313.353218 -171.115648 
L 313.353218 -173.972573 
L 319.414882 -173.972573 
L 319.414882 -176.144671 
L 325.476546 -176.144671 
L 325.476546 -179.400503 
L 331.53821 -179.400503 
L 331.53821 -180.653177 
L 337.599874 -180.653177 
L 337.599874 -184.579767 
L 343.661538 -184.579767 
L 343.661538 -230.371329 
L 343.661538 -230.371329 
L 337.599874 -230.371329 
L 337.599874 -226.444739 
L 331.53821 -226.444739 
L 331.53821 -225.192065 
L 325.476546 -225.192065 
L 325.476546 -221.936233 
L 319.414882 -221.936233 
L 319.414882 -219.764135 
L 313.353218 -219.764135 
L 313.353218 -216.90721 
L 307.291554 -216.90721 
L 307.291554 -214.519005 
L 301.22989 -214.519005 
L 301.22989 -211.370839 
L 295.168226 -211.370839 
L 295.168226 -208.487955 
L 289.106562 -208.487955 
L 289.106562 -206.569079 
L 283.044898 -206.569079 
L 283.044898 -203.346318 
L 276.983234 -203.346318 
L 276.983234 -200.180685 
L 270.92157 -200.180685 
L 270.92157 -197.927019 
L 264.859906 -197.927019 
L 264.859906 -195.357789 
L 258.798242 -195.357789 
L 258.798242 -192.795328 
L 252.736578 -192.795328 
L 252.736578 -189.237563 
L 246.674914 -189.237563 
L 246.674914 -186.596926 
L 240.61325 -186.596926 
L 240.61325 -183.362022 
L 234.551586 -183.362022 
L 234.551586 -181.511459 
L 228.489922 -181.511459 
L 228.489922 -178.358453 
L 222.428257 -178.358453 
L 222.428257 -176.118836 
L 216.366593 -176.118836 
L 216.366593 -172.416633 
L 210.304929 -172.416633 
L 210.304929 -170.301738 
L 204.243265 -170.301738 
L 204.243265 -167.784053 
L 198.181601 -167.784053 
L 198.181601 -165.442566 
L 192.119937 -165.442566 
L 192.119937 -162.036896 
L 186.058273 -162.036896 
L 186.058273 -158.315796 
L 179.996609 -158.315796 
L 179.996609 -155.875343 
L 173.934945 -155.875343 
L 173.934945 -153.760415 
L 167.873281 -153.760415 
L 167.873281 -150.241907 
L 161.811617 -150.241907 
L 161.811617 -148.053428 
L 155.749953 -148.053428 
L 155.749953 -145.384819 
L 149.688289 -145.384819 
L 149.688289 -142.037187 
L 143.626625 -142.037187 
L 143.626625 -139.362852 
L 137.564961 -139.362852 
L 137.564961 -137.061245 
L 131.503297 -137.061245 
L 131.503297 -134.349833 
L 125.441633 -134.349833 
L 125.441633 -132.066174 
L 119.379969 -132.066174 
L 119.379969 -128.117372 
L 113.318305 -128.117372 
L 113.318305 -126.179839 
L 107.256641 -126.179839 
L 107.256641 -123.200121 
L 101.194976 -123.200121 
L 101.194976 -120.543288 
L 95.133312 -120.543288 
L 95.133312 -117.330914 
L 89.071648 -117.330914 
L 89.071648 -115.194423 
L 83.009984 -115.194423 
L 83.009984 -112.062774 
L 76.94832 -112.062774 
L 76.94832 -109.509903 
L 70.886656 -109.509903 
L 70.886656 -106.424036 
L 64.824992 -106.424036 
L 64.824992 -104.93981 
L 58.763328 -104.93981 
L 58.763328 -101.009819 
L 52.701664 -101.009819 
L 52.701664 -99.466387 
L 46.64 -99.466387 
L 46.64 -99.466387 
z
" style="stroke: #1f77b4; stroke-opacity: 0.5"/>
    </defs>
    <g clip-path="url(#p3a6e9a5545)">
     <use xlink:href="#m45fedc536f" x="0" y="265.846154" style="fill: #1f77b4; fill-opacity: 0.5; stroke: #1f77b4; stroke-opacity: 0.5"/>
    </g>
   </g>
   <g id="PolyCollection_2">
    <defs>
     <path id="mca42b8c76f" d="M 46.64 -104.247267 
L 46.64 -66.313489 
L 46.64 -66.313489 
L 52.701664 -66.313489 
L 52.701664 -68.254492 
L 58.763328 -68.254492 
L 58.763328 -71.402561 
L 64.824992 -71.402561 
L 64.824992 -72.570527 
L 70.886656 -72.570527 
L 70.886656 -75.530209 
L 76.94832 -75.530209 
L 76.94832 -77.609946 
L 83.009984 -77.609946 
L 83.009984 -80.226486 
L 89.071648 -80.226486 
L 89.071648 -81.866044 
L 95.133312 -81.866044 
L 95.133312 -85.35774 
L 101.194976 -85.35774 
L 101.194976 -86.055926 
L 107.256641 -86.055926 
L 107.256641 -89.43014 
L 113.318305 -89.43014 
L 113.318305 -92.157362 
L 119.379969 -92.157362 
L 119.379969 -94.367793 
L 125.441633 -94.367793 
L 125.441633 -96.965408 
L 131.503297 -96.965408 
L 131.503297 -98.916208 
L 137.564961 -98.916208 
L 137.564961 -101.570118 
L 143.626625 -101.570118 
L 143.626625 -103.285331 
L 149.688289 -103.285331 
L 149.688289 -106.15995 
L 155.749953 -106.15995 
L 155.749953 -108.249113 
L 161.811617 -108.249113 
L 161.811617 -111.009845 
L 167.873281 -111.009845 
L 167.873281 -113.704673 
L 173.934945 -113.704673 
L 173.934945 -116.140024 
L 179.996609 -116.140024 
L 179.996609 -117.810887 
L 186.058273 -117.810887 
L 186.058273 -120.859552 
L 192.119937 -120.859552 
L 192.119937 -123.324926 
L 198.181601 -123.324926 
L 198.181601 -125.426041 
L 204.243265 -125.426041 
L 204.243265 -127.846184 
L 210.304929 -127.846184 
L 210.304929 -129.580919 
L 216.366593 -129.580919 
L 216.366593 -132.480007 
L 222.428257 -132.480007 
L 222.428257 -135.06538 
L 228.489922 -135.06538 
L 228.489922 -137.246088 
L 234.551586 -137.246088 
L 234.551586 -139.595577 
L 240.61325 -139.595577 
L 240.61325 -142.906776 
L 246.674914 -142.906776 
L 246.674914 -144.867086 
L 252.736578 -144.867086 
L 252.736578 -147.144641 
L 258.798242 -147.144641 
L 258.798242 -149.980801 
L 264.859906 -149.980801 
L 264.859906 -152.490315 
L 270.92157 -152.490315 
L 270.92157 -153.857579 
L 276.983234 -153.857579 
L 276.983234 -157.171388 
L 283.044898 -157.171388 
L 283.044898 -159.664518 
L 289.106562 -159.664518 
L 289.106562 -161.394443 
L 295.168226 -161.394443 
L 295.168226 -163.950372 
L 301.22989 -163.950372 
L 301.22989 -165.61704 
L 307.291554 -165.61704 
L 307.291554 -167.975101 
L 313.353218 -167.975101 
L 313.353218 -171.624358 
L 319.414882 -171.624358 
L 319.414882 -172.886343 
L 325.476546 -172.886343 
L 325.476546 -175.702676 
L 331.53821 -175.702676 
L 331.53821 -177.344842 
L 337.599874 -177.344842 
L 337.599874 -180.64039 
L 343.661538 -180.64039 
L 343.661538 -218.574167 
L 343.661538 -218.574167 
L 337.599874 -218.574167 
L 337.599874 -215.278619 
L 331.53821 -215.278619 
L 331.53821 -213.636453 
L 325.476546 -213.636453 
L 325.476546 -210.82012 
L 319.414882 -210.82012 
L 319.414882 -209.558135 
L 313.353218 -209.558135 
L 313.353218 -205.908878 
L 307.291554 -205.908878 
L 307.291554 -203.550817 
L 301.22989 -203.550817 
L 301.22989 -201.884149 
L 295.168226 -201.884149 
L 295.168226 -199.32822 
L 289.106562 -199.32822 
L 289.106562 -197.598295 
L 283.044898 -197.598295 
L 283.044898 -195.105165 
L 276.983234 -195.105165 
L 276.983234 -191.791356 
L 270.92157 -191.791356 
L 270.92157 -190.424093 
L 264.859906 -190.424093 
L 264.859906 -187.914578 
L 258.798242 -187.914578 
L 258.798242 -185.078418 
L 252.736578 -185.078418 
L 252.736578 -182.800863 
L 246.674914 -182.800863 
L 246.674914 -180.840553 
L 240.61325 -180.840553 
L 240.61325 -177.529354 
L 234.551586 -177.529354 
L 234.551586 -175.179865 
L 228.489922 -175.179865 
L 228.489922 -172.999158 
L 222.428257 -172.999158 
L 222.428257 -170.413784 
L 216.366593 -170.413784 
L 216.366593 -167.514696 
L 210.304929 -167.514696 
L 210.304929 -165.779961 
L 204.243265 -165.779961 
L 204.243265 -163.359818 
L 198.181601 -163.359818 
L 198.181601 -161.258703 
L 192.119937 -161.258703 
L 192.119937 -158.793329 
L 186.058273 -158.793329 
L 186.058273 -155.744664 
L 179.996609 -155.744664 
L 179.996609 -154.073801 
L 173.934945 -154.073801 
L 173.934945 -151.63845 
L 167.873281 -151.63845 
L 167.873281 -148.943622 
L 161.811617 -148.943622 
L 161.811617 -146.18289 
L 155.749953 -146.18289 
L 155.749953 -144.093727 
L 149.688289 -144.093727 
L 149.688289 -141.219108 
L 143.626625 -141.219108 
L 143.626625 -139.503895 
L 137.564961 -139.503895 
L 137.564961 -136.849985 
L 131.503297 -136.849985 
L 131.503297 -134.899185 
L 125.441633 -134.899185 
L 125.441633 -132.30157 
L 119.379969 -132.30157 
L 119.379969 -130.091139 
L 113.318305 -130.091139 
L 113.318305 -127.363917 
L 107.256641 -127.363917 
L 107.256641 -123.989704 
L 101.194976 -123.989704 
L 101.194976 -123.291517 
L 95.133312 -123.291517 
L 95.133312 -119.799822 
L 89.071648 -119.799822 
L 89.071648 -118.160263 
L 83.009984 -118.160263 
L 83.009984 -115.543724 
L 76.94832 -115.543724 
L 76.94832 -113.463986 
L 70.886656 -113.463986 
L 70.886656 -110.504305 
L 64.824992 -110.504305 
L 64.824992 -109.336338 
L 58.763328 -109.336338 
L 58.763328 -106.188269 
L 52.701664 -106.188269 
L 52.701664 -104.247267 
L 46.64 -104.247267 
L 46.64 -104.247267 
z
" style="stroke: #ff7f0e; stroke-opacity: 0.5"/>
    </defs>
    <g clip-path="url(#p3a6e9a5545)">
     <use xlink:href="#mca42b8c76f" x="0" y="265.846154" style="fill: #ff7f0e; fill-opacity: 0.5; stroke: #ff7f0e; stroke-opacity: 0.5"/>
    </g>
   </g>
   <g id="matplotlib.axis_1">
    <g id="xtick_1">
     <g id="line2d_1">
      <path d="M 95.275943 221.006154 
L 95.275943 26.64 
" clip-path="url(#p3a6e9a5545)" style="fill: none; stroke: #b0b0b0; stroke-width: 0.8; stroke-linecap: square"/>
     </g>
     <g id="line2d_2">
      <defs>
       <path id="m1271e19cd6" d="M 0 0 
L 0 3.5 
" style="stroke: #000000; stroke-width: 0.8"/>
      </defs>
      <g>
       <use xlink:href="#m1271e19cd6" x="95.275943" y="221.006154" style="stroke: #000000; stroke-width: 0.8"/>
      </g>
     </g>
     <g id="text_1">
      <!-- −1.0 -->
      <g transform="translate(83.134537 235.604591) scale(0.1 -0.1)">
       <defs>
        <path id="DejaVuSans-2212" d="M 678 2272 
L 4684 2272 
L 4684 1741 
L 678 1741 
L 678 2272 
z
" transform="scale(0.015625)"/>
        <path id="DejaVuSans-31" d="M 794 531 
L 1825 531 
L 1825 4091 
L 703 3866 
L 703 4441 
L 1819 4666 
L 2450 4666 
L 2450 531 
L 3481 531 
L 3481 0 
L 794 0 
L 794 531 
z
" transform="scale(0.015625)"/>
        <path id="DejaVuSans-2e" d="M 684 794 
L 1344 794 
L 1344 0 
L 684 0 
L 684 794 
z
" transform="scale(0.015625)"/>
        <path id="DejaVuSans-30" d="M 2034 4250 
Q 1547 4250 1301 3770 
Q 1056 3291 1056 2328 
Q 1056 1369 1301 889 
Q 1547 409 2034 409 
Q 2525 409 2770 889 
Q 3016 1369 3016 2328 
Q 3016 3291 2770 3770 
Q 2525 4250 2034 4250 
z
M 2034 4750 
Q 2819 4750 3233 4129 
Q 3647 3509 3647 2328 
Q 3647 1150 3233 529 
Q 2819 -91 2034 -91 
Q 1250 -91 836 529 
Q 422 1150 422 2328 
Q 422 3509 836 4129 
Q 1250 4750 2034 4750 
z
" transform="scale(0.015625)"/>
       </defs>
       <use xlink:href="#DejaVuSans-2212"/>
       <use xlink:href="#DejaVuSans-31" x="83.789062"/>
       <use xlink:href="#DejaVuSans-2e" x="147.412109"/>
       <use xlink:href="#DejaVuSans-30" x="179.199219"/>
      </g>
     </g>
    </g>
    <g id="xtick_2">
     <g id="line2d_3">
      <path d="M 145.406625 221.006154 
L 145.406625 26.64 
" clip-path="url(#p3a6e9a5545)" style="fill: none; stroke: #b0b0b0; stroke-width: 0.8; stroke-linecap: square"/>
     </g>
     <g id="line2d_4">
      <g>
       <use xlink:href="#m1271e19cd6" x="145.406625" y="221.006154" style="stroke: #000000; stroke-width: 0.8"/>
      </g>
     </g>
     <g id="text_2">
      <!-- −0.5 -->
      <g transform="translate(133.265219 235.604591) scale(0.1 -0.1)">
       <defs>
        <path id="DejaVuSans-35" d="M 691 4666 
L 3169 4666 
L 3169 4134 
L 1269 4134 
L 1269 2991 
Q 1406 3038 1543 3061 
Q 1681 3084 1819 3084 
Q 2600 3084 3056 2656 
Q 3513 2228 3513 1497 
Q 3513 744 3044 326 
Q 2575 -91 1722 -91 
Q 1428 -91 1123 -41 
Q 819 9 494 109 
L 494 744 
Q 775 591 1075 516 
Q 1375 441 1709 441 
Q 2250 441 2565 725 
Q 2881 1009 2881 1497 
Q 2881 1984 2565 2268 
Q 2250 2553 1709 2553 
Q 1456 2553 1204 2497 
Q 953 2441 691 2322 
L 691 4666 
z
" transform="scale(0.015625)"/>
       </defs>
       <use xlink:href="#DejaVuSans-2212"/>
       <use xlink:href="#DejaVuSans-30" x="83.789062"/>
       <use xlink:href="#DejaVuSans-2e" x="147.412109"/>
       <use xlink:href="#DejaVuSans-35" x="179.199219"/>
      </g>
     </g>
    </g>
    <g id="xtick_3">
     <g id="line2d_5">
      <path d="M 195.537307 221.006154 
L 195.537307 26.64 
" clip-path="url(#p3a6e9a5545)" style="fill: none; stroke: #b0b0b0; stroke-width: 0.8; stroke-linecap: square"/>
     </g>
     <g id="line2d_6">
      <g>
       <use xlink:href="#m1271e19cd6" x="195.537307" y="221.006154" style="stroke: #000000; stroke-width: 0.8"/>
      </g>
     </g>
     <g id="text_3">
      <!-- 0.0 -->
      <g transform="translate(187.585745 235.604591) scale(0.1 -0.1)">
       <use xlink:href="#DejaVuSans-30"/>
       <use xlink:href="#DejaVuSans-2e" x="63.623047"/>
       <use xlink:href="#DejaVuSans-30" x="95.410156"/>
      </g>
     </g>
    </g>
    <g id="xtick_4">
     <g id="line2d_7">
      <path d="M 245.66799 221.006154 
L 245.66799 26.64 
" clip-path="url(#p3a6e9a5545)" style="fill: none; stroke: #b0b0b0; stroke-width: 0.8; stroke-linecap: square"/>
     </g>
     <g id="line2d_8">
      <g>
       <use xlink:href="#m1271e19cd6" x="245.66799" y="221.006154" style="stroke: #000000; stroke-width: 0.8"/>
      </g>
     </g>
     <g id="text_4">
      <!-- 0.5 -->
      <g transform="translate(237.716427 235.604591) scale(0.1 -0.1)">
       <use xlink:href="#DejaVuSans-30"/>
       <use xlink:href="#DejaVuSans-2e" x="63.623047"/>
       <use xlink:href="#DejaVuSans-35" x="95.410156"/>
      </g>
     </g>
    </g>
    <g id="xtick_5">
     <g id="line2d_9">
      <path d="M 295.798672 221.006154 
L 295.798672 26.64 
" clip-path="url(#p3a6e9a5545)" style="fill: none; stroke: #b0b0b0; stroke-width: 0.8; stroke-linecap: square"/>
     </g>
     <g id="line2d_10">
      <g>
       <use xlink:href="#m1271e19cd6" x="295.798672" y="221.006154" style="stroke: #000000; stroke-width: 0.8"/>
      </g>
     </g>
     <g id="text_5">
      <!-- 1.0 -->
      <g transform="translate(287.847109 235.604591) scale(0.1 -0.1)">
       <use xlink:href="#DejaVuSans-31"/>
       <use xlink:href="#DejaVuSans-2e" x="63.623047"/>
       <use xlink:href="#DejaVuSans-30" x="95.410156"/>
      </g>
     </g>
    </g>
    <g id="text_6">
     <!-- True Top quark $\eta$ -->
     <g transform="translate(152.200769 249.284279) scale(0.1 -0.1)">
      <defs>
       <path id="DejaVuSans-54" d="M -19 4666 
L 3928 4666 
L 3928 4134 
L 2272 4134 
L 2272 0 
L 1638 0 
L 1638 4134 
L -19 4134 
L -19 4666 
z
" transform="scale(0.015625)"/>
       <path id="DejaVuSans-72" d="M 2631 2963 
Q 2534 3019 2420 3045 
Q 2306 3072 2169 3072 
Q 1681 3072 1420 2755 
Q 1159 2438 1159 1844 
L 1159 0 
L 581 0 
L 581 3500 
L 1159 3500 
L 1159 2956 
Q 1341 3275 1631 3429 
Q 1922 3584 2338 3584 
Q 2397 3584 2469 3576 
Q 2541 3569 2628 3553 
L 2631 2963 
z
" transform="scale(0.015625)"/>
       <path id="DejaVuSans-75" d="M 544 1381 
L 544 3500 
L 1119 3500 
L 1119 1403 
Q 1119 906 1312 657 
Q 1506 409 1894 409 
Q 2359 409 2629 706 
Q 2900 1003 2900 1516 
L 2900 3500 
L 3475 3500 
L 3475 0 
L 2900 0 
L 2900 538 
Q 2691 219 2414 64 
Q 2138 -91 1772 -91 
Q 1169 -91 856 284 
Q 544 659 544 1381 
z
M 1991 3584 
L 1991 3584 
z
" transform="scale(0.015625)"/>
       <path id="DejaVuSans-65" d="M 3597 1894 
L 3597 1613 
L 953 1613 
Q 991 1019 1311 708 
Q 1631 397 2203 397 
Q 2534 397 2845 478 
Q 3156 559 3463 722 
L 3463 178 
Q 3153 47 2828 -22 
Q 2503 -91 2169 -91 
Q 1331 -91 842 396 
Q 353 884 353 1716 
Q 353 2575 817 3079 
Q 1281 3584 2069 3584 
Q 2775 3584 3186 3129 
Q 3597 2675 3597 1894 
z
M 3022 2063 
Q 3016 2534 2758 2815 
Q 2500 3097 2075 3097 
Q 1594 3097 1305 2825 
Q 1016 2553 972 2059 
L 3022 2063 
z
" transform="scale(0.015625)"/>
       <path id="DejaVuSans-20" transform="scale(0.015625)"/>
       <path id="DejaVuSans-6f" d="M 1959 3097 
Q 1497 3097 1228 2736 
Q 959 2375 959 1747 
Q 959 1119 1226 758 
Q 1494 397 1959 397 
Q 2419 397 2687 759 
Q 2956 1122 2956 1747 
Q 2956 2369 2687 2733 
Q 2419 3097 1959 3097 
z
M 1959 3584 
Q 2709 3584 3137 3096 
Q 3566 2609 3566 1747 
Q 3566 888 3137 398 
Q 2709 -91 1959 -91 
Q 1206 -91 779 398 
Q 353 888 353 1747 
Q 353 2609 779 3096 
Q 1206 3584 1959 3584 
z
" transform="scale(0.015625)"/>
       <path id="DejaVuSans-70" d="M 1159 525 
L 1159 -1331 
L 581 -1331 
L 581 3500 
L 1159 3500 
L 1159 2969 
Q 1341 3281 1617 3432 
Q 1894 3584 2278 3584 
Q 2916 3584 3314 3078 
Q 3713 2572 3713 1747 
Q 3713 922 3314 415 
Q 2916 -91 2278 -91 
Q 1894 -91 1617 61 
Q 1341 213 1159 525 
z
M 3116 1747 
Q 3116 2381 2855 2742 
Q 2594 3103 2138 3103 
Q 1681 3103 1420 2742 
Q 1159 2381 1159 1747 
Q 1159 1113 1420 752 
Q 1681 391 2138 391 
Q 2594 391 2855 752 
Q 3116 1113 3116 1747 
z
" transform="scale(0.015625)"/>
       <path id="DejaVuSans-71" d="M 947 1747 
Q 947 1113 1208 752 
Q 1469 391 1925 391 
Q 2381 391 2643 752 
Q 2906 1113 2906 1747 
Q 2906 2381 2643 2742 
Q 2381 3103 1925 3103 
Q 1469 3103 1208 2742 
Q 947 2381 947 1747 
z
M 2906 525 
Q 2725 213 2448 61 
Q 2172 -91 1784 -91 
Q 1150 -91 751 415 
Q 353 922 353 1747 
Q 353 2572 751 3078 
Q 1150 3584 1784 3584 
Q 2172 3584 2448 3432 
Q 2725 3281 2906 2969 
L 2906 3500 
L 3481 3500 
L 3481 -1331 
L 2906 -1331 
L 2906 525 
z
" transform="scale(0.015625)"/>
       <path id="DejaVuSans-61" d="M 2194 1759 
Q 1497 1759 1228 1600 
Q 959 1441 959 1056 
Q 959 750 1161 570 
Q 1363 391 1709 391 
Q 2188 391 2477 730 
Q 2766 1069 2766 1631 
L 2766 1759 
L 2194 1759 
z
M 3341 1997 
L 3341 0 
L 2766 0 
L 2766 531 
Q 2569 213 2275 61 
Q 1981 -91 1556 -91 
Q 1019 -91 701 211 
Q 384 513 384 1019 
Q 384 1609 779 1909 
Q 1175 2209 1959 2209 
L 2766 2209 
L 2766 2266 
Q 2766 2663 2505 2880 
Q 2244 3097 1772 3097 
Q 1472 3097 1187 3025 
Q 903 2953 641 2809 
L 641 3341 
Q 956 3463 1253 3523 
Q 1550 3584 1831 3584 
Q 2591 3584 2966 3190 
Q 3341 2797 3341 1997 
z
" transform="scale(0.015625)"/>
       <path id="DejaVuSans-6b" d="M 581 4863 
L 1159 4863 
L 1159 1991 
L 2875 3500 
L 3609 3500 
L 1753 1863 
L 3688 0 
L 2938 0 
L 1159 1709 
L 1159 0 
L 581 0 
L 581 4863 
z
" transform="scale(0.015625)"/>
       <path id="DejaVuSans-Oblique-3b7" d="M 3703 2113 
L 3034 -1331 
L 2459 -1331 
L 3125 2094 
Q 3222 2591 3075 2838 
Q 2931 3084 2544 3084 
Q 2078 3084 1750 2788 
Q 1425 2491 1325 1978 
L 941 0 
L 363 0 
L 1044 3500 
L 1622 3500 
L 1516 2956 
Q 1781 3272 2094 3428 
Q 2403 3584 2769 3584 
Q 3372 3584 3609 3213 
Q 3844 2838 3703 2113 
z
" transform="scale(0.015625)"/>
      </defs>
      <use xlink:href="#DejaVuSans-54" transform="translate(0 0.015625)"/>
      <use xlink:href="#DejaVuSans-72" transform="translate(61.083984 0.015625)"/>
      <use xlink:href="#DejaVuSans-75" transform="translate(102.197266 0.015625)"/>
      <use xlink:href="#DejaVuSans-65" transform="translate(165.576172 0.015625)"/>
      <use xlink:href="#DejaVuSans-20" transform="translate(227.099609 0.015625)"/>
      <use xlink:href="#DejaVuSans-54" transform="translate(258.886719 0.015625)"/>
      <use xlink:href="#DejaVuSans-6f" transform="translate(319.970703 0.015625)"/>
      <use xlink:href="#DejaVuSans-70" transform="translate(381.152344 0.015625)"/>
      <use xlink:href="#DejaVuSans-20" transform="translate(444.628906 0.015625)"/>
      <use xlink:href="#DejaVuSans-71" transform="translate(476.416016 0.015625)"/>
      <use xlink:href="#DejaVuSans-75" transform="translate(539.892578 0.015625)"/>
      <use xlink:href="#DejaVuSans-61" transform="translate(603.271484 0.015625)"/>
      <use xlink:href="#DejaVuSans-72" transform="translate(664.550781 0.015625)"/>
      <use xlink:href="#DejaVuSans-6b" transform="translate(705.664062 0.015625)"/>
      <use xlink:href="#DejaVuSans-20" transform="translate(763.574219 0.015625)"/>
      <use xlink:href="#DejaVuSans-Oblique-3b7" transform="translate(795.361328 0.015625)"/>
     </g>
    </g>
   </g>
   <g id="matplotlib.axis_2">
    <g id="ytick_1">
     <g id="line2d_11">
      <path d="M 46.64 208.613525 
L 343.661538 208.613525 
" clip-path="url(#p3a6e9a5545)" style="fill: none; stroke: #b0b0b0; stroke-width: 0.8; stroke-linecap: square"/>
     </g>
     <g id="line2d_12">
      <defs>
       <path id="mc9f679f7bf" d="M 0 0 
L -3.5 0 
" style="stroke: #000000; stroke-width: 0.8"/>
      </defs>
      <g>
       <use xlink:href="#mc9f679f7bf" x="46.64" y="208.613525" style="stroke: #000000; stroke-width: 0.8"/>
      </g>
     </g>
     <g id="text_7">
      <!-- −2 -->
      <g transform="translate(24.897813 212.412744) scale(0.1 -0.1)">
       <defs>
        <path id="DejaVuSans-32" d="M 1228 531 
L 3431 531 
L 3431 0 
L 469 0 
L 469 531 
Q 828 903 1448 1529 
Q 2069 2156 2228 2338 
Q 2531 2678 2651 2914 
Q 2772 3150 2772 3378 
Q 2772 3750 2511 3984 
Q 2250 4219 1831 4219 
Q 1534 4219 1204 4116 
Q 875 4013 500 3803 
L 500 4441 
Q 881 4594 1212 4672 
Q 1544 4750 1819 4750 
Q 2544 4750 2975 4387 
Q 3406 4025 3406 3419 
Q 3406 3131 3298 2873 
Q 3191 2616 2906 2266 
Q 2828 2175 2409 1742 
Q 1991 1309 1228 531 
z
" transform="scale(0.015625)"/>
       </defs>
       <use xlink:href="#DejaVuSans-2212"/>
       <use xlink:href="#DejaVuSans-32" x="83.789062"/>
      </g>
     </g>
    </g>
    <g id="ytick_2">
     <g id="line2d_13">
      <path d="M 46.64 166.068545 
L 343.661538 166.068545 
" clip-path="url(#p3a6e9a5545)" style="fill: none; stroke: #b0b0b0; stroke-width: 0.8; stroke-linecap: square"/>
     </g>
     <g id="line2d_14">
      <g>
       <use xlink:href="#mc9f679f7bf" x="46.64" y="166.068545" style="stroke: #000000; stroke-width: 0.8"/>
      </g>
     </g>
     <g id="text_8">
      <!-- −1 -->
      <g transform="translate(24.897813 169.867764) scale(0.1 -0.1)">
       <use xlink:href="#DejaVuSans-2212"/>
       <use xlink:href="#DejaVuSans-31" x="83.789062"/>
      </g>
     </g>
    </g>
    <g id="ytick_3">
     <g id="line2d_15">
      <path d="M 46.64 123.523565 
L 343.661538 123.523565 
" clip-path="url(#p3a6e9a5545)" style="fill: none; stroke: #b0b0b0; stroke-width: 0.8; stroke-linecap: square"/>
     </g>
     <g id="line2d_16">
      <g>
       <use xlink:href="#mc9f679f7bf" x="46.64" y="123.523565" style="stroke: #000000; stroke-width: 0.8"/>
      </g>
     </g>
     <g id="text_9">
      <!-- 0 -->
      <g transform="translate(33.2775 127.322784) scale(0.1 -0.1)">
       <use xlink:href="#DejaVuSans-30"/>
      </g>
     </g>
    </g>
    <g id="ytick_4">
     <g id="line2d_17">
      <path d="M 46.64 80.978585 
L 343.661538 80.978585 
" clip-path="url(#p3a6e9a5545)" style="fill: none; stroke: #b0b0b0; stroke-width: 0.8; stroke-linecap: square"/>
     </g>
     <g id="line2d_18">
      <g>
       <use xlink:href="#mc9f679f7bf" x="46.64" y="80.978585" style="stroke: #000000; stroke-width: 0.8"/>
      </g>
     </g>
     <g id="text_10">
      <!-- 1 -->
      <g transform="translate(33.2775 84.777804) scale(0.1 -0.1)">
       <use xlink:href="#DejaVuSans-31"/>
      </g>
     </g>
    </g>
    <g id="ytick_5">
     <g id="line2d_19">
      <path d="M 46.64 38.433605 
L 343.661538 38.433605 
" clip-path="url(#p3a6e9a5545)" style="fill: none; stroke: #b0b0b0; stroke-width: 0.8; stroke-linecap: square"/>
     </g>
     <g id="line2d_20">
      <g>
       <use xlink:href="#mc9f679f7bf" x="46.64" y="38.433605" style="stroke: #000000; stroke-width: 0.8"/>
      </g>
     </g>
     <g id="text_11">
      <!-- 2 -->
      <g transform="translate(33.2775 42.232824) scale(0.1 -0.1)">
       <use xlink:href="#DejaVuSans-32"/>
      </g>
     </g>
    </g>
    <g id="text_12">
     <!-- Response -->
     <g transform="translate(18.818125 147.837139) rotate(-90) scale(0.1 -0.1)">
      <defs>
       <path id="DejaVuSans-52" d="M 2841 2188 
Q 3044 2119 3236 1894 
Q 3428 1669 3622 1275 
L 4263 0 
L 3584 0 
L 2988 1197 
Q 2756 1666 2539 1819 
Q 2322 1972 1947 1972 
L 1259 1972 
L 1259 0 
L 628 0 
L 628 4666 
L 2053 4666 
Q 2853 4666 3247 4331 
Q 3641 3997 3641 3322 
Q 3641 2881 3436 2590 
Q 3231 2300 2841 2188 
z
M 1259 4147 
L 1259 2491 
L 2053 2491 
Q 2509 2491 2742 2702 
Q 2975 2913 2975 3322 
Q 2975 3731 2742 3939 
Q 2509 4147 2053 4147 
L 1259 4147 
z
" transform="scale(0.015625)"/>
       <path id="DejaVuSans-73" d="M 2834 3397 
L 2834 2853 
Q 2591 2978 2328 3040 
Q 2066 3103 1784 3103 
Q 1356 3103 1142 2972 
Q 928 2841 928 2578 
Q 928 2378 1081 2264 
Q 1234 2150 1697 2047 
L 1894 2003 
Q 2506 1872 2764 1633 
Q 3022 1394 3022 966 
Q 3022 478 2636 193 
Q 2250 -91 1575 -91 
Q 1294 -91 989 -36 
Q 684 19 347 128 
L 347 722 
Q 666 556 975 473 
Q 1284 391 1588 391 
Q 1994 391 2212 530 
Q 2431 669 2431 922 
Q 2431 1156 2273 1281 
Q 2116 1406 1581 1522 
L 1381 1569 
Q 847 1681 609 1914 
Q 372 2147 372 2553 
Q 372 3047 722 3315 
Q 1072 3584 1716 3584 
Q 2034 3584 2315 3537 
Q 2597 3491 2834 3397 
z
" transform="scale(0.015625)"/>
       <path id="DejaVuSans-6e" d="M 3513 2113 
L 3513 0 
L 2938 0 
L 2938 2094 
Q 2938 2591 2744 2837 
Q 2550 3084 2163 3084 
Q 1697 3084 1428 2787 
Q 1159 2491 1159 1978 
L 1159 0 
L 581 0 
L 581 3500 
L 1159 3500 
L 1159 2956 
Q 1366 3272 1645 3428 
Q 1925 3584 2291 3584 
Q 2894 3584 3203 3211 
Q 3513 2838 3513 2113 
z
" transform="scale(0.015625)"/>
      </defs>
      <use xlink:href="#DejaVuSans-52"/>
      <use xlink:href="#DejaVuSans-65" x="64.982422"/>
      <use xlink:href="#DejaVuSans-73" x="126.505859"/>
      <use xlink:href="#DejaVuSans-70" x="178.605469"/>
      <use xlink:href="#DejaVuSans-6f" x="242.082031"/>
      <use xlink:href="#DejaVuSans-6e" x="303.263672"/>
      <use xlink:href="#DejaVuSans-73" x="366.642578"/>
      <use xlink:href="#DejaVuSans-65" x="418.742188"/>
     </g>
    </g>
   </g>
   <g id="line2d_21">
    <path d="M 46.64 189.104978 
L 46.64 189.104978 
L 52.701664 189.104978 
L 52.701664 187.561546 
L 58.763328 187.561546 
L 58.763328 183.631555 
L 64.824992 183.631555 
L 64.824992 182.147329 
L 70.886656 182.147329 
L 70.886656 179.061462 
L 76.94832 179.061462 
L 76.94832 176.508591 
L 83.009984 176.508591 
L 83.009984 173.376942 
L 89.071648 173.376942 
L 89.071648 171.240451 
L 95.133312 171.240451 
L 95.133312 168.028076 
L 101.194976 168.028076 
L 101.194976 165.371244 
L 107.256641 165.371244 
L 107.256641 162.391526 
L 113.318305 162.391526 
L 113.318305 160.453992 
L 119.379969 160.453992 
L 119.379969 156.50519 
L 125.441633 156.50519 
L 125.441633 154.221532 
L 131.503297 154.221532 
L 131.503297 151.51012 
L 137.564961 151.51012 
L 137.564961 149.208513 
L 143.626625 149.208513 
L 143.626625 146.534177 
L 149.688289 146.534177 
L 149.688289 143.186546 
L 155.749953 143.186546 
L 155.749953 140.517936 
L 161.811617 140.517936 
L 161.811617 138.329458 
L 167.873281 138.329458 
L 167.873281 134.810949 
L 173.934945 134.810949 
L 173.934945 132.696022 
L 179.996609 132.696022 
L 179.996609 130.255569 
L 186.058273 130.255569 
L 186.058273 126.534469 
L 192.119937 126.534469 
L 192.119937 123.128799 
L 198.181601 123.128799 
L 198.181601 120.787312 
L 204.243265 120.787312 
L 204.243265 118.269626 
L 210.304929 118.269626 
L 210.304929 116.154732 
L 216.366593 116.154732 
L 216.366593 112.452528 
L 222.428257 112.452528 
L 222.428257 110.212912 
L 228.489922 110.212912 
L 228.489922 107.059906 
L 234.551586 107.059906 
L 234.551586 105.209343 
L 240.61325 105.209343 
L 240.61325 101.974439 
L 246.674914 101.974439 
L 246.674914 99.333802 
L 252.736578 99.333802 
L 252.736578 95.776037 
L 258.798242 95.776037 
L 258.798242 93.213576 
L 264.859906 93.213576 
L 264.859906 90.644345 
L 270.92157 90.644345 
L 270.92157 88.39068 
L 276.983234 88.39068 
L 276.983234 85.225047 
L 283.044898 85.225047 
L 283.044898 82.002286 
L 289.106562 82.002286 
L 289.106562 80.08341 
L 295.168226 80.08341 
L 295.168226 77.200525 
L 301.22989 77.200525 
L 301.22989 74.052359 
L 307.291554 74.052359 
L 307.291554 71.664155 
L 313.353218 71.664155 
L 313.353218 68.807229 
L 319.414882 68.807229 
L 319.414882 66.635132 
L 325.476546 66.635132 
L 325.476546 63.3793 
L 331.53821 63.3793 
L 331.53821 62.126626 
L 337.599874 62.126626 
L 337.599874 58.200036 
L 343.661538 58.200036 
" clip-path="url(#p3a6e9a5545)" style="fill: none; stroke: #1f77b4; stroke-width: 1.5; stroke-linecap: square"/>
   </g>
   <g id="line2d_22">
    <path d="M 46.64 180.520555 
L 46.64 180.520555 
L 52.701664 180.520555 
L 52.701664 178.579553 
L 58.763328 178.579553 
L 58.763328 175.431484 
L 64.824992 175.431484 
L 64.824992 174.263517 
L 70.886656 174.263517 
L 70.886656 171.303836 
L 76.94832 171.303836 
L 76.94832 169.224098 
L 83.009984 169.224098 
L 83.009984 166.607558 
L 89.071648 166.607558 
L 89.071648 164.968 
L 95.133312 164.968 
L 95.133312 161.476305 
L 101.194976 161.476305 
L 101.194976 160.778118 
L 107.256641 160.778118 
L 107.256641 157.403904 
L 113.318305 157.403904 
L 113.318305 154.676683 
L 119.379969 154.676683 
L 119.379969 152.466251 
L 125.441633 152.466251 
L 125.441633 149.868637 
L 131.503297 149.868637 
L 131.503297 147.917836 
L 137.564961 147.917836 
L 137.564961 145.263927 
L 143.626625 145.263927 
L 143.626625 143.548714 
L 149.688289 143.548714 
L 149.688289 140.674094 
L 155.749953 140.674094 
L 155.749953 138.584932 
L 161.811617 138.584932 
L 161.811617 135.824199 
L 167.873281 135.824199 
L 167.873281 133.129371 
L 173.934945 133.129371 
L 173.934945 130.69402 
L 179.996609 130.69402 
L 179.996609 129.023157 
L 186.058273 129.023157 
L 186.058273 125.974492 
L 192.119937 125.974492 
L 192.119937 123.509119 
L 198.181601 123.509119 
L 198.181601 121.408004 
L 204.243265 121.408004 
L 204.243265 118.98786 
L 210.304929 118.98786 
L 210.304929 117.253125 
L 216.366593 117.253125 
L 216.366593 114.354038 
L 222.428257 114.354038 
L 222.428257 111.768664 
L 228.489922 111.768664 
L 228.489922 109.587956 
L 234.551586 109.587956 
L 234.551586 107.238468 
L 240.61325 107.238468 
L 240.61325 103.927268 
L 246.674914 103.927268 
L 246.674914 101.966958 
L 252.736578 101.966958 
L 252.736578 99.689403 
L 258.798242 99.689403 
L 258.798242 96.853243 
L 264.859906 96.853243 
L 264.859906 94.343729 
L 270.92157 94.343729 
L 270.92157 92.976465 
L 276.983234 92.976465 
L 276.983234 89.662656 
L 283.044898 89.662656 
L 283.044898 87.169527 
L 289.106562 87.169527 
L 289.106562 85.439601 
L 295.168226 85.439601 
L 295.168226 82.883672 
L 301.22989 82.883672 
L 301.22989 81.217004 
L 307.291554 81.217004 
L 307.291554 78.858943 
L 313.353218 78.858943 
L 313.353218 75.209686 
L 319.414882 75.209686 
L 319.414882 73.947702 
L 325.476546 73.947702 
L 325.476546 71.131369 
L 331.53821 71.131369 
L 331.53821 69.489202 
L 337.599874 69.489202 
L 337.599874 66.193655 
L 343.661538 66.193655 
" clip-path="url(#p3a6e9a5545)" style="fill: none; stroke: #ff7f0e; stroke-width: 1.5; stroke-linecap: square"/>
   </g>
   <g id="patch_3">
    <path d="M 46.64 221.006154 
L 46.64 26.64 
" style="fill: none; stroke: #000000; stroke-width: 0.8; stroke-linejoin: miter; stroke-linecap: square"/>
   </g>
   <g id="patch_4">
    <path d="M 343.661538 221.006154 
L 343.661538 26.64 
" style="fill: none; stroke: #000000; stroke-width: 0.8; stroke-linejoin: miter; stroke-linecap: square"/>
   </g>
   <g id="patch_5">
    <path d="M 46.64 221.006154 
L 343.661538 221.006154 
" style="fill: none; stroke: #000000; stroke-width: 0.8; stroke-linejoin: miter; stroke-linecap: square"/>
   </g>
   <g id="patch_6">
    <path d="M 46.64 26.64 
L 343.661538 26.64 
" style="fill: none; stroke: #000000; stroke-width: 0.8; stroke-linejoin: miter; stroke-linecap: square"/>
   </g>
   <g id="text_13">
    <!-- CMS -->
    <g transform="translate(46.64 22.956328) scale(0.169 -0.169)">
     <defs>
      <path id="TeXGyreHeros-Bold-43" d="M 4384 1594 
L 3450 1594 
C 3392 998 3014 730 2419 730 
C 1677 730 1242 1299 1242 2317 
C 1242 3347 1696 3923 2451 3923 
C 2970 3923 3309 3686 3450 3085 
L 4365 3085 
C 4282 4160 3469 4742 2419 4742 
C 1101 4742 282 3840 282 2330 
C 282 832 1094 -77 2394 -77 
C 3552 -77 4326 525 4384 1594 
z
" transform="scale(0.015625)"/>
      <path id="TeXGyreHeros-Bold-4d" d="M 4966 0 
L 4966 4666 
L 3520 4666 
L 2701 954 
L 1856 4666 
L 422 4666 
L 422 0 
L 1382 0 
L 1382 3635 
L 2221 0 
L 3181 0 
L 4006 3635 
L 4006 0 
L 4966 0 
z
" transform="scale(0.015625)"/>
      <path id="TeXGyreHeros-Bold-53" d="M 4051 1402 
C 4051 2138 3680 2483 2816 2650 
L 2086 2790 
C 1402 2925 1203 3059 1203 3398 
C 1203 3750 1517 3974 2010 3974 
C 2618 3974 2989 3718 2989 3245 
L 3885 3245 
C 3885 4230 3194 4742 2054 4742 
C 934 4742 288 4218 288 3309 
C 288 2579 653 2240 1600 2054 
L 2253 1926 
C 2893 1798 3130 1664 3130 1286 
C 3130 896 2771 691 2189 691 
C 1536 691 1139 966 1139 1466 
L 205 1466 
C 205 467 947 -77 2138 -77 
C 3341 -77 4051 454 4051 1402 
z
" transform="scale(0.015625)"/>
     </defs>
     <use xlink:href="#TeXGyreHeros-Bold-43"/>
     <use xlink:href="#TeXGyreHeros-Bold-4d" x="72.199982"/>
     <use xlink:href="#TeXGyreHeros-Bold-53" x="155.499969"/>
    </g>
   </g>
   <g id="text_14">
    <!-- Private work (CMS simulation) -->
    <g transform="translate(85.952 22.899575) scale(0.13 -0.13)">
     <defs>
      <path id="TeXGyreHeros-Italic-50" d="M 4371 3635 
C 4371 4314 3968 4666 3187 4666 
L 1254 4666 
L 262 0 
L 864 0 
L 1286 1978 
L 2746 1978 
C 3712 1978 4371 2771 4371 3635 
z
M 3757 3520 
C 3757 2957 3302 2502 2637 2502 
L 1395 2502 
L 1747 4141 
L 2989 4141 
C 3488 4141 3757 3923 3757 3520 
z
" transform="scale(0.015625)"/>
      <path id="TeXGyreHeros-Italic-72" d="M 2355 2886 
L 2470 3430 
C 2387 3443 2336 3450 2266 3450 
C 1894 3450 1606 3283 1210 2829 
L 1318 3354 
L 832 3354 
L 122 0 
L 659 0 
L 1030 1741 
C 1190 2496 1626 2886 2291 2886 
L 2355 2886 
z
" transform="scale(0.015625)"/>
      <path id="TeXGyreHeros-Italic-69" d="M 659 0 
L 1370 3354 
L 832 3354 
L 122 0 
L 659 0 
z
M 1677 4525 
L 1011 4525 
L 870 3866 
L 1536 3866 
L 1677 4525 
z
" transform="scale(0.015625)"/>
      <path id="TeXGyreHeros-Italic-76" d="M 3507 3354 
L 2925 3354 
L 1363 653 
L 1050 3354 
L 461 3354 
L 934 0 
L 1517 0 
L 3507 3354 
z
" transform="scale(0.015625)"/>
      <path id="TeXGyreHeros-Italic-61" d="M 3149 0 
L 3232 416 
C 3174 403 3149 403 3123 403 
C 2957 403 2880 461 2880 589 
C 2880 614 2880 634 2886 653 
L 3277 2490 
C 3315 2662 3315 2662 3315 2726 
C 3315 3162 2874 3450 2202 3450 
C 1312 3450 768 3072 646 2362 
L 1184 2362 
C 1312 2771 1587 2957 2061 2957 
C 2445 2957 2739 2784 2739 2547 
C 2739 2522 2733 2477 2726 2426 
L 2707 2310 
C 2662 2048 2515 1971 2061 1933 
C 1203 1850 934 1792 621 1594 
C 288 1382 102 1069 102 698 
C 102 186 454 -96 1030 -96 
C 1446 -96 1818 -38 2310 371 
L 2304 275 
C 2304 13 2502 -58 2810 -58 
C 2899 -58 2893 -45 3149 0 
z
M 2566 1651 
L 2451 1101 
C 2368 704 1805 365 1242 365 
C 877 365 666 493 666 762 
C 666 1165 954 1370 1632 1466 
C 2234 1549 2285 1555 2566 1651 
z
" transform="scale(0.015625)"/>
      <path id="TeXGyreHeros-Italic-74" d="M 1408 467 
C 1210 422 1178 416 1101 416 
C 960 416 870 486 870 589 
C 870 608 877 640 883 678 
L 1363 2925 
L 1933 2925 
L 2022 3354 
L 1453 3354 
L 1651 4275 
L 1114 4275 
L 915 3354 
L 461 3354 
L 371 2925 
L 826 2925 
L 339 659 
C 326 595 320 525 320 461 
C 320 147 538 -45 890 -45 
C 1018 -45 1216 -26 1306 0 
L 1408 467 
z
" transform="scale(0.015625)"/>
      <path id="TeXGyreHeros-Italic-65" d="M 3290 1523 
L 3302 1606 
C 3360 1914 3392 2182 3392 2355 
C 3392 2970 2861 3450 2170 3450 
C 1613 3450 1075 3187 755 2758 
C 454 2355 224 1651 224 1133 
C 224 467 717 -96 1498 -96 
C 2266 -96 2912 326 3110 1018 
L 2573 1018 
C 2355 627 2016 397 1587 397 
C 1082 397 787 685 787 1229 
C 781 1338 787 1402 819 1523 
L 3290 1523 
z
M 2816 1984 
L 934 1984 
C 1094 2547 1568 2957 2086 2957 
C 2541 2957 2829 2650 2829 2170 
C 2829 2106 2822 2061 2816 1984 
z
" transform="scale(0.015625)"/>
      <path id="TeXGyreHeros-Italic-20" transform="scale(0.015625)"/>
      <path id="TeXGyreHeros-Italic-77" d="M 4928 3354 
L 4346 3354 
L 3091 742 
L 3091 3354 
L 2349 3354 
L 1139 742 
L 1139 3354 
L 435 3354 
L 691 0 
L 1306 0 
L 2554 2675 
L 2554 0 
L 3238 0 
L 4928 3354 
z
" transform="scale(0.015625)"/>
      <path id="TeXGyreHeros-Italic-6f" d="M 3366 2253 
C 3366 2931 2906 3450 2138 3450 
C 934 3450 198 2342 198 1075 
C 198 365 698 -96 1414 -96 
C 2579 -96 3366 922 3366 2253 
z
M 2803 2131 
C 2803 1178 2266 397 1504 397 
C 1050 397 762 691 762 1203 
C 762 2131 1299 2957 2054 2957 
C 2528 2957 2803 2650 2803 2131 
z
" transform="scale(0.015625)"/>
      <path id="TeXGyreHeros-Italic-6b" d="M 2893 0 
L 1997 2195 
L 3418 3354 
L 2726 3354 
L 1005 1958 
L 1581 4666 
L 1043 4666 
L 51 0 
L 589 0 
L 864 1299 
L 1549 1862 
L 2278 0 
L 2893 0 
z
" transform="scale(0.015625)"/>
      <path id="TeXGyreHeros-Italic-28" d="M 1254 -1363 
C 1018 -749 902 -147 902 506 
C 902 1926 1459 3347 2534 4666 
L 2182 4666 
C 1069 3501 403 2042 403 742 
C 403 -19 589 -813 902 -1363 
L 1254 -1363 
z
" transform="scale(0.015625)"/>
      <path id="TeXGyreHeros-Italic-43" d="M 4384 1702 
L 3757 1702 
C 3354 787 2950 403 2125 403 
C 1459 403 1018 922 1018 1696 
C 1018 2278 1210 2925 1536 3411 
C 1926 3987 2394 4262 2982 4262 
C 3629 4262 3942 3910 3994 3219 
L 4608 3219 
C 4557 4262 3974 4781 3091 4781 
C 2342 4781 1722 4480 1222 3878 
C 717 3270 403 2381 403 1581 
C 403 563 1011 -115 2035 -115 
C 3162 -115 3840 410 4384 1702 
z
" transform="scale(0.015625)"/>
      <path id="TeXGyreHeros-Italic-4d" d="M 5542 4666 
L 4704 4666 
L 2490 653 
L 1978 4666 
L 1152 4666 
L 160 0 
L 730 0 
L 1555 3872 
L 2048 0 
L 2669 0 
L 4806 3872 
L 3981 0 
L 4550 0 
L 5542 4666 
z
" transform="scale(0.015625)"/>
      <path id="TeXGyreHeros-Italic-53" d="M 3968 1549 
C 3968 1978 3667 2349 3187 2490 
L 2086 2803 
C 1594 2944 1440 3072 1440 3354 
C 1440 3866 1952 4262 2694 4262 
C 3398 4262 3667 3994 3667 3565 
C 3667 3507 3661 3462 3642 3334 
L 4205 3334 
C 4243 3514 4256 3597 4256 3693 
C 4256 4339 3712 4781 2810 4781 
C 2150 4781 1632 4595 1286 4237 
C 1024 3968 826 3514 826 3187 
C 826 2784 1107 2445 1536 2323 
L 2630 2010 
C 3142 1862 3354 1670 3354 1370 
C 3354 838 2771 403 1901 403 
C 1178 403 845 672 845 1254 
C 845 1338 851 1395 870 1517 
L 314 1517 
C 269 1350 256 1248 256 1114 
C 256 346 832 -115 1798 -115 
C 2470 -115 3034 70 3411 422 
C 3738 723 3968 1190 3968 1549 
z
" transform="scale(0.015625)"/>
      <path id="TeXGyreHeros-Italic-73" d="M 2848 1158 
C 2848 1549 2637 1754 2074 1894 
L 1587 2016 
C 1229 2106 1043 2234 1043 2400 
C 1043 2726 1363 2957 1850 2957 
C 2227 2957 2438 2810 2438 2560 
C 2438 2515 2438 2470 2432 2419 
L 2970 2419 
C 3002 2554 3008 2611 3008 2694 
C 3008 3142 2579 3450 1958 3450 
C 1069 3450 480 2938 480 2259 
C 480 1869 704 1677 1363 1510 
L 1837 1389 
C 2240 1286 2285 1146 2285 1011 
C 2285 646 1862 397 1370 397 
C 928 397 678 570 678 890 
C 678 928 685 986 691 1050 
L 122 1050 
C 90 902 83 826 83 723 
C 83 211 531 -96 1274 -96 
C 2227 -96 2848 397 2848 1158 
z
" transform="scale(0.015625)"/>
      <path id="TeXGyreHeros-Italic-6d" d="M 4589 0 
L 5094 2387 
C 5114 2458 5133 2669 5133 2739 
C 5133 3072 4883 3450 4320 3450 
C 3904 3450 3539 3283 3162 2918 
C 3059 3277 2810 3450 2387 3450 
C 1952 3450 1658 3322 1248 2938 
L 1331 3354 
L 845 3354 
L 134 0 
L 672 0 
L 1120 2106 
C 1222 2592 1658 2989 2086 2989 
C 2400 2989 2611 2810 2611 2547 
C 2611 2477 2605 2394 2586 2310 
L 2093 0 
L 2630 0 
L 3078 2106 
C 3181 2605 3616 2989 4083 2989 
C 4384 2989 4570 2803 4570 2496 
C 4570 2400 4570 2400 4512 2182 
L 4051 0 
L 4589 0 
z
" transform="scale(0.015625)"/>
      <path id="TeXGyreHeros-Italic-75" d="M 2771 0 
L 3482 3354 
L 2944 3354 
L 2554 1504 
C 2406 813 1952 365 1408 365 
C 1062 365 838 557 838 858 
C 838 909 845 966 858 1030 
L 1350 3354 
L 813 3354 
L 275 819 
C 262 755 256 685 256 602 
C 256 166 589 -96 1139 -96 
C 1638 -96 2003 58 2368 390 
L 2285 0 
L 2771 0 
z
" transform="scale(0.015625)"/>
      <path id="TeXGyreHeros-Italic-6c" d="M 1645 4666 
L 1107 4666 
L 115 0 
L 653 0 
L 1645 4666 
z
" transform="scale(0.015625)"/>
      <path id="TeXGyreHeros-Italic-6e" d="M 3328 2406 
C 3347 2490 3354 2566 3354 2650 
C 3354 3136 3014 3450 2483 3450 
C 1997 3450 1574 3277 1242 2938 
L 1325 3354 
L 838 3354 
L 128 0 
L 666 0 
L 1056 1850 
C 1203 2554 1658 2989 2234 2989 
C 2554 2989 2790 2765 2790 2470 
C 2790 2432 2771 2336 2752 2234 
L 2278 0 
L 2816 0 
L 3328 2406 
z
" transform="scale(0.015625)"/>
      <path id="TeXGyreHeros-Italic-29" d="M 1760 2605 
C 1760 3328 1568 4134 1267 4666 
L 915 4666 
C 1158 4045 1267 3443 1267 2758 
C 1267 1376 698 -64 -365 -1363 
L -13 -1363 
C 1094 -205 1760 1274 1760 2605 
z
" transform="scale(0.015625)"/>
     </defs>
     <use xlink:href="#TeXGyreHeros-Italic-50"/>
     <use xlink:href="#TeXGyreHeros-Italic-72" x="66.699997"/>
     <use xlink:href="#TeXGyreHeros-Italic-69" x="99.999985"/>
     <use xlink:href="#TeXGyreHeros-Italic-76" x="122.199982"/>
     <use xlink:href="#TeXGyreHeros-Italic-61" x="172.199966"/>
     <use xlink:href="#TeXGyreHeros-Italic-74" x="227.799957"/>
     <use xlink:href="#TeXGyreHeros-Italic-65" x="255.599945"/>
     <use xlink:href="#TeXGyreHeros-Italic-20" x="311.199936"/>
     <use xlink:href="#TeXGyreHeros-Italic-77" x="338.999924"/>
     <use xlink:href="#TeXGyreHeros-Italic-6f" x="411.199905"/>
     <use xlink:href="#TeXGyreHeros-Italic-72" x="466.799896"/>
     <use xlink:href="#TeXGyreHeros-Italic-6b" x="500.099884"/>
     <use xlink:href="#TeXGyreHeros-Italic-20" x="550.099869"/>
     <use xlink:href="#TeXGyreHeros-Italic-28" x="577.899857"/>
     <use xlink:href="#TeXGyreHeros-Italic-43" x="611.199844"/>
     <use xlink:href="#TeXGyreHeros-Italic-4d" x="683.399826"/>
     <use xlink:href="#TeXGyreHeros-Italic-53" x="766.699814"/>
     <use xlink:href="#TeXGyreHeros-Italic-20" x="833.399811"/>
     <use xlink:href="#TeXGyreHeros-Italic-73" x="861.199799"/>
     <use xlink:href="#TeXGyreHeros-Italic-69" x="911.199783"/>
     <use xlink:href="#TeXGyreHeros-Italic-6d" x="933.39978"/>
     <use xlink:href="#TeXGyreHeros-Italic-75" x="1016.699768"/>
     <use xlink:href="#TeXGyreHeros-Italic-6c" x="1072.299759"/>
     <use xlink:href="#TeXGyreHeros-Italic-61" x="1094.499756"/>
     <use xlink:href="#TeXGyreHeros-Italic-74" x="1150.099747"/>
     <use xlink:href="#TeXGyreHeros-Italic-69" x="1177.899734"/>
     <use xlink:href="#TeXGyreHeros-Italic-6f" x="1200.099731"/>
     <use xlink:href="#TeXGyreHeros-Italic-6e" x="1255.699722"/>
     <use xlink:href="#TeXGyreHeros-Italic-29" x="1311.299713"/>
    </g>
   </g>
   <g id="legend_1">
    <g id="patch_7">
     <path d="M 53.64 63.99625 
L 198.965 63.99625 
Q 200.965 63.99625 200.965 61.99625 
L 200.965 33.64 
Q 200.965 31.64 198.965 31.64 
L 53.64 31.64 
Q 51.64 31.64 51.64 33.64 
L 51.64 61.99625 
Q 51.64 63.99625 53.64 63.99625 
z
" style="fill: #ffffff; opacity: 0.8; stroke: #cccccc; stroke-linejoin: miter"/>
    </g>
    <g id="line2d_23">
     <path d="M 55.64 39.738437 
L 55.64 39.738437 
L 65.64 39.738437 
L 65.64 39.738437 
L 75.64 39.738437 
" style="fill: none; stroke: #1f77b4; stroke-width: 1.5; stroke-linecap: square"/>
    </g>
    <g id="text_15">
     <!-- Network -->
     <g transform="translate(83.64 43.238437) scale(0.1 -0.1)">
      <defs>
       <path id="DejaVuSans-4e" d="M 628 4666 
L 1478 4666 
L 3547 763 
L 3547 4666 
L 4159 4666 
L 4159 0 
L 3309 0 
L 1241 3903 
L 1241 0 
L 628 0 
L 628 4666 
z
" transform="scale(0.015625)"/>
       <path id="DejaVuSans-74" d="M 1172 4494 
L 1172 3500 
L 2356 3500 
L 2356 3053 
L 1172 3053 
L 1172 1153 
Q 1172 725 1289 603 
Q 1406 481 1766 481 
L 2356 481 
L 2356 0 
L 1766 0 
Q 1100 0 847 248 
Q 594 497 594 1153 
L 594 3053 
L 172 3053 
L 172 3500 
L 594 3500 
L 594 4494 
L 1172 4494 
z
" transform="scale(0.015625)"/>
       <path id="DejaVuSans-77" d="M 269 3500 
L 844 3500 
L 1563 769 
L 2278 3500 
L 2956 3500 
L 3675 769 
L 4391 3500 
L 4966 3500 
L 4050 0 
L 3372 0 
L 2619 2869 
L 1863 0 
L 1184 0 
L 269 3500 
z
" transform="scale(0.015625)"/>
      </defs>
      <use xlink:href="#DejaVuSans-4e"/>
      <use xlink:href="#DejaVuSans-65" x="74.804688"/>
      <use xlink:href="#DejaVuSans-74" x="136.328125"/>
      <use xlink:href="#DejaVuSans-77" x="175.537109"/>
      <use xlink:href="#DejaVuSans-6f" x="257.324219"/>
      <use xlink:href="#DejaVuSans-72" x="318.505859"/>
      <use xlink:href="#DejaVuSans-6b" x="359.619141"/>
     </g>
    </g>
    <g id="line2d_24">
     <path d="M 55.64 54.416562 
L 55.64 54.416562 
L 65.64 54.416562 
L 65.64 54.416562 
L 75.64 54.416562 
" style="fill: none; stroke: #ff7f0e; stroke-width: 1.5; stroke-linecap: square"/>
    </g>
    <g id="text_16">
     <!-- Analytic Sonnenschein -->
     <g transform="translate(83.64 57.916562) scale(0.1 -0.1)">
      <defs>
       <path id="DejaVuSans-41" d="M 2188 4044 
L 1331 1722 
L 3047 1722 
L 2188 4044 
z
M 1831 4666 
L 2547 4666 
L 4325 0 
L 3669 0 
L 3244 1197 
L 1141 1197 
L 716 0 
L 50 0 
L 1831 4666 
z
" transform="scale(0.015625)"/>
       <path id="DejaVuSans-6c" d="M 603 4863 
L 1178 4863 
L 1178 0 
L 603 0 
L 603 4863 
z
" transform="scale(0.015625)"/>
       <path id="DejaVuSans-79" d="M 2059 -325 
Q 1816 -950 1584 -1140 
Q 1353 -1331 966 -1331 
L 506 -1331 
L 506 -850 
L 844 -850 
Q 1081 -850 1212 -737 
Q 1344 -625 1503 -206 
L 1606 56 
L 191 3500 
L 800 3500 
L 1894 763 
L 2988 3500 
L 3597 3500 
L 2059 -325 
z
" transform="scale(0.015625)"/>
       <path id="DejaVuSans-69" d="M 603 3500 
L 1178 3500 
L 1178 0 
L 603 0 
L 603 3500 
z
M 603 4863 
L 1178 4863 
L 1178 4134 
L 603 4134 
L 603 4863 
z
" transform="scale(0.015625)"/>
       <path id="DejaVuSans-63" d="M 3122 3366 
L 3122 2828 
Q 2878 2963 2633 3030 
Q 2388 3097 2138 3097 
Q 1578 3097 1268 2742 
Q 959 2388 959 1747 
Q 959 1106 1268 751 
Q 1578 397 2138 397 
Q 2388 397 2633 464 
Q 2878 531 3122 666 
L 3122 134 
Q 2881 22 2623 -34 
Q 2366 -91 2075 -91 
Q 1284 -91 818 406 
Q 353 903 353 1747 
Q 353 2603 823 3093 
Q 1294 3584 2113 3584 
Q 2378 3584 2631 3529 
Q 2884 3475 3122 3366 
z
" transform="scale(0.015625)"/>
       <path id="DejaVuSans-53" d="M 3425 4513 
L 3425 3897 
Q 3066 4069 2747 4153 
Q 2428 4238 2131 4238 
Q 1616 4238 1336 4038 
Q 1056 3838 1056 3469 
Q 1056 3159 1242 3001 
Q 1428 2844 1947 2747 
L 2328 2669 
Q 3034 2534 3370 2195 
Q 3706 1856 3706 1288 
Q 3706 609 3251 259 
Q 2797 -91 1919 -91 
Q 1588 -91 1214 -16 
Q 841 59 441 206 
L 441 856 
Q 825 641 1194 531 
Q 1563 422 1919 422 
Q 2459 422 2753 634 
Q 3047 847 3047 1241 
Q 3047 1584 2836 1778 
Q 2625 1972 2144 2069 
L 1759 2144 
Q 1053 2284 737 2584 
Q 422 2884 422 3419 
Q 422 4038 858 4394 
Q 1294 4750 2059 4750 
Q 2388 4750 2728 4690 
Q 3069 4631 3425 4513 
z
" transform="scale(0.015625)"/>
       <path id="DejaVuSans-68" d="M 3513 2113 
L 3513 0 
L 2938 0 
L 2938 2094 
Q 2938 2591 2744 2837 
Q 2550 3084 2163 3084 
Q 1697 3084 1428 2787 
Q 1159 2491 1159 1978 
L 1159 0 
L 581 0 
L 581 4863 
L 1159 4863 
L 1159 2956 
Q 1366 3272 1645 3428 
Q 1925 3584 2291 3584 
Q 2894 3584 3203 3211 
Q 3513 2838 3513 2113 
z
" transform="scale(0.015625)"/>
      </defs>
      <use xlink:href="#DejaVuSans-41"/>
      <use xlink:href="#DejaVuSans-6e" x="68.408203"/>
      <use xlink:href="#DejaVuSans-61" x="131.787109"/>
      <use xlink:href="#DejaVuSans-6c" x="193.066406"/>
      <use xlink:href="#DejaVuSans-79" x="220.849609"/>
      <use xlink:href="#DejaVuSans-74" x="280.029297"/>
      <use xlink:href="#DejaVuSans-69" x="319.238281"/>
      <use xlink:href="#DejaVuSans-63" x="347.021484"/>
      <use xlink:href="#DejaVuSans-20" x="402.001953"/>
      <use xlink:href="#DejaVuSans-53" x="433.789062"/>
      <use xlink:href="#DejaVuSans-6f" x="497.265625"/>
      <use xlink:href="#DejaVuSans-6e" x="558.447266"/>
      <use xlink:href="#DejaVuSans-6e" x="621.826172"/>
      <use xlink:href="#DejaVuSans-65" x="685.205078"/>
      <use xlink:href="#DejaVuSans-6e" x="746.728516"/>
      <use xlink:href="#DejaVuSans-73" x="810.107422"/>
      <use xlink:href="#DejaVuSans-63" x="862.207031"/>
      <use xlink:href="#DejaVuSans-68" x="917.1875"/>
      <use xlink:href="#DejaVuSans-65" x="980.566406"/>
      <use xlink:href="#DejaVuSans-69" x="1042.089844"/>
      <use xlink:href="#DejaVuSans-6e" x="1069.873047"/>
     </g>
    </g>
   </g>
  </g>
 </g>
 <defs>
  <clipPath id="p3a6e9a5545">
   <rect x="46.64" y="26.64" width="297.021538" height="194.366154"/>
  </clipPath>
 </defs>
</svg>
