<?xml version="1.0" encoding="utf-8" standalone="no"?>
<!DOCTYPE svg PUBLIC "-//W3C//DTD SVG 1.1//EN"
  "http://www.w3.org/Graphics/SVG/1.1/DTD/svg11.dtd">
<svg xmlns:xlink="http://www.w3.org/1999/xlink" width="354.461538pt" height="265.846154pt" viewBox="0 0 354.461538 265.846154" xmlns="http://www.w3.org/2000/svg" version="1.1">
 <metadata>
  <rdf:RDF xmlns:dc="http://purl.org/dc/elements/1.1/" xmlns:cc="http://creativecommons.org/ns#" xmlns:rdf="http://www.w3.org/1999/02/22-rdf-syntax-ns#">
   <cc:Work>
    <dc:type rdf:resource="http://purl.org/dc/dcmitype/StillImage"/>
    <dc:date>2024-08-07T04:33:16.010581</dc:date>
    <dc:format>image/svg+xml</dc:format>
    <dc:creator>
     <cc:Agent>
      <dc:title>Matplotlib v3.7.1, https://matplotlib.org/</dc:title>
     </cc:Agent>
    </dc:creator>
   </cc:Work>
  </rdf:RDF>
 </metadata>
 <defs>
  <style type="text/css">*{stroke-linejoin: round; stroke-linecap: butt}</style>
 </defs>
 <g id="figure_1">
  <g id="patch_1">
   <path d="M 0 265.846154 
L 354.461538 265.846154 
L 354.461538 0 
L 0 0 
z
" style="fill: #ffffff"/>
  </g>
  <g id="axes_1">
   <g id="patch_2">
    <path d="M 60.59 221.006154 
L 343.661538 221.006154 
L 343.661538 26.64 
L 60.59 26.64 
z
" style="fill: #ffffff"/>
   </g>
   <g id="patch_3">
    <path d="M 60.59 221.006154 
L 66.251431 221.006154 
L 66.251431 220.585363 
L 60.59 220.585363 
z
" clip-path="url(#p868cbab179)" style="fill: #1f77b4; fill-opacity: 0.5; stroke: #1f77b4; stroke-linejoin: miter"/>
   </g>
   <g id="patch_4">
    <path d="M 66.251431 221.006154 
L 71.912862 221.006154 
L 71.912862 205.200467 
L 66.251431 205.200467 
z
" clip-path="url(#p868cbab179)" style="fill: #1f77b4; fill-opacity: 0.5; stroke: #1f77b4; stroke-linejoin: miter"/>
   </g>
   <g id="patch_5">
    <path d="M 71.912862 221.006154 
L 77.574292 221.006154 
L 77.574292 182.233332 
L 71.912862 182.233332 
z
" clip-path="url(#p868cbab179)" style="fill: #1f77b4; fill-opacity: 0.5; stroke: #1f77b4; stroke-linejoin: miter"/>
   </g>
   <g id="patch_6">
    <path d="M 77.574292 221.006154 
L 83.235723 221.006154 
L 83.235723 160.723931 
L 77.574292 160.723931 
z
" clip-path="url(#p868cbab179)" style="fill: #1f77b4; fill-opacity: 0.5; stroke: #1f77b4; stroke-linejoin: miter"/>
   </g>
   <g id="patch_7">
    <path d="M 83.235723 221.006154 
L 88.897154 221.006154 
L 88.897154 137.158856 
L 83.235723 137.158856 
z
" clip-path="url(#p868cbab179)" style="fill: #1f77b4; fill-opacity: 0.5; stroke: #1f77b4; stroke-linejoin: miter"/>
   </g>
   <g id="patch_8">
    <path d="M 88.897154 221.006154 
L 94.558584 221.006154 
L 94.558584 116.977557 
L 88.897154 116.977557 
z
" clip-path="url(#p868cbab179)" style="fill: #1f77b4; fill-opacity: 0.5; stroke: #1f77b4; stroke-linejoin: miter"/>
   </g>
   <g id="patch_9">
    <path d="M 94.558584 221.006154 
L 100.220016 221.006154 
L 100.220016 96.23363 
L 94.558584 96.23363 
z
" clip-path="url(#p868cbab179)" style="fill: #1f77b4; fill-opacity: 0.5; stroke: #1f77b4; stroke-linejoin: miter"/>
   </g>
   <g id="patch_10">
    <path d="M 100.220016 221.006154 
L 105.881448 221.006154 
L 105.881448 78.545215 
L 100.220016 78.545215 
z
" clip-path="url(#p868cbab179)" style="fill: #1f77b4; fill-opacity: 0.5; stroke: #1f77b4; stroke-linejoin: miter"/>
   </g>
   <g id="patch_11">
    <path d="M 105.881448 221.006154 
L 111.542876 221.006154 
L 111.542876 63.67182 
L 105.881448 63.67182 
z
" clip-path="url(#p868cbab179)" style="fill: #1f77b4; fill-opacity: 0.5; stroke: #1f77b4; stroke-linejoin: miter"/>
   </g>
   <g id="patch_12">
    <path d="M 111.542876 221.006154 
L 117.204308 221.006154 
L 117.204308 51.463571 
L 111.542876 51.463571 
z
" clip-path="url(#p868cbab179)" style="fill: #1f77b4; fill-opacity: 0.5; stroke: #1f77b4; stroke-linejoin: miter"/>
   </g>
   <g id="patch_13">
    <path d="M 117.204308 221.006154 
L 122.865739 221.006154 
L 122.865739 42.564613 
L 117.204308 42.564613 
z
" clip-path="url(#p868cbab179)" style="fill: #1f77b4; fill-opacity: 0.5; stroke: #1f77b4; stroke-linejoin: miter"/>
   </g>
   <g id="patch_14">
    <path d="M 122.865739 221.006154 
L 128.527168 221.006154 
L 128.527168 37.087169 
L 122.865739 37.087169 
z
" clip-path="url(#p868cbab179)" style="fill: #1f77b4; fill-opacity: 0.5; stroke: #1f77b4; stroke-linejoin: miter"/>
   </g>
   <g id="patch_15">
    <path d="M 128.527168 221.006154 
L 134.188603 221.006154 
L 134.188603 35.895531 
L 128.527168 35.895531 
z
" clip-path="url(#p868cbab179)" style="fill: #1f77b4; fill-opacity: 0.5; stroke: #1f77b4; stroke-linejoin: miter"/>
   </g>
   <g id="patch_16">
    <path d="M 134.188603 221.006154 
L 139.850031 221.006154 
L 139.850031 36.174312 
L 134.188603 36.174312 
z
" clip-path="url(#p868cbab179)" style="fill: #1f77b4; fill-opacity: 0.5; stroke: #1f77b4; stroke-linejoin: miter"/>
   </g>
   <g id="patch_17">
    <path d="M 139.850031 221.006154 
L 145.511459 221.006154 
L 145.511459 39.432545 
L 139.850031 39.432545 
z
" clip-path="url(#p868cbab179)" style="fill: #1f77b4; fill-opacity: 0.5; stroke: #1f77b4; stroke-linejoin: miter"/>
   </g>
   <g id="patch_18">
    <path d="M 145.511459 221.006154 
L 151.172894 221.006154 
L 151.172894 47.042557 
L 145.511459 47.042557 
z
" clip-path="url(#p868cbab179)" style="fill: #1f77b4; fill-opacity: 0.5; stroke: #1f77b4; stroke-linejoin: miter"/>
   </g>
   <g id="patch_19">
    <path d="M 151.172894 221.006154 
L 156.834322 221.006154 
L 156.834322 54.241613 
L 151.172894 54.241613 
z
" clip-path="url(#p868cbab179)" style="fill: #1f77b4; fill-opacity: 0.5; stroke: #1f77b4; stroke-linejoin: miter"/>
   </g>
   <g id="patch_20">
    <path d="M 156.834322 221.006154 
L 162.495751 221.006154 
L 162.495751 60.943497 
L 156.834322 60.943497 
z
" clip-path="url(#p868cbab179)" style="fill: #1f77b4; fill-opacity: 0.5; stroke: #1f77b4; stroke-linejoin: miter"/>
   </g>
   <g id="patch_21">
    <path d="M 162.495751 221.006154 
L 168.157186 221.006154 
L 168.157186 68.986186 
L 162.495751 68.986186 
z
" clip-path="url(#p868cbab179)" style="fill: #1f77b4; fill-opacity: 0.5; stroke: #1f77b4; stroke-linejoin: miter"/>
   </g>
   <g id="patch_22">
    <path d="M 168.157186 221.006154 
L 173.818614 221.006154 
L 173.818614 80.364904 
L 168.157186 80.364904 
z
" clip-path="url(#p868cbab179)" style="fill: #1f77b4; fill-opacity: 0.5; stroke: #1f77b4; stroke-linejoin: miter"/>
   </g>
   <g id="patch_23">
    <path d="M 173.818614 221.006154 
L 179.480049 221.006154 
L 179.480049 87.641537 
L 173.818614 87.641537 
z
" clip-path="url(#p868cbab179)" style="fill: #1f77b4; fill-opacity: 0.5; stroke: #1f77b4; stroke-linejoin: miter"/>
   </g>
   <g id="patch_24">
    <path d="M 179.480049 221.006154 
L 185.141477 221.006154 
L 185.141477 97.68781 
L 179.480049 97.68781 
z
" clip-path="url(#p868cbab179)" style="fill: #1f77b4; fill-opacity: 0.5; stroke: #1f77b4; stroke-linejoin: miter"/>
   </g>
   <g id="patch_25">
    <path d="M 185.141477 221.006154 
L 190.802906 221.006154 
L 190.802906 104.389009 
L 185.141477 104.389009 
z
" clip-path="url(#p868cbab179)" style="fill: #1f77b4; fill-opacity: 0.5; stroke: #1f77b4; stroke-linejoin: miter"/>
   </g>
   <g id="patch_26">
    <path d="M 190.802906 221.006154 
L 196.464334 221.006154 
L 196.464334 113.097745 
L 190.802906 113.097745 
z
" clip-path="url(#p868cbab179)" style="fill: #1f77b4; fill-opacity: 0.5; stroke: #1f77b4; stroke-linejoin: miter"/>
   </g>
   <g id="patch_27">
    <path d="M 196.464334 221.006154 
L 202.125775 221.006154 
L 202.125775 124.036079 
L 196.464334 124.036079 
z
" clip-path="url(#p868cbab179)" style="fill: #1f77b4; fill-opacity: 0.5; stroke: #1f77b4; stroke-linejoin: miter"/>
   </g>
   <g id="patch_28">
    <path d="M 202.125775 221.006154 
L 207.787204 221.006154 
L 207.787204 129.422291 
L 202.125775 129.422291 
z
" clip-path="url(#p868cbab179)" style="fill: #1f77b4; fill-opacity: 0.5; stroke: #1f77b4; stroke-linejoin: miter"/>
   </g>
   <g id="patch_29">
    <path d="M 207.787204 221.006154 
L 213.448632 221.006154 
L 213.448632 134.823435 
L 207.787204 134.823435 
z
" clip-path="url(#p868cbab179)" style="fill: #1f77b4; fill-opacity: 0.5; stroke: #1f77b4; stroke-linejoin: miter"/>
   </g>
   <g id="patch_30">
    <path d="M 213.448632 221.006154 
L 219.11006 221.006154 
L 219.11006 143.055168 
L 213.448632 143.055168 
z
" clip-path="url(#p868cbab179)" style="fill: #1f77b4; fill-opacity: 0.5; stroke: #1f77b4; stroke-linejoin: miter"/>
   </g>
   <g id="patch_31">
    <path d="M 219.11006 221.006154 
L 224.771489 221.006154 
L 224.771489 150.982358 
L 219.11006 150.982358 
z
" clip-path="url(#p868cbab179)" style="fill: #1f77b4; fill-opacity: 0.5; stroke: #1f77b4; stroke-linejoin: miter"/>
   </g>
   <g id="patch_32">
    <path d="M 224.771489 221.006154 
L 230.432917 221.006154 
L 230.432917 155.870945 
L 224.771489 155.870945 
z
" clip-path="url(#p868cbab179)" style="fill: #1f77b4; fill-opacity: 0.5; stroke: #1f77b4; stroke-linejoin: miter"/>
   </g>
   <g id="patch_33">
    <path d="M 230.432917 221.006154 
L 236.094359 221.006154 
L 236.094359 160.441127 
L 230.432917 160.441127 
z
" clip-path="url(#p868cbab179)" style="fill: #1f77b4; fill-opacity: 0.5; stroke: #1f77b4; stroke-linejoin: miter"/>
   </g>
   <g id="patch_34">
    <path d="M 236.094359 221.006154 
L 241.755787 221.006154 
L 241.755787 164.995035 
L 236.094359 164.995035 
z
" clip-path="url(#p868cbab179)" style="fill: #1f77b4; fill-opacity: 0.5; stroke: #1f77b4; stroke-linejoin: miter"/>
   </g>
   <g id="patch_35">
    <path d="M 241.755787 221.006154 
L 247.417215 221.006154 
L 247.417215 170.48218 
L 241.755787 170.48218 
z
" clip-path="url(#p868cbab179)" style="fill: #1f77b4; fill-opacity: 0.5; stroke: #1f77b4; stroke-linejoin: miter"/>
   </g>
   <g id="patch_36">
    <path d="M 247.417215 221.006154 
L 253.078644 221.006154 
L 253.078644 172.178573 
L 247.417215 172.178573 
z
" clip-path="url(#p868cbab179)" style="fill: #1f77b4; fill-opacity: 0.5; stroke: #1f77b4; stroke-linejoin: miter"/>
   </g>
   <g id="patch_37">
    <path d="M 253.078644 221.006154 
L 258.740072 221.006154 
L 258.740072 176.563238 
L 253.078644 176.563238 
z
" clip-path="url(#p868cbab179)" style="fill: #1f77b4; fill-opacity: 0.5; stroke: #1f77b4; stroke-linejoin: miter"/>
   </g>
   <g id="patch_38">
    <path d="M 258.740072 221.006154 
L 264.401513 221.006154 
L 264.401513 180.376968 
L 258.740072 180.376968 
z
" clip-path="url(#p868cbab179)" style="fill: #1f77b4; fill-opacity: 0.5; stroke: #1f77b4; stroke-linejoin: miter"/>
   </g>
   <g id="patch_39">
    <path d="M 264.401513 221.006154 
L 270.062942 221.006154 
L 270.062942 183.529242 
L 264.401513 183.529242 
z
" clip-path="url(#p868cbab179)" style="fill: #1f77b4; fill-opacity: 0.5; stroke: #1f77b4; stroke-linejoin: miter"/>
   </g>
   <g id="patch_40">
    <path d="M 270.062942 221.006154 
L 275.72437 221.006154 
L 275.72437 185.79178 
L 270.062942 185.79178 
z
" clip-path="url(#p868cbab179)" style="fill: #1f77b4; fill-opacity: 0.5; stroke: #1f77b4; stroke-linejoin: miter"/>
   </g>
   <g id="patch_41">
    <path d="M 275.72437 221.006154 
L 281.385798 221.006154 
L 281.385798 188.190749 
L 275.72437 188.190749 
z
" clip-path="url(#p868cbab179)" style="fill: #1f77b4; fill-opacity: 0.5; stroke: #1f77b4; stroke-linejoin: miter"/>
   </g>
   <g id="patch_42">
    <path d="M 281.385798 221.006154 
L 287.047227 221.006154 
L 287.047227 190.670705 
L 281.385798 190.670705 
z
" clip-path="url(#p868cbab179)" style="fill: #1f77b4; fill-opacity: 0.5; stroke: #1f77b4; stroke-linejoin: miter"/>
   </g>
   <g id="patch_43">
    <path d="M 287.047227 221.006154 
L 292.708668 221.006154 
L 292.708668 194.004708 
L 287.047227 194.004708 
z
" clip-path="url(#p868cbab179)" style="fill: #1f77b4; fill-opacity: 0.5; stroke: #1f77b4; stroke-linejoin: miter"/>
   </g>
   <g id="patch_44">
    <path d="M 292.708668 221.006154 
L 298.370083 221.006154 
L 298.370083 196.288559 
L 292.708668 196.288559 
z
" clip-path="url(#p868cbab179)" style="fill: #1f77b4; fill-opacity: 0.5; stroke: #1f77b4; stroke-linejoin: miter"/>
   </g>
   <g id="patch_45">
    <path d="M 298.370083 221.006154 
L 304.031525 221.006154 
L 304.031525 196.631536 
L 298.370083 196.631536 
z
" clip-path="url(#p868cbab179)" style="fill: #1f77b4; fill-opacity: 0.5; stroke: #1f77b4; stroke-linejoin: miter"/>
   </g>
   <g id="patch_46">
    <path d="M 304.031525 221.006154 
L 309.692967 221.006154 
L 309.692967 199.780619 
L 304.031525 199.780619 
z
" clip-path="url(#p868cbab179)" style="fill: #1f77b4; fill-opacity: 0.5; stroke: #1f77b4; stroke-linejoin: miter"/>
   </g>
   <g id="patch_47">
    <path d="M 309.692967 221.006154 
L 315.354382 221.006154 
L 315.354382 201.05443 
L 309.692967 201.05443 
z
" clip-path="url(#p868cbab179)" style="fill: #1f77b4; fill-opacity: 0.5; stroke: #1f77b4; stroke-linejoin: miter"/>
   </g>
   <g id="patch_48">
    <path d="M 315.354382 221.006154 
L 321.015823 221.006154 
L 321.015823 202.301676 
L 315.354382 202.301676 
z
" clip-path="url(#p868cbab179)" style="fill: #1f77b4; fill-opacity: 0.5; stroke: #1f77b4; stroke-linejoin: miter"/>
   </g>
   <g id="patch_49">
    <path d="M 321.015823 221.006154 
L 326.677238 221.006154 
L 326.677238 203.510882 
L 321.015823 203.510882 
z
" clip-path="url(#p868cbab179)" style="fill: #1f77b4; fill-opacity: 0.5; stroke: #1f77b4; stroke-linejoin: miter"/>
   </g>
   <g id="patch_50">
    <path d="M 326.677238 221.006154 
L 332.33868 221.006154 
L 332.33868 205.020446 
L 326.677238 205.020446 
z
" clip-path="url(#p868cbab179)" style="fill: #1f77b4; fill-opacity: 0.5; stroke: #1f77b4; stroke-linejoin: miter"/>
   </g>
   <g id="patch_51">
    <path d="M 332.33868 221.006154 
L 338.000095 221.006154 
L 338.000095 205.590766 
L 332.33868 205.590766 
z
" clip-path="url(#p868cbab179)" style="fill: #1f77b4; fill-opacity: 0.5; stroke: #1f77b4; stroke-linejoin: miter"/>
   </g>
   <g id="patch_52">
    <path d="M 338.000095 221.006154 
L 343.661536 221.006154 
L 343.661536 206.932382 
L 338.000095 206.932382 
z
" clip-path="url(#p868cbab179)" style="fill: #1f77b4; fill-opacity: 0.5; stroke: #1f77b4; stroke-linejoin: miter"/>
   </g>
   <g id="patch_53">
    <path d="M 60.59 221.006154 
L 66.251431 221.006154 
L 66.251431 220.458232 
L 60.59 220.458232 
z
" clip-path="url(#p868cbab179)" style="fill: #ff7f0e; fill-opacity: 0.5; stroke: #ff7f0e; stroke-linejoin: miter"/>
   </g>
   <g id="patch_54">
    <path d="M 66.251431 221.006154 
L 71.912862 221.006154 
L 71.912862 208.537307 
L 66.251431 208.537307 
z
" clip-path="url(#p868cbab179)" style="fill: #ff7f0e; fill-opacity: 0.5; stroke: #ff7f0e; stroke-linejoin: miter"/>
   </g>
   <g id="patch_55">
    <path d="M 71.912862 221.006154 
L 77.574292 221.006154 
L 77.574292 191.333314 
L 71.912862 191.333314 
z
" clip-path="url(#p868cbab179)" style="fill: #ff7f0e; fill-opacity: 0.5; stroke: #ff7f0e; stroke-linejoin: miter"/>
   </g>
   <g id="patch_56">
    <path d="M 77.574292 221.006154 
L 83.235723 221.006154 
L 83.235723 173.162627 
L 77.574292 173.162627 
z
" clip-path="url(#p868cbab179)" style="fill: #ff7f0e; fill-opacity: 0.5; stroke: #ff7f0e; stroke-linejoin: miter"/>
   </g>
   <g id="patch_57">
    <path d="M 83.235723 221.006154 
L 88.897154 221.006154 
L 88.897154 162.50043 
L 83.235723 162.50043 
z
" clip-path="url(#p868cbab179)" style="fill: #ff7f0e; fill-opacity: 0.5; stroke: #ff7f0e; stroke-linejoin: miter"/>
   </g>
   <g id="patch_58">
    <path d="M 88.897154 221.006154 
L 94.558585 221.006154 
L 94.558585 145.592831 
L 88.897154 145.592831 
z
" clip-path="url(#p868cbab179)" style="fill: #ff7f0e; fill-opacity: 0.5; stroke: #ff7f0e; stroke-linejoin: miter"/>
   </g>
   <g id="patch_59">
    <path d="M 94.558585 221.006154 
L 100.220015 221.006154 
L 100.220015 130.204181 
L 94.558585 130.204181 
z
" clip-path="url(#p868cbab179)" style="fill: #ff7f0e; fill-opacity: 0.5; stroke: #ff7f0e; stroke-linejoin: miter"/>
   </g>
   <g id="patch_60">
    <path d="M 100.220015 221.006154 
L 105.881446 221.006154 
L 105.881446 121.369364 
L 100.220015 121.369364 
z
" clip-path="url(#p868cbab179)" style="fill: #ff7f0e; fill-opacity: 0.5; stroke: #ff7f0e; stroke-linejoin: miter"/>
   </g>
   <g id="patch_61">
    <path d="M 105.881446 221.006154 
L 111.542877 221.006154 
L 111.542877 108.055099 
L 105.881446 108.055099 
z
" clip-path="url(#p868cbab179)" style="fill: #ff7f0e; fill-opacity: 0.5; stroke: #ff7f0e; stroke-linejoin: miter"/>
   </g>
   <g id="patch_62">
    <path d="M 111.542877 221.006154 
L 117.204308 221.006154 
L 117.204308 99.575548 
L 111.542877 99.575548 
z
" clip-path="url(#p868cbab179)" style="fill: #ff7f0e; fill-opacity: 0.5; stroke: #ff7f0e; stroke-linejoin: miter"/>
   </g>
   <g id="patch_63">
    <path d="M 117.204308 221.006154 
L 122.865738 221.006154 
L 122.865738 94.096917 
L 117.204308 94.096917 
z
" clip-path="url(#p868cbab179)" style="fill: #ff7f0e; fill-opacity: 0.5; stroke: #ff7f0e; stroke-linejoin: miter"/>
   </g>
   <g id="patch_64">
    <path d="M 122.865738 221.006154 
L 128.527169 221.006154 
L 128.527169 87.93708 
L 122.865738 87.93708 
z
" clip-path="url(#p868cbab179)" style="fill: #ff7f0e; fill-opacity: 0.5; stroke: #ff7f0e; stroke-linejoin: miter"/>
   </g>
   <g id="patch_65">
    <path d="M 128.527169 221.006154 
L 134.1886 221.006154 
L 134.1886 89.970854 
L 128.527169 89.970854 
z
" clip-path="url(#p868cbab179)" style="fill: #ff7f0e; fill-opacity: 0.5; stroke: #ff7f0e; stroke-linejoin: miter"/>
   </g>
   <g id="patch_66">
    <path d="M 134.1886 221.006154 
L 139.850031 221.006154 
L 139.850031 79.530007 
L 134.1886 79.530007 
z
" clip-path="url(#p868cbab179)" style="fill: #ff7f0e; fill-opacity: 0.5; stroke: #ff7f0e; stroke-linejoin: miter"/>
   </g>
   <g id="patch_67">
    <path d="M 139.850031 221.006154 
L 145.511462 221.006154 
L 145.511462 78.27115 
L 139.850031 78.27115 
z
" clip-path="url(#p868cbab179)" style="fill: #ff7f0e; fill-opacity: 0.5; stroke: #ff7f0e; stroke-linejoin: miter"/>
   </g>
   <g id="patch_68">
    <path d="M 145.511462 221.006154 
L 151.172892 221.006154 
L 151.172892 80.187712 
L 145.511462 80.187712 
z
" clip-path="url(#p868cbab179)" style="fill: #ff7f0e; fill-opacity: 0.5; stroke: #ff7f0e; stroke-linejoin: miter"/>
   </g>
   <g id="patch_69">
    <path d="M 151.172892 221.006154 
L 156.834323 221.006154 
L 156.834323 80.670936 
L 151.172892 80.670936 
z
" clip-path="url(#p868cbab179)" style="fill: #ff7f0e; fill-opacity: 0.5; stroke: #ff7f0e; stroke-linejoin: miter"/>
   </g>
   <g id="patch_70">
    <path d="M 156.834323 221.006154 
L 162.495754 221.006154 
L 162.495754 80.125942 
L 156.834323 80.125942 
z
" clip-path="url(#p868cbab179)" style="fill: #ff7f0e; fill-opacity: 0.5; stroke: #ff7f0e; stroke-linejoin: miter"/>
   </g>
   <g id="patch_71">
    <path d="M 162.495754 221.006154 
L 168.157185 221.006154 
L 168.157185 82.82399 
L 162.495754 82.82399 
z
" clip-path="url(#p868cbab179)" style="fill: #ff7f0e; fill-opacity: 0.5; stroke: #ff7f0e; stroke-linejoin: miter"/>
   </g>
   <g id="patch_72">
    <path d="M 168.157185 221.006154 
L 173.818615 221.006154 
L 173.818615 85.988615 
L 168.157185 85.988615 
z
" clip-path="url(#p868cbab179)" style="fill: #ff7f0e; fill-opacity: 0.5; stroke: #ff7f0e; stroke-linejoin: miter"/>
   </g>
   <g id="patch_73">
    <path d="M 173.818615 221.006154 
L 179.480046 221.006154 
L 179.480046 90.248867 
L 173.818615 90.248867 
z
" clip-path="url(#p868cbab179)" style="fill: #ff7f0e; fill-opacity: 0.5; stroke: #ff7f0e; stroke-linejoin: miter"/>
   </g>
   <g id="patch_74">
    <path d="M 179.480046 221.006154 
L 185.141477 221.006154 
L 185.141477 96.431485 
L 179.480046 96.431485 
z
" clip-path="url(#p868cbab179)" style="fill: #ff7f0e; fill-opacity: 0.5; stroke: #ff7f0e; stroke-linejoin: miter"/>
   </g>
   <g id="patch_75">
    <path d="M 185.141477 221.006154 
L 190.802908 221.006154 
L 190.802908 100.981952 
L 185.141477 100.981952 
z
" clip-path="url(#p868cbab179)" style="fill: #ff7f0e; fill-opacity: 0.5; stroke: #ff7f0e; stroke-linejoin: miter"/>
   </g>
   <g id="patch_76">
    <path d="M 190.802908 221.006154 
L 196.464338 221.006154 
L 196.464338 104.611858 
L 190.802908 104.611858 
z
" clip-path="url(#p868cbab179)" style="fill: #ff7f0e; fill-opacity: 0.5; stroke: #ff7f0e; stroke-linejoin: miter"/>
   </g>
   <g id="patch_77">
    <path d="M 196.464338 221.006154 
L 202.125769 221.006154 
L 202.125769 110.777403 
L 196.464338 110.777403 
z
" clip-path="url(#p868cbab179)" style="fill: #ff7f0e; fill-opacity: 0.5; stroke: #ff7f0e; stroke-linejoin: miter"/>
   </g>
   <g id="patch_78">
    <path d="M 202.125769 221.006154 
L 207.7872 221.006154 
L 207.7872 116.767973 
L 202.125769 116.767973 
z
" clip-path="url(#p868cbab179)" style="fill: #ff7f0e; fill-opacity: 0.5; stroke: #ff7f0e; stroke-linejoin: miter"/>
   </g>
   <g id="patch_79">
    <path d="M 207.7872 221.006154 
L 213.448631 221.006154 
L 213.448631 122.68635 
L 207.7872 122.68635 
z
" clip-path="url(#p868cbab179)" style="fill: #ff7f0e; fill-opacity: 0.5; stroke: #ff7f0e; stroke-linejoin: miter"/>
   </g>
   <g id="patch_80">
    <path d="M 213.448631 221.006154 
L 219.110062 221.006154 
L 219.110062 123.524456 
L 213.448631 123.524456 
z
" clip-path="url(#p868cbab179)" style="fill: #ff7f0e; fill-opacity: 0.5; stroke: #ff7f0e; stroke-linejoin: miter"/>
   </g>
   <g id="patch_81">
    <path d="M 219.110062 221.006154 
L 224.771492 221.006154 
L 224.771492 139.920755 
L 219.110062 139.920755 
z
" clip-path="url(#p868cbab179)" style="fill: #ff7f0e; fill-opacity: 0.5; stroke: #ff7f0e; stroke-linejoin: miter"/>
   </g>
   <g id="patch_82">
    <path d="M 224.771492 221.006154 
L 230.432923 221.006154 
L 230.432923 136.189363 
L 224.771492 136.189363 
z
" clip-path="url(#p868cbab179)" style="fill: #ff7f0e; fill-opacity: 0.5; stroke: #ff7f0e; stroke-linejoin: miter"/>
   </g>
   <g id="patch_83">
    <path d="M 230.432923 221.006154 
L 236.094354 221.006154 
L 236.094354 140.916721 
L 230.432923 140.916721 
z
" clip-path="url(#p868cbab179)" style="fill: #ff7f0e; fill-opacity: 0.5; stroke: #ff7f0e; stroke-linejoin: miter"/>
   </g>
   <g id="patch_84">
    <path d="M 236.094354 221.006154 
L 241.755785 221.006154 
L 241.755785 144.784906 
L 236.094354 144.784906 
z
" clip-path="url(#p868cbab179)" style="fill: #ff7f0e; fill-opacity: 0.5; stroke: #ff7f0e; stroke-linejoin: miter"/>
   </g>
   <g id="patch_85">
    <path d="M 241.755785 221.006154 
L 247.417215 221.006154 
L 247.417215 151.094189 
L 241.755785 151.094189 
z
" clip-path="url(#p868cbab179)" style="fill: #ff7f0e; fill-opacity: 0.5; stroke: #ff7f0e; stroke-linejoin: miter"/>
   </g>
   <g id="patch_86">
    <path d="M 247.417215 221.006154 
L 253.078646 221.006154 
L 253.078646 154.329892 
L 247.417215 154.329892 
z
" clip-path="url(#p868cbab179)" style="fill: #ff7f0e; fill-opacity: 0.5; stroke: #ff7f0e; stroke-linejoin: miter"/>
   </g>
   <g id="patch_87">
    <path d="M 253.078646 221.006154 
L 258.740077 221.006154 
L 258.740077 156.800147 
L 253.078646 156.800147 
z
" clip-path="url(#p868cbab179)" style="fill: #ff7f0e; fill-opacity: 0.5; stroke: #ff7f0e; stroke-linejoin: miter"/>
   </g>
   <g id="patch_88">
    <path d="M 258.740077 221.006154 
L 264.401508 221.006154 
L 264.401508 163.06739 
L 258.740077 163.06739 
z
" clip-path="url(#p868cbab179)" style="fill: #ff7f0e; fill-opacity: 0.5; stroke: #ff7f0e; stroke-linejoin: miter"/>
   </g>
   <g id="patch_89">
    <path d="M 264.401508 221.006154 
L 270.062938 221.006154 
L 270.062938 166.674463 
L 264.401508 166.674463 
z
" clip-path="url(#p868cbab179)" style="fill: #ff7f0e; fill-opacity: 0.5; stroke: #ff7f0e; stroke-linejoin: miter"/>
   </g>
   <g id="patch_90">
    <path d="M 270.062938 221.006154 
L 275.724369 221.006154 
L 275.724369 169.108258 
L 270.062938 169.108258 
z
" clip-path="url(#p868cbab179)" style="fill: #ff7f0e; fill-opacity: 0.5; stroke: #ff7f0e; stroke-linejoin: miter"/>
   </g>
   <g id="patch_91">
    <path d="M 275.724369 221.006154 
L 281.3858 221.006154 
L 281.3858 173.099808 
L 275.724369 173.099808 
z
" clip-path="url(#p868cbab179)" style="fill: #ff7f0e; fill-opacity: 0.5; stroke: #ff7f0e; stroke-linejoin: miter"/>
   </g>
   <g id="patch_92">
    <path d="M 281.3858 221.006154 
L 287.047231 221.006154 
L 287.047231 175.493337 
L 281.3858 175.493337 
z
" clip-path="url(#p868cbab179)" style="fill: #ff7f0e; fill-opacity: 0.5; stroke: #ff7f0e; stroke-linejoin: miter"/>
   </g>
   <g id="patch_93">
    <path d="M 287.047231 221.006154 
L 292.708662 221.006154 
L 292.708662 181.375555 
L 287.047231 181.375555 
z
" clip-path="url(#p868cbab179)" style="fill: #ff7f0e; fill-opacity: 0.5; stroke: #ff7f0e; stroke-linejoin: miter"/>
   </g>
   <g id="patch_94">
    <path d="M 292.708662 221.006154 
L 298.370092 221.006154 
L 298.370092 179.769221 
L 292.708662 179.769221 
z
" clip-path="url(#p868cbab179)" style="fill: #ff7f0e; fill-opacity: 0.5; stroke: #ff7f0e; stroke-linejoin: miter"/>
   </g>
   <g id="patch_95">
    <path d="M 298.370092 221.006154 
L 304.031523 221.006154 
L 304.031523 187.253257 
L 298.370092 187.253257 
z
" clip-path="url(#p868cbab179)" style="fill: #ff7f0e; fill-opacity: 0.5; stroke: #ff7f0e; stroke-linejoin: miter"/>
   </g>
   <g id="patch_96">
    <path d="M 304.031523 221.006154 
L 309.692954 221.006154 
L 309.692954 182.812607 
L 304.031523 182.812607 
z
" clip-path="url(#p868cbab179)" style="fill: #ff7f0e; fill-opacity: 0.5; stroke: #ff7f0e; stroke-linejoin: miter"/>
   </g>
   <g id="patch_97">
    <path d="M 309.692954 221.006154 
L 315.354385 221.006154 
L 315.354385 189.668171 
L 309.692954 189.668171 
z
" clip-path="url(#p868cbab179)" style="fill: #ff7f0e; fill-opacity: 0.5; stroke: #ff7f0e; stroke-linejoin: miter"/>
   </g>
   <g id="patch_98">
    <path d="M 315.354385 221.006154 
L 321.015815 221.006154 
L 321.015815 188.778289 
L 315.354385 188.778289 
z
" clip-path="url(#p868cbab179)" style="fill: #ff7f0e; fill-opacity: 0.5; stroke: #ff7f0e; stroke-linejoin: miter"/>
   </g>
   <g id="patch_99">
    <path d="M 321.015815 221.006154 
L 326.677246 221.006154 
L 326.677246 194.487818 
L 321.015815 194.487818 
z
" clip-path="url(#p868cbab179)" style="fill: #ff7f0e; fill-opacity: 0.5; stroke: #ff7f0e; stroke-linejoin: miter"/>
   </g>
   <g id="patch_100">
    <path d="M 326.677246 221.006154 
L 332.338677 221.006154 
L 332.338677 191.030441 
L 326.677246 191.030441 
z
" clip-path="url(#p868cbab179)" style="fill: #ff7f0e; fill-opacity: 0.5; stroke: #ff7f0e; stroke-linejoin: miter"/>
   </g>
   <g id="patch_101">
    <path d="M 332.338677 221.006154 
L 338.000108 221.006154 
L 338.000108 196.701444 
L 332.338677 196.701444 
z
" clip-path="url(#p868cbab179)" style="fill: #ff7f0e; fill-opacity: 0.5; stroke: #ff7f0e; stroke-linejoin: miter"/>
   </g>
   <g id="patch_102">
    <path d="M 338.000108 221.006154 
L 343.661538 221.006154 
L 343.661538 195.255705 
L 338.000108 195.255705 
z
" clip-path="url(#p868cbab179)" style="fill: #ff7f0e; fill-opacity: 0.5; stroke: #ff7f0e; stroke-linejoin: miter"/>
   </g>
   <g id="patch_103">
    <path d="M 60.59 221.006154 
L 66.251431 221.006154 
L 66.251431 220.575581 
L 60.59 220.575581 
z
" clip-path="url(#p868cbab179)" style="fill: #2ca02c; fill-opacity: 0.5; stroke: #2ca02c; stroke-linejoin: miter"/>
   </g>
   <g id="patch_104">
    <path d="M 66.251431 221.006154 
L 71.912862 221.006154 
L 71.912862 207.602018 
L 66.251431 207.602018 
z
" clip-path="url(#p868cbab179)" style="fill: #2ca02c; fill-opacity: 0.5; stroke: #2ca02c; stroke-linejoin: miter"/>
   </g>
   <g id="patch_105">
    <path d="M 71.912862 221.006154 
L 77.574292 221.006154 
L 77.574292 190.962949 
L 71.912862 190.962949 
z
" clip-path="url(#p868cbab179)" style="fill: #2ca02c; fill-opacity: 0.5; stroke: #2ca02c; stroke-linejoin: miter"/>
   </g>
   <g id="patch_106">
    <path d="M 77.574292 221.006154 
L 83.235723 221.006154 
L 83.235723 172.933115 
L 77.574292 172.933115 
z
" clip-path="url(#p868cbab179)" style="fill: #2ca02c; fill-opacity: 0.5; stroke: #2ca02c; stroke-linejoin: miter"/>
   </g>
   <g id="patch_107">
    <path d="M 83.235723 221.006154 
L 88.897154 221.006154 
L 88.897154 156.295905 
L 83.235723 156.295905 
z
" clip-path="url(#p868cbab179)" style="fill: #2ca02c; fill-opacity: 0.5; stroke: #2ca02c; stroke-linejoin: miter"/>
   </g>
   <g id="patch_108">
    <path d="M 88.897154 221.006154 
L 94.558585 221.006154 
L 94.558585 142.507972 
L 88.897154 142.507972 
z
" clip-path="url(#p868cbab179)" style="fill: #2ca02c; fill-opacity: 0.5; stroke: #2ca02c; stroke-linejoin: miter"/>
   </g>
   <g id="patch_109">
    <path d="M 94.558585 221.006154 
L 100.220015 221.006154 
L 100.220015 132.057437 
L 94.558585 132.057437 
z
" clip-path="url(#p868cbab179)" style="fill: #2ca02c; fill-opacity: 0.5; stroke: #2ca02c; stroke-linejoin: miter"/>
   </g>
   <g id="patch_110">
    <path d="M 100.220015 221.006154 
L 105.881446 221.006154 
L 105.881446 118.156418 
L 100.220015 118.156418 
z
" clip-path="url(#p868cbab179)" style="fill: #2ca02c; fill-opacity: 0.5; stroke: #2ca02c; stroke-linejoin: miter"/>
   </g>
   <g id="patch_111">
    <path d="M 105.881446 221.006154 
L 111.542877 221.006154 
L 111.542877 112.335081 
L 105.881446 112.335081 
z
" clip-path="url(#p868cbab179)" style="fill: #2ca02c; fill-opacity: 0.5; stroke: #2ca02c; stroke-linejoin: miter"/>
   </g>
   <g id="patch_112">
    <path d="M 111.542877 221.006154 
L 117.204308 221.006154 
L 117.204308 103.151638 
L 111.542877 103.151638 
z
" clip-path="url(#p868cbab179)" style="fill: #2ca02c; fill-opacity: 0.5; stroke: #2ca02c; stroke-linejoin: miter"/>
   </g>
   <g id="patch_113">
    <path d="M 117.204308 221.006154 
L 122.865738 221.006154 
L 122.865738 95.426489 
L 117.204308 95.426489 
z
" clip-path="url(#p868cbab179)" style="fill: #2ca02c; fill-opacity: 0.5; stroke: #2ca02c; stroke-linejoin: miter"/>
   </g>
   <g id="patch_114">
    <path d="M 122.865738 221.006154 
L 128.527169 221.006154 
L 128.527169 93.345686 
L 122.865738 93.345686 
z
" clip-path="url(#p868cbab179)" style="fill: #2ca02c; fill-opacity: 0.5; stroke: #2ca02c; stroke-linejoin: miter"/>
   </g>
   <g id="patch_115">
    <path d="M 128.527169 221.006154 
L 134.1886 221.006154 
L 134.1886 90.969178 
L 128.527169 90.969178 
z
" clip-path="url(#p868cbab179)" style="fill: #2ca02c; fill-opacity: 0.5; stroke: #2ca02c; stroke-linejoin: miter"/>
   </g>
   <g id="patch_116">
    <path d="M 134.1886 221.006154 
L 139.850031 221.006154 
L 139.850031 91.04642 
L 134.1886 91.04642 
z
" clip-path="url(#p868cbab179)" style="fill: #2ca02c; fill-opacity: 0.5; stroke: #2ca02c; stroke-linejoin: miter"/>
   </g>
   <g id="patch_117">
    <path d="M 139.850031 221.006154 
L 145.511462 221.006154 
L 145.511462 90.68481 
L 139.850031 90.68481 
z
" clip-path="url(#p868cbab179)" style="fill: #2ca02c; fill-opacity: 0.5; stroke: #2ca02c; stroke-linejoin: miter"/>
   </g>
   <g id="patch_118">
    <path d="M 145.511462 221.006154 
L 151.172892 221.006154 
L 151.172892 90.722922 
L 145.511462 90.722922 
z
" clip-path="url(#p868cbab179)" style="fill: #2ca02c; fill-opacity: 0.5; stroke: #2ca02c; stroke-linejoin: miter"/>
   </g>
   <g id="patch_119">
    <path d="M 151.172892 221.006154 
L 156.834323 221.006154 
L 156.834323 91.159889 
L 151.172892 91.159889 
z
" clip-path="url(#p868cbab179)" style="fill: #2ca02c; fill-opacity: 0.5; stroke: #2ca02c; stroke-linejoin: miter"/>
   </g>
   <g id="patch_120">
    <path d="M 156.834323 221.006154 
L 162.495754 221.006154 
L 162.495754 94.58862 
L 156.834323 94.58862 
z
" clip-path="url(#p868cbab179)" style="fill: #2ca02c; fill-opacity: 0.5; stroke: #2ca02c; stroke-linejoin: miter"/>
   </g>
   <g id="patch_121">
    <path d="M 162.495754 221.006154 
L 168.157185 221.006154 
L 168.157185 99.072832 
L 162.495754 99.072832 
z
" clip-path="url(#p868cbab179)" style="fill: #2ca02c; fill-opacity: 0.5; stroke: #2ca02c; stroke-linejoin: miter"/>
   </g>
   <g id="patch_122">
    <path d="M 168.157185 221.006154 
L 173.818615 221.006154 
L 173.818615 99.83473 
L 168.157185 99.83473 
z
" clip-path="url(#p868cbab179)" style="fill: #2ca02c; fill-opacity: 0.5; stroke: #2ca02c; stroke-linejoin: miter"/>
   </g>
   <g id="patch_123">
    <path d="M 173.818615 221.006154 
L 179.480046 221.006154 
L 179.480046 105.803468 
L 173.818615 105.803468 
z
" clip-path="url(#p868cbab179)" style="fill: #2ca02c; fill-opacity: 0.5; stroke: #2ca02c; stroke-linejoin: miter"/>
   </g>
   <g id="patch_124">
    <path d="M 179.480046 221.006154 
L 185.141477 221.006154 
L 185.141477 109.146051 
L 179.480046 109.146051 
z
" clip-path="url(#p868cbab179)" style="fill: #2ca02c; fill-opacity: 0.5; stroke: #2ca02c; stroke-linejoin: miter"/>
   </g>
   <g id="patch_125">
    <path d="M 185.141477 221.006154 
L 190.802908 221.006154 
L 190.802908 111.798597 
L 185.141477 111.798597 
z
" clip-path="url(#p868cbab179)" style="fill: #2ca02c; fill-opacity: 0.5; stroke: #2ca02c; stroke-linejoin: miter"/>
   </g>
   <g id="patch_126">
    <path d="M 190.802908 221.006154 
L 196.464338 221.006154 
L 196.464338 116.546292 
L 190.802908 116.546292 
z
" clip-path="url(#p868cbab179)" style="fill: #2ca02c; fill-opacity: 0.5; stroke: #2ca02c; stroke-linejoin: miter"/>
   </g>
   <g id="patch_127">
    <path d="M 196.464338 221.006154 
L 202.125769 221.006154 
L 202.125769 117.67266 
L 196.464338 117.67266 
z
" clip-path="url(#p868cbab179)" style="fill: #2ca02c; fill-opacity: 0.5; stroke: #2ca02c; stroke-linejoin: miter"/>
   </g>
   <g id="patch_128">
    <path d="M 202.125769 221.006154 
L 207.7872 221.006154 
L 207.7872 124.077154 
L 202.125769 124.077154 
z
" clip-path="url(#p868cbab179)" style="fill: #2ca02c; fill-opacity: 0.5; stroke: #2ca02c; stroke-linejoin: miter"/>
   </g>
   <g id="patch_129">
    <path d="M 207.7872 221.006154 
L 213.448631 221.006154 
L 213.448631 127.155883 
L 207.7872 127.155883 
z
" clip-path="url(#p868cbab179)" style="fill: #2ca02c; fill-opacity: 0.5; stroke: #2ca02c; stroke-linejoin: miter"/>
   </g>
   <g id="patch_130">
    <path d="M 213.448631 221.006154 
L 219.110062 221.006154 
L 219.110062 131.84845 
L 213.448631 131.84845 
z
" clip-path="url(#p868cbab179)" style="fill: #2ca02c; fill-opacity: 0.5; stroke: #2ca02c; stroke-linejoin: miter"/>
   </g>
   <g id="patch_131">
    <path d="M 219.110062 221.006154 
L 224.771492 221.006154 
L 224.771492 137.444915 
L 219.110062 137.444915 
z
" clip-path="url(#p868cbab179)" style="fill: #2ca02c; fill-opacity: 0.5; stroke: #2ca02c; stroke-linejoin: miter"/>
   </g>
   <g id="patch_132">
    <path d="M 224.771492 221.006154 
L 230.432923 221.006154 
L 230.432923 138.848135 
L 224.771492 138.848135 
z
" clip-path="url(#p868cbab179)" style="fill: #2ca02c; fill-opacity: 0.5; stroke: #2ca02c; stroke-linejoin: miter"/>
   </g>
   <g id="patch_133">
    <path d="M 230.432923 221.006154 
L 236.094354 221.006154 
L 236.094354 143.909823 
L 230.432923 143.909823 
z
" clip-path="url(#p868cbab179)" style="fill: #2ca02c; fill-opacity: 0.5; stroke: #2ca02c; stroke-linejoin: miter"/>
   </g>
   <g id="patch_134">
    <path d="M 236.094354 221.006154 
L 241.755785 221.006154 
L 241.755785 145.288882 
L 236.094354 145.288882 
z
" clip-path="url(#p868cbab179)" style="fill: #2ca02c; fill-opacity: 0.5; stroke: #2ca02c; stroke-linejoin: miter"/>
   </g>
   <g id="patch_135">
    <path d="M 241.755785 221.006154 
L 247.417215 221.006154 
L 247.417215 153.660811 
L 241.755785 153.660811 
z
" clip-path="url(#p868cbab179)" style="fill: #2ca02c; fill-opacity: 0.5; stroke: #2ca02c; stroke-linejoin: miter"/>
   </g>
   <g id="patch_136">
    <path d="M 247.417215 221.006154 
L 253.078646 221.006154 
L 253.078646 155.13187 
L 247.417215 155.13187 
z
" clip-path="url(#p868cbab179)" style="fill: #2ca02c; fill-opacity: 0.5; stroke: #2ca02c; stroke-linejoin: miter"/>
   </g>
   <g id="patch_137">
    <path d="M 253.078646 221.006154 
L 258.740077 221.006154 
L 258.740077 156.310641 
L 253.078646 156.310641 
z
" clip-path="url(#p868cbab179)" style="fill: #2ca02c; fill-opacity: 0.5; stroke: #2ca02c; stroke-linejoin: miter"/>
   </g>
   <g id="patch_138">
    <path d="M 258.740077 221.006154 
L 264.401508 221.006154 
L 264.401508 161.878992 
L 258.740077 161.878992 
z
" clip-path="url(#p868cbab179)" style="fill: #2ca02c; fill-opacity: 0.5; stroke: #2ca02c; stroke-linejoin: miter"/>
   </g>
   <g id="patch_139">
    <path d="M 264.401508 221.006154 
L 270.062938 221.006154 
L 270.062938 161.735073 
L 264.401508 161.735073 
z
" clip-path="url(#p868cbab179)" style="fill: #2ca02c; fill-opacity: 0.5; stroke: #2ca02c; stroke-linejoin: miter"/>
   </g>
   <g id="patch_140">
    <path d="M 270.062938 221.006154 
L 275.724369 221.006154 
L 275.724369 166.141288 
L 270.062938 166.141288 
z
" clip-path="url(#p868cbab179)" style="fill: #2ca02c; fill-opacity: 0.5; stroke: #2ca02c; stroke-linejoin: miter"/>
   </g>
   <g id="patch_141">
    <path d="M 275.724369 221.006154 
L 281.3858 221.006154 
L 281.3858 169.057177 
L 275.724369 169.057177 
z
" clip-path="url(#p868cbab179)" style="fill: #2ca02c; fill-opacity: 0.5; stroke: #2ca02c; stroke-linejoin: miter"/>
   </g>
   <g id="patch_142">
    <path d="M 281.3858 221.006154 
L 287.047231 221.006154 
L 287.047231 172.470459 
L 281.3858 172.470459 
z
" clip-path="url(#p868cbab179)" style="fill: #2ca02c; fill-opacity: 0.5; stroke: #2ca02c; stroke-linejoin: miter"/>
   </g>
   <g id="patch_143">
    <path d="M 287.047231 221.006154 
L 292.708662 221.006154 
L 292.708662 176.040472 
L 287.047231 176.040472 
z
" clip-path="url(#p868cbab179)" style="fill: #2ca02c; fill-opacity: 0.5; stroke: #2ca02c; stroke-linejoin: miter"/>
   </g>
   <g id="patch_144">
    <path d="M 292.708662 221.006154 
L 298.370092 221.006154 
L 298.370092 177.327787 
L 292.708662 177.327787 
z
" clip-path="url(#p868cbab179)" style="fill: #2ca02c; fill-opacity: 0.5; stroke: #2ca02c; stroke-linejoin: miter"/>
   </g>
   <g id="patch_145">
    <path d="M 298.370092 221.006154 
L 304.031523 221.006154 
L 304.031523 178.335591 
L 298.370092 178.335591 
z
" clip-path="url(#p868cbab179)" style="fill: #2ca02c; fill-opacity: 0.5; stroke: #2ca02c; stroke-linejoin: miter"/>
   </g>
   <g id="patch_146">
    <path d="M 304.031523 221.006154 
L 309.692954 221.006154 
L 309.692954 182.729938 
L 304.031523 182.729938 
z
" clip-path="url(#p868cbab179)" style="fill: #2ca02c; fill-opacity: 0.5; stroke: #2ca02c; stroke-linejoin: miter"/>
   </g>
   <g id="patch_147">
    <path d="M 309.692954 221.006154 
L 315.354385 221.006154 
L 315.354385 183.6788 
L 309.692954 183.6788 
z
" clip-path="url(#p868cbab179)" style="fill: #2ca02c; fill-opacity: 0.5; stroke: #2ca02c; stroke-linejoin: miter"/>
   </g>
   <g id="patch_148">
    <path d="M 315.354385 221.006154 
L 321.015815 221.006154 
L 321.015815 186.2112 
L 315.354385 186.2112 
z
" clip-path="url(#p868cbab179)" style="fill: #2ca02c; fill-opacity: 0.5; stroke: #2ca02c; stroke-linejoin: miter"/>
   </g>
   <g id="patch_149">
    <path d="M 321.015815 221.006154 
L 326.677246 221.006154 
L 326.677246 188.100326 
L 321.015815 188.100326 
z
" clip-path="url(#p868cbab179)" style="fill: #2ca02c; fill-opacity: 0.5; stroke: #2ca02c; stroke-linejoin: miter"/>
   </g>
   <g id="patch_150">
    <path d="M 326.677246 221.006154 
L 332.338677 221.006154 
L 332.338677 190.904435 
L 326.677246 190.904435 
z
" clip-path="url(#p868cbab179)" style="fill: #2ca02c; fill-opacity: 0.5; stroke: #2ca02c; stroke-linejoin: miter"/>
   </g>
   <g id="patch_151">
    <path d="M 332.338677 221.006154 
L 338.000108 221.006154 
L 338.000108 192.094285 
L 332.338677 192.094285 
z
" clip-path="url(#p868cbab179)" style="fill: #2ca02c; fill-opacity: 0.5; stroke: #2ca02c; stroke-linejoin: miter"/>
   </g>
   <g id="patch_152">
    <path d="M 338.000108 221.006154 
L 343.661538 221.006154 
L 343.661538 192.816884 
L 338.000108 192.816884 
z
" clip-path="url(#p868cbab179)" style="fill: #2ca02c; fill-opacity: 0.5; stroke: #2ca02c; stroke-linejoin: miter"/>
   </g>
   <g id="matplotlib.axis_1">
    <g id="xtick_1">
     <g id="line2d_1">
      <defs>
       <path id="m9c0e6e168a" d="M 0 0 
L 0 3.5 
" style="stroke: #000000; stroke-width: 0.8"/>
      </defs>
      <g>
       <use xlink:href="#m9c0e6e168a" x="64.999919" y="221.006154" style="stroke: #000000; stroke-width: 0.8"/>
      </g>
     </g>
     <g id="text_1">
      <!-- 0 -->
      <g transform="translate(61.818669 235.604591) scale(0.1 -0.1)">
       <defs>
        <path id="DejaVuSans-30" d="M 2034 4250 
Q 1547 4250 1301 3770 
Q 1056 3291 1056 2328 
Q 1056 1369 1301 889 
Q 1547 409 2034 409 
Q 2525 409 2770 889 
Q 3016 1369 3016 2328 
Q 3016 3291 2770 3770 
Q 2525 4250 2034 4250 
z
M 2034 4750 
Q 2819 4750 3233 4129 
Q 3647 3509 3647 2328 
Q 3647 1150 3233 529 
Q 2819 -91 2034 -91 
Q 1250 -91 836 529 
Q 422 1150 422 2328 
Q 422 3509 836 4129 
Q 1250 4750 2034 4750 
z
" transform="scale(0.015625)"/>
       </defs>
       <use xlink:href="#DejaVuSans-30"/>
      </g>
     </g>
    </g>
    <g id="xtick_2">
     <g id="line2d_2">
      <g>
       <use xlink:href="#m9c0e6e168a" x="108.655847" y="221.006154" style="stroke: #000000; stroke-width: 0.8"/>
      </g>
     </g>
     <g id="text_2">
      <!-- 50 -->
      <g transform="translate(102.293347 235.604591) scale(0.1 -0.1)">
       <defs>
        <path id="DejaVuSans-35" d="M 691 4666 
L 3169 4666 
L 3169 4134 
L 1269 4134 
L 1269 2991 
Q 1406 3038 1543 3061 
Q 1681 3084 1819 3084 
Q 2600 3084 3056 2656 
Q 3513 2228 3513 1497 
Q 3513 744 3044 326 
Q 2575 -91 1722 -91 
Q 1428 -91 1123 -41 
Q 819 9 494 109 
L 494 744 
Q 775 591 1075 516 
Q 1375 441 1709 441 
Q 2250 441 2565 725 
Q 2881 1009 2881 1497 
Q 2881 1984 2565 2268 
Q 2250 2553 1709 2553 
Q 1456 2553 1204 2497 
Q 953 2441 691 2322 
L 691 4666 
z
" transform="scale(0.015625)"/>
       </defs>
       <use xlink:href="#DejaVuSans-35"/>
       <use xlink:href="#DejaVuSans-30" x="63.623047"/>
      </g>
     </g>
    </g>
    <g id="xtick_3">
     <g id="line2d_3">
      <g>
       <use xlink:href="#m9c0e6e168a" x="152.311775" y="221.006154" style="stroke: #000000; stroke-width: 0.8"/>
      </g>
     </g>
     <g id="text_3">
      <!-- 100 -->
      <g transform="translate(142.768025 235.604591) scale(0.1 -0.1)">
       <defs>
        <path id="DejaVuSans-31" d="M 794 531 
L 1825 531 
L 1825 4091 
L 703 3866 
L 703 4441 
L 1819 4666 
L 2450 4666 
L 2450 531 
L 3481 531 
L 3481 0 
L 794 0 
L 794 531 
z
" transform="scale(0.015625)"/>
       </defs>
       <use xlink:href="#DejaVuSans-31"/>
       <use xlink:href="#DejaVuSans-30" x="63.623047"/>
       <use xlink:href="#DejaVuSans-30" x="127.246094"/>
      </g>
     </g>
    </g>
    <g id="xtick_4">
     <g id="line2d_4">
      <g>
       <use xlink:href="#m9c0e6e168a" x="195.967702" y="221.006154" style="stroke: #000000; stroke-width: 0.8"/>
      </g>
     </g>
     <g id="text_4">
      <!-- 150 -->
      <g transform="translate(186.423952 235.604591) scale(0.1 -0.1)">
       <use xlink:href="#DejaVuSans-31"/>
       <use xlink:href="#DejaVuSans-35" x="63.623047"/>
       <use xlink:href="#DejaVuSans-30" x="127.246094"/>
      </g>
     </g>
    </g>
    <g id="xtick_5">
     <g id="line2d_5">
      <g>
       <use xlink:href="#m9c0e6e168a" x="239.62363" y="221.006154" style="stroke: #000000; stroke-width: 0.8"/>
      </g>
     </g>
     <g id="text_5">
      <!-- 200 -->
      <g transform="translate(230.07988 235.604591) scale(0.1 -0.1)">
       <defs>
        <path id="DejaVuSans-32" d="M 1228 531 
L 3431 531 
L 3431 0 
L 469 0 
L 469 531 
Q 828 903 1448 1529 
Q 2069 2156 2228 2338 
Q 2531 2678 2651 2914 
Q 2772 3150 2772 3378 
Q 2772 3750 2511 3984 
Q 2250 4219 1831 4219 
Q 1534 4219 1204 4116 
Q 875 4013 500 3803 
L 500 4441 
Q 881 4594 1212 4672 
Q 1544 4750 1819 4750 
Q 2544 4750 2975 4387 
Q 3406 4025 3406 3419 
Q 3406 3131 3298 2873 
Q 3191 2616 2906 2266 
Q 2828 2175 2409 1742 
Q 1991 1309 1228 531 
z
" transform="scale(0.015625)"/>
       </defs>
       <use xlink:href="#DejaVuSans-32"/>
       <use xlink:href="#DejaVuSans-30" x="63.623047"/>
       <use xlink:href="#DejaVuSans-30" x="127.246094"/>
      </g>
     </g>
    </g>
    <g id="xtick_6">
     <g id="line2d_6">
      <g>
       <use xlink:href="#m9c0e6e168a" x="283.279558" y="221.006154" style="stroke: #000000; stroke-width: 0.8"/>
      </g>
     </g>
     <g id="text_6">
      <!-- 250 -->
      <g transform="translate(273.735808 235.604591) scale(0.1 -0.1)">
       <use xlink:href="#DejaVuSans-32"/>
       <use xlink:href="#DejaVuSans-35" x="63.623047"/>
       <use xlink:href="#DejaVuSans-30" x="127.246094"/>
      </g>
     </g>
    </g>
    <g id="xtick_7">
     <g id="line2d_7">
      <g>
       <use xlink:href="#m9c0e6e168a" x="326.935486" y="221.006154" style="stroke: #000000; stroke-width: 0.8"/>
      </g>
     </g>
     <g id="text_7">
      <!-- 300 -->
      <g transform="translate(317.391736 235.604591) scale(0.1 -0.1)">
       <defs>
        <path id="DejaVuSans-33" d="M 2597 2516 
Q 3050 2419 3304 2112 
Q 3559 1806 3559 1356 
Q 3559 666 3084 287 
Q 2609 -91 1734 -91 
Q 1441 -91 1130 -33 
Q 819 25 488 141 
L 488 750 
Q 750 597 1062 519 
Q 1375 441 1716 441 
Q 2309 441 2620 675 
Q 2931 909 2931 1356 
Q 2931 1769 2642 2001 
Q 2353 2234 1838 2234 
L 1294 2234 
L 1294 2753 
L 1863 2753 
Q 2328 2753 2575 2939 
Q 2822 3125 2822 3475 
Q 2822 3834 2567 4026 
Q 2313 4219 1838 4219 
Q 1578 4219 1281 4162 
Q 984 4106 628 3988 
L 628 4550 
Q 988 4650 1302 4700 
Q 1616 4750 1894 4750 
Q 2613 4750 3031 4423 
Q 3450 4097 3450 3541 
Q 3450 3153 3228 2886 
Q 3006 2619 2597 2516 
z
" transform="scale(0.015625)"/>
       </defs>
       <use xlink:href="#DejaVuSans-33"/>
       <use xlink:href="#DejaVuSans-30" x="63.623047"/>
       <use xlink:href="#DejaVuSans-30" x="127.246094"/>
      </g>
     </g>
    </g>
    <g id="text_8">
     <!-- Top quark $p_{\mathrm{T}}$ (GeV) -->
     <g transform="translate(153.975769 249.284279) scale(0.1 -0.1)">
      <defs>
       <path id="DejaVuSans-54" d="M -19 4666 
L 3928 4666 
L 3928 4134 
L 2272 4134 
L 2272 0 
L 1638 0 
L 1638 4134 
L -19 4134 
L -19 4666 
z
" transform="scale(0.015625)"/>
       <path id="DejaVuSans-6f" d="M 1959 3097 
Q 1497 3097 1228 2736 
Q 959 2375 959 1747 
Q 959 1119 1226 758 
Q 1494 397 1959 397 
Q 2419 397 2687 759 
Q 2956 1122 2956 1747 
Q 2956 2369 2687 2733 
Q 2419 3097 1959 3097 
z
M 1959 3584 
Q 2709 3584 3137 3096 
Q 3566 2609 3566 1747 
Q 3566 888 3137 398 
Q 2709 -91 1959 -91 
Q 1206 -91 779 398 
Q 353 888 353 1747 
Q 353 2609 779 3096 
Q 1206 3584 1959 3584 
z
" transform="scale(0.015625)"/>
       <path id="DejaVuSans-70" d="M 1159 525 
L 1159 -1331 
L 581 -1331 
L 581 3500 
L 1159 3500 
L 1159 2969 
Q 1341 3281 1617 3432 
Q 1894 3584 2278 3584 
Q 2916 3584 3314 3078 
Q 3713 2572 3713 1747 
Q 3713 922 3314 415 
Q 2916 -91 2278 -91 
Q 1894 -91 1617 61 
Q 1341 213 1159 525 
z
M 3116 1747 
Q 3116 2381 2855 2742 
Q 2594 3103 2138 3103 
Q 1681 3103 1420 2742 
Q 1159 2381 1159 1747 
Q 1159 1113 1420 752 
Q 1681 391 2138 391 
Q 2594 391 2855 752 
Q 3116 1113 3116 1747 
z
" transform="scale(0.015625)"/>
       <path id="DejaVuSans-20" transform="scale(0.015625)"/>
       <path id="DejaVuSans-71" d="M 947 1747 
Q 947 1113 1208 752 
Q 1469 391 1925 391 
Q 2381 391 2643 752 
Q 2906 1113 2906 1747 
Q 2906 2381 2643 2742 
Q 2381 3103 1925 3103 
Q 1469 3103 1208 2742 
Q 947 2381 947 1747 
z
M 2906 525 
Q 2725 213 2448 61 
Q 2172 -91 1784 -91 
Q 1150 -91 751 415 
Q 353 922 353 1747 
Q 353 2572 751 3078 
Q 1150 3584 1784 3584 
Q 2172 3584 2448 3432 
Q 2725 3281 2906 2969 
L 2906 3500 
L 3481 3500 
L 3481 -1331 
L 2906 -1331 
L 2906 525 
z
" transform="scale(0.015625)"/>
       <path id="DejaVuSans-75" d="M 544 1381 
L 544 3500 
L 1119 3500 
L 1119 1403 
Q 1119 906 1312 657 
Q 1506 409 1894 409 
Q 2359 409 2629 706 
Q 2900 1003 2900 1516 
L 2900 3500 
L 3475 3500 
L 3475 0 
L 2900 0 
L 2900 538 
Q 2691 219 2414 64 
Q 2138 -91 1772 -91 
Q 1169 -91 856 284 
Q 544 659 544 1381 
z
M 1991 3584 
L 1991 3584 
z
" transform="scale(0.015625)"/>
       <path id="DejaVuSans-61" d="M 2194 1759 
Q 1497 1759 1228 1600 
Q 959 1441 959 1056 
Q 959 750 1161 570 
Q 1363 391 1709 391 
Q 2188 391 2477 730 
Q 2766 1069 2766 1631 
L 2766 1759 
L 2194 1759 
z
M 3341 1997 
L 3341 0 
L 2766 0 
L 2766 531 
Q 2569 213 2275 61 
Q 1981 -91 1556 -91 
Q 1019 -91 701 211 
Q 384 513 384 1019 
Q 384 1609 779 1909 
Q 1175 2209 1959 2209 
L 2766 2209 
L 2766 2266 
Q 2766 2663 2505 2880 
Q 2244 3097 1772 3097 
Q 1472 3097 1187 3025 
Q 903 2953 641 2809 
L 641 3341 
Q 956 3463 1253 3523 
Q 1550 3584 1831 3584 
Q 2591 3584 2966 3190 
Q 3341 2797 3341 1997 
z
" transform="scale(0.015625)"/>
       <path id="DejaVuSans-72" d="M 2631 2963 
Q 2534 3019 2420 3045 
Q 2306 3072 2169 3072 
Q 1681 3072 1420 2755 
Q 1159 2438 1159 1844 
L 1159 0 
L 581 0 
L 581 3500 
L 1159 3500 
L 1159 2956 
Q 1341 3275 1631 3429 
Q 1922 3584 2338 3584 
Q 2397 3584 2469 3576 
Q 2541 3569 2628 3553 
L 2631 2963 
z
" transform="scale(0.015625)"/>
       <path id="DejaVuSans-6b" d="M 581 4863 
L 1159 4863 
L 1159 1991 
L 2875 3500 
L 3609 3500 
L 1753 1863 
L 3688 0 
L 2938 0 
L 1159 1709 
L 1159 0 
L 581 0 
L 581 4863 
z
" transform="scale(0.015625)"/>
       <path id="DejaVuSans-Oblique-70" d="M 3175 2156 
Q 3175 2616 2975 2859 
Q 2775 3103 2400 3103 
Q 2144 3103 1911 2972 
Q 1678 2841 1497 2591 
Q 1319 2344 1212 1994 
Q 1106 1644 1106 1300 
Q 1106 863 1306 627 
Q 1506 391 1875 391 
Q 2147 391 2380 519 
Q 2613 647 2778 891 
Q 2956 1147 3065 1494 
Q 3175 1841 3175 2156 
z
M 1394 2969 
Q 1625 3272 1939 3428 
Q 2253 3584 2638 3584 
Q 3175 3584 3472 3232 
Q 3769 2881 3769 2247 
Q 3769 1728 3584 1258 
Q 3400 788 3053 416 
Q 2822 169 2531 39 
Q 2241 -91 1919 -91 
Q 1547 -91 1294 64 
Q 1041 219 916 525 
L 556 -1331 
L -19 -1331 
L 922 3500 
L 1497 3500 
L 1394 2969 
z
" transform="scale(0.015625)"/>
       <path id="DejaVuSans-28" d="M 1984 4856 
Q 1566 4138 1362 3434 
Q 1159 2731 1159 2009 
Q 1159 1288 1364 580 
Q 1569 -128 1984 -844 
L 1484 -844 
Q 1016 -109 783 600 
Q 550 1309 550 2009 
Q 550 2706 781 3412 
Q 1013 4119 1484 4856 
L 1984 4856 
z
" transform="scale(0.015625)"/>
       <path id="DejaVuSans-47" d="M 3809 666 
L 3809 1919 
L 2778 1919 
L 2778 2438 
L 4434 2438 
L 4434 434 
Q 4069 175 3628 42 
Q 3188 -91 2688 -91 
Q 1594 -91 976 548 
Q 359 1188 359 2328 
Q 359 3472 976 4111 
Q 1594 4750 2688 4750 
Q 3144 4750 3555 4637 
Q 3966 4525 4313 4306 
L 4313 3634 
Q 3963 3931 3569 4081 
Q 3175 4231 2741 4231 
Q 1884 4231 1454 3753 
Q 1025 3275 1025 2328 
Q 1025 1384 1454 906 
Q 1884 428 2741 428 
Q 3075 428 3337 486 
Q 3600 544 3809 666 
z
" transform="scale(0.015625)"/>
       <path id="DejaVuSans-65" d="M 3597 1894 
L 3597 1613 
L 953 1613 
Q 991 1019 1311 708 
Q 1631 397 2203 397 
Q 2534 397 2845 478 
Q 3156 559 3463 722 
L 3463 178 
Q 3153 47 2828 -22 
Q 2503 -91 2169 -91 
Q 1331 -91 842 396 
Q 353 884 353 1716 
Q 353 2575 817 3079 
Q 1281 3584 2069 3584 
Q 2775 3584 3186 3129 
Q 3597 2675 3597 1894 
z
M 3022 2063 
Q 3016 2534 2758 2815 
Q 2500 3097 2075 3097 
Q 1594 3097 1305 2825 
Q 1016 2553 972 2059 
L 3022 2063 
z
" transform="scale(0.015625)"/>
       <path id="DejaVuSans-56" d="M 1831 0 
L 50 4666 
L 709 4666 
L 2188 738 
L 3669 4666 
L 4325 4666 
L 2547 0 
L 1831 0 
z
" transform="scale(0.015625)"/>
       <path id="DejaVuSans-29" d="M 513 4856 
L 1013 4856 
Q 1481 4119 1714 3412 
Q 1947 2706 1947 2009 
Q 1947 1309 1714 600 
Q 1481 -109 1013 -844 
L 513 -844 
Q 928 -128 1133 580 
Q 1338 1288 1338 2009 
Q 1338 2731 1133 3434 
Q 928 4138 513 4856 
z
" transform="scale(0.015625)"/>
      </defs>
      <use xlink:href="#DejaVuSans-54" transform="translate(0 0.015625)"/>
      <use xlink:href="#DejaVuSans-6f" transform="translate(61.083984 0.015625)"/>
      <use xlink:href="#DejaVuSans-70" transform="translate(122.265625 0.015625)"/>
      <use xlink:href="#DejaVuSans-20" transform="translate(185.742188 0.015625)"/>
      <use xlink:href="#DejaVuSans-71" transform="translate(217.529297 0.015625)"/>
      <use xlink:href="#DejaVuSans-75" transform="translate(281.005859 0.015625)"/>
      <use xlink:href="#DejaVuSans-61" transform="translate(344.384766 0.015625)"/>
      <use xlink:href="#DejaVuSans-72" transform="translate(405.664062 0.015625)"/>
      <use xlink:href="#DejaVuSans-6b" transform="translate(446.777344 0.015625)"/>
      <use xlink:href="#DejaVuSans-20" transform="translate(504.6875 0.015625)"/>
      <use xlink:href="#DejaVuSans-Oblique-70" transform="translate(536.474609 0.015625)"/>
      <use xlink:href="#DejaVuSans-54" transform="translate(599.951172 -16.390625) scale(0.7)"/>
      <use xlink:href="#DejaVuSans-20" transform="translate(645.444336 0.015625)"/>
      <use xlink:href="#DejaVuSans-28" transform="translate(677.231445 0.015625)"/>
      <use xlink:href="#DejaVuSans-47" transform="translate(716.245117 0.015625)"/>
      <use xlink:href="#DejaVuSans-65" transform="translate(793.735352 0.015625)"/>
      <use xlink:href="#DejaVuSans-56" transform="translate(855.258789 0.015625)"/>
      <use xlink:href="#DejaVuSans-29" transform="translate(923.666992 0.015625)"/>
     </g>
    </g>
   </g>
   <g id="matplotlib.axis_2">
    <g id="ytick_1">
     <g id="line2d_8">
      <defs>
       <path id="maa8fa8c71a" d="M 0 0 
L -3.5 0 
" style="stroke: #000000; stroke-width: 0.8"/>
      </defs>
      <g>
       <use xlink:href="#maa8fa8c71a" x="60.59" y="221.006154" style="stroke: #000000; stroke-width: 0.8"/>
      </g>
     </g>
     <g id="text_9">
      <!-- 0.000 -->
      <g transform="translate(24.961875 224.805373) scale(0.1 -0.1)">
       <defs>
        <path id="DejaVuSans-2e" d="M 684 794 
L 1344 794 
L 1344 0 
L 684 0 
L 684 794 
z
" transform="scale(0.015625)"/>
       </defs>
       <use xlink:href="#DejaVuSans-30"/>
       <use xlink:href="#DejaVuSans-2e" x="63.623047"/>
       <use xlink:href="#DejaVuSans-30" x="95.410156"/>
       <use xlink:href="#DejaVuSans-30" x="159.033203"/>
       <use xlink:href="#DejaVuSans-30" x="222.65625"/>
      </g>
     </g>
    </g>
    <g id="ytick_2">
     <g id="line2d_9">
      <g>
       <use xlink:href="#maa8fa8c71a" x="60.59" y="192.437406" style="stroke: #000000; stroke-width: 0.8"/>
      </g>
     </g>
     <g id="text_10">
      <!-- 0.002 -->
      <g transform="translate(24.961875 196.236625) scale(0.1 -0.1)">
       <use xlink:href="#DejaVuSans-30"/>
       <use xlink:href="#DejaVuSans-2e" x="63.623047"/>
       <use xlink:href="#DejaVuSans-30" x="95.410156"/>
       <use xlink:href="#DejaVuSans-30" x="159.033203"/>
       <use xlink:href="#DejaVuSans-32" x="222.65625"/>
      </g>
     </g>
    </g>
    <g id="ytick_3">
     <g id="line2d_10">
      <g>
       <use xlink:href="#maa8fa8c71a" x="60.59" y="163.868659" style="stroke: #000000; stroke-width: 0.8"/>
      </g>
     </g>
     <g id="text_11">
      <!-- 0.004 -->
      <g transform="translate(24.961875 167.667877) scale(0.1 -0.1)">
       <defs>
        <path id="DejaVuSans-34" d="M 2419 4116 
L 825 1625 
L 2419 1625 
L 2419 4116 
z
M 2253 4666 
L 3047 4666 
L 3047 1625 
L 3713 1625 
L 3713 1100 
L 3047 1100 
L 3047 0 
L 2419 0 
L 2419 1100 
L 313 1100 
L 313 1709 
L 2253 4666 
z
" transform="scale(0.015625)"/>
       </defs>
       <use xlink:href="#DejaVuSans-30"/>
       <use xlink:href="#DejaVuSans-2e" x="63.623047"/>
       <use xlink:href="#DejaVuSans-30" x="95.410156"/>
       <use xlink:href="#DejaVuSans-30" x="159.033203"/>
       <use xlink:href="#DejaVuSans-34" x="222.65625"/>
      </g>
     </g>
    </g>
    <g id="ytick_4">
     <g id="line2d_11">
      <g>
       <use xlink:href="#maa8fa8c71a" x="60.59" y="135.299911" style="stroke: #000000; stroke-width: 0.8"/>
      </g>
     </g>
     <g id="text_12">
      <!-- 0.006 -->
      <g transform="translate(24.961875 139.09913) scale(0.1 -0.1)">
       <defs>
        <path id="DejaVuSans-36" d="M 2113 2584 
Q 1688 2584 1439 2293 
Q 1191 2003 1191 1497 
Q 1191 994 1439 701 
Q 1688 409 2113 409 
Q 2538 409 2786 701 
Q 3034 994 3034 1497 
Q 3034 2003 2786 2293 
Q 2538 2584 2113 2584 
z
M 3366 4563 
L 3366 3988 
Q 3128 4100 2886 4159 
Q 2644 4219 2406 4219 
Q 1781 4219 1451 3797 
Q 1122 3375 1075 2522 
Q 1259 2794 1537 2939 
Q 1816 3084 2150 3084 
Q 2853 3084 3261 2657 
Q 3669 2231 3669 1497 
Q 3669 778 3244 343 
Q 2819 -91 2113 -91 
Q 1303 -91 875 529 
Q 447 1150 447 2328 
Q 447 3434 972 4092 
Q 1497 4750 2381 4750 
Q 2619 4750 2861 4703 
Q 3103 4656 3366 4563 
z
" transform="scale(0.015625)"/>
       </defs>
       <use xlink:href="#DejaVuSans-30"/>
       <use xlink:href="#DejaVuSans-2e" x="63.623047"/>
       <use xlink:href="#DejaVuSans-30" x="95.410156"/>
       <use xlink:href="#DejaVuSans-30" x="159.033203"/>
       <use xlink:href="#DejaVuSans-36" x="222.65625"/>
      </g>
     </g>
    </g>
    <g id="ytick_5">
     <g id="line2d_12">
      <g>
       <use xlink:href="#maa8fa8c71a" x="60.59" y="106.731163" style="stroke: #000000; stroke-width: 0.8"/>
      </g>
     </g>
     <g id="text_13">
      <!-- 0.008 -->
      <g transform="translate(24.961875 110.530382) scale(0.1 -0.1)">
       <defs>
        <path id="DejaVuSans-38" d="M 2034 2216 
Q 1584 2216 1326 1975 
Q 1069 1734 1069 1313 
Q 1069 891 1326 650 
Q 1584 409 2034 409 
Q 2484 409 2743 651 
Q 3003 894 3003 1313 
Q 3003 1734 2745 1975 
Q 2488 2216 2034 2216 
z
M 1403 2484 
Q 997 2584 770 2862 
Q 544 3141 544 3541 
Q 544 4100 942 4425 
Q 1341 4750 2034 4750 
Q 2731 4750 3128 4425 
Q 3525 4100 3525 3541 
Q 3525 3141 3298 2862 
Q 3072 2584 2669 2484 
Q 3125 2378 3379 2068 
Q 3634 1759 3634 1313 
Q 3634 634 3220 271 
Q 2806 -91 2034 -91 
Q 1263 -91 848 271 
Q 434 634 434 1313 
Q 434 1759 690 2068 
Q 947 2378 1403 2484 
z
M 1172 3481 
Q 1172 3119 1398 2916 
Q 1625 2713 2034 2713 
Q 2441 2713 2670 2916 
Q 2900 3119 2900 3481 
Q 2900 3844 2670 4047 
Q 2441 4250 2034 4250 
Q 1625 4250 1398 4047 
Q 1172 3844 1172 3481 
z
" transform="scale(0.015625)"/>
       </defs>
       <use xlink:href="#DejaVuSans-30"/>
       <use xlink:href="#DejaVuSans-2e" x="63.623047"/>
       <use xlink:href="#DejaVuSans-30" x="95.410156"/>
       <use xlink:href="#DejaVuSans-30" x="159.033203"/>
       <use xlink:href="#DejaVuSans-38" x="222.65625"/>
      </g>
     </g>
    </g>
    <g id="ytick_6">
     <g id="line2d_13">
      <g>
       <use xlink:href="#maa8fa8c71a" x="60.59" y="78.162416" style="stroke: #000000; stroke-width: 0.8"/>
      </g>
     </g>
     <g id="text_14">
      <!-- 0.010 -->
      <g transform="translate(24.961875 81.961634) scale(0.1 -0.1)">
       <use xlink:href="#DejaVuSans-30"/>
       <use xlink:href="#DejaVuSans-2e" x="63.623047"/>
       <use xlink:href="#DejaVuSans-30" x="95.410156"/>
       <use xlink:href="#DejaVuSans-31" x="159.033203"/>
       <use xlink:href="#DejaVuSans-30" x="222.65625"/>
      </g>
     </g>
    </g>
    <g id="ytick_7">
     <g id="line2d_14">
      <g>
       <use xlink:href="#maa8fa8c71a" x="60.59" y="49.593668" style="stroke: #000000; stroke-width: 0.8"/>
      </g>
     </g>
     <g id="text_15">
      <!-- 0.012 -->
      <g transform="translate(24.961875 53.392887) scale(0.1 -0.1)">
       <use xlink:href="#DejaVuSans-30"/>
       <use xlink:href="#DejaVuSans-2e" x="63.623047"/>
       <use xlink:href="#DejaVuSans-30" x="95.410156"/>
       <use xlink:href="#DejaVuSans-31" x="159.033203"/>
       <use xlink:href="#DejaVuSans-32" x="222.65625"/>
      </g>
     </g>
    </g>
    <g id="text_16">
     <!-- Events / bin -->
     <g transform="translate(18.882187 153.346514) rotate(-90) scale(0.1 -0.1)">
      <defs>
       <path id="DejaVuSans-45" d="M 628 4666 
L 3578 4666 
L 3578 4134 
L 1259 4134 
L 1259 2753 
L 3481 2753 
L 3481 2222 
L 1259 2222 
L 1259 531 
L 3634 531 
L 3634 0 
L 628 0 
L 628 4666 
z
" transform="scale(0.015625)"/>
       <path id="DejaVuSans-76" d="M 191 3500 
L 800 3500 
L 1894 563 
L 2988 3500 
L 3597 3500 
L 2284 0 
L 1503 0 
L 191 3500 
z
" transform="scale(0.015625)"/>
       <path id="DejaVuSans-6e" d="M 3513 2113 
L 3513 0 
L 2938 0 
L 2938 2094 
Q 2938 2591 2744 2837 
Q 2550 3084 2163 3084 
Q 1697 3084 1428 2787 
Q 1159 2491 1159 1978 
L 1159 0 
L 581 0 
L 581 3500 
L 1159 3500 
L 1159 2956 
Q 1366 3272 1645 3428 
Q 1925 3584 2291 3584 
Q 2894 3584 3203 3211 
Q 3513 2838 3513 2113 
z
" transform="scale(0.015625)"/>
       <path id="DejaVuSans-74" d="M 1172 4494 
L 1172 3500 
L 2356 3500 
L 2356 3053 
L 1172 3053 
L 1172 1153 
Q 1172 725 1289 603 
Q 1406 481 1766 481 
L 2356 481 
L 2356 0 
L 1766 0 
Q 1100 0 847 248 
Q 594 497 594 1153 
L 594 3053 
L 172 3053 
L 172 3500 
L 594 3500 
L 594 4494 
L 1172 4494 
z
" transform="scale(0.015625)"/>
       <path id="DejaVuSans-73" d="M 2834 3397 
L 2834 2853 
Q 2591 2978 2328 3040 
Q 2066 3103 1784 3103 
Q 1356 3103 1142 2972 
Q 928 2841 928 2578 
Q 928 2378 1081 2264 
Q 1234 2150 1697 2047 
L 1894 2003 
Q 2506 1872 2764 1633 
Q 3022 1394 3022 966 
Q 3022 478 2636 193 
Q 2250 -91 1575 -91 
Q 1294 -91 989 -36 
Q 684 19 347 128 
L 347 722 
Q 666 556 975 473 
Q 1284 391 1588 391 
Q 1994 391 2212 530 
Q 2431 669 2431 922 
Q 2431 1156 2273 1281 
Q 2116 1406 1581 1522 
L 1381 1569 
Q 847 1681 609 1914 
Q 372 2147 372 2553 
Q 372 3047 722 3315 
Q 1072 3584 1716 3584 
Q 2034 3584 2315 3537 
Q 2597 3491 2834 3397 
z
" transform="scale(0.015625)"/>
       <path id="DejaVuSans-2f" d="M 1625 4666 
L 2156 4666 
L 531 -594 
L 0 -594 
L 1625 4666 
z
" transform="scale(0.015625)"/>
       <path id="DejaVuSans-62" d="M 3116 1747 
Q 3116 2381 2855 2742 
Q 2594 3103 2138 3103 
Q 1681 3103 1420 2742 
Q 1159 2381 1159 1747 
Q 1159 1113 1420 752 
Q 1681 391 2138 391 
Q 2594 391 2855 752 
Q 3116 1113 3116 1747 
z
M 1159 2969 
Q 1341 3281 1617 3432 
Q 1894 3584 2278 3584 
Q 2916 3584 3314 3078 
Q 3713 2572 3713 1747 
Q 3713 922 3314 415 
Q 2916 -91 2278 -91 
Q 1894 -91 1617 61 
Q 1341 213 1159 525 
L 1159 0 
L 581 0 
L 581 4863 
L 1159 4863 
L 1159 2969 
z
" transform="scale(0.015625)"/>
       <path id="DejaVuSans-69" d="M 603 3500 
L 1178 3500 
L 1178 0 
L 603 0 
L 603 3500 
z
M 603 4863 
L 1178 4863 
L 1178 4134 
L 603 4134 
L 603 4863 
z
" transform="scale(0.015625)"/>
      </defs>
      <use xlink:href="#DejaVuSans-45"/>
      <use xlink:href="#DejaVuSans-76" x="63.183594"/>
      <use xlink:href="#DejaVuSans-65" x="122.363281"/>
      <use xlink:href="#DejaVuSans-6e" x="183.886719"/>
      <use xlink:href="#DejaVuSans-74" x="247.265625"/>
      <use xlink:href="#DejaVuSans-73" x="286.474609"/>
      <use xlink:href="#DejaVuSans-20" x="338.574219"/>
      <use xlink:href="#DejaVuSans-2f" x="370.361328"/>
      <use xlink:href="#DejaVuSans-20" x="404.052734"/>
      <use xlink:href="#DejaVuSans-62" x="435.839844"/>
      <use xlink:href="#DejaVuSans-69" x="499.316406"/>
      <use xlink:href="#DejaVuSans-6e" x="527.099609"/>
     </g>
    </g>
   </g>
   <g id="patch_153">
    <path d="M 60.59 221.006154 
L 60.59 26.64 
" style="fill: none; stroke: #000000; stroke-width: 0.8; stroke-linejoin: miter; stroke-linecap: square"/>
   </g>
   <g id="patch_154">
    <path d="M 343.661538 221.006154 
L 343.661538 26.64 
" style="fill: none; stroke: #000000; stroke-width: 0.8; stroke-linejoin: miter; stroke-linecap: square"/>
   </g>
   <g id="patch_155">
    <path d="M 60.59 221.006154 
L 343.661538 221.006154 
" style="fill: none; stroke: #000000; stroke-width: 0.8; stroke-linejoin: miter; stroke-linecap: square"/>
   </g>
   <g id="patch_156">
    <path d="M 60.59 26.64 
L 343.661538 26.64 
" style="fill: none; stroke: #000000; stroke-width: 0.8; stroke-linejoin: miter; stroke-linecap: square"/>
   </g>
   <g id="text_17">
    <!-- CMS -->
    <g transform="translate(60.59 22.956328) scale(0.169 -0.169)">
     <defs>
      <path id="TeXGyreHeros-Bold-43" d="M 4384 1594 
L 3450 1594 
C 3392 998 3014 730 2419 730 
C 1677 730 1242 1299 1242 2317 
C 1242 3347 1696 3923 2451 3923 
C 2970 3923 3309 3686 3450 3085 
L 4365 3085 
C 4282 4160 3469 4742 2419 4742 
C 1101 4742 282 3840 282 2330 
C 282 832 1094 -77 2394 -77 
C 3552 -77 4326 525 4384 1594 
z
" transform="scale(0.015625)"/>
      <path id="TeXGyreHeros-Bold-4d" d="M 4966 0 
L 4966 4666 
L 3520 4666 
L 2701 954 
L 1856 4666 
L 422 4666 
L 422 0 
L 1382 0 
L 1382 3635 
L 2221 0 
L 3181 0 
L 4006 3635 
L 4006 0 
L 4966 0 
z
" transform="scale(0.015625)"/>
      <path id="TeXGyreHeros-Bold-53" d="M 4051 1402 
C 4051 2138 3680 2483 2816 2650 
L 2086 2790 
C 1402 2925 1203 3059 1203 3398 
C 1203 3750 1517 3974 2010 3974 
C 2618 3974 2989 3718 2989 3245 
L 3885 3245 
C 3885 4230 3194 4742 2054 4742 
C 934 4742 288 4218 288 3309 
C 288 2579 653 2240 1600 2054 
L 2253 1926 
C 2893 1798 3130 1664 3130 1286 
C 3130 896 2771 691 2189 691 
C 1536 691 1139 966 1139 1466 
L 205 1466 
C 205 467 947 -77 2138 -77 
C 3341 -77 4051 454 4051 1402 
z
" transform="scale(0.015625)"/>
     </defs>
     <use xlink:href="#TeXGyreHeros-Bold-43"/>
     <use xlink:href="#TeXGyreHeros-Bold-4d" x="72.199982"/>
     <use xlink:href="#TeXGyreHeros-Bold-53" x="155.499969"/>
    </g>
   </g>
   <g id="text_18">
    <!-- Private work (CMS simulation) -->
    <g transform="translate(99.902 22.899575) scale(0.13 -0.13)">
     <defs>
      <path id="TeXGyreHeros-Italic-50" d="M 4371 3635 
C 4371 4314 3968 4666 3187 4666 
L 1254 4666 
L 262 0 
L 864 0 
L 1286 1978 
L 2746 1978 
C 3712 1978 4371 2771 4371 3635 
z
M 3757 3520 
C 3757 2957 3302 2502 2637 2502 
L 1395 2502 
L 1747 4141 
L 2989 4141 
C 3488 4141 3757 3923 3757 3520 
z
" transform="scale(0.015625)"/>
      <path id="TeXGyreHeros-Italic-72" d="M 2355 2886 
L 2470 3430 
C 2387 3443 2336 3450 2266 3450 
C 1894 3450 1606 3283 1210 2829 
L 1318 3354 
L 832 3354 
L 122 0 
L 659 0 
L 1030 1741 
C 1190 2496 1626 2886 2291 2886 
L 2355 2886 
z
" transform="scale(0.015625)"/>
      <path id="TeXGyreHeros-Italic-69" d="M 659 0 
L 1370 3354 
L 832 3354 
L 122 0 
L 659 0 
z
M 1677 4525 
L 1011 4525 
L 870 3866 
L 1536 3866 
L 1677 4525 
z
" transform="scale(0.015625)"/>
      <path id="TeXGyreHeros-Italic-76" d="M 3507 3354 
L 2925 3354 
L 1363 653 
L 1050 3354 
L 461 3354 
L 934 0 
L 1517 0 
L 3507 3354 
z
" transform="scale(0.015625)"/>
      <path id="TeXGyreHeros-Italic-61" d="M 3149 0 
L 3232 416 
C 3174 403 3149 403 3123 403 
C 2957 403 2880 461 2880 589 
C 2880 614 2880 634 2886 653 
L 3277 2490 
C 3315 2662 3315 2662 3315 2726 
C 3315 3162 2874 3450 2202 3450 
C 1312 3450 768 3072 646 2362 
L 1184 2362 
C 1312 2771 1587 2957 2061 2957 
C 2445 2957 2739 2784 2739 2547 
C 2739 2522 2733 2477 2726 2426 
L 2707 2310 
C 2662 2048 2515 1971 2061 1933 
C 1203 1850 934 1792 621 1594 
C 288 1382 102 1069 102 698 
C 102 186 454 -96 1030 -96 
C 1446 -96 1818 -38 2310 371 
L 2304 275 
C 2304 13 2502 -58 2810 -58 
C 2899 -58 2893 -45 3149 0 
z
M 2566 1651 
L 2451 1101 
C 2368 704 1805 365 1242 365 
C 877 365 666 493 666 762 
C 666 1165 954 1370 1632 1466 
C 2234 1549 2285 1555 2566 1651 
z
" transform="scale(0.015625)"/>
      <path id="TeXGyreHeros-Italic-74" d="M 1408 467 
C 1210 422 1178 416 1101 416 
C 960 416 870 486 870 589 
C 870 608 877 640 883 678 
L 1363 2925 
L 1933 2925 
L 2022 3354 
L 1453 3354 
L 1651 4275 
L 1114 4275 
L 915 3354 
L 461 3354 
L 371 2925 
L 826 2925 
L 339 659 
C 326 595 320 525 320 461 
C 320 147 538 -45 890 -45 
C 1018 -45 1216 -26 1306 0 
L 1408 467 
z
" transform="scale(0.015625)"/>
      <path id="TeXGyreHeros-Italic-65" d="M 3290 1523 
L 3302 1606 
C 3360 1914 3392 2182 3392 2355 
C 3392 2970 2861 3450 2170 3450 
C 1613 3450 1075 3187 755 2758 
C 454 2355 224 1651 224 1133 
C 224 467 717 -96 1498 -96 
C 2266 -96 2912 326 3110 1018 
L 2573 1018 
C 2355 627 2016 397 1587 397 
C 1082 397 787 685 787 1229 
C 781 1338 787 1402 819 1523 
L 3290 1523 
z
M 2816 1984 
L 934 1984 
C 1094 2547 1568 2957 2086 2957 
C 2541 2957 2829 2650 2829 2170 
C 2829 2106 2822 2061 2816 1984 
z
" transform="scale(0.015625)"/>
      <path id="TeXGyreHeros-Italic-20" transform="scale(0.015625)"/>
      <path id="TeXGyreHeros-Italic-77" d="M 4928 3354 
L 4346 3354 
L 3091 742 
L 3091 3354 
L 2349 3354 
L 1139 742 
L 1139 3354 
L 435 3354 
L 691 0 
L 1306 0 
L 2554 2675 
L 2554 0 
L 3238 0 
L 4928 3354 
z
" transform="scale(0.015625)"/>
      <path id="TeXGyreHeros-Italic-6f" d="M 3366 2253 
C 3366 2931 2906 3450 2138 3450 
C 934 3450 198 2342 198 1075 
C 198 365 698 -96 1414 -96 
C 2579 -96 3366 922 3366 2253 
z
M 2803 2131 
C 2803 1178 2266 397 1504 397 
C 1050 397 762 691 762 1203 
C 762 2131 1299 2957 2054 2957 
C 2528 2957 2803 2650 2803 2131 
z
" transform="scale(0.015625)"/>
      <path id="TeXGyreHeros-Italic-6b" d="M 2893 0 
L 1997 2195 
L 3418 3354 
L 2726 3354 
L 1005 1958 
L 1581 4666 
L 1043 4666 
L 51 0 
L 589 0 
L 864 1299 
L 1549 1862 
L 2278 0 
L 2893 0 
z
" transform="scale(0.015625)"/>
      <path id="TeXGyreHeros-Italic-28" d="M 1254 -1363 
C 1018 -749 902 -147 902 506 
C 902 1926 1459 3347 2534 4666 
L 2182 4666 
C 1069 3501 403 2042 403 742 
C 403 -19 589 -813 902 -1363 
L 1254 -1363 
z
" transform="scale(0.015625)"/>
      <path id="TeXGyreHeros-Italic-43" d="M 4384 1702 
L 3757 1702 
C 3354 787 2950 403 2125 403 
C 1459 403 1018 922 1018 1696 
C 1018 2278 1210 2925 1536 3411 
C 1926 3987 2394 4262 2982 4262 
C 3629 4262 3942 3910 3994 3219 
L 4608 3219 
C 4557 4262 3974 4781 3091 4781 
C 2342 4781 1722 4480 1222 3878 
C 717 3270 403 2381 403 1581 
C 403 563 1011 -115 2035 -115 
C 3162 -115 3840 410 4384 1702 
z
" transform="scale(0.015625)"/>
      <path id="TeXGyreHeros-Italic-4d" d="M 5542 4666 
L 4704 4666 
L 2490 653 
L 1978 4666 
L 1152 4666 
L 160 0 
L 730 0 
L 1555 3872 
L 2048 0 
L 2669 0 
L 4806 3872 
L 3981 0 
L 4550 0 
L 5542 4666 
z
" transform="scale(0.015625)"/>
      <path id="TeXGyreHeros-Italic-53" d="M 3968 1549 
C 3968 1978 3667 2349 3187 2490 
L 2086 2803 
C 1594 2944 1440 3072 1440 3354 
C 1440 3866 1952 4262 2694 4262 
C 3398 4262 3667 3994 3667 3565 
C 3667 3507 3661 3462 3642 3334 
L 4205 3334 
C 4243 3514 4256 3597 4256 3693 
C 4256 4339 3712 4781 2810 4781 
C 2150 4781 1632 4595 1286 4237 
C 1024 3968 826 3514 826 3187 
C 826 2784 1107 2445 1536 2323 
L 2630 2010 
C 3142 1862 3354 1670 3354 1370 
C 3354 838 2771 403 1901 403 
C 1178 403 845 672 845 1254 
C 845 1338 851 1395 870 1517 
L 314 1517 
C 269 1350 256 1248 256 1114 
C 256 346 832 -115 1798 -115 
C 2470 -115 3034 70 3411 422 
C 3738 723 3968 1190 3968 1549 
z
" transform="scale(0.015625)"/>
      <path id="TeXGyreHeros-Italic-73" d="M 2848 1158 
C 2848 1549 2637 1754 2074 1894 
L 1587 2016 
C 1229 2106 1043 2234 1043 2400 
C 1043 2726 1363 2957 1850 2957 
C 2227 2957 2438 2810 2438 2560 
C 2438 2515 2438 2470 2432 2419 
L 2970 2419 
C 3002 2554 3008 2611 3008 2694 
C 3008 3142 2579 3450 1958 3450 
C 1069 3450 480 2938 480 2259 
C 480 1869 704 1677 1363 1510 
L 1837 1389 
C 2240 1286 2285 1146 2285 1011 
C 2285 646 1862 397 1370 397 
C 928 397 678 570 678 890 
C 678 928 685 986 691 1050 
L 122 1050 
C 90 902 83 826 83 723 
C 83 211 531 -96 1274 -96 
C 2227 -96 2848 397 2848 1158 
z
" transform="scale(0.015625)"/>
      <path id="TeXGyreHeros-Italic-6d" d="M 4589 0 
L 5094 2387 
C 5114 2458 5133 2669 5133 2739 
C 5133 3072 4883 3450 4320 3450 
C 3904 3450 3539 3283 3162 2918 
C 3059 3277 2810 3450 2387 3450 
C 1952 3450 1658 3322 1248 2938 
L 1331 3354 
L 845 3354 
L 134 0 
L 672 0 
L 1120 2106 
C 1222 2592 1658 2989 2086 2989 
C 2400 2989 2611 2810 2611 2547 
C 2611 2477 2605 2394 2586 2310 
L 2093 0 
L 2630 0 
L 3078 2106 
C 3181 2605 3616 2989 4083 2989 
C 4384 2989 4570 2803 4570 2496 
C 4570 2400 4570 2400 4512 2182 
L 4051 0 
L 4589 0 
z
" transform="scale(0.015625)"/>
      <path id="TeXGyreHeros-Italic-75" d="M 2771 0 
L 3482 3354 
L 2944 3354 
L 2554 1504 
C 2406 813 1952 365 1408 365 
C 1062 365 838 557 838 858 
C 838 909 845 966 858 1030 
L 1350 3354 
L 813 3354 
L 275 819 
C 262 755 256 685 256 602 
C 256 166 589 -96 1139 -96 
C 1638 -96 2003 58 2368 390 
L 2285 0 
L 2771 0 
z
" transform="scale(0.015625)"/>
      <path id="TeXGyreHeros-Italic-6c" d="M 1645 4666 
L 1107 4666 
L 115 0 
L 653 0 
L 1645 4666 
z
" transform="scale(0.015625)"/>
      <path id="TeXGyreHeros-Italic-6e" d="M 3328 2406 
C 3347 2490 3354 2566 3354 2650 
C 3354 3136 3014 3450 2483 3450 
C 1997 3450 1574 3277 1242 2938 
L 1325 3354 
L 838 3354 
L 128 0 
L 666 0 
L 1056 1850 
C 1203 2554 1658 2989 2234 2989 
C 2554 2989 2790 2765 2790 2470 
C 2790 2432 2771 2336 2752 2234 
L 2278 0 
L 2816 0 
L 3328 2406 
z
" transform="scale(0.015625)"/>
      <path id="TeXGyreHeros-Italic-29" d="M 1760 2605 
C 1760 3328 1568 4134 1267 4666 
L 915 4666 
C 1158 4045 1267 3443 1267 2758 
C 1267 1376 698 -64 -365 -1363 
L -13 -1363 
C 1094 -205 1760 1274 1760 2605 
z
" transform="scale(0.015625)"/>
     </defs>
     <use xlink:href="#TeXGyreHeros-Italic-50"/>
     <use xlink:href="#TeXGyreHeros-Italic-72" x="66.699997"/>
     <use xlink:href="#TeXGyreHeros-Italic-69" x="99.999985"/>
     <use xlink:href="#TeXGyreHeros-Italic-76" x="122.199982"/>
     <use xlink:href="#TeXGyreHeros-Italic-61" x="172.199966"/>
     <use xlink:href="#TeXGyreHeros-Italic-74" x="227.799957"/>
     <use xlink:href="#TeXGyreHeros-Italic-65" x="255.599945"/>
     <use xlink:href="#TeXGyreHeros-Italic-20" x="311.199936"/>
     <use xlink:href="#TeXGyreHeros-Italic-77" x="338.999924"/>
     <use xlink:href="#TeXGyreHeros-Italic-6f" x="411.199905"/>
     <use xlink:href="#TeXGyreHeros-Italic-72" x="466.799896"/>
     <use xlink:href="#TeXGyreHeros-Italic-6b" x="500.099884"/>
     <use xlink:href="#TeXGyreHeros-Italic-20" x="550.099869"/>
     <use xlink:href="#TeXGyreHeros-Italic-28" x="577.899857"/>
     <use xlink:href="#TeXGyreHeros-Italic-43" x="611.199844"/>
     <use xlink:href="#TeXGyreHeros-Italic-4d" x="683.399826"/>
     <use xlink:href="#TeXGyreHeros-Italic-53" x="766.699814"/>
     <use xlink:href="#TeXGyreHeros-Italic-20" x="833.399811"/>
     <use xlink:href="#TeXGyreHeros-Italic-73" x="861.199799"/>
     <use xlink:href="#TeXGyreHeros-Italic-69" x="911.199783"/>
     <use xlink:href="#TeXGyreHeros-Italic-6d" x="933.39978"/>
     <use xlink:href="#TeXGyreHeros-Italic-75" x="1016.699768"/>
     <use xlink:href="#TeXGyreHeros-Italic-6c" x="1072.299759"/>
     <use xlink:href="#TeXGyreHeros-Italic-61" x="1094.499756"/>
     <use xlink:href="#TeXGyreHeros-Italic-74" x="1150.099747"/>
     <use xlink:href="#TeXGyreHeros-Italic-69" x="1177.899734"/>
     <use xlink:href="#TeXGyreHeros-Italic-6f" x="1200.099731"/>
     <use xlink:href="#TeXGyreHeros-Italic-6e" x="1255.699722"/>
     <use xlink:href="#TeXGyreHeros-Italic-29" x="1311.299713"/>
    </g>
   </g>
   <g id="legend_1">
    <g id="patch_157">
     <path d="M 102.989663 78.674375 
L 336.661538 78.674375 
Q 338.661538 78.674375 338.661538 76.674375 
L 338.661538 33.64 
Q 338.661538 31.64 336.661538 31.64 
L 102.989663 31.64 
Q 100.989663 31.64 100.989663 33.64 
L 100.989663 76.674375 
Q 100.989663 78.674375 102.989663 78.674375 
z
" style="fill: #ffffff; opacity: 0.8; stroke: #cccccc; stroke-linejoin: miter"/>
    </g>
    <g id="patch_158">
     <path d="M 104.989663 43.238438 
L 124.989663 43.238438 
L 124.989663 36.238438 
L 104.989663 36.238438 
z
" style="fill: #1f77b4; fill-opacity: 0.5; stroke: #1f77b4; stroke-linejoin: miter"/>
    </g>
    <g id="text_19">
     <!-- Network (MSE: 4.57e+03) -->
     <g transform="translate(132.989663 43.238438) scale(0.1 -0.1)">
      <defs>
       <path id="DejaVuSans-4e" d="M 628 4666 
L 1478 4666 
L 3547 763 
L 3547 4666 
L 4159 4666 
L 4159 0 
L 3309 0 
L 1241 3903 
L 1241 0 
L 628 0 
L 628 4666 
z
" transform="scale(0.015625)"/>
       <path id="DejaVuSans-77" d="M 269 3500 
L 844 3500 
L 1563 769 
L 2278 3500 
L 2956 3500 
L 3675 769 
L 4391 3500 
L 4966 3500 
L 4050 0 
L 3372 0 
L 2619 2869 
L 1863 0 
L 1184 0 
L 269 3500 
z
" transform="scale(0.015625)"/>
       <path id="DejaVuSans-4d" d="M 628 4666 
L 1569 4666 
L 2759 1491 
L 3956 4666 
L 4897 4666 
L 4897 0 
L 4281 0 
L 4281 4097 
L 3078 897 
L 2444 897 
L 1241 4097 
L 1241 0 
L 628 0 
L 628 4666 
z
" transform="scale(0.015625)"/>
       <path id="DejaVuSans-53" d="M 3425 4513 
L 3425 3897 
Q 3066 4069 2747 4153 
Q 2428 4238 2131 4238 
Q 1616 4238 1336 4038 
Q 1056 3838 1056 3469 
Q 1056 3159 1242 3001 
Q 1428 2844 1947 2747 
L 2328 2669 
Q 3034 2534 3370 2195 
Q 3706 1856 3706 1288 
Q 3706 609 3251 259 
Q 2797 -91 1919 -91 
Q 1588 -91 1214 -16 
Q 841 59 441 206 
L 441 856 
Q 825 641 1194 531 
Q 1563 422 1919 422 
Q 2459 422 2753 634 
Q 3047 847 3047 1241 
Q 3047 1584 2836 1778 
Q 2625 1972 2144 2069 
L 1759 2144 
Q 1053 2284 737 2584 
Q 422 2884 422 3419 
Q 422 4038 858 4394 
Q 1294 4750 2059 4750 
Q 2388 4750 2728 4690 
Q 3069 4631 3425 4513 
z
" transform="scale(0.015625)"/>
       <path id="DejaVuSans-3a" d="M 750 794 
L 1409 794 
L 1409 0 
L 750 0 
L 750 794 
z
M 750 3309 
L 1409 3309 
L 1409 2516 
L 750 2516 
L 750 3309 
z
" transform="scale(0.015625)"/>
       <path id="DejaVuSans-37" d="M 525 4666 
L 3525 4666 
L 3525 4397 
L 1831 0 
L 1172 0 
L 2766 4134 
L 525 4134 
L 525 4666 
z
" transform="scale(0.015625)"/>
       <path id="DejaVuSans-2b" d="M 2944 4013 
L 2944 2272 
L 4684 2272 
L 4684 1741 
L 2944 1741 
L 2944 0 
L 2419 0 
L 2419 1741 
L 678 1741 
L 678 2272 
L 2419 2272 
L 2419 4013 
L 2944 4013 
z
" transform="scale(0.015625)"/>
      </defs>
      <use xlink:href="#DejaVuSans-4e"/>
      <use xlink:href="#DejaVuSans-65" x="74.804688"/>
      <use xlink:href="#DejaVuSans-74" x="136.328125"/>
      <use xlink:href="#DejaVuSans-77" x="175.537109"/>
      <use xlink:href="#DejaVuSans-6f" x="257.324219"/>
      <use xlink:href="#DejaVuSans-72" x="318.505859"/>
      <use xlink:href="#DejaVuSans-6b" x="359.619141"/>
      <use xlink:href="#DejaVuSans-20" x="417.529297"/>
      <use xlink:href="#DejaVuSans-28" x="449.316406"/>
      <use xlink:href="#DejaVuSans-4d" x="488.330078"/>
      <use xlink:href="#DejaVuSans-53" x="574.609375"/>
      <use xlink:href="#DejaVuSans-45" x="638.085938"/>
      <use xlink:href="#DejaVuSans-3a" x="701.269531"/>
      <use xlink:href="#DejaVuSans-20" x="734.960938"/>
      <use xlink:href="#DejaVuSans-34" x="766.748047"/>
      <use xlink:href="#DejaVuSans-2e" x="830.371094"/>
      <use xlink:href="#DejaVuSans-35" x="862.158203"/>
      <use xlink:href="#DejaVuSans-37" x="925.78125"/>
      <use xlink:href="#DejaVuSans-65" x="989.404297"/>
      <use xlink:href="#DejaVuSans-2b" x="1050.927734"/>
      <use xlink:href="#DejaVuSans-30" x="1134.716797"/>
      <use xlink:href="#DejaVuSans-33" x="1198.339844"/>
      <use xlink:href="#DejaVuSans-29" x="1261.962891"/>
     </g>
    </g>
    <g id="patch_159">
     <path d="M 104.989663 57.916562 
L 124.989663 57.916562 
L 124.989663 50.916562 
L 104.989663 50.916562 
z
" style="fill: #ff7f0e; fill-opacity: 0.5; stroke: #ff7f0e; stroke-linejoin: miter"/>
    </g>
    <g id="text_20">
     <!-- Truth -->
     <g transform="translate(132.989663 57.916562) scale(0.1 -0.1)">
      <defs>
       <path id="DejaVuSans-68" d="M 3513 2113 
L 3513 0 
L 2938 0 
L 2938 2094 
Q 2938 2591 2744 2837 
Q 2550 3084 2163 3084 
Q 1697 3084 1428 2787 
Q 1159 2491 1159 1978 
L 1159 0 
L 581 0 
L 581 4863 
L 1159 4863 
L 1159 2956 
Q 1366 3272 1645 3428 
Q 1925 3584 2291 3584 
Q 2894 3584 3203 3211 
Q 3513 2838 3513 2113 
z
" transform="scale(0.015625)"/>
      </defs>
      <use xlink:href="#DejaVuSans-54"/>
      <use xlink:href="#DejaVuSans-72" x="46.333984"/>
      <use xlink:href="#DejaVuSans-75" x="87.447266"/>
      <use xlink:href="#DejaVuSans-74" x="150.826172"/>
      <use xlink:href="#DejaVuSans-68" x="190.035156"/>
     </g>
    </g>
    <g id="patch_160">
     <path d="M 104.989663 72.594688 
L 124.989663 72.594688 
L 124.989663 65.594688 
L 104.989663 65.594688 
z
" style="fill: #2ca02c; fill-opacity: 0.5; stroke: #2ca02c; stroke-linejoin: miter"/>
    </g>
    <g id="text_21">
     <!-- Analytic Sonnenschein (MSE: 5.93e+03) -->
     <g transform="translate(132.989663 72.594688) scale(0.1 -0.1)">
      <defs>
       <path id="DejaVuSans-41" d="M 2188 4044 
L 1331 1722 
L 3047 1722 
L 2188 4044 
z
M 1831 4666 
L 2547 4666 
L 4325 0 
L 3669 0 
L 3244 1197 
L 1141 1197 
L 716 0 
L 50 0 
L 1831 4666 
z
" transform="scale(0.015625)"/>
       <path id="DejaVuSans-6c" d="M 603 4863 
L 1178 4863 
L 1178 0 
L 603 0 
L 603 4863 
z
" transform="scale(0.015625)"/>
       <path id="DejaVuSans-79" d="M 2059 -325 
Q 1816 -950 1584 -1140 
Q 1353 -1331 966 -1331 
L 506 -1331 
L 506 -850 
L 844 -850 
Q 1081 -850 1212 -737 
Q 1344 -625 1503 -206 
L 1606 56 
L 191 3500 
L 800 3500 
L 1894 763 
L 2988 3500 
L 3597 3500 
L 2059 -325 
z
" transform="scale(0.015625)"/>
       <path id="DejaVuSans-63" d="M 3122 3366 
L 3122 2828 
Q 2878 2963 2633 3030 
Q 2388 3097 2138 3097 
Q 1578 3097 1268 2742 
Q 959 2388 959 1747 
Q 959 1106 1268 751 
Q 1578 397 2138 397 
Q 2388 397 2633 464 
Q 2878 531 3122 666 
L 3122 134 
Q 2881 22 2623 -34 
Q 2366 -91 2075 -91 
Q 1284 -91 818 406 
Q 353 903 353 1747 
Q 353 2603 823 3093 
Q 1294 3584 2113 3584 
Q 2378 3584 2631 3529 
Q 2884 3475 3122 3366 
z
" transform="scale(0.015625)"/>
       <path id="DejaVuSans-39" d="M 703 97 
L 703 672 
Q 941 559 1184 500 
Q 1428 441 1663 441 
Q 2288 441 2617 861 
Q 2947 1281 2994 2138 
Q 2813 1869 2534 1725 
Q 2256 1581 1919 1581 
Q 1219 1581 811 2004 
Q 403 2428 403 3163 
Q 403 3881 828 4315 
Q 1253 4750 1959 4750 
Q 2769 4750 3195 4129 
Q 3622 3509 3622 2328 
Q 3622 1225 3098 567 
Q 2575 -91 1691 -91 
Q 1453 -91 1209 -44 
Q 966 3 703 97 
z
M 1959 2075 
Q 2384 2075 2632 2365 
Q 2881 2656 2881 3163 
Q 2881 3666 2632 3958 
Q 2384 4250 1959 4250 
Q 1534 4250 1286 3958 
Q 1038 3666 1038 3163 
Q 1038 2656 1286 2365 
Q 1534 2075 1959 2075 
z
" transform="scale(0.015625)"/>
      </defs>
      <use xlink:href="#DejaVuSans-41"/>
      <use xlink:href="#DejaVuSans-6e" x="68.408203"/>
      <use xlink:href="#DejaVuSans-61" x="131.787109"/>
      <use xlink:href="#DejaVuSans-6c" x="193.066406"/>
      <use xlink:href="#DejaVuSans-79" x="220.849609"/>
      <use xlink:href="#DejaVuSans-74" x="280.029297"/>
      <use xlink:href="#DejaVuSans-69" x="319.238281"/>
      <use xlink:href="#DejaVuSans-63" x="347.021484"/>
      <use xlink:href="#DejaVuSans-20" x="402.001953"/>
      <use xlink:href="#DejaVuSans-53" x="433.789062"/>
      <use xlink:href="#DejaVuSans-6f" x="497.265625"/>
      <use xlink:href="#DejaVuSans-6e" x="558.447266"/>
      <use xlink:href="#DejaVuSans-6e" x="621.826172"/>
      <use xlink:href="#DejaVuSans-65" x="685.205078"/>
      <use xlink:href="#DejaVuSans-6e" x="746.728516"/>
      <use xlink:href="#DejaVuSans-73" x="810.107422"/>
      <use xlink:href="#DejaVuSans-63" x="862.207031"/>
      <use xlink:href="#DejaVuSans-68" x="917.1875"/>
      <use xlink:href="#DejaVuSans-65" x="980.566406"/>
      <use xlink:href="#DejaVuSans-69" x="1042.089844"/>
      <use xlink:href="#DejaVuSans-6e" x="1069.873047"/>
      <use xlink:href="#DejaVuSans-20" x="1133.251953"/>
      <use xlink:href="#DejaVuSans-28" x="1165.039062"/>
      <use xlink:href="#DejaVuSans-4d" x="1204.052734"/>
      <use xlink:href="#DejaVuSans-53" x="1290.332031"/>
      <use xlink:href="#DejaVuSans-45" x="1353.808594"/>
      <use xlink:href="#DejaVuSans-3a" x="1416.992188"/>
      <use xlink:href="#DejaVuSans-20" x="1450.683594"/>
      <use xlink:href="#DejaVuSans-35" x="1482.470703"/>
      <use xlink:href="#DejaVuSans-2e" x="1546.09375"/>
      <use xlink:href="#DejaVuSans-39" x="1577.880859"/>
      <use xlink:href="#DejaVuSans-33" x="1641.503906"/>
      <use xlink:href="#DejaVuSans-65" x="1705.126953"/>
      <use xlink:href="#DejaVuSans-2b" x="1766.650391"/>
      <use xlink:href="#DejaVuSans-30" x="1850.439453"/>
      <use xlink:href="#DejaVuSans-33" x="1914.0625"/>
      <use xlink:href="#DejaVuSans-29" x="1977.685547"/>
     </g>
    </g>
   </g>
  </g>
 </g>
 <defs>
  <clipPath id="p868cbab179">
   <rect x="60.59" y="26.64" width="283.071538" height="194.366154"/>
  </clipPath>
 </defs>
</svg>
