<?xml version="1.0" encoding="utf-8" standalone="no"?>
<!DOCTYPE svg PUBLIC "-//W3C//DTD SVG 1.1//EN"
  "http://www.w3.org/Graphics/SVG/1.1/DTD/svg11.dtd">
<svg xmlns:xlink="http://www.w3.org/1999/xlink" width="354.461538pt" height="265.846154pt" viewBox="0 0 354.461538 265.846154" xmlns="http://www.w3.org/2000/svg" version="1.1">
 <metadata>
  <rdf:RDF xmlns:dc="http://purl.org/dc/elements/1.1/" xmlns:cc="http://creativecommons.org/ns#" xmlns:rdf="http://www.w3.org/1999/02/22-rdf-syntax-ns#">
   <cc:Work>
    <dc:type rdf:resource="http://purl.org/dc/dcmitype/StillImage"/>
    <dc:date>2024-08-07T04:33:16.463346</dc:date>
    <dc:format>image/svg+xml</dc:format>
    <dc:creator>
     <cc:Agent>
      <dc:title>Matplotlib v3.7.1, https://matplotlib.org/</dc:title>
     </cc:Agent>
    </dc:creator>
   </cc:Work>
  </rdf:RDF>
 </metadata>
 <defs>
  <style type="text/css">*{stroke-linejoin: round; stroke-linecap: butt}</style>
 </defs>
 <g id="figure_1">
  <g id="patch_1">
   <path d="M 0 265.846154 
L 354.461538 265.846154 
L 354.461538 0 
L 0 0 
z
" style="fill: #ffffff"/>
  </g>
  <g id="axes_1">
   <g id="patch_2">
    <path d="M 51.05 221.006154 
L 343.661538 221.006154 
L 343.661538 26.64 
L 51.05 26.64 
z
" style="fill: #ffffff"/>
   </g>
   <g id="PolyCollection_1">
    <defs>
     <path id="m84db437e2d" d="M 51.05 -104.738457 
L 51.05 -53.674825 
L 51.05 -53.674825 
L 57.021664 -53.674825 
L 57.021664 -54.260349 
L 62.993328 -54.260349 
L 62.993328 -55.287366 
L 68.964992 -55.287366 
L 68.964992 -56.078278 
L 74.936656 -56.078278 
L 74.936656 -57.184248 
L 80.90832 -57.184248 
L 80.90832 -58.130143 
L 86.879984 -58.130143 
L 86.879984 -59.788978 
L 92.851648 -59.788978 
L 92.851648 -61.088838 
L 98.823312 -61.088838 
L 98.823312 -62.411482 
L 104.794976 -62.411482 
L 104.794976 -63.347284 
L 110.766641 -63.347284 
L 110.766641 -65.256985 
L 116.738305 -65.256985 
L 116.738305 -66.275645 
L 122.709969 -66.275645 
L 122.709969 -67.507921 
L 128.681633 -67.507921 
L 128.681633 -69.288473 
L 134.653297 -69.288473 
L 134.653297 -71.323048 
L 140.624961 -71.323048 
L 140.624961 -72.440769 
L 146.596625 -72.440769 
L 146.596625 -74.461971 
L 152.568289 -74.461971 
L 152.568289 -76.416577 
L 158.539953 -76.416577 
L 158.539953 -77.90593 
L 164.511617 -77.90593 
L 164.511617 -79.274123 
L 170.483281 -79.274123 
L 170.483281 -81.04698 
L 176.454945 -81.04698 
L 176.454945 -83.277309 
L 182.426609 -83.277309 
L 182.426609 -85.0327 
L 188.398273 -85.0327 
L 188.398273 -86.573341 
L 194.369937 -86.573341 
L 194.369937 -87.64217 
L 200.341601 -87.64217 
L 200.341601 -90.431686 
L 206.313265 -90.431686 
L 206.313265 -92.211348 
L 212.284929 -92.211348 
L 212.284929 -93.528075 
L 218.256593 -93.528075 
L 218.256593 -96.198389 
L 224.228257 -96.198389 
L 224.228257 -97.467122 
L 230.199922 -97.467122 
L 230.199922 -99.808563 
L 236.171586 -99.808563 
L 236.171586 -101.45111 
L 242.14325 -101.45111 
L 242.14325 -104.007429 
L 248.114914 -104.007429 
L 248.114914 -105.449303 
L 254.086578 -105.449303 
L 254.086578 -108.184228 
L 260.058242 -108.184228 
L 260.058242 -109.496453 
L 266.029906 -109.496453 
L 266.029906 -111.211788 
L 272.00157 -111.211788 
L 272.00157 -112.128029 
L 277.973234 -112.128029 
L 277.973234 -114.991598 
L 283.944898 -114.991598 
L 283.944898 -116.314862 
L 289.916562 -116.314862 
L 289.916562 -118.79474 
L 295.888226 -118.79474 
L 295.888226 -120.780575 
L 301.85989 -120.780575 
L 301.85989 -123.0904 
L 307.831554 -123.0904 
L 307.831554 -124.535371 
L 313.803218 -124.535371 
L 313.803218 -126.22679 
L 319.774882 -126.22679 
L 319.774882 -127.525435 
L 325.746546 -127.525435 
L 325.746546 -130.474307 
L 331.71821 -130.474307 
L 331.71821 -132.426411 
L 337.689874 -132.426411 
L 337.689874 -134.427426 
L 343.661538 -134.427426 
L 343.661538 -185.491058 
L 343.661538 -185.491058 
L 337.689874 -185.491058 
L 337.689874 -183.490042 
L 331.71821 -183.490042 
L 331.71821 -181.537939 
L 325.746546 -181.537939 
L 325.746546 -178.589066 
L 319.774882 -178.589066 
L 319.774882 -177.290422 
L 313.803218 -177.290422 
L 313.803218 -175.599002 
L 307.831554 -175.599002 
L 307.831554 -174.154032 
L 301.85989 -174.154032 
L 301.85989 -171.844206 
L 295.888226 -171.844206 
L 295.888226 -169.858372 
L 289.916562 -169.858372 
L 289.916562 -167.378494 
L 283.944898 -167.378494 
L 283.944898 -166.055229 
L 277.973234 -166.055229 
L 277.973234 -163.19166 
L 272.00157 -163.19166 
L 272.00157 -162.275419 
L 266.029906 -162.275419 
L 266.029906 -160.560084 
L 260.058242 -160.560084 
L 260.058242 -159.24786 
L 254.086578 -159.24786 
L 254.086578 -156.512934 
L 248.114914 -156.512934 
L 248.114914 -155.071061 
L 242.14325 -155.071061 
L 242.14325 -152.514741 
L 236.171586 -152.514741 
L 236.171586 -150.872194 
L 230.199922 -150.872194 
L 230.199922 -148.530753 
L 224.228257 -148.530753 
L 224.228257 -147.262021 
L 218.256593 -147.262021 
L 218.256593 -144.591707 
L 212.284929 -144.591707 
L 212.284929 -143.27498 
L 206.313265 -143.27498 
L 206.313265 -141.495317 
L 200.341601 -141.495317 
L 200.341601 -138.705801 
L 194.369937 -138.705801 
L 194.369937 -137.636973 
L 188.398273 -137.636973 
L 188.398273 -136.096332 
L 182.426609 -136.096332 
L 182.426609 -134.340941 
L 176.454945 -134.340941 
L 176.454945 -132.110611 
L 170.483281 -132.110611 
L 170.483281 -130.337754 
L 164.511617 -130.337754 
L 164.511617 -128.969562 
L 158.539953 -128.969562 
L 158.539953 -127.480208 
L 152.568289 -127.480208 
L 152.568289 -125.525602 
L 146.596625 -125.525602 
L 146.596625 -123.5044 
L 140.624961 -123.5044 
L 140.624961 -122.386679 
L 134.653297 -122.386679 
L 134.653297 -120.352105 
L 128.681633 -120.352105 
L 128.681633 -118.571553 
L 122.709969 -118.571553 
L 122.709969 -117.339277 
L 116.738305 -117.339277 
L 116.738305 -116.320616 
L 110.766641 -116.320616 
L 110.766641 -114.410915 
L 104.794976 -114.410915 
L 104.794976 -113.475114 
L 98.823312 -113.475114 
L 98.823312 -112.15247 
L 92.851648 -112.15247 
L 92.851648 -110.85261 
L 86.879984 -110.85261 
L 86.879984 -109.193775 
L 80.90832 -109.193775 
L 80.90832 -108.24788 
L 74.936656 -108.24788 
L 74.936656 -107.14191 
L 68.964992 -107.14191 
L 68.964992 -106.350998 
L 62.993328 -106.350998 
L 62.993328 -105.32398 
L 57.021664 -105.32398 
L 57.021664 -104.738457 
L 51.05 -104.738457 
L 51.05 -104.738457 
z
" style="stroke: #1f77b4; stroke-opacity: 0.5"/>
    </defs>
    <g clip-path="url(#p972819f452)">
     <use xlink:href="#m84db437e2d" x="0" y="265.846154" style="fill: #1f77b4; fill-opacity: 0.5; stroke: #1f77b4; stroke-opacity: 0.5"/>
    </g>
   </g>
   <g id="PolyCollection_2">
    <defs>
     <path id="m3f84c18c74" d="M 51.05 -119.572227 
L 51.05 -57.214743 
L 51.05 -57.214743 
L 57.021664 -57.214743 
L 57.021664 -58.918006 
L 62.993328 -58.918006 
L 62.993328 -60.320938 
L 68.964992 -60.320938 
L 68.964992 -61.697785 
L 74.936656 -61.697785 
L 74.936656 -62.991597 
L 80.90832 -62.991597 
L 80.90832 -65.02874 
L 86.879984 -65.02874 
L 86.879984 -67.155905 
L 92.851648 -67.155905 
L 92.851648 -68.967274 
L 98.823312 -68.967274 
L 98.823312 -70.627785 
L 104.794976 -70.627785 
L 104.794976 -72.913995 
L 110.766641 -72.913995 
L 110.766641 -74.567699 
L 116.738305 -74.567699 
L 116.738305 -76.883767 
L 122.709969 -76.883767 
L 122.709969 -78.604666 
L 128.681633 -78.604666 
L 128.681633 -80.540994 
L 134.653297 -80.540994 
L 134.653297 -82.896927 
L 140.624961 -82.896927 
L 140.624961 -85.141491 
L 146.596625 -85.141491 
L 146.596625 -88.10594 
L 152.568289 -88.10594 
L 152.568289 -90.674731 
L 158.539953 -90.674731 
L 158.539953 -92.725605 
L 164.511617 -92.725605 
L 164.511617 -94.881224 
L 170.483281 -94.881224 
L 170.483281 -97.138896 
L 176.454945 -97.138896 
L 176.454945 -99.747842 
L 182.426609 -99.747842 
L 182.426609 -101.849406 
L 188.398273 -101.849406 
L 188.398273 -104.992691 
L 194.369937 -104.992691 
L 194.369937 -107.117837 
L 200.341601 -107.117837 
L 200.341601 -109.28112 
L 206.313265 -109.28112 
L 206.313265 -113.128039 
L 212.284929 -113.128039 
L 212.284929 -115.098871 
L 218.256593 -115.098871 
L 218.256593 -117.895401 
L 224.228257 -117.895401 
L 224.228257 -119.391695 
L 230.199922 -119.391695 
L 230.199922 -123.280537 
L 236.171586 -123.280537 
L 236.171586 -125.923504 
L 242.14325 -125.923504 
L 242.14325 -129.102352 
L 248.114914 -129.102352 
L 248.114914 -130.607218 
L 254.086578 -130.607218 
L 254.086578 -132.944211 
L 260.058242 -132.944211 
L 260.058242 -136.352519 
L 266.029906 -136.352519 
L 266.029906 -137.88657 
L 272.00157 -137.88657 
L 272.00157 -140.269403 
L 277.973234 -140.269403 
L 277.973234 -142.526301 
L 283.944898 -142.526301 
L 283.944898 -146.448479 
L 289.916562 -146.448479 
L 289.916562 -147.602852 
L 295.888226 -147.602852 
L 295.888226 -151.536785 
L 301.85989 -151.536785 
L 301.85989 -154.001497 
L 307.831554 -154.001497 
L 307.831554 -155.975168 
L 313.803218 -155.975168 
L 313.803218 -157.928628 
L 319.774882 -157.928628 
L 319.774882 -158.818082 
L 325.746546 -158.818082 
L 325.746546 -163.376067 
L 331.71821 -163.376067 
L 331.71821 -164.063977 
L 337.689874 -164.063977 
L 337.689874 -168.013845 
L 343.661538 -168.013845 
L 343.661538 -230.371329 
L 343.661538 -230.371329 
L 337.689874 -230.371329 
L 337.689874 -226.421461 
L 331.71821 -226.421461 
L 331.71821 -225.73355 
L 325.746546 -225.73355 
L 325.746546 -221.175565 
L 319.774882 -221.175565 
L 319.774882 -220.286112 
L 313.803218 -220.286112 
L 313.803218 -218.332651 
L 307.831554 -218.332651 
L 307.831554 -216.358981 
L 301.85989 -216.358981 
L 301.85989 -213.894268 
L 295.888226 -213.894268 
L 295.888226 -209.960335 
L 289.916562 -209.960335 
L 289.916562 -208.805963 
L 283.944898 -208.805963 
L 283.944898 -204.883785 
L 277.973234 -204.883785 
L 277.973234 -202.626886 
L 272.00157 -202.626886 
L 272.00157 -200.244053 
L 266.029906 -200.244053 
L 266.029906 -198.710003 
L 260.058242 -198.710003 
L 260.058242 -195.301695 
L 254.086578 -195.301695 
L 254.086578 -192.964701 
L 248.114914 -192.964701 
L 248.114914 -191.459835 
L 242.14325 -191.459835 
L 242.14325 -188.280988 
L 236.171586 -188.280988 
L 236.171586 -185.63802 
L 230.199922 -185.63802 
L 230.199922 -181.749179 
L 224.228257 -181.749179 
L 224.228257 -180.252884 
L 218.256593 -180.252884 
L 218.256593 -177.456355 
L 212.284929 -177.456355 
L 212.284929 -175.485522 
L 206.313265 -175.485522 
L 206.313265 -171.638603 
L 200.341601 -171.638603 
L 200.341601 -169.47532 
L 194.369937 -169.47532 
L 194.369937 -167.350174 
L 188.398273 -167.350174 
L 188.398273 -164.20689 
L 182.426609 -164.20689 
L 182.426609 -162.105326 
L 176.454945 -162.105326 
L 176.454945 -159.49638 
L 170.483281 -159.49638 
L 170.483281 -157.238708 
L 164.511617 -157.238708 
L 164.511617 -155.083088 
L 158.539953 -155.083088 
L 158.539953 -153.032214 
L 152.568289 -153.032214 
L 152.568289 -150.463423 
L 146.596625 -150.463423 
L 146.596625 -147.498974 
L 140.624961 -147.498974 
L 140.624961 -145.25441 
L 134.653297 -145.25441 
L 134.653297 -142.898478 
L 128.681633 -142.898478 
L 128.681633 -140.96215 
L 122.709969 -140.96215 
L 122.709969 -139.241251 
L 116.738305 -139.241251 
L 116.738305 -136.925183 
L 110.766641 -136.925183 
L 110.766641 -135.271478 
L 104.794976 -135.271478 
L 104.794976 -132.985269 
L 98.823312 -132.985269 
L 98.823312 -131.324757 
L 92.851648 -131.324757 
L 92.851648 -129.513388 
L 86.879984 -129.513388 
L 86.879984 -127.386224 
L 80.90832 -127.386224 
L 80.90832 -125.34908 
L 74.936656 -125.34908 
L 74.936656 -124.055268 
L 68.964992 -124.055268 
L 68.964992 -122.678422 
L 62.993328 -122.678422 
L 62.993328 -121.27549 
L 57.021664 -121.27549 
L 57.021664 -119.572227 
L 51.05 -119.572227 
L 51.05 -119.572227 
z
" style="stroke: #ff7f0e; stroke-opacity: 0.5"/>
    </defs>
    <g clip-path="url(#p972819f452)">
     <use xlink:href="#m3f84c18c74" x="0" y="265.846154" style="fill: #ff7f0e; fill-opacity: 0.5; stroke: #ff7f0e; stroke-opacity: 0.5"/>
    </g>
   </g>
   <g id="matplotlib.axis_1">
    <g id="xtick_1">
     <g id="line2d_1">
      <path d="M 52.425738 221.006154 
L 52.425738 26.64 
" clip-path="url(#p972819f452)" style="fill: none; stroke: #b0b0b0; stroke-width: 0.8; stroke-linecap: square"/>
     </g>
     <g id="line2d_2">
      <defs>
       <path id="mac9dcdf34c" d="M 0 0 
L 0 3.5 
" style="stroke: #000000; stroke-width: 0.8"/>
      </defs>
      <g>
       <use xlink:href="#mac9dcdf34c" x="52.425738" y="221.006154" style="stroke: #000000; stroke-width: 0.8"/>
      </g>
     </g>
     <g id="text_1">
      <!-- 50 -->
      <g transform="translate(46.063238 235.604591) scale(0.1 -0.1)">
       <defs>
        <path id="DejaVuSans-35" d="M 691 4666 
L 3169 4666 
L 3169 4134 
L 1269 4134 
L 1269 2991 
Q 1406 3038 1543 3061 
Q 1681 3084 1819 3084 
Q 2600 3084 3056 2656 
Q 3513 2228 3513 1497 
Q 3513 744 3044 326 
Q 2575 -91 1722 -91 
Q 1428 -91 1123 -41 
Q 819 9 494 109 
L 494 744 
Q 775 591 1075 516 
Q 1375 441 1709 441 
Q 2250 441 2565 725 
Q 2881 1009 2881 1497 
Q 2881 1984 2565 2268 
Q 2250 2553 1709 2553 
Q 1456 2553 1204 2497 
Q 953 2441 691 2322 
L 691 4666 
z
" transform="scale(0.015625)"/>
        <path id="DejaVuSans-30" d="M 2034 4250 
Q 1547 4250 1301 3770 
Q 1056 3291 1056 2328 
Q 1056 1369 1301 889 
Q 1547 409 2034 409 
Q 2525 409 2770 889 
Q 3016 1369 3016 2328 
Q 3016 3291 2770 3770 
Q 2525 4250 2034 4250 
z
M 2034 4750 
Q 2819 4750 3233 4129 
Q 3647 3509 3647 2328 
Q 3647 1150 3233 529 
Q 2819 -91 2034 -91 
Q 1250 -91 836 529 
Q 422 1150 422 2328 
Q 422 3509 836 4129 
Q 1250 4750 2034 4750 
z
" transform="scale(0.015625)"/>
       </defs>
       <use xlink:href="#DejaVuSans-35"/>
       <use xlink:href="#DejaVuSans-30" x="63.623047"/>
      </g>
     </g>
    </g>
    <g id="xtick_2">
     <g id="line2d_3">
      <path d="M 86.271145 221.006154 
L 86.271145 26.64 
" clip-path="url(#p972819f452)" style="fill: none; stroke: #b0b0b0; stroke-width: 0.8; stroke-linecap: square"/>
     </g>
     <g id="line2d_4">
      <g>
       <use xlink:href="#mac9dcdf34c" x="86.271145" y="221.006154" style="stroke: #000000; stroke-width: 0.8"/>
      </g>
     </g>
     <g id="text_2">
      <!-- 75 -->
      <g transform="translate(79.908645 235.604591) scale(0.1 -0.1)">
       <defs>
        <path id="DejaVuSans-37" d="M 525 4666 
L 3525 4666 
L 3525 4397 
L 1831 0 
L 1172 0 
L 2766 4134 
L 525 4134 
L 525 4666 
z
" transform="scale(0.015625)"/>
       </defs>
       <use xlink:href="#DejaVuSans-37"/>
       <use xlink:href="#DejaVuSans-35" x="63.623047"/>
      </g>
     </g>
    </g>
    <g id="xtick_3">
     <g id="line2d_5">
      <path d="M 120.116551 221.006154 
L 120.116551 26.64 
" clip-path="url(#p972819f452)" style="fill: none; stroke: #b0b0b0; stroke-width: 0.8; stroke-linecap: square"/>
     </g>
     <g id="line2d_6">
      <g>
       <use xlink:href="#mac9dcdf34c" x="120.116551" y="221.006154" style="stroke: #000000; stroke-width: 0.8"/>
      </g>
     </g>
     <g id="text_3">
      <!-- 100 -->
      <g transform="translate(110.572801 235.604591) scale(0.1 -0.1)">
       <defs>
        <path id="DejaVuSans-31" d="M 794 531 
L 1825 531 
L 1825 4091 
L 703 3866 
L 703 4441 
L 1819 4666 
L 2450 4666 
L 2450 531 
L 3481 531 
L 3481 0 
L 794 0 
L 794 531 
z
" transform="scale(0.015625)"/>
       </defs>
       <use xlink:href="#DejaVuSans-31"/>
       <use xlink:href="#DejaVuSans-30" x="63.623047"/>
       <use xlink:href="#DejaVuSans-30" x="127.246094"/>
      </g>
     </g>
    </g>
    <g id="xtick_4">
     <g id="line2d_7">
      <path d="M 153.961957 221.006154 
L 153.961957 26.64 
" clip-path="url(#p972819f452)" style="fill: none; stroke: #b0b0b0; stroke-width: 0.8; stroke-linecap: square"/>
     </g>
     <g id="line2d_8">
      <g>
       <use xlink:href="#mac9dcdf34c" x="153.961957" y="221.006154" style="stroke: #000000; stroke-width: 0.8"/>
      </g>
     </g>
     <g id="text_4">
      <!-- 125 -->
      <g transform="translate(144.418207 235.604591) scale(0.1 -0.1)">
       <defs>
        <path id="DejaVuSans-32" d="M 1228 531 
L 3431 531 
L 3431 0 
L 469 0 
L 469 531 
Q 828 903 1448 1529 
Q 2069 2156 2228 2338 
Q 2531 2678 2651 2914 
Q 2772 3150 2772 3378 
Q 2772 3750 2511 3984 
Q 2250 4219 1831 4219 
Q 1534 4219 1204 4116 
Q 875 4013 500 3803 
L 500 4441 
Q 881 4594 1212 4672 
Q 1544 4750 1819 4750 
Q 2544 4750 2975 4387 
Q 3406 4025 3406 3419 
Q 3406 3131 3298 2873 
Q 3191 2616 2906 2266 
Q 2828 2175 2409 1742 
Q 1991 1309 1228 531 
z
" transform="scale(0.015625)"/>
       </defs>
       <use xlink:href="#DejaVuSans-31"/>
       <use xlink:href="#DejaVuSans-32" x="63.623047"/>
       <use xlink:href="#DejaVuSans-35" x="127.246094"/>
      </g>
     </g>
    </g>
    <g id="xtick_5">
     <g id="line2d_9">
      <path d="M 187.807363 221.006154 
L 187.807363 26.64 
" clip-path="url(#p972819f452)" style="fill: none; stroke: #b0b0b0; stroke-width: 0.8; stroke-linecap: square"/>
     </g>
     <g id="line2d_10">
      <g>
       <use xlink:href="#mac9dcdf34c" x="187.807363" y="221.006154" style="stroke: #000000; stroke-width: 0.8"/>
      </g>
     </g>
     <g id="text_5">
      <!-- 150 -->
      <g transform="translate(178.263613 235.604591) scale(0.1 -0.1)">
       <use xlink:href="#DejaVuSans-31"/>
       <use xlink:href="#DejaVuSans-35" x="63.623047"/>
       <use xlink:href="#DejaVuSans-30" x="127.246094"/>
      </g>
     </g>
    </g>
    <g id="xtick_6">
     <g id="line2d_11">
      <path d="M 221.652769 221.006154 
L 221.652769 26.64 
" clip-path="url(#p972819f452)" style="fill: none; stroke: #b0b0b0; stroke-width: 0.8; stroke-linecap: square"/>
     </g>
     <g id="line2d_12">
      <g>
       <use xlink:href="#mac9dcdf34c" x="221.652769" y="221.006154" style="stroke: #000000; stroke-width: 0.8"/>
      </g>
     </g>
     <g id="text_6">
      <!-- 175 -->
      <g transform="translate(212.109019 235.604591) scale(0.1 -0.1)">
       <use xlink:href="#DejaVuSans-31"/>
       <use xlink:href="#DejaVuSans-37" x="63.623047"/>
       <use xlink:href="#DejaVuSans-35" x="127.246094"/>
      </g>
     </g>
    </g>
    <g id="xtick_7">
     <g id="line2d_13">
      <path d="M 255.498175 221.006154 
L 255.498175 26.64 
" clip-path="url(#p972819f452)" style="fill: none; stroke: #b0b0b0; stroke-width: 0.8; stroke-linecap: square"/>
     </g>
     <g id="line2d_14">
      <g>
       <use xlink:href="#mac9dcdf34c" x="255.498175" y="221.006154" style="stroke: #000000; stroke-width: 0.8"/>
      </g>
     </g>
     <g id="text_7">
      <!-- 200 -->
      <g transform="translate(245.954425 235.604591) scale(0.1 -0.1)">
       <use xlink:href="#DejaVuSans-32"/>
       <use xlink:href="#DejaVuSans-30" x="63.623047"/>
       <use xlink:href="#DejaVuSans-30" x="127.246094"/>
      </g>
     </g>
    </g>
    <g id="xtick_8">
     <g id="line2d_15">
      <path d="M 289.343581 221.006154 
L 289.343581 26.64 
" clip-path="url(#p972819f452)" style="fill: none; stroke: #b0b0b0; stroke-width: 0.8; stroke-linecap: square"/>
     </g>
     <g id="line2d_16">
      <g>
       <use xlink:href="#mac9dcdf34c" x="289.343581" y="221.006154" style="stroke: #000000; stroke-width: 0.8"/>
      </g>
     </g>
     <g id="text_8">
      <!-- 225 -->
      <g transform="translate(279.799831 235.604591) scale(0.1 -0.1)">
       <use xlink:href="#DejaVuSans-32"/>
       <use xlink:href="#DejaVuSans-32" x="63.623047"/>
       <use xlink:href="#DejaVuSans-35" x="127.246094"/>
      </g>
     </g>
    </g>
    <g id="xtick_9">
     <g id="line2d_17">
      <path d="M 323.188987 221.006154 
L 323.188987 26.64 
" clip-path="url(#p972819f452)" style="fill: none; stroke: #b0b0b0; stroke-width: 0.8; stroke-linecap: square"/>
     </g>
     <g id="line2d_18">
      <g>
       <use xlink:href="#mac9dcdf34c" x="323.188987" y="221.006154" style="stroke: #000000; stroke-width: 0.8"/>
      </g>
     </g>
     <g id="text_9">
      <!-- 250 -->
      <g transform="translate(313.645237 235.604591) scale(0.1 -0.1)">
       <use xlink:href="#DejaVuSans-32"/>
       <use xlink:href="#DejaVuSans-35" x="63.623047"/>
       <use xlink:href="#DejaVuSans-30" x="127.246094"/>
      </g>
     </g>
    </g>
    <g id="text_10">
     <!-- True Top quark $p_{\mathrm{T}}$ (GeV) -->
     <g transform="translate(136.255769 249.284279) scale(0.1 -0.1)">
      <defs>
       <path id="DejaVuSans-54" d="M -19 4666 
L 3928 4666 
L 3928 4134 
L 2272 4134 
L 2272 0 
L 1638 0 
L 1638 4134 
L -19 4134 
L -19 4666 
z
" transform="scale(0.015625)"/>
       <path id="DejaVuSans-72" d="M 2631 2963 
Q 2534 3019 2420 3045 
Q 2306 3072 2169 3072 
Q 1681 3072 1420 2755 
Q 1159 2438 1159 1844 
L 1159 0 
L 581 0 
L 581 3500 
L 1159 3500 
L 1159 2956 
Q 1341 3275 1631 3429 
Q 1922 3584 2338 3584 
Q 2397 3584 2469 3576 
Q 2541 3569 2628 3553 
L 2631 2963 
z
" transform="scale(0.015625)"/>
       <path id="DejaVuSans-75" d="M 544 1381 
L 544 3500 
L 1119 3500 
L 1119 1403 
Q 1119 906 1312 657 
Q 1506 409 1894 409 
Q 2359 409 2629 706 
Q 2900 1003 2900 1516 
L 2900 3500 
L 3475 3500 
L 3475 0 
L 2900 0 
L 2900 538 
Q 2691 219 2414 64 
Q 2138 -91 1772 -91 
Q 1169 -91 856 284 
Q 544 659 544 1381 
z
M 1991 3584 
L 1991 3584 
z
" transform="scale(0.015625)"/>
       <path id="DejaVuSans-65" d="M 3597 1894 
L 3597 1613 
L 953 1613 
Q 991 1019 1311 708 
Q 1631 397 2203 397 
Q 2534 397 2845 478 
Q 3156 559 3463 722 
L 3463 178 
Q 3153 47 2828 -22 
Q 2503 -91 2169 -91 
Q 1331 -91 842 396 
Q 353 884 353 1716 
Q 353 2575 817 3079 
Q 1281 3584 2069 3584 
Q 2775 3584 3186 3129 
Q 3597 2675 3597 1894 
z
M 3022 2063 
Q 3016 2534 2758 2815 
Q 2500 3097 2075 3097 
Q 1594 3097 1305 2825 
Q 1016 2553 972 2059 
L 3022 2063 
z
" transform="scale(0.015625)"/>
       <path id="DejaVuSans-20" transform="scale(0.015625)"/>
       <path id="DejaVuSans-6f" d="M 1959 3097 
Q 1497 3097 1228 2736 
Q 959 2375 959 1747 
Q 959 1119 1226 758 
Q 1494 397 1959 397 
Q 2419 397 2687 759 
Q 2956 1122 2956 1747 
Q 2956 2369 2687 2733 
Q 2419 3097 1959 3097 
z
M 1959 3584 
Q 2709 3584 3137 3096 
Q 3566 2609 3566 1747 
Q 3566 888 3137 398 
Q 2709 -91 1959 -91 
Q 1206 -91 779 398 
Q 353 888 353 1747 
Q 353 2609 779 3096 
Q 1206 3584 1959 3584 
z
" transform="scale(0.015625)"/>
       <path id="DejaVuSans-70" d="M 1159 525 
L 1159 -1331 
L 581 -1331 
L 581 3500 
L 1159 3500 
L 1159 2969 
Q 1341 3281 1617 3432 
Q 1894 3584 2278 3584 
Q 2916 3584 3314 3078 
Q 3713 2572 3713 1747 
Q 3713 922 3314 415 
Q 2916 -91 2278 -91 
Q 1894 -91 1617 61 
Q 1341 213 1159 525 
z
M 3116 1747 
Q 3116 2381 2855 2742 
Q 2594 3103 2138 3103 
Q 1681 3103 1420 2742 
Q 1159 2381 1159 1747 
Q 1159 1113 1420 752 
Q 1681 391 2138 391 
Q 2594 391 2855 752 
Q 3116 1113 3116 1747 
z
" transform="scale(0.015625)"/>
       <path id="DejaVuSans-71" d="M 947 1747 
Q 947 1113 1208 752 
Q 1469 391 1925 391 
Q 2381 391 2643 752 
Q 2906 1113 2906 1747 
Q 2906 2381 2643 2742 
Q 2381 3103 1925 3103 
Q 1469 3103 1208 2742 
Q 947 2381 947 1747 
z
M 2906 525 
Q 2725 213 2448 61 
Q 2172 -91 1784 -91 
Q 1150 -91 751 415 
Q 353 922 353 1747 
Q 353 2572 751 3078 
Q 1150 3584 1784 3584 
Q 2172 3584 2448 3432 
Q 2725 3281 2906 2969 
L 2906 3500 
L 3481 3500 
L 3481 -1331 
L 2906 -1331 
L 2906 525 
z
" transform="scale(0.015625)"/>
       <path id="DejaVuSans-61" d="M 2194 1759 
Q 1497 1759 1228 1600 
Q 959 1441 959 1056 
Q 959 750 1161 570 
Q 1363 391 1709 391 
Q 2188 391 2477 730 
Q 2766 1069 2766 1631 
L 2766 1759 
L 2194 1759 
z
M 3341 1997 
L 3341 0 
L 2766 0 
L 2766 531 
Q 2569 213 2275 61 
Q 1981 -91 1556 -91 
Q 1019 -91 701 211 
Q 384 513 384 1019 
Q 384 1609 779 1909 
Q 1175 2209 1959 2209 
L 2766 2209 
L 2766 2266 
Q 2766 2663 2505 2880 
Q 2244 3097 1772 3097 
Q 1472 3097 1187 3025 
Q 903 2953 641 2809 
L 641 3341 
Q 956 3463 1253 3523 
Q 1550 3584 1831 3584 
Q 2591 3584 2966 3190 
Q 3341 2797 3341 1997 
z
" transform="scale(0.015625)"/>
       <path id="DejaVuSans-6b" d="M 581 4863 
L 1159 4863 
L 1159 1991 
L 2875 3500 
L 3609 3500 
L 1753 1863 
L 3688 0 
L 2938 0 
L 1159 1709 
L 1159 0 
L 581 0 
L 581 4863 
z
" transform="scale(0.015625)"/>
       <path id="DejaVuSans-Oblique-70" d="M 3175 2156 
Q 3175 2616 2975 2859 
Q 2775 3103 2400 3103 
Q 2144 3103 1911 2972 
Q 1678 2841 1497 2591 
Q 1319 2344 1212 1994 
Q 1106 1644 1106 1300 
Q 1106 863 1306 627 
Q 1506 391 1875 391 
Q 2147 391 2380 519 
Q 2613 647 2778 891 
Q 2956 1147 3065 1494 
Q 3175 1841 3175 2156 
z
M 1394 2969 
Q 1625 3272 1939 3428 
Q 2253 3584 2638 3584 
Q 3175 3584 3472 3232 
Q 3769 2881 3769 2247 
Q 3769 1728 3584 1258 
Q 3400 788 3053 416 
Q 2822 169 2531 39 
Q 2241 -91 1919 -91 
Q 1547 -91 1294 64 
Q 1041 219 916 525 
L 556 -1331 
L -19 -1331 
L 922 3500 
L 1497 3500 
L 1394 2969 
z
" transform="scale(0.015625)"/>
       <path id="DejaVuSans-28" d="M 1984 4856 
Q 1566 4138 1362 3434 
Q 1159 2731 1159 2009 
Q 1159 1288 1364 580 
Q 1569 -128 1984 -844 
L 1484 -844 
Q 1016 -109 783 600 
Q 550 1309 550 2009 
Q 550 2706 781 3412 
Q 1013 4119 1484 4856 
L 1984 4856 
z
" transform="scale(0.015625)"/>
       <path id="DejaVuSans-47" d="M 3809 666 
L 3809 1919 
L 2778 1919 
L 2778 2438 
L 4434 2438 
L 4434 434 
Q 4069 175 3628 42 
Q 3188 -91 2688 -91 
Q 1594 -91 976 548 
Q 359 1188 359 2328 
Q 359 3472 976 4111 
Q 1594 4750 2688 4750 
Q 3144 4750 3555 4637 
Q 3966 4525 4313 4306 
L 4313 3634 
Q 3963 3931 3569 4081 
Q 3175 4231 2741 4231 
Q 1884 4231 1454 3753 
Q 1025 3275 1025 2328 
Q 1025 1384 1454 906 
Q 1884 428 2741 428 
Q 3075 428 3337 486 
Q 3600 544 3809 666 
z
" transform="scale(0.015625)"/>
       <path id="DejaVuSans-56" d="M 1831 0 
L 50 4666 
L 709 4666 
L 2188 738 
L 3669 4666 
L 4325 4666 
L 2547 0 
L 1831 0 
z
" transform="scale(0.015625)"/>
       <path id="DejaVuSans-29" d="M 513 4856 
L 1013 4856 
Q 1481 4119 1714 3412 
Q 1947 2706 1947 2009 
Q 1947 1309 1714 600 
Q 1481 -109 1013 -844 
L 513 -844 
Q 928 -128 1133 580 
Q 1338 1288 1338 2009 
Q 1338 2731 1133 3434 
Q 928 4138 513 4856 
z
" transform="scale(0.015625)"/>
      </defs>
      <use xlink:href="#DejaVuSans-54" transform="translate(0 0.015625)"/>
      <use xlink:href="#DejaVuSans-72" transform="translate(61.083984 0.015625)"/>
      <use xlink:href="#DejaVuSans-75" transform="translate(102.197266 0.015625)"/>
      <use xlink:href="#DejaVuSans-65" transform="translate(165.576172 0.015625)"/>
      <use xlink:href="#DejaVuSans-20" transform="translate(227.099609 0.015625)"/>
      <use xlink:href="#DejaVuSans-54" transform="translate(258.886719 0.015625)"/>
      <use xlink:href="#DejaVuSans-6f" transform="translate(319.970703 0.015625)"/>
      <use xlink:href="#DejaVuSans-70" transform="translate(381.152344 0.015625)"/>
      <use xlink:href="#DejaVuSans-20" transform="translate(444.628906 0.015625)"/>
      <use xlink:href="#DejaVuSans-71" transform="translate(476.416016 0.015625)"/>
      <use xlink:href="#DejaVuSans-75" transform="translate(539.892578 0.015625)"/>
      <use xlink:href="#DejaVuSans-61" transform="translate(603.271484 0.015625)"/>
      <use xlink:href="#DejaVuSans-72" transform="translate(664.550781 0.015625)"/>
      <use xlink:href="#DejaVuSans-6b" transform="translate(705.664062 0.015625)"/>
      <use xlink:href="#DejaVuSans-20" transform="translate(763.574219 0.015625)"/>
      <use xlink:href="#DejaVuSans-Oblique-70" transform="translate(795.361328 0.015625)"/>
      <use xlink:href="#DejaVuSans-54" transform="translate(858.837891 -16.390625) scale(0.7)"/>
      <use xlink:href="#DejaVuSans-20" transform="translate(904.331055 0.015625)"/>
      <use xlink:href="#DejaVuSans-28" transform="translate(936.118164 0.015625)"/>
      <use xlink:href="#DejaVuSans-47" transform="translate(975.131836 0.015625)"/>
      <use xlink:href="#DejaVuSans-65" transform="translate(1052.62207 0.015625)"/>
      <use xlink:href="#DejaVuSans-56" transform="translate(1114.145508 0.015625)"/>
      <use xlink:href="#DejaVuSans-29" transform="translate(1182.553711 0.015625)"/>
     </g>
    </g>
   </g>
   <g id="matplotlib.axis_2">
    <g id="ytick_1">
     <g id="line2d_19">
      <path d="M 51.05 194.266056 
L 343.661538 194.266056 
" clip-path="url(#p972819f452)" style="fill: none; stroke: #b0b0b0; stroke-width: 0.8; stroke-linecap: square"/>
     </g>
     <g id="line2d_20">
      <defs>
       <path id="m16a32b3e8f" d="M 0 0 
L -3.5 0 
" style="stroke: #000000; stroke-width: 0.8"/>
      </defs>
      <g>
       <use xlink:href="#m16a32b3e8f" x="51.05" y="194.266056" style="stroke: #000000; stroke-width: 0.8"/>
      </g>
     </g>
     <g id="text_11">
      <!-- 50 -->
      <g transform="translate(31.325 198.065275) scale(0.1 -0.1)">
       <use xlink:href="#DejaVuSans-35"/>
       <use xlink:href="#DejaVuSans-30" x="63.623047"/>
      </g>
     </g>
    </g>
    <g id="ytick_2">
     <g id="line2d_21">
      <path d="M 51.05 165.327876 
L 343.661538 165.327876 
" clip-path="url(#p972819f452)" style="fill: none; stroke: #b0b0b0; stroke-width: 0.8; stroke-linecap: square"/>
     </g>
     <g id="line2d_22">
      <g>
       <use xlink:href="#m16a32b3e8f" x="51.05" y="165.327876" style="stroke: #000000; stroke-width: 0.8"/>
      </g>
     </g>
     <g id="text_12">
      <!-- 100 -->
      <g transform="translate(24.9625 169.127095) scale(0.1 -0.1)">
       <use xlink:href="#DejaVuSans-31"/>
       <use xlink:href="#DejaVuSans-30" x="63.623047"/>
       <use xlink:href="#DejaVuSans-30" x="127.246094"/>
      </g>
     </g>
    </g>
    <g id="ytick_3">
     <g id="line2d_23">
      <path d="M 51.05 136.389697 
L 343.661538 136.389697 
" clip-path="url(#p972819f452)" style="fill: none; stroke: #b0b0b0; stroke-width: 0.8; stroke-linecap: square"/>
     </g>
     <g id="line2d_24">
      <g>
       <use xlink:href="#m16a32b3e8f" x="51.05" y="136.389697" style="stroke: #000000; stroke-width: 0.8"/>
      </g>
     </g>
     <g id="text_13">
      <!-- 150 -->
      <g transform="translate(24.9625 140.188916) scale(0.1 -0.1)">
       <use xlink:href="#DejaVuSans-31"/>
       <use xlink:href="#DejaVuSans-35" x="63.623047"/>
       <use xlink:href="#DejaVuSans-30" x="127.246094"/>
      </g>
     </g>
    </g>
    <g id="ytick_4">
     <g id="line2d_25">
      <path d="M 51.05 107.451517 
L 343.661538 107.451517 
" clip-path="url(#p972819f452)" style="fill: none; stroke: #b0b0b0; stroke-width: 0.8; stroke-linecap: square"/>
     </g>
     <g id="line2d_26">
      <g>
       <use xlink:href="#m16a32b3e8f" x="51.05" y="107.451517" style="stroke: #000000; stroke-width: 0.8"/>
      </g>
     </g>
     <g id="text_14">
      <!-- 200 -->
      <g transform="translate(24.9625 111.250736) scale(0.1 -0.1)">
       <use xlink:href="#DejaVuSans-32"/>
       <use xlink:href="#DejaVuSans-30" x="63.623047"/>
       <use xlink:href="#DejaVuSans-30" x="127.246094"/>
      </g>
     </g>
    </g>
    <g id="ytick_5">
     <g id="line2d_27">
      <path d="M 51.05 78.513338 
L 343.661538 78.513338 
" clip-path="url(#p972819f452)" style="fill: none; stroke: #b0b0b0; stroke-width: 0.8; stroke-linecap: square"/>
     </g>
     <g id="line2d_28">
      <g>
       <use xlink:href="#m16a32b3e8f" x="51.05" y="78.513338" style="stroke: #000000; stroke-width: 0.8"/>
      </g>
     </g>
     <g id="text_15">
      <!-- 250 -->
      <g transform="translate(24.9625 82.312557) scale(0.1 -0.1)">
       <use xlink:href="#DejaVuSans-32"/>
       <use xlink:href="#DejaVuSans-35" x="63.623047"/>
       <use xlink:href="#DejaVuSans-30" x="127.246094"/>
      </g>
     </g>
    </g>
    <g id="ytick_6">
     <g id="line2d_29">
      <path d="M 51.05 49.575158 
L 343.661538 49.575158 
" clip-path="url(#p972819f452)" style="fill: none; stroke: #b0b0b0; stroke-width: 0.8; stroke-linecap: square"/>
     </g>
     <g id="line2d_30">
      <g>
       <use xlink:href="#m16a32b3e8f" x="51.05" y="49.575158" style="stroke: #000000; stroke-width: 0.8"/>
      </g>
     </g>
     <g id="text_16">
      <!-- 300 -->
      <g transform="translate(24.9625 53.374377) scale(0.1 -0.1)">
       <defs>
        <path id="DejaVuSans-33" d="M 2597 2516 
Q 3050 2419 3304 2112 
Q 3559 1806 3559 1356 
Q 3559 666 3084 287 
Q 2609 -91 1734 -91 
Q 1441 -91 1130 -33 
Q 819 25 488 141 
L 488 750 
Q 750 597 1062 519 
Q 1375 441 1716 441 
Q 2309 441 2620 675 
Q 2931 909 2931 1356 
Q 2931 1769 2642 2001 
Q 2353 2234 1838 2234 
L 1294 2234 
L 1294 2753 
L 1863 2753 
Q 2328 2753 2575 2939 
Q 2822 3125 2822 3475 
Q 2822 3834 2567 4026 
Q 2313 4219 1838 4219 
Q 1578 4219 1281 4162 
Q 984 4106 628 3988 
L 628 4550 
Q 988 4650 1302 4700 
Q 1616 4750 1894 4750 
Q 2613 4750 3031 4423 
Q 3450 4097 3450 3541 
Q 3450 3153 3228 2886 
Q 3006 2619 2597 2516 
z
" transform="scale(0.015625)"/>
       </defs>
       <use xlink:href="#DejaVuSans-33"/>
       <use xlink:href="#DejaVuSans-30" x="63.623047"/>
       <use xlink:href="#DejaVuSans-30" x="127.246094"/>
      </g>
     </g>
    </g>
    <g id="text_17">
     <!-- Response -->
     <g transform="translate(18.882812 147.837139) rotate(-90) scale(0.1 -0.1)">
      <defs>
       <path id="DejaVuSans-52" d="M 2841 2188 
Q 3044 2119 3236 1894 
Q 3428 1669 3622 1275 
L 4263 0 
L 3584 0 
L 2988 1197 
Q 2756 1666 2539 1819 
Q 2322 1972 1947 1972 
L 1259 1972 
L 1259 0 
L 628 0 
L 628 4666 
L 2053 4666 
Q 2853 4666 3247 4331 
Q 3641 3997 3641 3322 
Q 3641 2881 3436 2590 
Q 3231 2300 2841 2188 
z
M 1259 4147 
L 1259 2491 
L 2053 2491 
Q 2509 2491 2742 2702 
Q 2975 2913 2975 3322 
Q 2975 3731 2742 3939 
Q 2509 4147 2053 4147 
L 1259 4147 
z
" transform="scale(0.015625)"/>
       <path id="DejaVuSans-73" d="M 2834 3397 
L 2834 2853 
Q 2591 2978 2328 3040 
Q 2066 3103 1784 3103 
Q 1356 3103 1142 2972 
Q 928 2841 928 2578 
Q 928 2378 1081 2264 
Q 1234 2150 1697 2047 
L 1894 2003 
Q 2506 1872 2764 1633 
Q 3022 1394 3022 966 
Q 3022 478 2636 193 
Q 2250 -91 1575 -91 
Q 1294 -91 989 -36 
Q 684 19 347 128 
L 347 722 
Q 666 556 975 473 
Q 1284 391 1588 391 
Q 1994 391 2212 530 
Q 2431 669 2431 922 
Q 2431 1156 2273 1281 
Q 2116 1406 1581 1522 
L 1381 1569 
Q 847 1681 609 1914 
Q 372 2147 372 2553 
Q 372 3047 722 3315 
Q 1072 3584 1716 3584 
Q 2034 3584 2315 3537 
Q 2597 3491 2834 3397 
z
" transform="scale(0.015625)"/>
       <path id="DejaVuSans-6e" d="M 3513 2113 
L 3513 0 
L 2938 0 
L 2938 2094 
Q 2938 2591 2744 2837 
Q 2550 3084 2163 3084 
Q 1697 3084 1428 2787 
Q 1159 2491 1159 1978 
L 1159 0 
L 581 0 
L 581 3500 
L 1159 3500 
L 1159 2956 
Q 1366 3272 1645 3428 
Q 1925 3584 2291 3584 
Q 2894 3584 3203 3211 
Q 3513 2838 3513 2113 
z
" transform="scale(0.015625)"/>
      </defs>
      <use xlink:href="#DejaVuSans-52"/>
      <use xlink:href="#DejaVuSans-65" x="64.982422"/>
      <use xlink:href="#DejaVuSans-73" x="126.505859"/>
      <use xlink:href="#DejaVuSans-70" x="178.605469"/>
      <use xlink:href="#DejaVuSans-6f" x="242.082031"/>
      <use xlink:href="#DejaVuSans-6e" x="303.263672"/>
      <use xlink:href="#DejaVuSans-73" x="366.642578"/>
      <use xlink:href="#DejaVuSans-65" x="418.742188"/>
     </g>
    </g>
   </g>
   <g id="line2d_31">
    <path d="M 51.05 186.55837 
L 51.05 186.55837 
L 57.021664 186.55837 
L 57.021664 185.972847 
L 62.993328 185.972847 
L 62.993328 184.94583 
L 68.964992 184.94583 
L 68.964992 184.154917 
L 74.936656 184.154917 
L 74.936656 183.048947 
L 80.90832 183.048947 
L 80.90832 182.103052 
L 86.879984 182.103052 
L 86.879984 180.444217 
L 92.851648 180.444217 
L 92.851648 179.144357 
L 98.823312 179.144357 
L 98.823312 177.821714 
L 104.794976 177.821714 
L 104.794976 176.885912 
L 110.766641 176.885912 
L 110.766641 174.976211 
L 116.738305 174.976211 
L 116.738305 173.95755 
L 122.709969 173.95755 
L 122.709969 172.725274 
L 128.681633 172.725274 
L 128.681633 170.944722 
L 134.653297 170.944722 
L 134.653297 168.910148 
L 140.624961 168.910148 
L 140.624961 167.792427 
L 146.596625 167.792427 
L 146.596625 165.771225 
L 152.568289 165.771225 
L 152.568289 163.816619 
L 158.539953 163.816619 
L 158.539953 162.327265 
L 164.511617 162.327265 
L 164.511617 160.959073 
L 170.483281 160.959073 
L 170.483281 159.186216 
L 176.454945 159.186216 
L 176.454945 156.955886 
L 182.426609 156.955886 
L 182.426609 155.200495 
L 188.398273 155.200495 
L 188.398273 153.659854 
L 194.369937 153.659854 
L 194.369937 152.591026 
L 200.341601 152.591026 
L 200.341601 149.80151 
L 206.313265 149.80151 
L 206.313265 148.021847 
L 212.284929 148.021847 
L 212.284929 146.70512 
L 218.256593 146.70512 
L 218.256593 144.034806 
L 224.228257 144.034806 
L 224.228257 142.766074 
L 230.199922 142.766074 
L 230.199922 140.424633 
L 236.171586 140.424633 
L 236.171586 138.782086 
L 242.14325 138.782086 
L 242.14325 136.225767 
L 248.114914 136.225767 
L 248.114914 134.783893 
L 254.086578 134.783893 
L 254.086578 132.048968 
L 260.058242 132.048968 
L 260.058242 130.736743 
L 266.029906 130.736743 
L 266.029906 129.021408 
L 272.00157 129.021408 
L 272.00157 128.105167 
L 277.973234 128.105167 
L 277.973234 125.241598 
L 283.944898 125.241598 
L 283.944898 123.918333 
L 289.916562 123.918333 
L 289.916562 121.438455 
L 295.888226 121.438455 
L 295.888226 119.452621 
L 301.85989 119.452621 
L 301.85989 117.142795 
L 307.831554 117.142795 
L 307.831554 115.697825 
L 313.803218 115.697825 
L 313.803218 114.006406 
L 319.774882 114.006406 
L 319.774882 112.707761 
L 325.746546 112.707761 
L 325.746546 109.758889 
L 331.71821 109.758889 
L 331.71821 107.806785 
L 337.689874 107.806785 
L 337.689874 105.805769 
L 343.661538 105.805769 
" clip-path="url(#p972819f452)" style="fill: none; stroke: #1f77b4; stroke-width: 1.5; stroke-linecap: square"/>
   </g>
   <g id="line2d_32">
    <path d="M 51.05 178.276147 
L 51.05 178.276147 
L 57.021664 178.276147 
L 57.021664 176.572883 
L 62.993328 176.572883 
L 62.993328 175.169952 
L 68.964992 175.169952 
L 68.964992 173.793105 
L 74.936656 173.793105 
L 74.936656 172.499293 
L 80.90832 172.499293 
L 80.90832 170.462149 
L 86.879984 170.462149 
L 86.879984 168.334985 
L 92.851648 168.334985 
L 92.851648 166.523616 
L 98.823312 166.523616 
L 98.823312 164.863104 
L 104.794976 164.863104 
L 104.794976 162.576895 
L 110.766641 162.576895 
L 110.766641 160.923191 
L 116.738305 160.923191 
L 116.738305 158.607122 
L 122.709969 158.607122 
L 122.709969 156.886223 
L 128.681633 156.886223 
L 128.681633 154.949896 
L 134.653297 154.949896 
L 134.653297 152.593963 
L 140.624961 152.593963 
L 140.624961 150.349399 
L 146.596625 150.349399 
L 146.596625 147.38495 
L 152.568289 147.38495 
L 152.568289 144.816159 
L 158.539953 144.816159 
L 158.539953 142.765285 
L 164.511617 142.765285 
L 164.511617 140.609666 
L 170.483281 140.609666 
L 170.483281 138.351994 
L 176.454945 138.351994 
L 176.454945 135.743048 
L 182.426609 135.743048 
L 182.426609 133.641483 
L 188.398273 133.641483 
L 188.398273 130.498199 
L 194.369937 130.498199 
L 194.369937 128.373053 
L 200.341601 128.373053 
L 200.341601 126.20977 
L 206.313265 126.20977 
L 206.313265 122.362851 
L 212.284929 122.362851 
L 212.284929 120.392018 
L 218.256593 120.392018 
L 218.256593 117.595489 
L 224.228257 117.595489 
L 224.228257 116.099194 
L 230.199922 116.099194 
L 230.199922 112.210353 
L 236.171586 112.210353 
L 236.171586 109.567385 
L 242.14325 109.567385 
L 242.14325 106.388538 
L 248.114914 106.388538 
L 248.114914 104.883672 
L 254.086578 104.883672 
L 254.086578 102.546678 
L 260.058242 102.546678 
L 260.058242 99.13837 
L 266.029906 99.13837 
L 266.029906 97.60432 
L 272.00157 97.60432 
L 272.00157 95.221487 
L 277.973234 95.221487 
L 277.973234 92.964588 
L 283.944898 92.964588 
L 283.944898 89.042411 
L 289.916562 89.042411 
L 289.916562 87.888038 
L 295.888226 87.888038 
L 295.888226 83.954105 
L 301.85989 83.954105 
L 301.85989 81.489392 
L 307.831554 81.489392 
L 307.831554 79.515722 
L 313.803218 79.515722 
L 313.803218 77.562262 
L 319.774882 77.562262 
L 319.774882 76.672808 
L 325.746546 76.672808 
L 325.746546 72.114823 
L 331.71821 72.114823 
L 331.71821 71.426912 
L 337.689874 71.426912 
L 337.689874 67.477044 
L 343.661538 67.477044 
" clip-path="url(#p972819f452)" style="fill: none; stroke: #ff7f0e; stroke-width: 1.5; stroke-linecap: square"/>
   </g>
   <g id="patch_3">
    <path d="M 51.05 221.006154 
L 51.05 26.64 
" style="fill: none; stroke: #000000; stroke-width: 0.8; stroke-linejoin: miter; stroke-linecap: square"/>
   </g>
   <g id="patch_4">
    <path d="M 343.661538 221.006154 
L 343.661538 26.64 
" style="fill: none; stroke: #000000; stroke-width: 0.8; stroke-linejoin: miter; stroke-linecap: square"/>
   </g>
   <g id="patch_5">
    <path d="M 51.05 221.006154 
L 343.661538 221.006154 
" style="fill: none; stroke: #000000; stroke-width: 0.8; stroke-linejoin: miter; stroke-linecap: square"/>
   </g>
   <g id="patch_6">
    <path d="M 51.05 26.64 
L 343.661538 26.64 
" style="fill: none; stroke: #000000; stroke-width: 0.8; stroke-linejoin: miter; stroke-linecap: square"/>
   </g>
   <g id="text_18">
    <!-- CMS -->
    <g transform="translate(51.05 22.956328) scale(0.169 -0.169)">
     <defs>
      <path id="TeXGyreHeros-Bold-43" d="M 4384 1594 
L 3450 1594 
C 3392 998 3014 730 2419 730 
C 1677 730 1242 1299 1242 2317 
C 1242 3347 1696 3923 2451 3923 
C 2970 3923 3309 3686 3450 3085 
L 4365 3085 
C 4282 4160 3469 4742 2419 4742 
C 1101 4742 282 3840 282 2330 
C 282 832 1094 -77 2394 -77 
C 3552 -77 4326 525 4384 1594 
z
" transform="scale(0.015625)"/>
      <path id="TeXGyreHeros-Bold-4d" d="M 4966 0 
L 4966 4666 
L 3520 4666 
L 2701 954 
L 1856 4666 
L 422 4666 
L 422 0 
L 1382 0 
L 1382 3635 
L 2221 0 
L 3181 0 
L 4006 3635 
L 4006 0 
L 4966 0 
z
" transform="scale(0.015625)"/>
      <path id="TeXGyreHeros-Bold-53" d="M 4051 1402 
C 4051 2138 3680 2483 2816 2650 
L 2086 2790 
C 1402 2925 1203 3059 1203 3398 
C 1203 3750 1517 3974 2010 3974 
C 2618 3974 2989 3718 2989 3245 
L 3885 3245 
C 3885 4230 3194 4742 2054 4742 
C 934 4742 288 4218 288 3309 
C 288 2579 653 2240 1600 2054 
L 2253 1926 
C 2893 1798 3130 1664 3130 1286 
C 3130 896 2771 691 2189 691 
C 1536 691 1139 966 1139 1466 
L 205 1466 
C 205 467 947 -77 2138 -77 
C 3341 -77 4051 454 4051 1402 
z
" transform="scale(0.015625)"/>
     </defs>
     <use xlink:href="#TeXGyreHeros-Bold-43"/>
     <use xlink:href="#TeXGyreHeros-Bold-4d" x="72.199982"/>
     <use xlink:href="#TeXGyreHeros-Bold-53" x="155.499969"/>
    </g>
   </g>
   <g id="text_19">
    <!-- Private work (CMS simulation) -->
    <g transform="translate(90.362 22.899575) scale(0.13 -0.13)">
     <defs>
      <path id="TeXGyreHeros-Italic-50" d="M 4371 3635 
C 4371 4314 3968 4666 3187 4666 
L 1254 4666 
L 262 0 
L 864 0 
L 1286 1978 
L 2746 1978 
C 3712 1978 4371 2771 4371 3635 
z
M 3757 3520 
C 3757 2957 3302 2502 2637 2502 
L 1395 2502 
L 1747 4141 
L 2989 4141 
C 3488 4141 3757 3923 3757 3520 
z
" transform="scale(0.015625)"/>
      <path id="TeXGyreHeros-Italic-72" d="M 2355 2886 
L 2470 3430 
C 2387 3443 2336 3450 2266 3450 
C 1894 3450 1606 3283 1210 2829 
L 1318 3354 
L 832 3354 
L 122 0 
L 659 0 
L 1030 1741 
C 1190 2496 1626 2886 2291 2886 
L 2355 2886 
z
" transform="scale(0.015625)"/>
      <path id="TeXGyreHeros-Italic-69" d="M 659 0 
L 1370 3354 
L 832 3354 
L 122 0 
L 659 0 
z
M 1677 4525 
L 1011 4525 
L 870 3866 
L 1536 3866 
L 1677 4525 
z
" transform="scale(0.015625)"/>
      <path id="TeXGyreHeros-Italic-76" d="M 3507 3354 
L 2925 3354 
L 1363 653 
L 1050 3354 
L 461 3354 
L 934 0 
L 1517 0 
L 3507 3354 
z
" transform="scale(0.015625)"/>
      <path id="TeXGyreHeros-Italic-61" d="M 3149 0 
L 3232 416 
C 3174 403 3149 403 3123 403 
C 2957 403 2880 461 2880 589 
C 2880 614 2880 634 2886 653 
L 3277 2490 
C 3315 2662 3315 2662 3315 2726 
C 3315 3162 2874 3450 2202 3450 
C 1312 3450 768 3072 646 2362 
L 1184 2362 
C 1312 2771 1587 2957 2061 2957 
C 2445 2957 2739 2784 2739 2547 
C 2739 2522 2733 2477 2726 2426 
L 2707 2310 
C 2662 2048 2515 1971 2061 1933 
C 1203 1850 934 1792 621 1594 
C 288 1382 102 1069 102 698 
C 102 186 454 -96 1030 -96 
C 1446 -96 1818 -38 2310 371 
L 2304 275 
C 2304 13 2502 -58 2810 -58 
C 2899 -58 2893 -45 3149 0 
z
M 2566 1651 
L 2451 1101 
C 2368 704 1805 365 1242 365 
C 877 365 666 493 666 762 
C 666 1165 954 1370 1632 1466 
C 2234 1549 2285 1555 2566 1651 
z
" transform="scale(0.015625)"/>
      <path id="TeXGyreHeros-Italic-74" d="M 1408 467 
C 1210 422 1178 416 1101 416 
C 960 416 870 486 870 589 
C 870 608 877 640 883 678 
L 1363 2925 
L 1933 2925 
L 2022 3354 
L 1453 3354 
L 1651 4275 
L 1114 4275 
L 915 3354 
L 461 3354 
L 371 2925 
L 826 2925 
L 339 659 
C 326 595 320 525 320 461 
C 320 147 538 -45 890 -45 
C 1018 -45 1216 -26 1306 0 
L 1408 467 
z
" transform="scale(0.015625)"/>
      <path id="TeXGyreHeros-Italic-65" d="M 3290 1523 
L 3302 1606 
C 3360 1914 3392 2182 3392 2355 
C 3392 2970 2861 3450 2170 3450 
C 1613 3450 1075 3187 755 2758 
C 454 2355 224 1651 224 1133 
C 224 467 717 -96 1498 -96 
C 2266 -96 2912 326 3110 1018 
L 2573 1018 
C 2355 627 2016 397 1587 397 
C 1082 397 787 685 787 1229 
C 781 1338 787 1402 819 1523 
L 3290 1523 
z
M 2816 1984 
L 934 1984 
C 1094 2547 1568 2957 2086 2957 
C 2541 2957 2829 2650 2829 2170 
C 2829 2106 2822 2061 2816 1984 
z
" transform="scale(0.015625)"/>
      <path id="TeXGyreHeros-Italic-20" transform="scale(0.015625)"/>
      <path id="TeXGyreHeros-Italic-77" d="M 4928 3354 
L 4346 3354 
L 3091 742 
L 3091 3354 
L 2349 3354 
L 1139 742 
L 1139 3354 
L 435 3354 
L 691 0 
L 1306 0 
L 2554 2675 
L 2554 0 
L 3238 0 
L 4928 3354 
z
" transform="scale(0.015625)"/>
      <path id="TeXGyreHeros-Italic-6f" d="M 3366 2253 
C 3366 2931 2906 3450 2138 3450 
C 934 3450 198 2342 198 1075 
C 198 365 698 -96 1414 -96 
C 2579 -96 3366 922 3366 2253 
z
M 2803 2131 
C 2803 1178 2266 397 1504 397 
C 1050 397 762 691 762 1203 
C 762 2131 1299 2957 2054 2957 
C 2528 2957 2803 2650 2803 2131 
z
" transform="scale(0.015625)"/>
      <path id="TeXGyreHeros-Italic-6b" d="M 2893 0 
L 1997 2195 
L 3418 3354 
L 2726 3354 
L 1005 1958 
L 1581 4666 
L 1043 4666 
L 51 0 
L 589 0 
L 864 1299 
L 1549 1862 
L 2278 0 
L 2893 0 
z
" transform="scale(0.015625)"/>
      <path id="TeXGyreHeros-Italic-28" d="M 1254 -1363 
C 1018 -749 902 -147 902 506 
C 902 1926 1459 3347 2534 4666 
L 2182 4666 
C 1069 3501 403 2042 403 742 
C 403 -19 589 -813 902 -1363 
L 1254 -1363 
z
" transform="scale(0.015625)"/>
      <path id="TeXGyreHeros-Italic-43" d="M 4384 1702 
L 3757 1702 
C 3354 787 2950 403 2125 403 
C 1459 403 1018 922 1018 1696 
C 1018 2278 1210 2925 1536 3411 
C 1926 3987 2394 4262 2982 4262 
C 3629 4262 3942 3910 3994 3219 
L 4608 3219 
C 4557 4262 3974 4781 3091 4781 
C 2342 4781 1722 4480 1222 3878 
C 717 3270 403 2381 403 1581 
C 403 563 1011 -115 2035 -115 
C 3162 -115 3840 410 4384 1702 
z
" transform="scale(0.015625)"/>
      <path id="TeXGyreHeros-Italic-4d" d="M 5542 4666 
L 4704 4666 
L 2490 653 
L 1978 4666 
L 1152 4666 
L 160 0 
L 730 0 
L 1555 3872 
L 2048 0 
L 2669 0 
L 4806 3872 
L 3981 0 
L 4550 0 
L 5542 4666 
z
" transform="scale(0.015625)"/>
      <path id="TeXGyreHeros-Italic-53" d="M 3968 1549 
C 3968 1978 3667 2349 3187 2490 
L 2086 2803 
C 1594 2944 1440 3072 1440 3354 
C 1440 3866 1952 4262 2694 4262 
C 3398 4262 3667 3994 3667 3565 
C 3667 3507 3661 3462 3642 3334 
L 4205 3334 
C 4243 3514 4256 3597 4256 3693 
C 4256 4339 3712 4781 2810 4781 
C 2150 4781 1632 4595 1286 4237 
C 1024 3968 826 3514 826 3187 
C 826 2784 1107 2445 1536 2323 
L 2630 2010 
C 3142 1862 3354 1670 3354 1370 
C 3354 838 2771 403 1901 403 
C 1178 403 845 672 845 1254 
C 845 1338 851 1395 870 1517 
L 314 1517 
C 269 1350 256 1248 256 1114 
C 256 346 832 -115 1798 -115 
C 2470 -115 3034 70 3411 422 
C 3738 723 3968 1190 3968 1549 
z
" transform="scale(0.015625)"/>
      <path id="TeXGyreHeros-Italic-73" d="M 2848 1158 
C 2848 1549 2637 1754 2074 1894 
L 1587 2016 
C 1229 2106 1043 2234 1043 2400 
C 1043 2726 1363 2957 1850 2957 
C 2227 2957 2438 2810 2438 2560 
C 2438 2515 2438 2470 2432 2419 
L 2970 2419 
C 3002 2554 3008 2611 3008 2694 
C 3008 3142 2579 3450 1958 3450 
C 1069 3450 480 2938 480 2259 
C 480 1869 704 1677 1363 1510 
L 1837 1389 
C 2240 1286 2285 1146 2285 1011 
C 2285 646 1862 397 1370 397 
C 928 397 678 570 678 890 
C 678 928 685 986 691 1050 
L 122 1050 
C 90 902 83 826 83 723 
C 83 211 531 -96 1274 -96 
C 2227 -96 2848 397 2848 1158 
z
" transform="scale(0.015625)"/>
      <path id="TeXGyreHeros-Italic-6d" d="M 4589 0 
L 5094 2387 
C 5114 2458 5133 2669 5133 2739 
C 5133 3072 4883 3450 4320 3450 
C 3904 3450 3539 3283 3162 2918 
C 3059 3277 2810 3450 2387 3450 
C 1952 3450 1658 3322 1248 2938 
L 1331 3354 
L 845 3354 
L 134 0 
L 672 0 
L 1120 2106 
C 1222 2592 1658 2989 2086 2989 
C 2400 2989 2611 2810 2611 2547 
C 2611 2477 2605 2394 2586 2310 
L 2093 0 
L 2630 0 
L 3078 2106 
C 3181 2605 3616 2989 4083 2989 
C 4384 2989 4570 2803 4570 2496 
C 4570 2400 4570 2400 4512 2182 
L 4051 0 
L 4589 0 
z
" transform="scale(0.015625)"/>
      <path id="TeXGyreHeros-Italic-75" d="M 2771 0 
L 3482 3354 
L 2944 3354 
L 2554 1504 
C 2406 813 1952 365 1408 365 
C 1062 365 838 557 838 858 
C 838 909 845 966 858 1030 
L 1350 3354 
L 813 3354 
L 275 819 
C 262 755 256 685 256 602 
C 256 166 589 -96 1139 -96 
C 1638 -96 2003 58 2368 390 
L 2285 0 
L 2771 0 
z
" transform="scale(0.015625)"/>
      <path id="TeXGyreHeros-Italic-6c" d="M 1645 4666 
L 1107 4666 
L 115 0 
L 653 0 
L 1645 4666 
z
" transform="scale(0.015625)"/>
      <path id="TeXGyreHeros-Italic-6e" d="M 3328 2406 
C 3347 2490 3354 2566 3354 2650 
C 3354 3136 3014 3450 2483 3450 
C 1997 3450 1574 3277 1242 2938 
L 1325 3354 
L 838 3354 
L 128 0 
L 666 0 
L 1056 1850 
C 1203 2554 1658 2989 2234 2989 
C 2554 2989 2790 2765 2790 2470 
C 2790 2432 2771 2336 2752 2234 
L 2278 0 
L 2816 0 
L 3328 2406 
z
" transform="scale(0.015625)"/>
      <path id="TeXGyreHeros-Italic-29" d="M 1760 2605 
C 1760 3328 1568 4134 1267 4666 
L 915 4666 
C 1158 4045 1267 3443 1267 2758 
C 1267 1376 698 -64 -365 -1363 
L -13 -1363 
C 1094 -205 1760 1274 1760 2605 
z
" transform="scale(0.015625)"/>
     </defs>
     <use xlink:href="#TeXGyreHeros-Italic-50"/>
     <use xlink:href="#TeXGyreHeros-Italic-72" x="66.699997"/>
     <use xlink:href="#TeXGyreHeros-Italic-69" x="99.999985"/>
     <use xlink:href="#TeXGyreHeros-Italic-76" x="122.199982"/>
     <use xlink:href="#TeXGyreHeros-Italic-61" x="172.199966"/>
     <use xlink:href="#TeXGyreHeros-Italic-74" x="227.799957"/>
     <use xlink:href="#TeXGyreHeros-Italic-65" x="255.599945"/>
     <use xlink:href="#TeXGyreHeros-Italic-20" x="311.199936"/>
     <use xlink:href="#TeXGyreHeros-Italic-77" x="338.999924"/>
     <use xlink:href="#TeXGyreHeros-Italic-6f" x="411.199905"/>
     <use xlink:href="#TeXGyreHeros-Italic-72" x="466.799896"/>
     <use xlink:href="#TeXGyreHeros-Italic-6b" x="500.099884"/>
     <use xlink:href="#TeXGyreHeros-Italic-20" x="550.099869"/>
     <use xlink:href="#TeXGyreHeros-Italic-28" x="577.899857"/>
     <use xlink:href="#TeXGyreHeros-Italic-43" x="611.199844"/>
     <use xlink:href="#TeXGyreHeros-Italic-4d" x="683.399826"/>
     <use xlink:href="#TeXGyreHeros-Italic-53" x="766.699814"/>
     <use xlink:href="#TeXGyreHeros-Italic-20" x="833.399811"/>
     <use xlink:href="#TeXGyreHeros-Italic-73" x="861.199799"/>
     <use xlink:href="#TeXGyreHeros-Italic-69" x="911.199783"/>
     <use xlink:href="#TeXGyreHeros-Italic-6d" x="933.39978"/>
     <use xlink:href="#TeXGyreHeros-Italic-75" x="1016.699768"/>
     <use xlink:href="#TeXGyreHeros-Italic-6c" x="1072.299759"/>
     <use xlink:href="#TeXGyreHeros-Italic-61" x="1094.499756"/>
     <use xlink:href="#TeXGyreHeros-Italic-74" x="1150.099747"/>
     <use xlink:href="#TeXGyreHeros-Italic-69" x="1177.899734"/>
     <use xlink:href="#TeXGyreHeros-Italic-6f" x="1200.099731"/>
     <use xlink:href="#TeXGyreHeros-Italic-6e" x="1255.699722"/>
     <use xlink:href="#TeXGyreHeros-Italic-29" x="1311.299713"/>
    </g>
   </g>
   <g id="legend_1">
    <g id="patch_7">
     <path d="M 191.336538 63.99625 
L 336.661538 63.99625 
Q 338.661538 63.99625 338.661538 61.99625 
L 338.661538 33.64 
Q 338.661538 31.64 336.661538 31.64 
L 191.336538 31.64 
Q 189.336538 31.64 189.336538 33.64 
L 189.336538 61.99625 
Q 189.336538 63.99625 191.336538 63.99625 
z
" style="fill: #ffffff; opacity: 0.8; stroke: #cccccc; stroke-linejoin: miter"/>
    </g>
    <g id="line2d_33">
     <path d="M 193.336538 39.738437 
L 193.336538 39.738437 
L 203.336538 39.738437 
L 203.336538 39.738437 
L 213.336538 39.738437 
" style="fill: none; stroke: #1f77b4; stroke-width: 1.5; stroke-linecap: square"/>
    </g>
    <g id="text_20">
     <!-- Network -->
     <g transform="translate(221.336538 43.238437) scale(0.1 -0.1)">
      <defs>
       <path id="DejaVuSans-4e" d="M 628 4666 
L 1478 4666 
L 3547 763 
L 3547 4666 
L 4159 4666 
L 4159 0 
L 3309 0 
L 1241 3903 
L 1241 0 
L 628 0 
L 628 4666 
z
" transform="scale(0.015625)"/>
       <path id="DejaVuSans-74" d="M 1172 4494 
L 1172 3500 
L 2356 3500 
L 2356 3053 
L 1172 3053 
L 1172 1153 
Q 1172 725 1289 603 
Q 1406 481 1766 481 
L 2356 481 
L 2356 0 
L 1766 0 
Q 1100 0 847 248 
Q 594 497 594 1153 
L 594 3053 
L 172 3053 
L 172 3500 
L 594 3500 
L 594 4494 
L 1172 4494 
z
" transform="scale(0.015625)"/>
       <path id="DejaVuSans-77" d="M 269 3500 
L 844 3500 
L 1563 769 
L 2278 3500 
L 2956 3500 
L 3675 769 
L 4391 3500 
L 4966 3500 
L 4050 0 
L 3372 0 
L 2619 2869 
L 1863 0 
L 1184 0 
L 269 3500 
z
" transform="scale(0.015625)"/>
      </defs>
      <use xlink:href="#DejaVuSans-4e"/>
      <use xlink:href="#DejaVuSans-65" x="74.804688"/>
      <use xlink:href="#DejaVuSans-74" x="136.328125"/>
      <use xlink:href="#DejaVuSans-77" x="175.537109"/>
      <use xlink:href="#DejaVuSans-6f" x="257.324219"/>
      <use xlink:href="#DejaVuSans-72" x="318.505859"/>
      <use xlink:href="#DejaVuSans-6b" x="359.619141"/>
     </g>
    </g>
    <g id="line2d_34">
     <path d="M 193.336538 54.416562 
L 193.336538 54.416562 
L 203.336538 54.416562 
L 203.336538 54.416562 
L 213.336538 54.416562 
" style="fill: none; stroke: #ff7f0e; stroke-width: 1.5; stroke-linecap: square"/>
    </g>
    <g id="text_21">
     <!-- Analytic Sonnenschein -->
     <g transform="translate(221.336538 57.916562) scale(0.1 -0.1)">
      <defs>
       <path id="DejaVuSans-41" d="M 2188 4044 
L 1331 1722 
L 3047 1722 
L 2188 4044 
z
M 1831 4666 
L 2547 4666 
L 4325 0 
L 3669 0 
L 3244 1197 
L 1141 1197 
L 716 0 
L 50 0 
L 1831 4666 
z
" transform="scale(0.015625)"/>
       <path id="DejaVuSans-6c" d="M 603 4863 
L 1178 4863 
L 1178 0 
L 603 0 
L 603 4863 
z
" transform="scale(0.015625)"/>
       <path id="DejaVuSans-79" d="M 2059 -325 
Q 1816 -950 1584 -1140 
Q 1353 -1331 966 -1331 
L 506 -1331 
L 506 -850 
L 844 -850 
Q 1081 -850 1212 -737 
Q 1344 -625 1503 -206 
L 1606 56 
L 191 3500 
L 800 3500 
L 1894 763 
L 2988 3500 
L 3597 3500 
L 2059 -325 
z
" transform="scale(0.015625)"/>
       <path id="DejaVuSans-69" d="M 603 3500 
L 1178 3500 
L 1178 0 
L 603 0 
L 603 3500 
z
M 603 4863 
L 1178 4863 
L 1178 4134 
L 603 4134 
L 603 4863 
z
" transform="scale(0.015625)"/>
       <path id="DejaVuSans-63" d="M 3122 3366 
L 3122 2828 
Q 2878 2963 2633 3030 
Q 2388 3097 2138 3097 
Q 1578 3097 1268 2742 
Q 959 2388 959 1747 
Q 959 1106 1268 751 
Q 1578 397 2138 397 
Q 2388 397 2633 464 
Q 2878 531 3122 666 
L 3122 134 
Q 2881 22 2623 -34 
Q 2366 -91 2075 -91 
Q 1284 -91 818 406 
Q 353 903 353 1747 
Q 353 2603 823 3093 
Q 1294 3584 2113 3584 
Q 2378 3584 2631 3529 
Q 2884 3475 3122 3366 
z
" transform="scale(0.015625)"/>
       <path id="DejaVuSans-53" d="M 3425 4513 
L 3425 3897 
Q 3066 4069 2747 4153 
Q 2428 4238 2131 4238 
Q 1616 4238 1336 4038 
Q 1056 3838 1056 3469 
Q 1056 3159 1242 3001 
Q 1428 2844 1947 2747 
L 2328 2669 
Q 3034 2534 3370 2195 
Q 3706 1856 3706 1288 
Q 3706 609 3251 259 
Q 2797 -91 1919 -91 
Q 1588 -91 1214 -16 
Q 841 59 441 206 
L 441 856 
Q 825 641 1194 531 
Q 1563 422 1919 422 
Q 2459 422 2753 634 
Q 3047 847 3047 1241 
Q 3047 1584 2836 1778 
Q 2625 1972 2144 2069 
L 1759 2144 
Q 1053 2284 737 2584 
Q 422 2884 422 3419 
Q 422 4038 858 4394 
Q 1294 4750 2059 4750 
Q 2388 4750 2728 4690 
Q 3069 4631 3425 4513 
z
" transform="scale(0.015625)"/>
       <path id="DejaVuSans-68" d="M 3513 2113 
L 3513 0 
L 2938 0 
L 2938 2094 
Q 2938 2591 2744 2837 
Q 2550 3084 2163 3084 
Q 1697 3084 1428 2787 
Q 1159 2491 1159 1978 
L 1159 0 
L 581 0 
L 581 4863 
L 1159 4863 
L 1159 2956 
Q 1366 3272 1645 3428 
Q 1925 3584 2291 3584 
Q 2894 3584 3203 3211 
Q 3513 2838 3513 2113 
z
" transform="scale(0.015625)"/>
      </defs>
      <use xlink:href="#DejaVuSans-41"/>
      <use xlink:href="#DejaVuSans-6e" x="68.408203"/>
      <use xlink:href="#DejaVuSans-61" x="131.787109"/>
      <use xlink:href="#DejaVuSans-6c" x="193.066406"/>
      <use xlink:href="#DejaVuSans-79" x="220.849609"/>
      <use xlink:href="#DejaVuSans-74" x="280.029297"/>
      <use xlink:href="#DejaVuSans-69" x="319.238281"/>
      <use xlink:href="#DejaVuSans-63" x="347.021484"/>
      <use xlink:href="#DejaVuSans-20" x="402.001953"/>
      <use xlink:href="#DejaVuSans-53" x="433.789062"/>
      <use xlink:href="#DejaVuSans-6f" x="497.265625"/>
      <use xlink:href="#DejaVuSans-6e" x="558.447266"/>
      <use xlink:href="#DejaVuSans-6e" x="621.826172"/>
      <use xlink:href="#DejaVuSans-65" x="685.205078"/>
      <use xlink:href="#DejaVuSans-6e" x="746.728516"/>
      <use xlink:href="#DejaVuSans-73" x="810.107422"/>
      <use xlink:href="#DejaVuSans-63" x="862.207031"/>
      <use xlink:href="#DejaVuSans-68" x="917.1875"/>
      <use xlink:href="#DejaVuSans-65" x="980.566406"/>
      <use xlink:href="#DejaVuSans-69" x="1042.089844"/>
      <use xlink:href="#DejaVuSans-6e" x="1069.873047"/>
     </g>
    </g>
   </g>
  </g>
 </g>
 <defs>
  <clipPath id="p972819f452">
   <rect x="51.05" y="26.64" width="292.611538" height="194.366154"/>
  </clipPath>
 </defs>
</svg>
