<?xml version="1.0" encoding="utf-8" standalone="no"?>
<!DOCTYPE svg PUBLIC "-//W3C//DTD SVG 1.1//EN"
  "http://www.w3.org/Graphics/SVG/1.1/DTD/svg11.dtd">
<svg xmlns:xlink="http://www.w3.org/1999/xlink" width="354.461538pt" height="265.846154pt" viewBox="0 0 354.461538 265.846154" xmlns="http://www.w3.org/2000/svg" version="1.1">
 <metadata>
  <rdf:RDF xmlns:dc="http://purl.org/dc/elements/1.1/" xmlns:cc="http://creativecommons.org/ns#" xmlns:rdf="http://www.w3.org/1999/02/22-rdf-syntax-ns#">
   <cc:Work>
    <dc:type rdf:resource="http://purl.org/dc/dcmitype/StillImage"/>
    <dc:date>2024-08-09T17:19:16.698393</dc:date>
    <dc:format>image/svg+xml</dc:format>
    <dc:creator>
     <cc:Agent>
      <dc:title>Matplotlib v3.7.1, https://matplotlib.org/</dc:title>
     </cc:Agent>
    </dc:creator>
   </cc:Work>
  </rdf:RDF>
 </metadata>
 <defs>
  <style type="text/css">*{stroke-linejoin: round; stroke-linecap: butt}</style>
 </defs>
 <g id="figure_1">
  <g id="patch_1">
   <path d="M 0 265.846154 
L 354.461538 265.846154 
L 354.461538 0 
L 0 0 
z
" style="fill: #ffffff"/>
  </g>
  <g id="axes_1">
   <g id="patch_2">
    <path d="M 56.18 219.688654 
L 343.661538 219.688654 
L 343.661538 26.64 
L 56.18 26.64 
z
" style="fill: #ffffff"/>
   </g>
   <g id="PolyCollection_1">
    <defs>
     <path id="me3d83936cc" d="M 56.18 -142.328697 
L 56.18 -54.932439 
L 56.18 -54.932439 
L 62.04697 -54.932439 
L 62.04697 -55.214195 
L 67.91394 -55.214195 
L 67.91394 -57.023329 
L 73.780911 -57.023329 
L 73.780911 -59.120172 
L 79.647881 -59.120172 
L 79.647881 -59.83456 
L 85.514851 -59.83456 
L 85.514851 -60.694786 
L 91.381821 -60.694786 
L 91.381821 -62.15399 
L 97.248791 -62.15399 
L 97.248791 -64.681434 
L 103.115761 -64.681434 
L 103.115761 -66.125391 
L 108.982732 -66.125391 
L 108.982732 -67.938371 
L 114.849702 -67.938371 
L 114.849702 -70.021058 
L 120.716672 -70.021058 
L 120.716672 -73.020767 
L 126.583642 -73.020767 
L 126.583642 -74.34121 
L 132.450612 -74.34121 
L 132.450612 -76.518482 
L 138.317582 -76.518482 
L 138.317582 -78.287203 
L 144.184553 -78.287203 
L 144.184553 -80.862378 
L 150.051523 -80.862378 
L 150.051523 -80.805489 
L 155.918493 -80.805489 
L 155.918493 -84.197817 
L 161.785463 -84.197817 
L 161.785463 -86.131557 
L 167.652433 -86.131557 
L 167.652433 -87.748481 
L 173.519403 -87.748481 
L 173.519403 -90.235685 
L 179.386374 -90.235685 
L 179.386374 -92.672652 
L 185.253344 -92.672652 
L 185.253344 -95.752444 
L 191.120314 -95.752444 
L 191.120314 -95.478409 
L 196.987284 -95.478409 
L 196.987284 -99.616409 
L 202.854254 -99.616409 
L 202.854254 -100.580778 
L 208.721224 -100.580778 
L 208.721224 -102.778058 
L 214.588195 -102.778058 
L 214.588195 -104.782296 
L 220.455165 -104.782296 
L 220.455165 -108.595998 
L 226.322135 -108.595998 
L 226.322135 -109.361359 
L 232.189105 -109.361359 
L 232.189105 -112.049029 
L 238.056075 -112.049029 
L 238.056075 -113.446205 
L 243.923046 -113.446205 
L 243.923046 -115.847243 
L 249.790016 -115.847243 
L 249.790016 -118.12523 
L 255.656986 -118.12523 
L 255.656986 -119.190268 
L 261.523956 -119.190268 
L 261.523956 -121.20929 
L 267.390926 -121.20929 
L 267.390926 -124.406027 
L 273.257896 -124.406027 
L 273.257896 -125.55424 
L 279.124867 -125.55424 
L 279.124867 -127.517866 
L 284.991837 -127.517866 
L 284.991837 -128.709136 
L 290.858807 -128.709136 
L 290.858807 -130.303469 
L 296.725777 -130.303469 
L 296.725777 -133.208396 
L 302.592747 -133.208396 
L 302.592747 -134.573701 
L 308.459717 -134.573701 
L 308.459717 -136.891588 
L 314.326688 -136.891588 
L 314.326688 -137.704546 
L 320.193658 -137.704546 
L 320.193658 -139.288822 
L 326.060628 -139.288822 
L 326.060628 -140.286796 
L 331.927598 -140.286796 
L 331.927598 -141.970474 
L 337.794568 -141.970474 
L 337.794568 -143.034957 
L 343.661538 -143.034957 
L 343.661538 -230.431215 
L 343.661538 -230.431215 
L 337.794568 -230.431215 
L 337.794568 -229.366732 
L 331.927598 -229.366732 
L 331.927598 -227.683054 
L 326.060628 -227.683054 
L 326.060628 -226.68508 
L 320.193658 -226.68508 
L 320.193658 -225.100804 
L 314.326688 -225.100804 
L 314.326688 -224.287846 
L 308.459717 -224.287846 
L 308.459717 -221.969959 
L 302.592747 -221.969959 
L 302.592747 -220.604654 
L 296.725777 -220.604654 
L 296.725777 -217.699727 
L 290.858807 -217.699727 
L 290.858807 -216.105394 
L 284.991837 -216.105394 
L 284.991837 -214.914125 
L 279.124867 -214.914125 
L 279.124867 -212.950498 
L 273.257896 -212.950498 
L 273.257896 -211.802285 
L 267.390926 -211.802285 
L 267.390926 -208.605548 
L 261.523956 -208.605548 
L 261.523956 -206.586526 
L 255.656986 -206.586526 
L 255.656986 -205.521488 
L 249.790016 -205.521488 
L 249.790016 -203.243501 
L 243.923046 -203.243501 
L 243.923046 -200.842463 
L 238.056075 -200.842463 
L 238.056075 -199.445287 
L 232.189105 -199.445287 
L 232.189105 -196.757617 
L 226.322135 -196.757617 
L 226.322135 -195.992256 
L 220.455165 -195.992256 
L 220.455165 -192.178554 
L 214.588195 -192.178554 
L 214.588195 -190.174316 
L 208.721224 -190.174316 
L 208.721224 -187.977036 
L 202.854254 -187.977036 
L 202.854254 -187.012667 
L 196.987284 -187.012667 
L 196.987284 -182.874667 
L 191.120314 -182.874667 
L 191.120314 -183.148702 
L 185.253344 -183.148702 
L 185.253344 -180.06891 
L 179.386374 -180.06891 
L 179.386374 -177.631943 
L 173.519403 -177.631943 
L 173.519403 -175.144739 
L 167.652433 -175.144739 
L 167.652433 -173.527815 
L 161.785463 -173.527815 
L 161.785463 -171.594075 
L 155.918493 -171.594075 
L 155.918493 -168.201747 
L 150.051523 -168.201747 
L 150.051523 -168.258636 
L 144.184553 -168.258636 
L 144.184553 -165.683461 
L 138.317582 -165.683461 
L 138.317582 -163.91474 
L 132.450612 -163.91474 
L 132.450612 -161.737468 
L 126.583642 -161.737468 
L 126.583642 -160.417025 
L 120.716672 -160.417025 
L 120.716672 -157.417316 
L 114.849702 -157.417316 
L 114.849702 -155.334629 
L 108.982732 -155.334629 
L 108.982732 -153.521649 
L 103.115761 -153.521649 
L 103.115761 -152.077692 
L 97.248791 -152.077692 
L 97.248791 -149.550248 
L 91.381821 -149.550248 
L 91.381821 -148.091044 
L 85.514851 -148.091044 
L 85.514851 -147.230818 
L 79.647881 -147.230818 
L 79.647881 -146.51643 
L 73.780911 -146.51643 
L 73.780911 -144.419587 
L 67.91394 -144.419587 
L 67.91394 -142.610453 
L 62.04697 -142.610453 
L 62.04697 -142.328697 
L 56.18 -142.328697 
L 56.18 -142.328697 
z
" style="stroke: #1f77b4; stroke-opacity: 0.5"/>
    </defs>
    <g clip-path="url(#p9f0d149925)">
     <use xlink:href="#me3d83936cc" x="0" y="265.846154" style="fill: #1f77b4; fill-opacity: 0.5; stroke: #1f77b4; stroke-opacity: 0.5"/>
    </g>
   </g>
   <g id="PolyCollection_2">
    <defs>
     <path id="me249a96244" d="M 56.18 -139.629701 
L 56.18 -62.767856 
L 56.18 -62.767856 
L 62.04697 -62.767856 
L 62.04697 -63.305404 
L 67.91394 -63.305404 
L 67.91394 -64.45596 
L 73.780911 -64.45596 
L 73.780911 -67.588183 
L 79.647881 -67.588183 
L 79.647881 -68.664353 
L 85.514851 -68.664353 
L 85.514851 -71.338853 
L 91.381821 -71.338853 
L 91.381821 -70.465478 
L 97.248791 -70.465478 
L 97.248791 -73.289498 
L 103.115761 -73.289498 
L 103.115761 -76.326289 
L 108.982732 -76.326289 
L 108.982732 -76.935031 
L 114.849702 -76.935031 
L 114.849702 -78.038492 
L 120.716672 -78.038492 
L 120.716672 -81.226144 
L 126.583642 -81.226144 
L 126.583642 -83.211585 
L 132.450612 -83.211585 
L 132.450612 -85.948904 
L 138.317582 -85.948904 
L 138.317582 -86.670864 
L 144.184553 -86.670864 
L 144.184553 -89.051671 
L 150.051523 -89.051671 
L 150.051523 -90.556114 
L 155.918493 -90.556114 
L 155.918493 -92.365623 
L 161.785463 -92.365623 
L 161.785463 -95.525852 
L 167.652433 -95.525852 
L 167.652433 -95.640436 
L 173.519403 -95.640436 
L 173.519403 -98.580285 
L 179.386374 -98.580285 
L 179.386374 -101.214338 
L 185.253344 -101.214338 
L 185.253344 -103.126391 
L 191.120314 -103.126391 
L 191.120314 -104.130157 
L 196.987284 -104.130157 
L 196.987284 -106.557531 
L 202.854254 -106.557531 
L 202.854254 -108.408102 
L 208.721224 -108.408102 
L 208.721224 -110.217926 
L 214.588195 -110.217926 
L 214.588195 -112.646221 
L 220.455165 -112.646221 
L 220.455165 -114.249741 
L 226.322135 -114.249741 
L 226.322135 -116.328006 
L 232.189105 -116.328006 
L 232.189105 -118.903294 
L 238.056075 -118.903294 
L 238.056075 -121.123979 
L 243.923046 -121.123979 
L 243.923046 -123.008679 
L 249.790016 -123.008679 
L 249.790016 -125.26223 
L 255.656986 -125.26223 
L 255.656986 -126.268259 
L 261.523956 -126.268259 
L 261.523956 -128.845078 
L 267.390926 -128.845078 
L 267.390926 -130.451854 
L 273.257896 -130.451854 
L 273.257896 -131.89711 
L 279.124867 -131.89711 
L 279.124867 -133.263971 
L 284.991837 -133.263971 
L 284.991837 -134.813682 
L 290.858807 -134.813682 
L 290.858807 -136.566347 
L 296.725777 -136.566347 
L 296.725777 -138.404584 
L 302.592747 -138.404584 
L 302.592747 -141.270052 
L 308.459717 -141.270052 
L 308.459717 -142.043472 
L 314.326688 -142.043472 
L 314.326688 -145.575682 
L 320.193658 -145.575682 
L 320.193658 -145.718162 
L 326.060628 -145.718162 
L 326.060628 -148.518296 
L 331.927598 -148.518296 
L 331.927598 -150.334432 
L 337.794568 -150.334432 
L 337.794568 -150.101903 
L 343.661538 -150.101903 
L 343.661538 -226.963748 
L 343.661538 -226.963748 
L 337.794568 -226.963748 
L 337.794568 -227.196277 
L 331.927598 -227.196277 
L 331.927598 -225.380141 
L 326.060628 -225.380141 
L 326.060628 -222.580007 
L 320.193658 -222.580007 
L 320.193658 -222.437527 
L 314.326688 -222.437527 
L 314.326688 -218.905317 
L 308.459717 -218.905317 
L 308.459717 -218.131898 
L 302.592747 -218.131898 
L 302.592747 -215.266429 
L 296.725777 -215.266429 
L 296.725777 -213.428192 
L 290.858807 -213.428192 
L 290.858807 -211.675528 
L 284.991837 -211.675528 
L 284.991837 -210.125816 
L 279.124867 -210.125816 
L 279.124867 -208.758956 
L 273.257896 -208.758956 
L 273.257896 -207.313699 
L 267.390926 -207.313699 
L 267.390926 -205.706923 
L 261.523956 -205.706923 
L 261.523956 -203.130104 
L 255.656986 -203.130104 
L 255.656986 -202.124075 
L 249.790016 -202.124075 
L 249.790016 -199.870524 
L 243.923046 -199.870524 
L 243.923046 -197.985825 
L 238.056075 -197.985825 
L 238.056075 -195.765139 
L 232.189105 -195.765139 
L 232.189105 -193.189851 
L 226.322135 -193.189851 
L 226.322135 -191.111586 
L 220.455165 -191.111586 
L 220.455165 -189.508066 
L 214.588195 -189.508066 
L 214.588195 -187.079771 
L 208.721224 -187.079771 
L 208.721224 -185.269947 
L 202.854254 -185.269947 
L 202.854254 -183.419376 
L 196.987284 -183.419376 
L 196.987284 -180.992002 
L 191.120314 -180.992002 
L 191.120314 -179.988236 
L 185.253344 -179.988236 
L 185.253344 -178.076183 
L 179.386374 -178.076183 
L 179.386374 -175.442131 
L 173.519403 -175.442131 
L 173.519403 -172.502282 
L 167.652433 -172.502282 
L 167.652433 -172.387697 
L 161.785463 -172.387697 
L 161.785463 -169.227468 
L 155.918493 -169.227468 
L 155.918493 -167.41796 
L 150.051523 -167.41796 
L 150.051523 -165.913517 
L 144.184553 -165.913517 
L 144.184553 -163.532709 
L 138.317582 -163.532709 
L 138.317582 -162.810749 
L 132.450612 -162.810749 
L 132.450612 -160.07343 
L 126.583642 -160.07343 
L 126.583642 -158.087989 
L 120.716672 -158.087989 
L 120.716672 -154.900337 
L 114.849702 -154.900337 
L 114.849702 -153.796876 
L 108.982732 -153.796876 
L 108.982732 -153.188134 
L 103.115761 -153.188134 
L 103.115761 -150.151343 
L 97.248791 -150.151343 
L 97.248791 -147.327324 
L 91.381821 -147.327324 
L 91.381821 -148.200698 
L 85.514851 -148.200698 
L 85.514851 -145.526198 
L 79.647881 -145.526198 
L 79.647881 -144.450028 
L 73.780911 -144.450028 
L 73.780911 -141.317805 
L 67.91394 -141.317805 
L 67.91394 -140.167249 
L 62.04697 -140.167249 
L 62.04697 -139.629701 
L 56.18 -139.629701 
L 56.18 -139.629701 
z
" style="stroke: #ff7f0e; stroke-opacity: 0.5"/>
    </defs>
    <g clip-path="url(#p9f0d149925)">
     <use xlink:href="#me249a96244" x="0" y="265.846154" style="fill: #ff7f0e; fill-opacity: 0.5; stroke: #ff7f0e; stroke-opacity: 0.5"/>
    </g>
   </g>
   <g id="matplotlib.axis_1">
    <g id="xtick_1">
     <g id="line2d_1">
      <path d="M 81.568478 219.688654 
L 81.568478 26.64 
" clip-path="url(#p9f0d149925)" style="fill: none; stroke: #b0b0b0; stroke-width: 0.8; stroke-linecap: square"/>
     </g>
     <g id="line2d_2">
      <defs>
       <path id="m4cade56360" d="M 0 0 
L 0 3.5 
" style="stroke: #000000; stroke-width: 0.8"/>
      </defs>
      <g>
       <use xlink:href="#m4cade56360" x="81.568478" y="219.688654" style="stroke: #000000; stroke-width: 0.8"/>
      </g>
     </g>
     <g id="text_1">
      <!-- −1.5 -->
      <g transform="translate(69.427072 234.287091) scale(0.1 -0.1)">
       <defs>
        <path id="DejaVuSans-2212" d="M 678 2272 
L 4684 2272 
L 4684 1741 
L 678 1741 
L 678 2272 
z
" transform="scale(0.015625)"/>
        <path id="DejaVuSans-31" d="M 794 531 
L 1825 531 
L 1825 4091 
L 703 3866 
L 703 4441 
L 1819 4666 
L 2450 4666 
L 2450 531 
L 3481 531 
L 3481 0 
L 794 0 
L 794 531 
z
" transform="scale(0.015625)"/>
        <path id="DejaVuSans-2e" d="M 684 794 
L 1344 794 
L 1344 0 
L 684 0 
L 684 794 
z
" transform="scale(0.015625)"/>
        <path id="DejaVuSans-35" d="M 691 4666 
L 3169 4666 
L 3169 4134 
L 1269 4134 
L 1269 2991 
Q 1406 3038 1543 3061 
Q 1681 3084 1819 3084 
Q 2600 3084 3056 2656 
Q 3513 2228 3513 1497 
Q 3513 744 3044 326 
Q 2575 -91 1722 -91 
Q 1428 -91 1123 -41 
Q 819 9 494 109 
L 494 744 
Q 775 591 1075 516 
Q 1375 441 1709 441 
Q 2250 441 2565 725 
Q 2881 1009 2881 1497 
Q 2881 1984 2565 2268 
Q 2250 2553 1709 2553 
Q 1456 2553 1204 2497 
Q 953 2441 691 2322 
L 691 4666 
z
" transform="scale(0.015625)"/>
       </defs>
       <use xlink:href="#DejaVuSans-2212"/>
       <use xlink:href="#DejaVuSans-31" x="83.789062"/>
       <use xlink:href="#DejaVuSans-2e" x="147.412109"/>
       <use xlink:href="#DejaVuSans-35" x="179.199219"/>
      </g>
     </g>
    </g>
    <g id="xtick_2">
     <g id="line2d_3">
      <path d="M 121.090603 219.688654 
L 121.090603 26.64 
" clip-path="url(#p9f0d149925)" style="fill: none; stroke: #b0b0b0; stroke-width: 0.8; stroke-linecap: square"/>
     </g>
     <g id="line2d_4">
      <g>
       <use xlink:href="#m4cade56360" x="121.090603" y="219.688654" style="stroke: #000000; stroke-width: 0.8"/>
      </g>
     </g>
     <g id="text_2">
      <!-- −1.0 -->
      <g transform="translate(108.949197 234.287091) scale(0.1 -0.1)">
       <defs>
        <path id="DejaVuSans-30" d="M 2034 4250 
Q 1547 4250 1301 3770 
Q 1056 3291 1056 2328 
Q 1056 1369 1301 889 
Q 1547 409 2034 409 
Q 2525 409 2770 889 
Q 3016 1369 3016 2328 
Q 3016 3291 2770 3770 
Q 2525 4250 2034 4250 
z
M 2034 4750 
Q 2819 4750 3233 4129 
Q 3647 3509 3647 2328 
Q 3647 1150 3233 529 
Q 2819 -91 2034 -91 
Q 1250 -91 836 529 
Q 422 1150 422 2328 
Q 422 3509 836 4129 
Q 1250 4750 2034 4750 
z
" transform="scale(0.015625)"/>
       </defs>
       <use xlink:href="#DejaVuSans-2212"/>
       <use xlink:href="#DejaVuSans-31" x="83.789062"/>
       <use xlink:href="#DejaVuSans-2e" x="147.412109"/>
       <use xlink:href="#DejaVuSans-30" x="179.199219"/>
      </g>
     </g>
    </g>
    <g id="xtick_3">
     <g id="line2d_5">
      <path d="M 160.612729 219.688654 
L 160.612729 26.64 
" clip-path="url(#p9f0d149925)" style="fill: none; stroke: #b0b0b0; stroke-width: 0.8; stroke-linecap: square"/>
     </g>
     <g id="line2d_6">
      <g>
       <use xlink:href="#m4cade56360" x="160.612729" y="219.688654" style="stroke: #000000; stroke-width: 0.8"/>
      </g>
     </g>
     <g id="text_3">
      <!-- −0.5 -->
      <g transform="translate(148.471323 234.287091) scale(0.1 -0.1)">
       <use xlink:href="#DejaVuSans-2212"/>
       <use xlink:href="#DejaVuSans-30" x="83.789062"/>
       <use xlink:href="#DejaVuSans-2e" x="147.412109"/>
       <use xlink:href="#DejaVuSans-35" x="179.199219"/>
      </g>
     </g>
    </g>
    <g id="xtick_4">
     <g id="line2d_7">
      <path d="M 200.134855 219.688654 
L 200.134855 26.64 
" clip-path="url(#p9f0d149925)" style="fill: none; stroke: #b0b0b0; stroke-width: 0.8; stroke-linecap: square"/>
     </g>
     <g id="line2d_8">
      <g>
       <use xlink:href="#m4cade56360" x="200.134855" y="219.688654" style="stroke: #000000; stroke-width: 0.8"/>
      </g>
     </g>
     <g id="text_4">
      <!-- 0.0 -->
      <g transform="translate(192.183292 234.287091) scale(0.1 -0.1)">
       <use xlink:href="#DejaVuSans-30"/>
       <use xlink:href="#DejaVuSans-2e" x="63.623047"/>
       <use xlink:href="#DejaVuSans-30" x="95.410156"/>
      </g>
     </g>
    </g>
    <g id="xtick_5">
     <g id="line2d_9">
      <path d="M 239.65698 219.688654 
L 239.65698 26.64 
" clip-path="url(#p9f0d149925)" style="fill: none; stroke: #b0b0b0; stroke-width: 0.8; stroke-linecap: square"/>
     </g>
     <g id="line2d_10">
      <g>
       <use xlink:href="#m4cade56360" x="239.65698" y="219.688654" style="stroke: #000000; stroke-width: 0.8"/>
      </g>
     </g>
     <g id="text_5">
      <!-- 0.5 -->
      <g transform="translate(231.705418 234.287091) scale(0.1 -0.1)">
       <use xlink:href="#DejaVuSans-30"/>
       <use xlink:href="#DejaVuSans-2e" x="63.623047"/>
       <use xlink:href="#DejaVuSans-35" x="95.410156"/>
      </g>
     </g>
    </g>
    <g id="xtick_6">
     <g id="line2d_11">
      <path d="M 279.179106 219.688654 
L 279.179106 26.64 
" clip-path="url(#p9f0d149925)" style="fill: none; stroke: #b0b0b0; stroke-width: 0.8; stroke-linecap: square"/>
     </g>
     <g id="line2d_12">
      <g>
       <use xlink:href="#m4cade56360" x="279.179106" y="219.688654" style="stroke: #000000; stroke-width: 0.8"/>
      </g>
     </g>
     <g id="text_6">
      <!-- 1.0 -->
      <g transform="translate(271.227543 234.287091) scale(0.1 -0.1)">
       <use xlink:href="#DejaVuSans-31"/>
       <use xlink:href="#DejaVuSans-2e" x="63.623047"/>
       <use xlink:href="#DejaVuSans-30" x="95.410156"/>
      </g>
     </g>
    </g>
    <g id="xtick_7">
     <g id="line2d_13">
      <path d="M 318.701231 219.688654 
L 318.701231 26.64 
" clip-path="url(#p9f0d149925)" style="fill: none; stroke: #b0b0b0; stroke-width: 0.8; stroke-linecap: square"/>
     </g>
     <g id="line2d_14">
      <g>
       <use xlink:href="#m4cade56360" x="318.701231" y="219.688654" style="stroke: #000000; stroke-width: 0.8"/>
      </g>
     </g>
     <g id="text_7">
      <!-- 1.5 -->
      <g transform="translate(310.749669 234.287091) scale(0.1 -0.1)">
       <use xlink:href="#DejaVuSans-31"/>
       <use xlink:href="#DejaVuSans-2e" x="63.623047"/>
       <use xlink:href="#DejaVuSans-35" x="95.410156"/>
      </g>
     </g>
    </g>
    <g id="text_8">
     <!-- True $\mathrm{t}\bar{\mathrm{t}}$ $\varphi$ -->
     <g transform="translate(178.120769 249.366779) scale(0.1 -0.1)">
      <defs>
       <path id="DejaVuSans-54" d="M -19 4666 
L 3928 4666 
L 3928 4134 
L 2272 4134 
L 2272 0 
L 1638 0 
L 1638 4134 
L -19 4134 
L -19 4666 
z
" transform="scale(0.015625)"/>
       <path id="DejaVuSans-72" d="M 2631 2963 
Q 2534 3019 2420 3045 
Q 2306 3072 2169 3072 
Q 1681 3072 1420 2755 
Q 1159 2438 1159 1844 
L 1159 0 
L 581 0 
L 581 3500 
L 1159 3500 
L 1159 2956 
Q 1341 3275 1631 3429 
Q 1922 3584 2338 3584 
Q 2397 3584 2469 3576 
Q 2541 3569 2628 3553 
L 2631 2963 
z
" transform="scale(0.015625)"/>
       <path id="DejaVuSans-75" d="M 544 1381 
L 544 3500 
L 1119 3500 
L 1119 1403 
Q 1119 906 1312 657 
Q 1506 409 1894 409 
Q 2359 409 2629 706 
Q 2900 1003 2900 1516 
L 2900 3500 
L 3475 3500 
L 3475 0 
L 2900 0 
L 2900 538 
Q 2691 219 2414 64 
Q 2138 -91 1772 -91 
Q 1169 -91 856 284 
Q 544 659 544 1381 
z
M 1991 3584 
L 1991 3584 
z
" transform="scale(0.015625)"/>
       <path id="DejaVuSans-65" d="M 3597 1894 
L 3597 1613 
L 953 1613 
Q 991 1019 1311 708 
Q 1631 397 2203 397 
Q 2534 397 2845 478 
Q 3156 559 3463 722 
L 3463 178 
Q 3153 47 2828 -22 
Q 2503 -91 2169 -91 
Q 1331 -91 842 396 
Q 353 884 353 1716 
Q 353 2575 817 3079 
Q 1281 3584 2069 3584 
Q 2775 3584 3186 3129 
Q 3597 2675 3597 1894 
z
M 3022 2063 
Q 3016 2534 2758 2815 
Q 2500 3097 2075 3097 
Q 1594 3097 1305 2825 
Q 1016 2553 972 2059 
L 3022 2063 
z
" transform="scale(0.015625)"/>
       <path id="DejaVuSans-20" transform="scale(0.015625)"/>
       <path id="DejaVuSans-74" d="M 1172 4494 
L 1172 3500 
L 2356 3500 
L 2356 3053 
L 1172 3053 
L 1172 1153 
Q 1172 725 1289 603 
Q 1406 481 1766 481 
L 2356 481 
L 2356 0 
L 1766 0 
Q 1100 0 847 248 
Q 594 497 594 1153 
L 594 3053 
L 172 3053 
L 172 3500 
L 594 3500 
L 594 4494 
L 1172 4494 
z
" transform="scale(0.015625)"/>
       <path id="DejaVuSans-304" d="M -2522 4769 
L -653 4769 
L -653 4306 
L -2522 4306 
L -2522 4769 
z
" transform="scale(0.015625)"/>
       <path id="DejaVuSans-Oblique-3c6" d="M 2969 3034 
Q 2766 3034 2675 2581 
L 2259 438 
Q 2553 438 2916 763 
Q 3244 1053 3375 1750 
Q 3497 2400 3300 2750 
Q 3138 3034 2969 3034 
z
M 3063 3525 
Q 3513 3525 3819 3113 
Q 4147 2672 3981 1750 
Q 3828 903 3291 400 
Q 2784 -75 2159 -75 
L 1916 -1331 
L 1344 -1331 
L 1588 -78 
Q 963 -78 641 400 
Q 309 888 475 1747 
Q 647 2641 1166 3097 
Q 1556 3438 2084 3525 
L 1984 3016 
Q 1766 2944 1538 2700 
Q 1194 2341 1081 1747 
Q 963 1116 1156 756 
Q 1334 434 1688 434 
L 2103 2581 
Q 2288 3525 3063 3525 
z
" transform="scale(0.015625)"/>
      </defs>
      <use xlink:href="#DejaVuSans-54" transform="translate(0 0.046875)"/>
      <use xlink:href="#DejaVuSans-72" transform="translate(61.083984 0.046875)"/>
      <use xlink:href="#DejaVuSans-75" transform="translate(102.197266 0.046875)"/>
      <use xlink:href="#DejaVuSans-65" transform="translate(165.576172 0.046875)"/>
      <use xlink:href="#DejaVuSans-20" transform="translate(227.099609 0.046875)"/>
      <use xlink:href="#DejaVuSans-74" transform="translate(258.886719 0.046875)"/>
      <use xlink:href="#DejaVuSans-304" transform="translate(347.304199 15.484375)"/>
      <use xlink:href="#DejaVuSans-74" transform="translate(298.095703 0.046875)"/>
      <use xlink:href="#DejaVuSans-20" transform="translate(337.304688 0.046875)"/>
      <use xlink:href="#DejaVuSans-Oblique-3c6" transform="translate(369.091797 0.046875)"/>
     </g>
    </g>
   </g>
   <g id="matplotlib.axis_2">
    <g id="ytick_1">
     <g id="line2d_15">
      <path d="M 56.18 211.567864 
L 343.661538 211.567864 
" clip-path="url(#p9f0d149925)" style="fill: none; stroke: #b0b0b0; stroke-width: 0.8; stroke-linecap: square"/>
     </g>
     <g id="line2d_16">
      <defs>
       <path id="m008bae1634" d="M 0 0 
L -3.5 0 
" style="stroke: #000000; stroke-width: 0.8"/>
      </defs>
      <g>
       <use xlink:href="#m008bae1634" x="56.18" y="211.567864" style="stroke: #000000; stroke-width: 0.8"/>
      </g>
     </g>
     <g id="text_9">
      <!-- −2.0 -->
      <g transform="translate(24.897187 215.367083) scale(0.1 -0.1)">
       <defs>
        <path id="DejaVuSans-32" d="M 1228 531 
L 3431 531 
L 3431 0 
L 469 0 
L 469 531 
Q 828 903 1448 1529 
Q 2069 2156 2228 2338 
Q 2531 2678 2651 2914 
Q 2772 3150 2772 3378 
Q 2772 3750 2511 3984 
Q 2250 4219 1831 4219 
Q 1534 4219 1204 4116 
Q 875 4013 500 3803 
L 500 4441 
Q 881 4594 1212 4672 
Q 1544 4750 1819 4750 
Q 2544 4750 2975 4387 
Q 3406 4025 3406 3419 
Q 3406 3131 3298 2873 
Q 3191 2616 2906 2266 
Q 2828 2175 2409 1742 
Q 1991 1309 1228 531 
z
" transform="scale(0.015625)"/>
       </defs>
       <use xlink:href="#DejaVuSans-2212"/>
       <use xlink:href="#DejaVuSans-32" x="83.789062"/>
       <use xlink:href="#DejaVuSans-2e" x="147.412109"/>
       <use xlink:href="#DejaVuSans-30" x="179.199219"/>
      </g>
     </g>
    </g>
    <g id="ytick_2">
     <g id="line2d_17">
      <path d="M 56.18 189.782776 
L 343.661538 189.782776 
" clip-path="url(#p9f0d149925)" style="fill: none; stroke: #b0b0b0; stroke-width: 0.8; stroke-linecap: square"/>
     </g>
     <g id="line2d_18">
      <g>
       <use xlink:href="#m008bae1634" x="56.18" y="189.782776" style="stroke: #000000; stroke-width: 0.8"/>
      </g>
     </g>
     <g id="text_10">
      <!-- −1.5 -->
      <g transform="translate(24.897187 193.581995) scale(0.1 -0.1)">
       <use xlink:href="#DejaVuSans-2212"/>
       <use xlink:href="#DejaVuSans-31" x="83.789062"/>
       <use xlink:href="#DejaVuSans-2e" x="147.412109"/>
       <use xlink:href="#DejaVuSans-35" x="179.199219"/>
      </g>
     </g>
    </g>
    <g id="ytick_3">
     <g id="line2d_19">
      <path d="M 56.18 167.997688 
L 343.661538 167.997688 
" clip-path="url(#p9f0d149925)" style="fill: none; stroke: #b0b0b0; stroke-width: 0.8; stroke-linecap: square"/>
     </g>
     <g id="line2d_20">
      <g>
       <use xlink:href="#m008bae1634" x="56.18" y="167.997688" style="stroke: #000000; stroke-width: 0.8"/>
      </g>
     </g>
     <g id="text_11">
      <!-- −1.0 -->
      <g transform="translate(24.897187 171.796907) scale(0.1 -0.1)">
       <use xlink:href="#DejaVuSans-2212"/>
       <use xlink:href="#DejaVuSans-31" x="83.789062"/>
       <use xlink:href="#DejaVuSans-2e" x="147.412109"/>
       <use xlink:href="#DejaVuSans-30" x="179.199219"/>
      </g>
     </g>
    </g>
    <g id="ytick_4">
     <g id="line2d_21">
      <path d="M 56.18 146.2126 
L 343.661538 146.2126 
" clip-path="url(#p9f0d149925)" style="fill: none; stroke: #b0b0b0; stroke-width: 0.8; stroke-linecap: square"/>
     </g>
     <g id="line2d_22">
      <g>
       <use xlink:href="#m008bae1634" x="56.18" y="146.2126" style="stroke: #000000; stroke-width: 0.8"/>
      </g>
     </g>
     <g id="text_12">
      <!-- −0.5 -->
      <g transform="translate(24.897187 150.011819) scale(0.1 -0.1)">
       <use xlink:href="#DejaVuSans-2212"/>
       <use xlink:href="#DejaVuSans-30" x="83.789062"/>
       <use xlink:href="#DejaVuSans-2e" x="147.412109"/>
       <use xlink:href="#DejaVuSans-35" x="179.199219"/>
      </g>
     </g>
    </g>
    <g id="ytick_5">
     <g id="line2d_23">
      <path d="M 56.18 124.427512 
L 343.661538 124.427512 
" clip-path="url(#p9f0d149925)" style="fill: none; stroke: #b0b0b0; stroke-width: 0.8; stroke-linecap: square"/>
     </g>
     <g id="line2d_24">
      <g>
       <use xlink:href="#m008bae1634" x="56.18" y="124.427512" style="stroke: #000000; stroke-width: 0.8"/>
      </g>
     </g>
     <g id="text_13">
      <!-- 0.0 -->
      <g transform="translate(33.276875 128.226731) scale(0.1 -0.1)">
       <use xlink:href="#DejaVuSans-30"/>
       <use xlink:href="#DejaVuSans-2e" x="63.623047"/>
       <use xlink:href="#DejaVuSans-30" x="95.410156"/>
      </g>
     </g>
    </g>
    <g id="ytick_6">
     <g id="line2d_25">
      <path d="M 56.18 102.642424 
L 343.661538 102.642424 
" clip-path="url(#p9f0d149925)" style="fill: none; stroke: #b0b0b0; stroke-width: 0.8; stroke-linecap: square"/>
     </g>
     <g id="line2d_26">
      <g>
       <use xlink:href="#m008bae1634" x="56.18" y="102.642424" style="stroke: #000000; stroke-width: 0.8"/>
      </g>
     </g>
     <g id="text_14">
      <!-- 0.5 -->
      <g transform="translate(33.276875 106.441642) scale(0.1 -0.1)">
       <use xlink:href="#DejaVuSans-30"/>
       <use xlink:href="#DejaVuSans-2e" x="63.623047"/>
       <use xlink:href="#DejaVuSans-35" x="95.410156"/>
      </g>
     </g>
    </g>
    <g id="ytick_7">
     <g id="line2d_27">
      <path d="M 56.18 80.857335 
L 343.661538 80.857335 
" clip-path="url(#p9f0d149925)" style="fill: none; stroke: #b0b0b0; stroke-width: 0.8; stroke-linecap: square"/>
     </g>
     <g id="line2d_28">
      <g>
       <use xlink:href="#m008bae1634" x="56.18" y="80.857335" style="stroke: #000000; stroke-width: 0.8"/>
      </g>
     </g>
     <g id="text_15">
      <!-- 1.0 -->
      <g transform="translate(33.276875 84.656554) scale(0.1 -0.1)">
       <use xlink:href="#DejaVuSans-31"/>
       <use xlink:href="#DejaVuSans-2e" x="63.623047"/>
       <use xlink:href="#DejaVuSans-30" x="95.410156"/>
      </g>
     </g>
    </g>
    <g id="ytick_8">
     <g id="line2d_29">
      <path d="M 56.18 59.072247 
L 343.661538 59.072247 
" clip-path="url(#p9f0d149925)" style="fill: none; stroke: #b0b0b0; stroke-width: 0.8; stroke-linecap: square"/>
     </g>
     <g id="line2d_30">
      <g>
       <use xlink:href="#m008bae1634" x="56.18" y="59.072247" style="stroke: #000000; stroke-width: 0.8"/>
      </g>
     </g>
     <g id="text_16">
      <!-- 1.5 -->
      <g transform="translate(33.276875 62.871466) scale(0.1 -0.1)">
       <use xlink:href="#DejaVuSans-31"/>
       <use xlink:href="#DejaVuSans-2e" x="63.623047"/>
       <use xlink:href="#DejaVuSans-35" x="95.410156"/>
      </g>
     </g>
    </g>
    <g id="ytick_9">
     <g id="line2d_31">
      <path d="M 56.18 37.287159 
L 343.661538 37.287159 
" clip-path="url(#p9f0d149925)" style="fill: none; stroke: #b0b0b0; stroke-width: 0.8; stroke-linecap: square"/>
     </g>
     <g id="line2d_32">
      <g>
       <use xlink:href="#m008bae1634" x="56.18" y="37.287159" style="stroke: #000000; stroke-width: 0.8"/>
      </g>
     </g>
     <g id="text_17">
      <!-- 2.0 -->
      <g transform="translate(33.276875 41.086378) scale(0.1 -0.1)">
       <use xlink:href="#DejaVuSans-32"/>
       <use xlink:href="#DejaVuSans-2e" x="63.623047"/>
       <use xlink:href="#DejaVuSans-30" x="95.410156"/>
      </g>
     </g>
    </g>
    <g id="text_18">
     <!-- Response -->
     <g transform="translate(18.8175 147.178389) rotate(-90) scale(0.1 -0.1)">
      <defs>
       <path id="DejaVuSans-52" d="M 2841 2188 
Q 3044 2119 3236 1894 
Q 3428 1669 3622 1275 
L 4263 0 
L 3584 0 
L 2988 1197 
Q 2756 1666 2539 1819 
Q 2322 1972 1947 1972 
L 1259 1972 
L 1259 0 
L 628 0 
L 628 4666 
L 2053 4666 
Q 2853 4666 3247 4331 
Q 3641 3997 3641 3322 
Q 3641 2881 3436 2590 
Q 3231 2300 2841 2188 
z
M 1259 4147 
L 1259 2491 
L 2053 2491 
Q 2509 2491 2742 2702 
Q 2975 2913 2975 3322 
Q 2975 3731 2742 3939 
Q 2509 4147 2053 4147 
L 1259 4147 
z
" transform="scale(0.015625)"/>
       <path id="DejaVuSans-73" d="M 2834 3397 
L 2834 2853 
Q 2591 2978 2328 3040 
Q 2066 3103 1784 3103 
Q 1356 3103 1142 2972 
Q 928 2841 928 2578 
Q 928 2378 1081 2264 
Q 1234 2150 1697 2047 
L 1894 2003 
Q 2506 1872 2764 1633 
Q 3022 1394 3022 966 
Q 3022 478 2636 193 
Q 2250 -91 1575 -91 
Q 1294 -91 989 -36 
Q 684 19 347 128 
L 347 722 
Q 666 556 975 473 
Q 1284 391 1588 391 
Q 1994 391 2212 530 
Q 2431 669 2431 922 
Q 2431 1156 2273 1281 
Q 2116 1406 1581 1522 
L 1381 1569 
Q 847 1681 609 1914 
Q 372 2147 372 2553 
Q 372 3047 722 3315 
Q 1072 3584 1716 3584 
Q 2034 3584 2315 3537 
Q 2597 3491 2834 3397 
z
" transform="scale(0.015625)"/>
       <path id="DejaVuSans-70" d="M 1159 525 
L 1159 -1331 
L 581 -1331 
L 581 3500 
L 1159 3500 
L 1159 2969 
Q 1341 3281 1617 3432 
Q 1894 3584 2278 3584 
Q 2916 3584 3314 3078 
Q 3713 2572 3713 1747 
Q 3713 922 3314 415 
Q 2916 -91 2278 -91 
Q 1894 -91 1617 61 
Q 1341 213 1159 525 
z
M 3116 1747 
Q 3116 2381 2855 2742 
Q 2594 3103 2138 3103 
Q 1681 3103 1420 2742 
Q 1159 2381 1159 1747 
Q 1159 1113 1420 752 
Q 1681 391 2138 391 
Q 2594 391 2855 752 
Q 3116 1113 3116 1747 
z
" transform="scale(0.015625)"/>
       <path id="DejaVuSans-6f" d="M 1959 3097 
Q 1497 3097 1228 2736 
Q 959 2375 959 1747 
Q 959 1119 1226 758 
Q 1494 397 1959 397 
Q 2419 397 2687 759 
Q 2956 1122 2956 1747 
Q 2956 2369 2687 2733 
Q 2419 3097 1959 3097 
z
M 1959 3584 
Q 2709 3584 3137 3096 
Q 3566 2609 3566 1747 
Q 3566 888 3137 398 
Q 2709 -91 1959 -91 
Q 1206 -91 779 398 
Q 353 888 353 1747 
Q 353 2609 779 3096 
Q 1206 3584 1959 3584 
z
" transform="scale(0.015625)"/>
       <path id="DejaVuSans-6e" d="M 3513 2113 
L 3513 0 
L 2938 0 
L 2938 2094 
Q 2938 2591 2744 2837 
Q 2550 3084 2163 3084 
Q 1697 3084 1428 2787 
Q 1159 2491 1159 1978 
L 1159 0 
L 581 0 
L 581 3500 
L 1159 3500 
L 1159 2956 
Q 1366 3272 1645 3428 
Q 1925 3584 2291 3584 
Q 2894 3584 3203 3211 
Q 3513 2838 3513 2113 
z
" transform="scale(0.015625)"/>
      </defs>
      <use xlink:href="#DejaVuSans-52"/>
      <use xlink:href="#DejaVuSans-65" x="64.982422"/>
      <use xlink:href="#DejaVuSans-73" x="126.505859"/>
      <use xlink:href="#DejaVuSans-70" x="178.605469"/>
      <use xlink:href="#DejaVuSans-6f" x="242.082031"/>
      <use xlink:href="#DejaVuSans-6e" x="303.263672"/>
      <use xlink:href="#DejaVuSans-73" x="366.642578"/>
      <use xlink:href="#DejaVuSans-65" x="418.742188"/>
     </g>
    </g>
   </g>
   <g id="line2d_33">
    <path d="M 56.18 167.281274 
L 56.18 167.281274 
L 62.04697 167.281274 
L 62.04697 166.999518 
L 67.91394 166.999518 
L 67.91394 165.190384 
L 73.780911 165.190384 
L 73.780911 163.09354 
L 79.647881 163.09354 
L 79.647881 162.379152 
L 85.514851 162.379152 
L 85.514851 161.518927 
L 91.381821 161.518927 
L 91.381821 160.059722 
L 97.248791 160.059722 
L 97.248791 157.532278 
L 103.115761 157.532278 
L 103.115761 156.088321 
L 108.982732 156.088321 
L 108.982732 154.275341 
L 114.849702 154.275341 
L 114.849702 152.192655 
L 120.716672 152.192655 
L 120.716672 149.192945 
L 126.583642 149.192945 
L 126.583642 147.872502 
L 132.450612 147.872502 
L 132.450612 145.69523 
L 138.317582 145.69523 
L 138.317582 143.92651 
L 144.184553 143.92651 
L 144.184553 141.351335 
L 150.051523 141.351335 
L 150.051523 141.408223 
L 155.918493 141.408223 
L 155.918493 138.015895 
L 161.785463 138.015895 
L 161.785463 136.082156 
L 167.652433 136.082156 
L 167.652433 134.465232 
L 173.519403 134.465232 
L 173.519403 131.978028 
L 179.386374 131.978028 
L 179.386374 129.54106 
L 185.253344 129.54106 
L 185.253344 126.461268 
L 191.120314 126.461268 
L 191.120314 126.735304 
L 196.987284 126.735304 
L 196.987284 122.597304 
L 202.854254 122.597304 
L 202.854254 121.632935 
L 208.721224 121.632935 
L 208.721224 119.435655 
L 214.588195 119.435655 
L 214.588195 117.431417 
L 220.455165 117.431417 
L 220.455165 113.617714 
L 226.322135 113.617714 
L 226.322135 112.852354 
L 232.189105 112.852354 
L 232.189105 110.164684 
L 238.056075 110.164684 
L 238.056075 108.767508 
L 243.923046 108.767508 
L 243.923046 106.36647 
L 249.790016 106.36647 
L 249.790016 104.088482 
L 255.656986 104.088482 
L 255.656986 103.023444 
L 261.523956 103.023444 
L 261.523956 101.004422 
L 267.390926 101.004422 
L 267.390926 97.807686 
L 273.257896 97.807686 
L 273.257896 96.659472 
L 279.124867 96.659472 
L 279.124867 94.695846 
L 284.991837 94.695846 
L 284.991837 93.504576 
L 290.858807 93.504576 
L 290.858807 91.910244 
L 296.725777 91.910244 
L 296.725777 89.005316 
L 302.592747 89.005316 
L 302.592747 87.640012 
L 308.459717 87.640012 
L 308.459717 85.322124 
L 314.326688 85.322124 
L 314.326688 84.509167 
L 320.193658 84.509167 
L 320.193658 82.92489 
L 326.060628 82.92489 
L 326.060628 81.926917 
L 331.927598 81.926917 
L 331.927598 80.243239 
L 337.794568 80.243239 
L 337.794568 79.178756 
L 343.661538 79.178756 
" clip-path="url(#p9f0d149925)" style="fill: none; stroke: #1f77b4; stroke-width: 1.5; stroke-linecap: square"/>
   </g>
   <g id="line2d_34">
    <path d="M 56.18 164.994948 
L 56.18 164.994948 
L 62.04697 164.994948 
L 62.04697 164.4574 
L 67.91394 164.4574 
L 67.91394 163.306844 
L 73.780911 163.306844 
L 73.780911 160.174621 
L 79.647881 160.174621 
L 79.647881 159.098452 
L 85.514851 159.098452 
L 85.514851 156.423951 
L 91.381821 156.423951 
L 91.381821 157.297326 
L 97.248791 157.297326 
L 97.248791 154.473307 
L 103.115761 154.473307 
L 103.115761 151.436515 
L 108.982732 151.436515 
L 108.982732 150.827773 
L 114.849702 150.827773 
L 114.849702 149.724312 
L 120.716672 149.724312 
L 120.716672 146.53666 
L 126.583642 146.53666 
L 126.583642 144.551219 
L 132.450612 144.551219 
L 132.450612 141.8139 
L 138.317582 141.8139 
L 138.317582 141.09194 
L 144.184553 141.09194 
L 144.184553 138.711133 
L 150.051523 138.711133 
L 150.051523 137.20669 
L 155.918493 137.20669 
L 155.918493 135.397181 
L 161.785463 135.397181 
L 161.785463 132.236953 
L 167.652433 132.236953 
L 167.652433 132.122368 
L 173.519403 132.122368 
L 173.519403 129.182519 
L 179.386374 129.182519 
L 179.386374 126.548466 
L 185.253344 126.548466 
L 185.253344 124.636413 
L 191.120314 124.636413 
L 191.120314 123.632648 
L 196.987284 123.632648 
L 196.987284 121.205273 
L 202.854254 121.205273 
L 202.854254 119.354702 
L 208.721224 119.354702 
L 208.721224 117.544878 
L 214.588195 117.544878 
L 214.588195 115.116583 
L 220.455165 115.116583 
L 220.455165 113.513063 
L 226.322135 113.513063 
L 226.322135 111.434798 
L 232.189105 111.434798 
L 232.189105 108.85951 
L 238.056075 108.85951 
L 238.056075 106.638825 
L 243.923046 106.638825 
L 243.923046 104.754125 
L 249.790016 104.754125 
L 249.790016 102.500574 
L 255.656986 102.500574 
L 255.656986 101.494545 
L 261.523956 101.494545 
L 261.523956 98.917726 
L 267.390926 98.917726 
L 267.390926 97.31095 
L 273.257896 97.31095 
L 273.257896 95.865694 
L 279.124867 95.865694 
L 279.124867 94.498833 
L 284.991837 94.498833 
L 284.991837 92.949122 
L 290.858807 92.949122 
L 290.858807 91.196457 
L 296.725777 91.196457 
L 296.725777 89.35822 
L 302.592747 89.35822 
L 302.592747 86.492752 
L 308.459717 86.492752 
L 308.459717 85.719332 
L 314.326688 85.719332 
L 314.326688 82.187122 
L 320.193658 82.187122 
L 320.193658 82.044642 
L 326.060628 82.044642 
L 326.060628 79.244508 
L 331.927598 79.244508 
L 331.927598 77.428372 
L 337.794568 77.428372 
L 337.794568 77.660901 
L 343.661538 77.660901 
" clip-path="url(#p9f0d149925)" style="fill: none; stroke: #ff7f0e; stroke-width: 1.5; stroke-linecap: square"/>
   </g>
   <g id="patch_3">
    <path d="M 56.18 219.688654 
L 56.18 26.64 
" style="fill: none; stroke: #000000; stroke-width: 0.8; stroke-linejoin: miter; stroke-linecap: square"/>
   </g>
   <g id="patch_4">
    <path d="M 343.661538 219.688654 
L 343.661538 26.64 
" style="fill: none; stroke: #000000; stroke-width: 0.8; stroke-linejoin: miter; stroke-linecap: square"/>
   </g>
   <g id="patch_5">
    <path d="M 56.18 219.688654 
L 343.661538 219.688654 
" style="fill: none; stroke: #000000; stroke-width: 0.8; stroke-linejoin: miter; stroke-linecap: square"/>
   </g>
   <g id="patch_6">
    <path d="M 56.18 26.64 
L 343.661538 26.64 
" style="fill: none; stroke: #000000; stroke-width: 0.8; stroke-linejoin: miter; stroke-linecap: square"/>
   </g>
   <g id="text_19">
    <!-- CMS -->
    <g transform="translate(56.18 22.956328) scale(0.169 -0.169)">
     <defs>
      <path id="TeXGyreHeros-Bold-43" d="M 4384 1594 
L 3450 1594 
C 3392 998 3014 730 2419 730 
C 1677 730 1242 1299 1242 2317 
C 1242 3347 1696 3923 2451 3923 
C 2970 3923 3309 3686 3450 3085 
L 4365 3085 
C 4282 4160 3469 4742 2419 4742 
C 1101 4742 282 3840 282 2330 
C 282 832 1094 -77 2394 -77 
C 3552 -77 4326 525 4384 1594 
z
" transform="scale(0.015625)"/>
      <path id="TeXGyreHeros-Bold-4d" d="M 4966 0 
L 4966 4666 
L 3520 4666 
L 2701 954 
L 1856 4666 
L 422 4666 
L 422 0 
L 1382 0 
L 1382 3635 
L 2221 0 
L 3181 0 
L 4006 3635 
L 4006 0 
L 4966 0 
z
" transform="scale(0.015625)"/>
      <path id="TeXGyreHeros-Bold-53" d="M 4051 1402 
C 4051 2138 3680 2483 2816 2650 
L 2086 2790 
C 1402 2925 1203 3059 1203 3398 
C 1203 3750 1517 3974 2010 3974 
C 2618 3974 2989 3718 2989 3245 
L 3885 3245 
C 3885 4230 3194 4742 2054 4742 
C 934 4742 288 4218 288 3309 
C 288 2579 653 2240 1600 2054 
L 2253 1926 
C 2893 1798 3130 1664 3130 1286 
C 3130 896 2771 691 2189 691 
C 1536 691 1139 966 1139 1466 
L 205 1466 
C 205 467 947 -77 2138 -77 
C 3341 -77 4051 454 4051 1402 
z
" transform="scale(0.015625)"/>
     </defs>
     <use xlink:href="#TeXGyreHeros-Bold-43"/>
     <use xlink:href="#TeXGyreHeros-Bold-4d" x="72.199982"/>
     <use xlink:href="#TeXGyreHeros-Bold-53" x="155.499969"/>
    </g>
   </g>
   <g id="text_20">
    <!-- Private work (CMS simulation) -->
    <g transform="translate(95.492 22.906163) scale(0.13 -0.13)">
     <defs>
      <path id="TeXGyreHeros-Italic-50" d="M 4371 3635 
C 4371 4314 3968 4666 3187 4666 
L 1254 4666 
L 262 0 
L 864 0 
L 1286 1978 
L 2746 1978 
C 3712 1978 4371 2771 4371 3635 
z
M 3757 3520 
C 3757 2957 3302 2502 2637 2502 
L 1395 2502 
L 1747 4141 
L 2989 4141 
C 3488 4141 3757 3923 3757 3520 
z
" transform="scale(0.015625)"/>
      <path id="TeXGyreHeros-Italic-72" d="M 2355 2886 
L 2470 3430 
C 2387 3443 2336 3450 2266 3450 
C 1894 3450 1606 3283 1210 2829 
L 1318 3354 
L 832 3354 
L 122 0 
L 659 0 
L 1030 1741 
C 1190 2496 1626 2886 2291 2886 
L 2355 2886 
z
" transform="scale(0.015625)"/>
      <path id="TeXGyreHeros-Italic-69" d="M 659 0 
L 1370 3354 
L 832 3354 
L 122 0 
L 659 0 
z
M 1677 4525 
L 1011 4525 
L 870 3866 
L 1536 3866 
L 1677 4525 
z
" transform="scale(0.015625)"/>
      <path id="TeXGyreHeros-Italic-76" d="M 3507 3354 
L 2925 3354 
L 1363 653 
L 1050 3354 
L 461 3354 
L 934 0 
L 1517 0 
L 3507 3354 
z
" transform="scale(0.015625)"/>
      <path id="TeXGyreHeros-Italic-61" d="M 3149 0 
L 3232 416 
C 3174 403 3149 403 3123 403 
C 2957 403 2880 461 2880 589 
C 2880 614 2880 634 2886 653 
L 3277 2490 
C 3315 2662 3315 2662 3315 2726 
C 3315 3162 2874 3450 2202 3450 
C 1312 3450 768 3072 646 2362 
L 1184 2362 
C 1312 2771 1587 2957 2061 2957 
C 2445 2957 2739 2784 2739 2547 
C 2739 2522 2733 2477 2726 2426 
L 2707 2310 
C 2662 2048 2515 1971 2061 1933 
C 1203 1850 934 1792 621 1594 
C 288 1382 102 1069 102 698 
C 102 186 454 -96 1030 -96 
C 1446 -96 1818 -38 2310 371 
L 2304 275 
C 2304 13 2502 -58 2810 -58 
C 2899 -58 2893 -45 3149 0 
z
M 2566 1651 
L 2451 1101 
C 2368 704 1805 365 1242 365 
C 877 365 666 493 666 762 
C 666 1165 954 1370 1632 1466 
C 2234 1549 2285 1555 2566 1651 
z
" transform="scale(0.015625)"/>
      <path id="TeXGyreHeros-Italic-74" d="M 1408 467 
C 1210 422 1178 416 1101 416 
C 960 416 870 486 870 589 
C 870 608 877 640 883 678 
L 1363 2925 
L 1933 2925 
L 2022 3354 
L 1453 3354 
L 1651 4275 
L 1114 4275 
L 915 3354 
L 461 3354 
L 371 2925 
L 826 2925 
L 339 659 
C 326 595 320 525 320 461 
C 320 147 538 -45 890 -45 
C 1018 -45 1216 -26 1306 0 
L 1408 467 
z
" transform="scale(0.015625)"/>
      <path id="TeXGyreHeros-Italic-65" d="M 3290 1523 
L 3302 1606 
C 3360 1914 3392 2182 3392 2355 
C 3392 2970 2861 3450 2170 3450 
C 1613 3450 1075 3187 755 2758 
C 454 2355 224 1651 224 1133 
C 224 467 717 -96 1498 -96 
C 2266 -96 2912 326 3110 1018 
L 2573 1018 
C 2355 627 2016 397 1587 397 
C 1082 397 787 685 787 1229 
C 781 1338 787 1402 819 1523 
L 3290 1523 
z
M 2816 1984 
L 934 1984 
C 1094 2547 1568 2957 2086 2957 
C 2541 2957 2829 2650 2829 2170 
C 2829 2106 2822 2061 2816 1984 
z
" transform="scale(0.015625)"/>
      <path id="TeXGyreHeros-Italic-20" transform="scale(0.015625)"/>
      <path id="TeXGyreHeros-Italic-77" d="M 4928 3354 
L 4346 3354 
L 3091 742 
L 3091 3354 
L 2349 3354 
L 1139 742 
L 1139 3354 
L 435 3354 
L 691 0 
L 1306 0 
L 2554 2675 
L 2554 0 
L 3238 0 
L 4928 3354 
z
" transform="scale(0.015625)"/>
      <path id="TeXGyreHeros-Italic-6f" d="M 3366 2253 
C 3366 2931 2906 3450 2138 3450 
C 934 3450 198 2342 198 1075 
C 198 365 698 -96 1414 -96 
C 2579 -96 3366 922 3366 2253 
z
M 2803 2131 
C 2803 1178 2266 397 1504 397 
C 1050 397 762 691 762 1203 
C 762 2131 1299 2957 2054 2957 
C 2528 2957 2803 2650 2803 2131 
z
" transform="scale(0.015625)"/>
      <path id="TeXGyreHeros-Italic-6b" d="M 2893 0 
L 1997 2195 
L 3418 3354 
L 2726 3354 
L 1005 1958 
L 1581 4666 
L 1043 4666 
L 51 0 
L 589 0 
L 864 1299 
L 1549 1862 
L 2278 0 
L 2893 0 
z
" transform="scale(0.015625)"/>
      <path id="TeXGyreHeros-Italic-28" d="M 1254 -1363 
C 1018 -749 902 -147 902 506 
C 902 1926 1459 3347 2534 4666 
L 2182 4666 
C 1069 3501 403 2042 403 742 
C 403 -19 589 -813 902 -1363 
L 1254 -1363 
z
" transform="scale(0.015625)"/>
      <path id="TeXGyreHeros-Italic-43" d="M 4384 1702 
L 3757 1702 
C 3354 787 2950 403 2125 403 
C 1459 403 1018 922 1018 1696 
C 1018 2278 1210 2925 1536 3411 
C 1926 3987 2394 4262 2982 4262 
C 3629 4262 3942 3910 3994 3219 
L 4608 3219 
C 4557 4262 3974 4781 3091 4781 
C 2342 4781 1722 4480 1222 3878 
C 717 3270 403 2381 403 1581 
C 403 563 1011 -115 2035 -115 
C 3162 -115 3840 410 4384 1702 
z
" transform="scale(0.015625)"/>
      <path id="TeXGyreHeros-Italic-4d" d="M 5542 4666 
L 4704 4666 
L 2490 653 
L 1978 4666 
L 1152 4666 
L 160 0 
L 730 0 
L 1555 3872 
L 2048 0 
L 2669 0 
L 4806 3872 
L 3981 0 
L 4550 0 
L 5542 4666 
z
" transform="scale(0.015625)"/>
      <path id="TeXGyreHeros-Italic-53" d="M 3968 1549 
C 3968 1978 3667 2349 3187 2490 
L 2086 2803 
C 1594 2944 1440 3072 1440 3354 
C 1440 3866 1952 4262 2694 4262 
C 3398 4262 3667 3994 3667 3565 
C 3667 3507 3661 3462 3642 3334 
L 4205 3334 
C 4243 3514 4256 3597 4256 3693 
C 4256 4339 3712 4781 2810 4781 
C 2150 4781 1632 4595 1286 4237 
C 1024 3968 826 3514 826 3187 
C 826 2784 1107 2445 1536 2323 
L 2630 2010 
C 3142 1862 3354 1670 3354 1370 
C 3354 838 2771 403 1901 403 
C 1178 403 845 672 845 1254 
C 845 1338 851 1395 870 1517 
L 314 1517 
C 269 1350 256 1248 256 1114 
C 256 346 832 -115 1798 -115 
C 2470 -115 3034 70 3411 422 
C 3738 723 3968 1190 3968 1549 
z
" transform="scale(0.015625)"/>
      <path id="TeXGyreHeros-Italic-73" d="M 2848 1158 
C 2848 1549 2637 1754 2074 1894 
L 1587 2016 
C 1229 2106 1043 2234 1043 2400 
C 1043 2726 1363 2957 1850 2957 
C 2227 2957 2438 2810 2438 2560 
C 2438 2515 2438 2470 2432 2419 
L 2970 2419 
C 3002 2554 3008 2611 3008 2694 
C 3008 3142 2579 3450 1958 3450 
C 1069 3450 480 2938 480 2259 
C 480 1869 704 1677 1363 1510 
L 1837 1389 
C 2240 1286 2285 1146 2285 1011 
C 2285 646 1862 397 1370 397 
C 928 397 678 570 678 890 
C 678 928 685 986 691 1050 
L 122 1050 
C 90 902 83 826 83 723 
C 83 211 531 -96 1274 -96 
C 2227 -96 2848 397 2848 1158 
z
" transform="scale(0.015625)"/>
      <path id="TeXGyreHeros-Italic-6d" d="M 4589 0 
L 5094 2387 
C 5114 2458 5133 2669 5133 2739 
C 5133 3072 4883 3450 4320 3450 
C 3904 3450 3539 3283 3162 2918 
C 3059 3277 2810 3450 2387 3450 
C 1952 3450 1658 3322 1248 2938 
L 1331 3354 
L 845 3354 
L 134 0 
L 672 0 
L 1120 2106 
C 1222 2592 1658 2989 2086 2989 
C 2400 2989 2611 2810 2611 2547 
C 2611 2477 2605 2394 2586 2310 
L 2093 0 
L 2630 0 
L 3078 2106 
C 3181 2605 3616 2989 4083 2989 
C 4384 2989 4570 2803 4570 2496 
C 4570 2400 4570 2400 4512 2182 
L 4051 0 
L 4589 0 
z
" transform="scale(0.015625)"/>
      <path id="TeXGyreHeros-Italic-75" d="M 2771 0 
L 3482 3354 
L 2944 3354 
L 2554 1504 
C 2406 813 1952 365 1408 365 
C 1062 365 838 557 838 858 
C 838 909 845 966 858 1030 
L 1350 3354 
L 813 3354 
L 275 819 
C 262 755 256 685 256 602 
C 256 166 589 -96 1139 -96 
C 1638 -96 2003 58 2368 390 
L 2285 0 
L 2771 0 
z
" transform="scale(0.015625)"/>
      <path id="TeXGyreHeros-Italic-6c" d="M 1645 4666 
L 1107 4666 
L 115 0 
L 653 0 
L 1645 4666 
z
" transform="scale(0.015625)"/>
      <path id="TeXGyreHeros-Italic-6e" d="M 3328 2406 
C 3347 2490 3354 2566 3354 2650 
C 3354 3136 3014 3450 2483 3450 
C 1997 3450 1574 3277 1242 2938 
L 1325 3354 
L 838 3354 
L 128 0 
L 666 0 
L 1056 1850 
C 1203 2554 1658 2989 2234 2989 
C 2554 2989 2790 2765 2790 2470 
C 2790 2432 2771 2336 2752 2234 
L 2278 0 
L 2816 0 
L 3328 2406 
z
" transform="scale(0.015625)"/>
      <path id="TeXGyreHeros-Italic-29" d="M 1760 2605 
C 1760 3328 1568 4134 1267 4666 
L 915 4666 
C 1158 4045 1267 3443 1267 2758 
C 1267 1376 698 -64 -365 -1363 
L -13 -1363 
C 1094 -205 1760 1274 1760 2605 
z
" transform="scale(0.015625)"/>
     </defs>
     <use xlink:href="#TeXGyreHeros-Italic-50"/>
     <use xlink:href="#TeXGyreHeros-Italic-72" x="66.699997"/>
     <use xlink:href="#TeXGyreHeros-Italic-69" x="99.999985"/>
     <use xlink:href="#TeXGyreHeros-Italic-76" x="122.199982"/>
     <use xlink:href="#TeXGyreHeros-Italic-61" x="172.199966"/>
     <use xlink:href="#TeXGyreHeros-Italic-74" x="227.799957"/>
     <use xlink:href="#TeXGyreHeros-Italic-65" x="255.599945"/>
     <use xlink:href="#TeXGyreHeros-Italic-20" x="311.199936"/>
     <use xlink:href="#TeXGyreHeros-Italic-77" x="338.999924"/>
     <use xlink:href="#TeXGyreHeros-Italic-6f" x="411.199905"/>
     <use xlink:href="#TeXGyreHeros-Italic-72" x="466.799896"/>
     <use xlink:href="#TeXGyreHeros-Italic-6b" x="500.099884"/>
     <use xlink:href="#TeXGyreHeros-Italic-20" x="550.099869"/>
     <use xlink:href="#TeXGyreHeros-Italic-28" x="577.899857"/>
     <use xlink:href="#TeXGyreHeros-Italic-43" x="611.199844"/>
     <use xlink:href="#TeXGyreHeros-Italic-4d" x="683.399826"/>
     <use xlink:href="#TeXGyreHeros-Italic-53" x="766.699814"/>
     <use xlink:href="#TeXGyreHeros-Italic-20" x="833.399811"/>
     <use xlink:href="#TeXGyreHeros-Italic-73" x="861.199799"/>
     <use xlink:href="#TeXGyreHeros-Italic-69" x="911.199783"/>
     <use xlink:href="#TeXGyreHeros-Italic-6d" x="933.39978"/>
     <use xlink:href="#TeXGyreHeros-Italic-75" x="1016.699768"/>
     <use xlink:href="#TeXGyreHeros-Italic-6c" x="1072.299759"/>
     <use xlink:href="#TeXGyreHeros-Italic-61" x="1094.499756"/>
     <use xlink:href="#TeXGyreHeros-Italic-74" x="1150.099747"/>
     <use xlink:href="#TeXGyreHeros-Italic-69" x="1177.899734"/>
     <use xlink:href="#TeXGyreHeros-Italic-6f" x="1200.099731"/>
     <use xlink:href="#TeXGyreHeros-Italic-6e" x="1255.699722"/>
     <use xlink:href="#TeXGyreHeros-Italic-29" x="1311.299713"/>
    </g>
   </g>
   <g id="legend_1">
    <g id="patch_7">
     <path d="M 191.336538 63.99625 
L 336.661538 63.99625 
Q 338.661538 63.99625 338.661538 61.99625 
L 338.661538 33.64 
Q 338.661538 31.64 336.661538 31.64 
L 191.336538 31.64 
Q 189.336538 31.64 189.336538 33.64 
L 189.336538 61.99625 
Q 189.336538 63.99625 191.336538 63.99625 
z
" style="fill: #ffffff; opacity: 0.8; stroke: #cccccc; stroke-linejoin: miter"/>
    </g>
    <g id="line2d_35">
     <path d="M 193.336538 39.738438 
L 193.336538 39.738438 
L 203.336538 39.738438 
L 203.336538 39.738438 
L 213.336538 39.738438 
" style="fill: none; stroke: #1f77b4; stroke-width: 1.5; stroke-linecap: square"/>
    </g>
    <g id="text_21">
     <!-- Network -->
     <g transform="translate(221.336538 43.238438) scale(0.1 -0.1)">
      <defs>
       <path id="DejaVuSans-4e" d="M 628 4666 
L 1478 4666 
L 3547 763 
L 3547 4666 
L 4159 4666 
L 4159 0 
L 3309 0 
L 1241 3903 
L 1241 0 
L 628 0 
L 628 4666 
z
" transform="scale(0.015625)"/>
       <path id="DejaVuSans-77" d="M 269 3500 
L 844 3500 
L 1563 769 
L 2278 3500 
L 2956 3500 
L 3675 769 
L 4391 3500 
L 4966 3500 
L 4050 0 
L 3372 0 
L 2619 2869 
L 1863 0 
L 1184 0 
L 269 3500 
z
" transform="scale(0.015625)"/>
       <path id="DejaVuSans-6b" d="M 581 4863 
L 1159 4863 
L 1159 1991 
L 2875 3500 
L 3609 3500 
L 1753 1863 
L 3688 0 
L 2938 0 
L 1159 1709 
L 1159 0 
L 581 0 
L 581 4863 
z
" transform="scale(0.015625)"/>
      </defs>
      <use xlink:href="#DejaVuSans-4e"/>
      <use xlink:href="#DejaVuSans-65" x="74.804688"/>
      <use xlink:href="#DejaVuSans-74" x="136.328125"/>
      <use xlink:href="#DejaVuSans-77" x="175.537109"/>
      <use xlink:href="#DejaVuSans-6f" x="257.324219"/>
      <use xlink:href="#DejaVuSans-72" x="318.505859"/>
      <use xlink:href="#DejaVuSans-6b" x="359.619141"/>
     </g>
    </g>
    <g id="line2d_36">
     <path d="M 193.336538 54.416562 
L 193.336538 54.416562 
L 203.336538 54.416562 
L 203.336538 54.416562 
L 213.336538 54.416562 
" style="fill: none; stroke: #ff7f0e; stroke-width: 1.5; stroke-linecap: square"/>
    </g>
    <g id="text_22">
     <!-- Analytic Sonnenschein -->
     <g transform="translate(221.336538 57.916562) scale(0.1 -0.1)">
      <defs>
       <path id="DejaVuSans-41" d="M 2188 4044 
L 1331 1722 
L 3047 1722 
L 2188 4044 
z
M 1831 4666 
L 2547 4666 
L 4325 0 
L 3669 0 
L 3244 1197 
L 1141 1197 
L 716 0 
L 50 0 
L 1831 4666 
z
" transform="scale(0.015625)"/>
       <path id="DejaVuSans-61" d="M 2194 1759 
Q 1497 1759 1228 1600 
Q 959 1441 959 1056 
Q 959 750 1161 570 
Q 1363 391 1709 391 
Q 2188 391 2477 730 
Q 2766 1069 2766 1631 
L 2766 1759 
L 2194 1759 
z
M 3341 1997 
L 3341 0 
L 2766 0 
L 2766 531 
Q 2569 213 2275 61 
Q 1981 -91 1556 -91 
Q 1019 -91 701 211 
Q 384 513 384 1019 
Q 384 1609 779 1909 
Q 1175 2209 1959 2209 
L 2766 2209 
L 2766 2266 
Q 2766 2663 2505 2880 
Q 2244 3097 1772 3097 
Q 1472 3097 1187 3025 
Q 903 2953 641 2809 
L 641 3341 
Q 956 3463 1253 3523 
Q 1550 3584 1831 3584 
Q 2591 3584 2966 3190 
Q 3341 2797 3341 1997 
z
" transform="scale(0.015625)"/>
       <path id="DejaVuSans-6c" d="M 603 4863 
L 1178 4863 
L 1178 0 
L 603 0 
L 603 4863 
z
" transform="scale(0.015625)"/>
       <path id="DejaVuSans-79" d="M 2059 -325 
Q 1816 -950 1584 -1140 
Q 1353 -1331 966 -1331 
L 506 -1331 
L 506 -850 
L 844 -850 
Q 1081 -850 1212 -737 
Q 1344 -625 1503 -206 
L 1606 56 
L 191 3500 
L 800 3500 
L 1894 763 
L 2988 3500 
L 3597 3500 
L 2059 -325 
z
" transform="scale(0.015625)"/>
       <path id="DejaVuSans-69" d="M 603 3500 
L 1178 3500 
L 1178 0 
L 603 0 
L 603 3500 
z
M 603 4863 
L 1178 4863 
L 1178 4134 
L 603 4134 
L 603 4863 
z
" transform="scale(0.015625)"/>
       <path id="DejaVuSans-63" d="M 3122 3366 
L 3122 2828 
Q 2878 2963 2633 3030 
Q 2388 3097 2138 3097 
Q 1578 3097 1268 2742 
Q 959 2388 959 1747 
Q 959 1106 1268 751 
Q 1578 397 2138 397 
Q 2388 397 2633 464 
Q 2878 531 3122 666 
L 3122 134 
Q 2881 22 2623 -34 
Q 2366 -91 2075 -91 
Q 1284 -91 818 406 
Q 353 903 353 1747 
Q 353 2603 823 3093 
Q 1294 3584 2113 3584 
Q 2378 3584 2631 3529 
Q 2884 3475 3122 3366 
z
" transform="scale(0.015625)"/>
       <path id="DejaVuSans-53" d="M 3425 4513 
L 3425 3897 
Q 3066 4069 2747 4153 
Q 2428 4238 2131 4238 
Q 1616 4238 1336 4038 
Q 1056 3838 1056 3469 
Q 1056 3159 1242 3001 
Q 1428 2844 1947 2747 
L 2328 2669 
Q 3034 2534 3370 2195 
Q 3706 1856 3706 1288 
Q 3706 609 3251 259 
Q 2797 -91 1919 -91 
Q 1588 -91 1214 -16 
Q 841 59 441 206 
L 441 856 
Q 825 641 1194 531 
Q 1563 422 1919 422 
Q 2459 422 2753 634 
Q 3047 847 3047 1241 
Q 3047 1584 2836 1778 
Q 2625 1972 2144 2069 
L 1759 2144 
Q 1053 2284 737 2584 
Q 422 2884 422 3419 
Q 422 4038 858 4394 
Q 1294 4750 2059 4750 
Q 2388 4750 2728 4690 
Q 3069 4631 3425 4513 
z
" transform="scale(0.015625)"/>
       <path id="DejaVuSans-68" d="M 3513 2113 
L 3513 0 
L 2938 0 
L 2938 2094 
Q 2938 2591 2744 2837 
Q 2550 3084 2163 3084 
Q 1697 3084 1428 2787 
Q 1159 2491 1159 1978 
L 1159 0 
L 581 0 
L 581 4863 
L 1159 4863 
L 1159 2956 
Q 1366 3272 1645 3428 
Q 1925 3584 2291 3584 
Q 2894 3584 3203 3211 
Q 3513 2838 3513 2113 
z
" transform="scale(0.015625)"/>
      </defs>
      <use xlink:href="#DejaVuSans-41"/>
      <use xlink:href="#DejaVuSans-6e" x="68.408203"/>
      <use xlink:href="#DejaVuSans-61" x="131.787109"/>
      <use xlink:href="#DejaVuSans-6c" x="193.066406"/>
      <use xlink:href="#DejaVuSans-79" x="220.849609"/>
      <use xlink:href="#DejaVuSans-74" x="280.029297"/>
      <use xlink:href="#DejaVuSans-69" x="319.238281"/>
      <use xlink:href="#DejaVuSans-63" x="347.021484"/>
      <use xlink:href="#DejaVuSans-20" x="402.001953"/>
      <use xlink:href="#DejaVuSans-53" x="433.789062"/>
      <use xlink:href="#DejaVuSans-6f" x="497.265625"/>
      <use xlink:href="#DejaVuSans-6e" x="558.447266"/>
      <use xlink:href="#DejaVuSans-6e" x="621.826172"/>
      <use xlink:href="#DejaVuSans-65" x="685.205078"/>
      <use xlink:href="#DejaVuSans-6e" x="746.728516"/>
      <use xlink:href="#DejaVuSans-73" x="810.107422"/>
      <use xlink:href="#DejaVuSans-63" x="862.207031"/>
      <use xlink:href="#DejaVuSans-68" x="917.1875"/>
      <use xlink:href="#DejaVuSans-65" x="980.566406"/>
      <use xlink:href="#DejaVuSans-69" x="1042.089844"/>
      <use xlink:href="#DejaVuSans-6e" x="1069.873047"/>
     </g>
    </g>
   </g>
  </g>
 </g>
 <defs>
  <clipPath id="p9f0d149925">
   <rect x="56.18" y="26.64" width="287.481538" height="193.048654"/>
  </clipPath>
 </defs>
</svg>
