<?xml version="1.0" encoding="utf-8" standalone="no"?>
<!DOCTYPE svg PUBLIC "-//W3C//DTD SVG 1.1//EN"
  "http://www.w3.org/Graphics/SVG/1.1/DTD/svg11.dtd">
<svg xmlns:xlink="http://www.w3.org/1999/xlink" width="354.461538pt" height="265.846154pt" viewBox="0 0 354.461538 265.846154" xmlns="http://www.w3.org/2000/svg" version="1.1">
 <metadata>
  <rdf:RDF xmlns:dc="http://purl.org/dc/elements/1.1/" xmlns:cc="http://creativecommons.org/ns#" xmlns:rdf="http://www.w3.org/1999/02/22-rdf-syntax-ns#">
   <cc:Work>
    <dc:type rdf:resource="http://purl.org/dc/dcmitype/StillImage"/>
    <dc:date>2024-08-09T17:19:25.905885</dc:date>
    <dc:format>image/svg+xml</dc:format>
    <dc:creator>
     <cc:Agent>
      <dc:title>Matplotlib v3.7.1, https://matplotlib.org/</dc:title>
     </cc:Agent>
    </dc:creator>
   </cc:Work>
  </rdf:RDF>
 </metadata>
 <defs>
  <style type="text/css">*{stroke-linejoin: round; stroke-linecap: butt}</style>
 </defs>
 <g id="figure_1">
  <g id="patch_1">
   <path d="M 0 265.846154 
L 354.461538 265.846154 
L 354.461538 0 
L 0 0 
z
" style="fill: #ffffff"/>
  </g>
  <g id="axes_1">
   <g id="patch_2">
    <path d="M 56.18 223.886154 
L 332.501538 223.886154 
L 332.501538 26.64 
L 56.18 26.64 
z
" style="fill: #ffffff"/>
   </g>
   <g id="PolyCollection_1">
    <defs>
     <path id="mef12cc505b" d="M 56.18 -103.800413 
L 56.18 -50.925734 
L 56.18 -50.925734 
L 61.819215 -50.925734 
L 61.819215 -55.653125 
L 67.45843 -55.653125 
L 67.45843 -59.907223 
L 73.097645 -59.907223 
L 73.097645 -62.970489 
L 78.73686 -62.970489 
L 78.73686 -66.288169 
L 84.376075 -66.288169 
L 84.376075 -68.936354 
L 90.01529 -68.936354 
L 90.01529 -72.253205 
L 95.654505 -72.253205 
L 95.654505 -74.987274 
L 101.293721 -74.987274 
L 101.293721 -77.950413 
L 106.932936 -77.950413 
L 106.932936 -80.286341 
L 112.572151 -80.286341 
L 112.572151 -83.376473 
L 118.211366 -83.376473 
L 118.211366 -85.822694 
L 123.850581 -85.822694 
L 123.850581 -88.691919 
L 129.489796 -88.691919 
L 129.489796 -91.322402 
L 135.129011 -91.322402 
L 135.129011 -94.094687 
L 140.768226 -94.094687 
L 140.768226 -96.425221 
L 146.407441 -96.425221 
L 146.407441 -99.799148 
L 152.046656 -99.799148 
L 152.046656 -101.648958 
L 157.685871 -101.648958 
L 157.685871 -104.626518 
L 163.325086 -104.626518 
L 163.325086 -106.839123 
L 168.964301 -106.839123 
L 168.964301 -110.211297 
L 174.603516 -110.211297 
L 174.603516 -112.199705 
L 180.242732 -112.199705 
L 180.242732 -114.990306 
L 185.881947 -114.990306 
L 185.881947 -117.81068 
L 191.521162 -117.81068 
L 191.521162 -119.304411 
L 197.160377 -119.304411 
L 197.160377 -122.847712 
L 202.799592 -122.847712 
L 202.799592 -125.091972 
L 208.438807 -125.091972 
L 208.438807 -128.232981 
L 214.078022 -128.232981 
L 214.078022 -130.128239 
L 219.717237 -130.128239 
L 219.717237 -133.514344 
L 225.356452 -133.514344 
L 225.356452 -136.109275 
L 230.995667 -136.109275 
L 230.995667 -138.966748 
L 236.634882 -138.966748 
L 236.634882 -140.998745 
L 242.274097 -140.998745 
L 242.274097 -143.814492 
L 247.913312 -143.814492 
L 247.913312 -146.592193 
L 253.552527 -146.592193 
L 253.552527 -148.393569 
L 259.191743 -148.393569 
L 259.191743 -151.405897 
L 264.830958 -151.405897 
L 264.830958 -153.983221 
L 270.470173 -153.983221 
L 270.470173 -156.091757 
L 276.109388 -156.091757 
L 276.109388 -158.903517 
L 281.748603 -158.903517 
L 281.748603 -161.976926 
L 287.387818 -161.976926 
L 287.387818 -164.053277 
L 293.027033 -164.053277 
L 293.027033 -165.907585 
L 298.666248 -165.907585 
L 298.666248 -168.801013 
L 304.305463 -168.801013 
L 304.305463 -170.948766 
L 309.944678 -170.948766 
L 309.944678 -173.421332 
L 315.583893 -173.421332 
L 315.583893 -174.411557 
L 321.223108 -174.411557 
L 321.223108 -176.54971 
L 326.862323 -176.54971 
L 326.862323 -177.365741 
L 332.501538 -177.365741 
L 332.501538 -230.24042 
L 332.501538 -230.24042 
L 326.862323 -230.24042 
L 326.862323 -229.424389 
L 321.223108 -229.424389 
L 321.223108 -227.286236 
L 315.583893 -227.286236 
L 315.583893 -226.296011 
L 309.944678 -226.296011 
L 309.944678 -223.823445 
L 304.305463 -223.823445 
L 304.305463 -221.675692 
L 298.666248 -221.675692 
L 298.666248 -218.782264 
L 293.027033 -218.782264 
L 293.027033 -216.927955 
L 287.387818 -216.927955 
L 287.387818 -214.851605 
L 281.748603 -214.851605 
L 281.748603 -211.778196 
L 276.109388 -211.778196 
L 276.109388 -208.966436 
L 270.470173 -208.966436 
L 270.470173 -206.8579 
L 264.830958 -206.8579 
L 264.830958 -204.280576 
L 259.191743 -204.280576 
L 259.191743 -201.268248 
L 253.552527 -201.268248 
L 253.552527 -199.466872 
L 247.913312 -199.466872 
L 247.913312 -196.689171 
L 242.274097 -196.689171 
L 242.274097 -193.873423 
L 236.634882 -193.873423 
L 236.634882 -191.841427 
L 230.995667 -191.841427 
L 230.995667 -188.983954 
L 225.356452 -188.983954 
L 225.356452 -186.389023 
L 219.717237 -186.389023 
L 219.717237 -183.002918 
L 214.078022 -183.002918 
L 214.078022 -181.10766 
L 208.438807 -181.10766 
L 208.438807 -177.966651 
L 202.799592 -177.966651 
L 202.799592 -175.722391 
L 197.160377 -175.722391 
L 197.160377 -172.17909 
L 191.521162 -172.17909 
L 191.521162 -170.685358 
L 185.881947 -170.685358 
L 185.881947 -167.864985 
L 180.242732 -167.864985 
L 180.242732 -165.074384 
L 174.603516 -165.074384 
L 174.603516 -163.085976 
L 168.964301 -163.085976 
L 168.964301 -159.713801 
L 163.325086 -159.713801 
L 163.325086 -157.501197 
L 157.685871 -157.501197 
L 157.685871 -154.523637 
L 152.046656 -154.523637 
L 152.046656 -152.673827 
L 146.407441 -152.673827 
L 146.407441 -149.2999 
L 140.768226 -149.2999 
L 140.768226 -146.969366 
L 135.129011 -146.969366 
L 135.129011 -144.197081 
L 129.489796 -144.197081 
L 129.489796 -141.566598 
L 123.850581 -141.566598 
L 123.850581 -138.697373 
L 118.211366 -138.697373 
L 118.211366 -136.251152 
L 112.572151 -136.251152 
L 112.572151 -133.16102 
L 106.932936 -133.16102 
L 106.932936 -130.825092 
L 101.293721 -130.825092 
L 101.293721 -127.861953 
L 95.654505 -127.861953 
L 95.654505 -125.127884 
L 90.01529 -125.127884 
L 90.01529 -121.811033 
L 84.376075 -121.811033 
L 84.376075 -119.162848 
L 78.73686 -119.162848 
L 78.73686 -115.845168 
L 73.097645 -115.845168 
L 73.097645 -112.781902 
L 67.45843 -112.781902 
L 67.45843 -108.527804 
L 61.819215 -108.527804 
L 61.819215 -103.800413 
L 56.18 -103.800413 
L 56.18 -103.800413 
z
" style="stroke: #1f77b4; stroke-opacity: 0.5"/>
    </defs>
    <g clip-path="url(#pe332d7ff53)">
     <use xlink:href="#mef12cc505b" x="0" y="265.846154" style="fill: #1f77b4; fill-opacity: 0.5; stroke: #1f77b4; stroke-opacity: 0.5"/>
    </g>
   </g>
   <g id="PolyCollection_2">
    <defs>
     <path id="m799a677e3e" d="M 56.18 -100.619652 
L 56.18 -54.466476 
L 56.18 -54.466476 
L 61.819215 -54.466476 
L 61.819215 -58.579721 
L 67.45843 -58.579721 
L 67.45843 -62.218612 
L 73.097645 -62.218612 
L 73.097645 -65.198141 
L 78.73686 -65.198141 
L 78.73686 -68.091911 
L 84.376075 -68.091911 
L 84.376075 -70.416806 
L 90.01529 -70.416806 
L 90.01529 -73.420433 
L 95.654505 -73.420433 
L 95.654505 -75.893013 
L 101.293721 -75.893013 
L 101.293721 -78.832545 
L 106.932936 -78.832545 
L 106.932936 -80.777377 
L 112.572151 -80.777377 
L 112.572151 -83.199693 
L 118.211366 -83.199693 
L 118.211366 -85.345285 
L 123.850581 -85.345285 
L 123.850581 -89.056115 
L 129.489796 -89.056115 
L 129.489796 -91.044342 
L 135.129011 -91.044342 
L 135.129011 -93.804641 
L 140.768226 -93.804641 
L 140.768226 -95.787172 
L 146.407441 -95.787172 
L 146.407441 -97.464653 
L 152.046656 -97.464653 
L 152.046656 -99.593769 
L 157.685871 -99.593769 
L 157.685871 -103.042951 
L 163.325086 -103.042951 
L 163.325086 -104.695962 
L 168.964301 -104.695962 
L 168.964301 -107.646225 
L 174.603516 -107.646225 
L 174.603516 -109.635051 
L 180.242732 -109.635051 
L 180.242732 -112.042584 
L 185.881947 -112.042584 
L 185.881947 -114.466874 
L 191.521162 -114.466874 
L 191.521162 -117.108287 
L 197.160377 -117.108287 
L 197.160377 -120.074141 
L 202.799592 -120.074141 
L 202.799592 -122.70997 
L 208.438807 -122.70997 
L 208.438807 -124.8937 
L 214.078022 -124.8937 
L 214.078022 -127.917982 
L 219.717237 -127.917982 
L 219.717237 -129.693731 
L 225.356452 -129.693731 
L 225.356452 -132.415106 
L 230.995667 -132.415106 
L 230.995667 -134.475321 
L 236.634882 -134.475321 
L 236.634882 -136.095302 
L 242.274097 -136.095302 
L 242.274097 -140.022093 
L 247.913312 -140.022093 
L 247.913312 -142.967028 
L 253.552527 -142.967028 
L 253.552527 -144.908688 
L 259.191743 -144.908688 
L 259.191743 -147.453302 
L 264.830958 -147.453302 
L 264.830958 -150.136297 
L 270.470173 -150.136297 
L 270.470173 -153.191695 
L 276.109388 -153.191695 
L 276.109388 -155.74953 
L 281.748603 -155.74953 
L 281.748603 -158.812037 
L 287.387818 -158.812037 
L 287.387818 -160.845456 
L 293.027033 -160.845456 
L 293.027033 -163.643923 
L 298.666248 -163.643923 
L 298.666248 -167.101695 
L 304.305463 -167.101695 
L 304.305463 -169.316682 
L 309.944678 -169.316682 
L 309.944678 -171.966897 
L 315.583893 -171.966897 
L 315.583893 -174.476547 
L 321.223108 -174.476547 
L 321.223108 -176.948762 
L 326.862323 -176.948762 
L 326.862323 -179.067145 
L 332.501538 -179.067145 
L 332.501538 -225.220321 
L 332.501538 -225.220321 
L 326.862323 -225.220321 
L 326.862323 -223.101938 
L 321.223108 -223.101938 
L 321.223108 -220.629723 
L 315.583893 -220.629723 
L 315.583893 -218.120073 
L 309.944678 -218.120073 
L 309.944678 -215.469858 
L 304.305463 -215.469858 
L 304.305463 -213.254871 
L 298.666248 -213.254871 
L 298.666248 -209.797099 
L 293.027033 -209.797099 
L 293.027033 -206.998632 
L 287.387818 -206.998632 
L 287.387818 -204.965213 
L 281.748603 -204.965213 
L 281.748603 -201.902706 
L 276.109388 -201.902706 
L 276.109388 -199.344872 
L 270.470173 -199.344872 
L 270.470173 -196.289473 
L 264.830958 -196.289473 
L 264.830958 -193.606478 
L 259.191743 -193.606478 
L 259.191743 -191.061864 
L 253.552527 -191.061864 
L 253.552527 -189.120205 
L 247.913312 -189.120205 
L 247.913312 -186.17527 
L 242.274097 -186.17527 
L 242.274097 -182.248479 
L 236.634882 -182.248479 
L 236.634882 -180.628498 
L 230.995667 -180.628498 
L 230.995667 -178.568283 
L 225.356452 -178.568283 
L 225.356452 -175.846908 
L 219.717237 -175.846908 
L 219.717237 -174.071158 
L 214.078022 -174.071158 
L 214.078022 -171.046877 
L 208.438807 -171.046877 
L 208.438807 -168.863147 
L 202.799592 -168.863147 
L 202.799592 -166.227318 
L 197.160377 -166.227318 
L 197.160377 -163.261463 
L 191.521162 -163.261463 
L 191.521162 -160.620051 
L 185.881947 -160.620051 
L 185.881947 -158.19576 
L 180.242732 -158.19576 
L 180.242732 -155.788228 
L 174.603516 -155.788228 
L 174.603516 -153.799401 
L 168.964301 -153.799401 
L 168.964301 -150.849139 
L 163.325086 -150.849139 
L 163.325086 -149.196128 
L 157.685871 -149.196128 
L 157.685871 -145.746945 
L 152.046656 -145.746945 
L 152.046656 -143.617829 
L 146.407441 -143.617829 
L 146.407441 -141.940348 
L 140.768226 -141.940348 
L 140.768226 -139.957818 
L 135.129011 -139.957818 
L 135.129011 -137.197518 
L 129.489796 -137.197518 
L 129.489796 -135.209291 
L 123.850581 -135.209291 
L 123.850581 -131.498461 
L 118.211366 -131.498461 
L 118.211366 -129.352869 
L 112.572151 -129.352869 
L 112.572151 -126.930554 
L 106.932936 -126.930554 
L 106.932936 -124.985721 
L 101.293721 -124.985721 
L 101.293721 -122.04619 
L 95.654505 -122.04619 
L 95.654505 -119.573609 
L 90.01529 -119.573609 
L 90.01529 -116.569982 
L 84.376075 -116.569982 
L 84.376075 -114.245087 
L 78.73686 -114.245087 
L 78.73686 -111.351318 
L 73.097645 -111.351318 
L 73.097645 -108.371788 
L 67.45843 -108.371788 
L 67.45843 -104.732897 
L 61.819215 -104.732897 
L 61.819215 -100.619652 
L 56.18 -100.619652 
L 56.18 -100.619652 
z
" style="stroke: #ff7f0e; stroke-opacity: 0.5"/>
    </defs>
    <g clip-path="url(#pe332d7ff53)">
     <use xlink:href="#m799a677e3e" x="0" y="265.846154" style="fill: #ff7f0e; fill-opacity: 0.5; stroke: #ff7f0e; stroke-opacity: 0.5"/>
    </g>
   </g>
   <g id="matplotlib.axis_1">
    <g id="xtick_1">
     <g id="line2d_1">
      <path d="M 56.18 223.886154 
L 56.18 26.64 
" clip-path="url(#pe332d7ff53)" style="fill: none; stroke: #b0b0b0; stroke-width: 0.8; stroke-linecap: square"/>
     </g>
     <g id="line2d_2">
      <defs>
       <path id="m5378e8c1dd" d="M 0 0 
L 0 3.5 
" style="stroke: #000000; stroke-width: 0.8"/>
      </defs>
      <g>
       <use xlink:href="#m5378e8c1dd" x="56.18" y="223.886154" style="stroke: #000000; stroke-width: 0.8"/>
      </g>
     </g>
     <g id="text_1">
      <!-- −1.00 -->
      <g transform="translate(40.857344 238.484591) scale(0.1 -0.1)">
       <defs>
        <path id="DejaVuSans-2212" d="M 678 2272 
L 4684 2272 
L 4684 1741 
L 678 1741 
L 678 2272 
z
" transform="scale(0.015625)"/>
        <path id="DejaVuSans-31" d="M 794 531 
L 1825 531 
L 1825 4091 
L 703 3866 
L 703 4441 
L 1819 4666 
L 2450 4666 
L 2450 531 
L 3481 531 
L 3481 0 
L 794 0 
L 794 531 
z
" transform="scale(0.015625)"/>
        <path id="DejaVuSans-2e" d="M 684 794 
L 1344 794 
L 1344 0 
L 684 0 
L 684 794 
z
" transform="scale(0.015625)"/>
        <path id="DejaVuSans-30" d="M 2034 4250 
Q 1547 4250 1301 3770 
Q 1056 3291 1056 2328 
Q 1056 1369 1301 889 
Q 1547 409 2034 409 
Q 2525 409 2770 889 
Q 3016 1369 3016 2328 
Q 3016 3291 2770 3770 
Q 2525 4250 2034 4250 
z
M 2034 4750 
Q 2819 4750 3233 4129 
Q 3647 3509 3647 2328 
Q 3647 1150 3233 529 
Q 2819 -91 2034 -91 
Q 1250 -91 836 529 
Q 422 1150 422 2328 
Q 422 3509 836 4129 
Q 1250 4750 2034 4750 
z
" transform="scale(0.015625)"/>
       </defs>
       <use xlink:href="#DejaVuSans-2212"/>
       <use xlink:href="#DejaVuSans-31" x="83.789062"/>
       <use xlink:href="#DejaVuSans-2e" x="147.412109"/>
       <use xlink:href="#DejaVuSans-30" x="179.199219"/>
       <use xlink:href="#DejaVuSans-30" x="242.822266"/>
      </g>
     </g>
    </g>
    <g id="xtick_2">
     <g id="line2d_3">
      <path d="M 90.720192 223.886154 
L 90.720192 26.64 
" clip-path="url(#pe332d7ff53)" style="fill: none; stroke: #b0b0b0; stroke-width: 0.8; stroke-linecap: square"/>
     </g>
     <g id="line2d_4">
      <g>
       <use xlink:href="#m5378e8c1dd" x="90.720192" y="223.886154" style="stroke: #000000; stroke-width: 0.8"/>
      </g>
     </g>
     <g id="text_2">
      <!-- −0.75 -->
      <g transform="translate(75.397536 238.484591) scale(0.1 -0.1)">
       <defs>
        <path id="DejaVuSans-37" d="M 525 4666 
L 3525 4666 
L 3525 4397 
L 1831 0 
L 1172 0 
L 2766 4134 
L 525 4134 
L 525 4666 
z
" transform="scale(0.015625)"/>
        <path id="DejaVuSans-35" d="M 691 4666 
L 3169 4666 
L 3169 4134 
L 1269 4134 
L 1269 2991 
Q 1406 3038 1543 3061 
Q 1681 3084 1819 3084 
Q 2600 3084 3056 2656 
Q 3513 2228 3513 1497 
Q 3513 744 3044 326 
Q 2575 -91 1722 -91 
Q 1428 -91 1123 -41 
Q 819 9 494 109 
L 494 744 
Q 775 591 1075 516 
Q 1375 441 1709 441 
Q 2250 441 2565 725 
Q 2881 1009 2881 1497 
Q 2881 1984 2565 2268 
Q 2250 2553 1709 2553 
Q 1456 2553 1204 2497 
Q 953 2441 691 2322 
L 691 4666 
z
" transform="scale(0.015625)"/>
       </defs>
       <use xlink:href="#DejaVuSans-2212"/>
       <use xlink:href="#DejaVuSans-30" x="83.789062"/>
       <use xlink:href="#DejaVuSans-2e" x="147.412109"/>
       <use xlink:href="#DejaVuSans-37" x="179.199219"/>
       <use xlink:href="#DejaVuSans-35" x="242.822266"/>
      </g>
     </g>
    </g>
    <g id="xtick_3">
     <g id="line2d_5">
      <path d="M 125.260385 223.886154 
L 125.260385 26.64 
" clip-path="url(#pe332d7ff53)" style="fill: none; stroke: #b0b0b0; stroke-width: 0.8; stroke-linecap: square"/>
     </g>
     <g id="line2d_6">
      <g>
       <use xlink:href="#m5378e8c1dd" x="125.260385" y="223.886154" style="stroke: #000000; stroke-width: 0.8"/>
      </g>
     </g>
     <g id="text_3">
      <!-- −0.50 -->
      <g transform="translate(109.937728 238.484591) scale(0.1 -0.1)">
       <use xlink:href="#DejaVuSans-2212"/>
       <use xlink:href="#DejaVuSans-30" x="83.789062"/>
       <use xlink:href="#DejaVuSans-2e" x="147.412109"/>
       <use xlink:href="#DejaVuSans-35" x="179.199219"/>
       <use xlink:href="#DejaVuSans-30" x="242.822266"/>
      </g>
     </g>
    </g>
    <g id="xtick_4">
     <g id="line2d_7">
      <path d="M 159.800577 223.886154 
L 159.800577 26.64 
" clip-path="url(#pe332d7ff53)" style="fill: none; stroke: #b0b0b0; stroke-width: 0.8; stroke-linecap: square"/>
     </g>
     <g id="line2d_8">
      <g>
       <use xlink:href="#m5378e8c1dd" x="159.800577" y="223.886154" style="stroke: #000000; stroke-width: 0.8"/>
      </g>
     </g>
     <g id="text_4">
      <!-- −0.25 -->
      <g transform="translate(144.477921 238.484591) scale(0.1 -0.1)">
       <defs>
        <path id="DejaVuSans-32" d="M 1228 531 
L 3431 531 
L 3431 0 
L 469 0 
L 469 531 
Q 828 903 1448 1529 
Q 2069 2156 2228 2338 
Q 2531 2678 2651 2914 
Q 2772 3150 2772 3378 
Q 2772 3750 2511 3984 
Q 2250 4219 1831 4219 
Q 1534 4219 1204 4116 
Q 875 4013 500 3803 
L 500 4441 
Q 881 4594 1212 4672 
Q 1544 4750 1819 4750 
Q 2544 4750 2975 4387 
Q 3406 4025 3406 3419 
Q 3406 3131 3298 2873 
Q 3191 2616 2906 2266 
Q 2828 2175 2409 1742 
Q 1991 1309 1228 531 
z
" transform="scale(0.015625)"/>
       </defs>
       <use xlink:href="#DejaVuSans-2212"/>
       <use xlink:href="#DejaVuSans-30" x="83.789062"/>
       <use xlink:href="#DejaVuSans-2e" x="147.412109"/>
       <use xlink:href="#DejaVuSans-32" x="179.199219"/>
       <use xlink:href="#DejaVuSans-35" x="242.822266"/>
      </g>
     </g>
    </g>
    <g id="xtick_5">
     <g id="line2d_9">
      <path d="M 194.340769 223.886154 
L 194.340769 26.64 
" clip-path="url(#pe332d7ff53)" style="fill: none; stroke: #b0b0b0; stroke-width: 0.8; stroke-linecap: square"/>
     </g>
     <g id="line2d_10">
      <g>
       <use xlink:href="#m5378e8c1dd" x="194.340769" y="223.886154" style="stroke: #000000; stroke-width: 0.8"/>
      </g>
     </g>
     <g id="text_5">
      <!-- 0.00 -->
      <g transform="translate(183.207957 238.484591) scale(0.1 -0.1)">
       <use xlink:href="#DejaVuSans-30"/>
       <use xlink:href="#DejaVuSans-2e" x="63.623047"/>
       <use xlink:href="#DejaVuSans-30" x="95.410156"/>
       <use xlink:href="#DejaVuSans-30" x="159.033203"/>
      </g>
     </g>
    </g>
    <g id="xtick_6">
     <g id="line2d_11">
      <path d="M 228.880962 223.886154 
L 228.880962 26.64 
" clip-path="url(#pe332d7ff53)" style="fill: none; stroke: #b0b0b0; stroke-width: 0.8; stroke-linecap: square"/>
     </g>
     <g id="line2d_12">
      <g>
       <use xlink:href="#m5378e8c1dd" x="228.880962" y="223.886154" style="stroke: #000000; stroke-width: 0.8"/>
      </g>
     </g>
     <g id="text_6">
      <!-- 0.25 -->
      <g transform="translate(217.748149 238.484591) scale(0.1 -0.1)">
       <use xlink:href="#DejaVuSans-30"/>
       <use xlink:href="#DejaVuSans-2e" x="63.623047"/>
       <use xlink:href="#DejaVuSans-32" x="95.410156"/>
       <use xlink:href="#DejaVuSans-35" x="159.033203"/>
      </g>
     </g>
    </g>
    <g id="xtick_7">
     <g id="line2d_13">
      <path d="M 263.421154 223.886154 
L 263.421154 26.64 
" clip-path="url(#pe332d7ff53)" style="fill: none; stroke: #b0b0b0; stroke-width: 0.8; stroke-linecap: square"/>
     </g>
     <g id="line2d_14">
      <g>
       <use xlink:href="#m5378e8c1dd" x="263.421154" y="223.886154" style="stroke: #000000; stroke-width: 0.8"/>
      </g>
     </g>
     <g id="text_7">
      <!-- 0.50 -->
      <g transform="translate(252.288341 238.484591) scale(0.1 -0.1)">
       <use xlink:href="#DejaVuSans-30"/>
       <use xlink:href="#DejaVuSans-2e" x="63.623047"/>
       <use xlink:href="#DejaVuSans-35" x="95.410156"/>
       <use xlink:href="#DejaVuSans-30" x="159.033203"/>
      </g>
     </g>
    </g>
    <g id="xtick_8">
     <g id="line2d_15">
      <path d="M 297.961346 223.886154 
L 297.961346 26.64 
" clip-path="url(#pe332d7ff53)" style="fill: none; stroke: #b0b0b0; stroke-width: 0.8; stroke-linecap: square"/>
     </g>
     <g id="line2d_16">
      <g>
       <use xlink:href="#m5378e8c1dd" x="297.961346" y="223.886154" style="stroke: #000000; stroke-width: 0.8"/>
      </g>
     </g>
     <g id="text_8">
      <!-- 0.75 -->
      <g transform="translate(286.828534 238.484591) scale(0.1 -0.1)">
       <use xlink:href="#DejaVuSans-30"/>
       <use xlink:href="#DejaVuSans-2e" x="63.623047"/>
       <use xlink:href="#DejaVuSans-37" x="95.410156"/>
       <use xlink:href="#DejaVuSans-35" x="159.033203"/>
      </g>
     </g>
    </g>
    <g id="xtick_9">
     <g id="line2d_17">
      <path d="M 332.501538 223.886154 
L 332.501538 26.64 
" clip-path="url(#pe332d7ff53)" style="fill: none; stroke: #b0b0b0; stroke-width: 0.8; stroke-linecap: square"/>
     </g>
     <g id="line2d_18">
      <g>
       <use xlink:href="#m5378e8c1dd" x="332.501538" y="223.886154" style="stroke: #000000; stroke-width: 0.8"/>
      </g>
     </g>
     <g id="text_9">
      <!-- 1.00 -->
      <g transform="translate(321.368726 238.484591) scale(0.1 -0.1)">
       <use xlink:href="#DejaVuSans-31"/>
       <use xlink:href="#DejaVuSans-2e" x="63.623047"/>
       <use xlink:href="#DejaVuSans-30" x="95.410156"/>
       <use xlink:href="#DejaVuSans-30" x="159.033203"/>
      </g>
     </g>
    </g>
    <g id="text_10">
     <!-- True dalpha -->
     <g transform="translate(165.100144 252.162716) scale(0.1 -0.1)">
      <defs>
       <path id="DejaVuSans-54" d="M -19 4666 
L 3928 4666 
L 3928 4134 
L 2272 4134 
L 2272 0 
L 1638 0 
L 1638 4134 
L -19 4134 
L -19 4666 
z
" transform="scale(0.015625)"/>
       <path id="DejaVuSans-72" d="M 2631 2963 
Q 2534 3019 2420 3045 
Q 2306 3072 2169 3072 
Q 1681 3072 1420 2755 
Q 1159 2438 1159 1844 
L 1159 0 
L 581 0 
L 581 3500 
L 1159 3500 
L 1159 2956 
Q 1341 3275 1631 3429 
Q 1922 3584 2338 3584 
Q 2397 3584 2469 3576 
Q 2541 3569 2628 3553 
L 2631 2963 
z
" transform="scale(0.015625)"/>
       <path id="DejaVuSans-75" d="M 544 1381 
L 544 3500 
L 1119 3500 
L 1119 1403 
Q 1119 906 1312 657 
Q 1506 409 1894 409 
Q 2359 409 2629 706 
Q 2900 1003 2900 1516 
L 2900 3500 
L 3475 3500 
L 3475 0 
L 2900 0 
L 2900 538 
Q 2691 219 2414 64 
Q 2138 -91 1772 -91 
Q 1169 -91 856 284 
Q 544 659 544 1381 
z
M 1991 3584 
L 1991 3584 
z
" transform="scale(0.015625)"/>
       <path id="DejaVuSans-65" d="M 3597 1894 
L 3597 1613 
L 953 1613 
Q 991 1019 1311 708 
Q 1631 397 2203 397 
Q 2534 397 2845 478 
Q 3156 559 3463 722 
L 3463 178 
Q 3153 47 2828 -22 
Q 2503 -91 2169 -91 
Q 1331 -91 842 396 
Q 353 884 353 1716 
Q 353 2575 817 3079 
Q 1281 3584 2069 3584 
Q 2775 3584 3186 3129 
Q 3597 2675 3597 1894 
z
M 3022 2063 
Q 3016 2534 2758 2815 
Q 2500 3097 2075 3097 
Q 1594 3097 1305 2825 
Q 1016 2553 972 2059 
L 3022 2063 
z
" transform="scale(0.015625)"/>
       <path id="DejaVuSans-20" transform="scale(0.015625)"/>
       <path id="DejaVuSans-64" d="M 2906 2969 
L 2906 4863 
L 3481 4863 
L 3481 0 
L 2906 0 
L 2906 525 
Q 2725 213 2448 61 
Q 2172 -91 1784 -91 
Q 1150 -91 751 415 
Q 353 922 353 1747 
Q 353 2572 751 3078 
Q 1150 3584 1784 3584 
Q 2172 3584 2448 3432 
Q 2725 3281 2906 2969 
z
M 947 1747 
Q 947 1113 1208 752 
Q 1469 391 1925 391 
Q 2381 391 2643 752 
Q 2906 1113 2906 1747 
Q 2906 2381 2643 2742 
Q 2381 3103 1925 3103 
Q 1469 3103 1208 2742 
Q 947 2381 947 1747 
z
" transform="scale(0.015625)"/>
       <path id="DejaVuSans-61" d="M 2194 1759 
Q 1497 1759 1228 1600 
Q 959 1441 959 1056 
Q 959 750 1161 570 
Q 1363 391 1709 391 
Q 2188 391 2477 730 
Q 2766 1069 2766 1631 
L 2766 1759 
L 2194 1759 
z
M 3341 1997 
L 3341 0 
L 2766 0 
L 2766 531 
Q 2569 213 2275 61 
Q 1981 -91 1556 -91 
Q 1019 -91 701 211 
Q 384 513 384 1019 
Q 384 1609 779 1909 
Q 1175 2209 1959 2209 
L 2766 2209 
L 2766 2266 
Q 2766 2663 2505 2880 
Q 2244 3097 1772 3097 
Q 1472 3097 1187 3025 
Q 903 2953 641 2809 
L 641 3341 
Q 956 3463 1253 3523 
Q 1550 3584 1831 3584 
Q 2591 3584 2966 3190 
Q 3341 2797 3341 1997 
z
" transform="scale(0.015625)"/>
       <path id="DejaVuSans-6c" d="M 603 4863 
L 1178 4863 
L 1178 0 
L 603 0 
L 603 4863 
z
" transform="scale(0.015625)"/>
       <path id="DejaVuSans-70" d="M 1159 525 
L 1159 -1331 
L 581 -1331 
L 581 3500 
L 1159 3500 
L 1159 2969 
Q 1341 3281 1617 3432 
Q 1894 3584 2278 3584 
Q 2916 3584 3314 3078 
Q 3713 2572 3713 1747 
Q 3713 922 3314 415 
Q 2916 -91 2278 -91 
Q 1894 -91 1617 61 
Q 1341 213 1159 525 
z
M 3116 1747 
Q 3116 2381 2855 2742 
Q 2594 3103 2138 3103 
Q 1681 3103 1420 2742 
Q 1159 2381 1159 1747 
Q 1159 1113 1420 752 
Q 1681 391 2138 391 
Q 2594 391 2855 752 
Q 3116 1113 3116 1747 
z
" transform="scale(0.015625)"/>
       <path id="DejaVuSans-68" d="M 3513 2113 
L 3513 0 
L 2938 0 
L 2938 2094 
Q 2938 2591 2744 2837 
Q 2550 3084 2163 3084 
Q 1697 3084 1428 2787 
Q 1159 2491 1159 1978 
L 1159 0 
L 581 0 
L 581 4863 
L 1159 4863 
L 1159 2956 
Q 1366 3272 1645 3428 
Q 1925 3584 2291 3584 
Q 2894 3584 3203 3211 
Q 3513 2838 3513 2113 
z
" transform="scale(0.015625)"/>
      </defs>
      <use xlink:href="#DejaVuSans-54"/>
      <use xlink:href="#DejaVuSans-72" x="46.333984"/>
      <use xlink:href="#DejaVuSans-75" x="87.447266"/>
      <use xlink:href="#DejaVuSans-65" x="150.826172"/>
      <use xlink:href="#DejaVuSans-20" x="212.349609"/>
      <use xlink:href="#DejaVuSans-64" x="244.136719"/>
      <use xlink:href="#DejaVuSans-61" x="307.613281"/>
      <use xlink:href="#DejaVuSans-6c" x="368.892578"/>
      <use xlink:href="#DejaVuSans-70" x="396.675781"/>
      <use xlink:href="#DejaVuSans-68" x="460.152344"/>
      <use xlink:href="#DejaVuSans-61" x="523.53125"/>
     </g>
    </g>
   </g>
   <g id="matplotlib.axis_2">
    <g id="ytick_1">
     <g id="line2d_19">
      <path d="M 56.18 204.920298 
L 332.501538 204.920298 
" clip-path="url(#pe332d7ff53)" style="fill: none; stroke: #b0b0b0; stroke-width: 0.8; stroke-linecap: square"/>
     </g>
     <g id="line2d_20">
      <defs>
       <path id="m4a3230bdde" d="M 0 0 
L -3.5 0 
" style="stroke: #000000; stroke-width: 0.8"/>
      </defs>
      <g>
       <use xlink:href="#m4a3230bdde" x="56.18" y="204.920298" style="stroke: #000000; stroke-width: 0.8"/>
      </g>
     </g>
     <g id="text_11">
      <!-- −1.0 -->
      <g transform="translate(24.897187 208.719517) scale(0.1 -0.1)">
       <use xlink:href="#DejaVuSans-2212"/>
       <use xlink:href="#DejaVuSans-31" x="83.789062"/>
       <use xlink:href="#DejaVuSans-2e" x="147.412109"/>
       <use xlink:href="#DejaVuSans-30" x="179.199219"/>
      </g>
     </g>
    </g>
    <g id="ytick_2">
     <g id="line2d_21">
      <path d="M 56.18 166.827095 
L 332.501538 166.827095 
" clip-path="url(#pe332d7ff53)" style="fill: none; stroke: #b0b0b0; stroke-width: 0.8; stroke-linecap: square"/>
     </g>
     <g id="line2d_22">
      <g>
       <use xlink:href="#m4a3230bdde" x="56.18" y="166.827095" style="stroke: #000000; stroke-width: 0.8"/>
      </g>
     </g>
     <g id="text_12">
      <!-- −0.5 -->
      <g transform="translate(24.897187 170.626314) scale(0.1 -0.1)">
       <use xlink:href="#DejaVuSans-2212"/>
       <use xlink:href="#DejaVuSans-30" x="83.789062"/>
       <use xlink:href="#DejaVuSans-2e" x="147.412109"/>
       <use xlink:href="#DejaVuSans-35" x="179.199219"/>
      </g>
     </g>
    </g>
    <g id="ytick_3">
     <g id="line2d_23">
      <path d="M 56.18 128.733893 
L 332.501538 128.733893 
" clip-path="url(#pe332d7ff53)" style="fill: none; stroke: #b0b0b0; stroke-width: 0.8; stroke-linecap: square"/>
     </g>
     <g id="line2d_24">
      <g>
       <use xlink:href="#m4a3230bdde" x="56.18" y="128.733893" style="stroke: #000000; stroke-width: 0.8"/>
      </g>
     </g>
     <g id="text_13">
      <!-- 0.0 -->
      <g transform="translate(33.276875 132.533111) scale(0.1 -0.1)">
       <use xlink:href="#DejaVuSans-30"/>
       <use xlink:href="#DejaVuSans-2e" x="63.623047"/>
       <use xlink:href="#DejaVuSans-30" x="95.410156"/>
      </g>
     </g>
    </g>
    <g id="ytick_4">
     <g id="line2d_25">
      <path d="M 56.18 90.64069 
L 332.501538 90.64069 
" clip-path="url(#pe332d7ff53)" style="fill: none; stroke: #b0b0b0; stroke-width: 0.8; stroke-linecap: square"/>
     </g>
     <g id="line2d_26">
      <g>
       <use xlink:href="#m4a3230bdde" x="56.18" y="90.64069" style="stroke: #000000; stroke-width: 0.8"/>
      </g>
     </g>
     <g id="text_14">
      <!-- 0.5 -->
      <g transform="translate(33.276875 94.439908) scale(0.1 -0.1)">
       <use xlink:href="#DejaVuSans-30"/>
       <use xlink:href="#DejaVuSans-2e" x="63.623047"/>
       <use xlink:href="#DejaVuSans-35" x="95.410156"/>
      </g>
     </g>
    </g>
    <g id="ytick_5">
     <g id="line2d_27">
      <path d="M 56.18 52.547487 
L 332.501538 52.547487 
" clip-path="url(#pe332d7ff53)" style="fill: none; stroke: #b0b0b0; stroke-width: 0.8; stroke-linecap: square"/>
     </g>
     <g id="line2d_28">
      <g>
       <use xlink:href="#m4a3230bdde" x="56.18" y="52.547487" style="stroke: #000000; stroke-width: 0.8"/>
      </g>
     </g>
     <g id="text_15">
      <!-- 1.0 -->
      <g transform="translate(33.276875 56.346706) scale(0.1 -0.1)">
       <use xlink:href="#DejaVuSans-31"/>
       <use xlink:href="#DejaVuSans-2e" x="63.623047"/>
       <use xlink:href="#DejaVuSans-30" x="95.410156"/>
      </g>
     </g>
    </g>
    <g id="text_16">
     <!-- Response -->
     <g transform="translate(18.8175 149.277139) rotate(-90) scale(0.1 -0.1)">
      <defs>
       <path id="DejaVuSans-52" d="M 2841 2188 
Q 3044 2119 3236 1894 
Q 3428 1669 3622 1275 
L 4263 0 
L 3584 0 
L 2988 1197 
Q 2756 1666 2539 1819 
Q 2322 1972 1947 1972 
L 1259 1972 
L 1259 0 
L 628 0 
L 628 4666 
L 2053 4666 
Q 2853 4666 3247 4331 
Q 3641 3997 3641 3322 
Q 3641 2881 3436 2590 
Q 3231 2300 2841 2188 
z
M 1259 4147 
L 1259 2491 
L 2053 2491 
Q 2509 2491 2742 2702 
Q 2975 2913 2975 3322 
Q 2975 3731 2742 3939 
Q 2509 4147 2053 4147 
L 1259 4147 
z
" transform="scale(0.015625)"/>
       <path id="DejaVuSans-73" d="M 2834 3397 
L 2834 2853 
Q 2591 2978 2328 3040 
Q 2066 3103 1784 3103 
Q 1356 3103 1142 2972 
Q 928 2841 928 2578 
Q 928 2378 1081 2264 
Q 1234 2150 1697 2047 
L 1894 2003 
Q 2506 1872 2764 1633 
Q 3022 1394 3022 966 
Q 3022 478 2636 193 
Q 2250 -91 1575 -91 
Q 1294 -91 989 -36 
Q 684 19 347 128 
L 347 722 
Q 666 556 975 473 
Q 1284 391 1588 391 
Q 1994 391 2212 530 
Q 2431 669 2431 922 
Q 2431 1156 2273 1281 
Q 2116 1406 1581 1522 
L 1381 1569 
Q 847 1681 609 1914 
Q 372 2147 372 2553 
Q 372 3047 722 3315 
Q 1072 3584 1716 3584 
Q 2034 3584 2315 3537 
Q 2597 3491 2834 3397 
z
" transform="scale(0.015625)"/>
       <path id="DejaVuSans-6f" d="M 1959 3097 
Q 1497 3097 1228 2736 
Q 959 2375 959 1747 
Q 959 1119 1226 758 
Q 1494 397 1959 397 
Q 2419 397 2687 759 
Q 2956 1122 2956 1747 
Q 2956 2369 2687 2733 
Q 2419 3097 1959 3097 
z
M 1959 3584 
Q 2709 3584 3137 3096 
Q 3566 2609 3566 1747 
Q 3566 888 3137 398 
Q 2709 -91 1959 -91 
Q 1206 -91 779 398 
Q 353 888 353 1747 
Q 353 2609 779 3096 
Q 1206 3584 1959 3584 
z
" transform="scale(0.015625)"/>
       <path id="DejaVuSans-6e" d="M 3513 2113 
L 3513 0 
L 2938 0 
L 2938 2094 
Q 2938 2591 2744 2837 
Q 2550 3084 2163 3084 
Q 1697 3084 1428 2787 
Q 1159 2491 1159 1978 
L 1159 0 
L 581 0 
L 581 3500 
L 1159 3500 
L 1159 2956 
Q 1366 3272 1645 3428 
Q 1925 3584 2291 3584 
Q 2894 3584 3203 3211 
Q 3513 2838 3513 2113 
z
" transform="scale(0.015625)"/>
      </defs>
      <use xlink:href="#DejaVuSans-52"/>
      <use xlink:href="#DejaVuSans-65" x="64.982422"/>
      <use xlink:href="#DejaVuSans-73" x="126.505859"/>
      <use xlink:href="#DejaVuSans-70" x="178.605469"/>
      <use xlink:href="#DejaVuSans-6f" x="242.082031"/>
      <use xlink:href="#DejaVuSans-6e" x="303.263672"/>
      <use xlink:href="#DejaVuSans-73" x="366.642578"/>
      <use xlink:href="#DejaVuSans-65" x="418.742188"/>
     </g>
    </g>
   </g>
   <g id="line2d_29">
    <path d="M 56.18 190.171763 
L 56.18 190.171763 
L 61.819215 190.171763 
L 61.819215 185.444371 
L 67.45843 185.444371 
L 67.45843 181.190274 
L 73.097645 181.190274 
L 73.097645 178.127007 
L 78.73686 178.127007 
L 78.73686 174.809328 
L 84.376075 174.809328 
L 84.376075 172.161143 
L 90.01529 172.161143 
L 90.01529 168.844291 
L 95.654505 168.844291 
L 95.654505 166.110223 
L 101.293721 166.110223 
L 101.293721 163.147084 
L 106.932936 163.147084 
L 106.932936 160.811155 
L 112.572151 160.811155 
L 112.572151 157.721023 
L 118.211366 157.721023 
L 118.211366 155.274802 
L 123.850581 155.274802 
L 123.850581 152.405577 
L 129.489796 152.405577 
L 129.489796 149.775095 
L 135.129011 149.775095 
L 135.129011 147.00281 
L 140.768226 147.00281 
L 140.768226 144.672275 
L 146.407441 144.672275 
L 146.407441 141.298348 
L 152.046656 141.298348 
L 152.046656 139.448539 
L 157.685871 139.448539 
L 157.685871 136.470978 
L 163.325086 136.470978 
L 163.325086 134.258374 
L 168.964301 134.258374 
L 168.964301 130.8862 
L 174.603516 130.8862 
L 174.603516 128.897792 
L 180.242732 128.897792 
L 180.242732 126.107191 
L 185.881947 126.107191 
L 185.881947 123.286817 
L 191.521162 123.286817 
L 191.521162 121.793085 
L 197.160377 121.793085 
L 197.160377 118.249785 
L 202.799592 118.249785 
L 202.799592 116.005525 
L 208.438807 116.005525 
L 208.438807 112.864516 
L 214.078022 112.864516 
L 214.078022 110.969258 
L 219.717237 110.969258 
L 219.717237 107.583152 
L 225.356452 107.583152 
L 225.356452 104.988222 
L 230.995667 104.988222 
L 230.995667 102.130749 
L 236.634882 102.130749 
L 236.634882 100.098752 
L 242.274097 100.098752 
L 242.274097 97.283005 
L 247.913312 97.283005 
L 247.913312 94.505304 
L 253.552527 94.505304 
L 253.552527 92.703928 
L 259.191743 92.703928 
L 259.191743 89.6916 
L 264.830958 89.6916 
L 264.830958 87.114276 
L 270.470173 87.114276 
L 270.470173 85.00574 
L 276.109388 85.00574 
L 276.109388 82.19398 
L 281.748603 82.19398 
L 281.748603 79.120571 
L 287.387818 79.120571 
L 287.387818 77.04422 
L 293.027033 77.04422 
L 293.027033 75.189911 
L 298.666248 75.189911 
L 298.666248 72.296484 
L 304.305463 72.296484 
L 304.305463 70.148731 
L 309.944678 70.148731 
L 309.944678 67.676165 
L 315.583893 67.676165 
L 315.583893 66.685939 
L 321.223108 66.685939 
L 321.223108 64.547786 
L 326.862323 64.547786 
L 326.862323 63.731756 
L 332.501538 63.731756 
" clip-path="url(#pe332d7ff53)" style="fill: none; stroke: #1f77b4; stroke-width: 1.5; stroke-linecap: square"/>
   </g>
   <g id="line2d_30">
    <path d="M 56.18 190.147275 
L 56.18 190.147275 
L 61.819215 190.147275 
L 61.819215 186.03403 
L 67.45843 186.03403 
L 67.45843 182.395139 
L 73.097645 182.395139 
L 73.097645 179.41561 
L 78.73686 179.41561 
L 78.73686 176.52184 
L 84.376075 176.52184 
L 84.376075 174.196945 
L 90.01529 174.196945 
L 90.01529 171.193319 
L 95.654505 171.193319 
L 95.654505 168.720738 
L 101.293721 168.720738 
L 101.293721 165.781206 
L 106.932936 165.781206 
L 106.932936 163.836374 
L 112.572151 163.836374 
L 112.572151 161.414058 
L 118.211366 161.414058 
L 118.211366 159.268467 
L 123.850581 159.268467 
L 123.850581 155.557637 
L 129.489796 155.557637 
L 129.489796 153.56941 
L 135.129011 153.56941 
L 135.129011 150.80911 
L 140.768226 150.80911 
L 140.768226 148.826579 
L 146.407441 148.826579 
L 146.407441 147.149099 
L 152.046656 147.149099 
L 152.046656 145.019982 
L 157.685871 145.019982 
L 157.685871 141.5708 
L 163.325086 141.5708 
L 163.325086 139.917789 
L 168.964301 139.917789 
L 168.964301 136.967527 
L 174.603516 136.967527 
L 174.603516 134.9787 
L 180.242732 134.9787 
L 180.242732 132.571168 
L 185.881947 132.571168 
L 185.881947 130.146877 
L 191.521162 130.146877 
L 191.521162 127.505465 
L 197.160377 127.505465 
L 197.160377 124.53961 
L 202.799592 124.53961 
L 202.799592 121.903781 
L 208.438807 121.903781 
L 208.438807 119.720051 
L 214.078022 119.720051 
L 214.078022 116.69577 
L 219.717237 116.69577 
L 219.717237 114.92002 
L 225.356452 114.92002 
L 225.356452 112.198645 
L 230.995667 112.198645 
L 230.995667 110.13843 
L 236.634882 110.13843 
L 236.634882 108.518449 
L 242.274097 108.518449 
L 242.274097 104.591658 
L 247.913312 104.591658 
L 247.913312 101.646723 
L 253.552527 101.646723 
L 253.552527 99.705063 
L 259.191743 99.705063 
L 259.191743 97.16045 
L 264.830958 97.16045 
L 264.830958 94.477454 
L 270.470173 94.477454 
L 270.470173 91.422056 
L 276.109388 91.422056 
L 276.109388 88.864221 
L 281.748603 88.864221 
L 281.748603 85.801715 
L 287.387818 85.801715 
L 287.387818 83.768295 
L 293.027033 83.768295 
L 293.027033 80.969828 
L 298.666248 80.969828 
L 298.666248 77.512056 
L 304.305463 77.512056 
L 304.305463 75.29707 
L 309.944678 75.29707 
L 309.944678 72.646854 
L 315.583893 72.646854 
L 315.583893 70.137205 
L 321.223108 70.137205 
L 321.223108 67.66499 
L 326.862323 67.66499 
L 326.862323 65.546606 
L 332.501538 65.546606 
" clip-path="url(#pe332d7ff53)" style="fill: none; stroke: #ff7f0e; stroke-width: 1.5; stroke-linecap: square"/>
   </g>
   <g id="patch_3">
    <path d="M 56.18 223.886154 
L 56.18 26.64 
" style="fill: none; stroke: #000000; stroke-width: 0.8; stroke-linejoin: miter; stroke-linecap: square"/>
   </g>
   <g id="patch_4">
    <path d="M 332.501538 223.886154 
L 332.501538 26.64 
" style="fill: none; stroke: #000000; stroke-width: 0.8; stroke-linejoin: miter; stroke-linecap: square"/>
   </g>
   <g id="patch_5">
    <path d="M 56.18 223.886154 
L 332.501538 223.886154 
" style="fill: none; stroke: #000000; stroke-width: 0.8; stroke-linejoin: miter; stroke-linecap: square"/>
   </g>
   <g id="patch_6">
    <path d="M 56.18 26.64 
L 332.501538 26.64 
" style="fill: none; stroke: #000000; stroke-width: 0.8; stroke-linejoin: miter; stroke-linecap: square"/>
   </g>
   <g id="text_17">
    <!-- CMS -->
    <g transform="translate(56.18 22.956328) scale(0.169 -0.169)">
     <defs>
      <path id="TeXGyreHeros-Bold-43" d="M 4384 1594 
L 3450 1594 
C 3392 998 3014 730 2419 730 
C 1677 730 1242 1299 1242 2317 
C 1242 3347 1696 3923 2451 3923 
C 2970 3923 3309 3686 3450 3085 
L 4365 3085 
C 4282 4160 3469 4742 2419 4742 
C 1101 4742 282 3840 282 2330 
C 282 832 1094 -77 2394 -77 
C 3552 -77 4326 525 4384 1594 
z
" transform="scale(0.015625)"/>
      <path id="TeXGyreHeros-Bold-4d" d="M 4966 0 
L 4966 4666 
L 3520 4666 
L 2701 954 
L 1856 4666 
L 422 4666 
L 422 0 
L 1382 0 
L 1382 3635 
L 2221 0 
L 3181 0 
L 4006 3635 
L 4006 0 
L 4966 0 
z
" transform="scale(0.015625)"/>
      <path id="TeXGyreHeros-Bold-53" d="M 4051 1402 
C 4051 2138 3680 2483 2816 2650 
L 2086 2790 
C 1402 2925 1203 3059 1203 3398 
C 1203 3750 1517 3974 2010 3974 
C 2618 3974 2989 3718 2989 3245 
L 3885 3245 
C 3885 4230 3194 4742 2054 4742 
C 934 4742 288 4218 288 3309 
C 288 2579 653 2240 1600 2054 
L 2253 1926 
C 2893 1798 3130 1664 3130 1286 
C 3130 896 2771 691 2189 691 
C 1536 691 1139 966 1139 1466 
L 205 1466 
C 205 467 947 -77 2138 -77 
C 3341 -77 4051 454 4051 1402 
z
" transform="scale(0.015625)"/>
     </defs>
     <use xlink:href="#TeXGyreHeros-Bold-43"/>
     <use xlink:href="#TeXGyreHeros-Bold-4d" x="72.199982"/>
     <use xlink:href="#TeXGyreHeros-Bold-53" x="155.499969"/>
    </g>
   </g>
   <g id="text_18">
    <!-- Private work (CMS simulation) -->
    <g transform="translate(95.492 22.885175) scale(0.13 -0.13)">
     <defs>
      <path id="TeXGyreHeros-Italic-50" d="M 4371 3635 
C 4371 4314 3968 4666 3187 4666 
L 1254 4666 
L 262 0 
L 864 0 
L 1286 1978 
L 2746 1978 
C 3712 1978 4371 2771 4371 3635 
z
M 3757 3520 
C 3757 2957 3302 2502 2637 2502 
L 1395 2502 
L 1747 4141 
L 2989 4141 
C 3488 4141 3757 3923 3757 3520 
z
" transform="scale(0.015625)"/>
      <path id="TeXGyreHeros-Italic-72" d="M 2355 2886 
L 2470 3430 
C 2387 3443 2336 3450 2266 3450 
C 1894 3450 1606 3283 1210 2829 
L 1318 3354 
L 832 3354 
L 122 0 
L 659 0 
L 1030 1741 
C 1190 2496 1626 2886 2291 2886 
L 2355 2886 
z
" transform="scale(0.015625)"/>
      <path id="TeXGyreHeros-Italic-69" d="M 659 0 
L 1370 3354 
L 832 3354 
L 122 0 
L 659 0 
z
M 1677 4525 
L 1011 4525 
L 870 3866 
L 1536 3866 
L 1677 4525 
z
" transform="scale(0.015625)"/>
      <path id="TeXGyreHeros-Italic-76" d="M 3507 3354 
L 2925 3354 
L 1363 653 
L 1050 3354 
L 461 3354 
L 934 0 
L 1517 0 
L 3507 3354 
z
" transform="scale(0.015625)"/>
      <path id="TeXGyreHeros-Italic-61" d="M 3149 0 
L 3232 416 
C 3174 403 3149 403 3123 403 
C 2957 403 2880 461 2880 589 
C 2880 614 2880 634 2886 653 
L 3277 2490 
C 3315 2662 3315 2662 3315 2726 
C 3315 3162 2874 3450 2202 3450 
C 1312 3450 768 3072 646 2362 
L 1184 2362 
C 1312 2771 1587 2957 2061 2957 
C 2445 2957 2739 2784 2739 2547 
C 2739 2522 2733 2477 2726 2426 
L 2707 2310 
C 2662 2048 2515 1971 2061 1933 
C 1203 1850 934 1792 621 1594 
C 288 1382 102 1069 102 698 
C 102 186 454 -96 1030 -96 
C 1446 -96 1818 -38 2310 371 
L 2304 275 
C 2304 13 2502 -58 2810 -58 
C 2899 -58 2893 -45 3149 0 
z
M 2566 1651 
L 2451 1101 
C 2368 704 1805 365 1242 365 
C 877 365 666 493 666 762 
C 666 1165 954 1370 1632 1466 
C 2234 1549 2285 1555 2566 1651 
z
" transform="scale(0.015625)"/>
      <path id="TeXGyreHeros-Italic-74" d="M 1408 467 
C 1210 422 1178 416 1101 416 
C 960 416 870 486 870 589 
C 870 608 877 640 883 678 
L 1363 2925 
L 1933 2925 
L 2022 3354 
L 1453 3354 
L 1651 4275 
L 1114 4275 
L 915 3354 
L 461 3354 
L 371 2925 
L 826 2925 
L 339 659 
C 326 595 320 525 320 461 
C 320 147 538 -45 890 -45 
C 1018 -45 1216 -26 1306 0 
L 1408 467 
z
" transform="scale(0.015625)"/>
      <path id="TeXGyreHeros-Italic-65" d="M 3290 1523 
L 3302 1606 
C 3360 1914 3392 2182 3392 2355 
C 3392 2970 2861 3450 2170 3450 
C 1613 3450 1075 3187 755 2758 
C 454 2355 224 1651 224 1133 
C 224 467 717 -96 1498 -96 
C 2266 -96 2912 326 3110 1018 
L 2573 1018 
C 2355 627 2016 397 1587 397 
C 1082 397 787 685 787 1229 
C 781 1338 787 1402 819 1523 
L 3290 1523 
z
M 2816 1984 
L 934 1984 
C 1094 2547 1568 2957 2086 2957 
C 2541 2957 2829 2650 2829 2170 
C 2829 2106 2822 2061 2816 1984 
z
" transform="scale(0.015625)"/>
      <path id="TeXGyreHeros-Italic-20" transform="scale(0.015625)"/>
      <path id="TeXGyreHeros-Italic-77" d="M 4928 3354 
L 4346 3354 
L 3091 742 
L 3091 3354 
L 2349 3354 
L 1139 742 
L 1139 3354 
L 435 3354 
L 691 0 
L 1306 0 
L 2554 2675 
L 2554 0 
L 3238 0 
L 4928 3354 
z
" transform="scale(0.015625)"/>
      <path id="TeXGyreHeros-Italic-6f" d="M 3366 2253 
C 3366 2931 2906 3450 2138 3450 
C 934 3450 198 2342 198 1075 
C 198 365 698 -96 1414 -96 
C 2579 -96 3366 922 3366 2253 
z
M 2803 2131 
C 2803 1178 2266 397 1504 397 
C 1050 397 762 691 762 1203 
C 762 2131 1299 2957 2054 2957 
C 2528 2957 2803 2650 2803 2131 
z
" transform="scale(0.015625)"/>
      <path id="TeXGyreHeros-Italic-6b" d="M 2893 0 
L 1997 2195 
L 3418 3354 
L 2726 3354 
L 1005 1958 
L 1581 4666 
L 1043 4666 
L 51 0 
L 589 0 
L 864 1299 
L 1549 1862 
L 2278 0 
L 2893 0 
z
" transform="scale(0.015625)"/>
      <path id="TeXGyreHeros-Italic-28" d="M 1254 -1363 
C 1018 -749 902 -147 902 506 
C 902 1926 1459 3347 2534 4666 
L 2182 4666 
C 1069 3501 403 2042 403 742 
C 403 -19 589 -813 902 -1363 
L 1254 -1363 
z
" transform="scale(0.015625)"/>
      <path id="TeXGyreHeros-Italic-43" d="M 4384 1702 
L 3757 1702 
C 3354 787 2950 403 2125 403 
C 1459 403 1018 922 1018 1696 
C 1018 2278 1210 2925 1536 3411 
C 1926 3987 2394 4262 2982 4262 
C 3629 4262 3942 3910 3994 3219 
L 4608 3219 
C 4557 4262 3974 4781 3091 4781 
C 2342 4781 1722 4480 1222 3878 
C 717 3270 403 2381 403 1581 
C 403 563 1011 -115 2035 -115 
C 3162 -115 3840 410 4384 1702 
z
" transform="scale(0.015625)"/>
      <path id="TeXGyreHeros-Italic-4d" d="M 5542 4666 
L 4704 4666 
L 2490 653 
L 1978 4666 
L 1152 4666 
L 160 0 
L 730 0 
L 1555 3872 
L 2048 0 
L 2669 0 
L 4806 3872 
L 3981 0 
L 4550 0 
L 5542 4666 
z
" transform="scale(0.015625)"/>
      <path id="TeXGyreHeros-Italic-53" d="M 3968 1549 
C 3968 1978 3667 2349 3187 2490 
L 2086 2803 
C 1594 2944 1440 3072 1440 3354 
C 1440 3866 1952 4262 2694 4262 
C 3398 4262 3667 3994 3667 3565 
C 3667 3507 3661 3462 3642 3334 
L 4205 3334 
C 4243 3514 4256 3597 4256 3693 
C 4256 4339 3712 4781 2810 4781 
C 2150 4781 1632 4595 1286 4237 
C 1024 3968 826 3514 826 3187 
C 826 2784 1107 2445 1536 2323 
L 2630 2010 
C 3142 1862 3354 1670 3354 1370 
C 3354 838 2771 403 1901 403 
C 1178 403 845 672 845 1254 
C 845 1338 851 1395 870 1517 
L 314 1517 
C 269 1350 256 1248 256 1114 
C 256 346 832 -115 1798 -115 
C 2470 -115 3034 70 3411 422 
C 3738 723 3968 1190 3968 1549 
z
" transform="scale(0.015625)"/>
      <path id="TeXGyreHeros-Italic-73" d="M 2848 1158 
C 2848 1549 2637 1754 2074 1894 
L 1587 2016 
C 1229 2106 1043 2234 1043 2400 
C 1043 2726 1363 2957 1850 2957 
C 2227 2957 2438 2810 2438 2560 
C 2438 2515 2438 2470 2432 2419 
L 2970 2419 
C 3002 2554 3008 2611 3008 2694 
C 3008 3142 2579 3450 1958 3450 
C 1069 3450 480 2938 480 2259 
C 480 1869 704 1677 1363 1510 
L 1837 1389 
C 2240 1286 2285 1146 2285 1011 
C 2285 646 1862 397 1370 397 
C 928 397 678 570 678 890 
C 678 928 685 986 691 1050 
L 122 1050 
C 90 902 83 826 83 723 
C 83 211 531 -96 1274 -96 
C 2227 -96 2848 397 2848 1158 
z
" transform="scale(0.015625)"/>
      <path id="TeXGyreHeros-Italic-6d" d="M 4589 0 
L 5094 2387 
C 5114 2458 5133 2669 5133 2739 
C 5133 3072 4883 3450 4320 3450 
C 3904 3450 3539 3283 3162 2918 
C 3059 3277 2810 3450 2387 3450 
C 1952 3450 1658 3322 1248 2938 
L 1331 3354 
L 845 3354 
L 134 0 
L 672 0 
L 1120 2106 
C 1222 2592 1658 2989 2086 2989 
C 2400 2989 2611 2810 2611 2547 
C 2611 2477 2605 2394 2586 2310 
L 2093 0 
L 2630 0 
L 3078 2106 
C 3181 2605 3616 2989 4083 2989 
C 4384 2989 4570 2803 4570 2496 
C 4570 2400 4570 2400 4512 2182 
L 4051 0 
L 4589 0 
z
" transform="scale(0.015625)"/>
      <path id="TeXGyreHeros-Italic-75" d="M 2771 0 
L 3482 3354 
L 2944 3354 
L 2554 1504 
C 2406 813 1952 365 1408 365 
C 1062 365 838 557 838 858 
C 838 909 845 966 858 1030 
L 1350 3354 
L 813 3354 
L 275 819 
C 262 755 256 685 256 602 
C 256 166 589 -96 1139 -96 
C 1638 -96 2003 58 2368 390 
L 2285 0 
L 2771 0 
z
" transform="scale(0.015625)"/>
      <path id="TeXGyreHeros-Italic-6c" d="M 1645 4666 
L 1107 4666 
L 115 0 
L 653 0 
L 1645 4666 
z
" transform="scale(0.015625)"/>
      <path id="TeXGyreHeros-Italic-6e" d="M 3328 2406 
C 3347 2490 3354 2566 3354 2650 
C 3354 3136 3014 3450 2483 3450 
C 1997 3450 1574 3277 1242 2938 
L 1325 3354 
L 838 3354 
L 128 0 
L 666 0 
L 1056 1850 
C 1203 2554 1658 2989 2234 2989 
C 2554 2989 2790 2765 2790 2470 
C 2790 2432 2771 2336 2752 2234 
L 2278 0 
L 2816 0 
L 3328 2406 
z
" transform="scale(0.015625)"/>
      <path id="TeXGyreHeros-Italic-29" d="M 1760 2605 
C 1760 3328 1568 4134 1267 4666 
L 915 4666 
C 1158 4045 1267 3443 1267 2758 
C 1267 1376 698 -64 -365 -1363 
L -13 -1363 
C 1094 -205 1760 1274 1760 2605 
z
" transform="scale(0.015625)"/>
     </defs>
     <use xlink:href="#TeXGyreHeros-Italic-50"/>
     <use xlink:href="#TeXGyreHeros-Italic-72" x="66.699997"/>
     <use xlink:href="#TeXGyreHeros-Italic-69" x="99.999985"/>
     <use xlink:href="#TeXGyreHeros-Italic-76" x="122.199982"/>
     <use xlink:href="#TeXGyreHeros-Italic-61" x="172.199966"/>
     <use xlink:href="#TeXGyreHeros-Italic-74" x="227.799957"/>
     <use xlink:href="#TeXGyreHeros-Italic-65" x="255.599945"/>
     <use xlink:href="#TeXGyreHeros-Italic-20" x="311.199936"/>
     <use xlink:href="#TeXGyreHeros-Italic-77" x="338.999924"/>
     <use xlink:href="#TeXGyreHeros-Italic-6f" x="411.199905"/>
     <use xlink:href="#TeXGyreHeros-Italic-72" x="466.799896"/>
     <use xlink:href="#TeXGyreHeros-Italic-6b" x="500.099884"/>
     <use xlink:href="#TeXGyreHeros-Italic-20" x="550.099869"/>
     <use xlink:href="#TeXGyreHeros-Italic-28" x="577.899857"/>
     <use xlink:href="#TeXGyreHeros-Italic-43" x="611.199844"/>
     <use xlink:href="#TeXGyreHeros-Italic-4d" x="683.399826"/>
     <use xlink:href="#TeXGyreHeros-Italic-53" x="766.699814"/>
     <use xlink:href="#TeXGyreHeros-Italic-20" x="833.399811"/>
     <use xlink:href="#TeXGyreHeros-Italic-73" x="861.199799"/>
     <use xlink:href="#TeXGyreHeros-Italic-69" x="911.199783"/>
     <use xlink:href="#TeXGyreHeros-Italic-6d" x="933.39978"/>
     <use xlink:href="#TeXGyreHeros-Italic-75" x="1016.699768"/>
     <use xlink:href="#TeXGyreHeros-Italic-6c" x="1072.299759"/>
     <use xlink:href="#TeXGyreHeros-Italic-61" x="1094.499756"/>
     <use xlink:href="#TeXGyreHeros-Italic-74" x="1150.099747"/>
     <use xlink:href="#TeXGyreHeros-Italic-69" x="1177.899734"/>
     <use xlink:href="#TeXGyreHeros-Italic-6f" x="1200.099731"/>
     <use xlink:href="#TeXGyreHeros-Italic-6e" x="1255.699722"/>
     <use xlink:href="#TeXGyreHeros-Italic-29" x="1311.299713"/>
    </g>
   </g>
   <g id="legend_1">
    <g id="patch_7">
     <path d="M 63.18 63.99625 
L 208.505 63.99625 
Q 210.505 63.99625 210.505 61.99625 
L 210.505 33.64 
Q 210.505 31.64 208.505 31.64 
L 63.18 31.64 
Q 61.18 31.64 61.18 33.64 
L 61.18 61.99625 
Q 61.18 63.99625 63.18 63.99625 
z
" style="fill: #ffffff; opacity: 0.8; stroke: #cccccc; stroke-linejoin: miter"/>
    </g>
    <g id="line2d_31">
     <path d="M 65.18 39.738437 
L 65.18 39.738437 
L 75.18 39.738437 
L 75.18 39.738437 
L 85.18 39.738437 
" style="fill: none; stroke: #1f77b4; stroke-width: 1.5; stroke-linecap: square"/>
    </g>
    <g id="text_19">
     <!-- Network -->
     <g transform="translate(93.18 43.238437) scale(0.1 -0.1)">
      <defs>
       <path id="DejaVuSans-4e" d="M 628 4666 
L 1478 4666 
L 3547 763 
L 3547 4666 
L 4159 4666 
L 4159 0 
L 3309 0 
L 1241 3903 
L 1241 0 
L 628 0 
L 628 4666 
z
" transform="scale(0.015625)"/>
       <path id="DejaVuSans-74" d="M 1172 4494 
L 1172 3500 
L 2356 3500 
L 2356 3053 
L 1172 3053 
L 1172 1153 
Q 1172 725 1289 603 
Q 1406 481 1766 481 
L 2356 481 
L 2356 0 
L 1766 0 
Q 1100 0 847 248 
Q 594 497 594 1153 
L 594 3053 
L 172 3053 
L 172 3500 
L 594 3500 
L 594 4494 
L 1172 4494 
z
" transform="scale(0.015625)"/>
       <path id="DejaVuSans-77" d="M 269 3500 
L 844 3500 
L 1563 769 
L 2278 3500 
L 2956 3500 
L 3675 769 
L 4391 3500 
L 4966 3500 
L 4050 0 
L 3372 0 
L 2619 2869 
L 1863 0 
L 1184 0 
L 269 3500 
z
" transform="scale(0.015625)"/>
       <path id="DejaVuSans-6b" d="M 581 4863 
L 1159 4863 
L 1159 1991 
L 2875 3500 
L 3609 3500 
L 1753 1863 
L 3688 0 
L 2938 0 
L 1159 1709 
L 1159 0 
L 581 0 
L 581 4863 
z
" transform="scale(0.015625)"/>
      </defs>
      <use xlink:href="#DejaVuSans-4e"/>
      <use xlink:href="#DejaVuSans-65" x="74.804688"/>
      <use xlink:href="#DejaVuSans-74" x="136.328125"/>
      <use xlink:href="#DejaVuSans-77" x="175.537109"/>
      <use xlink:href="#DejaVuSans-6f" x="257.324219"/>
      <use xlink:href="#DejaVuSans-72" x="318.505859"/>
      <use xlink:href="#DejaVuSans-6b" x="359.619141"/>
     </g>
    </g>
    <g id="line2d_32">
     <path d="M 65.18 54.416562 
L 65.18 54.416562 
L 75.18 54.416562 
L 75.18 54.416562 
L 85.18 54.416562 
" style="fill: none; stroke: #ff7f0e; stroke-width: 1.5; stroke-linecap: square"/>
    </g>
    <g id="text_20">
     <!-- Analytic Sonnenschein -->
     <g transform="translate(93.18 57.916562) scale(0.1 -0.1)">
      <defs>
       <path id="DejaVuSans-41" d="M 2188 4044 
L 1331 1722 
L 3047 1722 
L 2188 4044 
z
M 1831 4666 
L 2547 4666 
L 4325 0 
L 3669 0 
L 3244 1197 
L 1141 1197 
L 716 0 
L 50 0 
L 1831 4666 
z
" transform="scale(0.015625)"/>
       <path id="DejaVuSans-79" d="M 2059 -325 
Q 1816 -950 1584 -1140 
Q 1353 -1331 966 -1331 
L 506 -1331 
L 506 -850 
L 844 -850 
Q 1081 -850 1212 -737 
Q 1344 -625 1503 -206 
L 1606 56 
L 191 3500 
L 800 3500 
L 1894 763 
L 2988 3500 
L 3597 3500 
L 2059 -325 
z
" transform="scale(0.015625)"/>
       <path id="DejaVuSans-69" d="M 603 3500 
L 1178 3500 
L 1178 0 
L 603 0 
L 603 3500 
z
M 603 4863 
L 1178 4863 
L 1178 4134 
L 603 4134 
L 603 4863 
z
" transform="scale(0.015625)"/>
       <path id="DejaVuSans-63" d="M 3122 3366 
L 3122 2828 
Q 2878 2963 2633 3030 
Q 2388 3097 2138 3097 
Q 1578 3097 1268 2742 
Q 959 2388 959 1747 
Q 959 1106 1268 751 
Q 1578 397 2138 397 
Q 2388 397 2633 464 
Q 2878 531 3122 666 
L 3122 134 
Q 2881 22 2623 -34 
Q 2366 -91 2075 -91 
Q 1284 -91 818 406 
Q 353 903 353 1747 
Q 353 2603 823 3093 
Q 1294 3584 2113 3584 
Q 2378 3584 2631 3529 
Q 2884 3475 3122 3366 
z
" transform="scale(0.015625)"/>
       <path id="DejaVuSans-53" d="M 3425 4513 
L 3425 3897 
Q 3066 4069 2747 4153 
Q 2428 4238 2131 4238 
Q 1616 4238 1336 4038 
Q 1056 3838 1056 3469 
Q 1056 3159 1242 3001 
Q 1428 2844 1947 2747 
L 2328 2669 
Q 3034 2534 3370 2195 
Q 3706 1856 3706 1288 
Q 3706 609 3251 259 
Q 2797 -91 1919 -91 
Q 1588 -91 1214 -16 
Q 841 59 441 206 
L 441 856 
Q 825 641 1194 531 
Q 1563 422 1919 422 
Q 2459 422 2753 634 
Q 3047 847 3047 1241 
Q 3047 1584 2836 1778 
Q 2625 1972 2144 2069 
L 1759 2144 
Q 1053 2284 737 2584 
Q 422 2884 422 3419 
Q 422 4038 858 4394 
Q 1294 4750 2059 4750 
Q 2388 4750 2728 4690 
Q 3069 4631 3425 4513 
z
" transform="scale(0.015625)"/>
      </defs>
      <use xlink:href="#DejaVuSans-41"/>
      <use xlink:href="#DejaVuSans-6e" x="68.408203"/>
      <use xlink:href="#DejaVuSans-61" x="131.787109"/>
      <use xlink:href="#DejaVuSans-6c" x="193.066406"/>
      <use xlink:href="#DejaVuSans-79" x="220.849609"/>
      <use xlink:href="#DejaVuSans-74" x="280.029297"/>
      <use xlink:href="#DejaVuSans-69" x="319.238281"/>
      <use xlink:href="#DejaVuSans-63" x="347.021484"/>
      <use xlink:href="#DejaVuSans-20" x="402.001953"/>
      <use xlink:href="#DejaVuSans-53" x="433.789062"/>
      <use xlink:href="#DejaVuSans-6f" x="497.265625"/>
      <use xlink:href="#DejaVuSans-6e" x="558.447266"/>
      <use xlink:href="#DejaVuSans-6e" x="621.826172"/>
      <use xlink:href="#DejaVuSans-65" x="685.205078"/>
      <use xlink:href="#DejaVuSans-6e" x="746.728516"/>
      <use xlink:href="#DejaVuSans-73" x="810.107422"/>
      <use xlink:href="#DejaVuSans-63" x="862.207031"/>
      <use xlink:href="#DejaVuSans-68" x="917.1875"/>
      <use xlink:href="#DejaVuSans-65" x="980.566406"/>
      <use xlink:href="#DejaVuSans-69" x="1042.089844"/>
      <use xlink:href="#DejaVuSans-6e" x="1069.873047"/>
     </g>
    </g>
   </g>
  </g>
 </g>
 <defs>
  <clipPath id="pe332d7ff53">
   <rect x="56.18" y="26.64" width="276.321538" height="197.246154"/>
  </clipPath>
 </defs>
</svg>
